<?xml version="1.0" encoding="utf-8"?>
<!-- Generator: Adobe Illustrator 25.4.1, SVG Export Plug-In . SVG Version: 6.00 Build 0)  -->
<svg version="1.1" id="Capa_1" xmlns="http://www.w3.org/2000/svg" xmlns:xlink="http://www.w3.org/1999/xlink" x="0px" y="0px"
	 viewBox="0 0 350.2 350.2" style="enable-background:new 0 0 350.2 350.2;" xml:space="preserve">
<style type="text/css">
	.st0{fill:#882F86;}
</style>
<g>
	<g>
		<path class="st0" d="M75.2,224.2c-18.2,0-33,14.8-33,33s14.8,33,33,33c18.2,0,33-14.8,33-33S93.5,224.2,75.2,224.2z M75.2,271.6
			c-7.9,0-14.3-6.4-14.3-14.3c0-7.9,6.4-14.3,14.3-14.3s14.3,6.4,14.3,14.3C89.6,265.1,83.2,271.6,75.2,271.6z"/>
		<path class="st0" d="M313.9,172.1c-12.1-3.1-19-5.1-23.8-14.3l-15.9-32.2c-4.8-9.2-17.1-16.7-27.4-16.7h-24.6V79.1
			c0-10.5-8.6-19-19-19H19c-10.5,0-19,8.6-19,19v161.1c0,10.5,8.6,19,19,19h13.3c0-0.7-0.1-1.3-0.1-2c0-23.7,19.3-43,43-43
			c23.7,0,43,19.3,43,43c0,0.7,0,1.3-0.1,2h85c1.1,0,2.1-0.1,3.1-0.3c0-0.6,0-1.1,0-1.7c0-23.7,19.3-43,43-43s43,19.3,43,43
			c0,0.7,0,1.3-0.1,2h39.3c10.3,0,18.8-8.5,18.8-18.8v-35.7C350.2,174.7,323.9,174.7,313.9,172.1z M159.8,156.4
			c0,5.4-4.4,9.8-9.8,9.8h-20.4v20.4c0,5.4-4.4,9.8-9.8,9.8h-17.2c-5.4,0-9.8-4.4-9.8-9.8v-20.4H72.2c-5.4,0-9.8-4.4-9.8-9.8v-17.2
			c0-5.4,4.4-9.8,9.8-9.8h20.4v-20.4c0-5.4,4.4-9.8,9.8-9.8h17.2c5.4,0,9.8,4.4,9.8,9.8v20.4H150c5.4,0,9.8,4.4,9.8,9.8V156.4z
			 M222.2,170.4V122h18c9.2,0,20.2,6.7,24.4,14.8l14.1,28.6c1,2,2.2,3.6,3.5,4.9H222.2z"/>
		<path class="st0" d="M249.2,224.2c-18.2,0-33,14.8-33,33s14.8,33,33,33c18.2,0,33-14.8,33-33S267.5,224.2,249.2,224.2z
			 M249.2,271.6c-7.9,0-14.3-6.4-14.3-14.3c0-7.9,6.4-14.3,14.3-14.3c7.9,0,14.3,6.4,14.3,14.3C263.6,265.1,257.2,271.6,249.2,271.6
			z"/>
	</g>
</g>
</svg>
