<?xml version="1.0" encoding="utf-8"?>
<!-- Generator: Adobe Illustrator 25.4.1, SVG Export Plug-In . SVG Version: 6.00 Build 0)  -->
<svg version="1.1" id="Capa_1" xmlns="http://www.w3.org/2000/svg" xmlns:xlink="http://www.w3.org/1999/xlink" x="0px" y="0px"
	 viewBox="0 0 512 512" style="enable-background:new 0 0 512 512;" xml:space="preserve">
<style type="text/css">
	.st0{fill:#882F86;}
</style>
<g>
	<path class="st0" d="M121,60v272h75c0-25.2,0-224.2,0-302h-30v30H121z"/>
	<path class="st0" d="M466,30h-30v302h76V60h-46V30z"/>
	<path class="st0" d="M241,60h-15v272h180V60h-15V0H241V60z M271,30h90v30h-90V30z M271,181h30v-30h30v30h30v30h-30v30h-30v-30h-30
		V181z"/>
	<g>
		<path class="st0" d="M61,362H0v150h61C61,506.6,61,357.5,61,362z"/>
		<path class="st0" d="M507.6,397.7c-7.9-12.7-24.1-17.5-37.6-11.1L335.9,452H196v-30h120c16.6,0,30-13.4,30-30
			c0-16.6-13.4-30-30-30H129.8l-30,30H91v120h258.4l146-72.3C511.1,432.1,516.8,412.6,507.6,397.7L507.6,397.7z"/>
	</g>
</g>
</svg>
