<?xml version="1.0" encoding="utf-8"?>
<!-- Generator: Adobe Illustrator 25.4.1, SVG Export Plug-In . SVG Version: 6.00 Build 0)  -->
<svg version="1.1" id="Capa_1" xmlns="http://www.w3.org/2000/svg" xmlns:xlink="http://www.w3.org/1999/xlink" x="0px" y="0px"
	 viewBox="0 0 512 512" style="enable-background:new 0 0 512 512;" xml:space="preserve">
<style type="text/css">
	.st0{fill:#882F86;}
</style>
<g>
	<path class="st0" d="M297.1,200.5c-8.8-14.4-24.1-23-40.9-23c-13.5,0-26,5.5-35.2,15.4c-8.2,8.9-12.7,20.4-12.7,32.5
		c0,26.4,21.5,47.9,47.9,47.9c26.4,0,47.9-21.5,47.9-47.9c0-4.9-0.7-9.8-2.2-14.4C300.7,207.3,299.1,203.8,297.1,200.5L297.1,200.5z
		"/>
	<path class="st0" d="M268.4,304.3H244c-26.5,0-50.8,13.3-65,35.6c-8,12.4-12.2,26.8-12.2,41.6v53.3h178.7v-53.3
		c0-14.8-4.2-29.2-12.2-41.6C319.1,317.6,294.8,304.3,268.4,304.3z"/>
	<ellipse class="st0" cx="135.8" cy="149.9" rx="72.7" ry="72.7"/>
	<path class="st0" d="M136.7,381.5c0-20.5,5.9-40.6,16.9-57.9c12.1-18.9,29.4-33.1,49.3-41.4c-12.6-11.8-21.3-27.8-23.9-45.7
		c-11.4,9.9-25.1,16.2-43.3,16.2c-23.2,0-44.5-7.7-61.8-20.7c-22.2,9.4-41.3,25.4-54.8,46.4C6.6,298.1,0,320.8,0,344.1v59.3h136.7
		V381.5z"/>
	
		<ellipse transform="matrix(0.7071 -0.7071 0.7071 0.7071 4.1746 309.9489)" class="st0" cx="376.2" cy="149.9" rx="72.7" ry="72.7"/>
	<path class="st0" d="M492.8,278.5c-13.5-21-32.6-37-54.8-46.4c-17.2,13-38.6,20.7-61.8,20.7c-18.1,0-31.6-6.8-42.8-17.2
		c-2.4,18.3-11.2,34.7-24.1,46.7c20,8.2,37.2,22.5,49.3,41.4c11.1,17.3,16.9,37.3,16.9,57.9v21.9H512v-59.3
		C512,320.8,505.4,298.1,492.8,278.5L492.8,278.5z"/>
</g>
</svg>
