<?xml version="1.0" encoding="utf-8"?>
<!-- Generator: Adobe Illustrator 25.4.1, SVG Export Plug-In . SVG Version: 6.00 Build 0)  -->
<svg version="1.1" id="Capa_1" xmlns="http://www.w3.org/2000/svg" xmlns:xlink="http://www.w3.org/1999/xlink" x="0px" y="0px"
	 viewBox="0 0 469.3 469.3" style="enable-background:new 0 0 469.3 469.3;" xml:space="preserve">
<style type="text/css">
	.st0{fill:#882F86;}
</style>
<g>
	<g>
		<g>
			<path class="st0" d="M323.1,282.9l6.2,6.2c6,6.1,14.1,9.4,22.6,9.4s16.6-3.3,22.6-9.4l85.3-85.4c6.1-6,9.4-14.1,9.4-22.6
				s-3.3-16.6-9.4-22.6l-6.2-6.3c-4.2-4.2-10.9-4.2-15.1,0L323.1,267.8C319,272,319,278.7,323.1,282.9z"/>
			<path class="st0" d="M186.3,146c2.1,2.1,4.8,3.1,7.5,3.1s5.5-1,7.5-3.1L316.9,30.4c4.2-4.2,4.2-10.9,0-15.1l-6.2-6.2
				C298.6-3,277.4-3,265.4,9.1l-85.3,85.4c-6.1,6-9.4,14.1-9.4,22.7s3.3,16.6,9.4,22.6L186.3,146z"/>
			<path class="st0" d="M293,252.7c2.1,2.1,4.8,3.1,7.5,3.1s5.5-1,7.5-3.1l115.5-115.6c4.2-4.2,4.2-10.9,0-15.1L347,45.5
				c-4.2-4.2-10.9-4.2-15.1,0L216.5,161.1c-4.2,4.2-4.2,10.9,0,15.1l15.3,15.3C149.2,263.1,43,365.9,12.5,396.5
				C4.4,404.5,0,415.2,0,426.6c0,23.5,19.1,42.7,42.7,42.7c11.4,0,22.1-4.4,30.2-12.5c36.8-36.8,136.9-140.6,205-219.2L293,252.7z"
				/>
			<path class="st0" d="M405.3,362.7H256c-35.3,0-64,28.4-64,63.7c0,23.5,19.1,42.7,42.7,42.7h192c23.5,0,42.7-19.1,42.7-42.7
				C469.3,391.1,440.6,362.7,405.3,362.7z"/>
		</g>
	</g>
</g>
</svg>
