<svg width="392" height="285" viewBox="0 0 392 285" fill="none" xmlns="http://www.w3.org/2000/svg">
<path opacity="0.5" d="M0 25H392V265C392 276.046 383.046 285 372 285H20C8.9543 285 0 276.046 0 265V25Z" fill="#DDBDDF"/>
<path d="M48.796 96.72C48.052 96.72 47.512 96.432 47.176 95.856C46.864 95.256 46.672 94.44 46.6 93.408C46.528 92.376 46.492 91.2 46.492 89.88H39.652L36.808 96H32.812L44.656 72.24H49.264C49.456 77.112 49.6 81.192 49.696 84.48C49.792 87.744 49.924 90.264 50.092 92.04C50.284 93.792 50.596 94.848 51.028 95.208C50.908 95.64 50.632 96 50.2 96.288C49.768 96.576 49.3 96.72 48.796 96.72ZM40.84 87.396H46.492L46.204 74.724L40.84 87.396ZM59.8477 96.72C58.6477 96.72 57.6997 96.48 57.0037 96C56.3317 95.52 55.8517 94.884 55.5637 94.092C55.2997 93.276 55.1677 92.4 55.1677 91.464C55.1677 90.72 55.2637 89.784 55.4557 88.656C55.6477 87.528 55.9357 86.076 56.3197 84.3C56.7037 82.524 57.1957 80.304 57.7957 77.64L60.9277 77.28C60.3997 79.68 59.9677 81.66 59.6317 83.22C59.3197 84.756 59.0677 86.016 58.8757 87C58.7077 87.96 58.5877 88.752 58.5157 89.376C58.4677 89.976 58.4437 90.54 58.4437 91.068C58.4437 91.644 58.5157 92.208 58.6597 92.76C58.8277 93.288 59.1037 93.732 59.4877 94.092C59.8957 94.428 60.4357 94.596 61.1077 94.596C62.0197 94.596 62.7757 94.296 63.3757 93.696C63.9997 93.072 64.4917 92.292 64.8517 91.356C65.2357 90.42 65.5117 89.472 65.6797 88.512L67.8397 77.64L71.1157 77.28L68.1277 92.652C68.1037 92.868 68.0677 93.12 68.0197 93.408C67.9717 93.696 67.9477 93.948 67.9477 94.164C67.9477 94.5 68.0197 94.764 68.1637 94.956C68.3317 95.124 68.5717 95.22 68.8837 95.244C68.8117 95.58 68.6677 95.856 68.4517 96.072C68.2357 96.288 67.9837 96.444 67.6957 96.54C67.4077 96.66 67.0837 96.72 66.7237 96.72C66.0757 96.72 65.5597 96.54 65.1757 96.18C64.8157 95.844 64.5997 95.34 64.5277 94.668C64.0717 95.412 63.3877 95.94 62.4757 96.252C61.5877 96.564 60.7117 96.72 59.8477 96.72ZM75.3837 96.72C74.7117 96.72 74.1957 96.528 73.8357 96.144C73.4757 95.76 73.2957 95.244 73.2957 94.596C73.2957 94.404 73.3077 94.2 73.3317 93.984C73.3557 93.744 73.3917 93.42 73.4397 93.012C73.5117 92.604 73.6197 92.04 73.7637 91.32C73.9077 90.6 74.0877 89.676 74.3037 88.548C74.5437 87.396 74.8317 85.98 75.1677 84.3C75.5277 82.596 75.9477 80.568 76.4277 78.216C76.6677 76.872 76.8717 75.492 77.0397 74.076C77.2317 72.66 77.3277 71.472 77.3277 70.512C77.3277 70.248 77.3157 70.02 77.2917 69.828C77.2917 69.612 77.2677 69.42 77.2197 69.252C77.3637 69.132 77.5557 69.036 77.7957 68.964C78.0597 68.892 78.3357 68.856 78.6237 68.856C79.1757 68.856 79.7037 69.036 80.2077 69.396C80.7117 69.732 80.9637 70.356 80.9637 71.268C80.9637 71.436 80.9037 71.82 80.7837 72.42C80.6877 72.996 80.5557 73.68 80.3877 74.472C80.2437 75.264 80.0877 76.068 79.9197 76.884C79.7757 77.676 79.6437 78.372 79.5237 78.972C78.9237 81.876 78.4317 84.24 78.0477 86.064C77.6877 87.888 77.3997 89.328 77.1837 90.384C76.9917 91.416 76.8477 92.184 76.7517 92.688C76.6797 93.168 76.6317 93.504 76.6077 93.696C76.5837 93.864 76.5717 94.02 76.5717 94.164C76.5717 94.5 76.6437 94.764 76.7877 94.956C76.9557 95.124 77.1957 95.22 77.5077 95.244C77.4357 95.58 77.2917 95.856 77.0757 96.072C76.8597 96.288 76.6077 96.444 76.3197 96.54C76.0317 96.66 75.7197 96.72 75.3837 96.72ZM86.6343 96.72C85.4583 96.72 84.4983 96.432 83.7543 95.856C83.0343 95.256 82.5063 94.452 82.1703 93.444C81.8343 92.436 81.6663 91.284 81.6663 89.988C81.6663 88.212 81.8943 86.544 82.3503 84.984C82.8303 83.4 83.5023 82.008 84.3663 80.808C85.2303 79.584 86.2503 78.636 87.4263 77.964C88.6023 77.268 89.8863 76.92 91.2783 76.92C92.4303 76.92 93.6663 77.172 94.9863 77.676L98.1183 77.28L95.1663 92.652C95.1423 92.868 95.1063 93.12 95.0583 93.408C95.0103 93.696 94.9863 93.948 94.9863 94.164C94.9863 94.5 95.0583 94.764 95.2023 94.956C95.3703 95.124 95.6103 95.22 95.9223 95.244C95.8263 95.58 95.6703 95.856 95.4543 96.072C95.2383 96.288 94.9863 96.444 94.6983 96.54C94.4103 96.66 94.0863 96.72 93.7263 96.72C93.1023 96.72 92.5863 96.54 92.1783 96.18C91.7943 95.844 91.5903 95.34 91.5663 94.668C90.9423 95.268 90.2103 95.76 89.3703 96.144C88.5303 96.528 87.6183 96.72 86.6343 96.72ZM88.0743 94.596C89.0343 94.596 89.8143 94.284 90.4143 93.66C91.0383 93.012 91.5303 92.22 91.8903 91.284C92.2503 90.324 92.5143 89.4 92.6823 88.512L94.2303 80.304C93.7263 79.896 93.1863 79.596 92.6103 79.404C92.0343 79.188 91.5063 79.08 91.0263 79.08C90.2823 79.08 89.5983 79.272 88.9743 79.656C88.3743 80.04 87.8343 80.58 87.3543 81.276C86.8983 81.972 86.5023 82.8 86.1663 83.76C85.8543 84.696 85.6143 85.728 85.4463 86.856C85.3023 87.96 85.2303 89.112 85.2303 90.312C85.2303 91.512 85.4223 92.532 85.8063 93.372C86.2143 94.188 86.9703 94.596 88.0743 94.596ZM110.827 96.684C109.963 96.684 109.135 96.576 108.343 96.36C107.575 96.168 106.891 95.868 106.291 95.46C105.691 95.052 105.211 94.56 104.851 93.984C104.515 93.408 104.347 92.748 104.347 92.004C104.347 91.236 104.587 90.696 105.067 90.384C105.739 91.44 106.591 92.256 107.623 92.832C108.679 93.408 109.891 93.696 111.259 93.696C112.987 93.696 114.391 93.216 115.471 92.256C116.575 91.296 117.127 90.012 117.127 88.404C117.127 87.492 116.887 86.724 116.407 86.1C115.927 85.476 115.231 85.008 114.319 84.696C113.407 84.384 112.291 84.228 110.971 84.228C110.275 84.228 109.483 84.264 108.595 84.336C107.707 84.408 106.999 84.48 106.471 84.552L109.279 72.24H119.971C120.259 72.24 120.535 72.216 120.799 72.168C121.063 72.12 121.303 72 121.519 71.808C121.663 72 121.771 72.228 121.843 72.492C121.939 72.732 121.987 72.996 121.987 73.284C121.987 73.692 121.891 74.052 121.699 74.364C121.507 74.652 121.219 74.88 120.835 75.048C120.451 75.192 119.983 75.264 119.431 75.264H111.007L109.711 81.636C110.023 81.636 110.371 81.636 110.755 81.636C111.139 81.612 111.571 81.6 112.051 81.6C113.971 81.6 115.555 81.828 116.803 82.284C118.051 82.74 118.987 83.436 119.611 84.372C120.235 85.284 120.547 86.448 120.547 87.864C120.547 89.544 120.115 91.056 119.251 92.4C118.411 93.72 117.259 94.764 115.795 95.532C114.331 96.3 112.675 96.684 110.827 96.684Z" fill="#882F87"/>
<path d="M54.295 160H52.045C51.785 160 51.575 159.935 51.415 159.805C51.255 159.675 51.135 159.51 51.055 159.31L49.045 154.12H39.4L37.39 159.31C37.32 159.49 37.2 159.65 37.03 159.79C36.86 159.93 36.65 160 36.4 160H34.15L42.745 138.505H45.7L54.295 160ZM40.21 152.02H48.235L44.86 143.275C44.64 142.735 44.425 142.06 44.215 141.25C44.105 141.66 43.995 142.04 43.885 142.39C43.785 142.73 43.685 143.03 43.585 143.29L40.21 152.02ZM66.9456 147.505C66.8656 147.615 66.7856 147.7 66.7056 147.76C66.6256 147.82 66.5106 147.85 66.3606 147.85C66.2106 147.85 66.0456 147.79 65.8656 147.67C65.6956 147.54 65.4756 147.4 65.2056 147.25C64.9356 147.1 64.6056 146.965 64.2156 146.845C63.8356 146.715 63.3656 146.65 62.8056 146.65C62.0656 146.65 61.4106 146.785 60.8406 147.055C60.2706 147.315 59.7906 147.695 59.4006 148.195C59.0206 148.695 58.7306 149.3 58.5306 150.01C58.3406 150.72 58.2456 151.515 58.2456 152.395C58.2456 153.315 58.3506 154.135 58.5606 154.855C58.7706 155.565 59.0656 156.165 59.4456 156.655C59.8256 157.135 60.2856 157.505 60.8256 157.765C61.3756 158.015 61.9906 158.14 62.6706 158.14C63.3206 158.14 63.8556 158.065 64.2756 157.915C64.6956 157.755 65.0456 157.58 65.3256 157.39C65.6056 157.2 65.8356 157.03 66.0156 156.88C66.1956 156.72 66.3756 156.64 66.5556 156.64C66.7856 156.64 66.9556 156.725 67.0656 156.895L67.8156 157.87C67.1556 158.68 66.3306 159.275 65.3406 159.655C64.3506 160.025 63.3056 160.21 62.2056 160.21C61.2556 160.21 60.3706 160.035 59.5506 159.685C58.7406 159.335 58.0356 158.83 57.4356 158.17C56.8356 157.5 56.3606 156.68 56.0106 155.71C55.6706 154.74 55.5006 153.635 55.5006 152.395C55.5006 151.265 55.6556 150.22 55.9656 149.26C56.2856 148.3 56.7456 147.475 57.3456 146.785C57.9556 146.085 58.7056 145.54 59.5956 145.15C60.4856 144.76 61.5056 144.565 62.6556 144.565C63.7156 144.565 64.6556 144.74 65.4756 145.09C66.2956 145.43 67.0206 145.915 67.6506 146.545L66.9456 147.505ZM76.7345 144.565C77.8445 144.565 78.8445 144.75 79.7345 145.12C80.6345 145.49 81.3945 146.015 82.0145 146.695C82.6445 147.375 83.1245 148.2 83.4545 149.17C83.7945 150.13 83.9645 151.205 83.9645 152.395C83.9645 153.595 83.7945 154.675 83.4545 155.635C83.1245 156.595 82.6445 157.415 82.0145 158.095C81.3945 158.775 80.6345 159.3 79.7345 159.67C78.8445 160.03 77.8445 160.21 76.7345 160.21C75.6245 160.21 74.6195 160.03 73.7195 159.67C72.8295 159.3 72.0695 158.775 71.4395 158.095C70.8095 157.415 70.3245 156.595 69.9845 155.635C69.6445 154.675 69.4745 153.595 69.4745 152.395C69.4745 151.205 69.6445 150.13 69.9845 149.17C70.3245 148.2 70.8095 147.375 71.4395 146.695C72.0695 146.015 72.8295 145.49 73.7195 145.12C74.6195 144.75 75.6245 144.565 76.7345 144.565ZM76.7345 158.125C78.2345 158.125 79.3545 157.625 80.0945 156.625C80.8345 155.615 81.2045 154.21 81.2045 152.41C81.2045 150.6 80.8345 149.19 80.0945 148.18C79.3545 147.17 78.2345 146.665 76.7345 146.665C75.9745 146.665 75.3145 146.795 74.7545 147.055C74.1945 147.315 73.7245 147.69 73.3445 148.18C72.9745 148.67 72.6945 149.275 72.5045 149.995C72.3245 150.705 72.2345 151.51 72.2345 152.41C72.2345 153.31 72.3245 154.115 72.5045 154.825C72.6945 155.535 72.9745 156.135 73.3445 156.625C73.7245 157.105 74.1945 157.475 74.7545 157.735C75.3145 157.995 75.9745 158.125 76.7345 158.125ZM90.2245 137.905V160H87.5545V137.905H90.2245ZM94.9302 160V137.905H97.6002V146.845C98.2502 146.155 98.9702 145.605 99.7602 145.195C100.55 144.775 101.46 144.565 102.49 144.565C103.32 144.565 104.05 144.705 104.68 144.985C105.32 145.255 105.85 145.645 106.27 146.155C106.7 146.655 107.025 147.26 107.245 147.97C107.465 148.68 107.575 149.465 107.575 150.325V160H104.905V150.325C104.905 149.175 104.64 148.285 104.11 147.655C103.59 147.015 102.79 146.695 101.71 146.695C100.92 146.695 100.18 146.885 99.4902 147.265C98.8102 147.645 98.1802 148.16 97.6002 148.81V160H94.9302ZM114.57 144.805V160H111.9V144.805H114.57ZM115.17 140.035C115.17 140.295 115.115 140.54 115.005 140.77C114.905 140.99 114.765 141.19 114.585 141.37C114.415 141.54 114.215 141.675 113.985 141.775C113.755 141.875 113.51 141.925 113.25 141.925C112.99 141.925 112.745 141.875 112.515 141.775C112.295 141.675 112.095 141.54 111.915 141.37C111.745 141.19 111.61 140.99 111.51 140.77C111.41 140.54 111.36 140.295 111.36 140.035C111.36 139.775 111.41 139.53 111.51 139.3C111.61 139.06 111.745 138.855 111.915 138.685C112.095 138.505 112.295 138.365 112.515 138.265C112.745 138.165 112.99 138.115 113.25 138.115C113.51 138.115 113.755 138.165 113.985 138.265C114.215 138.365 114.415 138.505 114.585 138.685C114.765 138.855 114.905 139.06 115.005 139.3C115.115 139.53 115.17 139.775 115.17 140.035ZM119.276 160V144.805H120.866C121.246 144.805 121.486 144.99 121.586 145.36L121.781 146.92C122.341 146.23 122.966 145.665 123.656 145.225C124.356 144.785 125.166 144.565 126.086 144.565C127.116 144.565 127.946 144.85 128.576 145.42C129.216 145.99 129.676 146.76 129.956 147.73C130.166 147.18 130.441 146.705 130.781 146.305C131.131 145.905 131.521 145.575 131.951 145.315C132.381 145.055 132.836 144.865 133.316 144.745C133.806 144.625 134.301 144.565 134.801 144.565C135.601 144.565 136.311 144.695 136.931 144.955C137.561 145.205 138.091 145.575 138.521 146.065C138.961 146.555 139.296 147.16 139.526 147.88C139.756 148.59 139.871 149.405 139.871 150.325V160H137.201V150.325C137.201 149.135 136.941 148.235 136.421 147.625C135.901 147.005 135.146 146.695 134.156 146.695C133.716 146.695 133.296 146.775 132.896 146.935C132.506 147.085 132.161 147.31 131.861 147.61C131.561 147.91 131.321 148.29 131.141 148.75C130.971 149.2 130.886 149.725 130.886 150.325V160H128.216V150.325C128.216 149.105 127.971 148.195 127.481 147.595C126.991 146.995 126.276 146.695 125.336 146.695C124.676 146.695 124.061 146.875 123.491 147.235C122.931 147.585 122.416 148.065 121.946 148.675V160H119.276ZM149.93 144.565C150.84 144.565 151.68 144.72 152.45 145.03C153.22 145.33 153.885 145.77 154.445 146.35C155.005 146.92 155.44 147.63 155.75 148.48C156.07 149.32 156.23 150.28 156.23 151.36C156.23 151.78 156.185 152.06 156.095 152.2C156.005 152.34 155.835 152.41 155.585 152.41H145.475C145.495 153.37 145.625 154.205 145.865 154.915C146.105 155.625 146.435 156.22 146.855 156.7C147.275 157.17 147.775 157.525 148.355 157.765C148.935 157.995 149.585 158.11 150.305 158.11C150.975 158.11 151.55 158.035 152.03 157.885C152.52 157.725 152.94 157.555 153.29 157.375C153.64 157.195 153.93 157.03 154.16 156.88C154.4 156.72 154.605 156.64 154.775 156.64C154.995 156.64 155.165 156.725 155.285 156.895L156.035 157.87C155.705 158.27 155.31 158.62 154.85 158.92C154.39 159.21 153.895 159.45 153.365 159.64C152.845 159.83 152.305 159.97 151.745 160.06C151.185 160.16 150.63 160.21 150.08 160.21C149.03 160.21 148.06 160.035 147.17 159.685C146.29 159.325 145.525 158.805 144.875 158.125C144.235 157.435 143.735 156.585 143.375 155.575C143.015 154.565 142.835 153.405 142.835 152.095C142.835 151.035 142.995 150.045 143.315 149.125C143.645 148.205 144.115 147.41 144.725 146.74C145.335 146.06 146.08 145.53 146.96 145.15C147.84 144.76 148.83 144.565 149.93 144.565ZM149.99 146.53C148.7 146.53 147.685 146.905 146.945 147.655C146.205 148.395 145.745 149.425 145.565 150.745H153.83C153.83 150.125 153.745 149.56 153.575 149.05C153.405 148.53 153.155 148.085 152.825 147.715C152.495 147.335 152.09 147.045 151.61 146.845C151.14 146.635 150.6 146.53 149.99 146.53ZM159.647 160V144.805H161.237C161.617 144.805 161.857 144.99 161.957 145.36L162.167 147.01C162.827 146.28 163.562 145.69 164.372 145.24C165.192 144.79 166.137 144.565 167.207 144.565C168.037 144.565 168.767 144.705 169.397 144.985C170.037 145.255 170.567 145.645 170.987 146.155C171.417 146.655 171.742 147.26 171.962 147.97C172.182 148.68 172.292 149.465 172.292 150.325V160H169.622V150.325C169.622 149.175 169.357 148.285 168.827 147.655C168.307 147.015 167.507 146.695 166.427 146.695C165.637 146.695 164.897 146.885 164.207 147.265C163.527 147.645 162.897 148.16 162.317 148.81V160H159.647ZM180.922 160.24C179.722 160.24 178.797 159.905 178.147 159.235C177.507 158.565 177.187 157.6 177.187 156.34V147.04H175.357C175.197 147.04 175.062 146.995 174.952 146.905C174.842 146.805 174.787 146.655 174.787 146.455V145.39L177.277 145.075L177.892 140.38C177.912 140.23 177.977 140.11 178.087 140.02C178.197 139.92 178.337 139.87 178.507 139.87H179.857V145.105H184.207V147.04H179.857V156.16C179.857 156.8 180.012 157.275 180.322 157.585C180.632 157.895 181.032 158.05 181.522 158.05C181.802 158.05 182.042 158.015 182.242 157.945C182.452 157.865 182.632 157.78 182.782 157.69C182.932 157.6 183.057 157.52 183.157 157.45C183.267 157.37 183.362 157.33 183.442 157.33C183.582 157.33 183.707 157.415 183.817 157.585L184.597 158.86C184.137 159.29 183.582 159.63 182.932 159.88C182.282 160.12 181.612 160.24 180.922 160.24ZM193.658 144.565C194.768 144.565 195.768 144.75 196.658 145.12C197.558 145.49 198.318 146.015 198.938 146.695C199.568 147.375 200.048 148.2 200.378 149.17C200.718 150.13 200.888 151.205 200.888 152.395C200.888 153.595 200.718 154.675 200.378 155.635C200.048 156.595 199.568 157.415 198.938 158.095C198.318 158.775 197.558 159.3 196.658 159.67C195.768 160.03 194.768 160.21 193.658 160.21C192.548 160.21 191.543 160.03 190.643 159.67C189.753 159.3 188.993 158.775 188.363 158.095C187.733 157.415 187.248 156.595 186.908 155.635C186.568 154.675 186.398 153.595 186.398 152.395C186.398 151.205 186.568 150.13 186.908 149.17C187.248 148.2 187.733 147.375 188.363 146.695C188.993 146.015 189.753 145.49 190.643 145.12C191.543 144.75 192.548 144.565 193.658 144.565ZM193.658 158.125C195.158 158.125 196.278 157.625 197.018 156.625C197.758 155.615 198.128 154.21 198.128 152.41C198.128 150.6 197.758 149.19 197.018 148.18C196.278 147.17 195.158 146.665 193.658 146.665C192.898 146.665 192.238 146.795 191.678 147.055C191.118 147.315 190.648 147.69 190.268 148.18C189.898 148.67 189.618 149.275 189.428 149.995C189.248 150.705 189.158 151.51 189.158 152.41C189.158 153.31 189.248 154.115 189.428 154.825C189.618 155.535 189.898 156.135 190.268 156.625C190.648 157.105 191.118 157.475 191.678 157.735C192.238 157.995 192.898 158.125 193.658 158.125ZM221.139 160H219.954C219.694 160 219.484 159.96 219.324 159.88C219.164 159.8 219.059 159.63 219.009 159.37L218.709 157.96C218.309 158.32 217.919 158.645 217.539 158.935C217.159 159.215 216.759 159.455 216.339 159.655C215.919 159.845 215.469 159.99 214.989 160.09C214.519 160.19 213.994 160.24 213.414 160.24C212.824 160.24 212.269 160.16 211.749 160C211.239 159.83 210.794 159.58 210.414 159.25C210.034 158.92 209.729 158.505 209.499 158.005C209.279 157.495 209.169 156.895 209.169 156.205C209.169 155.605 209.334 155.03 209.664 154.48C209.994 153.92 210.524 153.425 211.254 152.995C211.994 152.565 212.959 152.215 214.149 151.945C215.339 151.665 216.794 151.505 218.514 151.465V150.28C218.514 149.1 218.259 148.21 217.749 147.61C217.249 147 216.504 146.695 215.514 146.695C214.864 146.695 214.314 146.78 213.864 146.95C213.424 147.11 213.039 147.295 212.709 147.505C212.389 147.705 212.109 147.89 211.869 148.06C211.639 148.22 211.409 148.3 211.179 148.3C210.999 148.3 210.839 148.255 210.699 148.165C210.569 148.065 210.464 147.945 210.384 147.805L209.904 146.95C210.744 146.14 211.649 145.535 212.619 145.135C213.589 144.735 214.664 144.535 215.844 144.535C216.694 144.535 217.449 144.675 218.109 144.955C218.769 145.235 219.324 145.625 219.774 146.125C220.224 146.625 220.564 147.23 220.794 147.94C221.024 148.65 221.139 149.43 221.139 150.28V160ZM214.209 158.365C214.679 158.365 215.109 158.32 215.499 158.23C215.889 158.13 216.254 157.995 216.594 157.825C216.944 157.645 217.274 157.43 217.584 157.18C217.904 156.93 218.214 156.645 218.514 156.325V153.16C217.284 153.2 216.239 153.3 215.379 153.46C214.519 153.61 213.819 153.81 213.279 154.06C212.739 154.31 212.344 154.605 212.094 154.945C211.854 155.285 211.734 155.665 211.734 156.085C211.734 156.485 211.799 156.83 211.929 157.12C212.059 157.41 212.234 157.65 212.454 157.84C212.674 158.02 212.934 158.155 213.234 158.245C213.534 158.325 213.859 158.365 214.209 158.365ZM214.209 138.265C214.539 138.265 214.784 138.32 214.944 138.43C215.104 138.53 215.254 138.695 215.394 138.925L217.629 142.555H216.099C215.889 142.555 215.719 142.525 215.589 142.465C215.459 142.395 215.324 142.285 215.184 142.135L211.674 138.265H214.209ZM236.1 144.55C236.76 144.55 237.375 144.625 237.945 144.775C238.525 144.915 239.05 145.125 239.52 145.405H243.645V146.395C243.645 146.725 243.435 146.935 243.015 147.025L241.29 147.265C241.63 147.915 241.8 148.64 241.8 149.44C241.8 150.18 241.655 150.855 241.365 151.465C241.085 152.065 240.69 152.58 240.18 153.01C239.68 153.44 239.08 153.77 238.38 154C237.69 154.23 236.93 154.345 236.1 154.345C235.39 154.345 234.72 154.26 234.09 154.09C233.77 154.29 233.525 154.505 233.355 154.735C233.195 154.965 233.115 155.19 233.115 155.41C233.115 155.77 233.26 156.045 233.55 156.235C233.84 156.415 234.225 156.545 234.705 156.625C235.185 156.705 235.73 156.755 236.34 156.775C236.95 156.795 237.57 156.83 238.2 156.88C238.84 156.92 239.465 156.995 240.075 157.105C240.685 157.215 241.23 157.395 241.71 157.645C242.19 157.895 242.575 158.24 242.865 158.68C243.155 159.12 243.3 159.69 243.3 160.39C243.3 161.04 243.135 161.67 242.805 162.28C242.485 162.89 242.02 163.43 241.41 163.9C240.8 164.38 240.055 164.76 239.175 165.04C238.295 165.33 237.3 165.475 236.19 165.475C235.08 165.475 234.105 165.365 233.265 165.145C232.435 164.925 231.745 164.63 231.195 164.26C230.645 163.89 230.23 163.46 229.95 162.97C229.68 162.49 229.545 161.985 229.545 161.455C229.545 160.705 229.78 160.07 230.25 159.55C230.73 159.02 231.385 158.6 232.215 158.29C231.785 158.09 231.44 157.825 231.18 157.495C230.93 157.155 230.805 156.705 230.805 156.145C230.805 155.925 230.845 155.7 230.925 155.47C231.005 155.23 231.125 154.995 231.285 154.765C231.455 154.535 231.66 154.315 231.9 154.105C232.14 153.895 232.42 153.71 232.74 153.55C231.99 153.13 231.4 152.575 230.97 151.885C230.55 151.185 230.34 150.37 230.34 149.44C230.34 148.7 230.48 148.03 230.76 147.43C231.05 146.82 231.45 146.305 231.96 145.885C232.47 145.455 233.075 145.125 233.775 144.895C234.485 144.665 235.26 144.55 236.1 144.55ZM240.84 160.825C240.84 160.445 240.735 160.14 240.525 159.91C240.315 159.68 240.03 159.505 239.67 159.385C239.31 159.255 238.895 159.16 238.425 159.1C237.955 159.04 237.46 159 236.94 158.98C236.42 158.95 235.89 158.92 235.35 158.89C234.81 158.86 234.295 158.805 233.805 158.725C233.235 158.995 232.77 159.325 232.41 159.715C232.06 160.105 231.885 160.57 231.885 161.11C231.885 161.45 231.97 161.765 232.14 162.055C232.32 162.355 232.59 162.61 232.95 162.82C233.31 163.04 233.76 163.21 234.3 163.33C234.85 163.46 235.495 163.525 236.235 163.525C236.955 163.525 237.6 163.46 238.17 163.33C238.74 163.2 239.22 163.015 239.61 162.775C240.01 162.535 240.315 162.25 240.525 161.92C240.735 161.59 240.84 161.225 240.84 160.825ZM236.1 152.575C236.64 152.575 237.115 152.5 237.525 152.35C237.945 152.2 238.295 151.99 238.575 151.72C238.855 151.45 239.065 151.13 239.205 150.76C239.345 150.38 239.415 149.965 239.415 149.515C239.415 148.585 239.13 147.845 238.56 147.295C238 146.745 237.18 146.47 236.1 146.47C235.03 146.47 234.21 146.745 233.64 147.295C233.08 147.845 232.8 148.585 232.8 149.515C232.8 149.965 232.87 150.38 233.01 150.76C233.16 151.13 233.375 151.45 233.655 151.72C233.935 151.99 234.28 152.2 234.69 152.35C235.1 152.5 235.57 152.575 236.1 152.575ZM252.322 144.565C253.232 144.565 254.072 144.72 254.842 145.03C255.612 145.33 256.277 145.77 256.837 146.35C257.397 146.92 257.832 147.63 258.142 148.48C258.462 149.32 258.622 150.28 258.622 151.36C258.622 151.78 258.577 152.06 258.487 152.2C258.397 152.34 258.227 152.41 257.977 152.41H247.867C247.887 153.37 248.017 154.205 248.257 154.915C248.497 155.625 248.827 156.22 249.247 156.7C249.667 157.17 250.167 157.525 250.747 157.765C251.327 157.995 251.977 158.11 252.697 158.11C253.367 158.11 253.942 158.035 254.422 157.885C254.912 157.725 255.332 157.555 255.682 157.375C256.032 157.195 256.322 157.03 256.552 156.88C256.792 156.72 256.997 156.64 257.167 156.64C257.387 156.64 257.557 156.725 257.677 156.895L258.427 157.87C258.097 158.27 257.702 158.62 257.242 158.92C256.782 159.21 256.287 159.45 255.757 159.64C255.237 159.83 254.697 159.97 254.137 160.06C253.577 160.16 253.022 160.21 252.472 160.21C251.422 160.21 250.452 160.035 249.562 159.685C248.682 159.325 247.917 158.805 247.267 158.125C246.627 157.435 246.127 156.585 245.767 155.575C245.407 154.565 245.227 153.405 245.227 152.095C245.227 151.035 245.387 150.045 245.707 149.125C246.037 148.205 246.507 147.41 247.117 146.74C247.727 146.06 248.472 145.53 249.352 145.15C250.232 144.76 251.222 144.565 252.322 144.565ZM252.382 146.53C251.092 146.53 250.077 146.905 249.337 147.655C248.597 148.395 248.137 149.425 247.957 150.745H256.222C256.222 150.125 256.137 149.56 255.967 149.05C255.797 148.53 255.547 148.085 255.217 147.715C254.887 147.335 254.482 147.045 254.002 146.845C253.532 146.635 252.992 146.53 252.382 146.53ZM270.74 147.31C270.62 147.53 270.435 147.64 270.185 147.64C270.035 147.64 269.865 147.585 269.675 147.475C269.485 147.365 269.25 147.245 268.97 147.115C268.7 146.975 268.375 146.85 267.995 146.74C267.615 146.62 267.165 146.56 266.645 146.56C266.195 146.56 265.79 146.62 265.43 146.74C265.07 146.85 264.76 147.005 264.5 147.205C264.25 147.405 264.055 147.64 263.915 147.91C263.785 148.17 263.72 148.455 263.72 148.765C263.72 149.155 263.83 149.48 264.05 149.74C264.28 150 264.58 150.225 264.95 150.415C265.32 150.605 265.74 150.775 266.21 150.925C266.68 151.065 267.16 151.22 267.65 151.39C268.15 151.55 268.635 151.73 269.105 151.93C269.575 152.13 269.995 152.38 270.365 152.68C270.735 152.98 271.03 153.35 271.25 153.79C271.48 154.22 271.595 154.74 271.595 155.35C271.595 156.05 271.47 156.7 271.22 157.3C270.97 157.89 270.6 158.405 270.11 158.845C269.62 159.275 269.02 159.615 268.31 159.865C267.6 160.115 266.78 160.24 265.85 160.24C264.79 160.24 263.83 160.07 262.97 159.73C262.11 159.38 261.38 158.935 260.78 158.395L261.41 157.375C261.49 157.245 261.585 157.145 261.695 157.075C261.805 157.005 261.95 156.97 262.13 156.97C262.31 156.97 262.5 157.04 262.7 157.18C262.9 157.32 263.14 157.475 263.42 157.645C263.71 157.815 264.055 157.97 264.455 158.11C264.865 158.25 265.375 158.32 265.985 158.32C266.505 158.32 266.96 158.255 267.35 158.125C267.74 157.985 268.065 157.8 268.325 157.57C268.585 157.34 268.775 157.075 268.895 156.775C269.025 156.475 269.09 156.155 269.09 155.815C269.09 155.395 268.975 155.05 268.745 154.78C268.525 154.5 268.23 154.265 267.86 154.075C267.49 153.875 267.065 153.705 266.585 153.565C266.115 153.415 265.63 153.26 265.13 153.1C264.64 152.94 264.155 152.76 263.675 152.56C263.205 152.35 262.785 152.09 262.415 151.78C262.045 151.47 261.745 151.09 261.515 150.64C261.295 150.18 261.185 149.625 261.185 148.975C261.185 148.395 261.305 147.84 261.545 147.31C261.785 146.77 262.135 146.3 262.595 145.9C263.055 145.49 263.62 145.165 264.29 144.925C264.96 144.685 265.725 144.565 266.585 144.565C267.585 144.565 268.48 144.725 269.27 145.045C270.07 145.355 270.76 145.785 271.34 146.335L270.74 147.31ZM279.652 160.24C278.452 160.24 277.527 159.905 276.877 159.235C276.237 158.565 275.917 157.6 275.917 156.34V147.04H274.087C273.927 147.04 273.792 146.995 273.682 146.905C273.572 146.805 273.517 146.655 273.517 146.455V145.39L276.007 145.075L276.622 140.38C276.642 140.23 276.707 140.11 276.817 140.02C276.927 139.92 277.067 139.87 277.237 139.87H278.587V145.105H282.937V147.04H278.587V156.16C278.587 156.8 278.742 157.275 279.052 157.585C279.362 157.895 279.762 158.05 280.252 158.05C280.532 158.05 280.772 158.015 280.972 157.945C281.182 157.865 281.362 157.78 281.512 157.69C281.662 157.6 281.787 157.52 281.887 157.45C281.997 157.37 282.092 157.33 282.172 157.33C282.312 157.33 282.437 157.415 282.547 157.585L283.327 158.86C282.867 159.29 282.312 159.63 281.662 159.88C281.012 160.12 280.342 160.24 279.652 160.24ZM297.399 160H296.214C295.954 160 295.744 159.96 295.584 159.88C295.424 159.8 295.319 159.63 295.269 159.37L294.969 157.96C294.569 158.32 294.179 158.645 293.799 158.935C293.419 159.215 293.019 159.455 292.599 159.655C292.179 159.845 291.729 159.99 291.249 160.09C290.779 160.19 290.254 160.24 289.674 160.24C289.084 160.24 288.529 160.16 288.009 160C287.499 159.83 287.054 159.58 286.674 159.25C286.294 158.92 285.989 158.505 285.759 158.005C285.539 157.495 285.429 156.895 285.429 156.205C285.429 155.605 285.594 155.03 285.924 154.48C286.254 153.92 286.784 153.425 287.514 152.995C288.254 152.565 289.219 152.215 290.409 151.945C291.599 151.665 293.054 151.505 294.774 151.465V150.28C294.774 149.1 294.519 148.21 294.009 147.61C293.509 147 292.764 146.695 291.774 146.695C291.124 146.695 290.574 146.78 290.124 146.95C289.684 147.11 289.299 147.295 288.969 147.505C288.649 147.705 288.369 147.89 288.129 148.06C287.899 148.22 287.669 148.3 287.439 148.3C287.259 148.3 287.099 148.255 286.959 148.165C286.829 148.065 286.724 147.945 286.644 147.805L286.164 146.95C287.004 146.14 287.909 145.535 288.879 145.135C289.849 144.735 290.924 144.535 292.104 144.535C292.954 144.535 293.709 144.675 294.369 144.955C295.029 145.235 295.584 145.625 296.034 146.125C296.484 146.625 296.824 147.23 297.054 147.94C297.284 148.65 297.399 149.43 297.399 150.28V160ZM290.469 158.365C290.939 158.365 291.369 158.32 291.759 158.23C292.149 158.13 292.514 157.995 292.854 157.825C293.204 157.645 293.534 157.43 293.844 157.18C294.164 156.93 294.474 156.645 294.774 156.325V153.16C293.544 153.2 292.499 153.3 291.639 153.46C290.779 153.61 290.079 153.81 289.539 154.06C288.999 154.31 288.604 154.605 288.354 154.945C288.114 155.285 287.994 155.665 287.994 156.085C287.994 156.485 288.059 156.83 288.189 157.12C288.319 157.41 288.494 157.65 288.714 157.84C288.934 158.02 289.194 158.155 289.494 158.245C289.794 158.325 290.119 158.365 290.469 158.365ZM305.254 163.705C305.314 163.705 305.384 163.72 305.464 163.75C305.544 163.79 305.639 163.83 305.749 163.87C305.859 163.92 305.994 163.96 306.154 163.99C306.314 164.03 306.499 164.05 306.709 164.05C307.129 164.05 307.444 163.965 307.654 163.795C307.874 163.635 307.984 163.425 307.984 163.165C307.984 162.975 307.929 162.815 307.819 162.685C307.709 162.555 307.549 162.445 307.339 162.355C307.139 162.265 306.889 162.19 306.589 162.13C306.289 162.07 305.949 162.015 305.569 161.965L306.124 160.15C305.294 160.04 304.524 159.79 303.814 159.4C303.114 159 302.509 158.47 301.999 157.81C301.489 157.15 301.089 156.365 300.799 155.455C300.509 154.545 300.364 153.525 300.364 152.395C300.364 151.265 300.519 150.22 300.829 149.26C301.149 148.3 301.609 147.475 302.209 146.785C302.819 146.085 303.569 145.54 304.459 145.15C305.349 144.76 306.369 144.565 307.519 144.565C308.579 144.565 309.519 144.74 310.339 145.09C311.159 145.43 311.884 145.915 312.514 146.545L311.809 147.505C311.729 147.615 311.649 147.7 311.569 147.76C311.489 147.82 311.374 147.85 311.224 147.85C311.074 147.85 310.909 147.79 310.729 147.67C310.559 147.54 310.339 147.4 310.069 147.25C309.799 147.1 309.469 146.965 309.079 146.845C308.699 146.715 308.229 146.65 307.669 146.65C306.929 146.65 306.274 146.785 305.704 147.055C305.134 147.315 304.654 147.695 304.264 148.195C303.884 148.695 303.594 149.3 303.394 150.01C303.204 150.72 303.109 151.515 303.109 152.395C303.109 153.315 303.214 154.135 303.424 154.855C303.634 155.565 303.929 156.165 304.309 156.655C304.689 157.135 305.149 157.505 305.689 157.765C306.239 158.015 306.854 158.14 307.534 158.14C308.184 158.14 308.719 158.065 309.139 157.915C309.559 157.755 309.909 157.58 310.189 157.39C310.469 157.2 310.699 157.03 310.879 156.88C311.059 156.72 311.239 156.64 311.419 156.64C311.529 156.64 311.624 156.665 311.704 156.715C311.794 156.755 311.869 156.815 311.929 156.895L312.679 157.87C312.089 158.59 311.369 159.135 310.519 159.505C309.669 159.875 308.759 160.1 307.789 160.18L307.534 161.05C308.434 161.25 309.084 161.52 309.484 161.86C309.894 162.21 310.099 162.655 310.099 163.195C310.099 163.515 310.019 163.8 309.859 164.05C309.699 164.31 309.474 164.53 309.184 164.71C308.904 164.89 308.564 165.025 308.164 165.115C307.764 165.215 307.324 165.265 306.844 165.265C306.434 165.265 306.044 165.22 305.674 165.13C305.304 165.05 304.964 164.94 304.654 164.8L304.909 163.975C304.969 163.795 305.084 163.705 305.254 163.705ZM326.608 160H325.423C325.163 160 324.953 159.96 324.793 159.88C324.633 159.8 324.528 159.63 324.478 159.37L324.178 157.96C323.778 158.32 323.388 158.645 323.008 158.935C322.628 159.215 322.228 159.455 321.808 159.655C321.388 159.845 320.938 159.99 320.458 160.09C319.988 160.19 319.463 160.24 318.883 160.24C318.293 160.24 317.738 160.16 317.218 160C316.708 159.83 316.263 159.58 315.883 159.25C315.503 158.92 315.198 158.505 314.968 158.005C314.748 157.495 314.638 156.895 314.638 156.205C314.638 155.605 314.803 155.03 315.133 154.48C315.463 153.92 315.993 153.425 316.723 152.995C317.463 152.565 318.428 152.215 319.618 151.945C320.808 151.665 322.263 151.505 323.983 151.465V150.28C323.983 149.1 323.728 148.21 323.218 147.61C322.718 147 321.973 146.695 320.983 146.695C320.333 146.695 319.783 146.78 319.333 146.95C318.893 147.11 318.508 147.295 318.178 147.505C317.858 147.705 317.578 147.89 317.338 148.06C317.108 148.22 316.878 148.3 316.648 148.3C316.468 148.3 316.308 148.255 316.168 148.165C316.038 148.065 315.933 147.945 315.853 147.805L315.373 146.95C316.213 146.14 317.118 145.535 318.088 145.135C319.058 144.735 320.133 144.535 321.313 144.535C322.163 144.535 322.918 144.675 323.578 144.955C324.238 145.235 324.793 145.625 325.243 146.125C325.693 146.625 326.033 147.23 326.263 147.94C326.493 148.65 326.608 149.43 326.608 150.28V160ZM319.678 158.365C320.148 158.365 320.578 158.32 320.968 158.23C321.358 158.13 321.723 157.995 322.063 157.825C322.413 157.645 322.743 157.43 323.053 157.18C323.373 156.93 323.683 156.645 323.983 156.325V153.16C322.753 153.2 321.708 153.3 320.848 153.46C319.988 153.61 319.288 153.81 318.748 154.06C318.208 154.31 317.813 154.605 317.563 154.945C317.323 155.285 317.203 155.665 317.203 156.085C317.203 156.485 317.268 156.83 317.398 157.12C317.528 157.41 317.703 157.65 317.923 157.84C318.143 158.02 318.403 158.155 318.703 158.245C319.003 158.325 319.328 158.365 319.678 158.365ZM322.828 140.125C323.188 140.125 323.463 140.02 323.653 139.81C323.853 139.6 323.958 139.275 323.968 138.835H325.588C325.588 139.305 325.523 139.74 325.393 140.14C325.273 140.53 325.093 140.865 324.853 141.145C324.623 141.425 324.343 141.645 324.013 141.805C323.693 141.955 323.333 142.03 322.933 142.03C322.583 142.03 322.253 141.96 321.943 141.82C321.643 141.67 321.358 141.51 321.088 141.34C320.818 141.17 320.563 141.015 320.323 140.875C320.083 140.725 319.848 140.65 319.618 140.65C318.898 140.65 318.528 141.09 318.508 141.97H316.843C316.843 141.49 316.908 141.055 317.038 140.665C317.168 140.265 317.353 139.925 317.593 139.645C317.833 139.355 318.118 139.135 318.448 138.985C318.778 138.825 319.138 138.745 319.528 138.745C319.878 138.745 320.203 138.82 320.503 138.97C320.813 139.11 321.103 139.265 321.373 139.435C321.643 139.605 321.893 139.765 322.123 139.915C322.363 140.055 322.598 140.125 322.828 140.125ZM336.803 144.565C337.913 144.565 338.913 144.75 339.803 145.12C340.703 145.49 341.463 146.015 342.083 146.695C342.713 147.375 343.193 148.2 343.523 149.17C343.863 150.13 344.033 151.205 344.033 152.395C344.033 153.595 343.863 154.675 343.523 155.635C343.193 156.595 342.713 157.415 342.083 158.095C341.463 158.775 340.703 159.3 339.803 159.67C338.913 160.03 337.913 160.21 336.803 160.21C335.693 160.21 334.688 160.03 333.788 159.67C332.898 159.3 332.138 158.775 331.508 158.095C330.878 157.415 330.393 156.595 330.053 155.635C329.713 154.675 329.543 153.595 329.543 152.395C329.543 151.205 329.713 150.13 330.053 149.17C330.393 148.2 330.878 147.375 331.508 146.695C332.138 146.015 332.898 145.49 333.788 145.12C334.688 144.75 335.693 144.565 336.803 144.565ZM336.803 158.125C338.303 158.125 339.423 157.625 340.163 156.625C340.903 155.615 341.273 154.21 341.273 152.41C341.273 150.6 340.903 149.19 340.163 148.18C339.423 147.17 338.303 146.665 336.803 146.665C336.043 146.665 335.383 146.795 334.823 147.055C334.263 147.315 333.793 147.69 333.413 148.18C333.043 148.67 332.763 149.275 332.573 149.995C332.393 150.705 332.303 151.51 332.303 152.41C332.303 153.31 332.393 154.115 332.573 154.825C332.763 155.535 333.043 156.135 333.413 156.625C333.793 157.105 334.263 157.475 334.823 157.735C335.383 157.995 336.043 158.125 336.803 158.125ZM39.16 186.805V202H36.49V186.805H39.16ZM39.76 182.035C39.76 182.295 39.705 182.54 39.595 182.77C39.495 182.99 39.355 183.19 39.175 183.37C39.005 183.54 38.805 183.675 38.575 183.775C38.345 183.875 38.1 183.925 37.84 183.925C37.58 183.925 37.335 183.875 37.105 183.775C36.885 183.675 36.685 183.54 36.505 183.37C36.335 183.19 36.2 182.99 36.1 182.77C36 182.54 35.95 182.295 35.95 182.035C35.95 181.775 36 181.53 36.1 181.3C36.2 181.06 36.335 180.855 36.505 180.685C36.685 180.505 36.885 180.365 37.105 180.265C37.335 180.165 37.58 180.115 37.84 180.115C38.1 180.115 38.345 180.165 38.575 180.265C38.805 180.365 39.005 180.505 39.175 180.685C39.355 180.855 39.495 181.06 39.595 181.3C39.705 181.53 39.76 181.775 39.76 182.035ZM43.8658 202V186.805H45.4558C45.8358 186.805 46.0758 186.99 46.1758 187.36L46.3858 189.01C47.0458 188.28 47.7808 187.69 48.5908 187.24C49.4108 186.79 50.3558 186.565 51.4258 186.565C52.2558 186.565 52.9858 186.705 53.6158 186.985C54.2558 187.255 54.7858 187.645 55.2058 188.155C55.6358 188.655 55.9608 189.26 56.1808 189.97C56.4008 190.68 56.5108 191.465 56.5108 192.325V202H53.8408V192.325C53.8408 191.175 53.5758 190.285 53.0458 189.655C52.5258 189.015 51.7258 188.695 50.6458 188.695C49.8558 188.695 49.1158 188.885 48.4258 189.265C47.7458 189.645 47.1158 190.16 46.5358 190.81V202H43.8658ZM71.2307 202C70.8507 202 70.6107 201.815 70.5107 201.445L70.2707 199.6C69.6207 200.39 68.8757 201.025 68.0357 201.505C67.2057 201.975 66.2507 202.21 65.1707 202.21C64.3007 202.21 63.5107 202.045 62.8007 201.715C62.0907 201.375 61.4857 200.88 60.9857 200.23C60.4857 199.58 60.1007 198.77 59.8307 197.8C59.5607 196.83 59.4257 195.715 59.4257 194.455C59.4257 193.335 59.5757 192.295 59.8757 191.335C60.1757 190.365 60.6057 189.525 61.1657 188.815C61.7357 188.105 62.4257 187.55 63.2357 187.15C64.0457 186.74 64.9657 186.535 65.9957 186.535C66.9257 186.535 67.7207 186.695 68.3807 187.015C69.0407 187.325 69.6307 187.765 70.1507 188.335V179.905H72.8207V202H71.2307ZM66.0557 200.05C66.9257 200.05 67.6857 199.85 68.3357 199.45C68.9957 199.05 69.6007 198.485 70.1507 197.755V190.405C69.6607 189.745 69.1207 189.285 68.5307 189.025C67.9507 188.755 67.3057 188.62 66.5957 188.62C65.1757 188.62 64.0857 189.125 63.3257 190.135C62.5657 191.145 62.1857 192.585 62.1857 194.455C62.1857 195.445 62.2707 196.295 62.4407 197.005C62.6107 197.705 62.8607 198.285 63.1907 198.745C63.5207 199.195 63.9257 199.525 64.4057 199.735C64.8857 199.945 65.4357 200.05 66.0557 200.05ZM83.3085 186.565C84.2185 186.565 85.0585 186.72 85.8285 187.03C86.5985 187.33 87.2635 187.77 87.8235 188.35C88.3835 188.92 88.8185 189.63 89.1285 190.48C89.4485 191.32 89.6085 192.28 89.6085 193.36C89.6085 193.78 89.5635 194.06 89.4735 194.2C89.3835 194.34 89.2135 194.41 88.9635 194.41H78.8535C78.8735 195.37 79.0035 196.205 79.2435 196.915C79.4835 197.625 79.8135 198.22 80.2335 198.7C80.6535 199.17 81.1535 199.525 81.7335 199.765C82.3135 199.995 82.9635 200.11 83.6835 200.11C84.3535 200.11 84.9285 200.035 85.4085 199.885C85.8985 199.725 86.3185 199.555 86.6685 199.375C87.0185 199.195 87.3085 199.03 87.5385 198.88C87.7785 198.72 87.9835 198.64 88.1535 198.64C88.3735 198.64 88.5435 198.725 88.6635 198.895L89.4135 199.87C89.0835 200.27 88.6885 200.62 88.2285 200.92C87.7685 201.21 87.2735 201.45 86.7435 201.64C86.2235 201.83 85.6835 201.97 85.1235 202.06C84.5635 202.16 84.0085 202.21 83.4585 202.21C82.4085 202.21 81.4385 202.035 80.5485 201.685C79.6685 201.325 78.9035 200.805 78.2535 200.125C77.6135 199.435 77.1135 198.585 76.7535 197.575C76.3935 196.565 76.2135 195.405 76.2135 194.095C76.2135 193.035 76.3735 192.045 76.6935 191.125C77.0235 190.205 77.4935 189.41 78.1035 188.74C78.7135 188.06 79.4585 187.53 80.3385 187.15C81.2185 186.76 82.2085 186.565 83.3085 186.565ZM83.3685 188.53C82.0785 188.53 81.0635 188.905 80.3235 189.655C79.5835 190.395 79.1235 191.425 78.9435 192.745H87.2085C87.2085 192.125 87.1235 191.56 86.9535 191.05C86.7835 190.53 86.5335 190.085 86.2035 189.715C85.8735 189.335 85.4685 189.045 84.9885 188.845C84.5185 188.635 83.9785 188.53 83.3685 188.53ZM101.726 189.31C101.606 189.53 101.421 189.64 101.171 189.64C101.021 189.64 100.851 189.585 100.661 189.475C100.471 189.365 100.236 189.245 99.9559 189.115C99.6859 188.975 99.3609 188.85 98.9809 188.74C98.6009 188.62 98.1509 188.56 97.6309 188.56C97.1809 188.56 96.7759 188.62 96.4159 188.74C96.0559 188.85 95.7459 189.005 95.4859 189.205C95.2359 189.405 95.0409 189.64 94.9009 189.91C94.7709 190.17 94.7059 190.455 94.7059 190.765C94.7059 191.155 94.8159 191.48 95.0359 191.74C95.2659 192 95.5659 192.225 95.9359 192.415C96.3059 192.605 96.7259 192.775 97.1959 192.925C97.6659 193.065 98.1459 193.22 98.6359 193.39C99.1359 193.55 99.6209 193.73 100.091 193.93C100.561 194.13 100.981 194.38 101.351 194.68C101.721 194.98 102.016 195.35 102.236 195.79C102.466 196.22 102.581 196.74 102.581 197.35C102.581 198.05 102.456 198.7 102.206 199.3C101.956 199.89 101.586 200.405 101.096 200.845C100.606 201.275 100.006 201.615 99.2959 201.865C98.5859 202.115 97.7659 202.24 96.8359 202.24C95.7759 202.24 94.8159 202.07 93.9559 201.73C93.0959 201.38 92.3659 200.935 91.7659 200.395L92.3959 199.375C92.4759 199.245 92.5709 199.145 92.6809 199.075C92.7909 199.005 92.9359 198.97 93.1159 198.97C93.2959 198.97 93.4859 199.04 93.6859 199.18C93.8859 199.32 94.1259 199.475 94.4059 199.645C94.6959 199.815 95.0409 199.97 95.4409 200.11C95.8509 200.25 96.3609 200.32 96.9709 200.32C97.4909 200.32 97.9459 200.255 98.3359 200.125C98.7259 199.985 99.0509 199.8 99.3109 199.57C99.5709 199.34 99.7609 199.075 99.8809 198.775C100.011 198.475 100.076 198.155 100.076 197.815C100.076 197.395 99.9609 197.05 99.7309 196.78C99.5109 196.5 99.2159 196.265 98.8459 196.075C98.4759 195.875 98.0509 195.705 97.5709 195.565C97.1009 195.415 96.6159 195.26 96.1159 195.1C95.6259 194.94 95.1409 194.76 94.6609 194.56C94.1909 194.35 93.7709 194.09 93.4009 193.78C93.0309 193.47 92.7309 193.09 92.5009 192.64C92.2809 192.18 92.1709 191.625 92.1709 190.975C92.1709 190.395 92.2909 189.84 92.5309 189.31C92.7709 188.77 93.1209 188.3 93.5809 187.9C94.0409 187.49 94.6059 187.165 95.2759 186.925C95.9459 186.685 96.7109 186.565 97.5709 186.565C98.5709 186.565 99.4659 186.725 100.256 187.045C101.056 187.355 101.746 187.785 102.326 188.335L101.726 189.31ZM112.049 186.565C112.959 186.565 113.799 186.72 114.569 187.03C115.339 187.33 116.004 187.77 116.564 188.35C117.124 188.92 117.559 189.63 117.869 190.48C118.189 191.32 118.349 192.28 118.349 193.36C118.349 193.78 118.304 194.06 118.214 194.2C118.124 194.34 117.954 194.41 117.704 194.41H107.594C107.614 195.37 107.744 196.205 107.984 196.915C108.224 197.625 108.554 198.22 108.974 198.7C109.394 199.17 109.894 199.525 110.474 199.765C111.054 199.995 111.704 200.11 112.424 200.11C113.094 200.11 113.669 200.035 114.149 199.885C114.639 199.725 115.059 199.555 115.409 199.375C115.759 199.195 116.049 199.03 116.279 198.88C116.519 198.72 116.724 198.64 116.894 198.64C117.114 198.64 117.284 198.725 117.404 198.895L118.154 199.87C117.824 200.27 117.429 200.62 116.969 200.92C116.509 201.21 116.014 201.45 115.484 201.64C114.964 201.83 114.424 201.97 113.864 202.06C113.304 202.16 112.749 202.21 112.199 202.21C111.149 202.21 110.179 202.035 109.289 201.685C108.409 201.325 107.644 200.805 106.994 200.125C106.354 199.435 105.854 198.585 105.494 197.575C105.134 196.565 104.954 195.405 104.954 194.095C104.954 193.035 105.114 192.045 105.434 191.125C105.764 190.205 106.234 189.41 106.844 188.74C107.454 188.06 108.199 187.53 109.079 187.15C109.959 186.76 110.949 186.565 112.049 186.565ZM112.109 188.53C110.819 188.53 109.804 188.905 109.064 189.655C108.324 190.395 107.864 191.425 107.684 192.745H115.949C115.949 192.125 115.864 191.56 115.694 191.05C115.524 190.53 115.274 190.085 114.944 189.715C114.614 189.335 114.209 189.045 113.729 188.845C113.259 188.635 112.719 188.53 112.109 188.53ZM124.736 186.805V203.125C124.736 203.735 124.656 204.3 124.496 204.82C124.336 205.35 124.081 205.81 123.731 206.2C123.391 206.59 122.946 206.895 122.396 207.115C121.856 207.345 121.206 207.46 120.446 207.46C120.116 207.46 119.816 207.435 119.546 207.385C119.276 207.335 119.006 207.26 118.736 207.16L118.856 205.72C118.876 205.59 118.921 205.505 118.991 205.465C119.061 205.435 119.171 205.42 119.321 205.42C119.401 205.42 119.486 205.42 119.576 205.42C119.666 205.43 119.776 205.435 119.906 205.435C120.686 205.435 121.241 205.25 121.571 204.88C121.901 204.52 122.066 203.935 122.066 203.125V186.805H124.736ZM125.336 182.035C125.336 182.295 125.281 182.54 125.171 182.77C125.071 182.99 124.931 183.19 124.751 183.37C124.581 183.54 124.381 183.675 124.151 183.775C123.921 183.875 123.676 183.925 123.416 183.925C123.156 183.925 122.911 183.875 122.681 183.775C122.461 183.675 122.261 183.54 122.081 183.37C121.911 183.19 121.776 182.99 121.676 182.77C121.576 182.54 121.526 182.295 121.526 182.035C121.526 181.775 121.576 181.53 121.676 181.3C121.776 181.06 121.911 180.855 122.081 180.685C122.261 180.505 122.461 180.365 122.681 180.265C122.911 180.165 123.156 180.115 123.416 180.115C123.676 180.115 123.921 180.165 124.151 180.265C124.381 180.365 124.581 180.505 124.751 180.685C124.931 180.855 125.071 181.06 125.171 181.3C125.281 181.53 125.336 181.775 125.336 182.035ZM140.543 202H139.358C139.098 202 138.888 201.96 138.728 201.88C138.568 201.8 138.463 201.63 138.413 201.37L138.113 199.96C137.713 200.32 137.323 200.645 136.943 200.935C136.563 201.215 136.163 201.455 135.743 201.655C135.323 201.845 134.873 201.99 134.393 202.09C133.923 202.19 133.398 202.24 132.818 202.24C132.228 202.24 131.673 202.16 131.153 202C130.643 201.83 130.198 201.58 129.818 201.25C129.438 200.92 129.133 200.505 128.903 200.005C128.683 199.495 128.573 198.895 128.573 198.205C128.573 197.605 128.738 197.03 129.068 196.48C129.398 195.92 129.928 195.425 130.658 194.995C131.398 194.565 132.363 194.215 133.553 193.945C134.743 193.665 136.198 193.505 137.918 193.465V192.28C137.918 191.1 137.663 190.21 137.153 189.61C136.653 189 135.908 188.695 134.918 188.695C134.268 188.695 133.718 188.78 133.268 188.95C132.828 189.11 132.443 189.295 132.113 189.505C131.793 189.705 131.513 189.89 131.273 190.06C131.043 190.22 130.813 190.3 130.583 190.3C130.403 190.3 130.243 190.255 130.103 190.165C129.973 190.065 129.868 189.945 129.788 189.805L129.308 188.95C130.148 188.14 131.053 187.535 132.023 187.135C132.993 186.735 134.068 186.535 135.248 186.535C136.098 186.535 136.853 186.675 137.513 186.955C138.173 187.235 138.728 187.625 139.178 188.125C139.628 188.625 139.968 189.23 140.198 189.94C140.428 190.65 140.543 191.43 140.543 192.28V202ZM133.613 200.365C134.083 200.365 134.513 200.32 134.903 200.23C135.293 200.13 135.658 199.995 135.998 199.825C136.348 199.645 136.678 199.43 136.988 199.18C137.308 198.93 137.618 198.645 137.918 198.325V195.16C136.688 195.2 135.643 195.3 134.783 195.46C133.923 195.61 133.223 195.81 132.683 196.06C132.143 196.31 131.748 196.605 131.498 196.945C131.258 197.285 131.138 197.665 131.138 198.085C131.138 198.485 131.203 198.83 131.333 199.12C131.463 199.41 131.638 199.65 131.858 199.84C132.078 200.02 132.338 200.155 132.638 200.245C132.938 200.325 133.263 200.365 133.613 200.365ZM155.283 202C154.903 202 154.663 201.815 154.563 201.445L154.323 199.6C153.673 200.39 152.928 201.025 152.088 201.505C151.258 201.975 150.303 202.21 149.223 202.21C148.353 202.21 147.563 202.045 146.853 201.715C146.143 201.375 145.538 200.88 145.038 200.23C144.538 199.58 144.153 198.77 143.883 197.8C143.613 196.83 143.478 195.715 143.478 194.455C143.478 193.335 143.628 192.295 143.928 191.335C144.228 190.365 144.658 189.525 145.218 188.815C145.788 188.105 146.478 187.55 147.288 187.15C148.098 186.74 149.018 186.535 150.048 186.535C150.978 186.535 151.773 186.695 152.433 187.015C153.093 187.325 153.683 187.765 154.203 188.335V179.905H156.873V202H155.283ZM150.108 200.05C150.978 200.05 151.738 199.85 152.388 199.45C153.048 199.05 153.653 198.485 154.203 197.755V190.405C153.713 189.745 153.173 189.285 152.583 189.025C152.003 188.755 151.358 188.62 150.648 188.62C149.228 188.62 148.138 189.125 147.378 190.135C146.618 191.145 146.238 192.585 146.238 194.455C146.238 195.445 146.323 196.295 146.493 197.005C146.663 197.705 146.913 198.285 147.243 198.745C147.573 199.195 147.978 199.525 148.458 199.735C148.938 199.945 149.488 200.05 150.108 200.05ZM172.506 202H171.321C171.061 202 170.851 201.96 170.691 201.88C170.531 201.8 170.426 201.63 170.376 201.37L170.076 199.96C169.676 200.32 169.286 200.645 168.906 200.935C168.526 201.215 168.126 201.455 167.706 201.655C167.286 201.845 166.836 201.99 166.356 202.09C165.886 202.19 165.361 202.24 164.781 202.24C164.191 202.24 163.636 202.16 163.116 202C162.606 201.83 162.161 201.58 161.781 201.25C161.401 200.92 161.096 200.505 160.866 200.005C160.646 199.495 160.536 198.895 160.536 198.205C160.536 197.605 160.701 197.03 161.031 196.48C161.361 195.92 161.891 195.425 162.621 194.995C163.361 194.565 164.326 194.215 165.516 193.945C166.706 193.665 168.161 193.505 169.881 193.465V192.28C169.881 191.1 169.626 190.21 169.116 189.61C168.616 189 167.871 188.695 166.881 188.695C166.231 188.695 165.681 188.78 165.231 188.95C164.791 189.11 164.406 189.295 164.076 189.505C163.756 189.705 163.476 189.89 163.236 190.06C163.006 190.22 162.776 190.3 162.546 190.3C162.366 190.3 162.206 190.255 162.066 190.165C161.936 190.065 161.831 189.945 161.751 189.805L161.271 188.95C162.111 188.14 163.016 187.535 163.986 187.135C164.956 186.735 166.031 186.535 167.211 186.535C168.061 186.535 168.816 186.675 169.476 186.955C170.136 187.235 170.691 187.625 171.141 188.125C171.591 188.625 171.931 189.23 172.161 189.94C172.391 190.65 172.506 191.43 172.506 192.28V202ZM165.576 200.365C166.046 200.365 166.476 200.32 166.866 200.23C167.256 200.13 167.621 199.995 167.961 199.825C168.311 199.645 168.641 199.43 168.951 199.18C169.271 198.93 169.581 198.645 169.881 198.325V195.16C168.651 195.2 167.606 195.3 166.746 195.46C165.886 195.61 165.186 195.81 164.646 196.06C164.106 196.31 163.711 196.605 163.461 196.945C163.221 197.285 163.101 197.665 163.101 198.085C163.101 198.485 163.166 198.83 163.296 199.12C163.426 199.41 163.601 199.65 163.821 199.84C164.041 200.02 164.301 200.155 164.601 200.245C164.901 200.325 165.226 200.365 165.576 200.365ZM188.367 186.565C189.277 186.565 190.117 186.72 190.887 187.03C191.657 187.33 192.322 187.77 192.882 188.35C193.442 188.92 193.877 189.63 194.187 190.48C194.507 191.32 194.667 192.28 194.667 193.36C194.667 193.78 194.622 194.06 194.532 194.2C194.442 194.34 194.272 194.41 194.022 194.41H183.912C183.932 195.37 184.062 196.205 184.302 196.915C184.542 197.625 184.872 198.22 185.292 198.7C185.712 199.17 186.212 199.525 186.792 199.765C187.372 199.995 188.022 200.11 188.742 200.11C189.412 200.11 189.987 200.035 190.467 199.885C190.957 199.725 191.377 199.555 191.727 199.375C192.077 199.195 192.367 199.03 192.597 198.88C192.837 198.72 193.042 198.64 193.212 198.64C193.432 198.64 193.602 198.725 193.722 198.895L194.472 199.87C194.142 200.27 193.747 200.62 193.287 200.92C192.827 201.21 192.332 201.45 191.802 201.64C191.282 201.83 190.742 201.97 190.182 202.06C189.622 202.16 189.067 202.21 188.517 202.21C187.467 202.21 186.497 202.035 185.607 201.685C184.727 201.325 183.962 200.805 183.312 200.125C182.672 199.435 182.172 198.585 181.812 197.575C181.452 196.565 181.272 195.405 181.272 194.095C181.272 193.035 181.432 192.045 181.752 191.125C182.082 190.205 182.552 189.41 183.162 188.74C183.772 188.06 184.517 187.53 185.397 187.15C186.277 186.76 187.267 186.565 188.367 186.565ZM188.427 188.53C187.137 188.53 186.122 188.905 185.382 189.655C184.642 190.395 184.182 191.425 184.002 192.745H192.267C192.267 192.125 192.182 191.56 192.012 191.05C191.842 190.53 191.592 190.085 191.262 189.715C190.932 189.335 190.527 189.045 190.047 188.845C189.577 188.635 189.037 188.53 188.427 188.53ZM203.885 202V186.805H205.415C205.705 186.805 205.905 186.86 206.015 186.97C206.125 187.08 206.2 187.27 206.24 187.54L206.42 189.91C206.94 188.85 207.58 188.025 208.34 187.435C209.11 186.835 210.01 186.535 211.04 186.535C211.46 186.535 211.84 186.585 212.18 186.685C212.52 186.775 212.835 186.905 213.125 187.075L212.78 189.07C212.71 189.32 212.555 189.445 212.315 189.445C212.175 189.445 211.96 189.4 211.67 189.31C211.38 189.21 210.975 189.16 210.455 189.16C209.525 189.16 208.745 189.43 208.115 189.97C207.495 190.51 206.975 191.295 206.555 192.325V202H203.885ZM222 186.565C222.91 186.565 223.75 186.72 224.52 187.03C225.29 187.33 225.955 187.77 226.515 188.35C227.075 188.92 227.51 189.63 227.82 190.48C228.14 191.32 228.3 192.28 228.3 193.36C228.3 193.78 228.255 194.06 228.165 194.2C228.075 194.34 227.905 194.41 227.655 194.41H217.545C217.565 195.37 217.695 196.205 217.935 196.915C218.175 197.625 218.505 198.22 218.925 198.7C219.345 199.17 219.845 199.525 220.425 199.765C221.005 199.995 221.655 200.11 222.375 200.11C223.045 200.11 223.62 200.035 224.1 199.885C224.59 199.725 225.01 199.555 225.36 199.375C225.71 199.195 226 199.03 226.23 198.88C226.47 198.72 226.675 198.64 226.845 198.64C227.065 198.64 227.235 198.725 227.355 198.895L228.105 199.87C227.775 200.27 227.38 200.62 226.92 200.92C226.46 201.21 225.965 201.45 225.435 201.64C224.915 201.83 224.375 201.97 223.815 202.06C223.255 202.16 222.7 202.21 222.15 202.21C221.1 202.21 220.13 202.035 219.24 201.685C218.36 201.325 217.595 200.805 216.945 200.125C216.305 199.435 215.805 198.585 215.445 197.575C215.085 196.565 214.905 195.405 214.905 194.095C214.905 193.035 215.065 192.045 215.385 191.125C215.715 190.205 216.185 189.41 216.795 188.74C217.405 188.06 218.15 187.53 219.03 187.15C219.91 186.76 220.9 186.565 222 186.565ZM222.06 188.53C220.77 188.53 219.755 188.905 219.015 189.655C218.275 190.395 217.815 191.425 217.635 192.745H225.9C225.9 192.125 225.815 191.56 225.645 191.05C225.475 190.53 225.225 190.085 224.895 189.715C224.565 189.335 224.16 189.045 223.68 188.845C223.21 188.635 222.67 188.53 222.06 188.53ZM242.412 202C242.032 202 241.792 201.815 241.692 201.445L241.452 199.6C240.802 200.39 240.057 201.025 239.217 201.505C238.387 201.975 237.432 202.21 236.352 202.21C235.482 202.21 234.692 202.045 233.982 201.715C233.272 201.375 232.667 200.88 232.167 200.23C231.667 199.58 231.282 198.77 231.012 197.8C230.742 196.83 230.607 195.715 230.607 194.455C230.607 193.335 230.757 192.295 231.057 191.335C231.357 190.365 231.787 189.525 232.347 188.815C232.917 188.105 233.607 187.55 234.417 187.15C235.227 186.74 236.147 186.535 237.177 186.535C238.107 186.535 238.902 186.695 239.562 187.015C240.222 187.325 240.812 187.765 241.332 188.335V179.905H244.002V202H242.412ZM237.237 200.05C238.107 200.05 238.867 199.85 239.517 199.45C240.177 199.05 240.782 198.485 241.332 197.755V190.405C240.842 189.745 240.302 189.285 239.712 189.025C239.132 188.755 238.487 188.62 237.777 188.62C236.357 188.62 235.267 189.125 234.507 190.135C233.747 191.145 233.367 192.585 233.367 194.455C233.367 195.445 233.452 196.295 233.622 197.005C233.792 197.705 234.042 198.285 234.372 198.745C234.702 199.195 235.107 199.525 235.587 199.735C236.067 199.945 236.617 200.05 237.237 200.05ZM250.785 186.805V196.495C250.785 197.645 251.05 198.535 251.58 199.165C252.11 199.795 252.91 200.11 253.98 200.11C254.76 200.11 255.495 199.925 256.185 199.555C256.875 199.185 257.51 198.67 258.09 198.01V186.805H260.76V202H259.17C258.79 202 258.55 201.815 258.45 201.445L258.24 199.81C257.58 200.54 256.84 201.13 256.02 201.58C255.2 202.02 254.26 202.24 253.2 202.24C252.37 202.24 251.635 202.105 250.995 201.835C250.365 201.555 249.835 201.165 249.405 200.665C248.975 200.165 248.65 199.56 248.43 198.85C248.22 198.14 248.115 197.355 248.115 196.495V186.805H250.785ZM268.955 205.705C269.015 205.705 269.085 205.72 269.165 205.75C269.245 205.79 269.34 205.83 269.45 205.87C269.56 205.92 269.695 205.96 269.855 205.99C270.015 206.03 270.2 206.05 270.41 206.05C270.83 206.05 271.145 205.965 271.355 205.795C271.575 205.635 271.685 205.425 271.685 205.165C271.685 204.975 271.63 204.815 271.52 204.685C271.41 204.555 271.25 204.445 271.04 204.355C270.84 204.265 270.59 204.19 270.29 204.13C269.99 204.07 269.65 204.015 269.27 203.965L269.825 202.15C268.995 202.04 268.225 201.79 267.515 201.4C266.815 201 266.21 200.47 265.7 199.81C265.19 199.15 264.79 198.365 264.5 197.455C264.21 196.545 264.065 195.525 264.065 194.395C264.065 193.265 264.22 192.22 264.53 191.26C264.85 190.3 265.31 189.475 265.91 188.785C266.52 188.085 267.27 187.54 268.16 187.15C269.05 186.76 270.07 186.565 271.22 186.565C272.28 186.565 273.22 186.74 274.04 187.09C274.86 187.43 275.585 187.915 276.215 188.545L275.51 189.505C275.43 189.615 275.35 189.7 275.27 189.76C275.19 189.82 275.075 189.85 274.925 189.85C274.775 189.85 274.61 189.79 274.43 189.67C274.26 189.54 274.04 189.4 273.77 189.25C273.5 189.1 273.17 188.965 272.78 188.845C272.4 188.715 271.93 188.65 271.37 188.65C270.63 188.65 269.975 188.785 269.405 189.055C268.835 189.315 268.355 189.695 267.965 190.195C267.585 190.695 267.295 191.3 267.095 192.01C266.905 192.72 266.81 193.515 266.81 194.395C266.81 195.315 266.915 196.135 267.125 196.855C267.335 197.565 267.63 198.165 268.01 198.655C268.39 199.135 268.85 199.505 269.39 199.765C269.94 200.015 270.555 200.14 271.235 200.14C271.885 200.14 272.42 200.065 272.84 199.915C273.26 199.755 273.61 199.58 273.89 199.39C274.17 199.2 274.4 199.03 274.58 198.88C274.76 198.72 274.94 198.64 275.12 198.64C275.23 198.64 275.325 198.665 275.405 198.715C275.495 198.755 275.57 198.815 275.63 198.895L276.38 199.87C275.79 200.59 275.07 201.135 274.22 201.505C273.37 201.875 272.46 202.1 271.49 202.18L271.235 203.05C272.135 203.25 272.785 203.52 273.185 203.86C273.595 204.21 273.8 204.655 273.8 205.195C273.8 205.515 273.72 205.8 273.56 206.05C273.4 206.31 273.175 206.53 272.885 206.71C272.605 206.89 272.265 207.025 271.865 207.115C271.465 207.215 271.025 207.265 270.545 207.265C270.135 207.265 269.745 207.22 269.375 207.13C269.005 207.05 268.665 206.94 268.355 206.8L268.61 205.975C268.67 205.795 268.785 205.705 268.955 205.705ZM290.309 202H289.124C288.864 202 288.654 201.96 288.494 201.88C288.334 201.8 288.229 201.63 288.179 201.37L287.879 199.96C287.479 200.32 287.089 200.645 286.709 200.935C286.329 201.215 285.929 201.455 285.509 201.655C285.089 201.845 284.639 201.99 284.159 202.09C283.689 202.19 283.164 202.24 282.584 202.24C281.994 202.24 281.439 202.16 280.919 202C280.409 201.83 279.964 201.58 279.584 201.25C279.204 200.92 278.899 200.505 278.669 200.005C278.449 199.495 278.339 198.895 278.339 198.205C278.339 197.605 278.504 197.03 278.834 196.48C279.164 195.92 279.694 195.425 280.424 194.995C281.164 194.565 282.129 194.215 283.319 193.945C284.509 193.665 285.964 193.505 287.684 193.465V192.28C287.684 191.1 287.429 190.21 286.919 189.61C286.419 189 285.674 188.695 284.684 188.695C284.034 188.695 283.484 188.78 283.034 188.95C282.594 189.11 282.209 189.295 281.879 189.505C281.559 189.705 281.279 189.89 281.039 190.06C280.809 190.22 280.579 190.3 280.349 190.3C280.169 190.3 280.009 190.255 279.869 190.165C279.739 190.065 279.634 189.945 279.554 189.805L279.074 188.95C279.914 188.14 280.819 187.535 281.789 187.135C282.759 186.735 283.834 186.535 285.014 186.535C285.864 186.535 286.619 186.675 287.279 186.955C287.939 187.235 288.494 187.625 288.944 188.125C289.394 188.625 289.734 189.23 289.964 189.94C290.194 190.65 290.309 191.43 290.309 192.28V202ZM283.379 200.365C283.849 200.365 284.279 200.32 284.669 200.23C285.059 200.13 285.424 199.995 285.764 199.825C286.114 199.645 286.444 199.43 286.754 199.18C287.074 198.93 287.384 198.645 287.684 198.325V195.16C286.454 195.2 285.409 195.3 284.549 195.46C283.689 195.61 282.989 195.81 282.449 196.06C281.909 196.31 281.514 196.605 281.264 196.945C281.024 197.285 280.904 197.665 280.904 198.085C280.904 198.485 280.969 198.83 281.099 199.12C281.229 199.41 281.404 199.65 281.624 199.84C281.844 200.02 282.104 200.155 282.404 200.245C282.704 200.325 283.029 200.365 283.379 200.365ZM286.529 182.125C286.889 182.125 287.164 182.02 287.354 181.81C287.554 181.6 287.659 181.275 287.669 180.835H289.289C289.289 181.305 289.224 181.74 289.094 182.14C288.974 182.53 288.794 182.865 288.554 183.145C288.324 183.425 288.044 183.645 287.714 183.805C287.394 183.955 287.034 184.03 286.634 184.03C286.284 184.03 285.954 183.96 285.644 183.82C285.344 183.67 285.059 183.51 284.789 183.34C284.519 183.17 284.264 183.015 284.024 182.875C283.784 182.725 283.549 182.65 283.319 182.65C282.599 182.65 282.229 183.09 282.209 183.97H280.544C280.544 183.49 280.609 183.055 280.739 182.665C280.869 182.265 281.054 181.925 281.294 181.645C281.534 181.355 281.819 181.135 282.149 180.985C282.479 180.825 282.839 180.745 283.229 180.745C283.579 180.745 283.904 180.82 284.204 180.97C284.514 181.11 284.804 181.265 285.074 181.435C285.344 181.605 285.594 181.765 285.824 181.915C286.064 182.055 286.299 182.125 286.529 182.125ZM300.504 186.565C301.614 186.565 302.614 186.75 303.504 187.12C304.404 187.49 305.164 188.015 305.784 188.695C306.414 189.375 306.894 190.2 307.224 191.17C307.564 192.13 307.734 193.205 307.734 194.395C307.734 195.595 307.564 196.675 307.224 197.635C306.894 198.595 306.414 199.415 305.784 200.095C305.164 200.775 304.404 201.3 303.504 201.67C302.614 202.03 301.614 202.21 300.504 202.21C299.394 202.21 298.389 202.03 297.489 201.67C296.599 201.3 295.839 200.775 295.209 200.095C294.579 199.415 294.094 198.595 293.754 197.635C293.414 196.675 293.244 195.595 293.244 194.395C293.244 193.205 293.414 192.13 293.754 191.17C294.094 190.2 294.579 189.375 295.209 188.695C295.839 188.015 296.599 187.49 297.489 187.12C298.389 186.75 299.394 186.565 300.504 186.565ZM300.504 200.125C302.004 200.125 303.124 199.625 303.864 198.625C304.604 197.615 304.974 196.21 304.974 194.41C304.974 192.6 304.604 191.19 303.864 190.18C303.124 189.17 302.004 188.665 300.504 188.665C299.744 188.665 299.084 188.795 298.524 189.055C297.964 189.315 297.494 189.69 297.114 190.18C296.744 190.67 296.464 191.275 296.274 191.995C296.094 192.705 296.004 193.51 296.004 194.41C296.004 195.31 296.094 196.115 296.274 196.825C296.464 197.535 296.744 198.135 297.114 198.625C297.494 199.105 297.964 199.475 298.524 199.735C299.084 199.995 299.744 200.125 300.504 200.125ZM46.885 244C46.505 244 46.265 243.815 46.165 243.445L45.925 241.6C45.275 242.39 44.53 243.025 43.69 243.505C42.86 243.975 41.905 244.21 40.825 244.21C39.955 244.21 39.165 244.045 38.455 243.715C37.745 243.375 37.14 242.88 36.64 242.23C36.14 241.58 35.755 240.77 35.485 239.8C35.215 238.83 35.08 237.715 35.08 236.455C35.08 235.335 35.23 234.295 35.53 233.335C35.83 232.365 36.26 231.525 36.82 230.815C37.39 230.105 38.08 229.55 38.89 229.15C39.7 228.74 40.62 228.535 41.65 228.535C42.58 228.535 43.375 228.695 44.035 229.015C44.695 229.325 45.285 229.765 45.805 230.335V221.905H48.475V244H46.885ZM41.71 242.05C42.58 242.05 43.34 241.85 43.99 241.45C44.65 241.05 45.255 240.485 45.805 239.755V232.405C45.315 231.745 44.775 231.285 44.185 231.025C43.605 230.755 42.96 230.62 42.25 230.62C40.83 230.62 39.74 231.125 38.98 232.135C38.22 233.145 37.84 234.585 37.84 236.455C37.84 237.445 37.925 238.295 38.095 239.005C38.265 239.705 38.515 240.285 38.845 240.745C39.175 241.195 39.58 241.525 40.06 241.735C40.54 241.945 41.09 242.05 41.71 242.05ZM58.9628 228.565C59.8728 228.565 60.7128 228.72 61.4828 229.03C62.2528 229.33 62.9178 229.77 63.4778 230.35C64.0378 230.92 64.4728 231.63 64.7828 232.48C65.1028 233.32 65.2628 234.28 65.2628 235.36C65.2628 235.78 65.2178 236.06 65.1278 236.2C65.0378 236.34 64.8678 236.41 64.6178 236.41H54.5078C54.5278 237.37 54.6578 238.205 54.8978 238.915C55.1378 239.625 55.4678 240.22 55.8878 240.7C56.3078 241.17 56.8078 241.525 57.3878 241.765C57.9678 241.995 58.6178 242.11 59.3378 242.11C60.0078 242.11 60.5828 242.035 61.0628 241.885C61.5528 241.725 61.9728 241.555 62.3228 241.375C62.6728 241.195 62.9628 241.03 63.1928 240.88C63.4328 240.72 63.6378 240.64 63.8078 240.64C64.0278 240.64 64.1978 240.725 64.3178 240.895L65.0678 241.87C64.7378 242.27 64.3428 242.62 63.8828 242.92C63.4228 243.21 62.9278 243.45 62.3978 243.64C61.8778 243.83 61.3378 243.97 60.7778 244.06C60.2178 244.16 59.6628 244.21 59.1128 244.21C58.0628 244.21 57.0928 244.035 56.2028 243.685C55.3228 243.325 54.5578 242.805 53.9078 242.125C53.2678 241.435 52.7678 240.585 52.4078 239.575C52.0478 238.565 51.8678 237.405 51.8678 236.095C51.8678 235.035 52.0278 234.045 52.3478 233.125C52.6778 232.205 53.1478 231.41 53.7578 230.74C54.3678 230.06 55.1128 229.53 55.9928 229.15C56.8728 228.76 57.8628 228.565 58.9628 228.565ZM59.0228 230.53C57.7328 230.53 56.7178 230.905 55.9778 231.655C55.2378 232.395 54.7778 233.425 54.5978 234.745H62.8628C62.8628 234.125 62.7778 233.56 62.6078 233.05C62.4378 232.53 62.1878 232.085 61.8578 231.715C61.5278 231.335 61.1228 231.045 60.6428 230.845C60.1728 230.635 59.6328 230.53 59.0228 230.53ZM85.176 244C84.796 244 84.556 243.815 84.456 243.445L84.216 241.6C83.566 242.39 82.821 243.025 81.981 243.505C81.151 243.975 80.196 244.21 79.116 244.21C78.246 244.21 77.456 244.045 76.746 243.715C76.036 243.375 75.431 242.88 74.931 242.23C74.431 241.58 74.046 240.77 73.776 239.8C73.506 238.83 73.371 237.715 73.371 236.455C73.371 235.335 73.521 234.295 73.821 233.335C74.121 232.365 74.551 231.525 75.111 230.815C75.681 230.105 76.371 229.55 77.181 229.15C77.991 228.74 78.911 228.535 79.941 228.535C80.871 228.535 81.666 228.695 82.326 229.015C82.986 229.325 83.576 229.765 84.096 230.335V221.905H86.766V244H85.176ZM80.001 242.05C80.871 242.05 81.631 241.85 82.281 241.45C82.941 241.05 83.546 240.485 84.096 239.755V232.405C83.606 231.745 83.066 231.285 82.476 231.025C81.896 230.755 81.251 230.62 80.541 230.62C79.121 230.62 78.031 231.125 77.271 232.135C76.511 233.145 76.131 234.585 76.131 236.455C76.131 237.445 76.216 238.295 76.386 239.005C76.556 239.705 76.806 240.285 77.136 240.745C77.466 241.195 77.871 241.525 78.351 241.735C78.831 241.945 79.381 242.05 80.001 242.05ZM102.399 244H101.214C100.954 244 100.744 243.96 100.584 243.88C100.424 243.8 100.319 243.63 100.269 243.37L99.9688 241.96C99.5688 242.32 99.1788 242.645 98.7988 242.935C98.4188 243.215 98.0188 243.455 97.5988 243.655C97.1788 243.845 96.7288 243.99 96.2488 244.09C95.7788 244.19 95.2538 244.24 94.6738 244.24C94.0838 244.24 93.5288 244.16 93.0088 244C92.4988 243.83 92.0538 243.58 91.6738 243.25C91.2938 242.92 90.9888 242.505 90.7588 242.005C90.5388 241.495 90.4288 240.895 90.4288 240.205C90.4288 239.605 90.5938 239.03 90.9238 238.48C91.2538 237.92 91.7838 237.425 92.5138 236.995C93.2538 236.565 94.2188 236.215 95.4088 235.945C96.5988 235.665 98.0538 235.505 99.7738 235.465V234.28C99.7738 233.1 99.5188 232.21 99.0088 231.61C98.5088 231 97.7638 230.695 96.7738 230.695C96.1238 230.695 95.5738 230.78 95.1238 230.95C94.6838 231.11 94.2988 231.295 93.9688 231.505C93.6488 231.705 93.3688 231.89 93.1288 232.06C92.8988 232.22 92.6688 232.3 92.4388 232.3C92.2588 232.3 92.0988 232.255 91.9588 232.165C91.8288 232.065 91.7238 231.945 91.6438 231.805L91.1638 230.95C92.0038 230.14 92.9088 229.535 93.8788 229.135C94.8488 228.735 95.9238 228.535 97.1038 228.535C97.9538 228.535 98.7088 228.675 99.3688 228.955C100.029 229.235 100.584 229.625 101.034 230.125C101.484 230.625 101.824 231.23 102.054 231.94C102.284 232.65 102.399 233.43 102.399 234.28V244ZM95.4688 242.365C95.9388 242.365 96.3688 242.32 96.7588 242.23C97.1488 242.13 97.5138 241.995 97.8538 241.825C98.2038 241.645 98.5338 241.43 98.8438 241.18C99.1638 240.93 99.4738 240.645 99.7738 240.325V237.16C98.5438 237.2 97.4988 237.3 96.6388 237.46C95.7788 237.61 95.0788 237.81 94.5388 238.06C93.9988 238.31 93.6038 238.605 93.3538 238.945C93.1138 239.285 92.9938 239.665 92.9938 240.085C92.9938 240.485 93.0588 240.83 93.1888 241.12C93.3188 241.41 93.4938 241.65 93.7138 241.84C93.9338 242.02 94.1938 242.155 94.4938 242.245C94.7938 242.325 95.1188 242.365 95.4688 242.365ZM106.444 244V228.805H108.034C108.414 228.805 108.654 228.99 108.754 229.36L108.964 231.01C109.624 230.28 110.359 229.69 111.169 229.24C111.989 228.79 112.934 228.565 114.004 228.565C114.834 228.565 115.564 228.705 116.194 228.985C116.834 229.255 117.364 229.645 117.784 230.155C118.214 230.655 118.539 231.26 118.759 231.97C118.979 232.68 119.089 233.465 119.089 234.325V244H116.419V234.325C116.419 233.175 116.154 232.285 115.624 231.655C115.104 231.015 114.304 230.695 113.224 230.695C112.434 230.695 111.694 230.885 111.004 231.265C110.324 231.645 109.694 232.16 109.114 232.81V244H106.444ZM129.264 228.565C130.374 228.565 131.374 228.75 132.264 229.12C133.164 229.49 133.924 230.015 134.544 230.695C135.174 231.375 135.654 232.2 135.984 233.17C136.324 234.13 136.494 235.205 136.494 236.395C136.494 237.595 136.324 238.675 135.984 239.635C135.654 240.595 135.174 241.415 134.544 242.095C133.924 242.775 133.164 243.3 132.264 243.67C131.374 244.03 130.374 244.21 129.264 244.21C128.154 244.21 127.149 244.03 126.249 243.67C125.359 243.3 124.599 242.775 123.969 242.095C123.339 241.415 122.854 240.595 122.514 239.635C122.174 238.675 122.004 237.595 122.004 236.395C122.004 235.205 122.174 234.13 122.514 233.17C122.854 232.2 123.339 231.375 123.969 230.695C124.599 230.015 125.359 229.49 126.249 229.12C127.149 228.75 128.154 228.565 129.264 228.565ZM129.264 242.125C130.764 242.125 131.884 241.625 132.624 240.625C133.364 239.615 133.734 238.21 133.734 236.41C133.734 234.6 133.364 233.19 132.624 232.18C131.884 231.17 130.764 230.665 129.264 230.665C128.504 230.665 127.844 230.795 127.284 231.055C126.724 231.315 126.254 231.69 125.874 232.18C125.504 232.67 125.224 233.275 125.034 233.995C124.854 234.705 124.764 235.51 124.764 236.41C124.764 237.31 124.854 238.115 125.034 238.825C125.224 239.535 125.504 240.135 125.874 240.625C126.254 241.105 126.724 241.475 127.284 241.735C127.844 241.995 128.504 242.125 129.264 242.125ZM148.484 231.31C148.364 231.53 148.179 231.64 147.929 231.64C147.779 231.64 147.609 231.585 147.419 231.475C147.229 231.365 146.994 231.245 146.714 231.115C146.444 230.975 146.119 230.85 145.739 230.74C145.359 230.62 144.909 230.56 144.389 230.56C143.939 230.56 143.534 230.62 143.174 230.74C142.814 230.85 142.504 231.005 142.244 231.205C141.994 231.405 141.799 231.64 141.659 231.91C141.529 232.17 141.464 232.455 141.464 232.765C141.464 233.155 141.574 233.48 141.794 233.74C142.024 234 142.324 234.225 142.694 234.415C143.064 234.605 143.484 234.775 143.954 234.925C144.424 235.065 144.904 235.22 145.394 235.39C145.894 235.55 146.379 235.73 146.849 235.93C147.319 236.13 147.739 236.38 148.109 236.68C148.479 236.98 148.774 237.35 148.994 237.79C149.224 238.22 149.339 238.74 149.339 239.35C149.339 240.05 149.214 240.7 148.964 241.3C148.714 241.89 148.344 242.405 147.854 242.845C147.364 243.275 146.764 243.615 146.054 243.865C145.344 244.115 144.524 244.24 143.594 244.24C142.534 244.24 141.574 244.07 140.714 243.73C139.854 243.38 139.124 242.935 138.524 242.395L139.154 241.375C139.234 241.245 139.329 241.145 139.439 241.075C139.549 241.005 139.694 240.97 139.874 240.97C140.054 240.97 140.244 241.04 140.444 241.18C140.644 241.32 140.884 241.475 141.164 241.645C141.454 241.815 141.799 241.97 142.199 242.11C142.609 242.25 143.119 242.32 143.729 242.32C144.249 242.32 144.704 242.255 145.094 242.125C145.484 241.985 145.809 241.8 146.069 241.57C146.329 241.34 146.519 241.075 146.639 240.775C146.769 240.475 146.834 240.155 146.834 239.815C146.834 239.395 146.719 239.05 146.489 238.78C146.269 238.5 145.974 238.265 145.604 238.075C145.234 237.875 144.809 237.705 144.329 237.565C143.859 237.415 143.374 237.26 142.874 237.1C142.384 236.94 141.899 236.76 141.419 236.56C140.949 236.35 140.529 236.09 140.159 235.78C139.789 235.47 139.489 235.09 139.259 234.64C139.039 234.18 138.929 233.625 138.929 232.975C138.929 232.395 139.049 231.84 139.289 231.31C139.529 230.77 139.879 230.3 140.339 229.9C140.799 229.49 141.364 229.165 142.034 228.925C142.704 228.685 143.469 228.565 144.329 228.565C145.329 228.565 146.224 228.725 147.014 229.045C147.814 229.355 148.504 229.785 149.084 230.335L148.484 231.31Z" fill="#882F87"/>
<path fill-rule="evenodd" clip-rule="evenodd" d="M192.749 47.9835C193.845 49.2266 195.74 49.3462 196.983 48.2507C198.226 47.1552 198.346 45.2595 197.251 44.0165L182.145 26.8765C182.416 26.9569 182.703 27 183 27L235 27C236.657 27 238 25.6569 238 24C238 22.3432 236.657 21 235 21L183 21C182.678 21 182.369 21.0507 182.078 21.1444L197.187 5.05355C198.321 3.8457 198.261 1.94715 197.053 0.813009C195.846 -0.321131 193.947 -0.261378 192.813 0.94647L176.057 18.791C173.362 21.6095 173.329 25.948 175.876 28.8379L192.749 47.9835ZM180.014 23.7107C180.003 23.7882 179.998 23.8668 180 23.9455C180.002 23.8664 180.006 23.7881 180.014 23.7107Z" fill="#AB74AE"/>
<path d="M329.861 89.6594C327.248 88.7831 325.348 86.3399 325.348 83.4355C325.348 79.8007 328.305 76.8438 331.939 76.8438C335.574 76.8438 338.531 79.8007 338.531 83.4355C338.531 86.2444 336.758 88.6311 334.278 89.5787C334.887 93.4155 337.466 96.5655 340.948 97.9814C344.243 95.3421 347.32 89.4897 347.32 83.4355C347.32 74.9979 342.003 67.791 334.532 64.9344C337.565 61.5506 338.531 55.8084 338.531 52.3809V50.7988L337.037 50.3153C331.324 48.3817 327.589 45.5693 324.293 43.0645C320.162 39.9442 316.251 37 309.967 37H298.98V39.1973C298.98 46.0088 300.123 51.7215 301.222 57.2147C302.32 62.752 303.375 68.2744 303.375 74.6465C303.375 80.3153 301.661 84.1385 299.64 88.6211C297.267 93.8945 294.293 99.915 294.293 109.803V112H329.742V103.079C332.291 102.815 334.708 102.024 336.949 100.794C333.09 98.4159 330.418 94.3751 329.861 89.6594Z" fill="#AB74AE"/>
<path d="M364.969 48.375C363.674 48.375 362.625 49.4243 362.625 50.7188C362.625 52.0132 363.674 53.0625 364.969 53.0625C366.263 53.0625 367.312 54.1118 367.312 55.4062V60.0938C367.312 63.9708 364.158 67.125 360.281 67.125C356.404 67.125 353.25 63.9708 353.25 60.0938V53.0625H355.594C356.888 53.0625 357.938 52.0132 357.938 50.7188C357.938 49.4243 356.888 48.375 355.594 48.375H353.25C350.661 48.375 348.562 50.4737 348.562 53.0625V60.0938C348.562 65.7531 352.595 70.4878 357.938 71.5767V88.2188C357.938 94.6805 352.68 99.9375 346.219 99.9375C344.64 99.9375 343.135 99.622 341.759 99.0537C345.871 95.3005 348.562 89.6927 348.562 83.5312C348.562 74.5311 342.896 66.8292 334.944 63.8055C336.179 62.4319 337.176 60.6494 337.895 58.4911C339.173 54.6587 339.188 50.8778 339.188 50.7188C339.188 49.71 338.542 48.8143 337.585 48.4953C331.482 46.4609 327.496 43.3659 323.979 40.6355C319.585 37.2231 315.434 34 308.719 34H297V36.3438C297 43.6041 298.214 49.7552 299.388 55.7039C300.571 61.6952 301.688 67.3541 301.688 74.1562C301.688 80.1664 299.785 84.2767 297.581 89.0359C294.965 94.6869 292 101.092 292 111.656V114H329.812V104.496C332.511 104.196 335.105 103.38 337.48 102.098C340.012 103.698 343.009 104.625 346.219 104.625C355.265 104.625 362.625 97.2652 362.625 88.2188V71.5767C367.967 70.488 372 65.7531 372 60.0938V53.0625C372 50.4737 369.901 48.375 367.312 48.375H364.969ZM327.469 99.9375H325.125V109.312H296.742C297.131 101.167 299.519 96.008 301.835 91.0052C304.17 85.9622 306.375 81.1989 306.375 74.1562C306.375 66.8959 305.161 60.7448 303.987 54.7961C302.943 49.5062 301.95 44.4748 301.732 38.6875H308.719C313.827 38.6875 316.88 41.0575 321.104 44.3378C323.853 46.4723 326.867 48.812 330.906 50.8089C332.925 51.8071 334.323 53.9112 333.732 56.0846C332.892 59.1696 331.138 62.4375 327.469 62.4375V67.125C336.515 67.125 343.875 74.4848 343.875 83.5312C343.875 88.5795 341.549 93.2773 337.756 96.3119C336.153 94.6369 335.041 92.4905 334.653 90.1027C337.301 89.0931 339.188 86.5291 339.188 83.5312C339.188 79.6542 336.033 76.5 332.156 76.5C328.279 76.5 325.125 79.6542 325.125 83.5312C325.125 86.6311 327.142 89.267 329.933 90.2C330.322 93.4237 331.651 96.3622 333.635 98.7336C331.694 99.5231 329.608 99.9375 327.469 99.9375ZM329.812 83.5312C329.812 82.2389 330.864 81.1875 332.156 81.1875C333.449 81.1875 334.5 82.2389 334.5 83.5312C334.5 84.8236 333.449 85.875 332.156 85.875C330.864 85.875 329.812 84.8236 329.812 83.5312Z" fill="#882F87"/>
</svg>
