<svg width="391" height="285" viewBox="0 0 391 285" fill="none" xmlns="http://www.w3.org/2000/svg">
<path opacity="0.5" d="M0 24.5C0 24.5 347.5 28 363.5 24.5C379.5 21 391 7 391 7V264.5C391 275.546 382.046 284.5 371 284.5H20C8.95431 284.5 0 275.546 0 264.5V24.5Z" fill="#DDBDDF"/>
<path d="M38.76 155.56C38.92 155.56 39.065 155.625 39.195 155.755L40.335 157C39.455 158.02 38.385 158.815 37.125 159.385C35.875 159.955 34.365 160.24 32.595 160.24C31.045 160.24 29.64 159.975 28.38 159.445C27.12 158.905 26.045 158.155 25.155 157.195C24.265 156.225 23.575 155.065 23.085 153.715C22.595 152.365 22.35 150.88 22.35 149.26C22.35 147.64 22.61 146.155 23.13 144.805C23.66 143.455 24.4 142.295 25.35 141.325C26.3 140.355 27.435 139.605 28.755 139.075C30.085 138.535 31.55 138.265 33.15 138.265C34.73 138.265 36.09 138.51 37.23 139C38.38 139.49 39.4 140.155 40.29 140.995L39.345 142.33C39.275 142.43 39.195 142.515 39.105 142.585C39.015 142.645 38.885 142.675 38.715 142.675C38.585 142.675 38.445 142.63 38.295 142.54C38.155 142.44 37.985 142.32 37.785 142.18C37.585 142.04 37.35 141.89 37.08 141.73C36.81 141.57 36.49 141.42 36.12 141.28C35.75 141.14 35.32 141.025 34.83 140.935C34.34 140.835 33.775 140.785 33.135 140.785C31.985 140.785 30.93 140.985 29.97 141.385C29.02 141.775 28.2 142.335 27.51 143.065C26.82 143.795 26.28 144.685 25.89 145.735C25.51 146.785 25.32 147.96 25.32 149.26C25.32 150.6 25.51 151.795 25.89 152.845C26.28 153.895 26.805 154.785 27.465 155.515C28.135 156.235 28.925 156.785 29.835 157.165C30.745 157.545 31.725 157.735 32.775 157.735C33.415 157.735 33.99 157.7 34.5 157.63C35.01 157.55 35.48 157.43 35.91 157.27C36.35 157.11 36.755 156.91 37.125 156.67C37.505 156.42 37.885 156.125 38.265 155.785C38.435 155.635 38.6 155.56 38.76 155.56ZM46.0371 144.805V154.495C46.0371 155.645 46.3021 156.535 46.8321 157.165C47.3621 157.795 48.1621 158.11 49.2321 158.11C50.0121 158.11 50.7471 157.925 51.4371 157.555C52.1271 157.185 52.7621 156.67 53.3421 156.01V144.805H56.0121V160H54.4221C54.0421 160 53.8021 159.815 53.7021 159.445L53.4921 157.81C52.8321 158.54 52.0921 159.13 51.2721 159.58C50.4521 160.02 49.5121 160.24 48.4521 160.24C47.6221 160.24 46.8871 160.105 46.2471 159.835C45.6171 159.555 45.0871 159.165 44.6571 158.665C44.2271 158.165 43.9021 157.56 43.6821 156.85C43.4721 156.14 43.3671 155.355 43.3671 154.495V144.805H46.0371ZM63.367 144.805V160H60.697V144.805H63.367ZM63.967 140.035C63.967 140.295 63.912 140.54 63.802 140.77C63.702 140.99 63.562 141.19 63.382 141.37C63.212 141.54 63.012 141.675 62.782 141.775C62.552 141.875 62.307 141.925 62.047 141.925C61.787 141.925 61.542 141.875 61.312 141.775C61.092 141.675 60.892 141.54 60.712 141.37C60.542 141.19 60.407 140.99 60.307 140.77C60.207 140.54 60.157 140.295 60.157 140.035C60.157 139.775 60.207 139.53 60.307 139.3C60.407 139.06 60.542 138.855 60.712 138.685C60.892 138.505 61.092 138.365 61.312 138.265C61.542 138.165 61.787 138.115 62.047 138.115C62.307 138.115 62.552 138.165 62.782 138.265C63.012 138.365 63.212 138.505 63.382 138.685C63.562 138.855 63.702 139.06 63.802 139.3C63.912 139.53 63.967 139.775 63.967 140.035ZM78.7678 160C78.3878 160 78.1478 159.815 78.0478 159.445L77.8078 157.6C77.1578 158.39 76.4128 159.025 75.5728 159.505C74.7428 159.975 73.7878 160.21 72.7078 160.21C71.8378 160.21 71.0478 160.045 70.3378 159.715C69.6278 159.375 69.0228 158.88 68.5228 158.23C68.0228 157.58 67.6378 156.77 67.3678 155.8C67.0978 154.83 66.9628 153.715 66.9628 152.455C66.9628 151.335 67.1128 150.295 67.4128 149.335C67.7128 148.365 68.1428 147.525 68.7028 146.815C69.2728 146.105 69.9628 145.55 70.7728 145.15C71.5828 144.74 72.5028 144.535 73.5328 144.535C74.4628 144.535 75.2578 144.695 75.9178 145.015C76.5778 145.325 77.1678 145.765 77.6878 146.335V137.905H80.3578V160H78.7678ZM73.5928 158.05C74.4628 158.05 75.2228 157.85 75.8728 157.45C76.5328 157.05 77.1378 156.485 77.6878 155.755V148.405C77.1978 147.745 76.6578 147.285 76.0678 147.025C75.4878 146.755 74.8428 146.62 74.1328 146.62C72.7128 146.62 71.6228 147.125 70.8628 148.135C70.1028 149.145 69.7228 150.585 69.7228 152.455C69.7228 153.445 69.8078 154.295 69.9778 155.005C70.1478 155.705 70.3978 156.285 70.7278 156.745C71.0578 157.195 71.4628 157.525 71.9428 157.735C72.4228 157.945 72.9728 158.05 73.5928 158.05ZM95.9906 160H94.8056C94.5456 160 94.3356 159.96 94.1756 159.88C94.0156 159.8 93.9106 159.63 93.8606 159.37L93.5606 157.96C93.1606 158.32 92.7706 158.645 92.3906 158.935C92.0106 159.215 91.6106 159.455 91.1906 159.655C90.7706 159.845 90.3206 159.99 89.8406 160.09C89.3706 160.19 88.8456 160.24 88.2656 160.24C87.6756 160.24 87.1206 160.16 86.6006 160C86.0906 159.83 85.6456 159.58 85.2656 159.25C84.8856 158.92 84.5806 158.505 84.3506 158.005C84.1306 157.495 84.0206 156.895 84.0206 156.205C84.0206 155.605 84.1856 155.03 84.5156 154.48C84.8456 153.92 85.3756 153.425 86.1056 152.995C86.8456 152.565 87.8106 152.215 89.0006 151.945C90.1906 151.665 91.6456 151.505 93.3656 151.465V150.28C93.3656 149.1 93.1106 148.21 92.6006 147.61C92.1006 147 91.3556 146.695 90.3656 146.695C89.7156 146.695 89.1656 146.78 88.7156 146.95C88.2756 147.11 87.8906 147.295 87.5606 147.505C87.2406 147.705 86.9606 147.89 86.7206 148.06C86.4906 148.22 86.2606 148.3 86.0306 148.3C85.8506 148.3 85.6906 148.255 85.5506 148.165C85.4206 148.065 85.3156 147.945 85.2356 147.805L84.7556 146.95C85.5956 146.14 86.5006 145.535 87.4706 145.135C88.4406 144.735 89.5156 144.535 90.6956 144.535C91.5456 144.535 92.3006 144.675 92.9606 144.955C93.6206 145.235 94.1756 145.625 94.6256 146.125C95.0756 146.625 95.4156 147.23 95.6456 147.94C95.8756 148.65 95.9906 149.43 95.9906 150.28V160ZM89.0606 158.365C89.5306 158.365 89.9606 158.32 90.3506 158.23C90.7406 158.13 91.1056 157.995 91.4456 157.825C91.7956 157.645 92.1256 157.43 92.4356 157.18C92.7556 156.93 93.0656 156.645 93.3656 156.325V153.16C92.1356 153.2 91.0906 153.3 90.2306 153.46C89.3706 153.61 88.6706 153.81 88.1306 154.06C87.5906 154.31 87.1956 154.605 86.9456 154.945C86.7056 155.285 86.5856 155.665 86.5856 156.085C86.5856 156.485 86.6506 156.83 86.7806 157.12C86.9106 157.41 87.0856 157.65 87.3056 157.84C87.5256 158.02 87.7856 158.155 88.0856 158.245C88.3856 158.325 88.7106 158.365 89.0606 158.365ZM110.731 160C110.351 160 110.111 159.815 110.011 159.445L109.771 157.6C109.121 158.39 108.376 159.025 107.536 159.505C106.706 159.975 105.751 160.21 104.671 160.21C103.801 160.21 103.011 160.045 102.301 159.715C101.591 159.375 100.986 158.88 100.486 158.23C99.9857 157.58 99.6007 156.77 99.3307 155.8C99.0607 154.83 98.9257 153.715 98.9257 152.455C98.9257 151.335 99.0757 150.295 99.3757 149.335C99.6757 148.365 100.106 147.525 100.666 146.815C101.236 146.105 101.926 145.55 102.736 145.15C103.546 144.74 104.466 144.535 105.496 144.535C106.426 144.535 107.221 144.695 107.881 145.015C108.541 145.325 109.131 145.765 109.651 146.335V137.905H112.321V160H110.731ZM105.556 158.05C106.426 158.05 107.186 157.85 107.836 157.45C108.496 157.05 109.101 156.485 109.651 155.755V148.405C109.161 147.745 108.621 147.285 108.031 147.025C107.451 146.755 106.806 146.62 106.096 146.62C104.676 146.62 103.586 147.125 102.826 148.135C102.066 149.145 101.686 150.585 101.686 152.455C101.686 153.445 101.771 154.295 101.941 155.005C102.111 155.705 102.361 156.285 102.691 156.745C103.021 157.195 103.426 157.525 103.906 157.735C104.386 157.945 104.936 158.05 105.556 158.05ZM122.944 144.565C124.054 144.565 125.054 144.75 125.944 145.12C126.844 145.49 127.604 146.015 128.224 146.695C128.854 147.375 129.334 148.2 129.664 149.17C130.004 150.13 130.174 151.205 130.174 152.395C130.174 153.595 130.004 154.675 129.664 155.635C129.334 156.595 128.854 157.415 128.224 158.095C127.604 158.775 126.844 159.3 125.944 159.67C125.054 160.03 124.054 160.21 122.944 160.21C121.834 160.21 120.829 160.03 119.929 159.67C119.039 159.3 118.279 158.775 117.649 158.095C117.019 157.415 116.534 156.595 116.194 155.635C115.854 154.675 115.684 153.595 115.684 152.395C115.684 151.205 115.854 150.13 116.194 149.17C116.534 148.2 117.019 147.375 117.649 146.695C118.279 146.015 119.039 145.49 119.929 145.12C120.829 144.75 121.834 144.565 122.944 144.565ZM122.944 158.125C124.444 158.125 125.564 157.625 126.304 156.625C127.044 155.615 127.414 154.21 127.414 152.41C127.414 150.6 127.044 149.19 126.304 148.18C125.564 147.17 124.444 146.665 122.944 146.665C122.184 146.665 121.524 146.795 120.964 147.055C120.404 147.315 119.934 147.69 119.554 148.18C119.184 148.67 118.904 149.275 118.714 149.995C118.534 150.705 118.444 151.51 118.444 152.41C118.444 153.31 118.534 154.115 118.714 154.825C118.904 155.535 119.184 156.135 119.554 156.625C119.934 157.105 120.404 157.475 120.964 157.735C121.524 157.995 122.184 158.125 122.944 158.125ZM142.163 147.31C142.043 147.53 141.858 147.64 141.608 147.64C141.458 147.64 141.288 147.585 141.098 147.475C140.908 147.365 140.673 147.245 140.393 147.115C140.123 146.975 139.798 146.85 139.418 146.74C139.038 146.62 138.588 146.56 138.068 146.56C137.618 146.56 137.213 146.62 136.853 146.74C136.493 146.85 136.183 147.005 135.923 147.205C135.673 147.405 135.478 147.64 135.338 147.91C135.208 148.17 135.143 148.455 135.143 148.765C135.143 149.155 135.253 149.48 135.473 149.74C135.703 150 136.003 150.225 136.373 150.415C136.743 150.605 137.163 150.775 137.633 150.925C138.103 151.065 138.583 151.22 139.073 151.39C139.573 151.55 140.058 151.73 140.528 151.93C140.998 152.13 141.418 152.38 141.788 152.68C142.158 152.98 142.453 153.35 142.673 153.79C142.903 154.22 143.018 154.74 143.018 155.35C143.018 156.05 142.893 156.7 142.643 157.3C142.393 157.89 142.023 158.405 141.533 158.845C141.043 159.275 140.443 159.615 139.733 159.865C139.023 160.115 138.203 160.24 137.273 160.24C136.213 160.24 135.253 160.07 134.393 159.73C133.533 159.38 132.803 158.935 132.203 158.395L132.833 157.375C132.913 157.245 133.008 157.145 133.118 157.075C133.228 157.005 133.373 156.97 133.553 156.97C133.733 156.97 133.923 157.04 134.123 157.18C134.323 157.32 134.563 157.475 134.843 157.645C135.133 157.815 135.478 157.97 135.878 158.11C136.288 158.25 136.798 158.32 137.408 158.32C137.928 158.32 138.383 158.255 138.773 158.125C139.163 157.985 139.488 157.8 139.748 157.57C140.008 157.34 140.198 157.075 140.318 156.775C140.448 156.475 140.513 156.155 140.513 155.815C140.513 155.395 140.398 155.05 140.168 154.78C139.948 154.5 139.653 154.265 139.283 154.075C138.913 153.875 138.488 153.705 138.008 153.565C137.538 153.415 137.053 153.26 136.553 153.1C136.063 152.94 135.578 152.76 135.098 152.56C134.628 152.35 134.208 152.09 133.838 151.78C133.468 151.47 133.168 151.09 132.938 150.64C132.718 150.18 132.608 149.625 132.608 148.975C132.608 148.395 132.728 147.84 132.968 147.31C133.208 146.77 133.558 146.3 134.018 145.9C134.478 145.49 135.043 145.165 135.713 144.925C136.383 144.685 137.148 144.565 138.008 144.565C139.008 144.565 139.903 144.725 140.693 145.045C141.493 145.355 142.183 145.785 142.763 146.335L142.163 147.31ZM152.272 165.145V144.805H153.862C154.242 144.805 154.482 144.99 154.582 145.36L154.807 147.16C155.457 146.37 156.197 145.735 157.027 145.255C157.867 144.775 158.832 144.535 159.922 144.535C160.792 144.535 161.582 144.705 162.292 145.045C163.002 145.375 163.607 145.87 164.107 146.53C164.607 147.18 164.992 147.99 165.262 148.96C165.532 149.93 165.667 151.045 165.667 152.305C165.667 153.425 165.517 154.47 165.217 155.44C164.917 156.4 164.487 157.235 163.927 157.945C163.367 158.645 162.677 159.2 161.857 159.61C161.047 160.01 160.132 160.21 159.112 160.21C158.172 160.21 157.367 160.055 156.697 159.745C156.037 159.435 155.452 158.995 154.942 158.425V165.145H152.272ZM159.037 146.695C158.167 146.695 157.402 146.895 156.742 147.295C156.092 147.695 155.492 148.26 154.942 148.99V156.34C155.432 157 155.967 157.465 156.547 157.735C157.137 158.005 157.792 158.14 158.512 158.14C159.922 158.14 161.007 157.635 161.767 156.625C162.527 155.615 162.907 154.175 162.907 152.305C162.907 151.315 162.817 150.465 162.637 149.755C162.467 149.045 162.217 148.465 161.887 148.015C161.557 147.555 161.152 147.22 160.672 147.01C160.192 146.8 159.647 146.695 159.037 146.695ZM168.825 160V144.805H170.355C170.645 144.805 170.845 144.86 170.955 144.97C171.065 145.08 171.14 145.27 171.18 145.54L171.36 147.91C171.88 146.85 172.52 146.025 173.28 145.435C174.05 144.835 174.95 144.535 175.98 144.535C176.4 144.535 176.78 144.585 177.12 144.685C177.46 144.775 177.775 144.905 178.065 145.075L177.72 147.07C177.65 147.32 177.495 147.445 177.255 147.445C177.115 147.445 176.9 147.4 176.61 147.31C176.32 147.21 175.915 147.16 175.395 147.16C174.465 147.16 173.685 147.43 173.055 147.97C172.435 148.51 171.915 149.295 171.495 150.325V160H168.825ZM186.939 144.565C187.849 144.565 188.689 144.72 189.459 145.03C190.229 145.33 190.894 145.77 191.454 146.35C192.014 146.92 192.449 147.63 192.759 148.48C193.079 149.32 193.239 150.28 193.239 151.36C193.239 151.78 193.194 152.06 193.104 152.2C193.014 152.34 192.844 152.41 192.594 152.41H182.484C182.504 153.37 182.634 154.205 182.874 154.915C183.114 155.625 183.444 156.22 183.864 156.7C184.284 157.17 184.784 157.525 185.364 157.765C185.944 157.995 186.594 158.11 187.314 158.11C187.984 158.11 188.559 158.035 189.039 157.885C189.529 157.725 189.949 157.555 190.299 157.375C190.649 157.195 190.939 157.03 191.169 156.88C191.409 156.72 191.614 156.64 191.784 156.64C192.004 156.64 192.174 156.725 192.294 156.895L193.044 157.87C192.714 158.27 192.319 158.62 191.859 158.92C191.399 159.21 190.904 159.45 190.374 159.64C189.854 159.83 189.314 159.97 188.754 160.06C188.194 160.16 187.639 160.21 187.089 160.21C186.039 160.21 185.069 160.035 184.179 159.685C183.299 159.325 182.534 158.805 181.884 158.125C181.244 157.435 180.744 156.585 180.384 155.575C180.024 154.565 179.844 153.405 179.844 152.095C179.844 151.035 180.004 150.045 180.324 149.125C180.654 148.205 181.124 147.41 181.734 146.74C182.344 146.06 183.089 145.53 183.969 145.15C184.849 144.76 185.839 144.565 186.939 144.565ZM186.999 146.53C185.709 146.53 184.694 146.905 183.954 147.655C183.214 148.395 182.754 149.425 182.574 150.745H190.839C190.839 150.125 190.754 149.56 190.584 149.05C190.414 148.53 190.164 148.085 189.834 147.715C189.504 147.335 189.099 147.045 188.619 146.845C188.149 146.635 187.609 146.53 186.999 146.53ZM191.349 138.265L187.854 142.135C187.714 142.285 187.574 142.395 187.434 142.465C187.304 142.525 187.134 142.555 186.924 142.555H185.334L187.554 138.925C187.694 138.695 187.844 138.53 188.004 138.43C188.174 138.32 188.419 138.265 188.739 138.265H191.349ZM208.473 144.565C209.383 144.565 210.223 144.72 210.993 145.03C211.763 145.33 212.428 145.77 212.988 146.35C213.548 146.92 213.983 147.63 214.293 148.48C214.613 149.32 214.773 150.28 214.773 151.36C214.773 151.78 214.728 152.06 214.638 152.2C214.548 152.34 214.378 152.41 214.128 152.41H204.018C204.038 153.37 204.168 154.205 204.408 154.915C204.648 155.625 204.978 156.22 205.398 156.7C205.818 157.17 206.318 157.525 206.898 157.765C207.478 157.995 208.128 158.11 208.848 158.11C209.518 158.11 210.093 158.035 210.573 157.885C211.063 157.725 211.483 157.555 211.833 157.375C212.183 157.195 212.473 157.03 212.703 156.88C212.943 156.72 213.148 156.64 213.318 156.64C213.538 156.64 213.708 156.725 213.828 156.895L214.578 157.87C214.248 158.27 213.853 158.62 213.393 158.92C212.933 159.21 212.438 159.45 211.908 159.64C211.388 159.83 210.848 159.97 210.288 160.06C209.728 160.16 209.173 160.21 208.623 160.21C207.573 160.21 206.603 160.035 205.713 159.685C204.833 159.325 204.068 158.805 203.418 158.125C202.778 157.435 202.278 156.585 201.918 155.575C201.558 154.565 201.378 153.405 201.378 152.095C201.378 151.035 201.538 150.045 201.858 149.125C202.188 148.205 202.658 147.41 203.268 146.74C203.878 146.06 204.623 145.53 205.503 145.15C206.383 144.76 207.373 144.565 208.473 144.565ZM208.533 146.53C207.243 146.53 206.228 146.905 205.488 147.655C204.748 148.395 204.288 149.425 204.108 150.745H212.373C212.373 150.125 212.288 149.56 212.118 149.05C211.948 148.53 211.698 148.085 211.368 147.715C211.038 147.335 210.633 147.045 210.153 146.845C209.683 146.635 209.143 146.53 208.533 146.53ZM23.19 207.145V186.805H24.78C25.16 186.805 25.4 186.99 25.5 187.36L25.725 189.16C26.375 188.37 27.115 187.735 27.945 187.255C28.785 186.775 29.75 186.535 30.84 186.535C31.71 186.535 32.5 186.705 33.21 187.045C33.92 187.375 34.525 187.87 35.025 188.53C35.525 189.18 35.91 189.99 36.18 190.96C36.45 191.93 36.585 193.045 36.585 194.305C36.585 195.425 36.435 196.47 36.135 197.44C35.835 198.4 35.405 199.235 34.845 199.945C34.285 200.645 33.595 201.2 32.775 201.61C31.965 202.01 31.05 202.21 30.03 202.21C29.09 202.21 28.285 202.055 27.615 201.745C26.955 201.435 26.37 200.995 25.86 200.425V207.145H23.19ZM29.955 188.695C29.085 188.695 28.32 188.895 27.66 189.295C27.01 189.695 26.41 190.26 25.86 190.99V198.34C26.35 199 26.885 199.465 27.465 199.735C28.055 200.005 28.71 200.14 29.43 200.14C30.84 200.14 31.925 199.635 32.685 198.625C33.445 197.615 33.825 196.175 33.825 194.305C33.825 193.315 33.735 192.465 33.555 191.755C33.385 191.045 33.135 190.465 32.805 190.015C32.475 189.555 32.07 189.22 31.59 189.01C31.11 188.8 30.565 188.695 29.955 188.695ZM45.8927 186.565C47.0027 186.565 48.0027 186.75 48.8927 187.12C49.7927 187.49 50.5527 188.015 51.1727 188.695C51.8027 189.375 52.2827 190.2 52.6127 191.17C52.9527 192.13 53.1227 193.205 53.1227 194.395C53.1227 195.595 52.9527 196.675 52.6127 197.635C52.2827 198.595 51.8027 199.415 51.1727 200.095C50.5527 200.775 49.7927 201.3 48.8927 201.67C48.0027 202.03 47.0027 202.21 45.8927 202.21C44.7827 202.21 43.7777 202.03 42.8777 201.67C41.9877 201.3 41.2277 200.775 40.5977 200.095C39.9677 199.415 39.4827 198.595 39.1427 197.635C38.8027 196.675 38.6327 195.595 38.6327 194.395C38.6327 193.205 38.8027 192.13 39.1427 191.17C39.4827 190.2 39.9677 189.375 40.5977 188.695C41.2277 188.015 41.9877 187.49 42.8777 187.12C43.7777 186.75 44.7827 186.565 45.8927 186.565ZM45.8927 200.125C47.3927 200.125 48.5127 199.625 49.2527 198.625C49.9927 197.615 50.3627 196.21 50.3627 194.41C50.3627 192.6 49.9927 191.19 49.2527 190.18C48.5127 189.17 47.3927 188.665 45.8927 188.665C45.1327 188.665 44.4727 188.795 43.9127 189.055C43.3527 189.315 42.8827 189.69 42.5027 190.18C42.1327 190.67 41.8527 191.275 41.6627 191.995C41.4827 192.705 41.3927 193.51 41.3927 194.41C41.3927 195.31 41.4827 196.115 41.6627 196.825C41.8527 197.535 42.1327 198.135 42.5027 198.625C42.8827 199.105 43.3527 199.475 43.9127 199.735C44.4727 199.995 45.1327 200.125 45.8927 200.125ZM50.2727 180.265L46.7777 184.135C46.6377 184.285 46.4977 184.395 46.3577 184.465C46.2277 184.525 46.0577 184.555 45.8477 184.555H44.2577L46.4777 180.925C46.6177 180.695 46.7677 180.53 46.9277 180.43C47.0977 180.32 47.3427 180.265 47.6627 180.265H50.2727ZM65.1127 189.31C64.9927 189.53 64.8077 189.64 64.5577 189.64C64.4077 189.64 64.2377 189.585 64.0477 189.475C63.8577 189.365 63.6227 189.245 63.3427 189.115C63.0727 188.975 62.7477 188.85 62.3677 188.74C61.9877 188.62 61.5377 188.56 61.0177 188.56C60.5677 188.56 60.1627 188.62 59.8027 188.74C59.4427 188.85 59.1327 189.005 58.8727 189.205C58.6227 189.405 58.4277 189.64 58.2877 189.91C58.1577 190.17 58.0927 190.455 58.0927 190.765C58.0927 191.155 58.2027 191.48 58.4227 191.74C58.6527 192 58.9527 192.225 59.3227 192.415C59.6927 192.605 60.1127 192.775 60.5827 192.925C61.0527 193.065 61.5327 193.22 62.0227 193.39C62.5227 193.55 63.0077 193.73 63.4777 193.93C63.9477 194.13 64.3677 194.38 64.7377 194.68C65.1077 194.98 65.4027 195.35 65.6227 195.79C65.8527 196.22 65.9677 196.74 65.9677 197.35C65.9677 198.05 65.8427 198.7 65.5927 199.3C65.3427 199.89 64.9727 200.405 64.4827 200.845C63.9927 201.275 63.3927 201.615 62.6827 201.865C61.9727 202.115 61.1527 202.24 60.2227 202.24C59.1627 202.24 58.2027 202.07 57.3427 201.73C56.4827 201.38 55.7527 200.935 55.1527 200.395L55.7827 199.375C55.8627 199.245 55.9577 199.145 56.0677 199.075C56.1777 199.005 56.3227 198.97 56.5027 198.97C56.6827 198.97 56.8727 199.04 57.0727 199.18C57.2727 199.32 57.5127 199.475 57.7927 199.645C58.0827 199.815 58.4277 199.97 58.8277 200.11C59.2377 200.25 59.7477 200.32 60.3577 200.32C60.8777 200.32 61.3327 200.255 61.7227 200.125C62.1127 199.985 62.4377 199.8 62.6977 199.57C62.9577 199.34 63.1477 199.075 63.2677 198.775C63.3977 198.475 63.4627 198.155 63.4627 197.815C63.4627 197.395 63.3477 197.05 63.1177 196.78C62.8977 196.5 62.6027 196.265 62.2327 196.075C61.8627 195.875 61.4377 195.705 60.9577 195.565C60.4877 195.415 60.0027 195.26 59.5027 195.1C59.0127 194.94 58.5277 194.76 58.0477 194.56C57.5777 194.35 57.1577 194.09 56.7877 193.78C56.4177 193.47 56.1177 193.09 55.8877 192.64C55.6677 192.18 55.5577 191.625 55.5577 190.975C55.5577 190.395 55.6777 189.84 55.9177 189.31C56.1577 188.77 56.5077 188.3 56.9677 187.9C57.4277 187.49 57.9927 187.165 58.6627 186.925C59.3327 186.685 60.0977 186.565 60.9577 186.565C61.9577 186.565 62.8527 186.725 63.6427 187.045C64.4427 187.355 65.1327 187.785 65.7127 188.335L65.1127 189.31ZM86.3813 202H85.1963C84.9363 202 84.7263 201.96 84.5663 201.88C84.4063 201.8 84.3013 201.63 84.2513 201.37L83.9513 199.96C83.5513 200.32 83.1613 200.645 82.7813 200.935C82.4013 201.215 82.0013 201.455 81.5813 201.655C81.1613 201.845 80.7113 201.99 80.2313 202.09C79.7613 202.19 79.2363 202.24 78.6563 202.24C78.0663 202.24 77.5113 202.16 76.9912 202C76.4813 201.83 76.0363 201.58 75.6563 201.25C75.2763 200.92 74.9713 200.505 74.7413 200.005C74.5213 199.495 74.4113 198.895 74.4113 198.205C74.4113 197.605 74.5763 197.03 74.9062 196.48C75.2363 195.92 75.7663 195.425 76.4963 194.995C77.2363 194.565 78.2013 194.215 79.3913 193.945C80.5813 193.665 82.0363 193.505 83.7563 193.465V192.28C83.7563 191.1 83.5013 190.21 82.9913 189.61C82.4913 189 81.7463 188.695 80.7563 188.695C80.1063 188.695 79.5563 188.78 79.1063 188.95C78.6663 189.11 78.2813 189.295 77.9513 189.505C77.6313 189.705 77.3513 189.89 77.1113 190.06C76.8813 190.22 76.6513 190.3 76.4213 190.3C76.2413 190.3 76.0813 190.255 75.9413 190.165C75.8113 190.065 75.7063 189.945 75.6263 189.805L75.1463 188.95C75.9863 188.14 76.8913 187.535 77.8613 187.135C78.8313 186.735 79.9063 186.535 81.0863 186.535C81.9363 186.535 82.6913 186.675 83.3513 186.955C84.0113 187.235 84.5663 187.625 85.0163 188.125C85.4663 188.625 85.8063 189.23 86.0363 189.94C86.2663 190.65 86.3813 191.43 86.3813 192.28V202ZM79.4513 200.365C79.9213 200.365 80.3513 200.32 80.7412 200.23C81.1313 200.13 81.4963 199.995 81.8363 199.825C82.1863 199.645 82.5163 199.43 82.8263 199.18C83.1463 198.93 83.4563 198.645 83.7563 198.325V195.16C82.5263 195.2 81.4813 195.3 80.6213 195.46C79.7613 195.61 79.0613 195.81 78.5213 196.06C77.9813 196.31 77.5863 196.605 77.3363 196.945C77.0963 197.285 76.9763 197.665 76.9763 198.085C76.9763 198.485 77.0413 198.83 77.1713 199.12C77.3013 199.41 77.4763 199.65 77.6963 199.84C77.9163 200.02 78.1763 200.155 78.4763 200.245C78.7763 200.325 79.1013 200.365 79.4513 200.365ZM90.5163 202V179.905H93.2013V188.995C93.8313 188.265 94.5513 187.68 95.3613 187.24C96.1813 186.79 97.1163 186.565 98.1663 186.565C99.0463 186.565 99.8413 186.73 100.551 187.06C101.261 187.39 101.866 187.885 102.366 188.545C102.866 189.195 103.251 190.005 103.521 190.975C103.791 191.935 103.926 193.045 103.926 194.305C103.926 195.425 103.776 196.47 103.476 197.44C103.176 198.4 102.741 199.235 102.171 199.945C101.611 200.645 100.921 201.2 100.101 201.61C99.2913 202.01 98.3763 202.21 97.3563 202.21C96.3763 202.21 95.5413 202.02 94.8513 201.64C94.1713 201.26 93.5763 200.73 93.0663 200.05L92.9313 201.43C92.8513 201.81 92.6213 202 92.2413 202H90.5163ZM97.2963 188.695C96.4263 188.695 95.6613 188.895 95.0013 189.295C94.3513 189.695 93.7513 190.26 93.2013 190.99V198.34C93.6813 199 94.2113 199.465 94.7913 199.735C95.3813 200.005 96.0363 200.14 96.7563 200.14C98.1763 200.14 99.2663 199.635 100.026 198.625C100.786 197.615 101.166 196.175 101.166 194.305C101.166 193.315 101.076 192.465 100.896 191.755C100.726 191.045 100.476 190.465 100.146 190.015C99.8163 189.555 99.4113 189.22 98.9313 189.01C98.4513 188.8 97.9063 188.695 97.2963 188.695ZM113.334 186.565C114.444 186.565 115.444 186.75 116.334 187.12C117.234 187.49 117.994 188.015 118.614 188.695C119.244 189.375 119.724 190.2 120.054 191.17C120.394 192.13 120.564 193.205 120.564 194.395C120.564 195.595 120.394 196.675 120.054 197.635C119.724 198.595 119.244 199.415 118.614 200.095C117.994 200.775 117.234 201.3 116.334 201.67C115.444 202.03 114.444 202.21 113.334 202.21C112.224 202.21 111.219 202.03 110.319 201.67C109.429 201.3 108.669 200.775 108.039 200.095C107.409 199.415 106.924 198.595 106.584 197.635C106.244 196.675 106.074 195.595 106.074 194.395C106.074 193.205 106.244 192.13 106.584 191.17C106.924 190.2 107.409 189.375 108.039 188.695C108.669 188.015 109.429 187.49 110.319 187.12C111.219 186.75 112.224 186.565 113.334 186.565ZM113.334 200.125C114.834 200.125 115.954 199.625 116.694 198.625C117.434 197.615 117.804 196.21 117.804 194.41C117.804 192.6 117.434 191.19 116.694 190.18C115.954 189.17 114.834 188.665 113.334 188.665C112.574 188.665 111.914 188.795 111.354 189.055C110.794 189.315 110.324 189.69 109.944 190.18C109.574 190.67 109.294 191.275 109.104 191.995C108.924 192.705 108.834 193.51 108.834 194.41C108.834 195.31 108.924 196.115 109.104 196.825C109.294 197.535 109.574 198.135 109.944 198.625C110.324 199.105 110.794 199.475 111.354 199.735C111.914 199.995 112.574 200.125 113.334 200.125ZM123.854 202V186.805H125.384C125.674 186.805 125.874 186.86 125.984 186.97C126.094 187.08 126.169 187.27 126.209 187.54L126.389 189.91C126.909 188.85 127.549 188.025 128.309 187.435C129.079 186.835 129.979 186.535 131.009 186.535C131.429 186.535 131.809 186.585 132.149 186.685C132.489 186.775 132.804 186.905 133.094 187.075L132.749 189.07C132.679 189.32 132.524 189.445 132.284 189.445C132.144 189.445 131.929 189.4 131.639 189.31C131.349 189.21 130.944 189.16 130.424 189.16C129.494 189.16 128.714 189.43 128.084 189.97C127.464 190.51 126.944 191.295 126.524 192.325V202H123.854ZM140.559 202.24C139.359 202.24 138.434 201.905 137.784 201.235C137.144 200.565 136.824 199.6 136.824 198.34V189.04H134.994C134.834 189.04 134.699 188.995 134.589 188.905C134.479 188.805 134.424 188.655 134.424 188.455V187.39L136.914 187.075L137.529 182.38C137.549 182.23 137.614 182.11 137.724 182.02C137.834 181.92 137.974 181.87 138.144 181.87H139.494V187.105H143.844V189.04H139.494V198.16C139.494 198.8 139.649 199.275 139.959 199.585C140.269 199.895 140.669 200.05 141.159 200.05C141.439 200.05 141.679 200.015 141.879 199.945C142.089 199.865 142.269 199.78 142.419 199.69C142.569 199.6 142.694 199.52 142.794 199.45C142.904 199.37 142.999 199.33 143.079 199.33C143.219 199.33 143.344 199.415 143.454 199.585L144.234 200.86C143.774 201.29 143.219 201.63 142.569 201.88C141.919 202.12 141.249 202.24 140.559 202.24ZM158.305 202H157.12C156.86 202 156.65 201.96 156.49 201.88C156.33 201.8 156.225 201.63 156.175 201.37L155.875 199.96C155.475 200.32 155.085 200.645 154.705 200.935C154.325 201.215 153.925 201.455 153.505 201.655C153.085 201.845 152.635 201.99 152.155 202.09C151.685 202.19 151.16 202.24 150.58 202.24C149.99 202.24 149.435 202.16 148.915 202C148.405 201.83 147.96 201.58 147.58 201.25C147.2 200.92 146.895 200.505 146.665 200.005C146.445 199.495 146.335 198.895 146.335 198.205C146.335 197.605 146.5 197.03 146.83 196.48C147.16 195.92 147.69 195.425 148.42 194.995C149.16 194.565 150.125 194.215 151.315 193.945C152.505 193.665 153.96 193.505 155.68 193.465V192.28C155.68 191.1 155.425 190.21 154.915 189.61C154.415 189 153.67 188.695 152.68 188.695C152.03 188.695 151.48 188.78 151.03 188.95C150.59 189.11 150.205 189.295 149.875 189.505C149.555 189.705 149.275 189.89 149.035 190.06C148.805 190.22 148.575 190.3 148.345 190.3C148.165 190.3 148.005 190.255 147.865 190.165C147.735 190.065 147.63 189.945 147.55 189.805L147.07 188.95C147.91 188.14 148.815 187.535 149.785 187.135C150.755 186.735 151.83 186.535 153.01 186.535C153.86 186.535 154.615 186.675 155.275 186.955C155.935 187.235 156.49 187.625 156.94 188.125C157.39 188.625 157.73 189.23 157.96 189.94C158.19 190.65 158.305 191.43 158.305 192.28V202ZM151.375 200.365C151.845 200.365 152.275 200.32 152.665 200.23C153.055 200.13 153.42 199.995 153.76 199.825C154.11 199.645 154.44 199.43 154.75 199.18C155.07 198.93 155.38 198.645 155.68 198.325V195.16C154.45 195.2 153.405 195.3 152.545 195.46C151.685 195.61 150.985 195.81 150.445 196.06C149.905 196.31 149.51 196.605 149.26 196.945C149.02 197.285 148.9 197.665 148.9 198.085C148.9 198.485 148.965 198.83 149.095 199.12C149.225 199.41 149.4 199.65 149.62 199.84C149.84 200.02 150.1 200.155 150.4 200.245C150.7 200.325 151.025 200.365 151.375 200.365ZM162.35 202V186.805H163.94C164.32 186.805 164.56 186.99 164.66 187.36L164.855 188.92C165.415 188.23 166.04 187.665 166.73 187.225C167.43 186.785 168.24 186.565 169.16 186.565C170.19 186.565 171.02 186.85 171.65 187.42C172.29 187.99 172.75 188.76 173.03 189.73C173.24 189.18 173.515 188.705 173.855 188.305C174.205 187.905 174.595 187.575 175.025 187.315C175.455 187.055 175.91 186.865 176.39 186.745C176.88 186.625 177.375 186.565 177.875 186.565C178.675 186.565 179.385 186.695 180.005 186.955C180.635 187.205 181.165 187.575 181.595 188.065C182.035 188.555 182.37 189.16 182.6 189.88C182.83 190.59 182.945 191.405 182.945 192.325V202H180.275V192.325C180.275 191.135 180.015 190.235 179.495 189.625C178.975 189.005 178.22 188.695 177.23 188.695C176.79 188.695 176.37 188.775 175.97 188.935C175.58 189.085 175.235 189.31 174.935 189.61C174.635 189.91 174.395 190.29 174.215 190.75C174.045 191.2 173.96 191.725 173.96 192.325V202H171.29V192.325C171.29 191.105 171.045 190.195 170.555 189.595C170.065 188.995 169.35 188.695 168.41 188.695C167.75 188.695 167.135 188.875 166.565 189.235C166.005 189.585 165.49 190.065 165.02 190.675V202H162.35ZM193.004 186.565C193.914 186.565 194.754 186.72 195.524 187.03C196.294 187.33 196.959 187.77 197.519 188.35C198.079 188.92 198.514 189.63 198.824 190.48C199.144 191.32 199.304 192.28 199.304 193.36C199.304 193.78 199.259 194.06 199.169 194.2C199.079 194.34 198.909 194.41 198.659 194.41H188.549C188.569 195.37 188.699 196.205 188.939 196.915C189.179 197.625 189.509 198.22 189.929 198.7C190.349 199.17 190.849 199.525 191.429 199.765C192.009 199.995 192.659 200.11 193.379 200.11C194.049 200.11 194.624 200.035 195.104 199.885C195.594 199.725 196.014 199.555 196.364 199.375C196.714 199.195 197.004 199.03 197.234 198.88C197.474 198.72 197.679 198.64 197.849 198.64C198.069 198.64 198.239 198.725 198.359 198.895L199.109 199.87C198.779 200.27 198.384 200.62 197.924 200.92C197.464 201.21 196.969 201.45 196.439 201.64C195.919 201.83 195.379 201.97 194.819 202.06C194.259 202.16 193.704 202.21 193.154 202.21C192.104 202.21 191.134 202.035 190.244 201.685C189.364 201.325 188.599 200.805 187.949 200.125C187.309 199.435 186.809 198.585 186.449 197.575C186.089 196.565 185.909 195.405 185.909 194.095C185.909 193.035 186.069 192.045 186.389 191.125C186.719 190.205 187.189 189.41 187.799 188.74C188.409 188.06 189.154 187.53 190.034 187.15C190.914 186.76 191.904 186.565 193.004 186.565ZM193.064 188.53C191.774 188.53 190.759 188.905 190.019 189.655C189.279 190.395 188.819 191.425 188.639 192.745H196.904C196.904 192.125 196.819 191.56 196.649 191.05C196.479 190.53 196.229 190.085 195.899 189.715C195.569 189.335 195.164 189.045 194.684 188.845C194.214 188.635 193.674 188.53 193.064 188.53ZM202.721 202V186.805H204.311C204.691 186.805 204.931 186.99 205.031 187.36L205.241 189.01C205.901 188.28 206.636 187.69 207.446 187.24C208.266 186.79 209.211 186.565 210.281 186.565C211.111 186.565 211.841 186.705 212.471 186.985C213.111 187.255 213.641 187.645 214.061 188.155C214.491 188.655 214.816 189.26 215.036 189.97C215.256 190.68 215.366 191.465 215.366 192.325V202H212.696V192.325C212.696 191.175 212.431 190.285 211.901 189.655C211.381 189.015 210.581 188.695 209.501 188.695C208.711 188.695 207.971 188.885 207.281 189.265C206.601 189.645 205.971 190.16 205.391 190.81V202H202.721ZM223.996 202.24C222.796 202.24 221.871 201.905 221.221 201.235C220.581 200.565 220.261 199.6 220.261 198.34V189.04H218.431C218.271 189.04 218.136 188.995 218.026 188.905C217.916 188.805 217.861 188.655 217.861 188.455V187.39L220.351 187.075L220.966 182.38C220.986 182.23 221.051 182.11 221.161 182.02C221.271 181.92 221.411 181.87 221.581 181.87H222.931V187.105H227.281V189.04H222.931V198.16C222.931 198.8 223.086 199.275 223.396 199.585C223.706 199.895 224.106 200.05 224.596 200.05C224.876 200.05 225.116 200.015 225.316 199.945C225.526 199.865 225.706 199.78 225.856 199.69C226.006 199.6 226.131 199.52 226.231 199.45C226.341 199.37 226.436 199.33 226.516 199.33C226.656 199.33 226.781 199.415 226.891 199.585L227.671 200.86C227.211 201.29 226.656 201.63 226.006 201.88C225.356 202.12 224.686 202.24 223.996 202.24ZM236.733 186.565C237.843 186.565 238.843 186.75 239.733 187.12C240.633 187.49 241.393 188.015 242.013 188.695C242.643 189.375 243.123 190.2 243.453 191.17C243.793 192.13 243.963 193.205 243.963 194.395C243.963 195.595 243.793 196.675 243.453 197.635C243.123 198.595 242.643 199.415 242.013 200.095C241.393 200.775 240.633 201.3 239.733 201.67C238.843 202.03 237.843 202.21 236.733 202.21C235.623 202.21 234.618 202.03 233.718 201.67C232.828 201.3 232.068 200.775 231.438 200.095C230.808 199.415 230.323 198.595 229.983 197.635C229.643 196.675 229.473 195.595 229.473 194.395C229.473 193.205 229.643 192.13 229.983 191.17C230.323 190.2 230.808 189.375 231.438 188.695C232.068 188.015 232.828 187.49 233.718 187.12C234.618 186.75 235.623 186.565 236.733 186.565ZM236.733 200.125C238.233 200.125 239.353 199.625 240.093 198.625C240.833 197.615 241.203 196.21 241.203 194.41C241.203 192.6 240.833 191.19 240.093 190.18C239.353 189.17 238.233 188.665 236.733 188.665C235.973 188.665 235.313 188.795 234.753 189.055C234.193 189.315 233.723 189.69 233.343 190.18C232.973 190.67 232.693 191.275 232.503 191.995C232.323 192.705 232.233 193.51 232.233 194.41C232.233 195.31 232.323 196.115 232.503 196.825C232.693 197.535 232.973 198.135 233.343 198.625C233.723 199.105 234.193 199.475 234.753 199.735C235.313 199.995 235.973 200.125 236.733 200.125Z" fill="#882F87"/>
<path d="M39.796 96.72C39.052 96.72 38.512 96.432 38.176 95.856C37.864 95.256 37.672 94.44 37.6 93.408C37.528 92.376 37.492 91.2 37.492 89.88H30.652L27.808 96H23.812L35.656 72.24H40.264C40.456 77.112 40.6 81.192 40.696 84.48C40.792 87.744 40.924 90.264 41.092 92.04C41.284 93.792 41.596 94.848 42.028 95.208C41.908 95.64 41.632 96 41.2 96.288C40.768 96.576 40.3 96.72 39.796 96.72ZM31.84 87.396H37.492L37.204 74.724L31.84 87.396ZM50.8477 96.72C49.6477 96.72 48.6997 96.48 48.0037 96C47.3317 95.52 46.8517 94.884 46.5637 94.092C46.2997 93.276 46.1677 92.4 46.1677 91.464C46.1677 90.72 46.2637 89.784 46.4557 88.656C46.6477 87.528 46.9357 86.076 47.3197 84.3C47.7037 82.524 48.1957 80.304 48.7957 77.64L51.9277 77.28C51.3997 79.68 50.9677 81.66 50.6317 83.22C50.3197 84.756 50.0677 86.016 49.8757 87C49.7077 87.96 49.5877 88.752 49.5157 89.376C49.4677 89.976 49.4437 90.54 49.4437 91.068C49.4437 91.644 49.5157 92.208 49.6597 92.76C49.8277 93.288 50.1037 93.732 50.4877 94.092C50.8957 94.428 51.4357 94.596 52.1077 94.596C53.0197 94.596 53.7757 94.296 54.3757 93.696C54.9997 93.072 55.4917 92.292 55.8517 91.356C56.2357 90.42 56.5117 89.472 56.6797 88.512L58.8397 77.64L62.1157 77.28L59.1277 92.652C59.1037 92.868 59.0677 93.12 59.0197 93.408C58.9717 93.696 58.9477 93.948 58.9477 94.164C58.9477 94.5 59.0197 94.764 59.1637 94.956C59.3317 95.124 59.5717 95.22 59.8837 95.244C59.8117 95.58 59.6677 95.856 59.4517 96.072C59.2357 96.288 58.9837 96.444 58.6957 96.54C58.4077 96.66 58.0837 96.72 57.7237 96.72C57.0757 96.72 56.5597 96.54 56.1757 96.18C55.8157 95.844 55.5997 95.34 55.5277 94.668C55.0717 95.412 54.3877 95.94 53.4757 96.252C52.5877 96.564 51.7117 96.72 50.8477 96.72ZM66.3837 96.72C65.7117 96.72 65.1957 96.528 64.8357 96.144C64.4757 95.76 64.2957 95.244 64.2957 94.596C64.2957 94.404 64.3077 94.2 64.3317 93.984C64.3557 93.744 64.3917 93.42 64.4397 93.012C64.5117 92.604 64.6197 92.04 64.7637 91.32C64.9077 90.6 65.0877 89.676 65.3037 88.548C65.5437 87.396 65.8317 85.98 66.1677 84.3C66.5277 82.596 66.9477 80.568 67.4277 78.216C67.6677 76.872 67.8717 75.492 68.0397 74.076C68.2317 72.66 68.3277 71.472 68.3277 70.512C68.3277 70.248 68.3157 70.02 68.2917 69.828C68.2917 69.612 68.2677 69.42 68.2197 69.252C68.3637 69.132 68.5557 69.036 68.7957 68.964C69.0597 68.892 69.3357 68.856 69.6237 68.856C70.1757 68.856 70.7037 69.036 71.2077 69.396C71.7117 69.732 71.9637 70.356 71.9637 71.268C71.9637 71.436 71.9037 71.82 71.7837 72.42C71.6877 72.996 71.5557 73.68 71.3877 74.472C71.2437 75.264 71.0877 76.068 70.9197 76.884C70.7757 77.676 70.6437 78.372 70.5237 78.972C69.9237 81.876 69.4317 84.24 69.0477 86.064C68.6877 87.888 68.3997 89.328 68.1837 90.384C67.9917 91.416 67.8477 92.184 67.7517 92.688C67.6797 93.168 67.6317 93.504 67.6077 93.696C67.5837 93.864 67.5717 94.02 67.5717 94.164C67.5717 94.5 67.6437 94.764 67.7877 94.956C67.9557 95.124 68.1957 95.22 68.5077 95.244C68.4357 95.58 68.2917 95.856 68.0757 96.072C67.8597 96.288 67.6077 96.444 67.3197 96.54C67.0317 96.66 66.7197 96.72 66.3837 96.72ZM77.6343 96.72C76.4583 96.72 75.4983 96.432 74.7543 95.856C74.0343 95.256 73.5063 94.452 73.1703 93.444C72.8343 92.436 72.6663 91.284 72.6663 89.988C72.6663 88.212 72.8943 86.544 73.3503 84.984C73.8303 83.4 74.5023 82.008 75.3663 80.808C76.2303 79.584 77.2503 78.636 78.4263 77.964C79.6023 77.268 80.8863 76.92 82.2783 76.92C83.4303 76.92 84.6663 77.172 85.9863 77.676L89.1183 77.28L86.1663 92.652C86.1423 92.868 86.1063 93.12 86.0583 93.408C86.0103 93.696 85.9863 93.948 85.9863 94.164C85.9863 94.5 86.0583 94.764 86.2023 94.956C86.3703 95.124 86.6103 95.22 86.9223 95.244C86.8263 95.58 86.6703 95.856 86.4543 96.072C86.2383 96.288 85.9863 96.444 85.6983 96.54C85.4103 96.66 85.0863 96.72 84.7263 96.72C84.1023 96.72 83.5863 96.54 83.1783 96.18C82.7943 95.844 82.5903 95.34 82.5663 94.668C81.9423 95.268 81.2103 95.76 80.3703 96.144C79.5303 96.528 78.6183 96.72 77.6343 96.72ZM79.0743 94.596C80.0343 94.596 80.8143 94.284 81.4143 93.66C82.0383 93.012 82.5303 92.22 82.8903 91.284C83.2503 90.324 83.5143 89.4 83.6823 88.512L85.2303 80.304C84.7263 79.896 84.1863 79.596 83.6103 79.404C83.0343 79.188 82.5063 79.08 82.0263 79.08C81.2823 79.08 80.5983 79.272 79.9743 79.656C79.3743 80.04 78.8343 80.58 78.3543 81.276C77.8983 81.972 77.5023 82.8 77.1663 83.76C76.8543 84.696 76.6143 85.728 76.4463 86.856C76.3023 87.96 76.2303 89.112 76.2303 90.312C76.2303 91.512 76.4223 92.532 76.8063 93.372C77.2143 94.188 77.9703 94.596 79.0743 94.596ZM107.911 89.988C106.975 89.964 105.907 89.928 104.707 89.88C103.531 89.808 102.343 89.736 101.143 89.664C99.9428 89.592 98.8508 89.556 97.8668 89.556C97.4108 89.556 96.9908 89.58 96.6068 89.628C96.2468 89.652 95.9588 89.7 95.7428 89.772C95.4308 89.46 95.2748 89.028 95.2748 88.476C95.2748 88.14 95.3468 87.792 95.4908 87.432C95.6588 87.048 95.8388 86.736 96.0308 86.496C97.0388 85.272 98.0588 84 99.0908 82.68C100.123 81.336 101.083 80.004 101.971 78.684C102.883 77.34 103.639 76.068 104.239 74.868C104.863 73.668 105.247 72.588 105.391 71.628C105.655 71.556 105.823 71.52 105.895 71.52C106.279 71.52 106.639 71.784 106.975 72.312C107.335 72.84 107.491 73.428 107.443 74.076C107.395 75.084 107.059 76.152 106.435 77.28C105.835 78.408 105.079 79.548 104.167 80.7C103.279 81.828 102.355 82.908 101.395 83.94C100.435 84.972 99.5708 85.884 98.8028 86.676C100.123 86.796 101.335 86.832 102.439 86.784C103.567 86.712 104.647 86.676 105.679 86.676C106.495 86.676 107.275 86.664 108.019 86.64C108.787 86.616 109.495 86.58 110.143 86.532C110.815 86.46 111.391 86.4 111.871 86.352C112.375 86.28 112.747 86.208 112.987 86.136C113.107 86.304 113.203 86.52 113.275 86.784C113.371 87.048 113.419 87.3 113.419 87.54C113.419 88.308 113.179 88.872 112.699 89.232C112.219 89.568 111.571 89.784 110.755 89.88C109.939 89.952 108.991 89.988 107.911 89.988ZM106.471 96.324C106.135 96.324 105.847 96.252 105.607 96.108C105.367 95.964 105.187 95.76 105.067 95.496C104.947 95.232 104.887 94.908 104.887 94.524C104.887 94.38 104.923 94.092 104.995 93.66C105.067 93.228 105.151 92.772 105.247 92.292L107.011 83.724C107.779 82.644 108.439 81.612 108.991 80.628C109.567 79.644 110.011 78.78 110.323 78.036H111.295L107.695 96.072C107.503 96.168 107.311 96.228 107.119 96.252C106.927 96.3 106.711 96.324 106.471 96.324Z" fill="#882F87"/>
<path fill-rule="evenodd" clip-rule="evenodd" d="M182.749 47.9835C183.845 49.2266 185.74 49.3462 186.983 48.2507C188.226 47.1552 188.346 45.2595 187.251 44.0165L172.145 26.8765C172.416 26.9569 172.703 27 173 27L225 27C226.657 27 228 25.6569 228 24C228 22.3432 226.657 21 225 21L173 21C172.678 21 172.369 21.0507 172.078 21.1444L187.187 5.05355C188.321 3.8457 188.261 1.94715 187.053 0.813009C185.846 -0.321131 183.947 -0.261378 182.813 0.94647L166.057 18.791C163.362 21.6095 163.329 25.948 165.876 28.8379L182.749 47.9835ZM170.014 23.7107C170.003 23.7882 169.998 23.8668 170 23.9455C170.002 23.8664 170.006 23.7881 170.014 23.7107Z" fill="#AB74AE"/>
<path d="M350.235 53.289C350.235 52.6607 349.725 52.1515 349.097 52.1515H337.267V59.3316H308.811V52.1516H296.981C296.353 52.1516 295.844 52.6609 295.844 53.2891V124.676C295.844 125.304 296.353 125.814 296.981 125.814H349.097C349.725 125.814 350.235 125.304 350.235 124.676V53.289Z" fill="#AB74AE"/>
<path d="M330.037 121.858C333.753 121.858 336.765 118.846 336.765 115.131V113.616C336.765 112.914 337.334 112.344 338.037 112.344H339.552C343.267 112.344 346.279 109.332 346.279 105.616V57.3779C346.279 56.6758 345.71 56.1066 345.008 56.1066H337.267V59.3315H308.811V56.1067H301.07C300.368 56.1067 299.799 56.6759 299.799 57.378V120.587C299.799 121.289 300.368 121.859 301.07 121.859L330.037 121.858Z" fill="#E5E3F0"/>
<path d="M337.267 59.3315H308.812V61.668C308.812 62.682 309.633 63.5038 310.647 63.5038H335.431C336.445 63.5038 337.267 62.682 337.267 61.668V59.3315Z" fill="#CDACCE"/>
<path d="M336.349 51.2337H327.82C327.433 51.2337 327.096 50.9564 327.033 50.5737C326.718 48.6524 325.05 47.1865 323.039 47.1865C321.029 47.1865 319.361 48.6524 319.046 50.5737C318.983 50.9564 318.646 51.2337 318.258 51.2337H309.729C309.223 51.2337 308.812 51.6447 308.812 52.1516V59.3316H337.267V52.1517C337.267 51.6447 336.856 51.2337 336.349 51.2337Z" fill="#CDACCE"/>
<path d="M326.843 59.3315C325.693 59.9738 324.368 60.3399 322.957 60.3399H308.812V61.6682C308.812 62.6821 309.633 63.504 310.647 63.504H335.431C336.445 63.504 337.267 62.6821 337.267 61.6682V59.3315H326.843Z" fill="#CDACCE"/>
<path d="M336.349 51.2338H330.938V52.3581C330.938 55.3556 329.286 57.9671 326.843 59.3317H337.267V52.1518C337.267 51.6448 336.856 51.2338 336.349 51.2338Z" fill="#CDACCE"/>
<path d="M346.279 105.617C346.279 109.924 344.568 114.055 341.522 117.101C338.476 120.147 334.345 121.859 330.037 121.859C333.753 121.859 336.765 118.847 336.765 115.131V113.871C336.765 113.028 337.448 112.344 338.291 112.344H339.551C343.267 112.344 346.279 109.332 346.279 105.617Z" fill="#E5E3F0"/>
<path d="M345.008 56.1068H339.951V102.453C339.951 106.168 336.939 109.18 333.224 109.18C331.685 109.18 330.437 110.428 330.437 111.967C330.437 115.682 327.425 118.694 323.709 118.694H299.799V120.587C299.799 121.289 300.368 121.859 301.07 121.859H330.037C333.753 121.859 336.765 118.847 336.765 115.131V113.616C336.765 112.914 337.334 112.344 338.037 112.344H339.552C343.267 112.344 346.279 109.332 346.279 105.617V57.378C346.279 56.6759 345.71 56.1068 345.008 56.1068Z" fill="#E5E3F0"/>
<path d="M330.373 72.5289H326.156C325.921 72.5289 325.73 72.3381 325.73 72.1025V67.8855C325.73 67.6501 325.539 67.4591 325.304 67.4591H320.774C320.539 67.4591 320.348 67.6499 320.348 67.8855V72.1025C320.348 72.3379 320.157 72.5289 319.921 72.5289H315.705C315.469 72.5289 315.278 72.7197 315.278 72.9553V77.4848C315.278 77.7202 315.469 77.9111 315.705 77.9111H319.922C320.157 77.9111 320.348 78.1019 320.348 78.3375V82.5546C320.348 82.79 320.539 82.9809 320.774 82.9809H325.304C325.539 82.9809 325.73 82.7901 325.73 82.5546V78.3375C325.73 78.1021 325.921 77.9111 326.157 77.9111H330.374C330.609 77.9111 330.8 77.7203 330.8 77.4848V72.9553C330.8 72.7197 330.609 72.5289 330.373 72.5289Z" fill="#AB74AE"/>
<path d="M311.254 93.2054H307.235C306.962 93.2054 306.741 92.9844 306.741 92.7117V88.6924C306.741 88.4196 306.962 88.1986 307.235 88.1986H311.254C311.527 88.1986 311.748 88.4196 311.748 88.6924V92.7117C311.748 92.9843 311.527 93.2054 311.254 93.2054Z" fill="#AB74AE"/>
<path d="M311.254 103.97H307.235C306.962 103.97 306.741 103.749 306.741 103.476V99.4571C306.741 99.1844 306.962 98.9634 307.235 98.9634H311.254C311.527 98.9634 311.748 99.1844 311.748 99.4571V103.476C311.748 103.749 311.527 103.97 311.254 103.97Z" fill="#AB74AE"/>
<path d="M311.254 114.735H307.235C306.962 114.735 306.741 114.514 306.741 114.241V110.222C306.741 109.949 306.962 109.728 307.235 109.728H311.254C311.527 109.728 311.748 109.949 311.748 110.222V114.241C311.748 114.514 311.527 114.735 311.254 114.735Z" fill="#AB74AE"/>
<path d="M323.039 52.4202C323.694 52.4202 324.226 51.8889 324.226 51.2336C324.226 50.5783 323.694 50.0471 323.039 50.0471C322.384 50.0471 321.853 50.5783 321.853 51.2336C321.853 51.8889 322.384 52.4202 323.039 52.4202Z" fill="#882F87"/>
<path d="M351.421 124.676V53.2891C351.421 52.0076 350.378 50.9652 349.097 50.9652H338.086C337.707 50.4113 337.07 50.0472 336.349 50.0472H328.138C327.593 47.6827 325.501 46 323.039 46C320.578 46 318.485 47.6825 317.94 50.0472H309.729C309.008 50.0472 308.371 50.4113 307.992 50.9652H296.981C295.7 50.9652 294.657 52.0078 294.657 53.2891V101.389C294.657 102.045 295.188 102.576 295.844 102.576C296.499 102.576 297.03 102.045 297.03 101.389V53.3383H307.625V54.9203H301.07C299.715 54.9203 298.612 56.0228 298.612 57.378V120.587C298.612 121.943 299.715 123.045 301.07 123.045H330.038C334.693 123.045 339.07 121.232 342.361 117.94C345.653 114.649 347.466 110.272 347.466 105.617V72.4255C347.466 71.77 346.935 71.2389 346.279 71.2389C345.624 71.2389 345.093 71.77 345.093 72.4255V105.617C345.093 108.672 342.607 111.158 339.552 111.158H338.037C337.699 111.158 337.376 111.226 337.082 111.351H316.066C315.411 111.351 314.879 111.882 314.879 112.537C314.879 113.193 315.411 113.724 316.066 113.724H335.579V115.131C335.579 118.186 333.093 120.672 330.038 120.672H301.07C301.023 120.672 300.986 120.634 300.986 120.587V57.378C300.986 57.3313 301.023 57.2934 301.07 57.2934H307.625V61.6682C307.625 63.3347 308.98 64.6905 310.647 64.6905H335.431C337.098 64.6905 338.453 63.3347 338.453 61.6682V57.2934H345.008C345.055 57.2934 345.093 57.3313 345.093 57.378V72.3421C345.093 72.9976 345.624 73.5287 346.279 73.5287C346.935 73.5287 347.466 72.9976 347.466 72.3421V57.378C347.466 56.0228 346.363 54.9203 345.008 54.9203H338.453V53.3383H349.048V124.627H297.03L297.03 100.294C297.03 99.6382 296.499 99.1071 295.844 99.1071C295.188 99.1071 294.657 99.6382 294.657 100.294L294.657 124.676C294.657 125.958 295.7 127 296.981 127H349.097C350.379 127 351.421 125.958 351.421 124.676ZM337.952 115.131V113.616C337.952 113.569 337.99 113.531 338.037 113.531H339.552C340.959 113.531 342.282 113.161 343.428 112.515C341.999 115.281 339.704 117.577 336.936 119.007C337.582 117.861 337.952 116.538 337.952 115.131ZM336.08 58.1453H317.876C317.221 58.1453 316.689 58.6764 316.689 59.3318C316.689 59.9872 317.221 60.5183 317.876 60.5183H336.08V61.6683C336.08 62.0265 335.789 62.3176 335.431 62.3176H310.647C310.289 62.3176 309.998 62.0263 309.998 61.6683V60.5183H319.03C319.685 60.5183 320.216 59.9872 320.216 59.3318C320.216 58.6764 319.685 58.1453 319.03 58.1453H309.998C309.998 50.3063 309.998 57.138 309.998 52.4202H318.258C319.236 52.4202 320.059 51.7244 320.216 50.7657C320.444 49.3792 321.631 48.3731 323.039 48.3731C324.447 48.3731 325.634 49.3792 325.862 50.7656C326.019 51.7244 326.842 52.4202 327.82 52.4202H336.08V58.1453Z" fill="#882F87"/>
<path d="M325.304 66.2726H320.774C319.885 66.2726 319.161 66.996 319.161 67.8855V71.3422H315.705C314.815 71.3422 314.092 72.0657 314.092 72.9551V77.4846C314.092 78.3739 314.815 79.0973 315.705 79.0973H319.161V82.5541C319.161 83.4435 319.885 84.167 320.774 84.167H325.304C326.193 84.167 326.916 83.4435 326.916 82.5541V79.0973H330.373C331.263 79.0973 331.986 78.3739 331.986 77.4846V72.9551C331.986 72.0657 331.263 71.3422 330.373 71.3422H326.916V67.8855C326.916 66.996 326.193 66.2726 325.304 66.2726ZM329.613 73.7153V76.7244H326.156C325.267 76.7244 324.543 77.4479 324.543 78.3372V81.7941H321.534V78.3372C321.534 77.4479 320.811 76.7244 319.921 76.7244H316.465V73.7153H319.921C320.811 73.7153 321.534 72.9918 321.534 72.1025V68.6456H324.543V72.1025C324.543 72.9918 325.267 73.7153 326.156 73.7153H329.613Z" fill="#882F87"/>
<path d="M312.935 88.6924C312.935 87.7659 312.181 87.0121 311.254 87.0121H307.235C306.309 87.0121 305.555 87.7659 305.555 88.6924V92.7117C305.555 93.6381 306.309 94.392 307.235 94.392H311.254C312.181 94.392 312.935 93.6381 312.935 92.7117V88.6924ZM310.562 92.0191H307.928V89.3853H310.562V92.0191Z" fill="#882F87"/>
<path d="M312.935 99.4571C312.935 98.5307 312.181 97.7769 311.254 97.7769H307.235C306.309 97.7769 305.555 98.5307 305.555 99.4571V103.476C305.555 104.403 306.309 105.157 307.235 105.157H311.254C312.181 105.157 312.935 104.403 312.935 103.476V99.4571ZM310.562 102.784H307.928V100.15H310.562V102.784Z" fill="#882F87"/>
<path d="M311.254 108.542H307.235C306.309 108.542 305.555 109.295 305.555 110.222V114.241C305.555 115.168 306.309 115.921 307.235 115.921H311.254C312.181 115.921 312.935 115.168 312.935 114.241V110.222C312.935 109.295 312.181 108.542 311.254 108.542ZM310.562 113.548H307.928V110.915H310.562V113.548Z" fill="#882F87"/>
<path d="M339.338 89.3689H316.066C315.411 89.3689 314.88 89.9 314.88 90.5554C314.88 91.2109 315.411 91.7419 316.066 91.7419H339.338C339.993 91.7419 340.524 91.2109 340.524 90.5554C340.524 89.9 339.993 89.3689 339.338 89.3689Z" fill="#882F87"/>
<path d="M339.338 100.36H316.066C315.411 100.36 314.88 100.891 314.88 101.546C314.88 102.202 315.411 102.733 316.066 102.733H339.338C339.993 102.733 340.524 102.202 340.524 101.546C340.524 100.891 339.993 100.36 339.338 100.36Z" fill="#882F87"/>
</svg>
