<svg width="395" height="112" viewBox="0 0 395 112" fill="none" xmlns="http://www.w3.org/2000/svg">
<rect opacity="0.5" width="395" height="112" rx="56" fill="#E5E3F0"/>
<path opacity="0.8" d="M46.172 71.756C43.892 71.756 42.152 71.024 40.952 69.56C39.776 68.096 39.188 65.984 39.188 63.224C39.188 61.832 39.332 60.368 39.62 58.832C39.932 57.272 40.4 55.772 41.024 54.332C41.648 52.868 42.428 51.548 43.364 50.372C44.3 49.196 45.404 48.26 46.676 47.564C47.948 46.868 49.388 46.52 50.996 46.52C51.884 46.52 52.676 46.64 53.372 46.88C54.068 47.096 54.656 47.42 55.136 47.852C55.64 48.26 56.012 48.764 56.252 49.364C56.516 49.964 56.648 50.636 56.648 51.38C56.648 52.124 56.516 52.748 56.252 53.252C56.012 53.756 55.676 54.128 55.244 54.368C54.836 54.608 54.38 54.728 53.876 54.728C53.54 54.728 53.192 54.68 52.832 54.584C52.496 54.464 52.244 54.284 52.076 54.044C52.268 53.636 52.412 53.18 52.508 52.676C52.628 52.148 52.688 51.728 52.688 51.416C52.688 50.888 52.58 50.456 52.364 50.12C52.148 49.784 51.848 49.532 51.464 49.364C51.08 49.172 50.624 49.076 50.096 49.076C49.088 49.076 48.188 49.4 47.396 50.048C46.628 50.672 45.968 51.512 45.416 52.568C44.864 53.624 44.408 54.776 44.048 56.024C43.688 57.272 43.424 58.52 43.256 59.768C43.088 60.992 43.004 62.096 43.004 63.08C43.004 64.064 43.1 64.988 43.292 65.852C43.508 66.716 43.88 67.412 44.408 67.94C44.96 68.468 45.74 68.732 46.748 68.732C48.092 68.732 49.184 68.288 50.024 67.4C50.888 66.512 51.632 65.468 52.256 64.268C52.664 64.46 52.964 64.688 53.156 64.952C53.348 65.192 53.444 65.588 53.444 66.14C53.444 67.004 53.216 67.784 52.76 68.48C52.328 69.176 51.752 69.764 51.032 70.244C50.336 70.724 49.556 71.096 48.692 71.36C47.852 71.624 47.012 71.756 46.172 71.756ZM63.4152 71.72C62.1672 71.72 61.1592 71.516 60.3912 71.108C59.6232 70.7 59.0352 70.184 58.6272 69.56C58.2432 68.912 57.9792 68.24 57.8352 67.544C57.7152 66.824 57.6552 66.176 57.6552 65.6C57.6552 63.992 57.8352 62.384 58.1952 60.776C58.5792 59.168 59.1552 57.692 59.9232 56.348C60.7152 55.004 61.7352 53.936 62.9832 53.144C64.2552 52.328 65.7912 51.92 67.5912 51.92C68.8632 51.92 69.8712 52.124 70.6152 52.532C71.3832 52.94 71.9712 53.468 72.3792 54.116C72.7872 54.74 73.0512 55.412 73.1712 56.132C73.3152 56.828 73.3872 57.464 73.3872 58.04C73.3872 59.648 73.1952 61.268 72.8112 62.9C72.4512 64.508 71.8752 65.984 71.0832 67.328C70.2912 68.648 69.2592 69.716 67.9872 70.532C66.7392 71.324 65.2152 71.72 63.4152 71.72ZM64.1352 69.56C64.9032 69.56 65.5872 69.332 66.1872 68.876C66.8112 68.42 67.3512 67.808 67.8072 67.04C68.2632 66.248 68.6352 65.36 68.9232 64.376C69.2352 63.392 69.4632 62.372 69.6072 61.316C69.7512 60.236 69.8232 59.18 69.8232 58.148C69.8232 56.972 69.6072 56 69.1752 55.232C68.7672 54.464 68.0112 54.08 66.9072 54.08C66.1392 54.08 65.4432 54.308 64.8192 54.764C64.1952 55.22 63.6552 55.832 63.1992 56.6C62.7432 57.368 62.3592 58.244 62.0472 59.228C61.7592 60.212 61.5432 61.244 61.3992 62.324C61.2552 63.404 61.1832 64.46 61.1832 65.492C61.1832 66.668 61.3992 67.64 61.8312 68.408C62.2632 69.176 63.0312 69.56 64.1352 69.56ZM88.7431 71.72C88.1191 71.72 87.6271 71.528 87.2671 71.144C86.9071 70.784 86.7271 70.16 86.7271 69.272C86.7271 68.744 86.7991 68.06 86.9431 67.22C87.1111 66.356 87.3031 65.444 87.5191 64.484C87.7591 63.5 87.9871 62.54 88.2031 61.604C88.4191 60.644 88.5991 59.792 88.7431 59.048C88.9111 58.28 88.9951 57.704 88.9951 57.32C88.9951 56.432 88.7551 55.772 88.2751 55.34C87.8191 54.908 87.2311 54.692 86.5111 54.692C85.5031 54.692 84.6391 55.028 83.9191 55.7C83.2231 56.348 82.6591 57.176 82.2271 58.184C81.7951 59.192 81.4711 60.2 81.2551 61.208L79.3471 71L76.0351 71.36L79.6711 52.64L82.4791 52.28L82.0831 55.448C82.7311 54.32 83.5831 53.456 84.6391 52.856C85.7191 52.232 86.8231 51.92 87.9511 51.92C89.3911 51.92 90.4711 52.316 91.1911 53.108C91.9351 53.9 92.3071 54.956 92.3071 56.276C92.3071 56.948 92.2231 57.752 92.0551 58.688C91.9111 59.6 91.7191 60.572 91.4791 61.604C91.2631 62.636 91.0351 63.644 90.7951 64.628C90.5791 65.612 90.3871 66.5 90.2191 67.292C90.0751 68.06 90.0031 68.648 90.0031 69.056C90.0031 69.368 90.0511 69.632 90.1471 69.848C90.2671 70.064 90.5311 70.196 90.9391 70.244C90.8191 70.748 90.5551 71.12 90.1471 71.36C89.7391 71.6 89.2711 71.72 88.7431 71.72ZM108.009 71.72C107.385 71.72 106.893 71.528 106.533 71.144C106.173 70.784 105.993 70.16 105.993 69.272C105.993 68.744 106.065 68.06 106.209 67.22C106.377 66.356 106.569 65.444 106.785 64.484C107.025 63.5 107.253 62.54 107.469 61.604C107.685 60.644 107.865 59.792 108.009 59.048C108.177 58.28 108.261 57.704 108.261 57.32C108.261 56.432 108.021 55.772 107.541 55.34C107.085 54.908 106.497 54.692 105.777 54.692C104.769 54.692 103.905 55.028 103.185 55.7C102.489 56.348 101.925 57.176 101.493 58.184C101.061 59.192 100.737 60.2 100.521 61.208L98.6128 71L95.3008 71.36L98.4688 54.98L101.025 55.844C101.721 54.62 102.585 53.66 103.617 52.964C104.673 52.268 105.861 51.92 107.181 51.92C108.645 51.92 109.737 52.316 110.457 53.108C111.201 53.9 111.573 54.956 111.573 56.276C111.573 56.948 111.489 57.752 111.321 58.688C111.177 59.6 110.985 60.572 110.745 61.604C110.529 62.636 110.301 63.644 110.061 64.628C109.845 65.612 109.653 66.5 109.485 67.292C109.341 68.06 109.269 68.648 109.269 69.056C109.269 69.368 109.317 69.632 109.413 69.848C109.533 70.064 109.797 70.196 110.205 70.244C110.085 70.748 109.821 71.12 109.413 71.36C109.005 71.6 108.537 71.72 108.009 71.72ZM101.061 56.276L98.3608 55.52C98.5528 54.536 98.7448 53.432 98.9368 52.208C99.1528 50.96 99.3328 49.748 99.4768 48.572C99.6208 47.372 99.6928 46.352 99.6928 45.512C99.6928 45.248 99.6808 45.02 99.6568 44.828C99.6568 44.612 99.6328 44.42 99.5848 44.252C99.7288 44.132 99.9208 44.036 100.161 43.964C100.425 43.892 100.701 43.856 100.989 43.856C101.541 43.856 102.069 44.036 102.573 44.396C103.077 44.732 103.329 45.356 103.329 46.268C103.329 46.556 103.269 47.024 103.149 47.672C103.053 48.32 102.909 49.052 102.717 49.868C102.549 50.684 102.357 51.512 102.141 52.352C101.949 53.192 101.757 53.96 101.565 54.656C101.373 55.352 101.205 55.892 101.061 56.276ZM120.866 71.72C119.522 71.72 118.37 71.468 117.41 70.964C116.474 70.436 115.754 69.656 115.25 68.624C114.77 67.592 114.53 66.284 114.53 64.7C114.53 63.188 114.734 61.676 115.142 60.164C115.55 58.652 116.162 57.284 116.978 56.06C117.794 54.812 118.826 53.816 120.074 53.072C121.346 52.304 122.834 51.92 124.538 51.92C125.45 51.92 126.254 52.052 126.95 52.316C127.646 52.58 128.186 53.012 128.57 53.612C128.978 54.188 129.182 54.968 129.182 55.952C129.182 57.392 128.75 58.604 127.886 59.588C127.022 60.572 125.894 61.304 124.502 61.784C123.134 62.264 121.67 62.492 120.11 62.468C119.798 62.468 119.45 62.456 119.066 62.432C118.682 62.408 118.382 62.384 118.166 62.36C118.142 62.792 118.118 63.212 118.094 63.62C118.07 64.004 118.058 64.352 118.058 64.664C118.058 66.056 118.298 67.148 118.778 67.94C119.258 68.708 120.158 69.092 121.478 69.092C122.558 69.092 123.482 68.828 124.25 68.3C125.042 67.772 125.666 67.04 126.122 66.104C126.458 66.152 126.686 66.332 126.806 66.644C126.926 66.932 126.986 67.22 126.986 67.508C126.986 68.132 126.758 68.768 126.302 69.416C125.87 70.064 125.198 70.604 124.286 71.036C123.398 71.492 122.258 71.72 120.866 71.72ZM118.418 60.56C119.234 60.56 120.062 60.488 120.902 60.344C121.742 60.176 122.522 59.924 123.242 59.588C123.962 59.252 124.538 58.796 124.97 58.22C125.426 57.644 125.654 56.948 125.654 56.132C125.654 55.412 125.474 54.884 125.114 54.548C124.778 54.188 124.298 54.008 123.674 54.008C122.93 54.008 122.246 54.236 121.622 54.692C121.022 55.148 120.506 55.724 120.074 56.42C119.642 57.116 119.282 57.836 118.994 58.58C118.73 59.324 118.538 59.984 118.418 60.56ZM136.43 71.72C134.39 71.72 132.89 71.132 131.93 69.956C130.994 68.78 130.526 67.028 130.526 64.7C130.526 63.188 130.718 61.688 131.102 60.2C131.51 58.688 132.11 57.308 132.902 56.06C133.718 54.812 134.738 53.816 135.962 53.072C137.186 52.304 138.626 51.92 140.282 51.92C141.242 51.92 142.082 52.064 142.802 52.352C143.546 52.64 144.122 53.06 144.53 53.612C144.938 54.164 145.142 54.848 145.142 55.664C145.142 56.696 144.854 57.464 144.278 57.968C143.726 58.448 143.114 58.688 142.442 58.688C142.202 58.688 141.938 58.652 141.65 58.58C141.362 58.508 141.134 58.364 140.966 58.148C141.086 57.812 141.194 57.44 141.29 57.032C141.386 56.624 141.434 56.264 141.434 55.952C141.434 55.328 141.278 54.86 140.966 54.548C140.654 54.212 140.198 54.044 139.598 54.044C138.854 54.044 138.182 54.284 137.582 54.764C136.982 55.244 136.454 55.88 135.998 56.672C135.566 57.464 135.194 58.328 134.882 59.264C134.594 60.2 134.378 61.136 134.234 62.072C134.09 63.008 134.018 63.848 134.018 64.592C134.018 65.816 134.258 66.872 134.738 67.76C135.242 68.648 136.142 69.092 137.438 69.092C138.566 69.092 139.49 68.756 140.21 68.084C140.93 67.388 141.446 66.524 141.758 65.492C142.19 65.588 142.502 65.804 142.694 66.14C142.886 66.452 142.982 66.824 142.982 67.256C142.982 68.024 142.706 68.756 142.154 69.452C141.602 70.124 140.834 70.664 139.85 71.072C138.89 71.504 137.75 71.72 136.43 71.72ZM135.494 80.072C134.606 80.072 133.886 79.928 133.334 79.64C132.782 79.352 132.506 78.932 132.506 78.38C132.506 78.188 132.542 77.984 132.614 77.768C132.71 77.576 132.854 77.42 133.046 77.3C133.238 77.612 133.526 77.852 133.91 78.02C134.294 78.188 134.738 78.272 135.242 78.272C135.626 78.272 136.034 78.224 136.466 78.128C136.922 78.056 137.306 77.888 137.618 77.624C137.93 77.36 138.086 76.988 138.086 76.508C138.086 75.908 137.786 75.5 137.186 75.284C136.586 75.092 135.878 74.996 135.062 74.996C134.846 74.996 134.63 74.996 134.414 74.996C134.222 75.02 134.018 75.044 133.802 75.068L135.134 70.604H136.682L135.854 73.448C136.022 73.424 136.25 73.4 136.538 73.376C136.85 73.376 137.114 73.376 137.33 73.376C138.314 73.376 139.13 73.58 139.778 73.988C140.45 74.396 140.786 75.08 140.786 76.04C140.786 76.808 140.546 77.492 140.066 78.092C139.61 78.716 138.986 79.196 138.194 79.532C137.402 79.892 136.502 80.072 135.494 80.072ZM151.314 71.72C150.138 71.72 149.178 71.432 148.434 70.856C147.714 70.256 147.186 69.452 146.85 68.444C146.514 67.436 146.346 66.284 146.346 64.988C146.346 63.212 146.574 61.544 147.03 59.984C147.51 58.4 148.182 57.008 149.046 55.808C149.91 54.584 150.93 53.636 152.106 52.964C153.282 52.268 154.566 51.92 155.958 51.92C157.11 51.92 158.346 52.172 159.666 52.676L162.798 52.28L159.846 67.652C159.822 67.868 159.786 68.12 159.738 68.408C159.69 68.696 159.666 68.948 159.666 69.164C159.666 69.5 159.738 69.764 159.882 69.956C160.05 70.124 160.29 70.22 160.602 70.244C160.506 70.58 160.35 70.856 160.134 71.072C159.918 71.288 159.666 71.444 159.378 71.54C159.09 71.66 158.766 71.72 158.406 71.72C157.782 71.72 157.266 71.54 156.858 71.18C156.474 70.844 156.27 70.34 156.246 69.668C155.622 70.268 154.89 70.76 154.05 71.144C153.21 71.528 152.298 71.72 151.314 71.72ZM152.754 69.596C153.714 69.596 154.494 69.284 155.094 68.66C155.718 68.012 156.21 67.22 156.57 66.284C156.93 65.324 157.194 64.4 157.362 63.512L158.91 55.304C158.406 54.896 157.866 54.596 157.29 54.404C156.714 54.188 156.186 54.08 155.706 54.08C154.962 54.08 154.278 54.272 153.654 54.656C153.054 55.04 152.514 55.58 152.034 56.276C151.578 56.972 151.182 57.8 150.846 58.76C150.534 59.696 150.294 60.728 150.126 61.856C149.982 62.96 149.91 64.112 149.91 65.312C149.91 66.512 150.102 67.532 150.486 68.372C150.894 69.188 151.65 69.596 152.754 69.596ZM176.443 71.72C175.195 71.72 174.187 71.516 173.419 71.108C172.651 70.7 172.063 70.184 171.655 69.56C171.271 68.912 171.007 68.24 170.863 67.544C170.743 66.824 170.683 66.176 170.683 65.6C170.683 63.992 170.863 62.384 171.223 60.776C171.607 59.168 172.183 57.692 172.951 56.348C173.743 55.004 174.763 53.936 176.011 53.144C177.283 52.328 178.819 51.92 180.619 51.92C181.891 51.92 182.899 52.124 183.643 52.532C184.411 52.94 184.999 53.468 185.407 54.116C185.815 54.74 186.079 55.412 186.199 56.132C186.343 56.828 186.415 57.464 186.415 58.04C186.415 59.648 186.223 61.268 185.839 62.9C185.479 64.508 184.903 65.984 184.111 67.328C183.319 68.648 182.287 69.716 181.015 70.532C179.767 71.324 178.243 71.72 176.443 71.72ZM177.163 69.56C177.931 69.56 178.615 69.332 179.215 68.876C179.839 68.42 180.379 67.808 180.835 67.04C181.291 66.248 181.663 65.36 181.951 64.376C182.263 63.392 182.491 62.372 182.635 61.316C182.779 60.236 182.851 59.18 182.851 58.148C182.851 56.972 182.635 56 182.203 55.232C181.795 54.464 181.039 54.08 179.935 54.08C179.167 54.08 178.471 54.308 177.847 54.764C177.223 55.22 176.683 55.832 176.227 56.6C175.771 57.368 175.387 58.244 175.075 59.228C174.787 60.212 174.571 61.244 174.427 62.324C174.283 63.404 174.211 64.46 174.211 65.492C174.211 66.668 174.427 67.64 174.859 68.408C175.291 69.176 176.059 69.56 177.163 69.56ZM200.555 71.72C198.515 71.72 197.015 71.132 196.055 69.956C195.119 68.78 194.651 67.028 194.651 64.7C194.651 63.188 194.843 61.688 195.227 60.2C195.635 58.688 196.235 57.308 197.027 56.06C197.843 54.812 198.863 53.816 200.087 53.072C201.311 52.304 202.751 51.92 204.407 51.92C205.367 51.92 206.207 52.064 206.927 52.352C207.671 52.64 208.247 53.06 208.655 53.612C209.063 54.164 209.267 54.848 209.267 55.664C209.267 56.696 208.979 57.464 208.403 57.968C207.851 58.448 207.239 58.688 206.567 58.688C206.327 58.688 206.063 58.652 205.775 58.58C205.487 58.508 205.259 58.364 205.091 58.148C205.211 57.812 205.319 57.44 205.415 57.032C205.511 56.624 205.559 56.264 205.559 55.952C205.559 55.328 205.403 54.86 205.091 54.548C204.779 54.212 204.323 54.044 203.723 54.044C202.979 54.044 202.307 54.284 201.707 54.764C201.107 55.244 200.579 55.88 200.123 56.672C199.691 57.464 199.319 58.328 199.007 59.264C198.719 60.2 198.503 61.136 198.359 62.072C198.215 63.008 198.143 63.848 198.143 64.592C198.143 65.816 198.383 66.872 198.863 67.76C199.367 68.648 200.267 69.092 201.563 69.092C202.691 69.092 203.615 68.756 204.335 68.084C205.055 67.388 205.571 66.524 205.883 65.492C206.315 65.588 206.627 65.804 206.819 66.14C207.011 66.452 207.107 66.824 207.107 67.256C207.107 68.024 206.831 68.756 206.279 69.452C205.727 70.124 204.959 70.664 203.975 71.072C203.015 71.504 201.875 71.72 200.555 71.72ZM215.547 71.72C214.347 71.72 213.399 71.48 212.703 71C212.031 70.52 211.551 69.884 211.263 69.092C210.999 68.276 210.867 67.4 210.867 66.464C210.867 65.72 210.963 64.784 211.155 63.656C211.347 62.528 211.635 61.076 212.019 59.3C212.403 57.524 212.895 55.304 213.495 52.64L216.627 52.28C216.099 54.68 215.667 56.66 215.331 58.22C215.019 59.756 214.767 61.016 214.575 62C214.407 62.96 214.287 63.752 214.215 64.376C214.167 64.976 214.143 65.54 214.143 66.068C214.143 66.644 214.215 67.208 214.359 67.76C214.527 68.288 214.803 68.732 215.187 69.092C215.595 69.428 216.135 69.596 216.807 69.596C217.719 69.596 218.475 69.296 219.075 68.696C219.699 68.072 220.191 67.292 220.551 66.356C220.935 65.42 221.211 64.472 221.379 63.512L223.539 52.64L226.815 52.28L223.827 67.652C223.803 67.868 223.767 68.12 223.719 68.408C223.671 68.696 223.647 68.948 223.647 69.164C223.647 69.5 223.719 69.764 223.863 69.956C224.031 70.124 224.271 70.22 224.583 70.244C224.511 70.58 224.367 70.856 224.151 71.072C223.935 71.288 223.683 71.444 223.395 71.54C223.107 71.66 222.783 71.72 222.423 71.72C221.775 71.72 221.259 71.54 220.875 71.18C220.515 70.844 220.299 70.34 220.227 69.668C219.771 70.412 219.087 70.94 218.175 71.252C217.287 71.564 216.411 71.72 215.547 71.72ZM229.211 71.36L232.775 52.64L235.583 52.28L235.187 55.448C235.619 54.464 236.291 53.636 237.203 52.964C238.115 52.268 239.111 51.92 240.191 51.92C241.319 51.92 242.123 52.268 242.603 52.964C243.083 53.66 243.323 54.464 243.323 55.376C243.323 56.48 243.023 57.452 242.423 58.292C241.847 59.132 241.079 59.552 240.119 59.552C239.879 59.552 239.615 59.504 239.327 59.408C239.063 59.312 238.859 59.144 238.715 58.904C238.979 58.544 239.195 58.112 239.363 57.608C239.555 57.08 239.651 56.6 239.651 56.168C239.651 55.688 239.531 55.328 239.291 55.088C239.075 54.824 238.739 54.692 238.283 54.692C237.635 54.692 237.083 54.932 236.627 55.412C236.171 55.868 235.799 56.444 235.511 57.14C235.223 57.836 234.983 58.556 234.791 59.3C234.623 60.02 234.491 60.632 234.395 61.136L232.631 71L229.211 71.36ZM248.163 71.792C247.467 71.792 246.771 71.708 246.075 71.54C245.403 71.396 244.791 71.168 244.239 70.856C243.687 70.544 243.243 70.16 242.907 69.704C242.595 69.224 242.439 68.684 242.439 68.084C242.439 67.388 242.619 66.86 242.979 66.5C243.339 66.116 243.759 65.852 244.239 65.708C244.719 65.54 245.139 65.456 245.499 65.456C245.715 65.456 245.919 65.48 246.111 65.528C246.327 65.576 246.495 65.684 246.615 65.852C246.495 66.164 246.375 66.464 246.255 66.752C246.159 67.04 246.111 67.364 246.111 67.724C246.111 68.324 246.351 68.816 246.831 69.2C247.311 69.56 247.959 69.74 248.775 69.74C249.687 69.74 250.455 69.488 251.079 68.984C251.703 68.48 252.015 67.82 252.015 67.004C252.015 66.38 251.871 65.828 251.583 65.348C251.295 64.868 250.911 64.436 250.431 64.052C249.975 63.644 249.483 63.248 248.955 62.864C248.307 62.408 247.671 61.928 247.047 61.424C246.423 60.92 245.895 60.344 245.463 59.696C245.055 59.024 244.851 58.22 244.851 57.284C244.851 56.42 245.067 55.652 245.499 54.98C245.931 54.308 246.495 53.744 247.191 53.288C247.911 52.832 248.703 52.496 249.567 52.28C250.431 52.04 251.295 51.92 252.159 51.92C252.927 51.92 253.695 52.028 254.463 52.244C255.231 52.436 255.867 52.784 256.371 53.288C256.875 53.768 257.127 54.44 257.127 55.304C257.127 56.216 256.839 56.924 256.263 57.428C255.711 57.932 255.135 58.184 254.535 58.184C254.319 58.184 254.067 58.16 253.779 58.112C253.515 58.064 253.287 57.956 253.095 57.788C253.263 57.452 253.395 57.128 253.491 56.816C253.587 56.48 253.635 56.144 253.635 55.808C253.635 55.208 253.407 54.752 252.951 54.44C252.519 54.128 251.919 53.972 251.151 53.972C250.311 53.972 249.603 54.2 249.027 54.656C248.451 55.088 248.163 55.7 248.163 56.492C248.163 57.02 248.271 57.5 248.487 57.932C248.727 58.34 249.027 58.724 249.387 59.084C249.771 59.444 250.191 59.792 250.647 60.128C251.367 60.632 252.099 61.16 252.843 61.712C253.587 62.24 254.211 62.852 254.715 63.548C255.219 64.244 255.471 65.108 255.471 66.14C255.471 67.316 255.099 68.336 254.355 69.2C253.635 70.04 252.711 70.676 251.583 71.108C250.455 71.564 249.315 71.792 248.163 71.792ZM265.001 71.72C263.753 71.72 262.745 71.516 261.977 71.108C261.209 70.7 260.621 70.184 260.213 69.56C259.829 68.912 259.565 68.24 259.421 67.544C259.301 66.824 259.241 66.176 259.241 65.6C259.241 63.992 259.421 62.384 259.781 60.776C260.165 59.168 260.741 57.692 261.509 56.348C262.301 55.004 263.321 53.936 264.569 53.144C265.841 52.328 267.377 51.92 269.177 51.92C270.449 51.92 271.457 52.124 272.201 52.532C272.969 52.94 273.557 53.468 273.965 54.116C274.373 54.74 274.637 55.412 274.757 56.132C274.901 56.828 274.973 57.464 274.973 58.04C274.973 59.648 274.781 61.268 274.397 62.9C274.037 64.508 273.461 65.984 272.669 67.328C271.877 68.648 270.845 69.716 269.573 70.532C268.325 71.324 266.801 71.72 265.001 71.72ZM265.721 69.56C266.489 69.56 267.173 69.332 267.773 68.876C268.397 68.42 268.937 67.808 269.393 67.04C269.849 66.248 270.221 65.36 270.509 64.376C270.821 63.392 271.049 62.372 271.193 61.316C271.337 60.236 271.409 59.18 271.409 58.148C271.409 56.972 271.193 56 270.761 55.232C270.353 54.464 269.597 54.08 268.493 54.08C267.725 54.08 267.029 54.308 266.405 54.764C265.781 55.22 265.241 55.832 264.785 56.6C264.329 57.368 263.945 58.244 263.633 59.228C263.345 60.212 263.129 61.244 262.985 62.324C262.841 63.404 262.769 64.46 262.769 65.492C262.769 66.668 262.985 67.64 263.417 68.408C263.849 69.176 264.617 69.56 265.721 69.56Z" fill="#35609D"/>
<path opacity="0.8" d="M338.188 43.054C340.347 40.8021 341.537 37.8389 341.537 34.708C341.537 28.0785 336.176 22.6867 329.583 22.6867C322.991 22.6867 317.629 28.0785 317.629 34.708C317.629 37.8379 318.818 40.8021 320.979 43.054C321.36 43.4523 321.35 44.0868 320.954 44.471C320.761 44.6582 320.512 44.7526 320.264 44.7526C320.002 44.7526 319.743 44.6492 319.547 44.4454C317.026 41.8183 315.637 38.3595 315.637 34.708C315.637 26.9738 321.893 20.682 329.585 20.682C337.277 20.682 343.533 26.9738 343.533 34.708C343.533 38.3595 342.146 41.8183 339.624 44.4454C339.244 44.8449 338.614 44.8543 338.215 44.471C337.817 44.0856 337.804 43.4523 338.188 43.054ZM314.85 50.6046C315.243 50.2177 315.251 49.5833 314.866 49.187C311.079 45.2959 308.992 40.1538 308.992 34.7082C308.992 23.292 318.229 14.0035 329.582 14.0035C340.935 14.0035 350.171 23.292 350.171 34.7082C350.171 40.1548 348.086 45.2969 344.297 49.1881C343.913 49.5835 343.919 50.2177 344.313 50.6048C344.507 50.7956 344.759 50.891 345.01 50.891C345.267 50.891 345.526 50.7904 345.722 50.5906C349.877 46.3225 352.164 40.6812 352.164 34.7083C352.164 22.1861 342.034 12 329.582 12C317.13 12 307 22.1861 307 34.708C307 40.6811 309.288 46.3211 313.442 50.5894C313.826 50.9841 314.458 50.991 314.85 50.6046ZM356.437 93.59L355.293 97.2914C355.164 97.7128 354.774 98 354.335 98H333.834C333.415 98 333.147 97.3935 333 97C332.852 96.6069 333 97 332.5 96C332.5 96 332.292 95.6906 332 95C331.755 94.4192 331.5 94 331.056 93.528C330.689 93.1371 322.314 85.1858 318.754 78.9501C317.77 77.5587 310.493 67.0311 312.236 62.4017C312.648 61.3049 313.507 60.5688 314.724 60.27C315.273 60.0739 315.834 59.9743 316.391 59.9743C319.588 59.9743 321.959 63.1304 323.69 65.4341C324.071 65.9436 324.552 66.5821 324.912 66.9798C325.067 66.2782 325.235 64.7053 325.218 61.179C325.218 61.1434 325.219 61.1057 325.223 61.0678C325.23 61.0153 325.755 55.737 325.786 38.8836C325.583 38.8416 325.385 38.7526 325.237 38.5849C324.293 37.5154 323.773 36.1391 323.773 34.7068C323.773 31.4846 326.38 28.8627 329.584 28.8627C332.788 28.8627 335.395 31.4846 335.395 34.7068C335.395 35.9792 334.966 37.1913 334.213 38.1995C334.234 38.4034 334.256 38.6154 334.279 38.8439C334.475 40.7906 334.685 43.3385 334.906 46.0354C335.196 49.58 335.573 54.1712 335.867 56.2886C336.737 55.8419 337.974 55.367 339.315 55.367C340.791 55.367 342.778 55.9436 344.253 58.5304C344.939 58.2671 345.925 57.983 347.01 57.983C348.76 57.983 351.077 58.7033 352.432 62.0261C353.662 62.2463 356.379 62.9541 358.148 65.0837C359.389 66.5758 359.923 68.4497 359.74 70.6578C359.894 72.0433 361.13 84.4906 356.437 93.59ZM325.764 34.708C325.764 35.1147 325.839 35.5111 325.962 35.8913C326.574 32.2645 328.121 31.446 329.381 31.446C331.082 31.446 332.657 33.0392 333.38 34.502C333.27 32.482 331.618 30.8681 329.582 30.8681C327.475 30.8671 325.764 32.5904 325.764 34.708ZM357.73 70.7955C357.722 70.7232 357.722 70.6509 357.728 70.5784C357.886 68.8839 357.511 67.4748 356.612 66.3884C354.859 64.265 351.644 63.9506 351.61 63.9473C351.216 63.9106 350.876 63.6465 350.748 63.2711C349.994 61.0702 348.77 60.0017 347.006 60.0017C345.571 60.0017 344.301 60.7177 344.288 60.7251C344.044 60.8656 343.747 60.8971 343.479 60.8079C343.21 60.7198 342.989 60.5228 342.874 60.2626C342.011 58.3271 340.845 57.3855 339.311 57.3855C337.533 57.3855 335.85 58.6479 335.834 58.6615C335.578 58.8587 335.243 58.9205 334.937 58.8282C334.01 58.5514 333.912 58.5222 332.902 46.2011C332.672 43.4208 332.407 40.1872 332.183 38.1372C332.17 38.0705 332.16 38.0082 332.161 37.9415C332.07 37.1351 331.986 36.5286 331.916 36.2507C331.851 36.1496 331.805 36.0358 331.778 35.9148C331.571 34.9463 330.246 33.4631 329.378 33.4631C328.81 33.4631 328.056 34.4814 327.789 37.348C327.788 54.8032 327.284 60.5688 327.22 61.2229C327.242 66.7235 326.856 68.1989 326.178 68.8836C325.891 69.1741 325.533 69.327 325.142 69.327C324.092 69.327 323.293 68.2628 322.082 66.6522C320.605 64.6852 318.584 61.9946 316.386 61.9946C316.046 61.9946 315.697 62.0597 315.352 62.1874C315.313 62.2012 315.273 62.2126 315.232 62.2231C314.466 62.4013 314.231 62.7934 314.108 63.1165C313.064 65.8889 317.42 73.6062 320.411 77.8182C320.431 77.8444 320.448 77.8736 320.465 77.9041C323.864 83.8841 332.312 91.9473 332.396 92.0271C333.794 93.2307 334.522 94.4745 334.529 95.6906C334.529 95.7809 334.524 95.8668 334.518 95.9508L353.592 95.979L354.544 92.9027C354.562 92.845 354.584 92.7884 354.612 92.7339C359.244 83.8521 357.748 70.9254 357.73 70.7955Z" fill="#35609D"/>
</svg>
