<svg width="395" height="259" viewBox="0 0 395 259" fill="none" xmlns="http://www.w3.org/2000/svg">
<path opacity="0.5" d="M0 28H395V239C395 250.046 386.046 259 375 259H20C8.9543 259 0 250.046 0 239V28Z" fill="#BDCFE8"/>
<path d="M52.575 166.26C52.575 167.87 52.32 169.35 51.81 170.7C51.3 172.04 50.58 173.195 49.65 174.165C48.72 175.135 47.6 175.89 46.29 176.43C44.99 176.96 43.55 177.225 41.97 177.225C40.39 177.225 38.95 176.96 37.65 176.43C36.35 175.89 35.235 175.135 34.305 174.165C33.375 173.195 32.655 172.04 32.145 170.7C31.635 169.35 31.38 167.87 31.38 166.26C31.38 164.65 31.635 163.175 32.145 161.835C32.655 160.485 33.375 159.325 34.305 158.355C35.235 157.375 36.35 156.615 37.65 156.075C38.95 155.535 40.39 155.265 41.97 155.265C43.55 155.265 44.99 155.535 46.29 156.075C47.6 156.615 48.72 157.375 49.65 158.355C50.58 159.325 51.3 160.485 51.81 161.835C52.32 163.175 52.575 164.65 52.575 166.26ZM49.59 166.26C49.59 164.94 49.41 163.755 49.05 162.705C48.69 161.655 48.18 160.77 47.52 160.05C46.86 159.32 46.06 158.76 45.12 158.37C44.18 157.98 43.13 157.785 41.97 157.785C40.82 157.785 39.775 157.98 38.835 158.37C37.895 158.76 37.09 159.32 36.42 160.05C35.76 160.77 35.25 161.655 34.89 162.705C34.53 163.755 34.35 164.94 34.35 166.26C34.35 167.58 34.53 168.765 34.89 169.815C35.25 170.855 35.76 171.74 36.42 172.47C37.09 173.19 37.895 173.745 38.835 174.135C39.775 174.515 40.82 174.705 41.97 174.705C43.13 174.705 44.18 174.515 45.12 174.135C46.06 173.745 46.86 173.19 47.52 172.47C48.18 171.74 48.69 170.855 49.05 169.815C49.41 168.765 49.59 167.58 49.59 166.26ZM73.0863 177H71.9013C71.6413 177 71.4313 176.96 71.2713 176.88C71.1113 176.8 71.0063 176.63 70.9563 176.37L70.6563 174.96C70.2563 175.32 69.8663 175.645 69.4863 175.935C69.1063 176.215 68.7063 176.455 68.2863 176.655C67.8663 176.845 67.4163 176.99 66.9363 177.09C66.4663 177.19 65.9413 177.24 65.3613 177.24C64.7713 177.24 64.2163 177.16 63.6963 177C63.1863 176.83 62.7413 176.58 62.3613 176.25C61.9813 175.92 61.6763 175.505 61.4463 175.005C61.2263 174.495 61.1163 173.895 61.1163 173.205C61.1163 172.605 61.2813 172.03 61.6113 171.48C61.9413 170.92 62.4713 170.425 63.2013 169.995C63.9413 169.565 64.9063 169.215 66.0963 168.945C67.2863 168.665 68.7413 168.505 70.4613 168.465V167.28C70.4613 166.1 70.2063 165.21 69.6963 164.61C69.1963 164 68.4513 163.695 67.4613 163.695C66.8113 163.695 66.2613 163.78 65.8113 163.95C65.3713 164.11 64.9863 164.295 64.6563 164.505C64.3363 164.705 64.0563 164.89 63.8163 165.06C63.5863 165.22 63.3563 165.3 63.1263 165.3C62.9463 165.3 62.7863 165.255 62.6463 165.165C62.5163 165.065 62.4113 164.945 62.3313 164.805L61.8513 163.95C62.6913 163.14 63.5963 162.535 64.5663 162.135C65.5363 161.735 66.6113 161.535 67.7913 161.535C68.6413 161.535 69.3963 161.675 70.0563 161.955C70.7163 162.235 71.2713 162.625 71.7213 163.125C72.1713 163.625 72.5113 164.23 72.7413 164.94C72.9713 165.65 73.0863 166.43 73.0863 167.28V177ZM66.1563 175.365C66.6263 175.365 67.0563 175.32 67.4463 175.23C67.8363 175.13 68.2013 174.995 68.5413 174.825C68.8913 174.645 69.2213 174.43 69.5313 174.18C69.8513 173.93 70.1613 173.645 70.4613 173.325V170.16C69.2313 170.2 68.1863 170.3 67.3263 170.46C66.4663 170.61 65.7663 170.81 65.2263 171.06C64.6863 171.31 64.2913 171.605 64.0413 171.945C63.8013 172.285 63.6813 172.665 63.6813 173.085C63.6813 173.485 63.7463 173.83 63.8763 174.12C64.0063 174.41 64.1813 174.65 64.4013 174.84C64.6213 175.02 64.8813 175.155 65.1813 175.245C65.4813 175.325 65.8063 175.365 66.1563 175.365ZM77.2214 177V154.905H79.9064V163.995C80.5364 163.265 81.2564 162.68 82.0664 162.24C82.8864 161.79 83.8214 161.565 84.8714 161.565C85.7514 161.565 86.5464 161.73 87.2564 162.06C87.9664 162.39 88.5714 162.885 89.0714 163.545C89.5714 164.195 89.9564 165.005 90.2264 165.975C90.4964 166.935 90.6314 168.045 90.6314 169.305C90.6314 170.425 90.4814 171.47 90.1814 172.44C89.8814 173.4 89.4464 174.235 88.8764 174.945C88.3164 175.645 87.6264 176.2 86.8064 176.61C85.9964 177.01 85.0814 177.21 84.0614 177.21C83.0814 177.21 82.2464 177.02 81.5564 176.64C80.8764 176.26 80.2814 175.73 79.7714 175.05L79.6364 176.43C79.5564 176.81 79.3264 177 78.9464 177H77.2214ZM84.0014 163.695C83.1314 163.695 82.3664 163.895 81.7064 164.295C81.0564 164.695 80.4564 165.26 79.9064 165.99V173.34C80.3864 174 80.9164 174.465 81.4964 174.735C82.0864 175.005 82.7414 175.14 83.4614 175.14C84.8814 175.14 85.9714 174.635 86.7314 173.625C87.4914 172.615 87.8714 171.175 87.8714 169.305C87.8714 168.315 87.7814 167.465 87.6014 166.755C87.4314 166.045 87.1814 165.465 86.8514 165.015C86.5214 164.555 86.1164 164.22 85.6364 164.01C85.1564 163.8 84.6114 163.695 84.0014 163.695ZM100.039 161.565C101.149 161.565 102.149 161.75 103.039 162.12C103.939 162.49 104.699 163.015 105.319 163.695C105.949 164.375 106.429 165.2 106.759 166.17C107.099 167.13 107.269 168.205 107.269 169.395C107.269 170.595 107.099 171.675 106.759 172.635C106.429 173.595 105.949 174.415 105.319 175.095C104.699 175.775 103.939 176.3 103.039 176.67C102.149 177.03 101.149 177.21 100.039 177.21C98.9292 177.21 97.9242 177.03 97.0242 176.67C96.1342 176.3 95.3742 175.775 94.7442 175.095C94.1142 174.415 93.6292 173.595 93.2892 172.635C92.9492 171.675 92.7792 170.595 92.7792 169.395C92.7792 168.205 92.9492 167.13 93.2892 166.17C93.6292 165.2 94.1142 164.375 94.7442 163.695C95.3742 163.015 96.1342 162.49 97.0242 162.12C97.9242 161.75 98.9292 161.565 100.039 161.565ZM100.039 175.125C101.539 175.125 102.659 174.625 103.399 173.625C104.139 172.615 104.509 171.21 104.509 169.41C104.509 167.6 104.139 166.19 103.399 165.18C102.659 164.17 101.539 163.665 100.039 163.665C99.2792 163.665 98.6192 163.795 98.0592 164.055C97.4992 164.315 97.0292 164.69 96.6492 165.18C96.2792 165.67 95.9992 166.275 95.8092 166.995C95.6292 167.705 95.5392 168.51 95.5392 169.41C95.5392 170.31 95.6292 171.115 95.8092 171.825C95.9992 172.535 96.2792 173.135 96.6492 173.625C97.0292 174.105 97.4992 174.475 98.0592 174.735C98.6192 174.995 99.2792 175.125 100.039 175.125ZM110.559 177V161.805H112.089C112.379 161.805 112.579 161.86 112.689 161.97C112.799 162.08 112.874 162.27 112.914 162.54L113.094 164.91C113.614 163.85 114.254 163.025 115.014 162.435C115.784 161.835 116.684 161.535 117.714 161.535C118.134 161.535 118.514 161.585 118.854 161.685C119.194 161.775 119.509 161.905 119.799 162.075L119.454 164.07C119.384 164.32 119.229 164.445 118.989 164.445C118.849 164.445 118.634 164.4 118.344 164.31C118.054 164.21 117.649 164.16 117.129 164.16C116.199 164.16 115.419 164.43 114.789 164.97C114.169 165.51 113.649 166.295 113.229 167.325V177H110.559ZM127.264 177.24C126.064 177.24 125.139 176.905 124.489 176.235C123.849 175.565 123.529 174.6 123.529 173.34V164.04H121.699C121.539 164.04 121.404 163.995 121.294 163.905C121.184 163.805 121.129 163.655 121.129 163.455V162.39L123.619 162.075L124.234 157.38C124.254 157.23 124.319 157.11 124.429 157.02C124.539 156.92 124.679 156.87 124.849 156.87H126.199V162.105H130.549V164.04H126.199V173.16C126.199 173.8 126.354 174.275 126.664 174.585C126.974 174.895 127.374 175.05 127.864 175.05C128.144 175.05 128.384 175.015 128.584 174.945C128.794 174.865 128.974 174.78 129.124 174.69C129.274 174.6 129.399 174.52 129.499 174.45C129.609 174.37 129.704 174.33 129.784 174.33C129.924 174.33 130.049 174.415 130.159 174.585L130.939 175.86C130.479 176.29 129.924 176.63 129.274 176.88C128.624 177.12 127.954 177.24 127.264 177.24ZM145.01 177H143.825C143.565 177 143.355 176.96 143.195 176.88C143.035 176.8 142.93 176.63 142.88 176.37L142.58 174.96C142.18 175.32 141.79 175.645 141.41 175.935C141.03 176.215 140.63 176.455 140.21 176.655C139.79 176.845 139.34 176.99 138.86 177.09C138.39 177.19 137.865 177.24 137.285 177.24C136.695 177.24 136.14 177.16 135.62 177C135.11 176.83 134.665 176.58 134.285 176.25C133.905 175.92 133.6 175.505 133.37 175.005C133.15 174.495 133.04 173.895 133.04 173.205C133.04 172.605 133.205 172.03 133.535 171.48C133.865 170.92 134.395 170.425 135.125 169.995C135.865 169.565 136.83 169.215 138.02 168.945C139.21 168.665 140.665 168.505 142.385 168.465V167.28C142.385 166.1 142.13 165.21 141.62 164.61C141.12 164 140.375 163.695 139.385 163.695C138.735 163.695 138.185 163.78 137.735 163.95C137.295 164.11 136.91 164.295 136.58 164.505C136.26 164.705 135.98 164.89 135.74 165.06C135.51 165.22 135.28 165.3 135.05 165.3C134.87 165.3 134.71 165.255 134.57 165.165C134.44 165.065 134.335 164.945 134.255 164.805L133.775 163.95C134.615 163.14 135.52 162.535 136.49 162.135C137.46 161.735 138.535 161.535 139.715 161.535C140.565 161.535 141.32 161.675 141.98 161.955C142.64 162.235 143.195 162.625 143.645 163.125C144.095 163.625 144.435 164.23 144.665 164.94C144.895 165.65 145.01 166.43 145.01 167.28V177ZM138.08 175.365C138.55 175.365 138.98 175.32 139.37 175.23C139.76 175.13 140.125 174.995 140.465 174.825C140.815 174.645 141.145 174.43 141.455 174.18C141.775 173.93 142.085 173.645 142.385 173.325V170.16C141.155 170.2 140.11 170.3 139.25 170.46C138.39 170.61 137.69 170.81 137.15 171.06C136.61 171.31 136.215 171.605 135.965 171.945C135.725 172.285 135.605 172.665 135.605 173.085C135.605 173.485 135.67 173.83 135.8 174.12C135.93 174.41 136.105 174.65 136.325 174.84C136.545 175.02 136.805 175.155 137.105 175.245C137.405 175.325 137.73 175.365 138.08 175.365ZM149.055 177V161.805H150.645C151.025 161.805 151.265 161.99 151.365 162.36L151.56 163.92C152.12 163.23 152.745 162.665 153.435 162.225C154.135 161.785 154.945 161.565 155.865 161.565C156.895 161.565 157.725 161.85 158.355 162.42C158.995 162.99 159.455 163.76 159.735 164.73C159.945 164.18 160.22 163.705 160.56 163.305C160.91 162.905 161.3 162.575 161.73 162.315C162.16 162.055 162.615 161.865 163.095 161.745C163.585 161.625 164.08 161.565 164.58 161.565C165.38 161.565 166.09 161.695 166.71 161.955C167.34 162.205 167.87 162.575 168.3 163.065C168.74 163.555 169.075 164.16 169.305 164.88C169.535 165.59 169.65 166.405 169.65 167.325V177H166.98V167.325C166.98 166.135 166.72 165.235 166.2 164.625C165.68 164.005 164.925 163.695 163.935 163.695C163.495 163.695 163.075 163.775 162.675 163.935C162.285 164.085 161.94 164.31 161.64 164.61C161.34 164.91 161.1 165.29 160.92 165.75C160.75 166.2 160.665 166.725 160.665 167.325V177H157.995V167.325C157.995 166.105 157.75 165.195 157.26 164.595C156.77 163.995 156.055 163.695 155.115 163.695C154.455 163.695 153.84 163.875 153.27 164.235C152.71 164.585 152.195 165.065 151.725 165.675V177H149.055ZM179.709 161.565C180.619 161.565 181.459 161.72 182.229 162.03C182.999 162.33 183.664 162.77 184.224 163.35C184.784 163.92 185.219 164.63 185.529 165.48C185.849 166.32 186.009 167.28 186.009 168.36C186.009 168.78 185.964 169.06 185.874 169.2C185.784 169.34 185.614 169.41 185.364 169.41H175.254C175.274 170.37 175.404 171.205 175.644 171.915C175.884 172.625 176.214 173.22 176.634 173.7C177.054 174.17 177.554 174.525 178.134 174.765C178.714 174.995 179.364 175.11 180.084 175.11C180.754 175.11 181.329 175.035 181.809 174.885C182.299 174.725 182.719 174.555 183.069 174.375C183.419 174.195 183.709 174.03 183.939 173.88C184.179 173.72 184.384 173.64 184.554 173.64C184.774 173.64 184.944 173.725 185.064 173.895L185.814 174.87C185.484 175.27 185.089 175.62 184.629 175.92C184.169 176.21 183.674 176.45 183.144 176.64C182.624 176.83 182.084 176.97 181.524 177.06C180.964 177.16 180.409 177.21 179.859 177.21C178.809 177.21 177.839 177.035 176.949 176.685C176.069 176.325 175.304 175.805 174.654 175.125C174.014 174.435 173.514 173.585 173.154 172.575C172.794 171.565 172.614 170.405 172.614 169.095C172.614 168.035 172.774 167.045 173.094 166.125C173.424 165.205 173.894 164.41 174.504 163.74C175.114 163.06 175.859 162.53 176.739 162.15C177.619 161.76 178.609 161.565 179.709 161.565ZM179.769 163.53C178.479 163.53 177.464 163.905 176.724 164.655C175.984 165.395 175.524 166.425 175.344 167.745H183.609C183.609 167.125 183.524 166.56 183.354 166.05C183.184 165.53 182.934 165.085 182.604 164.715C182.274 164.335 181.869 164.045 181.389 163.845C180.919 163.635 180.379 163.53 179.769 163.53ZM189.426 177V161.805H191.016C191.396 161.805 191.636 161.99 191.736 162.36L191.946 164.01C192.606 163.28 193.341 162.69 194.151 162.24C194.971 161.79 195.916 161.565 196.986 161.565C197.816 161.565 198.546 161.705 199.176 161.985C199.816 162.255 200.346 162.645 200.766 163.155C201.196 163.655 201.521 164.26 201.741 164.97C201.961 165.68 202.071 166.465 202.071 167.325V177H199.401V167.325C199.401 166.175 199.136 165.285 198.606 164.655C198.086 164.015 197.286 163.695 196.206 163.695C195.416 163.695 194.676 163.885 193.986 164.265C193.306 164.645 192.676 165.16 192.096 165.81V177H189.426ZM210.701 177.24C209.501 177.24 208.576 176.905 207.926 176.235C207.286 175.565 206.966 174.6 206.966 173.34V164.04H205.136C204.976 164.04 204.841 163.995 204.731 163.905C204.621 163.805 204.566 163.655 204.566 163.455V162.39L207.056 162.075L207.671 157.38C207.691 157.23 207.756 157.11 207.866 157.02C207.976 156.92 208.116 156.87 208.286 156.87H209.636V162.105H213.986V164.04H209.636V173.16C209.636 173.8 209.791 174.275 210.101 174.585C210.411 174.895 210.811 175.05 211.301 175.05C211.581 175.05 211.821 175.015 212.021 174.945C212.231 174.865 212.411 174.78 212.561 174.69C212.711 174.6 212.836 174.52 212.936 174.45C213.046 174.37 213.141 174.33 213.221 174.33C213.361 174.33 213.486 174.415 213.596 174.585L214.376 175.86C213.916 176.29 213.361 176.63 212.711 176.88C212.061 177.12 211.391 177.24 210.701 177.24ZM223.438 161.565C224.548 161.565 225.548 161.75 226.438 162.12C227.338 162.49 228.098 163.015 228.718 163.695C229.348 164.375 229.828 165.2 230.158 166.17C230.498 167.13 230.668 168.205 230.668 169.395C230.668 170.595 230.498 171.675 230.158 172.635C229.828 173.595 229.348 174.415 228.718 175.095C228.098 175.775 227.338 176.3 226.438 176.67C225.548 177.03 224.548 177.21 223.438 177.21C222.328 177.21 221.323 177.03 220.423 176.67C219.533 176.3 218.773 175.775 218.143 175.095C217.513 174.415 217.028 173.595 216.688 172.635C216.348 171.675 216.178 170.595 216.178 169.395C216.178 168.205 216.348 167.13 216.688 166.17C217.028 165.2 217.513 164.375 218.143 163.695C218.773 163.015 219.533 162.49 220.423 162.12C221.323 161.75 222.328 161.565 223.438 161.565ZM223.438 175.125C224.938 175.125 226.058 174.625 226.798 173.625C227.538 172.615 227.908 171.21 227.908 169.41C227.908 167.6 227.538 166.19 226.798 165.18C226.058 164.17 224.938 163.665 223.438 163.665C222.678 163.665 222.018 163.795 221.458 164.055C220.898 164.315 220.428 164.69 220.048 165.18C219.678 165.67 219.398 166.275 219.208 166.995C219.028 167.705 218.938 168.51 218.938 169.41C218.938 170.31 219.028 171.115 219.208 171.825C219.398 172.535 219.678 173.135 220.048 173.625C220.428 174.105 220.898 174.475 221.458 174.735C222.018 174.995 222.678 175.125 223.438 175.125ZM239.758 177V161.805H241.348C241.728 161.805 241.968 161.99 242.068 162.36L242.278 164.01C242.938 163.28 243.673 162.69 244.483 162.24C245.303 161.79 246.248 161.565 247.318 161.565C248.148 161.565 248.878 161.705 249.508 161.985C250.148 162.255 250.678 162.645 251.098 163.155C251.528 163.655 251.853 164.26 252.073 164.97C252.293 165.68 252.403 166.465 252.403 167.325V177H249.733V167.325C249.733 166.175 249.468 165.285 248.938 164.655C248.418 164.015 247.618 163.695 246.538 163.695C245.748 163.695 245.008 163.885 244.318 164.265C243.638 164.645 243.008 165.16 242.428 165.81V177H239.758ZM262.578 161.565C263.688 161.565 264.688 161.75 265.578 162.12C266.478 162.49 267.238 163.015 267.858 163.695C268.488 164.375 268.968 165.2 269.298 166.17C269.638 167.13 269.808 168.205 269.808 169.395C269.808 170.595 269.638 171.675 269.298 172.635C268.968 173.595 268.488 174.415 267.858 175.095C267.238 175.775 266.478 176.3 265.578 176.67C264.688 177.03 263.688 177.21 262.578 177.21C261.468 177.21 260.463 177.03 259.563 176.67C258.673 176.3 257.913 175.775 257.283 175.095C256.653 174.415 256.168 173.595 255.828 172.635C255.488 171.675 255.318 170.595 255.318 169.395C255.318 168.205 255.488 167.13 255.828 166.17C256.168 165.2 256.653 164.375 257.283 163.695C257.913 163.015 258.673 162.49 259.563 162.12C260.463 161.75 261.468 161.565 262.578 161.565ZM262.578 175.125C264.078 175.125 265.198 174.625 265.938 173.625C266.678 172.615 267.048 171.21 267.048 169.41C267.048 167.6 266.678 166.19 265.938 165.18C265.198 164.17 264.078 163.665 262.578 163.665C261.818 163.665 261.158 163.795 260.598 164.055C260.038 164.315 259.568 164.69 259.188 165.18C258.818 165.67 258.538 166.275 258.348 166.995C258.168 167.705 258.078 168.51 258.078 169.41C258.078 170.31 258.168 171.115 258.348 171.825C258.538 172.535 258.818 173.135 259.188 173.625C259.568 174.105 260.038 174.475 260.598 174.735C261.158 174.995 261.818 175.125 262.578 175.125ZM32.19 219V203.805H33.78C34.16 203.805 34.4 203.99 34.5 204.36L34.695 205.92C35.255 205.23 35.88 204.665 36.57 204.225C37.27 203.785 38.08 203.565 39 203.565C40.03 203.565 40.86 203.85 41.49 204.42C42.13 204.99 42.59 205.76 42.87 206.73C43.08 206.18 43.355 205.705 43.695 205.305C44.045 204.905 44.435 204.575 44.865 204.315C45.295 204.055 45.75 203.865 46.23 203.745C46.72 203.625 47.215 203.565 47.715 203.565C48.515 203.565 49.225 203.695 49.845 203.955C50.475 204.205 51.005 204.575 51.435 205.065C51.875 205.555 52.21 206.16 52.44 206.88C52.67 207.59 52.785 208.405 52.785 209.325V219H50.115V209.325C50.115 208.135 49.855 207.235 49.335 206.625C48.815 206.005 48.06 205.695 47.07 205.695C46.63 205.695 46.21 205.775 45.81 205.935C45.42 206.085 45.075 206.31 44.775 206.61C44.475 206.91 44.235 207.29 44.055 207.75C43.885 208.2 43.8 208.725 43.8 209.325V219H41.13V209.325C41.13 208.105 40.885 207.195 40.395 206.595C39.905 205.995 39.19 205.695 38.25 205.695C37.59 205.695 36.975 205.875 36.405 206.235C35.845 206.585 35.33 207.065 34.86 207.675V219H32.19ZM59.1387 203.805V213.495C59.1387 214.645 59.4037 215.535 59.9337 216.165C60.4637 216.795 61.2637 217.11 62.3337 217.11C63.1137 217.11 63.8487 216.925 64.5387 216.555C65.2287 216.185 65.8637 215.67 66.4437 215.01V203.805H69.1137V219H67.5237C67.1437 219 66.9037 218.815 66.8037 218.445L66.5937 216.81C65.9337 217.54 65.1937 218.13 64.3737 218.58C63.5537 219.02 62.6137 219.24 61.5537 219.24C60.7237 219.24 59.9887 219.105 59.3487 218.835C58.7187 218.555 58.1887 218.165 57.7587 217.665C57.3287 217.165 57.0037 216.56 56.7837 215.85C56.5737 215.14 56.4687 214.355 56.4687 213.495V203.805H59.1387ZM73.4986 219V203.805H75.0886C75.4686 203.805 75.7086 203.99 75.8086 204.36L76.0186 206.01C76.6786 205.28 77.4136 204.69 78.2236 204.24C79.0436 203.79 79.9886 203.565 81.0586 203.565C81.8886 203.565 82.6186 203.705 83.2486 203.985C83.8886 204.255 84.4186 204.645 84.8386 205.155C85.2686 205.655 85.5936 206.26 85.8136 206.97C86.0336 207.68 86.1436 208.465 86.1436 209.325V219H83.4736V209.325C83.4736 208.175 83.2086 207.285 82.6786 206.655C82.1586 206.015 81.3586 205.695 80.2786 205.695C79.4886 205.695 78.7486 205.885 78.0586 206.265C77.3786 206.645 76.7486 207.16 76.1686 207.81V219H73.4986ZM100.864 219C100.484 219 100.244 218.815 100.144 218.445L99.9035 216.6C99.2535 217.39 98.5085 218.025 97.6685 218.505C96.8385 218.975 95.8835 219.21 94.8035 219.21C93.9335 219.21 93.1435 219.045 92.4335 218.715C91.7235 218.375 91.1185 217.88 90.6185 217.23C90.1185 216.58 89.7335 215.77 89.4635 214.8C89.1935 213.83 89.0585 212.715 89.0585 211.455C89.0585 210.335 89.2085 209.295 89.5085 208.335C89.8085 207.365 90.2385 206.525 90.7985 205.815C91.3685 205.105 92.0585 204.55 92.8685 204.15C93.6785 203.74 94.5985 203.535 95.6285 203.535C96.5585 203.535 97.3535 203.695 98.0135 204.015C98.6735 204.325 99.2635 204.765 99.7835 205.335V196.905H102.454V219H100.864ZM95.6885 217.05C96.5585 217.05 97.3185 216.85 97.9685 216.45C98.6285 216.05 99.2335 215.485 99.7835 214.755V207.405C99.2935 206.745 98.7535 206.285 98.1635 206.025C97.5835 205.755 96.9385 205.62 96.2285 205.62C94.8085 205.62 93.7185 206.125 92.9585 207.135C92.1985 208.145 91.8185 209.585 91.8185 211.455C91.8185 212.445 91.9035 213.295 92.0735 214.005C92.2435 214.705 92.4935 215.285 92.8235 215.745C93.1535 216.195 93.5585 216.525 94.0385 216.735C94.5185 216.945 95.0685 217.05 95.6885 217.05ZM113.076 203.565C114.186 203.565 115.186 203.75 116.076 204.12C116.976 204.49 117.736 205.015 118.356 205.695C118.986 206.375 119.466 207.2 119.796 208.17C120.136 209.13 120.306 210.205 120.306 211.395C120.306 212.595 120.136 213.675 119.796 214.635C119.466 215.595 118.986 216.415 118.356 217.095C117.736 217.775 116.976 218.3 116.076 218.67C115.186 219.03 114.186 219.21 113.076 219.21C111.966 219.21 110.961 219.03 110.061 218.67C109.171 218.3 108.411 217.775 107.781 217.095C107.151 216.415 106.666 215.595 106.326 214.635C105.986 213.675 105.816 212.595 105.816 211.395C105.816 210.205 105.986 209.13 106.326 208.17C106.666 207.2 107.151 206.375 107.781 205.695C108.411 205.015 109.171 204.49 110.061 204.12C110.961 203.75 111.966 203.565 113.076 203.565ZM113.076 217.125C114.576 217.125 115.696 216.625 116.436 215.625C117.176 214.615 117.546 213.21 117.546 211.41C117.546 209.6 117.176 208.19 116.436 207.18C115.696 206.17 114.576 205.665 113.076 205.665C112.316 205.665 111.656 205.795 111.096 206.055C110.536 206.315 110.066 206.69 109.686 207.18C109.316 207.67 109.036 208.275 108.846 208.995C108.666 209.705 108.576 210.51 108.576 211.41C108.576 212.31 108.666 213.115 108.846 213.825C109.036 214.535 109.316 215.135 109.686 215.625C110.066 216.105 110.536 216.475 111.096 216.735C111.656 216.995 112.316 217.125 113.076 217.125ZM135.412 203.565C136.322 203.565 137.162 203.72 137.932 204.03C138.702 204.33 139.367 204.77 139.927 205.35C140.487 205.92 140.922 206.63 141.232 207.48C141.552 208.32 141.712 209.28 141.712 210.36C141.712 210.78 141.667 211.06 141.577 211.2C141.487 211.34 141.317 211.41 141.067 211.41H130.957C130.977 212.37 131.107 213.205 131.347 213.915C131.587 214.625 131.917 215.22 132.337 215.7C132.757 216.17 133.257 216.525 133.837 216.765C134.417 216.995 135.067 217.11 135.787 217.11C136.457 217.11 137.032 217.035 137.512 216.885C138.002 216.725 138.422 216.555 138.772 216.375C139.122 216.195 139.412 216.03 139.642 215.88C139.882 215.72 140.087 215.64 140.257 215.64C140.477 215.64 140.647 215.725 140.767 215.895L141.517 216.87C141.187 217.27 140.792 217.62 140.332 217.92C139.872 218.21 139.377 218.45 138.847 218.64C138.327 218.83 137.787 218.97 137.227 219.06C136.667 219.16 136.112 219.21 135.562 219.21C134.512 219.21 133.542 219.035 132.652 218.685C131.772 218.325 131.007 217.805 130.357 217.125C129.717 216.435 129.217 215.585 128.857 214.575C128.497 213.565 128.317 212.405 128.317 211.095C128.317 210.035 128.477 209.045 128.797 208.125C129.127 207.205 129.597 206.41 130.207 205.74C130.817 205.06 131.562 204.53 132.442 204.15C133.322 203.76 134.312 203.565 135.412 203.565ZM135.472 205.53C134.182 205.53 133.167 205.905 132.427 206.655C131.687 207.395 131.227 208.425 131.047 209.745H139.312C139.312 209.125 139.227 208.56 139.057 208.05C138.887 207.53 138.637 207.085 138.307 206.715C137.977 206.335 137.572 206.045 137.092 205.845C136.622 205.635 136.082 205.53 135.472 205.53ZM150.93 219V203.805H152.52C152.9 203.805 153.14 203.99 153.24 204.36L153.45 206.01C154.11 205.28 154.845 204.69 155.655 204.24C156.475 203.79 157.42 203.565 158.49 203.565C159.32 203.565 160.05 203.705 160.68 203.985C161.32 204.255 161.85 204.645 162.27 205.155C162.7 205.655 163.025 206.26 163.245 206.97C163.465 207.68 163.575 208.465 163.575 209.325V219H160.905V209.325C160.905 208.175 160.64 207.285 160.11 206.655C159.59 206.015 158.79 205.695 157.71 205.695C156.92 205.695 156.18 205.885 155.49 206.265C154.81 206.645 154.18 207.16 153.6 207.81V219H150.93ZM173.75 203.565C174.86 203.565 175.86 203.75 176.75 204.12C177.65 204.49 178.41 205.015 179.03 205.695C179.66 206.375 180.14 207.2 180.47 208.17C180.81 209.13 180.98 210.205 180.98 211.395C180.98 212.595 180.81 213.675 180.47 214.635C180.14 215.595 179.66 216.415 179.03 217.095C178.41 217.775 177.65 218.3 176.75 218.67C175.86 219.03 174.86 219.21 173.75 219.21C172.64 219.21 171.635 219.03 170.735 218.67C169.845 218.3 169.085 217.775 168.455 217.095C167.825 216.415 167.34 215.595 167 214.635C166.66 213.675 166.49 212.595 166.49 211.395C166.49 210.205 166.66 209.13 167 208.17C167.34 207.2 167.825 206.375 168.455 205.695C169.085 205.015 169.845 204.49 170.735 204.12C171.635 203.75 172.64 203.565 173.75 203.565ZM173.75 217.125C175.25 217.125 176.37 216.625 177.11 215.625C177.85 214.615 178.22 213.21 178.22 211.41C178.22 209.6 177.85 208.19 177.11 207.18C176.37 206.17 175.25 205.665 173.75 205.665C172.99 205.665 172.33 205.795 171.77 206.055C171.21 206.315 170.74 206.69 170.36 207.18C169.99 207.67 169.71 208.275 169.52 208.995C169.34 209.705 169.25 210.51 169.25 211.41C169.25 212.31 169.34 213.115 169.52 213.825C169.71 214.535 169.99 215.135 170.36 215.625C170.74 216.105 171.21 216.475 171.77 216.735C172.33 216.995 172.99 217.125 173.75 217.125ZM190.491 219V197.505H197.346C198.666 197.505 199.801 197.635 200.751 197.895C201.711 198.155 202.496 198.525 203.106 199.005C203.726 199.485 204.181 200.075 204.471 200.775C204.771 201.465 204.921 202.245 204.921 203.115C204.921 203.645 204.836 204.155 204.666 204.645C204.506 205.135 204.256 205.59 203.916 206.01C203.586 206.43 203.166 206.805 202.656 207.135C202.156 207.465 201.566 207.735 200.886 207.945C202.456 208.255 203.641 208.82 204.441 209.64C205.241 210.46 205.641 211.54 205.641 212.88C205.641 213.79 205.471 214.62 205.131 215.37C204.801 216.12 204.311 216.765 203.661 217.305C203.021 217.845 202.231 218.265 201.291 218.565C200.361 218.855 199.296 219 198.096 219H190.491ZM193.401 209.205V216.69H198.051C198.881 216.69 199.591 216.595 200.181 216.405C200.781 216.215 201.271 215.95 201.651 215.61C202.041 215.26 202.326 214.85 202.506 214.38C202.686 213.9 202.776 213.375 202.776 212.805C202.776 211.695 202.381 210.82 201.591 210.18C200.811 209.53 199.626 209.205 198.036 209.205H193.401ZM193.401 207.135H197.241C198.061 207.135 198.771 207.045 199.371 206.865C199.971 206.685 200.466 206.435 200.856 206.115C201.256 205.795 201.551 205.41 201.741 204.96C201.931 204.5 202.026 204 202.026 203.46C202.026 202.2 201.646 201.275 200.886 200.685C200.126 200.095 198.946 199.8 197.346 199.8H193.401V207.135ZM209.495 219V203.805H211.025C211.315 203.805 211.515 203.86 211.625 203.97C211.735 204.08 211.81 204.27 211.85 204.54L212.03 206.91C212.55 205.85 213.19 205.025 213.95 204.435C214.72 203.835 215.62 203.535 216.65 203.535C217.07 203.535 217.45 203.585 217.79 203.685C218.13 203.775 218.445 203.905 218.735 204.075L218.39 206.07C218.32 206.32 218.165 206.445 217.925 206.445C217.785 206.445 217.57 206.4 217.28 206.31C216.99 206.21 216.585 206.16 216.065 206.16C215.135 206.16 214.355 206.43 213.725 206.97C213.105 207.51 212.585 208.295 212.165 209.325V219H209.495ZM232.198 219H231.013C230.753 219 230.543 218.96 230.383 218.88C230.223 218.8 230.118 218.63 230.068 218.37L229.768 216.96C229.368 217.32 228.978 217.645 228.598 217.935C228.218 218.215 227.818 218.455 227.398 218.655C226.978 218.845 226.528 218.99 226.048 219.09C225.578 219.19 225.053 219.24 224.473 219.24C223.883 219.24 223.328 219.16 222.808 219C222.298 218.83 221.853 218.58 221.473 218.25C221.093 217.92 220.788 217.505 220.558 217.005C220.338 216.495 220.228 215.895 220.228 215.205C220.228 214.605 220.393 214.03 220.723 213.48C221.053 212.92 221.583 212.425 222.313 211.995C223.053 211.565 224.018 211.215 225.208 210.945C226.398 210.665 227.853 210.505 229.573 210.465V209.28C229.573 208.1 229.318 207.21 228.808 206.61C228.308 206 227.563 205.695 226.573 205.695C225.923 205.695 225.373 205.78 224.923 205.95C224.483 206.11 224.098 206.295 223.768 206.505C223.448 206.705 223.168 206.89 222.928 207.06C222.698 207.22 222.468 207.3 222.238 207.3C222.058 207.3 221.898 207.255 221.758 207.165C221.628 207.065 221.523 206.945 221.443 206.805L220.963 205.95C221.803 205.14 222.708 204.535 223.678 204.135C224.648 203.735 225.723 203.535 226.903 203.535C227.753 203.535 228.508 203.675 229.168 203.955C229.828 204.235 230.383 204.625 230.833 205.125C231.283 205.625 231.623 206.23 231.853 206.94C232.083 207.65 232.198 208.43 232.198 209.28V219ZM225.268 217.365C225.738 217.365 226.168 217.32 226.558 217.23C226.948 217.13 227.313 216.995 227.653 216.825C228.003 216.645 228.333 216.43 228.643 216.18C228.963 215.93 229.273 215.645 229.573 215.325V212.16C228.343 212.2 227.298 212.3 226.438 212.46C225.578 212.61 224.878 212.81 224.338 213.06C223.798 213.31 223.403 213.605 223.153 213.945C222.913 214.285 222.793 214.665 222.793 215.085C222.793 215.485 222.858 215.83 222.988 216.12C223.118 216.41 223.293 216.65 223.513 216.84C223.733 217.02 223.993 217.155 224.293 217.245C224.593 217.325 224.918 217.365 225.268 217.365ZM244.943 206.31C244.823 206.53 244.638 206.64 244.388 206.64C244.238 206.64 244.068 206.585 243.878 206.475C243.688 206.365 243.453 206.245 243.173 206.115C242.903 205.975 242.578 205.85 242.198 205.74C241.818 205.62 241.368 205.56 240.848 205.56C240.398 205.56 239.993 205.62 239.633 205.74C239.273 205.85 238.963 206.005 238.703 206.205C238.453 206.405 238.258 206.64 238.118 206.91C237.988 207.17 237.923 207.455 237.923 207.765C237.923 208.155 238.033 208.48 238.253 208.74C238.483 209 238.783 209.225 239.153 209.415C239.523 209.605 239.943 209.775 240.413 209.925C240.883 210.065 241.363 210.22 241.853 210.39C242.353 210.55 242.838 210.73 243.308 210.93C243.778 211.13 244.198 211.38 244.568 211.68C244.938 211.98 245.233 212.35 245.453 212.79C245.683 213.22 245.798 213.74 245.798 214.35C245.798 215.05 245.673 215.7 245.423 216.3C245.173 216.89 244.803 217.405 244.313 217.845C243.823 218.275 243.223 218.615 242.513 218.865C241.803 219.115 240.983 219.24 240.053 219.24C238.993 219.24 238.033 219.07 237.173 218.73C236.313 218.38 235.583 217.935 234.983 217.395L235.613 216.375C235.693 216.245 235.788 216.145 235.898 216.075C236.008 216.005 236.153 215.97 236.333 215.97C236.513 215.97 236.703 216.04 236.903 216.18C237.103 216.32 237.343 216.475 237.623 216.645C237.913 216.815 238.258 216.97 238.658 217.11C239.068 217.25 239.578 217.32 240.188 217.32C240.708 217.32 241.163 217.255 241.553 217.125C241.943 216.985 242.268 216.8 242.528 216.57C242.788 216.34 242.978 216.075 243.098 215.775C243.228 215.475 243.293 215.155 243.293 214.815C243.293 214.395 243.178 214.05 242.948 213.78C242.728 213.5 242.433 213.265 242.063 213.075C241.693 212.875 241.268 212.705 240.788 212.565C240.318 212.415 239.833 212.26 239.333 212.1C238.843 211.94 238.358 211.76 237.878 211.56C237.408 211.35 236.988 211.09 236.618 210.78C236.248 210.47 235.948 210.09 235.718 209.64C235.498 209.18 235.388 208.625 235.388 207.975C235.388 207.395 235.508 206.84 235.748 206.31C235.988 205.77 236.338 205.3 236.798 204.9C237.258 204.49 237.823 204.165 238.493 203.925C239.163 203.685 239.928 203.565 240.788 203.565C241.788 203.565 242.683 203.725 243.473 204.045C244.273 204.355 244.963 204.785 245.543 205.335L244.943 206.31ZM252.221 203.805V219H249.551V203.805H252.221ZM252.821 199.035C252.821 199.295 252.766 199.54 252.656 199.77C252.556 199.99 252.416 200.19 252.236 200.37C252.066 200.54 251.866 200.675 251.636 200.775C251.406 200.875 251.161 200.925 250.901 200.925C250.641 200.925 250.396 200.875 250.166 200.775C249.946 200.675 249.746 200.54 249.566 200.37C249.396 200.19 249.261 199.99 249.161 199.77C249.061 199.54 249.011 199.295 249.011 199.035C249.011 198.775 249.061 198.53 249.161 198.3C249.261 198.06 249.396 197.855 249.566 197.685C249.746 197.505 249.946 197.365 250.166 197.265C250.396 197.165 250.641 197.115 250.901 197.115C251.161 197.115 251.406 197.165 251.636 197.265C251.866 197.365 252.066 197.505 252.236 197.685C252.416 197.855 252.556 198.06 252.656 198.3C252.766 198.53 252.821 198.775 252.821 199.035ZM259.896 196.905V219H257.226V196.905H259.896Z" fill="#35609D"/>
<path d="M44.796 106.72C44.052 106.72 43.512 106.432 43.176 105.856C42.864 105.256 42.672 104.44 42.6 103.408C42.528 102.376 42.492 101.2 42.492 99.88H35.652L32.808 106H28.812L40.656 82.24H45.264C45.456 87.112 45.6 91.192 45.696 94.48C45.792 97.744 45.924 100.264 46.092 102.04C46.284 103.792 46.596 104.848 47.028 105.208C46.908 105.64 46.632 106 46.2 106.288C45.768 106.576 45.3 106.72 44.796 106.72ZM36.84 97.396H42.492L42.204 84.724L36.84 97.396ZM55.8477 106.72C54.6477 106.72 53.6997 106.48 53.0037 106C52.3317 105.52 51.8517 104.884 51.5637 104.092C51.2997 103.276 51.1677 102.4 51.1677 101.464C51.1677 100.72 51.2637 99.784 51.4557 98.656C51.6477 97.528 51.9357 96.076 52.3197 94.3C52.7037 92.524 53.1957 90.304 53.7957 87.64L56.9277 87.28C56.3997 89.68 55.9677 91.66 55.6317 93.22C55.3197 94.756 55.0677 96.016 54.8757 97C54.7077 97.96 54.5877 98.752 54.5157 99.376C54.4677 99.976 54.4437 100.54 54.4437 101.068C54.4437 101.644 54.5157 102.208 54.6597 102.76C54.8277 103.288 55.1037 103.732 55.4877 104.092C55.8957 104.428 56.4357 104.596 57.1077 104.596C58.0197 104.596 58.7757 104.296 59.3757 103.696C59.9997 103.072 60.4917 102.292 60.8517 101.356C61.2357 100.42 61.5117 99.472 61.6797 98.512L63.8397 87.64L67.1157 87.28L64.1277 102.652C64.1037 102.868 64.0677 103.12 64.0197 103.408C63.9717 103.696 63.9477 103.948 63.9477 104.164C63.9477 104.5 64.0197 104.764 64.1637 104.956C64.3317 105.124 64.5717 105.22 64.8837 105.244C64.8117 105.58 64.6677 105.856 64.4517 106.072C64.2357 106.288 63.9837 106.444 63.6957 106.54C63.4077 106.66 63.0837 106.72 62.7237 106.72C62.0757 106.72 61.5597 106.54 61.1757 106.18C60.8157 105.844 60.5997 105.34 60.5277 104.668C60.0717 105.412 59.3877 105.94 58.4757 106.252C57.5877 106.564 56.7117 106.72 55.8477 106.72ZM71.3837 106.72C70.7117 106.72 70.1957 106.528 69.8357 106.144C69.4757 105.76 69.2957 105.244 69.2957 104.596C69.2957 104.404 69.3077 104.2 69.3317 103.984C69.3557 103.744 69.3917 103.42 69.4397 103.012C69.5117 102.604 69.6197 102.04 69.7637 101.32C69.9077 100.6 70.0877 99.676 70.3037 98.548C70.5437 97.396 70.8317 95.98 71.1677 94.3C71.5277 92.596 71.9477 90.568 72.4277 88.216C72.6677 86.872 72.8717 85.492 73.0397 84.076C73.2317 82.66 73.3277 81.472 73.3277 80.512C73.3277 80.248 73.3157 80.02 73.2917 79.828C73.2917 79.612 73.2677 79.42 73.2197 79.252C73.3637 79.132 73.5557 79.036 73.7957 78.964C74.0597 78.892 74.3357 78.856 74.6237 78.856C75.1757 78.856 75.7037 79.036 76.2077 79.396C76.7117 79.732 76.9637 80.356 76.9637 81.268C76.9637 81.436 76.9037 81.82 76.7837 82.42C76.6877 82.996 76.5557 83.68 76.3877 84.472C76.2437 85.264 76.0877 86.068 75.9197 86.884C75.7757 87.676 75.6437 88.372 75.5237 88.972C74.9237 91.876 74.4317 94.24 74.0477 96.064C73.6877 97.888 73.3997 99.328 73.1837 100.384C72.9917 101.416 72.8477 102.184 72.7517 102.688C72.6797 103.168 72.6317 103.504 72.6077 103.696C72.5837 103.864 72.5717 104.02 72.5717 104.164C72.5717 104.5 72.6437 104.764 72.7877 104.956C72.9557 105.124 73.1957 105.22 73.5077 105.244C73.4357 105.58 73.2917 105.856 73.0757 106.072C72.8597 106.288 72.6077 106.444 72.3197 106.54C72.0317 106.66 71.7197 106.72 71.3837 106.72ZM82.6343 106.72C81.4583 106.72 80.4983 106.432 79.7543 105.856C79.0343 105.256 78.5063 104.452 78.1703 103.444C77.8343 102.436 77.6663 101.284 77.6663 99.988C77.6663 98.212 77.8943 96.544 78.3503 94.984C78.8303 93.4 79.5023 92.008 80.3663 90.808C81.2303 89.584 82.2503 88.636 83.4263 87.964C84.6023 87.268 85.8863 86.92 87.2783 86.92C88.4303 86.92 89.6663 87.172 90.9863 87.676L94.1183 87.28L91.1663 102.652C91.1423 102.868 91.1063 103.12 91.0583 103.408C91.0103 103.696 90.9863 103.948 90.9863 104.164C90.9863 104.5 91.0583 104.764 91.2023 104.956C91.3703 105.124 91.6103 105.22 91.9223 105.244C91.8263 105.58 91.6703 105.856 91.4543 106.072C91.2383 106.288 90.9863 106.444 90.6983 106.54C90.4103 106.66 90.0863 106.72 89.7263 106.72C89.1023 106.72 88.5863 106.54 88.1783 106.18C87.7943 105.844 87.5903 105.34 87.5663 104.668C86.9423 105.268 86.2103 105.76 85.3703 106.144C84.5303 106.528 83.6183 106.72 82.6343 106.72ZM84.0743 104.596C85.0343 104.596 85.8143 104.284 86.4143 103.66C87.0383 103.012 87.5303 102.22 87.8903 101.284C88.2503 100.324 88.5143 99.4 88.6823 98.512L90.2303 90.304C89.7263 89.896 89.1863 89.596 88.6103 89.404C88.0343 89.188 87.5063 89.08 87.0263 89.08C86.2823 89.08 85.5983 89.272 84.9743 89.656C84.3743 90.04 83.8343 90.58 83.3543 91.276C82.8983 91.972 82.5023 92.8 82.1663 93.76C81.8543 94.696 81.6143 95.728 81.4463 96.856C81.3023 97.96 81.2303 99.112 81.2303 100.312C81.2303 101.512 81.4223 102.532 81.8063 103.372C82.2143 104.188 82.9703 104.596 84.0743 104.596ZM100.203 106.252C100.155 106.132 100.107 105.964 100.059 105.748C100.011 105.508 99.9868 105.304 99.9868 105.136C99.9868 104.512 100.191 104.032 100.599 103.696C101.007 103.36 101.691 103.192 102.651 103.192H106.863L110.211 86.272L110.139 86.236C109.251 86.668 108.447 87.04 107.727 87.352C107.031 87.664 106.323 87.82 105.603 87.82C104.883 87.82 104.355 87.568 104.019 87.064C103.707 86.536 103.503 85.936 103.407 85.264C104.559 85.048 105.651 84.796 106.683 84.508C107.739 84.22 108.807 83.86 109.887 83.428C110.991 82.972 112.203 82.408 113.523 81.736L114.315 82.06L110.103 103.3C111.183 103.324 112.107 103.36 112.875 103.408C113.667 103.432 114.507 103.396 115.395 103.3C115.683 103.804 115.827 104.224 115.827 104.56C115.827 105.088 115.623 105.496 115.215 105.784C114.831 106.072 114.207 106.216 113.343 106.216C112.119 106.216 111.075 106.204 110.211 106.18C109.347 106.156 108.543 106.132 107.799 106.108C107.079 106.084 106.299 106.06 105.459 106.036C104.643 106.012 103.671 106 102.543 106C102.063 106 101.607 106.024 101.175 106.072C100.767 106.144 100.443 106.204 100.203 106.252Z" fill="#35609D"/>
<path fill-rule="evenodd" clip-rule="evenodd" d="M211.251 1.0165C210.155 -0.226517 208.26 -0.346126 207.017 0.749348C205.773 1.84482 205.654 3.74055 206.749 4.98357L221.855 22.1235C221.584 22.0432 221.297 22 221 22H169C167.343 22 166 23.3431 166 25C166 26.6569 167.343 28 169 28H221C221.322 28 221.631 27.9494 221.922 27.8557L206.813 43.9465C205.679 45.1543 205.739 47.0529 206.946 48.187C208.154 49.3212 210.053 49.2614 211.187 48.0536L227.943 30.2091C230.638 27.3905 230.671 23.052 228.124 20.1621L211.251 1.0165ZM223.986 25.2894C223.997 25.2118 224.002 25.1333 224 25.0546C223.998 25.1336 223.994 25.2119 223.986 25.2894Z" fill="#5987C6"/>
<path d="M360.116 60.6951L356.112 63.3645L349.438 62.0298L345.434 60.6951L340.095 62.0298L336.091 60.6951L338.76 55.3561H344.099L349.332 52.74C353.367 54.7354 357.017 57.4289 360.116 60.6951Z" fill="#5987C6"/>
<path d="M329.417 55.3561L328.082 59.3604L324.078 60.6952L320.074 67.3689L313.4 71.3732L304.057 72.7079V76.7122L306.726 79.3816V84.7206L302.722 82.0511L298.718 79.3816L296.396 72.401C300.393 62.8747 308.035 55.3441 317.618 51.4854L321.409 54.0214L329.417 55.3561Z" fill="#5987C6"/>
<path d="M332.086 92.7289L330.752 99.4027L325.413 104.742V108.746L320.074 112.75V119.424L316.069 118.089L313.4 111.415V98.0679L306.726 96.7332L304.057 91.3942V87.3899L306.726 84.7205L310.73 80.7162L313.4 86.0552H322.743L326.747 92.7289H332.086Z" fill="#5987C6"/>
<path d="M365.855 68.4767C373.142 81.4758 372.311 97.5048 363.72 109.68L360.116 106.076V100.737L357.446 95.3984L354.777 90.0594V84.7204L350.773 82.051L345.434 83.3857L336.091 79.3814L334.756 70.0382L338.76 66.0339H346.769L349.438 70.0382L357.446 71.373L365.455 68.7035L365.855 68.4767Z" fill="#5987C6"/>
<path d="M340.095 62.0298L345.434 60.6951L349.439 62.0298L356.112 63.3646L360.117 60.6951C362.352 63.035 364.281 65.6497 365.856 68.4766L365.456 68.7036L357.447 71.373L349.439 70.0383L346.769 66.034H338.761L334.757 70.0383L336.091 79.3814L345.435 83.3857L350.774 82.051L354.778 84.7205V90.0595L357.447 95.3985L360.117 100.738V106.077L363.721 109.68C351.394 127.147 327.242 131.313 309.777 118.986C294.944 108.516 289.379 89.1451 296.396 72.4008L298.718 79.3814L302.723 82.0509L306.727 84.7203L304.057 87.3899V91.3942L306.727 96.7332L313.401 98.0679V111.415L316.07 118.089L320.074 119.424V112.75L325.413 108.746V104.741L330.752 99.4025L332.087 92.7288H326.748L322.744 86.055H313.401L310.731 80.716L306.727 84.7203V79.3813L304.057 76.712V72.7077L313.401 71.373L320.074 67.3687L324.079 60.695L328.083 59.3603L329.418 55.356L321.409 54.0212L317.618 51.4852C327.883 47.3514 339.426 47.8079 349.332 52.7399L344.1 55.356H338.761L336.091 60.695L340.095 62.0298Z" fill="#BDCFE8"/>
<path d="M332.014 46C316.009 45.9977 301.544 55.5378 295.245 70.2509L294.746 70.4162L294.939 70.9961C286.645 91.4529 296.505 114.76 316.961 123.054C321.739 124.992 326.847 125.986 332.002 125.983C354.089 125.987 371.997 108.084 372 85.9977C372.003 63.9109 354.101 46.0032 332.014 46ZM363.383 106.155L361.33 104.103V99.3222C361.332 99.1159 361.286 98.912 361.196 98.7263L355.997 88.3432V83.3256C355.997 82.88 355.775 82.4637 355.404 82.2165L351.405 79.5503C351.092 79.3411 350.704 79.2742 350.339 79.3664L345.441 80.5901L337.215 77.0602L336.083 69.1312L339.219 65.9958H345.953L348.219 69.4018C348.424 69.7081 348.746 69.9162 349.109 69.9763L357.108 71.3094C357.322 71.3454 357.542 71.3279 357.748 71.2587L365.114 68.8032C371.293 80.6599 370.632 94.9205 363.383 106.155ZM357.885 59.1359L355.717 60.581L349.675 59.3719L345.754 58.0668C345.514 57.9853 345.256 57.975 345.01 58.0375L340.054 59.2759L337.881 58.5521L339.491 55.3314H344C344.207 55.3316 344.411 55.2837 344.596 55.1914L349.208 52.8852C352.384 54.5432 355.306 56.6481 357.885 59.1359ZM317.401 51.6428L320.601 53.7757C320.758 53.8804 320.936 53.9503 321.122 53.981L327.582 55.0581L326.951 56.9444L323.585 58.0682C323.284 58.1685 323.028 58.3731 322.864 58.6454L319.036 65.0254L312.886 68.7153L303.822 70.0097C303.165 70.1025 302.676 70.6645 302.675 71.3281V75.3272C302.675 75.6808 302.816 76.0197 303.066 76.2697L305.341 78.5452V80.8354L299.796 77.1375L297.784 71.1028C301.611 62.3579 308.626 55.3994 317.401 51.6428ZM313.606 95.3497L307.581 94.1433L305.341 89.6762V86.5436L310.308 81.5766L312.146 85.2545C312.372 85.7064 312.834 85.9918 313.34 85.9917H321.916L325.528 92.0104C325.769 92.4115 326.202 92.6568 326.67 92.6569H330.376L329.443 97.332L324.396 102.379C324.145 102.629 324.004 102.968 324.004 103.321V106.654L319.205 110.253C318.869 110.505 318.672 110.9 318.672 111.32V116.135L317.013 115.586L314.673 109.731V96.6561C314.673 96.0226 314.227 95.4764 313.606 95.3497ZM309.599 115.842C297.03 106.413 291.715 90.1201 296.304 75.0926L297.412 78.4146C297.506 78.6957 297.69 78.9378 297.936 79.1024L304.581 83.5322L303.066 85.0492C302.816 85.2991 302.675 85.6381 302.675 85.9917V89.9908C302.675 90.1976 302.723 90.4016 302.815 90.5867L305.481 95.9189C305.666 96.2872 306.01 96.5495 306.414 96.6295L312.013 97.7479V109.987C312.013 110.156 312.045 110.324 312.108 110.481L314.774 117.147C314.92 117.511 315.219 117.792 315.591 117.916L319.59 119.249C319.724 119.294 319.864 119.317 320.005 119.318C320.741 119.318 321.338 118.721 321.338 117.985V111.986L326.137 108.387C326.472 108.135 326.67 107.74 326.67 107.321V103.873L331.612 98.9316C331.798 98.7455 331.924 98.5084 331.976 98.2505L333.309 91.5852C333.453 90.8632 332.985 90.161 332.263 90.0167C332.177 89.9995 332.09 89.9908 332.002 89.9908H327.425L323.813 83.9721C323.572 83.571 323.139 83.3257 322.671 83.3256H314.163L311.873 78.7305C311.681 78.3469 311.317 78.079 310.893 78.0107C310.47 77.9375 310.038 78.0771 309.738 78.3839L308.007 80.1076V77.9933C308.007 77.6397 307.867 77.3008 307.617 77.0509L305.341 74.7753V72.4838L313.529 71.3147C313.705 71.2892 313.874 71.2289 314.026 71.1374L320.691 67.1383C320.878 67.026 321.035 66.8693 321.147 66.6824L324.893 60.4397L328.424 59.2612C328.823 59.1304 329.136 58.8177 329.267 58.4187L330.6 54.4196C330.831 53.7206 330.451 52.9665 329.752 52.7356C329.688 52.7143 329.622 52.6979 329.555 52.6866L321.839 51.4002L320.483 50.4964C328.872 47.766 337.958 48.1039 346.121 51.4495L343.685 52.6653H338.668C338.16 52.6624 337.695 52.9484 337.468 53.4025L334.802 58.7347C334.473 59.3935 334.741 60.194 335.4 60.5225C335.456 60.5505 335.514 60.5745 335.574 60.5943L339.573 61.9274C339.813 62.0088 340.071 62.0192 340.317 61.9567L345.273 60.7183L348.904 61.9274C348.956 61.946 349.01 61.9603 349.064 61.97L355.729 63.3031C356.076 63.3737 356.437 63.3027 356.731 63.1058L359.765 61.0822C361.258 62.7453 362.6 64.5383 363.774 66.4397L357.216 68.626L350.115 67.4422L347.768 63.9229C347.522 63.5542 347.109 63.3319 346.666 63.3297H338.668C338.314 63.3297 337.975 63.4704 337.725 63.7203L333.726 67.7195C333.429 68.0162 333.289 68.4357 333.349 68.8512L334.682 78.1826C334.749 78.644 335.052 79.0368 335.482 79.2184L344.813 83.2176C345.08 83.3334 345.379 83.3572 345.661 83.2856L350.421 82.0951L353.331 84.0387V88.6578C353.329 88.8641 353.375 89.068 353.465 89.2537L358.663 99.6368V104.654C358.663 105.008 358.804 105.347 359.054 105.597L361.843 108.387C349.475 124.872 326.084 128.21 309.599 115.842Z" fill="#35609D"/>
</svg>
