<svg width="395" height="112" viewBox="0 0 395 112" fill="none" xmlns="http://www.w3.org/2000/svg">
<rect width="395" height="112" rx="56" fill="#FAFAC8"/>
<path opacity="0.8" d="M37.172 71.756C34.892 71.756 33.152 71.024 31.952 69.56C30.776 68.096 30.188 65.984 30.188 63.224C30.188 61.832 30.332 60.368 30.62 58.832C30.932 57.272 31.4 55.772 32.024 54.332C32.648 52.868 33.428 51.548 34.364 50.372C35.3 49.196 36.404 48.26 37.676 47.564C38.948 46.868 40.388 46.52 41.996 46.52C42.884 46.52 43.676 46.64 44.372 46.88C45.068 47.096 45.656 47.42 46.136 47.852C46.64 48.26 47.012 48.764 47.252 49.364C47.516 49.964 47.648 50.636 47.648 51.38C47.648 52.124 47.516 52.748 47.252 53.252C47.012 53.756 46.676 54.128 46.244 54.368C45.836 54.608 45.38 54.728 44.876 54.728C44.54 54.728 44.192 54.68 43.832 54.584C43.496 54.464 43.244 54.284 43.076 54.044C43.268 53.636 43.412 53.18 43.508 52.676C43.628 52.148 43.688 51.728 43.688 51.416C43.688 50.888 43.58 50.456 43.364 50.12C43.148 49.784 42.848 49.532 42.464 49.364C42.08 49.172 41.624 49.076 41.096 49.076C40.088 49.076 39.188 49.4 38.396 50.048C37.628 50.672 36.968 51.512 36.416 52.568C35.864 53.624 35.408 54.776 35.048 56.024C34.688 57.272 34.424 58.52 34.256 59.768C34.088 60.992 34.004 62.096 34.004 63.08C34.004 64.064 34.1 64.988 34.292 65.852C34.508 66.716 34.88 67.412 35.408 67.94C35.96 68.468 36.74 68.732 37.748 68.732C39.092 68.732 40.184 68.288 41.024 67.4C41.888 66.512 42.632 65.468 43.256 64.268C43.664 64.46 43.964 64.688 44.156 64.952C44.348 65.192 44.444 65.588 44.444 66.14C44.444 67.004 44.216 67.784 43.76 68.48C43.328 69.176 42.752 69.764 42.032 70.244C41.336 70.724 40.556 71.096 39.692 71.36C38.852 71.624 38.012 71.756 37.172 71.756ZM54.6312 71.72C53.2872 71.72 52.1352 71.468 51.1752 70.964C50.2392 70.436 49.5192 69.656 49.0152 68.624C48.5352 67.592 48.2952 66.284 48.2952 64.7C48.2952 63.188 48.4992 61.676 48.9072 60.164C49.3152 58.652 49.9272 57.284 50.7432 56.06C51.5592 54.812 52.5912 53.816 53.8392 53.072C55.1112 52.304 56.5992 51.92 58.3032 51.92C59.2152 51.92 60.0192 52.052 60.7152 52.316C61.4112 52.58 61.9512 53.012 62.3352 53.612C62.7432 54.188 62.9472 54.968 62.9472 55.952C62.9472 57.392 62.5152 58.604 61.6512 59.588C60.7872 60.572 59.6592 61.304 58.2672 61.784C56.8992 62.264 55.4352 62.492 53.8752 62.468C53.5632 62.468 53.2152 62.456 52.8312 62.432C52.4472 62.408 52.1472 62.384 51.9312 62.36C51.9072 62.792 51.8832 63.212 51.8592 63.62C51.8352 64.004 51.8232 64.352 51.8232 64.664C51.8232 66.056 52.0632 67.148 52.5432 67.94C53.0232 68.708 53.9232 69.092 55.2432 69.092C56.3232 69.092 57.2472 68.828 58.0152 68.3C58.8072 67.772 59.4312 67.04 59.8872 66.104C60.2232 66.152 60.4512 66.332 60.5712 66.644C60.6912 66.932 60.7512 67.22 60.7512 67.508C60.7512 68.132 60.5232 68.768 60.0672 69.416C59.6352 70.064 58.9632 70.604 58.0512 71.036C57.1632 71.492 56.0232 71.72 54.6312 71.72ZM52.1832 60.56C52.9992 60.56 53.8272 60.488 54.6672 60.344C55.5072 60.176 56.2872 59.924 57.0072 59.588C57.7272 59.252 58.3032 58.796 58.7352 58.22C59.1912 57.644 59.4192 56.948 59.4192 56.132C59.4192 55.412 59.2392 54.884 58.8792 54.548C58.5432 54.188 58.0632 54.008 57.4392 54.008C56.6952 54.008 56.0112 54.236 55.3872 54.692C54.7872 55.148 54.2712 55.724 53.8392 56.42C53.4072 57.116 53.0472 57.836 52.7592 58.58C52.4952 59.324 52.3032 59.984 52.1832 60.56ZM64.3633 71.36L67.9273 52.64L70.7353 52.28L70.3393 55.448C70.7713 54.464 71.4433 53.636 72.3553 52.964C73.2673 52.268 74.2633 51.92 75.3433 51.92C76.4713 51.92 77.2753 52.268 77.7553 52.964C78.2353 53.66 78.4753 54.464 78.4753 55.376C78.4753 56.48 78.1753 57.452 77.5753 58.292C76.9993 59.132 76.2313 59.552 75.2713 59.552C75.0313 59.552 74.7673 59.504 74.4793 59.408C74.2153 59.312 74.0113 59.144 73.8673 58.904C74.1313 58.544 74.3473 58.112 74.5153 57.608C74.7073 57.08 74.8033 56.6 74.8033 56.168C74.8033 55.688 74.6833 55.328 74.4433 55.088C74.2273 54.824 73.8913 54.692 73.4353 54.692C72.7873 54.692 72.2353 54.932 71.7793 55.412C71.3233 55.868 70.9513 56.444 70.6633 57.14C70.3753 57.836 70.1353 58.556 69.9433 59.3C69.7753 60.02 69.6433 60.632 69.5473 61.136L67.7832 71L64.3633 71.36ZM81.983 71.756C81.455 71.756 80.975 71.564 80.543 71.18C80.135 70.796 79.931 70.244 79.931 69.524C79.931 69.044 80.003 68.36 80.147 67.472C80.315 66.56 80.495 65.588 80.687 64.556C80.903 63.524 81.119 62.54 81.335 61.604C81.551 60.668 81.707 59.924 81.803 59.372L82.811 54.26H80.147L80.291 53.18C81.395 52.748 82.463 52.184 83.495 51.488C84.551 50.768 85.451 49.988 86.195 49.148H87.167L86.483 52.64H89.291L88.967 54.26H86.087L83.531 66.824C83.435 67.208 83.363 67.556 83.315 67.868C83.267 68.156 83.231 68.432 83.207 68.696C83.183 69.296 83.279 69.728 83.495 69.992C83.735 70.232 84.191 70.28 84.863 70.136C84.695 70.496 84.467 70.796 84.179 71.036C83.915 71.276 83.603 71.456 83.243 71.576C82.883 71.696 82.463 71.756 81.983 71.756ZM91.4063 71.72C90.7343 71.72 90.2183 71.528 89.8583 71.144C89.5223 70.76 89.3543 70.244 89.3543 69.596C89.3543 69.356 89.3663 69.08 89.3903 68.768C89.4383 68.432 89.4863 68.096 89.5343 67.76C89.6063 67.4 89.6663 67.064 89.7143 66.752C89.7863 66.44 89.8463 66.164 89.8943 65.924L92.5943 52.64L95.9063 52.28L92.8103 67.652C92.7863 67.844 92.7503 68.096 92.7023 68.408C92.6543 68.72 92.6303 68.972 92.6303 69.164C92.6303 69.5 92.7023 69.764 92.8463 69.956C93.0143 70.124 93.2543 70.22 93.5663 70.244C93.4463 70.748 93.1823 71.12 92.7743 71.36C92.3663 71.6 91.9103 71.72 91.4063 71.72ZM95.1143 49.4C94.4423 49.4 93.8783 49.232 93.4223 48.896C92.9903 48.536 92.7743 48.008 92.7743 47.312C92.7743 46.568 93.0023 46.028 93.4583 45.692C93.9383 45.332 94.5143 45.152 95.1863 45.152C95.8823 45.152 96.4583 45.332 96.9143 45.692C97.3703 46.028 97.5983 46.544 97.5983 47.24C97.5983 47.984 97.3583 48.536 96.8783 48.896C96.3983 49.232 95.8103 49.4 95.1143 49.4ZM96.4187 78.2C95.4827 78.2 94.8467 78.02 94.5107 77.66C94.1747 77.3 93.9827 76.868 93.9347 76.364C94.6307 76.316 95.2187 76.172 95.6987 75.932C96.1787 75.716 96.5867 75.368 96.9227 74.888C97.2827 74.432 97.5827 73.832 97.8227 73.088C98.0627 72.368 98.2907 71.492 98.5067 70.46L101.675 54.26H99.1187L99.4427 52.64H101.927L102.395 50.768C102.755 49.256 103.295 48.092 104.015 47.276C104.759 46.46 105.695 45.896 106.823 45.584C107.951 45.248 109.283 45.08 110.819 45.08C111.467 45.08 112.163 45.116 112.907 45.188C113.651 45.26 114.335 45.392 114.959 45.584C115.607 45.776 116.135 46.064 116.543 46.448C116.951 46.808 117.155 47.3 117.155 47.924C117.155 48.404 117.023 48.824 116.759 49.184C116.519 49.52 116.183 49.784 115.751 49.976C115.319 50.168 114.827 50.264 114.275 50.264C114.107 50.264 113.843 50.252 113.483 50.228C113.123 50.204 112.859 50.144 112.691 50.048C113.075 49.424 113.267 48.872 113.267 48.392C113.267 47.696 112.955 47.24 112.331 47.024C111.731 46.784 111.035 46.664 110.243 46.664C108.947 46.664 107.903 46.94 107.111 47.492C106.343 48.02 105.851 48.932 105.635 50.228L105.239 52.64H115.751L112.691 67.652C112.667 67.844 112.631 68.096 112.583 68.408C112.535 68.72 112.511 68.972 112.511 69.164C112.511 69.5 112.595 69.764 112.763 69.956C112.931 70.124 113.183 70.22 113.519 70.244C113.375 70.748 113.087 71.12 112.655 71.36C112.247 71.6 111.803 71.72 111.323 71.72C110.651 71.72 110.135 71.528 109.775 71.144C109.415 70.76 109.235 70.244 109.235 69.596C109.235 69.356 109.259 69.08 109.307 68.768C109.355 68.432 109.403 68.096 109.451 67.76C109.523 67.4 109.595 67.064 109.667 66.752C109.739 66.44 109.799 66.164 109.847 65.924L112.151 54.26H104.915L101.495 71.792C101.279 73.016 100.943 74.108 100.487 75.068C100.031 76.052 99.4667 76.82 98.7947 77.372C98.1227 77.924 97.3307 78.2 96.4187 78.2ZM123.984 71.72C121.944 71.72 120.444 71.132 119.484 69.956C118.548 68.78 118.08 67.028 118.08 64.7C118.08 63.188 118.272 61.688 118.656 60.2C119.064 58.688 119.664 57.308 120.456 56.06C121.272 54.812 122.292 53.816 123.516 53.072C124.74 52.304 126.18 51.92 127.836 51.92C128.796 51.92 129.636 52.064 130.356 52.352C131.1 52.64 131.676 53.06 132.084 53.612C132.492 54.164 132.696 54.848 132.696 55.664C132.696 56.696 132.408 57.464 131.832 57.968C131.28 58.448 130.668 58.688 129.996 58.688C129.756 58.688 129.492 58.652 129.204 58.58C128.916 58.508 128.688 58.364 128.52 58.148C128.64 57.812 128.748 57.44 128.844 57.032C128.94 56.624 128.988 56.264 128.988 55.952C128.988 55.328 128.832 54.86 128.52 54.548C128.208 54.212 127.752 54.044 127.152 54.044C126.408 54.044 125.736 54.284 125.136 54.764C124.536 55.244 124.008 55.88 123.552 56.672C123.12 57.464 122.748 58.328 122.436 59.264C122.148 60.2 121.932 61.136 121.788 62.072C121.644 63.008 121.572 63.848 121.572 64.592C121.572 65.816 121.812 66.872 122.292 67.76C122.796 68.648 123.696 69.092 124.992 69.092C126.12 69.092 127.044 68.756 127.764 68.084C128.484 67.388 129 66.524 129.312 65.492C129.744 65.588 130.056 65.804 130.248 66.14C130.44 66.452 130.536 66.824 130.536 67.256C130.536 68.024 130.26 68.756 129.708 69.452C129.156 70.124 128.388 70.664 127.404 71.072C126.444 71.504 125.304 71.72 123.984 71.72ZM138.869 71.72C137.693 71.72 136.733 71.432 135.989 70.856C135.269 70.256 134.741 69.452 134.405 68.444C134.069 67.436 133.901 66.284 133.901 64.988C133.901 63.212 134.129 61.544 134.585 59.984C135.065 58.4 135.737 57.008 136.601 55.808C137.465 54.584 138.485 53.636 139.661 52.964C140.837 52.268 142.121 51.92 143.513 51.92C144.665 51.92 145.901 52.172 147.221 52.676L150.353 52.28L147.401 67.652C147.377 67.868 147.341 68.12 147.293 68.408C147.245 68.696 147.221 68.948 147.221 69.164C147.221 69.5 147.293 69.764 147.437 69.956C147.605 70.124 147.845 70.22 148.157 70.244C148.061 70.58 147.905 70.856 147.689 71.072C147.473 71.288 147.221 71.444 146.933 71.54C146.645 71.66 146.321 71.72 145.961 71.72C145.337 71.72 144.821 71.54 144.413 71.18C144.029 70.844 143.825 70.34 143.801 69.668C143.177 70.268 142.445 70.76 141.605 71.144C140.765 71.528 139.853 71.72 138.869 71.72ZM140.309 69.596C141.269 69.596 142.049 69.284 142.649 68.66C143.273 68.012 143.765 67.22 144.125 66.284C144.485 65.324 144.749 64.4 144.917 63.512L146.465 55.304C145.961 54.896 145.421 54.596 144.845 54.404C144.269 54.188 143.741 54.08 143.261 54.08C142.517 54.08 141.833 54.272 141.209 54.656C140.609 55.04 140.069 55.58 139.589 56.276C139.133 56.972 138.737 57.8 138.401 58.76C138.089 59.696 137.849 60.728 137.681 61.856C137.537 62.96 137.465 64.112 137.465 65.312C137.465 66.512 137.657 67.532 138.041 68.372C138.449 69.188 139.205 69.596 140.309 69.596ZM157.185 71.72C156.009 71.72 155.049 71.432 154.305 70.856C153.585 70.256 153.057 69.452 152.721 68.444C152.385 67.436 152.217 66.284 152.217 64.988C152.217 63.212 152.457 61.544 152.937 59.984C153.417 58.4 154.077 57.008 154.917 55.808C155.781 54.584 156.801 53.636 157.977 52.964C159.177 52.268 160.473 51.92 161.865 51.92C162.633 51.92 163.305 52.004 163.881 52.172C164.481 52.316 165.165 52.532 165.933 52.82L168.525 53.108C168.069 55.532 167.601 57.956 167.121 60.38C166.665 62.804 166.197 65.228 165.717 67.652C165.693 67.868 165.657 68.12 165.609 68.408C165.561 68.696 165.537 68.948 165.537 69.164C165.537 69.5 165.609 69.764 165.753 69.956C165.921 70.124 166.161 70.22 166.473 70.244C166.377 70.58 166.221 70.856 166.005 71.072C165.789 71.288 165.537 71.444 165.249 71.54C164.961 71.66 164.637 71.72 164.277 71.72C163.653 71.72 163.137 71.54 162.729 71.18C162.345 70.844 162.141 70.34 162.117 69.668C161.493 70.268 160.761 70.76 159.921 71.144C159.081 71.528 158.169 71.72 157.185 71.72ZM158.625 69.596C159.585 69.596 160.365 69.284 160.965 68.66C161.589 68.012 162.081 67.22 162.441 66.284C162.801 65.324 163.065 64.4 163.233 63.512L164.781 55.304C164.277 54.896 163.737 54.596 163.161 54.404C162.585 54.188 162.057 54.08 161.577 54.08C160.833 54.08 160.149 54.272 159.525 54.656C158.925 55.04 158.385 55.58 157.905 56.276C157.449 56.972 157.053 57.8 156.717 58.76C156.405 59.696 156.165 60.728 155.997 61.856C155.853 62.96 155.781 64.112 155.781 65.312C155.781 66.512 155.973 67.532 156.357 68.372C156.765 69.188 157.521 69.596 158.625 69.596ZM168.453 53.468L165.213 53.216C165.453 51.872 165.669 50.492 165.861 49.076C166.053 47.66 166.149 46.472 166.149 45.512C166.149 45.248 166.137 45.02 166.113 44.828C166.113 44.612 166.089 44.42 166.041 44.252C166.185 44.132 166.377 44.036 166.617 43.964C166.881 43.892 167.157 43.856 167.445 43.856C167.997 43.856 168.525 44.036 169.029 44.396C169.533 44.732 169.785 45.356 169.785 46.268C169.785 46.484 169.713 47 169.569 47.816C169.425 48.608 169.245 49.52 169.029 50.552C168.837 51.584 168.645 52.556 168.453 53.468ZM177.181 71.72C175.933 71.72 174.925 71.516 174.157 71.108C173.389 70.7 172.801 70.184 172.393 69.56C172.009 68.912 171.745 68.24 171.601 67.544C171.481 66.824 171.421 66.176 171.421 65.6C171.421 63.992 171.601 62.384 171.961 60.776C172.345 59.168 172.921 57.692 173.689 56.348C174.481 55.004 175.501 53.936 176.749 53.144C178.021 52.328 179.557 51.92 181.357 51.92C182.629 51.92 183.637 52.124 184.381 52.532C185.149 52.94 185.737 53.468 186.145 54.116C186.553 54.74 186.817 55.412 186.937 56.132C187.081 56.828 187.153 57.464 187.153 58.04C187.153 59.648 186.961 61.268 186.577 62.9C186.217 64.508 185.641 65.984 184.849 67.328C184.057 68.648 183.025 69.716 181.753 70.532C180.505 71.324 178.981 71.72 177.181 71.72ZM177.901 69.56C178.669 69.56 179.353 69.332 179.953 68.876C180.577 68.42 181.117 67.808 181.573 67.04C182.029 66.248 182.401 65.36 182.689 64.376C183.001 63.392 183.229 62.372 183.373 61.316C183.517 60.236 183.589 59.18 183.589 58.148C183.589 56.972 183.373 56 182.941 55.232C182.533 54.464 181.777 54.08 180.673 54.08C179.905 54.08 179.209 54.308 178.585 54.764C177.961 55.22 177.421 55.832 176.965 56.6C176.509 57.368 176.125 58.244 175.813 59.228C175.525 60.212 175.309 61.244 175.165 62.324C175.021 63.404 174.949 64.46 174.949 65.492C174.949 66.668 175.165 67.64 175.597 68.408C176.029 69.176 176.797 69.56 177.901 69.56Z" fill="#882F87"/>
<path d="M349.92 22H283.08C281.931 22 281 22.9312 281 24.0801V70.119C281 71.268 281.931 72.1991 283.08 72.1991H318.58V90.9198C318.58 91.761 319.087 92.5199 319.864 92.8417C320.641 93.1634 321.536 92.9858 322.131 92.3905L328.98 85.5414L335.83 92.3905C336.228 92.7886 336.76 92.9999 337.301 92.9999C337.569 92.9999 337.84 92.9479 338.097 92.8417C338.874 92.5194 339.381 91.761 339.381 90.9198V72.1991H349.92C351.069 72.1991 352 71.268 352 70.119V24.0801C352 22.9312 351.069 22 349.92 22ZM328.98 72.1991C323.246 72.1991 318.58 67.5336 318.58 61.7987C318.58 56.0639 323.246 51.3984 328.98 51.3984C334.715 51.3984 339.381 56.0639 339.381 61.7987C339.381 67.5336 334.715 72.1991 328.98 72.1991ZM330.451 81.1288C329.639 80.3163 328.322 80.3163 327.51 81.1288L322.74 85.8984V74.9525C324.633 75.8539 326.749 76.3593 328.98 76.3593C331.212 76.3593 333.328 75.8539 335.221 74.9525V85.8984L330.451 81.1288ZM347.84 68.039H342.134C343.035 66.1469 343.541 64.0305 343.541 61.7987C343.541 53.7699 337.009 47.2382 328.98 47.2382C320.952 47.2382 314.42 53.7699 314.42 61.7987C314.42 64.0305 314.925 66.1469 315.827 68.039H285.16V26.1601H347.84V68.039Z" fill="#882F87"/>
<path d="M328.98 55.5586C325.54 55.5586 322.74 58.358 322.74 61.7988C322.74 65.2396 325.54 68.0391 328.98 68.0391C332.421 68.0391 335.221 65.2396 335.221 61.7988C335.221 58.358 332.421 55.5586 328.98 55.5586ZM328.98 63.8789C327.834 63.8789 326.9 62.9461 326.9 61.7988C326.9 60.6521 327.834 59.7188 328.98 59.7188C330.127 59.7188 331.061 60.6521 331.061 61.7988C331.061 62.9461 330.127 63.8789 328.98 63.8789Z" fill="#AB74AE"/>
<path d="M304.02 34.7578H328.98C330.129 34.7578 331.061 33.8267 331.061 32.6777C331.061 31.5288 330.129 30.5977 328.98 30.5977H304.02C302.871 30.5977 301.939 31.5288 301.939 32.6777C301.939 33.8267 302.871 34.7578 304.02 34.7578Z" fill="#AB74AE"/>
<path d="M291.539 43.0781H341.461C342.61 43.0781 343.541 42.147 343.541 40.998C343.541 39.8491 342.61 38.918 341.461 38.918C340.809 38.918 292.203 38.918 291.539 38.918C290.39 38.918 289.459 39.8491 289.459 40.998C289.459 42.147 290.39 43.0781 291.539 43.0781Z" fill="#AB74AE"/>
<path d="M291.539 51.3984H312.34C313.489 51.3984 314.42 50.4673 314.42 49.3184C314.42 48.1694 313.489 47.2383 312.34 47.2383H291.539C290.39 47.2383 289.459 48.1694 289.459 49.3184C289.459 50.4673 290.39 51.3984 291.539 51.3984Z" fill="#AB74AE"/>
<path d="M291.539 59.7188H308.18C309.329 59.7188 310.26 58.7876 310.26 57.6387C310.26 56.4898 309.329 55.5586 308.18 55.5586H291.539C290.39 55.5586 289.459 56.4898 289.459 57.6387C289.459 58.7876 290.39 59.7188 291.539 59.7188Z" fill="#AB74AE"/>
</svg>
