<svg width="391" height="259" viewBox="0 0 391 259" fill="none" xmlns="http://www.w3.org/2000/svg">
<path opacity="0.5" d="M0 28H361C377.569 28 391 41.4315 391 58V239C391 250.046 382.046 259 371 259H20C8.95431 259 0 250.046 0 239V28Z" fill="#BDCFE8"/>
<path d="M39.796 105.72C39.052 105.72 38.512 105.432 38.176 104.856C37.864 104.256 37.672 103.44 37.6 102.408C37.528 101.376 37.492 100.2 37.492 98.88H30.652L27.808 105H23.812L35.656 81.24H40.264C40.456 86.112 40.6 90.192 40.696 93.48C40.792 96.744 40.924 99.264 41.092 101.04C41.284 102.792 41.596 103.848 42.028 104.208C41.908 104.64 41.632 105 41.2 105.288C40.768 105.576 40.3 105.72 39.796 105.72ZM31.84 96.396H37.492L37.204 83.724L31.84 96.396ZM50.8477 105.72C49.6477 105.72 48.6997 105.48 48.0037 105C47.3317 104.52 46.8517 103.884 46.5637 103.092C46.2997 102.276 46.1677 101.4 46.1677 100.464C46.1677 99.72 46.2637 98.784 46.4557 97.656C46.6477 96.528 46.9357 95.076 47.3197 93.3C47.7037 91.524 48.1957 89.304 48.7957 86.64L51.9277 86.28C51.3997 88.68 50.9677 90.66 50.6317 92.22C50.3197 93.756 50.0677 95.016 49.8757 96C49.7077 96.96 49.5877 97.752 49.5157 98.376C49.4677 98.976 49.4437 99.54 49.4437 100.068C49.4437 100.644 49.5157 101.208 49.6597 101.76C49.8277 102.288 50.1037 102.732 50.4877 103.092C50.8957 103.428 51.4357 103.596 52.1077 103.596C53.0197 103.596 53.7757 103.296 54.3757 102.696C54.9997 102.072 55.4917 101.292 55.8517 100.356C56.2357 99.42 56.5117 98.472 56.6797 97.512L58.8397 86.64L62.1157 86.28L59.1277 101.652C59.1037 101.868 59.0677 102.12 59.0197 102.408C58.9717 102.696 58.9477 102.948 58.9477 103.164C58.9477 103.5 59.0197 103.764 59.1637 103.956C59.3317 104.124 59.5717 104.22 59.8837 104.244C59.8117 104.58 59.6677 104.856 59.4517 105.072C59.2357 105.288 58.9837 105.444 58.6957 105.54C58.4077 105.66 58.0837 105.72 57.7237 105.72C57.0757 105.72 56.5597 105.54 56.1757 105.18C55.8157 104.844 55.5997 104.34 55.5277 103.668C55.0717 104.412 54.3877 104.94 53.4757 105.252C52.5877 105.564 51.7117 105.72 50.8477 105.72ZM66.3837 105.72C65.7117 105.72 65.1957 105.528 64.8357 105.144C64.4757 104.76 64.2957 104.244 64.2957 103.596C64.2957 103.404 64.3077 103.2 64.3317 102.984C64.3557 102.744 64.3917 102.42 64.4397 102.012C64.5117 101.604 64.6197 101.04 64.7637 100.32C64.9077 99.6 65.0877 98.676 65.3037 97.548C65.5437 96.396 65.8317 94.98 66.1677 93.3C66.5277 91.596 66.9477 89.568 67.4277 87.216C67.6677 85.872 67.8717 84.492 68.0397 83.076C68.2317 81.66 68.3277 80.472 68.3277 79.512C68.3277 79.248 68.3157 79.02 68.2917 78.828C68.2917 78.612 68.2677 78.42 68.2197 78.252C68.3637 78.132 68.5557 78.036 68.7957 77.964C69.0597 77.892 69.3357 77.856 69.6237 77.856C70.1757 77.856 70.7037 78.036 71.2077 78.396C71.7117 78.732 71.9637 79.356 71.9637 80.268C71.9637 80.436 71.9037 80.82 71.7837 81.42C71.6877 81.996 71.5557 82.68 71.3877 83.472C71.2437 84.264 71.0877 85.068 70.9197 85.884C70.7757 86.676 70.6437 87.372 70.5237 87.972C69.9237 90.876 69.4317 93.24 69.0477 95.064C68.6877 96.888 68.3997 98.328 68.1837 99.384C67.9917 100.416 67.8477 101.184 67.7517 101.688C67.6797 102.168 67.6317 102.504 67.6077 102.696C67.5837 102.864 67.5717 103.02 67.5717 103.164C67.5717 103.5 67.6437 103.764 67.7877 103.956C67.9557 104.124 68.1957 104.22 68.5077 104.244C68.4357 104.58 68.2917 104.856 68.0757 105.072C67.8597 105.288 67.6077 105.444 67.3197 105.54C67.0317 105.66 66.7197 105.72 66.3837 105.72ZM77.6343 105.72C76.4583 105.72 75.4983 105.432 74.7543 104.856C74.0343 104.256 73.5063 103.452 73.1703 102.444C72.8343 101.436 72.6663 100.284 72.6663 98.988C72.6663 97.212 72.8943 95.544 73.3503 93.984C73.8303 92.4 74.5023 91.008 75.3663 89.808C76.2303 88.584 77.2503 87.636 78.4263 86.964C79.6023 86.268 80.8863 85.92 82.2783 85.92C83.4303 85.92 84.6663 86.172 85.9863 86.676L89.1183 86.28L86.1663 101.652C86.1423 101.868 86.1063 102.12 86.0583 102.408C86.0103 102.696 85.9863 102.948 85.9863 103.164C85.9863 103.5 86.0583 103.764 86.2023 103.956C86.3703 104.124 86.6103 104.22 86.9223 104.244C86.8263 104.58 86.6703 104.856 86.4543 105.072C86.2383 105.288 85.9863 105.444 85.6983 105.54C85.4103 105.66 85.0863 105.72 84.7263 105.72C84.1023 105.72 83.5863 105.54 83.1783 105.18C82.7943 104.844 82.5903 104.34 82.5663 103.668C81.9423 104.268 81.2103 104.76 80.3703 105.144C79.5303 105.528 78.6183 105.72 77.6343 105.72ZM79.0743 103.596C80.0343 103.596 80.8143 103.284 81.4143 102.66C82.0383 102.012 82.5303 101.22 82.8903 100.284C83.2503 99.324 83.5143 98.4 83.6823 97.512L85.2303 89.304C84.7263 88.896 84.1863 88.596 83.6103 88.404C83.0343 88.188 82.5063 88.08 82.0263 88.08C81.2823 88.08 80.5983 88.272 79.9743 88.656C79.3743 89.04 78.8343 89.58 78.3543 90.276C77.8983 90.972 77.5023 91.8 77.1663 92.76C76.8543 93.696 76.6143 94.728 76.4463 95.856C76.3023 96.96 76.2303 98.112 76.2303 99.312C76.2303 100.512 76.4223 101.532 76.8063 102.372C77.2143 103.188 77.9703 103.596 79.0743 103.596ZM102.439 105.684C101.335 105.684 100.291 105.516 99.3068 105.18C98.3468 104.844 97.5668 104.328 96.9668 103.632C96.3668 102.936 96.0668 102.06 96.0668 101.004C96.0668 100.596 96.1268 100.272 96.2468 100.032C96.3668 99.768 96.5468 99.552 96.7868 99.384C97.5068 100.44 98.3108 101.268 99.1988 101.868C100.087 102.444 101.263 102.732 102.727 102.732C103.783 102.732 104.767 102.552 105.679 102.192C106.615 101.808 107.371 101.268 107.947 100.572C108.523 99.876 108.811 99.024 108.811 98.016C108.811 96.912 108.439 96.084 107.695 95.532C106.975 94.956 106.039 94.572 104.887 94.38C103.735 94.164 102.511 94.056 101.215 94.056L101.539 91.968C102.331 91.896 103.159 91.752 104.023 91.536C104.911 91.296 105.739 90.96 106.507 90.528C107.299 90.072 107.947 89.52 108.451 88.872C108.955 88.2 109.219 87.408 109.243 86.496C109.267 85.464 108.931 84.696 108.235 84.192C107.563 83.664 106.579 83.388 105.283 83.364C104.155 83.34 103.099 83.604 102.115 84.156C101.131 84.684 100.327 85.392 99.7028 86.28C99.4628 86.088 99.2828 85.86 99.1628 85.596C99.0428 85.332 98.9948 85.044 99.0188 84.732C99.0668 84.036 99.2948 83.424 99.7028 82.896C100.111 82.368 100.651 81.924 101.323 81.564C102.019 81.204 102.775 80.94 103.591 80.772C104.431 80.604 105.283 80.532 106.147 80.556C107.587 80.58 108.787 80.796 109.747 81.204C110.707 81.612 111.427 82.2 111.907 82.968C112.411 83.712 112.651 84.648 112.627 85.776C112.627 87.024 112.351 88.104 111.799 89.016C111.271 89.928 110.563 90.672 109.675 91.248C108.811 91.8 107.887 92.196 106.903 92.436C108.727 92.82 110.047 93.42 110.863 94.236C111.679 95.052 112.087 96.192 112.087 97.656C112.087 99.288 111.643 100.704 110.755 101.904C109.867 103.104 108.691 104.04 107.227 104.712C105.787 105.36 104.191 105.684 102.439 105.684Z" fill="#35609D"/>
<path d="M35.16 161.02L31.785 152.275C31.685 152.015 31.58 151.715 31.47 151.375C31.36 151.025 31.255 150.655 31.155 150.265C30.945 151.075 30.73 151.75 30.51 152.29L27.135 161.02H35.16ZM41.22 169H38.97C38.71 169 38.5 168.935 38.34 168.805C38.18 168.675 38.06 168.51 37.98 168.31L35.97 163.12H26.325L24.315 168.31C24.255 168.49 24.14 168.65 23.97 168.79C23.8 168.93 23.59 169 23.34 169H21.09L29.685 147.505H32.625L41.22 169ZM46.0441 165.34C46.5341 166 47.0691 166.465 47.6491 166.735C48.2391 167.005 48.8841 167.14 49.5841 167.14C51.0141 167.14 52.1091 166.635 52.8691 165.625C53.6291 164.615 54.0091 163.11 54.0091 161.11C54.0091 159.25 53.6691 157.885 52.9891 157.015C52.3191 156.135 51.3591 155.695 50.1091 155.695C49.2391 155.695 48.4791 155.895 47.8291 156.295C47.1891 156.695 46.5941 157.26 46.0441 157.99V165.34ZM46.0441 155.995C46.6841 155.255 47.4041 154.665 48.2041 154.225C49.0141 153.785 49.9441 153.565 50.9941 153.565C51.8841 153.565 52.6841 153.735 53.3941 154.075C54.1141 154.415 54.7241 154.91 55.2241 155.56C55.7241 156.2 56.1041 156.98 56.3641 157.9C56.6341 158.82 56.7691 159.855 56.7691 161.005C56.7691 162.235 56.6191 163.355 56.3191 164.365C56.0191 165.375 55.5841 166.24 55.0141 166.96C54.4541 167.67 53.7691 168.225 52.9591 168.625C52.1491 169.015 51.2391 169.21 50.2291 169.21C49.2291 169.21 48.3841 169.025 47.6941 168.655C47.0141 168.275 46.4191 167.74 45.9091 167.05L45.7741 168.43C45.6941 168.81 45.4641 169 45.0841 169H43.3591V146.905H46.0441V155.995ZM66.5513 153.565C67.6613 153.565 68.6613 153.75 69.5513 154.12C70.4413 154.49 71.2013 155.015 71.8313 155.695C72.4613 156.375 72.9413 157.2 73.2713 158.17C73.6113 159.13 73.7813 160.205 73.7813 161.395C73.7813 162.595 73.6113 163.675 73.2713 164.635C72.9413 165.595 72.4613 166.415 71.8313 167.095C71.2013 167.775 70.4413 168.3 69.5513 168.67C68.6613 169.03 67.6613 169.21 66.5513 169.21C65.4313 169.21 64.4213 169.03 63.5213 168.67C62.6313 168.3 61.8713 167.775 61.2413 167.095C60.6113 166.415 60.1263 165.595 59.7863 164.635C59.4563 163.675 59.2913 162.595 59.2913 161.395C59.2913 160.205 59.4563 159.13 59.7863 158.17C60.1263 157.2 60.6113 156.375 61.2413 155.695C61.8713 155.015 62.6313 154.49 63.5213 154.12C64.4213 153.75 65.4313 153.565 66.5513 153.565ZM66.5513 167.125C68.0513 167.125 69.1713 166.625 69.9113 165.625C70.6513 164.615 71.0213 163.21 71.0213 161.41C71.0213 159.6 70.6513 158.19 69.9113 157.18C69.1713 156.17 68.0513 155.665 66.5513 155.665C65.7913 155.665 65.1263 155.795 64.5563 156.055C63.9963 156.315 63.5263 156.69 63.1463 157.18C62.7763 157.67 62.4963 158.275 62.3063 158.995C62.1263 159.705 62.0363 160.51 62.0363 161.41C62.0363 163.21 62.4063 164.615 63.1463 165.625C63.8963 166.625 65.0313 167.125 66.5513 167.125ZM79.7027 156.85C80.1827 155.81 80.7727 155 81.4727 154.42C82.1727 153.83 83.0277 153.535 84.0377 153.535C84.3577 153.535 84.6627 153.57 84.9527 153.64C85.2527 153.71 85.5177 153.82 85.7477 153.97L85.5527 155.965C85.4927 156.215 85.3427 156.34 85.1027 156.34C84.9627 156.34 84.7577 156.31 84.4877 156.25C84.2177 156.19 83.9127 156.16 83.5727 156.16C83.0927 156.16 82.6627 156.23 82.2827 156.37C81.9127 156.51 81.5777 156.72 81.2777 157C80.9877 157.27 80.7227 157.61 80.4827 158.02C80.2527 158.42 80.0427 158.88 79.8527 159.4V169H77.1677V153.805H78.6977C78.9877 153.805 79.1877 153.86 79.2977 153.97C79.4077 154.08 79.4827 154.27 79.5227 154.54L79.7027 156.85ZM92.7605 169.24C91.5605 169.24 90.6355 168.905 89.9855 168.235C89.3455 167.565 89.0255 166.6 89.0255 165.34V156.04H87.1955C87.0355 156.04 86.9005 155.995 86.7905 155.905C86.6805 155.805 86.6255 155.655 86.6255 155.455V154.39L89.1155 154.075L89.7305 149.38C89.7605 149.23 89.8255 149.11 89.9255 149.02C90.0355 148.92 90.1755 148.87 90.3455 148.87H91.6955V154.105H96.0905V156.04H91.6955V165.16C91.6955 165.8 91.8505 166.275 92.1605 166.585C92.4705 166.895 92.8705 167.05 93.3605 167.05C93.6405 167.05 93.8805 167.015 94.0805 166.945C94.2905 166.865 94.4705 166.78 94.6205 166.69C94.7705 166.6 94.8955 166.52 94.9955 166.45C95.1055 166.37 95.2005 166.33 95.2805 166.33C95.4205 166.33 95.5455 166.415 95.6555 166.585L96.4355 167.86C95.9755 168.29 95.4205 168.63 94.7705 168.88C94.1205 169.12 93.4505 169.24 92.7605 169.24ZM107.082 162.16C105.852 162.2 104.802 162.3 103.932 162.46C103.072 162.61 102.367 162.81 101.817 163.06C101.277 163.31 100.882 163.605 100.632 163.945C100.392 164.285 100.272 164.665 100.272 165.085C100.272 165.485 100.337 165.83 100.467 166.12C100.597 166.41 100.772 166.65 100.992 166.84C101.222 167.02 101.487 167.155 101.787 167.245C102.097 167.325 102.427 167.365 102.777 167.365C103.247 167.365 103.677 167.32 104.067 167.23C104.457 167.13 104.822 166.99 105.162 166.81C105.512 166.63 105.842 166.415 106.152 166.165C106.472 165.915 106.782 165.63 107.082 165.31V162.16ZM98.4574 155.95C99.2974 155.14 100.202 154.535 101.172 154.135C102.142 153.735 103.217 153.535 104.397 153.535C105.247 153.535 106.002 153.675 106.662 153.955C107.322 154.235 107.877 154.625 108.327 155.125C108.777 155.625 109.117 156.23 109.347 156.94C109.577 157.65 109.692 158.43 109.692 159.28V169H108.507C108.247 169 108.047 168.96 107.907 168.88C107.767 168.79 107.657 168.62 107.577 168.37L107.277 166.93C106.877 167.3 106.487 167.63 106.107 167.92C105.727 168.2 105.327 168.44 104.907 168.64C104.487 168.83 104.037 168.975 103.557 169.075C103.087 169.185 102.562 169.24 101.982 169.24C101.392 169.24 100.837 169.16 100.317 169C99.7974 168.83 99.3424 168.58 98.9524 168.25C98.5724 167.92 98.2674 167.505 98.0374 167.005C97.8174 166.495 97.7074 165.895 97.7074 165.205C97.7074 164.605 97.8724 164.03 98.2024 163.48C98.5324 162.92 99.0674 162.425 99.8074 161.995C100.547 161.565 101.512 161.215 102.702 160.945C103.892 160.665 105.352 160.505 107.082 160.465V159.28C107.082 158.1 106.827 157.21 106.317 156.61C105.807 156 105.062 155.695 104.082 155.695C103.422 155.695 102.867 155.78 102.417 155.95C101.977 156.11 101.592 156.295 101.262 156.505C100.942 156.705 100.662 156.89 100.422 157.06C100.192 157.22 99.9624 157.3 99.7324 157.3C99.5524 157.3 99.3974 157.255 99.2674 157.165C99.1374 157.065 99.0274 156.945 98.9374 156.805L98.4574 155.95ZM113.76 169V153.805H115.365C115.745 153.805 115.98 153.99 116.07 154.36L116.265 155.92C116.825 155.23 117.455 154.665 118.155 154.225C118.855 153.785 119.665 153.565 120.585 153.565C121.605 153.565 122.43 153.85 123.06 154.42C123.7 154.99 124.16 155.76 124.44 156.73C124.66 156.18 124.94 155.705 125.28 155.305C125.63 154.905 126.02 154.575 126.45 154.315C126.88 154.055 127.335 153.865 127.815 153.745C128.305 153.625 128.8 153.565 129.3 153.565C130.1 153.565 130.81 153.695 131.43 153.955C132.06 154.205 132.59 154.575 133.02 155.065C133.46 155.555 133.795 156.16 134.025 156.88C134.255 157.59 134.37 158.405 134.37 159.325V169H131.685V159.325C131.685 158.135 131.425 157.235 130.905 156.625C130.385 156.005 129.635 155.695 128.655 155.695C128.215 155.695 127.795 155.775 127.395 155.935C127.005 156.085 126.66 156.31 126.36 156.61C126.06 156.91 125.82 157.29 125.64 157.75C125.47 158.2 125.385 158.725 125.385 159.325V169H122.7V159.325C122.7 158.105 122.455 157.195 121.965 156.595C121.475 155.995 120.76 155.695 119.82 155.695C119.16 155.695 118.55 155.875 117.99 156.235C117.43 156.585 116.915 157.065 116.445 157.675V169H113.76ZM148.598 159.745C148.598 159.125 148.508 158.56 148.328 158.05C148.158 157.53 147.903 157.085 147.563 156.715C147.233 156.335 146.828 156.045 146.348 155.845C145.868 155.635 145.323 155.53 144.713 155.53C143.433 155.53 142.418 155.905 141.668 156.655C140.928 157.395 140.468 158.425 140.288 159.745H148.598ZM150.758 166.87C150.428 167.27 150.033 167.62 149.573 167.92C149.113 168.21 148.618 168.45 148.088 168.64C147.568 168.83 147.028 168.97 146.468 169.06C145.908 169.16 145.353 169.21 144.803 169.21C143.753 169.21 142.783 169.035 141.893 168.685C141.013 168.325 140.248 167.805 139.598 167.125C138.958 166.435 138.458 165.585 138.098 164.575C137.738 163.565 137.558 162.405 137.558 161.095C137.558 160.035 137.718 159.045 138.038 158.125C138.368 157.205 138.838 156.41 139.448 155.74C140.058 155.06 140.803 154.53 141.683 154.15C142.563 153.76 143.553 153.565 144.653 153.565C145.563 153.565 146.403 153.72 147.173 154.03C147.953 154.33 148.623 154.77 149.183 155.35C149.753 155.92 150.198 156.63 150.518 157.48C150.838 158.32 150.998 159.28 150.998 160.36C150.998 160.78 150.953 161.06 150.863 161.2C150.773 161.34 150.603 161.41 150.353 161.41H140.198C140.228 162.37 140.358 163.205 140.588 163.915C140.828 164.625 141.158 165.22 141.578 165.7C141.998 166.17 142.498 166.525 143.078 166.765C143.658 166.995 144.308 167.11 145.028 167.11C145.698 167.11 146.273 167.035 146.753 166.885C147.243 166.725 147.663 166.555 148.013 166.375C148.363 166.195 148.653 166.03 148.883 165.88C149.123 165.72 149.328 165.64 149.498 165.64C149.718 165.64 149.888 165.725 150.008 165.895L150.758 166.87ZM156.797 156.01C157.127 155.64 157.477 155.305 157.847 155.005C158.217 154.705 158.607 154.45 159.017 154.24C159.437 154.02 159.877 153.855 160.337 153.745C160.807 153.625 161.312 153.565 161.852 153.565C162.682 153.565 163.412 153.705 164.042 153.985C164.682 154.255 165.212 154.645 165.632 155.155C166.062 155.655 166.387 156.26 166.607 156.97C166.827 157.68 166.937 158.465 166.937 159.325V169H164.252V159.325C164.252 158.175 163.987 157.285 163.457 156.655C162.937 156.015 162.142 155.695 161.072 155.695C160.282 155.695 159.542 155.885 158.852 156.265C158.172 156.645 157.542 157.16 156.962 157.81V169H154.277V153.805H155.882C156.262 153.805 156.497 153.99 156.587 154.36L156.797 156.01ZM175.466 169.24C174.266 169.24 173.341 168.905 172.691 168.235C172.051 167.565 171.731 166.6 171.731 165.34V156.04H169.901C169.741 156.04 169.606 155.995 169.496 155.905C169.386 155.805 169.331 155.655 169.331 155.455V154.39L171.821 154.075L172.436 149.38C172.466 149.23 172.531 149.11 172.631 149.02C172.741 148.92 172.881 148.87 173.051 148.87H174.401V154.105H178.796V156.04H174.401V165.16C174.401 165.8 174.556 166.275 174.866 166.585C175.176 166.895 175.576 167.05 176.066 167.05C176.346 167.05 176.586 167.015 176.786 166.945C176.996 166.865 177.176 166.78 177.326 166.69C177.476 166.6 177.601 166.52 177.701 166.45C177.811 166.37 177.906 166.33 177.986 166.33C178.126 166.33 178.251 166.415 178.361 166.585L179.141 167.86C178.681 168.29 178.126 168.63 177.476 168.88C176.826 169.12 176.156 169.24 175.466 169.24ZM187.87 153.565C188.98 153.565 189.98 153.75 190.87 154.12C191.76 154.49 192.52 155.015 193.15 155.695C193.78 156.375 194.26 157.2 194.59 158.17C194.93 159.13 195.1 160.205 195.1 161.395C195.1 162.595 194.93 163.675 194.59 164.635C194.26 165.595 193.78 166.415 193.15 167.095C192.52 167.775 191.76 168.3 190.87 168.67C189.98 169.03 188.98 169.21 187.87 169.21C186.75 169.21 185.74 169.03 184.84 168.67C183.95 168.3 183.19 167.775 182.56 167.095C181.93 166.415 181.445 165.595 181.105 164.635C180.775 163.675 180.61 162.595 180.61 161.395C180.61 160.205 180.775 159.13 181.105 158.17C181.445 157.2 181.93 156.375 182.56 155.695C183.19 155.015 183.95 154.49 184.84 154.12C185.74 153.75 186.75 153.565 187.87 153.565ZM187.87 167.125C189.37 167.125 190.49 166.625 191.23 165.625C191.97 164.615 192.34 163.21 192.34 161.41C192.34 159.6 191.97 158.19 191.23 157.18C190.49 156.17 189.37 155.665 187.87 155.665C187.11 155.665 186.445 155.795 185.875 156.055C185.315 156.315 184.845 156.69 184.465 157.18C184.095 157.67 183.815 158.275 183.625 158.995C183.445 159.705 183.355 160.51 183.355 161.41C183.355 163.21 183.725 164.615 184.465 165.625C185.215 166.625 186.35 167.125 187.87 167.125ZM216.332 159.745C216.332 159.125 216.242 158.56 216.062 158.05C215.892 157.53 215.637 157.085 215.297 156.715C214.967 156.335 214.562 156.045 214.082 155.845C213.602 155.635 213.057 155.53 212.447 155.53C211.167 155.53 210.152 155.905 209.402 156.655C208.662 157.395 208.202 158.425 208.022 159.745H216.332ZM218.492 166.87C218.162 167.27 217.767 167.62 217.307 167.92C216.847 168.21 216.352 168.45 215.822 168.64C215.302 168.83 214.762 168.97 214.202 169.06C213.642 169.16 213.087 169.21 212.537 169.21C211.487 169.21 210.517 169.035 209.627 168.685C208.747 168.325 207.982 167.805 207.332 167.125C206.692 166.435 206.192 165.585 205.832 164.575C205.472 163.565 205.292 162.405 205.292 161.095C205.292 160.035 205.452 159.045 205.772 158.125C206.102 157.205 206.572 156.41 207.182 155.74C207.792 155.06 208.537 154.53 209.417 154.15C210.297 153.76 211.287 153.565 212.387 153.565C213.297 153.565 214.137 153.72 214.907 154.03C215.687 154.33 216.357 154.77 216.917 155.35C217.487 155.92 217.932 156.63 218.252 157.48C218.572 158.32 218.732 159.28 218.732 160.36C218.732 160.78 218.687 161.06 218.597 161.2C218.507 161.34 218.337 161.41 218.087 161.41H207.932C207.962 162.37 208.092 163.205 208.322 163.915C208.562 164.625 208.892 165.22 209.312 165.7C209.732 166.17 210.232 166.525 210.812 166.765C211.392 166.995 212.042 167.11 212.762 167.11C213.432 167.11 214.007 167.035 214.487 166.885C214.977 166.725 215.397 166.555 215.747 166.375C216.097 166.195 216.387 166.03 216.617 165.88C216.857 165.72 217.062 165.64 217.232 165.64C217.452 165.64 217.622 165.725 217.742 165.895L218.492 166.87ZM33.285 201.745C33.285 201.125 33.195 200.56 33.015 200.05C32.845 199.53 32.59 199.085 32.25 198.715C31.92 198.335 31.515 198.045 31.035 197.845C30.555 197.635 30.01 197.53 29.4 197.53C28.12 197.53 27.105 197.905 26.355 198.655C25.615 199.395 25.155 200.425 24.975 201.745H33.285ZM35.445 208.87C35.115 209.27 34.72 209.62 34.26 209.92C33.8 210.21 33.305 210.45 32.775 210.64C32.255 210.83 31.715 210.97 31.155 211.06C30.595 211.16 30.04 211.21 29.49 211.21C28.44 211.21 27.47 211.035 26.58 210.685C25.7 210.325 24.935 209.805 24.285 209.125C23.645 208.435 23.145 207.585 22.785 206.575C22.425 205.565 22.245 204.405 22.245 203.095C22.245 202.035 22.405 201.045 22.725 200.125C23.055 199.205 23.525 198.41 24.135 197.74C24.745 197.06 25.49 196.53 26.37 196.15C27.25 195.76 28.24 195.565 29.34 195.565C30.25 195.565 31.09 195.72 31.86 196.03C32.64 196.33 33.31 196.77 33.87 197.35C34.44 197.92 34.885 198.63 35.205 199.48C35.525 200.32 35.685 201.28 35.685 202.36C35.685 202.78 35.64 203.06 35.55 203.2C35.46 203.34 35.29 203.41 35.04 203.41H24.885C24.915 204.37 25.045 205.205 25.275 205.915C25.515 206.625 25.845 207.22 26.265 207.7C26.685 208.17 27.185 208.525 27.765 208.765C28.345 208.995 28.995 209.11 29.715 209.11C30.385 209.11 30.96 209.035 31.44 208.885C31.93 208.725 32.35 208.555 32.7 208.375C33.05 208.195 33.34 208.03 33.57 207.88C33.81 207.72 34.015 207.64 34.185 207.64C34.405 207.64 34.575 207.725 34.695 207.895L35.445 208.87ZM51.6623 195.805L45.4673 211H43.0673L36.8723 195.805H39.0473C39.2673 195.805 39.4473 195.86 39.5873 195.97C39.7273 196.08 39.8223 196.21 39.8723 196.36L43.7273 206.14C43.8473 206.51 43.9523 206.87 44.0423 207.22C44.1323 207.57 44.2173 207.92 44.2973 208.27C44.3773 207.92 44.4623 207.57 44.5523 207.22C44.6423 206.87 44.7523 206.51 44.8823 206.14L48.7823 196.36C48.8423 196.2 48.9423 196.07 49.0823 195.97C49.2223 195.86 49.3873 195.805 49.5773 195.805H51.6623ZM56.9311 195.805V211H54.2611V195.805H56.9311ZM57.5011 191.035C57.5011 191.295 57.4461 191.54 57.3361 191.77C57.2361 191.99 57.0961 192.19 56.9161 192.37C56.7461 192.54 56.5411 192.675 56.3011 192.775C56.0711 192.875 55.8261 192.925 55.5661 192.925C55.3061 192.925 55.0611 192.875 54.8311 192.775C54.6111 192.675 54.4161 192.54 54.2461 192.37C54.0761 192.19 53.9411 191.99 53.8411 191.77C53.7411 191.54 53.6911 191.295 53.6911 191.035C53.6911 190.775 53.7411 190.53 53.8411 190.3C53.9411 190.06 54.0761 189.855 54.2461 189.685C54.4161 189.505 54.6111 189.365 54.8311 189.265C55.0611 189.165 55.3061 189.115 55.5661 189.115C55.8261 189.115 56.0711 189.165 56.3011 189.265C56.5411 189.365 56.7461 189.505 56.9161 189.685C57.0961 189.855 57.2361 190.06 57.3361 190.3C57.4461 190.53 57.5011 190.775 57.5011 191.035ZM71.2181 199.42C70.7181 198.75 70.1781 198.285 69.5981 198.025C69.0181 197.755 68.3681 197.62 67.6481 197.62C66.2381 197.62 65.1531 198.125 64.3931 199.135C63.6331 200.145 63.2531 201.585 63.2531 203.455C63.2531 204.445 63.3381 205.295 63.5081 206.005C63.6781 206.705 63.9281 207.285 64.2581 207.745C64.5881 208.195 64.9931 208.525 65.4731 208.735C65.9531 208.945 66.4981 209.05 67.1081 209.05C67.9881 209.05 68.7531 208.85 69.4031 208.45C70.0631 208.05 70.6681 207.485 71.2181 206.755V199.42ZM73.8881 188.905V211H72.2981C71.9181 211 71.6781 210.815 71.5781 210.445L71.3381 208.6C70.6881 209.38 69.9481 210.01 69.1181 210.49C68.2881 210.97 67.3281 211.21 66.2381 211.21C65.3681 211.21 64.5781 211.045 63.8681 210.715C63.1581 210.375 62.5531 209.88 62.0531 209.23C61.5531 208.58 61.1681 207.77 60.8981 206.8C60.6281 205.83 60.4931 204.715 60.4931 203.455C60.4931 202.335 60.6431 201.295 60.9431 200.335C61.2431 199.365 61.6731 198.525 62.2331 197.815C62.7931 197.105 63.4781 196.55 64.2881 196.15C65.1081 195.74 66.0281 195.535 67.0481 195.535C67.9781 195.535 68.7731 195.695 69.4331 196.015C70.1031 196.325 70.6981 196.76 71.2181 197.32V188.905H73.8881ZM88.2752 201.745C88.2752 201.125 88.1852 200.56 88.0052 200.05C87.8352 199.53 87.5802 199.085 87.2402 198.715C86.9102 198.335 86.5052 198.045 86.0252 197.845C85.5452 197.635 85.0002 197.53 84.3902 197.53C83.1102 197.53 82.0952 197.905 81.3452 198.655C80.6052 199.395 80.1452 200.425 79.9652 201.745H88.2752ZM90.4352 208.87C90.1052 209.27 89.7102 209.62 89.2502 209.92C88.7902 210.21 88.2952 210.45 87.7652 210.64C87.2452 210.83 86.7052 210.97 86.1452 211.06C85.5852 211.16 85.0302 211.21 84.4802 211.21C83.4302 211.21 82.4602 211.035 81.5702 210.685C80.6902 210.325 79.9252 209.805 79.2752 209.125C78.6352 208.435 78.1352 207.585 77.7752 206.575C77.4152 205.565 77.2352 204.405 77.2352 203.095C77.2352 202.035 77.3952 201.045 77.7152 200.125C78.0452 199.205 78.5152 198.41 79.1252 197.74C79.7352 197.06 80.4802 196.53 81.3602 196.15C82.2402 195.76 83.2302 195.565 84.3302 195.565C85.2402 195.565 86.0802 195.72 86.8502 196.03C87.6302 196.33 88.3002 196.77 88.8602 197.35C89.4302 197.92 89.8752 198.63 90.1952 199.48C90.5152 200.32 90.6752 201.28 90.6752 202.36C90.6752 202.78 90.6302 203.06 90.5402 203.2C90.4502 203.34 90.2802 203.41 90.0302 203.41H79.8752C79.9052 204.37 80.0352 205.205 80.2652 205.915C80.5052 206.625 80.8352 207.22 81.2552 207.7C81.6752 208.17 82.1752 208.525 82.7552 208.765C83.3352 208.995 83.9852 209.11 84.7052 209.11C85.3752 209.11 85.9502 209.035 86.4302 208.885C86.9202 208.725 87.3402 208.555 87.6902 208.375C88.0402 208.195 88.3302 208.03 88.5602 207.88C88.8002 207.72 89.0052 207.64 89.1752 207.64C89.3952 207.64 89.5652 207.725 89.6852 207.895L90.4352 208.87ZM88.9802 193.465H87.1952C87.0852 193.465 86.9702 193.445 86.8502 193.405C86.7402 193.365 86.6302 193.29 86.5202 193.18L84.6752 191.2C84.5852 191.12 84.5052 191.025 84.4352 190.915C84.3852 190.965 84.3402 191.015 84.3002 191.065C84.2602 191.115 84.2202 191.16 84.1802 191.2L82.3202 193.18C82.1102 193.37 81.8852 193.465 81.6452 193.465H79.8002L83.1452 189.505H85.6352L88.9802 193.465ZM96.4748 198.01C96.8048 197.64 97.1548 197.305 97.5248 197.005C97.8948 196.705 98.2848 196.45 98.6948 196.24C99.1148 196.02 99.5548 195.855 100.015 195.745C100.485 195.625 100.99 195.565 101.53 195.565C102.36 195.565 103.09 195.705 103.72 195.985C104.36 196.255 104.89 196.645 105.31 197.155C105.74 197.655 106.065 198.26 106.285 198.97C106.505 199.68 106.615 200.465 106.615 201.325V211H103.93V201.325C103.93 200.175 103.665 199.285 103.135 198.655C102.615 198.015 101.82 197.695 100.75 197.695C99.9598 197.695 99.2198 197.885 98.5298 198.265C97.8498 198.645 97.2198 199.16 96.6398 199.81V211H93.9548V195.805H95.5598C95.9398 195.805 96.1748 195.99 96.2648 196.36L96.4748 198.01ZM121.258 198.505C121.178 198.615 121.098 198.7 121.018 198.76C120.938 198.82 120.828 198.85 120.688 198.85C120.538 198.85 120.373 198.79 120.193 198.67C120.013 198.54 119.788 198.4 119.518 198.25C119.258 198.1 118.933 197.965 118.543 197.845C118.163 197.715 117.693 197.65 117.133 197.65C116.383 197.65 115.723 197.785 115.153 198.055C114.583 198.315 114.103 198.695 113.713 199.195C113.333 199.695 113.043 200.3 112.843 201.01C112.653 201.72 112.558 202.515 112.558 203.395C112.558 204.315 112.663 205.135 112.873 205.855C113.083 206.565 113.378 207.165 113.758 207.655C114.148 208.135 114.613 208.505 115.153 208.765C115.703 209.015 116.318 209.14 116.998 209.14C117.648 209.14 118.183 209.065 118.603 208.915C119.023 208.755 119.368 208.58 119.638 208.39C119.918 208.2 120.148 208.03 120.328 207.88C120.518 207.72 120.703 207.64 120.883 207.64C121.103 207.64 121.273 207.725 121.393 207.895L122.143 208.87C121.813 209.28 121.438 209.63 121.018 209.92C120.598 210.21 120.143 210.455 119.653 210.655C119.173 210.845 118.668 210.985 118.138 211.075C117.608 211.165 117.068 211.21 116.518 211.21C115.568 211.21 114.683 211.035 113.863 210.685C113.053 210.335 112.348 209.83 111.748 209.17C111.148 208.5 110.678 207.68 110.338 206.71C109.998 205.74 109.828 204.635 109.828 203.395C109.828 202.265 109.983 201.22 110.293 200.26C110.613 199.3 111.073 198.475 111.673 197.785C112.283 197.085 113.028 196.54 113.908 196.15C114.798 195.76 115.818 195.565 116.968 195.565C118.038 195.565 118.978 195.74 119.788 196.09C120.608 196.43 121.333 196.915 121.963 197.545L121.258 198.505ZM127.83 195.805V211H125.16V195.805H127.83ZM128.4 191.035C128.4 191.295 128.345 191.54 128.235 191.77C128.135 191.99 127.995 192.19 127.815 192.37C127.645 192.54 127.44 192.675 127.2 192.775C126.97 192.875 126.725 192.925 126.465 192.925C126.205 192.925 125.96 192.875 125.73 192.775C125.51 192.675 125.315 192.54 125.145 192.37C124.975 192.19 124.84 191.99 124.74 191.77C124.64 191.54 124.59 191.295 124.59 191.035C124.59 190.775 124.64 190.53 124.74 190.3C124.84 190.06 124.975 189.855 125.145 189.685C125.315 189.505 125.51 189.365 125.73 189.265C125.96 189.165 126.205 189.115 126.465 189.115C126.725 189.115 126.97 189.165 127.2 189.265C127.44 189.365 127.645 189.505 127.815 189.685C127.995 189.855 128.135 190.06 128.235 190.3C128.345 190.53 128.4 190.775 128.4 191.035ZM140.452 204.16C139.222 204.2 138.172 204.3 137.302 204.46C136.442 204.61 135.737 204.81 135.187 205.06C134.647 205.31 134.252 205.605 134.002 205.945C133.762 206.285 133.642 206.665 133.642 207.085C133.642 207.485 133.707 207.83 133.837 208.12C133.967 208.41 134.142 208.65 134.362 208.84C134.592 209.02 134.857 209.155 135.157 209.245C135.467 209.325 135.797 209.365 136.147 209.365C136.617 209.365 137.047 209.32 137.437 209.23C137.827 209.13 138.192 208.99 138.532 208.81C138.882 208.63 139.212 208.415 139.522 208.165C139.842 207.915 140.152 207.63 140.452 207.31V204.16ZM131.827 197.95C132.667 197.14 133.572 196.535 134.542 196.135C135.512 195.735 136.587 195.535 137.767 195.535C138.617 195.535 139.372 195.675 140.032 195.955C140.692 196.235 141.247 196.625 141.697 197.125C142.147 197.625 142.487 198.23 142.717 198.94C142.947 199.65 143.062 200.43 143.062 201.28V211H141.877C141.617 211 141.417 210.96 141.277 210.88C141.137 210.79 141.027 210.62 140.947 210.37L140.647 208.93C140.247 209.3 139.857 209.63 139.477 209.92C139.097 210.2 138.697 210.44 138.277 210.64C137.857 210.83 137.407 210.975 136.927 211.075C136.457 211.185 135.932 211.24 135.352 211.24C134.762 211.24 134.207 211.16 133.687 211C133.167 210.83 132.712 210.58 132.322 210.25C131.942 209.92 131.637 209.505 131.407 209.005C131.187 208.495 131.077 207.895 131.077 207.205C131.077 206.605 131.242 206.03 131.572 205.48C131.902 204.92 132.437 204.425 133.177 203.995C133.917 203.565 134.882 203.215 136.072 202.945C137.262 202.665 138.722 202.505 140.452 202.465V201.28C140.452 200.1 140.197 199.21 139.687 198.61C139.177 198 138.432 197.695 137.452 197.695C136.792 197.695 136.237 197.78 135.787 197.95C135.347 198.11 134.962 198.295 134.632 198.505C134.312 198.705 134.032 198.89 133.792 199.06C133.562 199.22 133.332 199.3 133.102 199.3C132.922 199.3 132.767 199.255 132.637 199.165C132.507 199.065 132.397 198.945 132.307 198.805L131.827 197.95ZM155.979 198.31C155.859 198.53 155.674 198.64 155.424 198.64C155.274 198.64 155.104 198.585 154.914 198.475C154.724 198.365 154.489 198.245 154.209 198.115C153.939 197.975 153.614 197.85 153.234 197.74C152.854 197.62 152.404 197.56 151.884 197.56C151.434 197.56 151.029 197.62 150.669 197.74C150.309 197.85 149.999 198.005 149.739 198.205C149.489 198.405 149.294 198.64 149.154 198.91C149.024 199.17 148.959 199.455 148.959 199.765C148.959 200.155 149.069 200.48 149.289 200.74C149.519 201 149.819 201.225 150.189 201.415C150.559 201.605 150.979 201.775 151.449 201.925C151.919 202.065 152.399 202.22 152.889 202.39C153.389 202.55 153.874 202.73 154.344 202.93C154.814 203.13 155.234 203.38 155.604 203.68C155.974 203.98 156.269 204.35 156.489 204.79C156.719 205.22 156.834 205.74 156.834 206.35C156.834 207.05 156.709 207.7 156.459 208.3C156.209 208.89 155.839 209.405 155.349 209.845C154.859 210.275 154.259 210.615 153.549 210.865C152.839 211.115 152.019 211.24 151.089 211.24C150.029 211.24 149.069 211.07 148.209 210.73C147.349 210.38 146.619 209.935 146.019 209.395L146.649 208.375C146.729 208.245 146.824 208.145 146.934 208.075C147.044 208.005 147.184 207.97 147.354 207.97C147.534 207.97 147.724 208.04 147.924 208.18C148.124 208.32 148.364 208.475 148.644 208.645C148.934 208.815 149.284 208.97 149.694 209.11C150.104 209.25 150.614 209.32 151.224 209.32C151.744 209.32 152.199 209.255 152.589 209.125C152.979 208.985 153.304 208.8 153.564 208.57C153.824 208.34 154.014 208.075 154.134 207.775C154.264 207.475 154.329 207.155 154.329 206.815C154.329 206.395 154.214 206.05 153.984 205.78C153.764 205.5 153.469 205.265 153.099 205.075C152.729 204.875 152.304 204.705 151.824 204.565C151.354 204.415 150.869 204.26 150.369 204.1C149.879 203.94 149.394 203.76 148.914 203.56C148.444 203.35 148.024 203.09 147.654 202.78C147.284 202.47 146.984 202.09 146.754 201.64C146.534 201.18 146.424 200.625 146.424 199.975C146.424 199.395 146.544 198.84 146.784 198.31C147.024 197.77 147.374 197.3 147.834 196.9C148.294 196.49 148.859 196.165 149.529 195.925C150.199 195.685 150.964 195.565 151.824 195.565C152.824 195.565 153.719 195.725 154.509 196.045C155.309 196.355 155.999 196.785 156.579 197.335L155.979 198.31ZM178.358 198.505C178.278 198.615 178.198 198.7 178.118 198.76C178.038 198.82 177.928 198.85 177.788 198.85C177.638 198.85 177.473 198.79 177.293 198.67C177.113 198.54 176.888 198.4 176.618 198.25C176.358 198.1 176.033 197.965 175.643 197.845C175.263 197.715 174.793 197.65 174.233 197.65C173.483 197.65 172.823 197.785 172.253 198.055C171.683 198.315 171.203 198.695 170.813 199.195C170.433 199.695 170.143 200.3 169.943 201.01C169.753 201.72 169.658 202.515 169.658 203.395C169.658 204.315 169.763 205.135 169.973 205.855C170.183 206.565 170.478 207.165 170.858 207.655C171.248 208.135 171.713 208.505 172.253 208.765C172.803 209.015 173.418 209.14 174.098 209.14C174.748 209.14 175.283 209.065 175.703 208.915C176.123 208.755 176.468 208.58 176.738 208.39C177.018 208.2 177.248 208.03 177.428 207.88C177.618 207.72 177.803 207.64 177.983 207.64C178.203 207.64 178.373 207.725 178.493 207.895L179.243 208.87C178.913 209.28 178.538 209.63 178.118 209.92C177.698 210.21 177.243 210.455 176.753 210.655C176.273 210.845 175.768 210.985 175.238 211.075C174.708 211.165 174.168 211.21 173.618 211.21C172.668 211.21 171.783 211.035 170.963 210.685C170.153 210.335 169.448 209.83 168.848 209.17C168.248 208.5 167.778 207.68 167.438 206.71C167.098 205.74 166.928 204.635 166.928 203.395C166.928 202.265 167.083 201.22 167.393 200.26C167.713 199.3 168.173 198.475 168.773 197.785C169.383 197.085 170.128 196.54 171.008 196.15C171.898 195.76 172.918 195.565 174.068 195.565C175.138 195.565 176.078 195.74 176.888 196.09C177.708 196.43 178.433 196.915 179.063 197.545L178.358 198.505ZM184.929 195.805V211H182.259V195.805H184.929ZM185.499 191.035C185.499 191.295 185.444 191.54 185.334 191.77C185.234 191.99 185.094 192.19 184.914 192.37C184.744 192.54 184.539 192.675 184.299 192.775C184.069 192.875 183.824 192.925 183.564 192.925C183.304 192.925 183.059 192.875 182.829 192.775C182.609 192.675 182.414 192.54 182.244 192.37C182.074 192.19 181.939 191.99 181.839 191.77C181.739 191.54 181.689 191.295 181.689 191.035C181.689 190.775 181.739 190.53 181.839 190.3C181.939 190.06 182.074 189.855 182.244 189.685C182.414 189.505 182.609 189.365 182.829 189.265C183.059 189.165 183.304 189.115 183.564 189.115C183.824 189.115 184.069 189.165 184.299 189.265C184.539 189.365 184.744 189.505 184.914 189.685C185.094 189.855 185.234 190.06 185.334 190.3C185.444 190.53 185.499 190.775 185.499 191.035ZM199.486 201.745C199.486 201.125 199.396 200.56 199.216 200.05C199.046 199.53 198.791 199.085 198.451 198.715C198.121 198.335 197.716 198.045 197.236 197.845C196.756 197.635 196.211 197.53 195.601 197.53C194.321 197.53 193.306 197.905 192.556 198.655C191.816 199.395 191.356 200.425 191.176 201.745H199.486ZM201.646 208.87C201.316 209.27 200.921 209.62 200.461 209.92C200.001 210.21 199.506 210.45 198.976 210.64C198.456 210.83 197.916 210.97 197.356 211.06C196.796 211.16 196.241 211.21 195.691 211.21C194.641 211.21 193.671 211.035 192.781 210.685C191.901 210.325 191.136 209.805 190.486 209.125C189.846 208.435 189.346 207.585 188.986 206.575C188.626 205.565 188.446 204.405 188.446 203.095C188.446 202.035 188.606 201.045 188.926 200.125C189.256 199.205 189.726 198.41 190.336 197.74C190.946 197.06 191.691 196.53 192.571 196.15C193.451 195.76 194.441 195.565 195.541 195.565C196.451 195.565 197.291 195.72 198.061 196.03C198.841 196.33 199.511 196.77 200.071 197.35C200.641 197.92 201.086 198.63 201.406 199.48C201.726 200.32 201.886 201.28 201.886 202.36C201.886 202.78 201.841 203.06 201.751 203.2C201.661 203.34 201.491 203.41 201.241 203.41H191.086C191.116 204.37 191.246 205.205 191.476 205.915C191.716 206.625 192.046 207.22 192.466 207.7C192.886 208.17 193.386 208.525 193.966 208.765C194.546 208.995 195.196 209.11 195.916 209.11C196.586 209.11 197.161 209.035 197.641 208.885C198.131 208.725 198.551 208.555 198.901 208.375C199.251 208.195 199.541 208.03 199.771 207.88C200.011 207.72 200.216 207.64 200.386 207.64C200.606 207.64 200.776 207.725 200.896 207.895L201.646 208.87ZM207.686 198.01C208.016 197.64 208.366 197.305 208.736 197.005C209.106 196.705 209.496 196.45 209.906 196.24C210.326 196.02 210.766 195.855 211.226 195.745C211.696 195.625 212.201 195.565 212.741 195.565C213.571 195.565 214.301 195.705 214.931 195.985C215.571 196.255 216.101 196.645 216.521 197.155C216.951 197.655 217.276 198.26 217.496 198.97C217.716 199.68 217.826 200.465 217.826 201.325V211H215.141V201.325C215.141 200.175 214.876 199.285 214.346 198.655C213.826 198.015 213.031 197.695 211.961 197.695C211.171 197.695 210.431 197.885 209.741 198.265C209.061 198.645 208.431 199.16 207.851 199.81V211H205.166V195.805H206.771C207.151 195.805 207.386 195.99 207.476 196.36L207.686 198.01ZM235.759 211H233.089V198.04H225.259V207.16C225.259 207.8 225.414 208.275 225.724 208.585C226.034 208.895 226.434 209.05 226.924 209.05C227.204 209.05 227.444 209.015 227.644 208.945C227.854 208.865 228.034 208.78 228.184 208.69C228.334 208.6 228.459 208.52 228.559 208.45C228.669 208.37 228.764 208.33 228.844 208.33C228.984 208.33 229.109 208.415 229.219 208.585L229.999 209.86C229.539 210.29 228.984 210.63 228.334 210.88C227.684 211.12 227.014 211.24 226.324 211.24C225.124 211.24 224.199 210.905 223.549 210.235C222.909 209.565 222.589 208.6 222.589 207.34V198.04H220.759C220.599 198.04 220.464 197.995 220.354 197.905C220.244 197.805 220.189 197.655 220.189 197.455V196.39L222.679 196.06L223.294 191.38C223.324 191.23 223.389 191.11 223.489 191.02C223.599 190.92 223.739 190.87 223.909 190.87H225.259V196.105H235.759V211ZM238.879 189.265L235.384 193.135C235.244 193.285 235.104 193.395 234.964 193.465C234.834 193.525 234.664 193.555 234.454 193.555H232.864L235.084 189.925C235.224 189.695 235.374 189.53 235.534 189.43C235.704 189.32 235.949 189.265 236.269 189.265H238.879ZM241.166 211V198.085L239.486 197.89C239.266 197.84 239.091 197.765 238.961 197.665C238.831 197.555 238.766 197.4 238.766 197.2V196.105H241.166V195.265C241.166 194.335 241.311 193.485 241.601 192.715C241.891 191.935 242.326 191.265 242.906 190.705C243.486 190.145 244.206 189.71 245.066 189.4C245.936 189.09 246.941 188.935 248.081 188.935C248.461 188.935 248.851 188.96 249.251 189.01C249.651 189.06 249.996 189.135 250.286 189.235L250.181 190.63C250.171 190.73 250.131 190.8 250.061 190.84C250.001 190.88 249.916 190.905 249.806 190.915C249.696 190.925 249.556 190.93 249.386 190.93C249.226 190.92 249.041 190.915 248.831 190.915C247.051 190.915 245.761 191.285 244.961 192.025C244.161 192.755 243.761 193.86 243.761 195.34V196.105H252.941V211H250.256V198.04H243.836V211H241.166ZM267.889 198.505C267.809 198.615 267.729 198.7 267.649 198.76C267.569 198.82 267.459 198.85 267.319 198.85C267.169 198.85 267.004 198.79 266.824 198.67C266.644 198.54 266.419 198.4 266.149 198.25C265.889 198.1 265.564 197.965 265.174 197.845C264.794 197.715 264.324 197.65 263.764 197.65C263.014 197.65 262.354 197.785 261.784 198.055C261.214 198.315 260.734 198.695 260.344 199.195C259.964 199.695 259.674 200.3 259.474 201.01C259.284 201.72 259.189 202.515 259.189 203.395C259.189 204.315 259.294 205.135 259.504 205.855C259.714 206.565 260.009 207.165 260.389 207.655C260.779 208.135 261.244 208.505 261.784 208.765C262.334 209.015 262.949 209.14 263.629 209.14C264.279 209.14 264.814 209.065 265.234 208.915C265.654 208.755 265.999 208.58 266.269 208.39C266.549 208.2 266.779 208.03 266.959 207.88C267.149 207.72 267.334 207.64 267.514 207.64C267.734 207.64 267.904 207.725 268.024 207.895L268.774 208.87C268.444 209.28 268.069 209.63 267.649 209.92C267.229 210.21 266.774 210.455 266.284 210.655C265.804 210.845 265.299 210.985 264.769 211.075C264.239 211.165 263.699 211.21 263.149 211.21C262.199 211.21 261.314 211.035 260.494 210.685C259.684 210.335 258.979 209.83 258.379 209.17C257.779 208.5 257.309 207.68 256.969 206.71C256.629 205.74 256.459 204.635 256.459 203.395C256.459 202.265 256.614 201.22 256.924 200.26C257.244 199.3 257.704 198.475 258.304 197.785C258.914 197.085 259.659 196.54 260.539 196.15C261.429 195.76 262.449 195.565 263.599 195.565C264.669 195.565 265.609 195.74 266.419 196.09C267.239 196.43 267.964 196.915 268.594 197.545L267.889 198.505ZM279.875 204.16C278.645 204.2 277.595 204.3 276.725 204.46C275.865 204.61 275.16 204.81 274.61 205.06C274.07 205.31 273.675 205.605 273.425 205.945C273.185 206.285 273.065 206.665 273.065 207.085C273.065 207.485 273.13 207.83 273.26 208.12C273.39 208.41 273.565 208.65 273.785 208.84C274.015 209.02 274.28 209.155 274.58 209.245C274.89 209.325 275.22 209.365 275.57 209.365C276.04 209.365 276.47 209.32 276.86 209.23C277.25 209.13 277.615 208.99 277.955 208.81C278.305 208.63 278.635 208.415 278.945 208.165C279.265 207.915 279.575 207.63 279.875 207.31V204.16ZM271.25 197.95C272.09 197.14 272.995 196.535 273.965 196.135C274.935 195.735 276.01 195.535 277.19 195.535C278.04 195.535 278.795 195.675 279.455 195.955C280.115 196.235 280.67 196.625 281.12 197.125C281.57 197.625 281.91 198.23 282.14 198.94C282.37 199.65 282.485 200.43 282.485 201.28V211H281.3C281.04 211 280.84 210.96 280.7 210.88C280.56 210.79 280.45 210.62 280.37 210.37L280.07 208.93C279.67 209.3 279.28 209.63 278.9 209.92C278.52 210.2 278.12 210.44 277.7 210.64C277.28 210.83 276.83 210.975 276.35 211.075C275.88 211.185 275.355 211.24 274.775 211.24C274.185 211.24 273.63 211.16 273.11 211C272.59 210.83 272.135 210.58 271.745 210.25C271.365 209.92 271.06 209.505 270.83 209.005C270.61 208.495 270.5 207.895 270.5 207.205C270.5 206.605 270.665 206.03 270.995 205.48C271.325 204.92 271.86 204.425 272.6 203.995C273.34 203.565 274.305 203.215 275.495 202.945C276.685 202.665 278.145 202.505 279.875 202.465V201.28C279.875 200.1 279.62 199.21 279.11 198.61C278.6 198 277.855 197.695 276.875 197.695C276.215 197.695 275.66 197.78 275.21 197.95C274.77 198.11 274.385 198.295 274.055 198.505C273.735 198.705 273.455 198.89 273.215 199.06C272.985 199.22 272.755 199.3 272.525 199.3C272.345 199.3 272.19 199.255 272.06 199.165C271.93 199.065 271.82 198.945 271.73 198.805L271.25 197.95ZM295.403 198.31C295.283 198.53 295.098 198.64 294.848 198.64C294.698 198.64 294.528 198.585 294.338 198.475C294.148 198.365 293.913 198.245 293.633 198.115C293.363 197.975 293.038 197.85 292.658 197.74C292.278 197.62 291.828 197.56 291.308 197.56C290.858 197.56 290.453 197.62 290.093 197.74C289.733 197.85 289.423 198.005 289.163 198.205C288.913 198.405 288.718 198.64 288.578 198.91C288.448 199.17 288.383 199.455 288.383 199.765C288.383 200.155 288.493 200.48 288.713 200.74C288.943 201 289.243 201.225 289.613 201.415C289.983 201.605 290.403 201.775 290.873 201.925C291.343 202.065 291.823 202.22 292.313 202.39C292.813 202.55 293.298 202.73 293.768 202.93C294.238 203.13 294.658 203.38 295.028 203.68C295.398 203.98 295.693 204.35 295.913 204.79C296.143 205.22 296.258 205.74 296.258 206.35C296.258 207.05 296.133 207.7 295.883 208.3C295.633 208.89 295.263 209.405 294.773 209.845C294.283 210.275 293.683 210.615 292.973 210.865C292.263 211.115 291.443 211.24 290.513 211.24C289.453 211.24 288.493 211.07 287.633 210.73C286.773 210.38 286.043 209.935 285.443 209.395L286.073 208.375C286.153 208.245 286.248 208.145 286.358 208.075C286.468 208.005 286.608 207.97 286.778 207.97C286.958 207.97 287.148 208.04 287.348 208.18C287.548 208.32 287.788 208.475 288.068 208.645C288.358 208.815 288.708 208.97 289.118 209.11C289.528 209.25 290.038 209.32 290.648 209.32C291.168 209.32 291.623 209.255 292.012 209.125C292.403 208.985 292.728 208.8 292.988 208.57C293.248 208.34 293.438 208.075 293.558 207.775C293.688 207.475 293.753 207.155 293.753 206.815C293.753 206.395 293.638 206.05 293.408 205.78C293.188 205.5 292.893 205.265 292.523 205.075C292.153 204.875 291.728 204.705 291.248 204.565C290.778 204.415 290.293 204.26 289.793 204.1C289.303 203.94 288.818 203.76 288.338 203.56C287.868 203.35 287.448 203.09 287.078 202.78C286.708 202.47 286.408 202.09 286.178 201.64C285.958 201.18 285.848 200.625 285.848 199.975C285.848 199.395 285.968 198.84 286.208 198.31C286.448 197.77 286.798 197.3 287.258 196.9C287.718 196.49 288.283 196.165 288.953 195.925C289.623 195.685 290.388 195.565 291.248 195.565C292.248 195.565 293.143 195.725 293.933 196.045C294.733 196.355 295.423 196.785 296.003 197.335L295.403 198.31Z" fill="#35609D"/>
<path fill-rule="evenodd" clip-rule="evenodd" d="M209.251 1.0165C208.155 -0.226517 206.26 -0.346126 205.017 0.749348C203.773 1.84482 203.654 3.74055 204.749 4.98357L219.855 22.1236C219.584 22.0432 219.297 22.0001 219 22.0001H167C165.343 22.0001 164 23.3432 164 25.0001C164 26.6569 165.343 28.0001 167 28.0001H219C219.322 28.0001 219.631 27.9495 219.922 27.8558L204.813 43.9465C203.679 45.1543 203.739 47.0529 204.946 48.187C206.154 49.3212 208.053 49.2614 209.187 48.0536L225.943 30.2091C228.638 27.3905 228.671 23.052 226.124 20.1621L209.251 1.0165ZM221.986 25.2892C221.997 25.2117 222.002 25.1333 222 25.0546C221.998 25.1336 221.994 25.2118 221.986 25.2892Z" fill="#5987C6"/>
<path d="M353.66 68.6946C351.955 66.2788 350.848 63.5069 350.425 60.5982C350.001 57.6896 350.274 54.7242 351.221 51.9368L351.538 51H304.462L304.779 51.9368C305.435 53.8664 305.769 55.887 305.769 57.921C305.77 61.773 304.574 65.5336 302.34 68.701C296.911 76.3974 294.001 85.5355 294 94.8964C294 104.072 295.508 113.188 298.464 121.893L300.538 128H322.769L323.584 120.803C323.912 117.905 324.077 114.992 324.077 112.076C324.077 106.319 323.436 100.578 322.166 94.9567L322.403 95.2352C322.927 95.8522 323.583 96.3486 324.324 96.6893C325.065 97.0299 325.874 97.2065 326.692 97.2065C327.511 97.2065 328.319 97.0299 329.06 96.6893C329.802 96.3486 330.457 95.8522 330.982 95.2352L331.218 94.9567C329.302 103.439 328.823 112.174 329.801 120.809L330.615 128H355.462L357.536 121.893C360.492 113.188 362 104.072 362 94.8964C362 85.5333 359.091 76.3928 353.66 68.6946Z" fill="#BDCFE8"/>
<path d="M325.129 60.1937V57.6453C325.975 57.6457 326.799 57.3799 327.485 56.8854C328.171 56.3909 328.684 55.6929 328.951 54.8905L329.018 54.6904L331.439 55.5034L331.372 55.6996C330.937 57.0101 330.099 58.1499 328.978 58.9567C327.857 59.7636 326.51 60.1964 325.129 60.1937Z" fill="#EAB6AB"/>
<path d="M353.161 83.6042V89.4999H342.968V83.6042" fill="#5987C6"/>
<path d="M344.242 89.5V109.887C344.242 110.901 344.645 111.873 345.362 112.59C346.079 113.307 347.051 113.71 348.065 113.71C349.079 113.71 350.051 113.307 350.768 112.59C351.485 111.873 351.887 110.901 351.887 109.887V89.5" fill="#5987C6"/>
<path d="M346.956 51.0801C342.668 51.0796 338.531 52.6947 335.346 55.6133C332.367 58.9775 330.772 63.3747 330.89 67.8985C331.007 72.4223 332.828 76.7278 335.977 79.9278C339.127 83.1277 343.364 84.978 347.816 85.0974C352.268 85.2168 356.595 83.5961 359.906 80.5695C362.155 78.0288 363.631 74.88 364.155 71.5044C364.679 68.1288 364.228 64.6713 362.858 61.5506C361.487 58.4298 359.256 55.7798 356.434 53.9214C353.611 52.0631 350.319 51.0761 346.956 51.0801V51.0801Z" fill="#9BB7DD"/>
<path d="M346.79 57.6453C344.061 57.643 341.42 58.6195 339.349 60.3975C337.472 62.5897 336.492 65.4092 336.603 68.2929C336.715 71.1765 337.91 73.9119 339.951 75.9524C341.992 77.993 344.727 79.1885 347.611 79.3001C350.494 79.4117 353.314 78.4311 355.506 76.5543C356.931 74.8893 357.848 72.8506 358.15 70.6799C358.451 68.5093 358.124 66.2977 357.206 64.3075C356.289 62.3173 354.82 60.6318 352.974 59.451C351.128 58.2702 348.982 57.6435 346.79 57.6453V57.6453Z" fill="#BDCFE8"/>
<path d="M355.71 67.8388H353.161C353.161 66.487 352.624 65.1906 351.668 64.2348C350.713 63.279 349.416 62.742 348.064 62.742V60.1936C350.091 60.1956 352.035 61.0017 353.468 62.4351C354.901 63.8684 355.708 65.8118 355.71 67.8388Z" fill="#84A3D2"/>
<path d="M348.064 80.5808C350.584 80.5808 353.048 79.8335 355.143 78.4334C357.239 77.0333 358.872 75.0433 359.836 72.715C360.801 70.3867 361.053 67.8247 360.561 65.353C360.07 62.8813 358.856 60.6109 357.074 58.829C355.292 57.047 353.022 55.8334 350.55 55.3418C348.078 54.8501 345.516 55.1024 343.188 56.0669C340.86 57.0313 338.87 58.6644 337.47 60.7598C336.07 62.8552 335.322 65.3187 335.322 67.8389C335.326 71.2171 336.67 74.4559 339.058 76.8447C341.447 79.2334 344.686 80.5771 348.064 80.5808ZM348.064 57.6453C350.08 57.6453 352.051 58.2432 353.727 59.3632C355.404 60.4833 356.71 62.0753 357.482 63.938C358.253 65.8006 358.455 67.8502 358.062 69.8275C357.669 71.8049 356.698 73.6212 355.272 75.0468C353.847 76.4724 352.03 77.4432 350.053 77.8365C348.076 78.2299 346.026 78.028 344.163 77.2565C342.301 76.4849 340.709 75.1784 339.589 73.5021C338.468 71.8258 337.871 69.855 337.871 67.8389C337.874 65.1363 338.949 62.5453 340.86 60.6343C342.771 58.7233 345.362 57.6484 348.064 57.6453Z" fill="#35609D"/>
<path d="M353.161 67.8388H355.71C355.708 65.8118 354.901 63.8684 353.468 62.4351C352.035 61.0017 350.091 60.1956 348.064 60.1936V62.742C349.416 62.742 350.713 63.279 351.668 64.2348C352.624 65.1906 353.161 66.487 353.161 67.8388Z" fill="#35609D"/>
<path d="M298.437 128.128C298.522 128.382 298.684 128.603 298.901 128.759C299.117 128.916 299.378 129 299.645 129H323.855C324.169 129 324.471 128.884 324.705 128.675C324.939 128.466 325.087 128.178 325.121 127.866L325.915 120.722C326.24 117.795 326.402 114.853 326.403 111.909C326.396 107.215 325.975 102.53 325.146 97.9097C325.948 98.2428 326.809 98.4143 327.677 98.4143C328.546 98.4143 329.407 98.2428 330.209 97.9097C328.852 105.435 328.594 113.118 329.445 120.718L330.239 127.862C330.272 128.174 330.419 128.462 330.652 128.672C330.885 128.882 331.187 128.999 331.5 129H355.71C355.977 129 356.238 128.916 356.454 128.759C356.671 128.603 356.833 128.382 356.918 128.128L358.939 122.066C361.867 113.292 363.359 104.102 363.355 94.8516C363.354 89.8426 362.549 84.8661 360.972 80.1117C363.381 77.5874 364.996 74.411 365.616 70.9769C366.236 67.5428 365.833 64.0024 364.458 60.7951C363.083 57.5878 360.797 54.8549 357.882 52.9358C354.968 51.0167 351.554 49.9958 348.065 50H303.468C303.266 50.0002 303.067 50.0482 302.888 50.1403C302.708 50.2323 302.553 50.3657 302.435 50.5294C302.317 50.6932 302.24 50.8826 302.209 51.0821C302.179 51.2815 302.196 51.4854 302.26 51.6769L302.568 52.607C303.165 54.3932 303.469 56.2641 303.468 58.1472C303.472 61.7107 302.385 65.19 300.354 68.1178C294.902 75.9681 291.986 85.3004 292 94.858C291.997 104.106 293.488 113.294 296.416 122.066L298.437 128.128ZM363.355 67.8387C363.355 70.8629 362.458 73.8191 360.778 76.3336C359.098 78.848 356.71 80.8078 353.916 81.9651C351.122 83.1224 348.048 83.4252 345.082 82.8352C342.116 82.2453 339.391 80.789 337.253 78.6506C335.114 76.5122 333.658 73.7877 333.068 70.8217C332.478 67.8557 332.781 64.7813 333.938 61.9874C335.095 59.1934 337.055 56.8054 339.57 55.1253C342.084 53.4452 345.04 52.5484 348.065 52.5484C352.118 52.5528 356.005 54.1651 358.872 57.0317C361.738 59.8982 363.35 63.7848 363.355 67.8387ZM345.516 90.7742H350.613V109.887C350.613 110.563 350.344 111.211 349.867 111.689C349.389 112.167 348.74 112.435 348.065 112.435C347.389 112.435 346.74 112.167 346.263 111.689C345.785 111.211 345.516 110.563 345.516 109.887V90.7742ZM351.887 88.2258H344.242V85.2544C346.759 85.8184 349.37 85.8184 351.887 85.2544V88.2258ZM302.448 69.5678C304.776 66.2147 306.021 62.2291 306.016 58.1472C306.017 56.2527 305.749 54.3676 305.22 52.5484H338.923C336.048 54.2596 333.713 56.7468 332.186 59.7245C330.66 62.7022 330.004 66.0498 330.293 69.3835C330.582 72.7172 331.805 75.9019 333.821 78.5722C335.838 81.2426 338.566 83.2905 341.694 84.481V89.5C341.694 89.8379 341.828 90.162 342.067 90.401C342.306 90.64 342.63 90.7742 342.968 90.7742V109.887C342.968 111.239 343.505 112.535 344.461 113.491C345.416 114.447 346.713 114.984 348.065 114.984C349.416 114.984 350.713 114.447 351.669 113.491C352.624 112.535 353.161 111.239 353.161 109.887V90.7742C353.499 90.7742 353.823 90.64 354.062 90.401C354.301 90.162 354.436 89.8379 354.436 89.5V84.481C356.034 83.8662 357.536 83.0247 358.895 81.9823C360.163 86.1566 360.807 90.4954 360.806 94.858C360.809 103.832 359.362 112.747 356.523 121.259L354.791 126.452H332.647L331.978 120.44C331.05 112.104 331.49 103.672 333.281 95.4772L337.582 90.3168L335.622 88.6832L330.883 94.3712C330.492 94.8406 330.003 95.2183 329.45 95.4775C328.897 95.7367 328.293 95.871 327.683 95.871C327.072 95.871 326.468 95.7367 325.915 95.4775C325.362 95.2183 324.873 94.8406 324.482 94.3712L319.743 88.6832L317.783 90.3168L322.084 95.4772C323.26 100.876 323.854 106.384 323.855 111.909C323.854 114.759 323.696 117.607 323.382 120.44L322.708 126.452H300.564L298.832 121.259C295.992 112.745 294.545 103.827 294.548 94.8516C294.537 85.8145 297.294 76.9906 302.448 69.5678Z" fill="#35609D"/>
<path d="M331.372 55.6995L331.439 55.502L329.018 54.6917L328.951 54.8904C328.684 55.6929 328.171 56.3909 327.485 56.8853C326.799 57.3798 325.975 57.6457 325.129 57.6452V60.1936C326.51 60.1964 327.857 59.7635 328.978 58.9567C330.099 58.1499 330.937 57.0101 331.372 55.6995V55.6995Z" fill="#35609D"/>
</svg>
