<svg width="395" height="112" viewBox="0 0 395 112" fill="none" xmlns="http://www.w3.org/2000/svg">
<rect width="395" height="112" rx="56" fill="#FAFAC8"/>
<path opacity="0.8" d="M50.796 68.72C50.052 68.72 49.512 68.432 49.176 67.856C48.864 67.256 48.672 66.44 48.6 65.408C48.528 64.376 48.492 63.2 48.492 61.88H41.652L38.808 68H34.812L46.656 44.24H51.264C51.456 49.112 51.6 53.192 51.696 56.48C51.792 59.744 51.924 62.264 52.092 64.04C52.284 65.792 52.596 66.848 53.028 67.208C52.908 67.64 52.632 68 52.2 68.288C51.768 68.576 51.3 68.72 50.796 68.72ZM42.84 59.396H48.492L48.204 46.724L42.84 59.396ZM60.0117 68.36C59.9157 68.36 59.8077 68.36 59.6877 68.36C59.5917 68.36 59.4837 68.348 59.3637 68.324C59.3157 66.356 59.2557 64.436 59.1837 62.564C59.1117 60.692 59.0157 58.94 58.8957 57.308C58.7757 55.676 58.6197 54.26 58.4277 53.06C58.3077 52.124 58.1517 51.416 57.9597 50.936C57.7677 50.456 57.4317 50.084 56.9517 49.82C57.1197 49.532 57.3717 49.316 57.7077 49.172C58.0677 49.004 58.5117 48.92 59.0397 48.92C60.1197 48.92 60.8517 49.256 61.2357 49.928C61.6437 50.6 61.9077 51.644 62.0277 53.06C62.0757 53.468 62.1117 54.02 62.1357 54.716C62.1837 55.412 62.2197 56.324 62.2437 57.452C62.2677 58.58 62.2797 60.044 62.2797 61.844C62.2797 62.372 62.2797 62.948 62.2797 63.572C62.2797 64.172 62.2677 64.796 62.2437 65.444C62.9157 64.532 63.5877 63.524 64.2597 62.42C64.9317 61.292 65.5437 60.128 66.0957 58.928C66.6717 57.728 67.1277 56.528 67.4637 55.328C67.7997 54.128 67.9677 52.988 67.9677 51.908C67.9677 51.572 67.9437 51.236 67.8957 50.9C67.8717 50.54 67.8117 50.18 67.7157 49.82C68.0037 49.556 68.3877 49.34 68.8677 49.172C69.3477 49.004 69.8277 48.92 70.3077 48.92C70.8117 48.92 71.1837 49.016 71.4237 49.208C71.6637 49.376 71.8197 49.628 71.8917 49.964C71.9637 50.276 71.9997 50.66 71.9997 51.116C71.9997 52.196 71.7957 53.384 71.3877 54.68C71.0037 55.976 70.4877 57.26 69.8397 58.532C69.1917 59.78 68.4957 60.932 67.7517 61.988C66.2157 64.1 64.8597 65.696 63.6837 66.776C62.5077 67.832 61.2837 68.36 60.0117 68.36ZM77.7007 68.72C76.5247 68.72 75.5647 68.432 74.8207 67.856C74.1007 67.256 73.5727 66.452 73.2367 65.444C72.9007 64.436 72.7327 63.284 72.7327 61.988C72.7327 60.212 72.9607 58.544 73.4167 56.984C73.8967 55.4 74.5687 54.008 75.4327 52.808C76.2967 51.584 77.3167 50.636 78.4927 49.964C79.6687 49.268 80.9527 48.92 82.3447 48.92C83.4967 48.92 84.7327 49.172 86.0527 49.676L89.1847 49.28L86.2327 64.652C86.2087 64.868 86.1727 65.12 86.1247 65.408C86.0767 65.696 86.0527 65.948 86.0527 66.164C86.0527 66.5 86.1247 66.764 86.2687 66.956C86.4367 67.124 86.6767 67.22 86.9887 67.244C86.8927 67.58 86.7367 67.856 86.5207 68.072C86.3047 68.288 86.0527 68.444 85.7647 68.54C85.4767 68.66 85.1527 68.72 84.7927 68.72C84.1687 68.72 83.6527 68.54 83.2447 68.18C82.8607 67.844 82.6567 67.34 82.6327 66.668C82.0087 67.268 81.2767 67.76 80.4367 68.144C79.5967 68.528 78.6847 68.72 77.7007 68.72ZM79.1407 66.596C80.1007 66.596 80.8807 66.284 81.4807 65.66C82.1047 65.012 82.5967 64.22 82.9567 63.284C83.3167 62.324 83.5807 61.4 83.7487 60.512L85.2967 52.304C84.7927 51.896 84.2527 51.596 83.6767 51.404C83.1007 51.188 82.5727 51.08 82.0927 51.08C81.3487 51.08 80.6647 51.272 80.0407 51.656C79.4407 52.04 78.9007 52.58 78.4207 53.276C77.9647 53.972 77.5687 54.8 77.2327 55.76C76.9207 56.696 76.6807 57.728 76.5127 58.856C76.3687 59.96 76.2967 61.112 76.2967 62.312C76.2967 63.512 76.4887 64.532 76.8727 65.372C77.2807 66.188 78.0367 66.596 79.1407 66.596ZM92.9931 68.72C92.3211 68.72 91.8051 68.528 91.4451 68.144C91.0851 67.76 90.9051 67.244 90.9051 66.596C90.9051 66.404 90.9171 66.2 90.9411 65.984C90.9651 65.744 91.0011 65.42 91.0491 65.012C91.1211 64.604 91.2291 64.04 91.3731 63.32C91.5171 62.6 91.6971 61.676 91.9131 60.548C92.1531 59.396 92.4411 57.98 92.7771 56.3C93.1371 54.596 93.5571 52.568 94.0371 50.216C94.2771 48.872 94.4811 47.492 94.6491 46.076C94.8411 44.66 94.9371 43.472 94.9371 42.512C94.9371 42.248 94.9251 42.02 94.9011 41.828C94.9011 41.612 94.8771 41.42 94.8291 41.252C94.9731 41.132 95.1651 41.036 95.4051 40.964C95.6691 40.892 95.9451 40.856 96.2331 40.856C96.7851 40.856 97.3131 41.036 97.8171 41.396C98.3211 41.732 98.5731 42.356 98.5731 43.268C98.5731 43.436 98.5131 43.82 98.3931 44.42C98.2971 44.996 98.1651 45.68 97.9971 46.472C97.8531 47.264 97.6971 48.068 97.5291 48.884C97.3851 49.676 97.2531 50.372 97.1331 50.972C96.5331 53.876 96.0411 56.24 95.6571 58.064C95.2971 59.888 95.0091 61.328 94.7931 62.384C94.6011 63.416 94.4571 64.184 94.3611 64.688C94.2891 65.168 94.2411 65.504 94.2171 65.696C94.1931 65.864 94.1811 66.02 94.1811 66.164C94.1811 66.5 94.2531 66.764 94.3971 66.956C94.5651 67.124 94.8051 67.22 95.1171 67.244C95.0451 67.58 94.9011 67.856 94.6851 68.072C94.4691 68.288 94.2171 68.444 93.9291 68.54C93.6411 68.66 93.3291 68.72 92.9931 68.72ZM101.184 68.72C100.512 68.72 99.9956 68.528 99.6356 68.144C99.2996 67.76 99.1316 67.244 99.1316 66.596C99.1316 66.356 99.1436 66.08 99.1676 65.768C99.2156 65.432 99.2636 65.096 99.3116 64.76C99.3836 64.4 99.4436 64.064 99.4916 63.752C99.5636 63.44 99.6236 63.164 99.6716 62.924L102.372 49.64L105.684 49.28L102.588 64.652C102.564 64.844 102.528 65.096 102.48 65.408C102.432 65.72 102.408 65.972 102.408 66.164C102.408 66.5 102.48 66.764 102.624 66.956C102.792 67.124 103.032 67.22 103.344 67.244C103.224 67.748 102.96 68.12 102.552 68.36C102.144 68.6 101.688 68.72 101.184 68.72ZM104.892 46.4C104.22 46.4 103.656 46.232 103.2 45.896C102.768 45.536 102.552 45.008 102.552 44.312C102.552 43.568 102.78 43.028 103.236 42.692C103.716 42.332 104.292 42.152 104.964 42.152C105.66 42.152 106.236 42.332 106.692 42.692C107.148 43.028 107.376 43.544 107.376 44.24C107.376 44.984 107.136 45.536 106.656 45.896C106.176 46.232 105.588 46.4 104.892 46.4ZM114.26 68.72C112.916 68.72 111.764 68.468 110.804 67.964C109.868 67.436 109.148 66.656 108.644 65.624C108.164 64.592 107.924 63.284 107.924 61.7C107.924 60.188 108.128 58.676 108.536 57.164C108.944 55.652 109.556 54.284 110.372 53.06C111.188 51.812 112.22 50.816 113.468 50.072C114.74 49.304 116.228 48.92 117.932 48.92C118.844 48.92 119.648 49.052 120.344 49.316C121.04 49.58 121.58 50.012 121.964 50.612C122.372 51.188 122.576 51.968 122.576 52.952C122.576 54.392 122.144 55.604 121.28 56.588C120.416 57.572 119.288 58.304 117.896 58.784C116.528 59.264 115.064 59.492 113.504 59.468C113.192 59.468 112.844 59.456 112.46 59.432C112.076 59.408 111.776 59.384 111.56 59.36C111.536 59.792 111.512 60.212 111.488 60.62C111.464 61.004 111.452 61.352 111.452 61.664C111.452 63.056 111.692 64.148 112.172 64.94C112.652 65.708 113.552 66.092 114.872 66.092C115.952 66.092 116.876 65.828 117.644 65.3C118.436 64.772 119.06 64.04 119.516 63.104C119.852 63.152 120.08 63.332 120.2 63.644C120.32 63.932 120.38 64.22 120.38 64.508C120.38 65.132 120.152 65.768 119.696 66.416C119.264 67.064 118.592 67.604 117.68 68.036C116.792 68.492 115.652 68.72 114.26 68.72ZM111.812 57.56C112.628 57.56 113.456 57.488 114.296 57.344C115.136 57.176 115.916 56.924 116.636 56.588C117.356 56.252 117.932 55.796 118.364 55.22C118.82 54.644 119.048 53.948 119.048 53.132C119.048 52.412 118.868 51.884 118.508 51.548C118.172 51.188 117.692 51.008 117.068 51.008C116.324 51.008 115.64 51.236 115.016 51.692C114.416 52.148 113.9 52.724 113.468 53.42C113.036 54.116 112.676 54.836 112.388 55.58C112.124 56.324 111.932 56.984 111.812 57.56ZM135.7 68.72C134.452 68.72 133.444 68.516 132.676 68.108C131.908 67.7 131.32 67.184 130.912 66.56C130.528 65.912 130.264 65.24 130.12 64.544C130 63.824 129.94 63.176 129.94 62.6C129.94 60.992 130.12 59.384 130.48 57.776C130.864 56.168 131.44 54.692 132.208 53.348C133 52.004 134.02 50.936 135.268 50.144C136.54 49.328 138.076 48.92 139.876 48.92C141.148 48.92 142.156 49.124 142.9 49.532C143.668 49.94 144.256 50.468 144.664 51.116C145.072 51.74 145.336 52.412 145.456 53.132C145.6 53.828 145.672 54.464 145.672 55.04C145.672 56.648 145.48 58.268 145.096 59.9C144.736 61.508 144.16 62.984 143.368 64.328C142.576 65.648 141.544 66.716 140.272 67.532C139.024 68.324 137.5 68.72 135.7 68.72ZM136.42 66.56C137.188 66.56 137.872 66.332 138.472 65.876C139.096 65.42 139.636 64.808 140.092 64.04C140.548 63.248 140.92 62.36 141.208 61.376C141.52 60.392 141.748 59.372 141.892 58.316C142.036 57.236 142.108 56.18 142.108 55.148C142.108 53.972 141.892 53 141.46 52.232C141.052 51.464 140.296 51.08 139.192 51.08C138.424 51.08 137.728 51.308 137.104 51.764C136.48 52.22 135.94 52.832 135.484 53.6C135.028 54.368 134.644 55.244 134.332 56.228C134.044 57.212 133.828 58.244 133.684 59.324C133.54 60.404 133.468 61.46 133.468 62.492C133.468 63.668 133.684 64.64 134.116 65.408C134.548 66.176 135.316 66.56 136.42 66.56ZM159.812 68.72C157.772 68.72 156.272 68.132 155.312 66.956C154.376 65.78 153.908 64.028 153.908 61.7C153.908 60.188 154.1 58.688 154.484 57.2C154.892 55.688 155.492 54.308 156.284 53.06C157.1 51.812 158.12 50.816 159.344 50.072C160.568 49.304 162.008 48.92 163.664 48.92C164.624 48.92 165.464 49.064 166.184 49.352C166.928 49.64 167.504 50.06 167.912 50.612C168.32 51.164 168.524 51.848 168.524 52.664C168.524 53.696 168.236 54.464 167.66 54.968C167.108 55.448 166.496 55.688 165.824 55.688C165.584 55.688 165.32 55.652 165.032 55.58C164.744 55.508 164.516 55.364 164.348 55.148C164.468 54.812 164.576 54.44 164.672 54.032C164.768 53.624 164.816 53.264 164.816 52.952C164.816 52.328 164.66 51.86 164.348 51.548C164.036 51.212 163.58 51.044 162.98 51.044C162.236 51.044 161.564 51.284 160.964 51.764C160.364 52.244 159.836 52.88 159.38 53.672C158.948 54.464 158.576 55.328 158.264 56.264C157.976 57.2 157.76 58.136 157.616 59.072C157.472 60.008 157.4 60.848 157.4 61.592C157.4 62.816 157.64 63.872 158.12 64.76C158.624 65.648 159.524 66.092 160.82 66.092C161.948 66.092 162.872 65.756 163.592 65.084C164.312 64.388 164.828 63.524 165.14 62.492C165.572 62.588 165.884 62.804 166.076 63.14C166.268 63.452 166.364 63.824 166.364 64.256C166.364 65.024 166.088 65.756 165.536 66.452C164.984 67.124 164.216 67.664 163.232 68.072C162.272 68.504 161.132 68.72 159.812 68.72ZM174.805 68.72C173.605 68.72 172.657 68.48 171.961 68C171.289 67.52 170.809 66.884 170.521 66.092C170.257 65.276 170.125 64.4 170.125 63.464C170.125 62.72 170.221 61.784 170.413 60.656C170.605 59.528 170.893 58.076 171.277 56.3C171.661 54.524 172.153 52.304 172.753 49.64L175.885 49.28C175.357 51.68 174.925 53.66 174.589 55.22C174.277 56.756 174.025 58.016 173.833 59C173.665 59.96 173.545 60.752 173.473 61.376C173.425 61.976 173.401 62.54 173.401 63.068C173.401 63.644 173.473 64.208 173.617 64.76C173.785 65.288 174.061 65.732 174.445 66.092C174.853 66.428 175.393 66.596 176.065 66.596C176.977 66.596 177.733 66.296 178.333 65.696C178.957 65.072 179.449 64.292 179.809 63.356C180.193 62.42 180.469 61.472 180.637 60.512L182.797 49.64L186.073 49.28L183.085 64.652C183.061 64.868 183.025 65.12 182.977 65.408C182.929 65.696 182.905 65.948 182.905 66.164C182.905 66.5 182.977 66.764 183.121 66.956C183.289 67.124 183.529 67.22 183.841 67.244C183.769 67.58 183.625 67.856 183.409 68.072C183.193 68.288 182.941 68.444 182.653 68.54C182.365 68.66 182.041 68.72 181.681 68.72C181.033 68.72 180.517 68.54 180.133 68.18C179.773 67.844 179.557 67.34 179.485 66.668C179.029 67.412 178.345 67.94 177.433 68.252C176.545 68.564 175.669 68.72 174.805 68.72ZM188.469 68.36L192.033 49.64L194.841 49.28L194.445 52.448C194.877 51.464 195.549 50.636 196.461 49.964C197.373 49.268 198.369 48.92 199.449 48.92C200.577 48.92 201.381 49.268 201.861 49.964C202.341 50.66 202.581 51.464 202.581 52.376C202.581 53.48 202.281 54.452 201.681 55.292C201.105 56.132 200.337 56.552 199.377 56.552C199.137 56.552 198.873 56.504 198.585 56.408C198.321 56.312 198.117 56.144 197.973 55.904C198.237 55.544 198.453 55.112 198.621 54.608C198.813 54.08 198.909 53.6 198.909 53.168C198.909 52.688 198.789 52.328 198.549 52.088C198.333 51.824 197.997 51.692 197.541 51.692C196.893 51.692 196.341 51.932 195.885 52.412C195.429 52.868 195.057 53.444 194.769 54.14C194.481 54.836 194.241 55.556 194.049 56.3C193.881 57.02 193.749 57.632 193.653 58.136L191.889 68L188.469 68.36ZM207.42 68.792C206.724 68.792 206.028 68.708 205.332 68.54C204.66 68.396 204.048 68.168 203.496 67.856C202.944 67.544 202.5 67.16 202.164 66.704C201.852 66.224 201.696 65.684 201.696 65.084C201.696 64.388 201.876 63.86 202.236 63.5C202.596 63.116 203.016 62.852 203.496 62.708C203.976 62.54 204.396 62.456 204.756 62.456C204.972 62.456 205.176 62.48 205.368 62.528C205.584 62.576 205.752 62.684 205.872 62.852C205.752 63.164 205.632 63.464 205.512 63.752C205.416 64.04 205.368 64.364 205.368 64.724C205.368 65.324 205.608 65.816 206.088 66.2C206.568 66.56 207.216 66.74 208.032 66.74C208.944 66.74 209.712 66.488 210.336 65.984C210.96 65.48 211.272 64.82 211.272 64.004C211.272 63.38 211.128 62.828 210.84 62.348C210.552 61.868 210.168 61.436 209.688 61.052C209.232 60.644 208.74 60.248 208.212 59.864C207.564 59.408 206.928 58.928 206.304 58.424C205.68 57.92 205.152 57.344 204.72 56.696C204.312 56.024 204.108 55.22 204.108 54.284C204.108 53.42 204.324 52.652 204.756 51.98C205.188 51.308 205.752 50.744 206.448 50.288C207.168 49.832 207.96 49.496 208.824 49.28C209.688 49.04 210.552 48.92 211.416 48.92C212.184 48.92 212.952 49.028 213.72 49.244C214.488 49.436 215.124 49.784 215.628 50.288C216.132 50.768 216.384 51.44 216.384 52.304C216.384 53.216 216.096 53.924 215.52 54.428C214.968 54.932 214.392 55.184 213.792 55.184C213.576 55.184 213.324 55.16 213.036 55.112C212.772 55.064 212.544 54.956 212.352 54.788C212.52 54.452 212.652 54.128 212.748 53.816C212.844 53.48 212.892 53.144 212.892 52.808C212.892 52.208 212.664 51.752 212.208 51.44C211.776 51.128 211.176 50.972 210.408 50.972C209.568 50.972 208.86 51.2 208.284 51.656C207.708 52.088 207.42 52.7 207.42 53.492C207.42 54.02 207.528 54.5 207.744 54.932C207.984 55.34 208.284 55.724 208.644 56.084C209.028 56.444 209.448 56.792 209.904 57.128C210.624 57.632 211.356 58.16 212.1 58.712C212.844 59.24 213.468 59.852 213.972 60.548C214.476 61.244 214.728 62.108 214.728 63.14C214.728 64.316 214.356 65.336 213.612 66.2C212.892 67.04 211.968 67.676 210.84 68.108C209.712 68.564 208.572 68.792 207.42 68.792ZM224.259 68.72C223.011 68.72 222.003 68.516 221.235 68.108C220.467 67.7 219.879 67.184 219.471 66.56C219.087 65.912 218.823 65.24 218.679 64.544C218.559 63.824 218.499 63.176 218.499 62.6C218.499 60.992 218.679 59.384 219.039 57.776C219.423 56.168 219.999 54.692 220.767 53.348C221.559 52.004 222.579 50.936 223.827 50.144C225.099 49.328 226.635 48.92 228.435 48.92C229.707 48.92 230.715 49.124 231.459 49.532C232.227 49.94 232.815 50.468 233.223 51.116C233.631 51.74 233.895 52.412 234.015 53.132C234.159 53.828 234.231 54.464 234.231 55.04C234.231 56.648 234.039 58.268 233.655 59.9C233.295 61.508 232.719 62.984 231.927 64.328C231.135 65.648 230.103 66.716 228.831 67.532C227.583 68.324 226.059 68.72 224.259 68.72ZM224.979 66.56C225.747 66.56 226.431 66.332 227.031 65.876C227.655 65.42 228.195 64.808 228.651 64.04C229.107 63.248 229.479 62.36 229.767 61.376C230.079 60.392 230.307 59.372 230.451 58.316C230.595 57.236 230.667 56.18 230.667 55.148C230.667 53.972 230.451 53 230.019 52.232C229.611 51.464 228.855 51.08 227.751 51.08C226.983 51.08 226.287 51.308 225.663 51.764C225.039 52.22 224.499 52.832 224.043 53.6C223.587 54.368 223.203 55.244 222.891 56.228C222.603 57.212 222.387 58.244 222.243 59.324C222.099 60.404 222.027 61.46 222.027 62.492C222.027 63.668 222.243 64.64 222.675 65.408C223.107 66.176 223.875 66.56 224.979 66.56Z" fill="#882F87"/>
<path d="M331.073 24.4807C331.522 23.0988 333.478 23.0988 333.927 24.4807L338.317 37.9934C339.187 40.6716 341.683 42.4848 344.499 42.4848L358.707 42.4848C360.16 42.4848 360.764 44.3442 359.589 45.1983L348.094 53.5496C345.816 55.2048 344.863 58.1387 345.733 60.8168L350.123 74.3295C350.572 75.7115 348.991 76.8607 347.815 76.0066L336.321 67.6553C334.042 66.0001 330.958 66.0001 328.679 67.6553L317.185 76.0066C316.009 76.8607 314.428 75.7115 314.877 74.3295L319.267 60.8168C320.137 58.1387 319.184 55.2048 316.906 53.5496L305.411 45.1983C304.236 44.3442 304.84 42.4848 306.293 42.4848L320.501 42.4848C323.317 42.4848 325.813 40.6716 326.683 37.9934L331.073 24.4807Z" fill="#E5E3F0" stroke="#882F87" stroke-width="5"/>
</svg>
