<svg width="392" height="259" viewBox="0 0 392 259" fill="none" xmlns="http://www.w3.org/2000/svg">
<path opacity="0.5" d="M0 28H392V239C392 250.046 383.046 259 372 259H20C8.9543 259 0 250.046 0 239V28Z" fill="#BDCFE8"/>
<path d="M50.796 105.72C50.052 105.72 49.512 105.432 49.176 104.856C48.864 104.256 48.672 103.44 48.6 102.408C48.528 101.376 48.492 100.2 48.492 98.88H41.652L38.808 105H34.812L46.656 81.24H51.264C51.456 86.112 51.6 90.192 51.696 93.48C51.792 96.744 51.924 99.264 52.092 101.04C52.284 102.792 52.596 103.848 53.028 104.208C52.908 104.64 52.632 105 52.2 105.288C51.768 105.576 51.3 105.72 50.796 105.72ZM42.84 96.396H48.492L48.204 83.724L42.84 96.396ZM61.8477 105.72C60.6477 105.72 59.6997 105.48 59.0037 105C58.3317 104.52 57.8517 103.884 57.5637 103.092C57.2997 102.276 57.1677 101.4 57.1677 100.464C57.1677 99.72 57.2637 98.784 57.4557 97.656C57.6477 96.528 57.9357 95.076 58.3197 93.3C58.7037 91.524 59.1957 89.304 59.7957 86.64L62.9277 86.28C62.3997 88.68 61.9677 90.66 61.6317 92.22C61.3197 93.756 61.0677 95.016 60.8757 96C60.7077 96.96 60.5877 97.752 60.5157 98.376C60.4677 98.976 60.4437 99.54 60.4437 100.068C60.4437 100.644 60.5157 101.208 60.6597 101.76C60.8277 102.288 61.1037 102.732 61.4877 103.092C61.8957 103.428 62.4357 103.596 63.1077 103.596C64.0197 103.596 64.7757 103.296 65.3757 102.696C65.9997 102.072 66.4917 101.292 66.8517 100.356C67.2357 99.42 67.5117 98.472 67.6797 97.512L69.8397 86.64L73.1157 86.28L70.1277 101.652C70.1037 101.868 70.0677 102.12 70.0197 102.408C69.9717 102.696 69.9477 102.948 69.9477 103.164C69.9477 103.5 70.0197 103.764 70.1637 103.956C70.3317 104.124 70.5717 104.22 70.8837 104.244C70.8117 104.58 70.6677 104.856 70.4517 105.072C70.2357 105.288 69.9837 105.444 69.6957 105.54C69.4077 105.66 69.0837 105.72 68.7237 105.72C68.0757 105.72 67.5597 105.54 67.1757 105.18C66.8157 104.844 66.5997 104.34 66.5277 103.668C66.0717 104.412 65.3877 104.94 64.4757 105.252C63.5877 105.564 62.7117 105.72 61.8477 105.72ZM77.3837 105.72C76.7117 105.72 76.1957 105.528 75.8357 105.144C75.4757 104.76 75.2957 104.244 75.2957 103.596C75.2957 103.404 75.3077 103.2 75.3317 102.984C75.3557 102.744 75.3917 102.42 75.4397 102.012C75.5117 101.604 75.6197 101.04 75.7637 100.32C75.9077 99.6 76.0877 98.676 76.3037 97.548C76.5437 96.396 76.8317 94.98 77.1677 93.3C77.5277 91.596 77.9477 89.568 78.4277 87.216C78.6677 85.872 78.8717 84.492 79.0397 83.076C79.2317 81.66 79.3277 80.472 79.3277 79.512C79.3277 79.248 79.3157 79.02 79.2917 78.828C79.2917 78.612 79.2677 78.42 79.2197 78.252C79.3637 78.132 79.5557 78.036 79.7957 77.964C80.0597 77.892 80.3357 77.856 80.6237 77.856C81.1757 77.856 81.7037 78.036 82.2077 78.396C82.7117 78.732 82.9637 79.356 82.9637 80.268C82.9637 80.436 82.9037 80.82 82.7837 81.42C82.6877 81.996 82.5557 82.68 82.3877 83.472C82.2437 84.264 82.0877 85.068 81.9197 85.884C81.7757 86.676 81.6437 87.372 81.5237 87.972C80.9237 90.876 80.4317 93.24 80.0477 95.064C79.6877 96.888 79.3997 98.328 79.1837 99.384C78.9917 100.416 78.8477 101.184 78.7517 101.688C78.6797 102.168 78.6317 102.504 78.6077 102.696C78.5837 102.864 78.5717 103.02 78.5717 103.164C78.5717 103.5 78.6437 103.764 78.7877 103.956C78.9557 104.124 79.1957 104.22 79.5077 104.244C79.4357 104.58 79.2917 104.856 79.0757 105.072C78.8597 105.288 78.6077 105.444 78.3197 105.54C78.0317 105.66 77.7197 105.72 77.3837 105.72ZM88.6343 105.72C87.4583 105.72 86.4983 105.432 85.7543 104.856C85.0343 104.256 84.5063 103.452 84.1703 102.444C83.8343 101.436 83.6663 100.284 83.6663 98.988C83.6663 97.212 83.8943 95.544 84.3503 93.984C84.8303 92.4 85.5023 91.008 86.3663 89.808C87.2303 88.584 88.2503 87.636 89.4263 86.964C90.6023 86.268 91.8863 85.92 93.2783 85.92C94.4303 85.92 95.6663 86.172 96.9863 86.676L100.118 86.28L97.1663 101.652C97.1423 101.868 97.1063 102.12 97.0583 102.408C97.0103 102.696 96.9863 102.948 96.9863 103.164C96.9863 103.5 97.0583 103.764 97.2023 103.956C97.3703 104.124 97.6103 104.22 97.9223 104.244C97.8263 104.58 97.6703 104.856 97.4543 105.072C97.2383 105.288 96.9863 105.444 96.6983 105.54C96.4103 105.66 96.0863 105.72 95.7263 105.72C95.1023 105.72 94.5863 105.54 94.1783 105.18C93.7943 104.844 93.5903 104.34 93.5663 103.668C92.9423 104.268 92.2103 104.76 91.3703 105.144C90.5303 105.528 89.6183 105.72 88.6343 105.72ZM90.0743 103.596C91.0343 103.596 91.8143 103.284 92.4143 102.66C93.0383 102.012 93.5303 101.22 93.8903 100.284C94.2503 99.324 94.5143 98.4 94.6823 97.512L96.2303 89.304C95.7263 88.896 95.1863 88.596 94.6103 88.404C94.0343 88.188 93.5063 88.08 93.0263 88.08C92.2823 88.08 91.5983 88.272 90.9743 88.656C90.3743 89.04 89.8343 89.58 89.3543 90.276C88.8983 90.972 88.5023 91.8 88.1663 92.76C87.8543 93.696 87.6143 94.728 87.4463 95.856C87.3023 96.96 87.2303 98.112 87.2303 99.312C87.2303 100.512 87.4223 101.532 87.8063 102.372C88.2143 103.188 88.9703 103.596 90.0743 103.596ZM120.279 105.792C119.247 105.792 118.143 105.696 116.967 105.504C115.791 105.312 114.615 105.12 113.439 104.928C112.287 104.736 111.195 104.64 110.163 104.64C109.635 104.64 109.155 104.676 108.723 104.748C108.315 104.82 107.943 104.904 107.607 105C107.415 104.808 107.247 104.568 107.103 104.28C106.983 103.968 106.923 103.68 106.923 103.416C106.923 102.936 107.055 102.528 107.319 102.192C107.607 101.832 107.787 101.604 107.859 101.508L114.771 95.568C116.595 94.008 118.011 92.556 119.019 91.212C120.051 89.844 120.567 88.452 120.567 87.036C120.567 85.86 120.219 84.948 119.523 84.3C118.827 83.652 117.807 83.328 116.463 83.328C115.647 83.328 114.879 83.46 114.159 83.724C113.463 83.964 112.791 84.348 112.143 84.876C111.519 85.38 110.895 86.04 110.271 86.856C110.151 86.736 110.055 86.604 109.983 86.46C109.911 86.316 109.863 86.16 109.839 85.992C109.815 85.8 109.803 85.572 109.803 85.308C109.803 84.564 110.007 83.904 110.415 83.328C110.847 82.728 111.411 82.224 112.107 81.816C112.827 81.384 113.619 81.06 114.483 80.844C115.371 80.628 116.259 80.52 117.147 80.52C118.227 80.52 119.175 80.664 119.991 80.952C120.831 81.216 121.539 81.612 122.115 82.14C122.691 82.668 123.123 83.328 123.411 84.12C123.699 84.888 123.843 85.776 123.843 86.784C123.843 88.08 123.627 89.244 123.195 90.276C122.763 91.284 122.199 92.196 121.503 93.012C120.807 93.828 120.063 94.584 119.271 95.28C118.839 95.64 118.239 96.12 117.471 96.72C116.703 97.32 115.899 97.956 115.059 98.628C114.219 99.276 113.463 99.888 112.791 100.464C112.143 101.016 111.699 101.436 111.459 101.724C112.827 101.988 114.087 102.18 115.239 102.3C116.391 102.42 117.651 102.48 119.019 102.48C119.691 102.48 120.315 102.468 120.891 102.444C121.491 102.396 122.031 102.324 122.511 102.228C122.727 102.588 122.835 103.044 122.835 103.596C122.835 104.196 122.631 104.712 122.223 105.144C121.815 105.576 121.167 105.792 120.279 105.792Z" fill="#35609D"/>
<path d="M49.62 150.865C49.53 151.015 49.435 151.13 49.335 151.21C49.235 151.28 49.105 151.315 48.945 151.315C48.775 151.315 48.575 151.23 48.345 151.06C48.125 150.89 47.84 150.705 47.49 150.505C47.15 150.295 46.735 150.105 46.245 149.935C45.765 149.765 45.18 149.68 44.49 149.68C43.84 149.68 43.265 149.77 42.765 149.95C42.265 150.12 41.845 150.355 41.505 150.655C41.175 150.955 40.925 151.31 40.755 151.72C40.585 152.12 40.5 152.555 40.5 153.025C40.5 153.625 40.645 154.125 40.935 154.525C41.235 154.915 41.625 155.25 42.105 155.53C42.595 155.81 43.145 156.055 43.755 156.265C44.375 156.465 45.005 156.675 45.645 156.895C46.295 157.115 46.925 157.365 47.535 157.645C48.155 157.915 48.705 158.26 49.185 158.68C49.675 159.1 50.065 159.615 50.355 160.225C50.655 160.835 50.805 161.585 50.805 162.475C50.805 163.415 50.645 164.3 50.325 165.13C50.005 165.95 49.535 166.665 48.915 167.275C48.305 167.885 47.55 168.365 46.65 168.715C45.76 169.065 44.745 169.24 43.605 169.24C42.215 169.24 40.945 168.99 39.795 168.49C38.655 167.98 37.68 167.295 36.87 166.435L37.71 165.055C37.79 164.945 37.885 164.855 37.995 164.785C38.115 164.705 38.245 164.665 38.385 164.665C38.595 164.665 38.835 164.78 39.105 165.01C39.375 165.23 39.71 165.475 40.11 165.745C40.52 166.015 41.01 166.265 41.58 166.495C42.16 166.715 42.865 166.825 43.695 166.825C44.385 166.825 45 166.73 45.54 166.54C46.08 166.35 46.535 166.085 46.905 165.745C47.285 165.395 47.575 164.98 47.775 164.5C47.975 164.02 48.075 163.485 48.075 162.895C48.075 162.245 47.925 161.715 47.625 161.305C47.335 160.885 46.95 160.535 46.47 160.255C45.99 159.975 45.44 159.74 44.82 159.55C44.21 159.35 43.58 159.15 42.93 158.95C42.29 158.74 41.66 158.5 41.04 158.23C40.43 157.96 39.885 157.61 39.405 157.18C38.925 156.75 38.535 156.215 38.235 155.575C37.945 154.925 37.8 154.125 37.8 153.175C37.8 152.415 37.945 151.68 38.235 150.97C38.535 150.26 38.965 149.63 39.525 149.08C40.085 148.53 40.775 148.09 41.595 147.76C42.425 147.43 43.375 147.265 44.445 147.265C45.645 147.265 46.74 147.455 47.73 147.835C48.72 148.215 49.585 148.765 50.325 149.485L49.62 150.865ZM60.1132 153.565C61.0232 153.565 61.8632 153.72 62.6332 154.03C63.4032 154.33 64.0682 154.77 64.6282 155.35C65.1882 155.92 65.6232 156.63 65.9332 157.48C66.2532 158.32 66.4132 159.28 66.4132 160.36C66.4132 160.78 66.3682 161.06 66.2782 161.2C66.1882 161.34 66.0182 161.41 65.7682 161.41H55.6582C55.6782 162.37 55.8082 163.205 56.0482 163.915C56.2882 164.625 56.6182 165.22 57.0382 165.7C57.4582 166.17 57.9582 166.525 58.5382 166.765C59.1182 166.995 59.7682 167.11 60.4882 167.11C61.1582 167.11 61.7332 167.035 62.2132 166.885C62.7032 166.725 63.1232 166.555 63.4732 166.375C63.8232 166.195 64.1132 166.03 64.3432 165.88C64.5832 165.72 64.7882 165.64 64.9582 165.64C65.1782 165.64 65.3482 165.725 65.4682 165.895L66.2182 166.87C65.8882 167.27 65.4932 167.62 65.0332 167.92C64.5732 168.21 64.0782 168.45 63.5482 168.64C63.0282 168.83 62.4882 168.97 61.9282 169.06C61.3682 169.16 60.8132 169.21 60.2632 169.21C59.2132 169.21 58.2432 169.035 57.3532 168.685C56.4732 168.325 55.7082 167.805 55.0582 167.125C54.4182 166.435 53.9182 165.585 53.5582 164.575C53.1982 163.565 53.0182 162.405 53.0182 161.095C53.0182 160.035 53.1782 159.045 53.4982 158.125C53.8282 157.205 54.2982 156.41 54.9082 155.74C55.5182 155.06 56.2632 154.53 57.1432 154.15C58.0232 153.76 59.0132 153.565 60.1132 153.565ZM60.1732 155.53C58.8832 155.53 57.8682 155.905 57.1282 156.655C56.3882 157.395 55.9282 158.425 55.7482 159.745H64.0132C64.0132 159.125 63.9282 158.56 63.7582 158.05C63.5882 157.53 63.3382 157.085 63.0082 156.715C62.6782 156.335 62.2732 156.045 61.7932 155.845C61.3232 155.635 60.7832 155.53 60.1732 155.53ZM69.8306 169V153.805H71.3606C71.6506 153.805 71.8506 153.86 71.9606 153.97C72.0706 154.08 72.1456 154.27 72.1856 154.54L72.3656 156.91C72.8856 155.85 73.5256 155.025 74.2856 154.435C75.0556 153.835 75.9556 153.535 76.9856 153.535C77.4056 153.535 77.7856 153.585 78.1256 153.685C78.4656 153.775 78.7806 153.905 79.0706 154.075L78.7256 156.07C78.6556 156.32 78.5006 156.445 78.2606 156.445C78.1206 156.445 77.9056 156.4 77.6156 156.31C77.3256 156.21 76.9206 156.16 76.4006 156.16C75.4706 156.16 74.6906 156.43 74.0606 156.97C73.4406 157.51 72.9206 158.295 72.5006 159.325V169H69.8306ZM80.0102 153.805H82.2002C82.4102 153.805 82.5852 153.86 82.7252 153.97C82.8652 154.08 82.9652 154.21 83.0252 154.36L86.8802 164.14C87.0202 164.5 87.1302 164.86 87.2102 165.22C87.2902 165.58 87.3652 165.935 87.4352 166.285C87.5152 165.935 87.6002 165.58 87.6902 165.22C87.7802 164.86 87.8952 164.5 88.0352 164.14L91.9352 154.36C91.9952 154.2 92.0902 154.07 92.2202 153.97C92.3602 153.86 92.5302 153.805 92.7302 153.805H94.8152L88.6202 169H86.2052L80.0102 153.805ZM100.252 153.805V169H97.5818V153.805H100.252ZM100.852 149.035C100.852 149.295 100.797 149.54 100.687 149.77C100.587 149.99 100.447 150.19 100.267 150.37C100.097 150.54 99.8968 150.675 99.6668 150.775C99.4368 150.875 99.1918 150.925 98.9318 150.925C98.6718 150.925 98.4268 150.875 98.1968 150.775C97.9768 150.675 97.7768 150.54 97.5968 150.37C97.4268 150.19 97.2918 149.99 97.1918 149.77C97.0918 149.54 97.0418 149.295 97.0418 149.035C97.0418 148.775 97.0918 148.53 97.1918 148.3C97.2918 148.06 97.4268 147.855 97.5968 147.685C97.7768 147.505 97.9768 147.365 98.1968 147.265C98.4268 147.165 98.6718 147.115 98.9318 147.115C99.1918 147.115 99.4368 147.165 99.6668 147.265C99.8968 147.365 100.097 147.505 100.267 147.685C100.447 147.855 100.587 148.06 100.687 148.3C100.797 148.53 100.852 148.775 100.852 149.035ZM108.768 172.705C108.828 172.705 108.898 172.72 108.978 172.75C109.058 172.79 109.153 172.83 109.263 172.87C109.373 172.92 109.508 172.96 109.668 172.99C109.828 173.03 110.013 173.05 110.223 173.05C110.643 173.05 110.958 172.965 111.168 172.795C111.388 172.635 111.498 172.425 111.498 172.165C111.498 171.975 111.443 171.815 111.333 171.685C111.223 171.555 111.063 171.445 110.853 171.355C110.653 171.265 110.403 171.19 110.103 171.13C109.803 171.07 109.463 171.015 109.083 170.965L109.638 169.15C108.808 169.04 108.038 168.79 107.328 168.4C106.628 168 106.023 167.47 105.513 166.81C105.003 166.15 104.603 165.365 104.313 164.455C104.023 163.545 103.878 162.525 103.878 161.395C103.878 160.265 104.033 159.22 104.343 158.26C104.663 157.3 105.123 156.475 105.723 155.785C106.333 155.085 107.083 154.54 107.973 154.15C108.863 153.76 109.883 153.565 111.033 153.565C112.093 153.565 113.033 153.74 113.853 154.09C114.673 154.43 115.398 154.915 116.028 155.545L115.323 156.505C115.243 156.615 115.163 156.7 115.083 156.76C115.003 156.82 114.888 156.85 114.738 156.85C114.588 156.85 114.423 156.79 114.243 156.67C114.073 156.54 113.853 156.4 113.583 156.25C113.313 156.1 112.983 155.965 112.593 155.845C112.213 155.715 111.743 155.65 111.183 155.65C110.443 155.65 109.788 155.785 109.218 156.055C108.648 156.315 108.168 156.695 107.778 157.195C107.398 157.695 107.108 158.3 106.908 159.01C106.718 159.72 106.623 160.515 106.623 161.395C106.623 162.315 106.728 163.135 106.938 163.855C107.148 164.565 107.443 165.165 107.823 165.655C108.203 166.135 108.663 166.505 109.203 166.765C109.753 167.015 110.368 167.14 111.048 167.14C111.698 167.14 112.233 167.065 112.653 166.915C113.073 166.755 113.423 166.58 113.703 166.39C113.983 166.2 114.213 166.03 114.393 165.88C114.573 165.72 114.753 165.64 114.933 165.64C115.043 165.64 115.138 165.665 115.218 165.715C115.308 165.755 115.383 165.815 115.443 165.895L116.193 166.87C115.603 167.59 114.883 168.135 114.033 168.505C113.183 168.875 112.273 169.1 111.303 169.18L111.048 170.05C111.948 170.25 112.598 170.52 112.998 170.86C113.408 171.21 113.613 171.655 113.613 172.195C113.613 172.515 113.533 172.8 113.373 173.05C113.213 173.31 112.988 173.53 112.698 173.71C112.418 173.89 112.078 174.025 111.678 174.115C111.278 174.215 110.838 174.265 110.358 174.265C109.948 174.265 109.558 174.22 109.188 174.13C108.818 174.05 108.478 173.94 108.168 173.8L108.423 172.975C108.483 172.795 108.598 172.705 108.768 172.705ZM125.111 153.565C126.221 153.565 127.221 153.75 128.111 154.12C129.011 154.49 129.771 155.015 130.391 155.695C131.021 156.375 131.501 157.2 131.831 158.17C132.171 159.13 132.341 160.205 132.341 161.395C132.341 162.595 132.171 163.675 131.831 164.635C131.501 165.595 131.021 166.415 130.391 167.095C129.771 167.775 129.011 168.3 128.111 168.67C127.221 169.03 126.221 169.21 125.111 169.21C124.001 169.21 122.996 169.03 122.096 168.67C121.206 168.3 120.446 167.775 119.816 167.095C119.186 166.415 118.701 165.595 118.361 164.635C118.021 163.675 117.851 162.595 117.851 161.395C117.851 160.205 118.021 159.13 118.361 158.17C118.701 157.2 119.186 156.375 119.816 155.695C120.446 155.015 121.206 154.49 122.096 154.12C122.996 153.75 124.001 153.565 125.111 153.565ZM125.111 167.125C126.611 167.125 127.731 166.625 128.471 165.625C129.211 164.615 129.581 163.21 129.581 161.41C129.581 159.6 129.211 158.19 128.471 157.18C127.731 156.17 126.611 155.665 125.111 155.665C124.351 155.665 123.691 155.795 123.131 156.055C122.571 156.315 122.101 156.69 121.721 157.18C121.351 157.67 121.071 158.275 120.881 158.995C120.701 159.705 120.611 160.51 120.611 161.41C120.611 162.31 120.701 163.115 120.881 163.825C121.071 164.535 121.351 165.135 121.721 165.625C122.101 166.105 122.571 166.475 123.131 166.735C123.691 166.995 124.351 167.125 125.111 167.125ZM144.331 156.31C144.211 156.53 144.026 156.64 143.776 156.64C143.626 156.64 143.456 156.585 143.266 156.475C143.076 156.365 142.841 156.245 142.561 156.115C142.291 155.975 141.966 155.85 141.586 155.74C141.206 155.62 140.756 155.56 140.236 155.56C139.786 155.56 139.381 155.62 139.021 155.74C138.661 155.85 138.351 156.005 138.091 156.205C137.841 156.405 137.646 156.64 137.506 156.91C137.376 157.17 137.311 157.455 137.311 157.765C137.311 158.155 137.421 158.48 137.641 158.74C137.871 159 138.171 159.225 138.541 159.415C138.911 159.605 139.331 159.775 139.801 159.925C140.271 160.065 140.751 160.22 141.241 160.39C141.741 160.55 142.226 160.73 142.696 160.93C143.166 161.13 143.586 161.38 143.956 161.68C144.326 161.98 144.621 162.35 144.841 162.79C145.071 163.22 145.186 163.74 145.186 164.35C145.186 165.05 145.061 165.7 144.811 166.3C144.561 166.89 144.191 167.405 143.701 167.845C143.211 168.275 142.611 168.615 141.901 168.865C141.191 169.115 140.371 169.24 139.441 169.24C138.381 169.24 137.421 169.07 136.561 168.73C135.701 168.38 134.971 167.935 134.371 167.395L135.001 166.375C135.081 166.245 135.176 166.145 135.286 166.075C135.396 166.005 135.541 165.97 135.721 165.97C135.901 165.97 136.091 166.04 136.291 166.18C136.491 166.32 136.731 166.475 137.011 166.645C137.301 166.815 137.646 166.97 138.046 167.11C138.456 167.25 138.966 167.32 139.576 167.32C140.096 167.32 140.551 167.255 140.941 167.125C141.331 166.985 141.656 166.8 141.916 166.57C142.176 166.34 142.366 166.075 142.486 165.775C142.616 165.475 142.681 165.155 142.681 164.815C142.681 164.395 142.566 164.05 142.336 163.78C142.116 163.5 141.821 163.265 141.451 163.075C141.081 162.875 140.656 162.705 140.176 162.565C139.706 162.415 139.221 162.26 138.721 162.1C138.231 161.94 137.746 161.76 137.266 161.56C136.796 161.35 136.376 161.09 136.006 160.78C135.636 160.47 135.336 160.09 135.106 159.64C134.886 159.18 134.776 158.625 134.776 157.975C134.776 157.395 134.896 156.84 135.136 156.31C135.376 155.77 135.726 155.3 136.186 154.9C136.646 154.49 137.211 154.165 137.881 153.925C138.551 153.685 139.316 153.565 140.176 153.565C141.176 153.565 142.071 153.725 142.861 154.045C143.661 154.355 144.351 154.785 144.931 155.335L144.331 156.31ZM165.135 169C164.755 169 164.515 168.815 164.415 168.445L164.175 166.6C163.525 167.39 162.78 168.025 161.94 168.505C161.11 168.975 160.155 169.21 159.075 169.21C158.205 169.21 157.415 169.045 156.705 168.715C155.995 168.375 155.39 167.88 154.89 167.23C154.39 166.58 154.005 165.77 153.735 164.8C153.465 163.83 153.33 162.715 153.33 161.455C153.33 160.335 153.48 159.295 153.78 158.335C154.08 157.365 154.51 156.525 155.07 155.815C155.64 155.105 156.33 154.55 157.14 154.15C157.95 153.74 158.87 153.535 159.9 153.535C160.83 153.535 161.625 153.695 162.285 154.015C162.945 154.325 163.535 154.765 164.055 155.335V146.905H166.725V169H165.135ZM159.96 167.05C160.83 167.05 161.59 166.85 162.24 166.45C162.9 166.05 163.505 165.485 164.055 164.755V157.405C163.565 156.745 163.025 156.285 162.435 156.025C161.855 155.755 161.21 155.62 160.5 155.62C159.08 155.62 157.99 156.125 157.23 157.135C156.47 158.145 156.09 159.585 156.09 161.455C156.09 162.445 156.175 163.295 156.345 164.005C156.515 164.705 156.765 165.285 157.095 165.745C157.425 166.195 157.83 166.525 158.31 166.735C158.79 166.945 159.34 167.05 159.96 167.05ZM177.213 153.565C178.123 153.565 178.963 153.72 179.733 154.03C180.503 154.33 181.168 154.77 181.728 155.35C182.288 155.92 182.723 156.63 183.033 157.48C183.353 158.32 183.513 159.28 183.513 160.36C183.513 160.78 183.468 161.06 183.378 161.2C183.288 161.34 183.118 161.41 182.868 161.41H172.758C172.778 162.37 172.908 163.205 173.148 163.915C173.388 164.625 173.718 165.22 174.138 165.7C174.558 166.17 175.058 166.525 175.638 166.765C176.218 166.995 176.868 167.11 177.588 167.11C178.258 167.11 178.833 167.035 179.313 166.885C179.803 166.725 180.223 166.555 180.573 166.375C180.923 166.195 181.213 166.03 181.443 165.88C181.683 165.72 181.888 165.64 182.058 165.64C182.278 165.64 182.448 165.725 182.568 165.895L183.318 166.87C182.988 167.27 182.593 167.62 182.133 167.92C181.673 168.21 181.178 168.45 180.648 168.64C180.128 168.83 179.588 168.97 179.028 169.06C178.468 169.16 177.913 169.21 177.363 169.21C176.313 169.21 175.343 169.035 174.453 168.685C173.573 168.325 172.808 167.805 172.158 167.125C171.518 166.435 171.018 165.585 170.658 164.575C170.298 163.565 170.118 162.405 170.118 161.095C170.118 160.035 170.278 159.045 170.598 158.125C170.928 157.205 171.398 156.41 172.008 155.74C172.618 155.06 173.363 154.53 174.243 154.15C175.123 153.76 176.113 153.565 177.213 153.565ZM177.273 155.53C175.983 155.53 174.968 155.905 174.228 156.655C173.488 157.395 173.028 158.425 172.848 159.745H181.113C181.113 159.125 181.028 158.56 180.858 158.05C180.688 157.53 180.438 157.085 180.108 156.715C179.778 156.335 179.373 156.045 178.893 155.845C178.423 155.635 177.883 155.53 177.273 155.53ZM203.891 169H202.706C202.446 169 202.236 168.96 202.076 168.88C201.916 168.8 201.811 168.63 201.761 168.37L201.461 166.96C201.061 167.32 200.671 167.645 200.291 167.935C199.911 168.215 199.511 168.455 199.091 168.655C198.671 168.845 198.221 168.99 197.741 169.09C197.271 169.19 196.746 169.24 196.166 169.24C195.576 169.24 195.021 169.16 194.501 169C193.991 168.83 193.546 168.58 193.166 168.25C192.786 167.92 192.481 167.505 192.251 167.005C192.031 166.495 191.921 165.895 191.921 165.205C191.921 164.605 192.086 164.03 192.416 163.48C192.746 162.92 193.276 162.425 194.006 161.995C194.746 161.565 195.711 161.215 196.901 160.945C198.091 160.665 199.546 160.505 201.266 160.465V159.28C201.266 158.1 201.011 157.21 200.501 156.61C200.001 156 199.256 155.695 198.266 155.695C197.616 155.695 197.066 155.78 196.616 155.95C196.176 156.11 195.791 156.295 195.461 156.505C195.141 156.705 194.861 156.89 194.621 157.06C194.391 157.22 194.161 157.3 193.931 157.3C193.751 157.3 193.591 157.255 193.451 157.165C193.321 157.065 193.216 156.945 193.136 156.805L192.656 155.95C193.496 155.14 194.401 154.535 195.371 154.135C196.341 153.735 197.416 153.535 198.596 153.535C199.446 153.535 200.201 153.675 200.861 153.955C201.521 154.235 202.076 154.625 202.526 155.125C202.976 155.625 203.316 156.23 203.546 156.94C203.776 157.65 203.891 158.43 203.891 159.28V169ZM196.961 167.365C197.431 167.365 197.861 167.32 198.251 167.23C198.641 167.13 199.006 166.995 199.346 166.825C199.696 166.645 200.026 166.43 200.336 166.18C200.656 165.93 200.966 165.645 201.266 165.325V162.16C200.036 162.2 198.991 162.3 198.131 162.46C197.271 162.61 196.571 162.81 196.031 163.06C195.491 163.31 195.096 163.605 194.846 163.945C194.606 164.285 194.486 164.665 194.486 165.085C194.486 165.485 194.551 165.83 194.681 166.12C194.811 166.41 194.986 166.65 195.206 166.84C195.426 167.02 195.686 167.155 195.986 167.245C196.286 167.325 196.611 167.365 196.961 167.365ZM208.026 169V146.905H210.711V155.995C211.341 155.265 212.061 154.68 212.871 154.24C213.691 153.79 214.626 153.565 215.676 153.565C216.556 153.565 217.351 153.73 218.061 154.06C218.771 154.39 219.376 154.885 219.876 155.545C220.376 156.195 220.761 157.005 221.031 157.975C221.301 158.935 221.436 160.045 221.436 161.305C221.436 162.425 221.286 163.47 220.986 164.44C220.686 165.4 220.251 166.235 219.681 166.945C219.121 167.645 218.431 168.2 217.611 168.61C216.801 169.01 215.886 169.21 214.866 169.21C213.886 169.21 213.051 169.02 212.361 168.64C211.681 168.26 211.086 167.73 210.576 167.05L210.441 168.43C210.361 168.81 210.131 169 209.751 169H208.026ZM214.806 155.695C213.936 155.695 213.171 155.895 212.511 156.295C211.861 156.695 211.261 157.26 210.711 157.99V165.34C211.191 166 211.721 166.465 212.301 166.735C212.891 167.005 213.546 167.14 214.266 167.14C215.686 167.14 216.776 166.635 217.536 165.625C218.296 164.615 218.676 163.175 218.676 161.305C218.676 160.315 218.586 159.465 218.406 158.755C218.236 158.045 217.986 157.465 217.656 157.015C217.326 156.555 216.921 156.22 216.441 156.01C215.961 155.8 215.416 155.695 214.806 155.695ZM230.844 153.565C231.954 153.565 232.954 153.75 233.844 154.12C234.744 154.49 235.504 155.015 236.124 155.695C236.754 156.375 237.234 157.2 237.564 158.17C237.904 159.13 238.074 160.205 238.074 161.395C238.074 162.595 237.904 163.675 237.564 164.635C237.234 165.595 236.754 166.415 236.124 167.095C235.504 167.775 234.744 168.3 233.844 168.67C232.954 169.03 231.954 169.21 230.844 169.21C229.734 169.21 228.729 169.03 227.829 168.67C226.939 168.3 226.179 167.775 225.549 167.095C224.919 166.415 224.434 165.595 224.094 164.635C223.754 163.675 223.584 162.595 223.584 161.395C223.584 160.205 223.754 159.13 224.094 158.17C224.434 157.2 224.919 156.375 225.549 155.695C226.179 155.015 226.939 154.49 227.829 154.12C228.729 153.75 229.734 153.565 230.844 153.565ZM230.844 167.125C232.344 167.125 233.464 166.625 234.204 165.625C234.944 164.615 235.314 163.21 235.314 161.41C235.314 159.6 234.944 158.19 234.204 157.18C233.464 156.17 232.344 155.665 230.844 155.665C230.084 155.665 229.424 155.795 228.864 156.055C228.304 156.315 227.834 156.69 227.454 157.18C227.084 157.67 226.804 158.275 226.614 158.995C226.434 159.705 226.344 160.51 226.344 161.41C226.344 162.31 226.434 163.115 226.614 163.825C226.804 164.535 227.084 165.135 227.454 165.625C227.834 166.105 228.304 166.475 228.864 166.735C229.424 166.995 230.084 167.125 230.844 167.125ZM241.364 169V153.805H242.894C243.184 153.805 243.384 153.86 243.494 153.97C243.604 154.08 243.679 154.27 243.719 154.54L243.899 156.91C244.419 155.85 245.059 155.025 245.819 154.435C246.589 153.835 247.489 153.535 248.519 153.535C248.939 153.535 249.319 153.585 249.659 153.685C249.999 153.775 250.314 153.905 250.604 154.075L250.259 156.07C250.189 156.32 250.034 156.445 249.794 156.445C249.654 156.445 249.439 156.4 249.149 156.31C248.859 156.21 248.454 156.16 247.934 156.16C247.004 156.16 246.224 156.43 245.594 156.97C244.974 157.51 244.454 158.295 244.034 159.325V169H241.364ZM258.068 169.24C256.868 169.24 255.943 168.905 255.293 168.235C254.653 167.565 254.333 166.6 254.333 165.34V156.04H252.503C252.343 156.04 252.208 155.995 252.098 155.905C251.988 155.805 251.933 155.655 251.933 155.455V154.39L254.423 154.075L255.038 149.38C255.058 149.23 255.123 149.11 255.233 149.02C255.343 148.92 255.483 148.87 255.653 148.87H257.003V154.105H261.353V156.04H257.003V165.16C257.003 165.8 257.158 166.275 257.468 166.585C257.778 166.895 258.178 167.05 258.668 167.05C258.948 167.05 259.188 167.015 259.388 166.945C259.598 166.865 259.778 166.78 259.928 166.69C260.078 166.6 260.203 166.52 260.303 166.45C260.413 166.37 260.508 166.33 260.588 166.33C260.728 166.33 260.853 166.415 260.963 166.585L261.743 167.86C261.283 168.29 260.728 168.63 260.078 168.88C259.428 169.12 258.758 169.24 258.068 169.24ZM275.815 169H274.63C274.37 169 274.16 168.96 274 168.88C273.84 168.8 273.735 168.63 273.685 168.37L273.385 166.96C272.985 167.32 272.595 167.645 272.215 167.935C271.835 168.215 271.435 168.455 271.015 168.655C270.595 168.845 270.145 168.99 269.665 169.09C269.195 169.19 268.67 169.24 268.09 169.24C267.5 169.24 266.945 169.16 266.425 169C265.915 168.83 265.47 168.58 265.09 168.25C264.71 167.92 264.405 167.505 264.175 167.005C263.955 166.495 263.845 165.895 263.845 165.205C263.845 164.605 264.01 164.03 264.34 163.48C264.67 162.92 265.2 162.425 265.93 161.995C266.67 161.565 267.635 161.215 268.825 160.945C270.015 160.665 271.47 160.505 273.19 160.465V159.28C273.19 158.1 272.935 157.21 272.425 156.61C271.925 156 271.18 155.695 270.19 155.695C269.54 155.695 268.99 155.78 268.54 155.95C268.1 156.11 267.715 156.295 267.385 156.505C267.065 156.705 266.785 156.89 266.545 157.06C266.315 157.22 266.085 157.3 265.855 157.3C265.675 157.3 265.515 157.255 265.375 157.165C265.245 157.065 265.14 156.945 265.06 156.805L264.58 155.95C265.42 155.14 266.325 154.535 267.295 154.135C268.265 153.735 269.34 153.535 270.52 153.535C271.37 153.535 272.125 153.675 272.785 153.955C273.445 154.235 274 154.625 274.45 155.125C274.9 155.625 275.24 156.23 275.47 156.94C275.7 157.65 275.815 158.43 275.815 159.28V169ZM268.885 167.365C269.355 167.365 269.785 167.32 270.175 167.23C270.565 167.13 270.93 166.995 271.27 166.825C271.62 166.645 271.95 166.43 272.26 166.18C272.58 165.93 272.89 165.645 273.19 165.325V162.16C271.96 162.2 270.915 162.3 270.055 162.46C269.195 162.61 268.495 162.81 267.955 163.06C267.415 163.31 267.02 163.605 266.77 163.945C266.53 164.285 266.41 164.665 266.41 165.085C266.41 165.485 266.475 165.83 266.605 166.12C266.735 166.41 266.91 166.65 267.13 166.84C267.35 167.02 267.61 167.155 267.91 167.245C268.21 167.325 268.535 167.365 268.885 167.365ZM279.86 169V153.805H281.45C281.83 153.805 282.07 153.99 282.17 154.36L282.365 155.92C282.925 155.23 283.55 154.665 284.24 154.225C284.94 153.785 285.75 153.565 286.67 153.565C287.7 153.565 288.53 153.85 289.16 154.42C289.8 154.99 290.26 155.76 290.54 156.73C290.75 156.18 291.025 155.705 291.365 155.305C291.715 154.905 292.105 154.575 292.535 154.315C292.965 154.055 293.42 153.865 293.9 153.745C294.39 153.625 294.885 153.565 295.385 153.565C296.185 153.565 296.895 153.695 297.515 153.955C298.145 154.205 298.675 154.575 299.105 155.065C299.545 155.555 299.88 156.16 300.11 156.88C300.34 157.59 300.455 158.405 300.455 159.325V169H297.785V159.325C297.785 158.135 297.525 157.235 297.005 156.625C296.485 156.005 295.73 155.695 294.74 155.695C294.3 155.695 293.88 155.775 293.48 155.935C293.09 156.085 292.745 156.31 292.445 156.61C292.145 156.91 291.905 157.29 291.725 157.75C291.555 158.2 291.47 158.725 291.47 159.325V169H288.8V159.325C288.8 158.105 288.555 157.195 288.065 156.595C287.575 155.995 286.86 155.695 285.92 155.695C285.26 155.695 284.645 155.875 284.075 156.235C283.515 156.585 283 157.065 282.53 157.675V169H279.86ZM310.514 153.565C311.424 153.565 312.264 153.72 313.034 154.03C313.804 154.33 314.469 154.77 315.029 155.35C315.589 155.92 316.024 156.63 316.334 157.48C316.654 158.32 316.814 159.28 316.814 160.36C316.814 160.78 316.769 161.06 316.679 161.2C316.589 161.34 316.419 161.41 316.169 161.41H306.059C306.079 162.37 306.209 163.205 306.449 163.915C306.689 164.625 307.019 165.22 307.439 165.7C307.859 166.17 308.359 166.525 308.939 166.765C309.519 166.995 310.169 167.11 310.889 167.11C311.559 167.11 312.134 167.035 312.614 166.885C313.104 166.725 313.524 166.555 313.874 166.375C314.224 166.195 314.514 166.03 314.744 165.88C314.984 165.72 315.189 165.64 315.359 165.64C315.579 165.64 315.749 165.725 315.869 165.895L316.619 166.87C316.289 167.27 315.894 167.62 315.434 167.92C314.974 168.21 314.479 168.45 313.949 168.64C313.429 168.83 312.889 168.97 312.329 169.06C311.769 169.16 311.214 169.21 310.664 169.21C309.614 169.21 308.644 169.035 307.754 168.685C306.874 168.325 306.109 167.805 305.459 167.125C304.819 166.435 304.319 165.585 303.959 164.575C303.599 163.565 303.419 162.405 303.419 161.095C303.419 160.035 303.579 159.045 303.899 158.125C304.229 157.205 304.699 156.41 305.309 155.74C305.919 155.06 306.664 154.53 307.544 154.15C308.424 153.76 309.414 153.565 310.514 153.565ZM310.574 155.53C309.284 155.53 308.269 155.905 307.529 156.655C306.789 157.395 306.329 158.425 306.149 159.745H314.414C314.414 159.125 314.329 158.56 314.159 158.05C313.989 157.53 313.739 157.085 313.409 156.715C313.079 156.335 312.674 156.045 312.194 155.845C311.724 155.635 311.184 155.53 310.574 155.53ZM320.231 169V153.805H321.821C322.201 153.805 322.441 153.99 322.541 154.36L322.751 156.01C323.411 155.28 324.146 154.69 324.956 154.24C325.776 153.79 326.721 153.565 327.791 153.565C328.621 153.565 329.351 153.705 329.981 153.985C330.621 154.255 331.151 154.645 331.571 155.155C332.001 155.655 332.326 156.26 332.546 156.97C332.766 157.68 332.876 158.465 332.876 159.325V169H330.206V159.325C330.206 158.175 329.941 157.285 329.411 156.655C328.891 156.015 328.091 155.695 327.011 155.695C326.221 155.695 325.481 155.885 324.791 156.265C324.111 156.645 323.481 157.16 322.901 157.81V169H320.231ZM341.506 169.24C340.306 169.24 339.381 168.905 338.731 168.235C338.091 167.565 337.771 166.6 337.771 165.34V156.04H335.941C335.781 156.04 335.646 155.995 335.536 155.905C335.426 155.805 335.371 155.655 335.371 155.455V154.39L337.861 154.075L338.476 149.38C338.496 149.23 338.561 149.11 338.671 149.02C338.781 148.92 338.921 148.87 339.091 148.87H340.441V154.105H344.791V156.04H340.441V165.16C340.441 165.8 340.596 166.275 340.906 166.585C341.216 166.895 341.616 167.05 342.106 167.05C342.386 167.05 342.626 167.015 342.826 166.945C343.036 166.865 343.216 166.78 343.366 166.69C343.516 166.6 343.641 166.52 343.741 166.45C343.851 166.37 343.946 166.33 344.026 166.33C344.166 166.33 344.291 166.415 344.401 166.585L345.181 167.86C344.721 168.29 344.166 168.63 343.516 168.88C342.866 169.12 342.196 169.24 341.506 169.24ZM354.242 153.565C355.352 153.565 356.352 153.75 357.242 154.12C358.142 154.49 358.902 155.015 359.522 155.695C360.152 156.375 360.632 157.2 360.962 158.17C361.302 159.13 361.472 160.205 361.472 161.395C361.472 162.595 361.302 163.675 360.962 164.635C360.632 165.595 360.152 166.415 359.522 167.095C358.902 167.775 358.142 168.3 357.242 168.67C356.352 169.03 355.352 169.21 354.242 169.21C353.132 169.21 352.127 169.03 351.227 168.67C350.337 168.3 349.577 167.775 348.947 167.095C348.317 166.415 347.832 165.595 347.492 164.635C347.152 163.675 346.982 162.595 346.982 161.395C346.982 160.205 347.152 159.13 347.492 158.17C347.832 157.2 348.317 156.375 348.947 155.695C349.577 155.015 350.337 154.49 351.227 154.12C352.127 153.75 353.132 153.565 354.242 153.565ZM354.242 167.125C355.742 167.125 356.862 166.625 357.602 165.625C358.342 164.615 358.712 163.21 358.712 161.41C358.712 159.6 358.342 158.19 357.602 157.18C356.862 156.17 355.742 155.665 354.242 155.665C353.482 155.665 352.822 155.795 352.262 156.055C351.702 156.315 351.232 156.69 350.852 157.18C350.482 157.67 350.202 158.275 350.012 158.995C349.832 159.705 349.742 160.51 349.742 161.41C349.742 162.31 349.832 163.115 350.012 163.825C350.202 164.535 350.482 165.135 350.852 165.625C351.232 166.105 351.702 166.475 352.262 166.735C352.822 166.995 353.482 167.125 354.242 167.125ZM38.19 216.145V195.805H39.78C40.16 195.805 40.4 195.99 40.5 196.36L40.725 198.16C41.375 197.37 42.115 196.735 42.945 196.255C43.785 195.775 44.75 195.535 45.84 195.535C46.71 195.535 47.5 195.705 48.21 196.045C48.92 196.375 49.525 196.87 50.025 197.53C50.525 198.18 50.91 198.99 51.18 199.96C51.45 200.93 51.585 202.045 51.585 203.305C51.585 204.425 51.435 205.47 51.135 206.44C50.835 207.4 50.405 208.235 49.845 208.945C49.285 209.645 48.595 210.2 47.775 210.61C46.965 211.01 46.05 211.21 45.03 211.21C44.09 211.21 43.285 211.055 42.615 210.745C41.955 210.435 41.37 209.995 40.86 209.425V216.145H38.19ZM44.955 197.695C44.085 197.695 43.32 197.895 42.66 198.295C42.01 198.695 41.41 199.26 40.86 199.99V207.34C41.35 208 41.885 208.465 42.465 208.735C43.055 209.005 43.71 209.14 44.43 209.14C45.84 209.14 46.925 208.635 47.685 207.625C48.445 206.615 48.825 205.175 48.825 203.305C48.825 202.315 48.735 201.465 48.555 200.755C48.385 200.045 48.135 199.465 47.805 199.015C47.475 198.555 47.07 198.22 46.59 198.01C46.11 197.8 45.565 197.695 44.955 197.695ZM54.7427 211V195.805H56.2727C56.5627 195.805 56.7627 195.86 56.8727 195.97C56.9827 196.08 57.0577 196.27 57.0977 196.54L57.2777 198.91C57.7977 197.85 58.4377 197.025 59.1977 196.435C59.9677 195.835 60.8677 195.535 61.8977 195.535C62.3177 195.535 62.6977 195.585 63.0377 195.685C63.3777 195.775 63.6927 195.905 63.9827 196.075L63.6377 198.07C63.5677 198.32 63.4127 198.445 63.1727 198.445C63.0327 198.445 62.8177 198.4 62.5277 198.31C62.2377 198.21 61.8327 198.16 61.3127 198.16C60.3827 198.16 59.6027 198.43 58.9727 198.97C58.3527 199.51 57.8327 200.295 57.4127 201.325V211H54.7427ZM72.8573 195.565C73.7673 195.565 74.6073 195.72 75.3773 196.03C76.1473 196.33 76.8123 196.77 77.3723 197.35C77.9323 197.92 78.3673 198.63 78.6773 199.48C78.9973 200.32 79.1573 201.28 79.1573 202.36C79.1573 202.78 79.1123 203.06 79.0223 203.2C78.9323 203.34 78.7623 203.41 78.5123 203.41H68.4023C68.4223 204.37 68.5523 205.205 68.7923 205.915C69.0323 206.625 69.3623 207.22 69.7823 207.7C70.2023 208.17 70.7023 208.525 71.2823 208.765C71.8623 208.995 72.5123 209.11 73.2323 209.11C73.9023 209.11 74.4773 209.035 74.9573 208.885C75.4473 208.725 75.8673 208.555 76.2173 208.375C76.5673 208.195 76.8573 208.03 77.0873 207.88C77.3273 207.72 77.5323 207.64 77.7023 207.64C77.9223 207.64 78.0923 207.725 78.2123 207.895L78.9623 208.87C78.6323 209.27 78.2373 209.62 77.7773 209.92C77.3173 210.21 76.8223 210.45 76.2923 210.64C75.7723 210.83 75.2323 210.97 74.6723 211.06C74.1123 211.16 73.5573 211.21 73.0073 211.21C71.9573 211.21 70.9873 211.035 70.0973 210.685C69.2173 210.325 68.4523 209.805 67.8023 209.125C67.1623 208.435 66.6623 207.585 66.3023 206.575C65.9423 205.565 65.7623 204.405 65.7623 203.095C65.7623 202.035 65.9223 201.045 66.2423 200.125C66.5723 199.205 67.0423 198.41 67.6523 197.74C68.2623 197.06 69.0073 196.53 69.8873 196.15C70.7673 195.76 71.7573 195.565 72.8573 195.565ZM72.9173 197.53C71.6273 197.53 70.6123 197.905 69.8723 198.655C69.1323 199.395 68.6723 200.425 68.4923 201.745H76.7573C76.7573 201.125 76.6723 200.56 76.5023 200.05C76.3323 199.53 76.0823 199.085 75.7523 198.715C75.4223 198.335 75.0173 198.045 74.5373 197.845C74.0673 197.635 73.5273 197.53 72.9173 197.53ZM80.2739 195.805H82.4639C82.6739 195.805 82.8489 195.86 82.9889 195.97C83.1289 196.08 83.2289 196.21 83.2889 196.36L87.1439 206.14C87.2839 206.5 87.3939 206.86 87.4739 207.22C87.5539 207.58 87.6289 207.935 87.6989 208.285C87.7789 207.935 87.8639 207.58 87.9539 207.22C88.0439 206.86 88.1589 206.5 88.2989 206.14L92.1989 196.36C92.2589 196.2 92.3539 196.07 92.4839 195.97C92.6239 195.86 92.7939 195.805 92.9939 195.805H95.0789L88.8839 211H86.4689L80.2739 195.805ZM100.515 195.805V211H97.8455V195.805H100.515ZM101.115 191.035C101.115 191.295 101.06 191.54 100.95 191.77C100.85 191.99 100.71 192.19 100.53 192.37C100.36 192.54 100.16 192.675 99.9305 192.775C99.7005 192.875 99.4555 192.925 99.1955 192.925C98.9355 192.925 98.6905 192.875 98.4605 192.775C98.2405 192.675 98.0405 192.54 97.8605 192.37C97.6905 192.19 97.5555 191.99 97.4555 191.77C97.3555 191.54 97.3055 191.295 97.3055 191.035C97.3055 190.775 97.3555 190.53 97.4555 190.3C97.5555 190.06 97.6905 189.855 97.8605 189.685C98.0405 189.505 98.2405 189.365 98.4605 189.265C98.6905 189.165 98.9355 189.115 99.1955 189.115C99.4555 189.115 99.7005 189.165 99.9305 189.265C100.16 189.365 100.36 189.505 100.53 189.685C100.71 189.855 100.85 190.06 100.95 190.3C101.06 190.53 101.115 190.775 101.115 191.035ZM113.921 198.31C113.801 198.53 113.616 198.64 113.366 198.64C113.216 198.64 113.046 198.585 112.856 198.475C112.666 198.365 112.431 198.245 112.151 198.115C111.881 197.975 111.556 197.85 111.176 197.74C110.796 197.62 110.346 197.56 109.826 197.56C109.376 197.56 108.971 197.62 108.611 197.74C108.251 197.85 107.941 198.005 107.681 198.205C107.431 198.405 107.236 198.64 107.096 198.91C106.966 199.17 106.901 199.455 106.901 199.765C106.901 200.155 107.011 200.48 107.231 200.74C107.461 201 107.761 201.225 108.131 201.415C108.501 201.605 108.921 201.775 109.391 201.925C109.861 202.065 110.341 202.22 110.831 202.39C111.331 202.55 111.816 202.73 112.286 202.93C112.756 203.13 113.176 203.38 113.546 203.68C113.916 203.98 114.211 204.35 114.431 204.79C114.661 205.22 114.776 205.74 114.776 206.35C114.776 207.05 114.651 207.7 114.401 208.3C114.151 208.89 113.781 209.405 113.291 209.845C112.801 210.275 112.201 210.615 111.491 210.865C110.781 211.115 109.961 211.24 109.031 211.24C107.971 211.24 107.011 211.07 106.151 210.73C105.291 210.38 104.561 209.935 103.961 209.395L104.591 208.375C104.671 208.245 104.766 208.145 104.876 208.075C104.986 208.005 105.131 207.97 105.311 207.97C105.491 207.97 105.681 208.04 105.881 208.18C106.081 208.32 106.321 208.475 106.601 208.645C106.891 208.815 107.236 208.97 107.636 209.11C108.046 209.25 108.556 209.32 109.166 209.32C109.686 209.32 110.141 209.255 110.531 209.125C110.921 208.985 111.246 208.8 111.506 208.57C111.766 208.34 111.956 208.075 112.076 207.775C112.206 207.475 112.271 207.155 112.271 206.815C112.271 206.395 112.156 206.05 111.926 205.78C111.706 205.5 111.411 205.265 111.041 205.075C110.671 204.875 110.246 204.705 109.766 204.565C109.296 204.415 108.811 204.26 108.311 204.1C107.821 203.94 107.336 203.76 106.856 203.56C106.386 203.35 105.966 203.09 105.596 202.78C105.226 202.47 104.926 202.09 104.696 201.64C104.476 201.18 104.366 200.625 104.366 199.975C104.366 199.395 104.486 198.84 104.726 198.31C104.966 197.77 105.316 197.3 105.776 196.9C106.236 196.49 106.801 196.165 107.471 195.925C108.141 195.685 108.906 195.565 109.766 195.565C110.766 195.565 111.661 195.725 112.451 196.045C113.251 196.355 113.941 196.785 114.521 197.335L113.921 198.31ZM122.834 211.24C121.634 211.24 120.709 210.905 120.059 210.235C119.419 209.565 119.099 208.6 119.099 207.34V198.04H117.269C117.109 198.04 116.974 197.995 116.864 197.905C116.754 197.805 116.699 197.655 116.699 197.455V196.39L119.189 196.075L119.804 191.38C119.824 191.23 119.889 191.11 119.999 191.02C120.109 190.92 120.249 190.87 120.419 190.87H121.769V196.105H126.119V198.04H121.769V207.16C121.769 207.8 121.924 208.275 122.234 208.585C122.544 208.895 122.944 209.05 123.434 209.05C123.714 209.05 123.954 209.015 124.154 208.945C124.364 208.865 124.544 208.78 124.694 208.69C124.844 208.6 124.969 208.52 125.069 208.45C125.179 208.37 125.274 208.33 125.354 208.33C125.494 208.33 125.619 208.415 125.729 208.585L126.509 209.86C126.049 210.29 125.494 210.63 124.844 210.88C124.194 211.12 123.524 211.24 122.834 211.24ZM135.57 195.565C136.68 195.565 137.68 195.75 138.57 196.12C139.47 196.49 140.23 197.015 140.85 197.695C141.48 198.375 141.96 199.2 142.29 200.17C142.63 201.13 142.8 202.205 142.8 203.395C142.8 204.595 142.63 205.675 142.29 206.635C141.96 207.595 141.48 208.415 140.85 209.095C140.23 209.775 139.47 210.3 138.57 210.67C137.68 211.03 136.68 211.21 135.57 211.21C134.46 211.21 133.455 211.03 132.555 210.67C131.665 210.3 130.905 209.775 130.275 209.095C129.645 208.415 129.16 207.595 128.82 206.635C128.48 205.675 128.31 204.595 128.31 203.395C128.31 202.205 128.48 201.13 128.82 200.17C129.16 199.2 129.645 198.375 130.275 197.695C130.905 197.015 131.665 196.49 132.555 196.12C133.455 195.75 134.46 195.565 135.57 195.565ZM135.57 209.125C137.07 209.125 138.19 208.625 138.93 207.625C139.67 206.615 140.04 205.21 140.04 203.41C140.04 201.6 139.67 200.19 138.93 199.18C138.19 198.17 137.07 197.665 135.57 197.665C134.81 197.665 134.15 197.795 133.59 198.055C133.03 198.315 132.56 198.69 132.18 199.18C131.81 199.67 131.53 200.275 131.34 200.995C131.16 201.705 131.07 202.51 131.07 203.41C131.07 204.31 131.16 205.115 131.34 205.825C131.53 206.535 131.81 207.135 132.18 207.625C132.56 208.105 133.03 208.475 133.59 208.735C134.15 208.995 134.81 209.125 135.57 209.125ZM154.79 198.31C154.67 198.53 154.485 198.64 154.235 198.64C154.085 198.64 153.915 198.585 153.725 198.475C153.535 198.365 153.3 198.245 153.02 198.115C152.75 197.975 152.425 197.85 152.045 197.74C151.665 197.62 151.215 197.56 150.695 197.56C150.245 197.56 149.84 197.62 149.48 197.74C149.12 197.85 148.81 198.005 148.55 198.205C148.3 198.405 148.105 198.64 147.965 198.91C147.835 199.17 147.77 199.455 147.77 199.765C147.77 200.155 147.88 200.48 148.1 200.74C148.33 201 148.63 201.225 149 201.415C149.37 201.605 149.79 201.775 150.26 201.925C150.73 202.065 151.21 202.22 151.7 202.39C152.2 202.55 152.685 202.73 153.155 202.93C153.625 203.13 154.045 203.38 154.415 203.68C154.785 203.98 155.08 204.35 155.3 204.79C155.53 205.22 155.645 205.74 155.645 206.35C155.645 207.05 155.52 207.7 155.27 208.3C155.02 208.89 154.65 209.405 154.16 209.845C153.67 210.275 153.07 210.615 152.36 210.865C151.65 211.115 150.83 211.24 149.9 211.24C148.84 211.24 147.88 211.07 147.02 210.73C146.16 210.38 145.43 209.935 144.83 209.395L145.46 208.375C145.54 208.245 145.635 208.145 145.745 208.075C145.855 208.005 146 207.97 146.18 207.97C146.36 207.97 146.55 208.04 146.75 208.18C146.95 208.32 147.19 208.475 147.47 208.645C147.76 208.815 148.105 208.97 148.505 209.11C148.915 209.25 149.425 209.32 150.035 209.32C150.555 209.32 151.01 209.255 151.4 209.125C151.79 208.985 152.115 208.8 152.375 208.57C152.635 208.34 152.825 208.075 152.945 207.775C153.075 207.475 153.14 207.155 153.14 206.815C153.14 206.395 153.025 206.05 152.795 205.78C152.575 205.5 152.28 205.265 151.91 205.075C151.54 204.875 151.115 204.705 150.635 204.565C150.165 204.415 149.68 204.26 149.18 204.1C148.69 203.94 148.205 203.76 147.725 203.56C147.255 203.35 146.835 203.09 146.465 202.78C146.095 202.47 145.795 202.09 145.565 201.64C145.345 201.18 145.235 200.625 145.235 199.975C145.235 199.395 145.355 198.84 145.595 198.31C145.835 197.77 146.185 197.3 146.645 196.9C147.105 196.49 147.67 196.165 148.34 195.925C149.01 195.685 149.775 195.565 150.635 195.565C151.635 195.565 152.53 195.725 153.32 196.045C154.12 196.355 154.81 196.785 155.39 197.335L154.79 198.31ZM170.914 195.565C171.824 195.565 172.664 195.72 173.434 196.03C174.204 196.33 174.869 196.77 175.429 197.35C175.989 197.92 176.424 198.63 176.734 199.48C177.054 200.32 177.214 201.28 177.214 202.36C177.214 202.78 177.169 203.06 177.079 203.2C176.989 203.34 176.819 203.41 176.569 203.41H166.459C166.479 204.37 166.609 205.205 166.849 205.915C167.089 206.625 167.419 207.22 167.839 207.7C168.259 208.17 168.759 208.525 169.339 208.765C169.919 208.995 170.569 209.11 171.289 209.11C171.959 209.11 172.534 209.035 173.014 208.885C173.504 208.725 173.924 208.555 174.274 208.375C174.624 208.195 174.914 208.03 175.144 207.88C175.384 207.72 175.589 207.64 175.759 207.64C175.979 207.64 176.149 207.725 176.269 207.895L177.019 208.87C176.689 209.27 176.294 209.62 175.834 209.92C175.374 210.21 174.879 210.45 174.349 210.64C173.829 210.83 173.289 210.97 172.729 211.06C172.169 211.16 171.614 211.21 171.064 211.21C170.014 211.21 169.044 211.035 168.154 210.685C167.274 210.325 166.509 209.805 165.859 209.125C165.219 208.435 164.719 207.585 164.359 206.575C163.999 205.565 163.819 204.405 163.819 203.095C163.819 202.035 163.979 201.045 164.299 200.125C164.629 199.205 165.099 198.41 165.709 197.74C166.319 197.06 167.064 196.53 167.944 196.15C168.824 195.76 169.814 195.565 170.914 195.565ZM170.974 197.53C169.684 197.53 168.669 197.905 167.929 198.655C167.189 199.395 166.729 200.425 166.549 201.745H174.814C174.814 201.125 174.729 200.56 174.559 200.05C174.389 199.53 174.139 199.085 173.809 198.715C173.479 198.335 173.074 198.045 172.594 197.845C172.124 197.635 171.584 197.53 170.974 197.53ZM180.631 211V195.805H182.221C182.601 195.805 182.841 195.99 182.941 196.36L183.136 197.92C183.696 197.23 184.321 196.665 185.011 196.225C185.711 195.785 186.521 195.565 187.441 195.565C188.471 195.565 189.301 195.85 189.931 196.42C190.571 196.99 191.031 197.76 191.311 198.73C191.521 198.18 191.796 197.705 192.136 197.305C192.486 196.905 192.876 196.575 193.306 196.315C193.736 196.055 194.191 195.865 194.671 195.745C195.161 195.625 195.656 195.565 196.156 195.565C196.956 195.565 197.666 195.695 198.286 195.955C198.916 196.205 199.446 196.575 199.876 197.065C200.316 197.555 200.651 198.16 200.881 198.88C201.111 199.59 201.226 200.405 201.226 201.325V211H198.556V201.325C198.556 200.135 198.296 199.235 197.776 198.625C197.256 198.005 196.501 197.695 195.511 197.695C195.071 197.695 194.651 197.775 194.251 197.935C193.861 198.085 193.516 198.31 193.216 198.61C192.916 198.91 192.676 199.29 192.496 199.75C192.326 200.2 192.241 200.725 192.241 201.325V211H189.571V201.325C189.571 200.105 189.326 199.195 188.836 198.595C188.346 197.995 187.631 197.695 186.691 197.695C186.031 197.695 185.416 197.875 184.846 198.235C184.286 198.585 183.771 199.065 183.301 199.675V211H180.631ZM214.041 188.905V211H211.371V188.905H214.041ZM224.762 195.565C225.672 195.565 226.512 195.72 227.282 196.03C228.052 196.33 228.717 196.77 229.277 197.35C229.837 197.92 230.272 198.63 230.582 199.48C230.902 200.32 231.062 201.28 231.062 202.36C231.062 202.78 231.017 203.06 230.927 203.2C230.837 203.34 230.667 203.41 230.417 203.41H220.307C220.327 204.37 220.457 205.205 220.697 205.915C220.937 206.625 221.267 207.22 221.687 207.7C222.107 208.17 222.607 208.525 223.187 208.765C223.767 208.995 224.417 209.11 225.137 209.11C225.807 209.11 226.382 209.035 226.862 208.885C227.352 208.725 227.772 208.555 228.122 208.375C228.472 208.195 228.762 208.03 228.992 207.88C229.232 207.72 229.437 207.64 229.607 207.64C229.827 207.64 229.997 207.725 230.117 207.895L230.867 208.87C230.537 209.27 230.142 209.62 229.682 209.92C229.222 210.21 228.727 210.45 228.197 210.64C227.677 210.83 227.137 210.97 226.577 211.06C226.017 211.16 225.462 211.21 224.912 211.21C223.862 211.21 222.892 211.035 222.002 210.685C221.122 210.325 220.357 209.805 219.707 209.125C219.067 208.435 218.567 207.585 218.207 206.575C217.847 205.565 217.667 204.405 217.667 203.095C217.667 202.035 217.827 201.045 218.147 200.125C218.477 199.205 218.947 198.41 219.557 197.74C220.167 197.06 220.912 196.53 221.792 196.15C222.672 195.76 223.662 195.565 224.762 195.565ZM224.822 197.53C223.532 197.53 222.517 197.905 221.777 198.655C221.037 199.395 220.577 200.425 220.397 201.745H228.662C228.662 201.125 228.577 200.56 228.407 200.05C228.237 199.53 227.987 199.085 227.657 198.715C227.327 198.335 226.922 198.045 226.442 197.845C225.972 197.635 225.432 197.53 224.822 197.53ZM237.449 195.805V211H234.779V195.805H237.449ZM238.049 191.035C238.049 191.295 237.994 191.54 237.884 191.77C237.784 191.99 237.644 192.19 237.464 192.37C237.294 192.54 237.094 192.675 236.864 192.775C236.634 192.875 236.389 192.925 236.129 192.925C235.869 192.925 235.624 192.875 235.394 192.775C235.174 192.675 234.974 192.54 234.794 192.37C234.624 192.19 234.489 191.99 234.389 191.77C234.289 191.54 234.239 191.295 234.239 191.035C234.239 190.775 234.289 190.53 234.389 190.3C234.489 190.06 234.624 189.855 234.794 189.685C234.974 189.505 235.174 189.365 235.394 189.265C235.624 189.165 235.869 189.115 236.129 189.115C236.389 189.115 236.634 189.165 236.864 189.265C237.094 189.365 237.294 189.505 237.464 189.685C237.644 189.855 237.784 190.06 237.884 190.3C237.994 190.53 238.049 190.775 238.049 191.035ZM247.956 211V195.805H249.546C249.926 195.805 250.166 195.99 250.266 196.36L250.476 198.01C251.136 197.28 251.871 196.69 252.681 196.24C253.501 195.79 254.446 195.565 255.516 195.565C256.346 195.565 257.076 195.705 257.706 195.985C258.346 196.255 258.876 196.645 259.296 197.155C259.726 197.655 260.051 198.26 260.271 198.97C260.491 199.68 260.601 200.465 260.601 201.325V211H257.931V201.325C257.931 200.175 257.666 199.285 257.136 198.655C256.616 198.015 255.816 197.695 254.736 197.695C253.946 197.695 253.206 197.885 252.516 198.265C251.836 198.645 251.206 199.16 250.626 199.81V211H247.956ZM270.776 195.565C271.886 195.565 272.886 195.75 273.776 196.12C274.676 196.49 275.436 197.015 276.056 197.695C276.686 198.375 277.166 199.2 277.496 200.17C277.836 201.13 278.006 202.205 278.006 203.395C278.006 204.595 277.836 205.675 277.496 206.635C277.166 207.595 276.686 208.415 276.056 209.095C275.436 209.775 274.676 210.3 273.776 210.67C272.886 211.03 271.886 211.21 270.776 211.21C269.666 211.21 268.661 211.03 267.761 210.67C266.871 210.3 266.111 209.775 265.481 209.095C264.851 208.415 264.366 207.595 264.026 206.635C263.686 205.675 263.516 204.595 263.516 203.395C263.516 202.205 263.686 201.13 264.026 200.17C264.366 199.2 264.851 198.375 265.481 197.695C266.111 197.015 266.871 196.49 267.761 196.12C268.661 195.75 269.666 195.565 270.776 195.565ZM270.776 209.125C272.276 209.125 273.396 208.625 274.136 207.625C274.876 206.615 275.246 205.21 275.246 203.41C275.246 201.6 274.876 200.19 274.136 199.18C273.396 198.17 272.276 197.665 270.776 197.665C270.016 197.665 269.356 197.795 268.796 198.055C268.236 198.315 267.766 198.69 267.386 199.18C267.016 199.67 266.736 200.275 266.546 200.995C266.366 201.705 266.276 202.51 266.276 203.41C266.276 204.31 266.366 205.115 266.546 205.825C266.736 206.535 267.016 207.135 267.386 207.625C267.766 208.105 268.236 208.475 268.796 208.735C269.356 208.995 270.016 209.125 270.776 209.125ZM287.516 211V189.505H294.371C295.691 189.505 296.826 189.635 297.776 189.895C298.736 190.155 299.521 190.525 300.131 191.005C300.751 191.485 301.206 192.075 301.496 192.775C301.796 193.465 301.946 194.245 301.946 195.115C301.946 195.645 301.861 196.155 301.691 196.645C301.531 197.135 301.281 197.59 300.941 198.01C300.611 198.43 300.191 198.805 299.681 199.135C299.181 199.465 298.591 199.735 297.911 199.945C299.481 200.255 300.666 200.82 301.466 201.64C302.266 202.46 302.666 203.54 302.666 204.88C302.666 205.79 302.496 206.62 302.156 207.37C301.826 208.12 301.336 208.765 300.686 209.305C300.046 209.845 299.256 210.265 298.316 210.565C297.386 210.855 296.321 211 295.121 211H287.516ZM290.426 201.205V208.69H295.076C295.906 208.69 296.616 208.595 297.206 208.405C297.806 208.215 298.296 207.95 298.676 207.61C299.066 207.26 299.351 206.85 299.531 206.38C299.711 205.9 299.801 205.375 299.801 204.805C299.801 203.695 299.406 202.82 298.616 202.18C297.836 201.53 296.651 201.205 295.061 201.205H290.426ZM290.426 199.135H294.266C295.086 199.135 295.796 199.045 296.396 198.865C296.996 198.685 297.491 198.435 297.881 198.115C298.281 197.795 298.576 197.41 298.766 196.96C298.956 196.5 299.051 196 299.051 195.46C299.051 194.2 298.671 193.275 297.911 192.685C297.151 192.095 295.971 191.8 294.371 191.8H290.426V199.135ZM306.52 211V195.805H308.05C308.34 195.805 308.54 195.86 308.65 195.97C308.76 196.08 308.835 196.27 308.875 196.54L309.055 198.91C309.575 197.85 310.215 197.025 310.975 196.435C311.745 195.835 312.645 195.535 313.675 195.535C314.095 195.535 314.475 195.585 314.815 195.685C315.155 195.775 315.47 195.905 315.76 196.075L315.415 198.07C315.345 198.32 315.19 198.445 314.95 198.445C314.81 198.445 314.595 198.4 314.305 198.31C314.015 198.21 313.61 198.16 313.09 198.16C312.16 198.16 311.38 198.43 310.75 198.97C310.13 199.51 309.61 200.295 309.19 201.325V211H306.52ZM329.223 211H328.038C327.778 211 327.568 210.96 327.408 210.88C327.248 210.8 327.143 210.63 327.093 210.37L326.793 208.96C326.393 209.32 326.003 209.645 325.623 209.935C325.243 210.215 324.843 210.455 324.423 210.655C324.003 210.845 323.553 210.99 323.073 211.09C322.603 211.19 322.078 211.24 321.498 211.24C320.908 211.24 320.353 211.16 319.833 211C319.323 210.83 318.878 210.58 318.498 210.25C318.118 209.92 317.813 209.505 317.583 209.005C317.363 208.495 317.253 207.895 317.253 207.205C317.253 206.605 317.418 206.03 317.748 205.48C318.078 204.92 318.608 204.425 319.338 203.995C320.078 203.565 321.043 203.215 322.233 202.945C323.423 202.665 324.878 202.505 326.598 202.465V201.28C326.598 200.1 326.343 199.21 325.833 198.61C325.333 198 324.588 197.695 323.598 197.695C322.948 197.695 322.398 197.78 321.948 197.95C321.508 198.11 321.123 198.295 320.793 198.505C320.473 198.705 320.193 198.89 319.953 199.06C319.723 199.22 319.493 199.3 319.263 199.3C319.083 199.3 318.923 199.255 318.783 199.165C318.653 199.065 318.548 198.945 318.468 198.805L317.988 197.95C318.828 197.14 319.733 196.535 320.703 196.135C321.673 195.735 322.748 195.535 323.928 195.535C324.778 195.535 325.533 195.675 326.193 195.955C326.853 196.235 327.408 196.625 327.858 197.125C328.308 197.625 328.648 198.23 328.878 198.94C329.108 199.65 329.223 200.43 329.223 201.28V211ZM322.293 209.365C322.763 209.365 323.193 209.32 323.583 209.23C323.973 209.13 324.338 208.995 324.678 208.825C325.028 208.645 325.358 208.43 325.668 208.18C325.988 207.93 326.298 207.645 326.598 207.325V204.16C325.368 204.2 324.323 204.3 323.463 204.46C322.603 204.61 321.903 204.81 321.363 205.06C320.823 205.31 320.428 205.605 320.178 205.945C319.938 206.285 319.818 206.665 319.818 207.085C319.818 207.485 319.883 207.83 320.013 208.12C320.143 208.41 320.318 208.65 320.538 208.84C320.758 209.02 321.018 209.155 321.318 209.245C321.618 209.325 321.943 209.365 322.293 209.365ZM341.968 198.31C341.848 198.53 341.663 198.64 341.413 198.64C341.263 198.64 341.093 198.585 340.903 198.475C340.713 198.365 340.478 198.245 340.198 198.115C339.928 197.975 339.603 197.85 339.223 197.74C338.843 197.62 338.393 197.56 337.873 197.56C337.423 197.56 337.018 197.62 336.658 197.74C336.298 197.85 335.988 198.005 335.728 198.205C335.478 198.405 335.283 198.64 335.143 198.91C335.013 199.17 334.948 199.455 334.948 199.765C334.948 200.155 335.058 200.48 335.278 200.74C335.508 201 335.808 201.225 336.178 201.415C336.548 201.605 336.968 201.775 337.438 201.925C337.908 202.065 338.388 202.22 338.878 202.39C339.378 202.55 339.863 202.73 340.333 202.93C340.803 203.13 341.223 203.38 341.593 203.68C341.963 203.98 342.258 204.35 342.478 204.79C342.708 205.22 342.823 205.74 342.823 206.35C342.823 207.05 342.698 207.7 342.448 208.3C342.198 208.89 341.828 209.405 341.338 209.845C340.848 210.275 340.248 210.615 339.538 210.865C338.828 211.115 338.008 211.24 337.078 211.24C336.018 211.24 335.058 211.07 334.198 210.73C333.338 210.38 332.608 209.935 332.008 209.395L332.638 208.375C332.718 208.245 332.813 208.145 332.923 208.075C333.033 208.005 333.178 207.97 333.358 207.97C333.538 207.97 333.728 208.04 333.928 208.18C334.128 208.32 334.368 208.475 334.648 208.645C334.938 208.815 335.283 208.97 335.683 209.11C336.093 209.25 336.603 209.32 337.213 209.32C337.733 209.32 338.188 209.255 338.578 209.125C338.968 208.985 339.293 208.8 339.553 208.57C339.813 208.34 340.003 208.075 340.123 207.775C340.253 207.475 340.318 207.155 340.318 206.815C340.318 206.395 340.203 206.05 339.973 205.78C339.753 205.5 339.458 205.265 339.088 205.075C338.718 204.875 338.293 204.705 337.813 204.565C337.343 204.415 336.858 204.26 336.358 204.1C335.868 203.94 335.383 203.76 334.903 203.56C334.433 203.35 334.013 203.09 333.643 202.78C333.273 202.47 332.973 202.09 332.743 201.64C332.523 201.18 332.413 200.625 332.413 199.975C332.413 199.395 332.533 198.84 332.773 198.31C333.013 197.77 333.363 197.3 333.823 196.9C334.283 196.49 334.848 196.165 335.518 195.925C336.188 195.685 336.953 195.565 337.813 195.565C338.813 195.565 339.708 195.725 340.498 196.045C341.298 196.355 341.988 196.785 342.568 197.335L341.968 198.31ZM349.246 195.805V211H346.576V195.805H349.246ZM349.846 191.035C349.846 191.295 349.791 191.54 349.681 191.77C349.581 191.99 349.441 192.19 349.261 192.37C349.091 192.54 348.891 192.675 348.661 192.775C348.431 192.875 348.186 192.925 347.926 192.925C347.666 192.925 347.421 192.875 347.191 192.775C346.971 192.675 346.771 192.54 346.591 192.37C346.421 192.19 346.286 191.99 346.186 191.77C346.086 191.54 346.036 191.295 346.036 191.035C346.036 190.775 346.086 190.53 346.186 190.3C346.286 190.06 346.421 189.855 346.591 189.685C346.771 189.505 346.971 189.365 347.191 189.265C347.421 189.165 347.666 189.115 347.926 189.115C348.186 189.115 348.431 189.165 348.661 189.265C348.891 189.365 349.091 189.505 349.261 189.685C349.441 189.855 349.581 190.06 349.681 190.3C349.791 190.53 349.846 190.775 349.846 191.035ZM356.922 188.905V211H354.252V188.905H356.922Z" fill="#35609D"/>
<path fill-rule="evenodd" clip-rule="evenodd" d="M209.251 1.0165C208.155 -0.226517 206.26 -0.346126 205.017 0.749348C203.773 1.84482 203.654 3.74055 204.749 4.98357L219.855 22.1235C219.584 22.0432 219.297 22 219 22H167C165.343 22 164 23.3431 164 25C164 26.6569 165.343 28 167 28H219C219.322 28 219.631 27.9494 219.922 27.8557L204.813 43.9465C203.679 45.1543 203.739 47.0529 204.946 48.187C206.154 49.3212 208.053 49.2614 209.187 48.0536L225.943 30.2091C228.638 27.3905 228.671 23.052 226.124 20.1621L209.251 1.0165ZM221.986 25.2894C221.997 25.2118 222.002 25.1333 222 25.0546C221.998 25.1336 221.994 25.2119 221.986 25.2894Z" fill="#5987C6"/>
<path d="M347.383 121.298H357.397V113.983H280.562V121.298H312.665C313.801 121.298 314.854 121.894 315.438 122.868C316.094 123.657 317.189 124.438 318.212 124.438H319.434C320.57 124.438 321.623 123.842 322.208 122.868C322.792 121.894 324.157 121.298 325.293 121.298H333.664H347.383Z" fill="#9BB7DD"/>
<path d="M326.035 101.575C320.969 103.31 318.978 106.733 318.978 106.733C318.978 106.733 316.987 103.31 311.922 101.575C312.437 94.4208 314.452 82.5703 314.452 75.3629C314.452 73.6341 314.249 72.0231 313.955 70.5941C313.309 67.4717 315.736 64.3901 318.979 64.3901C322.246 64.3901 324.661 67.3956 324.003 70.5941C323.71 72.0231 323.507 73.6341 323.507 75.3629C323.507 82.5703 325.52 94.4208 326.035 101.575Z" fill="#5987C6"/>
<path d="M319.006 54.5618H318.952C316.253 54.5618 314.064 56.7502 314.064 59.4497V59.5031C314.064 62.2027 316.253 64.3911 318.952 64.3911H319.006C321.705 64.3911 323.894 62.2027 323.894 59.5031V59.4497C323.894 56.7502 321.705 54.5618 319.006 54.5618Z" fill="#E0E7EF"/>
<path d="M336.131 83.4259C336.131 83.4259 336.131 90.6554 343.662 90.6554C350.9 90.6554 350.9 83.4259 350.9 83.4259H336.131Z" fill="#5987C6"/>
<path d="M301.826 83.4259C301.826 83.4259 301.826 90.6554 294.296 90.6554C287.058 90.6554 287.058 83.4259 287.058 83.4259H301.826Z" fill="#5987C6"/>
<path d="M357.397 112.421H353.911V105.319C353.911 104.456 353.212 103.757 352.349 103.757C349.512 103.757 348.018 103.08 345.949 102.143C343.644 101.099 340.776 99.7995 335.251 99.1917C332.198 98.8558 329.61 99.0524 327.432 99.5473C327.203 97.1175 326.864 94.3372 326.508 91.4285C325.8 85.6451 325.069 79.6648 325.069 75.3628C325.069 73.9065 325.225 72.4079 325.533 70.9087C325.873 69.2563 325.587 67.5693 324.751 66.1438C332.221 66.6261 338.487 67.9034 341.436 68.5882L334.721 82.7569C334.623 82.9642 334.57 83.1964 334.57 83.4258C334.57 83.6499 334.602 85.6757 335.688 87.762C336.746 89.7944 338.989 92.217 343.662 92.217C348.636 92.217 352.462 88.4744 352.462 83.4258C352.462 83.2051 352.413 82.9793 352.322 82.7786L345.086 66.8847C344.897 66.4702 344.522 66.1485 344.082 66.027C343.677 65.9146 335.315 63.6254 324.427 62.9911C325.077 61.9846 325.456 60.7877 325.456 59.503V59.4496C325.456 55.8933 322.563 53 319.006 53H318.953C315.396 53 312.503 55.8932 312.503 59.4496V59.503C312.503 60.7877 312.882 61.9846 313.532 62.9911C302.644 63.6253 294.282 65.9146 293.877 66.027C293.437 66.1485 293.062 66.4704 292.873 66.8847L285.637 82.7786C285.546 82.9792 285.497 83.2051 285.497 83.4258C285.497 83.6485 285.527 85.6621 286.567 87.7397C287.589 89.7823 289.76 92.217 294.296 92.217C299.303 92.217 303.389 88.5992 303.389 83.4258C303.389 83.1964 303.336 82.9642 303.238 82.7569L296.523 68.5876C299.474 67.9013 305.748 66.6214 313.24 66.1413C312.384 67.5793 312.086 69.2691 312.426 70.9085C312.734 72.4073 312.89 73.9059 312.89 75.3628C312.89 79.664 312.158 85.6431 311.451 91.4254C311.094 94.335 310.754 97.1165 310.526 99.5471C308.348 99.0522 305.76 98.8559 302.708 99.1917C297.183 99.7995 294.315 101.099 292.01 102.143C289.941 103.08 288.447 103.757 285.61 103.757C284.747 103.757 284.048 104.456 284.048 105.319V112.421H280.562C279.699 112.421 279 113.12 279 113.982V121.298C279 122.16 279.699 122.859 280.562 122.859H312.665C313.45 122.859 313.788 123.325 314.237 123.866C315.095 124.898 316.589 126 318.212 126H319.434C321.109 126 322.685 125.108 323.547 123.672C323.806 123.239 324.622 122.859 325.293 122.859H348.458C349.321 122.859 350.02 122.16 350.02 121.298C350.02 120.435 349.321 119.736 348.458 119.736H325.293C323.835 119.736 321.828 120.465 320.868 122.065C320.568 122.566 320.018 122.877 319.434 122.877H318.212C317.872 122.877 317.212 122.522 316.702 121.943C315.826 120.578 314.292 119.736 312.665 119.736H282.123V115.544H355.835V119.736H347.383C346.521 119.736 345.821 120.435 345.821 121.298C345.821 122.16 346.521 122.859 347.383 122.859H357.397C358.259 122.859 358.959 122.16 358.959 121.298V113.982C358.959 113.12 358.259 112.421 357.397 112.421ZM348.557 86.4235C347.623 88.2202 346.022 89.0936 343.662 89.0936C339.711 89.0936 338.374 86.6816 337.922 84.9875H349.1C348.984 85.4343 348.812 85.9333 348.557 86.4235ZM338.6 81.8641L343.636 71.2384L348.474 81.8641H338.6ZM315.626 59.4498C315.626 57.6157 317.119 56.1235 318.953 56.1235H319.006C320.84 56.1235 322.332 57.6157 322.332 59.4498V59.5032C322.332 61.3372 320.84 62.8294 319.006 62.8294C318.997 62.8294 318.988 62.8287 318.979 62.8287C318.97 62.8287 318.961 62.8294 318.952 62.8294C317.119 62.8293 315.626 61.3372 315.626 59.5032L315.626 59.4498ZM299.5 86.3191C298.528 88.1861 296.826 89.0936 294.296 89.0936C291.585 89.0936 289.548 87.6489 288.859 84.9875H300.016C299.903 85.4016 299.739 85.8616 299.5 86.3191ZM289.485 81.8641L294.323 71.2384L299.359 81.8641H289.485ZM314.551 91.8051C315.27 85.9298 316.013 79.8545 316.013 75.3629C316.013 73.6951 315.836 71.9849 315.485 70.2776C315.033 68.0972 316.794 65.9528 319.01 65.9528C321.242 65.9723 322.922 68.1017 322.474 70.2798C322.123 71.9858 321.945 73.696 321.945 75.3629C321.945 79.8553 322.689 85.9315 323.407 91.8079C323.795 94.9731 324.163 97.9864 324.384 100.521C321.804 101.608 320.051 103.081 318.979 104.221C317.907 103.081 316.155 101.608 313.573 100.52C313.794 97.9854 314.163 94.9709 314.551 91.8051ZM287.171 106.815C289.766 106.588 291.49 105.807 293.298 104.988C295.511 103.986 298.019 102.85 303.049 102.296C308.13 101.738 314.202 102.813 317.417 107.208V112.421H287.171V106.815ZM320.541 112.421V107.212C323.796 102.836 329.8 101.734 334.909 102.296C339.94 102.85 342.448 103.986 344.66 104.988C346.469 105.808 348.193 106.588 350.788 106.815V112.421L320.541 112.421Z" fill="#35609D"/>
</svg>
