<svg width="395" height="285" viewBox="0 0 395 285" fill="none" xmlns="http://www.w3.org/2000/svg">
<path opacity="0.5" d="M0 25H395V265C395 276.046 386.046 285 375 285H20C8.9543 285 0 276.046 0 265V25Z" fill="#DDBDDF"/>
<path d="M37.12 140.505H39.445C39.705 140.505 39.915 140.57 40.075 140.7C40.235 140.83 40.355 140.995 40.435 141.195L46.51 156.36C46.65 156.7 46.775 157.07 46.885 157.47C47.005 157.87 47.12 158.285 47.23 158.715C47.32 158.285 47.415 157.87 47.515 157.47C47.625 157.07 47.75 156.7 47.89 156.36L53.935 141.195C54.005 141.025 54.125 140.87 54.295 140.73C54.465 140.58 54.675 140.505 54.925 140.505H57.265L48.505 162H45.88L37.12 140.505ZM62.5506 146.805V162H59.8806V146.805H62.5506ZM63.1506 142.035C63.1506 142.295 63.0956 142.54 62.9856 142.77C62.8856 142.99 62.7456 143.19 62.5656 143.37C62.3956 143.54 62.1956 143.675 61.9656 143.775C61.7356 143.875 61.4906 143.925 61.2306 143.925C60.9706 143.925 60.7256 143.875 60.4956 143.775C60.2756 143.675 60.0756 143.54 59.8956 143.37C59.7256 143.19 59.5906 142.99 59.4906 142.77C59.3906 142.54 59.3406 142.295 59.3406 142.035C59.3406 141.775 59.3906 141.53 59.4906 141.3C59.5906 141.06 59.7256 140.855 59.8956 140.685C60.0756 140.505 60.2756 140.365 60.4956 140.265C60.7256 140.165 60.9706 140.115 61.2306 140.115C61.4906 140.115 61.7356 140.165 61.9656 140.265C62.1956 140.365 62.3956 140.505 62.5656 140.685C62.7456 140.855 62.8856 141.06 62.9856 141.3C63.0956 141.53 63.1506 141.775 63.1506 142.035ZM73.4064 146.565C74.5164 146.565 75.5164 146.75 76.4064 147.12C77.3064 147.49 78.0664 148.015 78.6864 148.695C79.3164 149.375 79.7964 150.2 80.1264 151.17C80.4664 152.13 80.6364 153.205 80.6364 154.395C80.6364 155.595 80.4664 156.675 80.1264 157.635C79.7964 158.595 79.3164 159.415 78.6864 160.095C78.0664 160.775 77.3064 161.3 76.4064 161.67C75.5164 162.03 74.5164 162.21 73.4064 162.21C72.2964 162.21 71.2914 162.03 70.3914 161.67C69.5014 161.3 68.7414 160.775 68.1114 160.095C67.4814 159.415 66.9964 158.595 66.6564 157.635C66.3164 156.675 66.1464 155.595 66.1464 154.395C66.1464 153.205 66.3164 152.13 66.6564 151.17C66.9964 150.2 67.4814 149.375 68.1114 148.695C68.7414 148.015 69.5014 147.49 70.3914 147.12C71.2914 146.75 72.2964 146.565 73.4064 146.565ZM73.4064 160.125C74.9064 160.125 76.0264 159.625 76.7664 158.625C77.5064 157.615 77.8764 156.21 77.8764 154.41C77.8764 152.6 77.5064 151.19 76.7664 150.18C76.0264 149.17 74.9064 148.665 73.4064 148.665C72.6464 148.665 71.9864 148.795 71.4264 149.055C70.8664 149.315 70.3964 149.69 70.0164 150.18C69.6464 150.67 69.3664 151.275 69.1764 151.995C68.9964 152.705 68.9064 153.51 68.9064 154.41C68.9064 155.31 68.9964 156.115 69.1764 156.825C69.3664 157.535 69.6464 158.135 70.0164 158.625C70.3964 159.105 70.8664 159.475 71.4264 159.735C71.9864 159.995 72.6464 160.125 73.4064 160.125ZM86.8963 139.905V162H84.2263V139.905H86.8963ZM97.6171 146.565C98.5271 146.565 99.3671 146.72 100.137 147.03C100.907 147.33 101.572 147.77 102.132 148.35C102.692 148.92 103.127 149.63 103.437 150.48C103.757 151.32 103.917 152.28 103.917 153.36C103.917 153.78 103.872 154.06 103.782 154.2C103.692 154.34 103.522 154.41 103.272 154.41H93.1621C93.1821 155.37 93.3121 156.205 93.5521 156.915C93.7921 157.625 94.1221 158.22 94.5421 158.7C94.9621 159.17 95.4621 159.525 96.0421 159.765C96.6221 159.995 97.2721 160.11 97.9921 160.11C98.6621 160.11 99.2371 160.035 99.7171 159.885C100.207 159.725 100.627 159.555 100.977 159.375C101.327 159.195 101.617 159.03 101.847 158.88C102.087 158.72 102.292 158.64 102.462 158.64C102.682 158.64 102.852 158.725 102.972 158.895L103.722 159.87C103.392 160.27 102.997 160.62 102.537 160.92C102.077 161.21 101.582 161.45 101.052 161.64C100.532 161.83 99.9921 161.97 99.4321 162.06C98.8721 162.16 98.3171 162.21 97.7671 162.21C96.7171 162.21 95.7471 162.035 94.8571 161.685C93.9771 161.325 93.2121 160.805 92.5621 160.125C91.9221 159.435 91.4221 158.585 91.0621 157.575C90.7021 156.565 90.5221 155.405 90.5221 154.095C90.5221 153.035 90.6821 152.045 91.0021 151.125C91.3321 150.205 91.8021 149.41 92.4121 148.74C93.0221 148.06 93.7671 147.53 94.6471 147.15C95.5271 146.76 96.5171 146.565 97.6171 146.565ZM97.6771 148.53C96.3871 148.53 95.3721 148.905 94.6321 149.655C93.8921 150.395 93.4321 151.425 93.2521 152.745H101.517C101.517 152.125 101.432 151.56 101.262 151.05C101.092 150.53 100.842 150.085 100.512 149.715C100.182 149.335 99.7771 149.045 99.2971 148.845C98.8271 148.635 98.2871 148.53 97.6771 148.53ZM102.252 144.465H100.467C100.257 144.465 100.057 144.395 99.8671 144.255L97.9471 142.365L97.6921 142.11L97.4521 142.365L95.5171 144.255C95.4571 144.305 95.3721 144.355 95.2621 144.405C95.1521 144.445 95.0371 144.465 94.9171 144.465H93.0721L96.4171 140.505H98.9071L102.252 144.465ZM107.335 162V146.805H108.925C109.305 146.805 109.545 146.99 109.645 147.36L109.855 149.01C110.515 148.28 111.25 147.69 112.06 147.24C112.88 146.79 113.825 146.565 114.895 146.565C115.725 146.565 116.455 146.705 117.085 146.985C117.725 147.255 118.255 147.645 118.675 148.155C119.105 148.655 119.43 149.26 119.65 149.97C119.87 150.68 119.98 151.465 119.98 152.325V162H117.31V152.325C117.31 151.175 117.045 150.285 116.515 149.655C115.995 149.015 115.195 148.695 114.115 148.695C113.325 148.695 112.585 148.885 111.895 149.265C111.215 149.645 110.585 150.16 110.005 150.81V162H107.335ZM134.369 149.505C134.289 149.615 134.209 149.7 134.129 149.76C134.049 149.82 133.934 149.85 133.784 149.85C133.634 149.85 133.469 149.79 133.289 149.67C133.119 149.54 132.899 149.4 132.629 149.25C132.359 149.1 132.029 148.965 131.639 148.845C131.259 148.715 130.789 148.65 130.229 148.65C129.489 148.65 128.834 148.785 128.264 149.055C127.694 149.315 127.214 149.695 126.824 150.195C126.444 150.695 126.154 151.3 125.954 152.01C125.764 152.72 125.669 153.515 125.669 154.395C125.669 155.315 125.774 156.135 125.984 156.855C126.194 157.565 126.489 158.165 126.869 158.655C127.249 159.135 127.709 159.505 128.249 159.765C128.799 160.015 129.414 160.14 130.094 160.14C130.744 160.14 131.279 160.065 131.699 159.915C132.119 159.755 132.469 159.58 132.749 159.39C133.029 159.2 133.259 159.03 133.439 158.88C133.619 158.72 133.799 158.64 133.979 158.64C134.209 158.64 134.379 158.725 134.489 158.895L135.239 159.87C134.579 160.68 133.754 161.275 132.764 161.655C131.774 162.025 130.729 162.21 129.629 162.21C128.679 162.21 127.794 162.035 126.974 161.685C126.164 161.335 125.459 160.83 124.859 160.17C124.259 159.5 123.784 158.68 123.434 157.71C123.094 156.74 122.924 155.635 122.924 154.395C122.924 153.265 123.079 152.22 123.389 151.26C123.709 150.3 124.169 149.475 124.769 148.785C125.379 148.085 126.129 147.54 127.019 147.15C127.909 146.76 128.929 146.565 130.079 146.565C131.139 146.565 132.079 146.74 132.899 147.09C133.719 147.43 134.444 147.915 135.074 148.545L134.369 149.505ZM140.978 146.805V162H138.308V146.805H140.978ZM141.578 142.035C141.578 142.295 141.523 142.54 141.413 142.77C141.313 142.99 141.173 143.19 140.993 143.37C140.823 143.54 140.623 143.675 140.393 143.775C140.163 143.875 139.918 143.925 139.658 143.925C139.398 143.925 139.153 143.875 138.923 143.775C138.703 143.675 138.503 143.54 138.323 143.37C138.153 143.19 138.018 142.99 137.918 142.77C137.818 142.54 137.768 142.295 137.768 142.035C137.768 141.775 137.818 141.53 137.918 141.3C138.018 141.06 138.153 140.855 138.323 140.685C138.503 140.505 138.703 140.365 138.923 140.265C139.153 140.165 139.398 140.115 139.658 140.115C139.918 140.115 140.163 140.165 140.393 140.265C140.623 140.365 140.823 140.505 140.993 140.685C141.173 140.855 141.313 141.06 141.413 141.3C141.523 141.53 141.578 141.775 141.578 142.035ZM156.844 162H155.659C155.399 162 155.189 161.96 155.029 161.88C154.869 161.8 154.764 161.63 154.714 161.37L154.414 159.96C154.014 160.32 153.624 160.645 153.244 160.935C152.864 161.215 152.464 161.455 152.044 161.655C151.624 161.845 151.174 161.99 150.694 162.09C150.224 162.19 149.699 162.24 149.119 162.24C148.529 162.24 147.974 162.16 147.454 162C146.944 161.83 146.499 161.58 146.119 161.25C145.739 160.92 145.434 160.505 145.204 160.005C144.984 159.495 144.874 158.895 144.874 158.205C144.874 157.605 145.039 157.03 145.369 156.48C145.699 155.92 146.229 155.425 146.959 154.995C147.699 154.565 148.664 154.215 149.854 153.945C151.044 153.665 152.499 153.505 154.219 153.465V152.28C154.219 151.1 153.964 150.21 153.454 149.61C152.954 149 152.209 148.695 151.219 148.695C150.569 148.695 150.019 148.78 149.569 148.95C149.129 149.11 148.744 149.295 148.414 149.505C148.094 149.705 147.814 149.89 147.574 150.06C147.344 150.22 147.114 150.3 146.884 150.3C146.704 150.3 146.544 150.255 146.404 150.165C146.274 150.065 146.169 149.945 146.089 149.805L145.609 148.95C146.449 148.14 147.354 147.535 148.324 147.135C149.294 146.735 150.369 146.535 151.549 146.535C152.399 146.535 153.154 146.675 153.814 146.955C154.474 147.235 155.029 147.625 155.479 148.125C155.929 148.625 156.269 149.23 156.499 149.94C156.729 150.65 156.844 151.43 156.844 152.28V162ZM149.914 160.365C150.384 160.365 150.814 160.32 151.204 160.23C151.594 160.13 151.959 159.995 152.299 159.825C152.649 159.645 152.979 159.43 153.289 159.18C153.609 158.93 153.919 158.645 154.219 158.325V155.16C152.989 155.2 151.944 155.3 151.084 155.46C150.224 155.61 149.524 155.81 148.984 156.06C148.444 156.31 148.049 156.605 147.799 156.945C147.559 157.285 147.439 157.665 147.439 158.085C147.439 158.485 147.504 158.83 147.634 159.12C147.764 159.41 147.939 159.65 148.159 159.84C148.379 160.02 148.639 160.155 148.939 160.245C149.239 160.325 149.564 160.365 149.914 160.365ZM172.84 146.565C173.95 146.565 174.95 146.75 175.84 147.12C176.74 147.49 177.5 148.015 178.12 148.695C178.75 149.375 179.23 150.2 179.56 151.17C179.9 152.13 180.07 153.205 180.07 154.395C180.07 155.595 179.9 156.675 179.56 157.635C179.23 158.595 178.75 159.415 178.12 160.095C177.5 160.775 176.74 161.3 175.84 161.67C174.95 162.03 173.95 162.21 172.84 162.21C171.73 162.21 170.725 162.03 169.825 161.67C168.935 161.3 168.175 160.775 167.545 160.095C166.915 159.415 166.43 158.595 166.09 157.635C165.75 156.675 165.58 155.595 165.58 154.395C165.58 153.205 165.75 152.13 166.09 151.17C166.43 150.2 166.915 149.375 167.545 148.695C168.175 148.015 168.935 147.49 169.825 147.12C170.725 146.75 171.73 146.565 172.84 146.565ZM172.84 160.125C174.34 160.125 175.46 159.625 176.2 158.625C176.94 157.615 177.31 156.21 177.31 154.41C177.31 152.6 176.94 151.19 176.2 150.18C175.46 149.17 174.34 148.665 172.84 148.665C172.08 148.665 171.42 148.795 170.86 149.055C170.3 149.315 169.83 149.69 169.45 150.18C169.08 150.67 168.8 151.275 168.61 151.995C168.43 152.705 168.34 153.51 168.34 154.41C168.34 155.31 168.43 156.115 168.61 156.825C168.8 157.535 169.08 158.135 169.45 158.625C169.83 159.105 170.3 159.475 170.86 159.735C171.42 159.995 172.08 160.125 172.84 160.125ZM183.45 162V139.905H186.135V148.995C186.765 148.265 187.485 147.68 188.295 147.24C189.115 146.79 190.05 146.565 191.1 146.565C191.98 146.565 192.775 146.73 193.485 147.06C194.195 147.39 194.8 147.885 195.3 148.545C195.8 149.195 196.185 150.005 196.455 150.975C196.725 151.935 196.86 153.045 196.86 154.305C196.86 155.425 196.71 156.47 196.41 157.44C196.11 158.4 195.675 159.235 195.105 159.945C194.545 160.645 193.855 161.2 193.035 161.61C192.225 162.01 191.31 162.21 190.29 162.21C189.31 162.21 188.475 162.02 187.785 161.64C187.105 161.26 186.51 160.73 186 160.05L185.865 161.43C185.785 161.81 185.555 162 185.175 162H183.45ZM190.23 148.695C189.36 148.695 188.595 148.895 187.935 149.295C187.285 149.695 186.685 150.26 186.135 150.99V158.34C186.615 159 187.145 159.465 187.725 159.735C188.315 160.005 188.97 160.14 189.69 160.14C191.11 160.14 192.2 159.635 192.96 158.625C193.72 157.615 194.1 156.175 194.1 154.305C194.1 153.315 194.01 152.465 193.83 151.755C193.66 151.045 193.41 150.465 193.08 150.015C192.75 149.555 192.345 149.22 191.865 149.01C191.385 148.8 190.84 148.695 190.23 148.695ZM208.818 149.31C208.698 149.53 208.513 149.64 208.263 149.64C208.113 149.64 207.943 149.585 207.753 149.475C207.563 149.365 207.328 149.245 207.048 149.115C206.778 148.975 206.453 148.85 206.073 148.74C205.693 148.62 205.243 148.56 204.723 148.56C204.273 148.56 203.868 148.62 203.508 148.74C203.148 148.85 202.838 149.005 202.578 149.205C202.328 149.405 202.133 149.64 201.993 149.91C201.863 150.17 201.798 150.455 201.798 150.765C201.798 151.155 201.908 151.48 202.128 151.74C202.358 152 202.658 152.225 203.028 152.415C203.398 152.605 203.818 152.775 204.288 152.925C204.758 153.065 205.238 153.22 205.728 153.39C206.228 153.55 206.713 153.73 207.183 153.93C207.653 154.13 208.073 154.38 208.443 154.68C208.813 154.98 209.108 155.35 209.328 155.79C209.558 156.22 209.673 156.74 209.673 157.35C209.673 158.05 209.548 158.7 209.298 159.3C209.048 159.89 208.678 160.405 208.188 160.845C207.698 161.275 207.098 161.615 206.388 161.865C205.678 162.115 204.858 162.24 203.928 162.24C202.868 162.24 201.908 162.07 201.048 161.73C200.188 161.38 199.458 160.935 198.858 160.395L199.488 159.375C199.568 159.245 199.663 159.145 199.773 159.075C199.883 159.005 200.028 158.97 200.208 158.97C200.388 158.97 200.578 159.04 200.778 159.18C200.978 159.32 201.218 159.475 201.498 159.645C201.788 159.815 202.133 159.97 202.533 160.11C202.943 160.25 203.453 160.32 204.063 160.32C204.583 160.32 205.038 160.255 205.428 160.125C205.818 159.985 206.143 159.8 206.403 159.57C206.663 159.34 206.853 159.075 206.973 158.775C207.103 158.475 207.168 158.155 207.168 157.815C207.168 157.395 207.053 157.05 206.823 156.78C206.603 156.5 206.308 156.265 205.938 156.075C205.568 155.875 205.143 155.705 204.663 155.565C204.193 155.415 203.708 155.26 203.208 155.1C202.718 154.94 202.233 154.76 201.753 154.56C201.283 154.35 200.863 154.09 200.493 153.78C200.123 153.47 199.823 153.09 199.593 152.64C199.373 152.18 199.263 151.625 199.263 150.975C199.263 150.395 199.383 149.84 199.623 149.31C199.863 148.77 200.213 148.3 200.673 147.9C201.133 147.49 201.698 147.165 202.368 146.925C203.038 146.685 203.803 146.565 204.663 146.565C205.663 146.565 206.558 146.725 207.348 147.045C208.148 147.355 208.838 147.785 209.418 148.335L208.818 149.31ZM217.731 162.24C216.531 162.24 215.606 161.905 214.956 161.235C214.316 160.565 213.996 159.6 213.996 158.34V149.04H212.166C212.006 149.04 211.871 148.995 211.761 148.905C211.651 148.805 211.596 148.655 211.596 148.455V147.39L214.086 147.075L214.701 142.38C214.721 142.23 214.786 142.11 214.896 142.02C215.006 141.92 215.146 141.87 215.316 141.87H216.666V147.105H221.016V149.04H216.666V158.16C216.666 158.8 216.821 159.275 217.131 159.585C217.441 159.895 217.841 160.05 218.331 160.05C218.611 160.05 218.851 160.015 219.051 159.945C219.261 159.865 219.441 159.78 219.591 159.69C219.741 159.6 219.866 159.52 219.966 159.45C220.076 159.37 220.171 159.33 220.251 159.33C220.391 159.33 220.516 159.415 220.626 159.585L221.406 160.86C220.946 161.29 220.391 161.63 219.741 161.88C219.091 162.12 218.421 162.24 217.731 162.24ZM230.332 146.565C231.242 146.565 232.082 146.72 232.852 147.03C233.622 147.33 234.287 147.77 234.847 148.35C235.407 148.92 235.842 149.63 236.152 150.48C236.472 151.32 236.632 152.28 236.632 153.36C236.632 153.78 236.587 154.06 236.497 154.2C236.407 154.34 236.237 154.41 235.987 154.41H225.877C225.897 155.37 226.027 156.205 226.267 156.915C226.507 157.625 226.837 158.22 227.257 158.7C227.677 159.17 228.177 159.525 228.757 159.765C229.337 159.995 229.987 160.11 230.707 160.11C231.377 160.11 231.952 160.035 232.432 159.885C232.922 159.725 233.342 159.555 233.692 159.375C234.042 159.195 234.332 159.03 234.562 158.88C234.802 158.72 235.007 158.64 235.177 158.64C235.397 158.64 235.567 158.725 235.687 158.895L236.437 159.87C236.107 160.27 235.712 160.62 235.252 160.92C234.792 161.21 234.297 161.45 233.767 161.64C233.247 161.83 232.707 161.97 232.147 162.06C231.587 162.16 231.032 162.21 230.482 162.21C229.432 162.21 228.462 162.035 227.572 161.685C226.692 161.325 225.927 160.805 225.277 160.125C224.637 159.435 224.137 158.585 223.777 157.575C223.417 156.565 223.237 155.405 223.237 154.095C223.237 153.035 223.397 152.045 223.717 151.125C224.047 150.205 224.517 149.41 225.127 148.74C225.737 148.06 226.482 147.53 227.362 147.15C228.242 146.76 229.232 146.565 230.332 146.565ZM230.392 148.53C229.102 148.53 228.087 148.905 227.347 149.655C226.607 150.395 226.147 151.425 225.967 152.745H234.232C234.232 152.125 234.147 151.56 233.977 151.05C233.807 150.53 233.557 150.085 233.227 149.715C232.897 149.335 232.492 149.045 232.012 148.845C231.542 148.635 231.002 148.53 230.392 148.53ZM234.742 140.265L231.247 144.135C231.107 144.285 230.967 144.395 230.827 144.465C230.697 144.525 230.527 144.555 230.317 144.555H228.727L230.947 140.925C231.087 140.695 231.237 140.53 231.397 140.43C231.567 140.32 231.812 140.265 232.132 140.265H234.742ZM244.654 162.24C243.454 162.24 242.529 161.905 241.879 161.235C241.239 160.565 240.919 159.6 240.919 158.34V149.04H239.089C238.929 149.04 238.794 148.995 238.684 148.905C238.574 148.805 238.519 148.655 238.519 148.455V147.39L241.009 147.075L241.624 142.38C241.644 142.23 241.709 142.11 241.819 142.02C241.929 141.92 242.069 141.87 242.239 141.87H243.589V147.105H247.939V149.04H243.589V158.16C243.589 158.8 243.744 159.275 244.054 159.585C244.364 159.895 244.764 160.05 245.254 160.05C245.534 160.05 245.774 160.015 245.974 159.945C246.184 159.865 246.364 159.78 246.514 159.69C246.664 159.6 246.789 159.52 246.889 159.45C246.999 159.37 247.094 159.33 247.174 159.33C247.314 159.33 247.439 159.415 247.549 159.585L248.329 160.86C247.869 161.29 247.314 161.63 246.664 161.88C246.014 162.12 245.344 162.24 244.654 162.24ZM251.241 162V146.805H252.771C253.061 146.805 253.261 146.86 253.371 146.97C253.481 147.08 253.556 147.27 253.596 147.54L253.776 149.91C254.296 148.85 254.936 148.025 255.696 147.435C256.466 146.835 257.366 146.535 258.396 146.535C258.816 146.535 259.196 146.585 259.536 146.685C259.876 146.775 260.191 146.905 260.481 147.075L260.136 149.07C260.066 149.32 259.911 149.445 259.671 149.445C259.531 149.445 259.316 149.4 259.026 149.31C258.736 149.21 258.331 149.16 257.811 149.16C256.881 149.16 256.101 149.43 255.471 149.97C254.851 150.51 254.331 151.295 253.911 152.325V162H251.241ZM266.31 146.805V162H263.64V146.805H266.31ZM266.91 142.035C266.91 142.295 266.855 142.54 266.745 142.77C266.645 142.99 266.505 143.19 266.325 143.37C266.155 143.54 265.955 143.675 265.725 143.775C265.495 143.875 265.25 143.925 264.99 143.925C264.73 143.925 264.485 143.875 264.255 143.775C264.035 143.675 263.835 143.54 263.655 143.37C263.485 143.19 263.35 142.99 263.25 142.77C263.15 142.54 263.1 142.295 263.1 142.035C263.1 141.775 263.15 141.53 263.25 141.3C263.35 141.06 263.485 140.855 263.655 140.685C263.835 140.505 264.035 140.365 264.255 140.265C264.485 140.165 264.73 140.115 264.99 140.115C265.25 140.115 265.495 140.165 265.725 140.265C265.955 140.365 266.155 140.505 266.325 140.685C266.505 140.855 266.645 141.06 266.745 141.3C266.855 141.53 266.91 141.775 266.91 142.035ZM281.381 149.505C281.301 149.615 281.221 149.7 281.141 149.76C281.061 149.82 280.946 149.85 280.796 149.85C280.646 149.85 280.481 149.79 280.301 149.67C280.131 149.54 279.911 149.4 279.641 149.25C279.371 149.1 279.041 148.965 278.651 148.845C278.271 148.715 277.801 148.65 277.241 148.65C276.501 148.65 275.846 148.785 275.276 149.055C274.706 149.315 274.226 149.695 273.836 150.195C273.456 150.695 273.166 151.3 272.966 152.01C272.776 152.72 272.681 153.515 272.681 154.395C272.681 155.315 272.786 156.135 272.996 156.855C273.206 157.565 273.501 158.165 273.881 158.655C274.261 159.135 274.721 159.505 275.261 159.765C275.811 160.015 276.426 160.14 277.106 160.14C277.756 160.14 278.291 160.065 278.711 159.915C279.131 159.755 279.481 159.58 279.761 159.39C280.041 159.2 280.271 159.03 280.451 158.88C280.631 158.72 280.811 158.64 280.991 158.64C281.221 158.64 281.391 158.725 281.501 158.895L282.251 159.87C281.591 160.68 280.766 161.275 279.776 161.655C278.786 162.025 277.741 162.21 276.641 162.21C275.691 162.21 274.806 162.035 273.986 161.685C273.176 161.335 272.471 160.83 271.871 160.17C271.271 159.5 270.796 158.68 270.446 157.71C270.106 156.74 269.936 155.635 269.936 154.395C269.936 153.265 270.091 152.22 270.401 151.26C270.721 150.3 271.181 149.475 271.781 148.785C272.391 148.085 273.141 147.54 274.031 147.15C274.921 146.76 275.941 146.565 277.091 146.565C278.151 146.565 279.091 146.74 279.911 147.09C280.731 147.43 281.456 147.915 282.086 148.545L281.381 149.505ZM296.18 162H294.995C294.735 162 294.525 161.96 294.365 161.88C294.205 161.8 294.1 161.63 294.05 161.37L293.75 159.96C293.35 160.32 292.96 160.645 292.58 160.935C292.2 161.215 291.8 161.455 291.38 161.655C290.96 161.845 290.51 161.99 290.03 162.09C289.56 162.19 289.035 162.24 288.455 162.24C287.865 162.24 287.31 162.16 286.79 162C286.28 161.83 285.835 161.58 285.455 161.25C285.075 160.92 284.77 160.505 284.54 160.005C284.32 159.495 284.21 158.895 284.21 158.205C284.21 157.605 284.375 157.03 284.705 156.48C285.035 155.92 285.565 155.425 286.295 154.995C287.035 154.565 288 154.215 289.19 153.945C290.38 153.665 291.835 153.505 293.555 153.465V152.28C293.555 151.1 293.3 150.21 292.79 149.61C292.29 149 291.545 148.695 290.555 148.695C289.905 148.695 289.355 148.78 288.905 148.95C288.465 149.11 288.08 149.295 287.75 149.505C287.43 149.705 287.15 149.89 286.91 150.06C286.68 150.22 286.45 150.3 286.22 150.3C286.04 150.3 285.88 150.255 285.74 150.165C285.61 150.065 285.505 149.945 285.425 149.805L284.945 148.95C285.785 148.14 286.69 147.535 287.66 147.135C288.63 146.735 289.705 146.535 290.885 146.535C291.735 146.535 292.49 146.675 293.15 146.955C293.81 147.235 294.365 147.625 294.815 148.125C295.265 148.625 295.605 149.23 295.835 149.94C296.065 150.65 296.18 151.43 296.18 152.28V162ZM289.25 160.365C289.72 160.365 290.15 160.32 290.54 160.23C290.93 160.13 291.295 159.995 291.635 159.825C291.985 159.645 292.315 159.43 292.625 159.18C292.945 158.93 293.255 158.645 293.555 158.325V155.16C292.325 155.2 291.28 155.3 290.42 155.46C289.56 155.61 288.86 155.81 288.32 156.06C287.78 156.31 287.385 156.605 287.135 156.945C286.895 157.285 286.775 157.665 286.775 158.085C286.775 158.485 286.84 158.83 286.97 159.12C287.1 159.41 287.275 159.65 287.495 159.84C287.715 160.02 287.975 160.155 288.275 160.245C288.575 160.325 288.9 160.365 289.25 160.365ZM39.19 204V188.805H40.78C41.16 188.805 41.4 188.99 41.5 189.36L41.71 191.01C42.37 190.28 43.105 189.69 43.915 189.24C44.735 188.79 45.68 188.565 46.75 188.565C47.58 188.565 48.31 188.705 48.94 188.985C49.58 189.255 50.11 189.645 50.53 190.155C50.96 190.655 51.285 191.26 51.505 191.97C51.725 192.68 51.835 193.465 51.835 194.325V204H49.165V194.325C49.165 193.175 48.9 192.285 48.37 191.655C47.85 191.015 47.05 190.695 45.97 190.695C45.18 190.695 44.44 190.885 43.75 191.265C43.07 191.645 42.44 192.16 41.86 192.81V204H39.19ZM62.0099 188.565C63.1199 188.565 64.1199 188.75 65.0099 189.12C65.9099 189.49 66.6699 190.015 67.2899 190.695C67.9199 191.375 68.3999 192.2 68.7299 193.17C69.0699 194.13 69.2399 195.205 69.2399 196.395C69.2399 197.595 69.0699 198.675 68.7299 199.635C68.3999 200.595 67.9199 201.415 67.2899 202.095C66.6699 202.775 65.9099 203.3 65.0099 203.67C64.1199 204.03 63.1199 204.21 62.0099 204.21C60.8999 204.21 59.8949 204.03 58.9949 203.67C58.1049 203.3 57.3449 202.775 56.7149 202.095C56.0849 201.415 55.5999 200.595 55.2599 199.635C54.9199 198.675 54.7499 197.595 54.7499 196.395C54.7499 195.205 54.9199 194.13 55.2599 193.17C55.5999 192.2 56.0849 191.375 56.7149 190.695C57.3449 190.015 58.1049 189.49 58.9949 189.12C59.8949 188.75 60.8999 188.565 62.0099 188.565ZM62.0099 202.125C63.5099 202.125 64.6299 201.625 65.3699 200.625C66.1099 199.615 66.4799 198.21 66.4799 196.41C66.4799 194.6 66.1099 193.19 65.3699 192.18C64.6299 191.17 63.5099 190.665 62.0099 190.665C61.2499 190.665 60.5899 190.795 60.0299 191.055C59.4699 191.315 58.9999 191.69 58.6199 192.18C58.2499 192.67 57.9699 193.275 57.7799 193.995C57.5999 194.705 57.5099 195.51 57.5099 196.41C57.5099 197.31 57.5999 198.115 57.7799 198.825C57.9699 199.535 58.2499 200.135 58.6199 200.625C58.9999 201.105 59.4699 201.475 60.0299 201.735C60.5899 201.995 61.2499 202.125 62.0099 202.125ZM89.4906 204H88.3056C88.0456 204 87.8356 203.96 87.6756 203.88C87.5156 203.8 87.4106 203.63 87.3606 203.37L87.0606 201.96C86.6606 202.32 86.2706 202.645 85.8906 202.935C85.5106 203.215 85.1106 203.455 84.6906 203.655C84.2706 203.845 83.8206 203.99 83.3406 204.09C82.8706 204.19 82.3456 204.24 81.7656 204.24C81.1756 204.24 80.6206 204.16 80.1006 204C79.5906 203.83 79.1456 203.58 78.7656 203.25C78.3856 202.92 78.0806 202.505 77.8506 202.005C77.6306 201.495 77.5206 200.895 77.5206 200.205C77.5206 199.605 77.6856 199.03 78.0156 198.48C78.3456 197.92 78.8756 197.425 79.6056 196.995C80.3456 196.565 81.3106 196.215 82.5006 195.945C83.6906 195.665 85.1456 195.505 86.8656 195.465V194.28C86.8656 193.1 86.6106 192.21 86.1006 191.61C85.6006 191 84.8556 190.695 83.8656 190.695C83.2156 190.695 82.6656 190.78 82.2156 190.95C81.7756 191.11 81.3906 191.295 81.0606 191.505C80.7406 191.705 80.4606 191.89 80.2206 192.06C79.9906 192.22 79.7606 192.3 79.5306 192.3C79.3506 192.3 79.1906 192.255 79.0506 192.165C78.9206 192.065 78.8156 191.945 78.7356 191.805L78.2556 190.95C79.0956 190.14 80.0006 189.535 80.9706 189.135C81.9406 188.735 83.0156 188.535 84.1956 188.535C85.0456 188.535 85.8006 188.675 86.4606 188.955C87.1206 189.235 87.6756 189.625 88.1256 190.125C88.5756 190.625 88.9156 191.23 89.1456 191.94C89.3756 192.65 89.4906 193.43 89.4906 194.28V204ZM82.5606 202.365C83.0306 202.365 83.4606 202.32 83.8506 202.23C84.2406 202.13 84.6056 201.995 84.9456 201.825C85.2956 201.645 85.6256 201.43 85.9356 201.18C86.2556 200.93 86.5656 200.645 86.8656 200.325V197.16C85.6356 197.2 84.5906 197.3 83.7306 197.46C82.8706 197.61 82.1706 197.81 81.6306 198.06C81.0906 198.31 80.6956 198.605 80.4456 198.945C80.2056 199.285 80.0856 199.665 80.0856 200.085C80.0856 200.485 80.1506 200.83 80.2806 201.12C80.4106 201.41 80.5856 201.65 80.8056 201.84C81.0256 202.02 81.2856 202.155 81.5856 202.245C81.8856 202.325 82.2106 202.365 82.5606 202.365ZM93.6257 204V181.905H96.3107V190.995C96.9407 190.265 97.6607 189.68 98.4707 189.24C99.2907 188.79 100.226 188.565 101.276 188.565C102.156 188.565 102.951 188.73 103.661 189.06C104.371 189.39 104.976 189.885 105.476 190.545C105.976 191.195 106.361 192.005 106.631 192.975C106.901 193.935 107.036 195.045 107.036 196.305C107.036 197.425 106.886 198.47 106.586 199.44C106.286 200.4 105.851 201.235 105.281 201.945C104.721 202.645 104.031 203.2 103.211 203.61C102.401 204.01 101.486 204.21 100.466 204.21C99.4857 204.21 98.6507 204.02 97.9607 203.64C97.2807 203.26 96.6857 202.73 96.1757 202.05L96.0407 203.43C95.9607 203.81 95.7307 204 95.3507 204H93.6257ZM100.406 190.695C99.5357 190.695 98.7707 190.895 98.1107 191.295C97.4607 191.695 96.8607 192.26 96.3107 192.99V200.34C96.7907 201 97.3207 201.465 97.9007 201.735C98.4907 202.005 99.1457 202.14 99.8657 202.14C101.286 202.14 102.376 201.635 103.136 200.625C103.896 199.615 104.276 198.175 104.276 196.305C104.276 195.315 104.186 194.465 104.006 193.755C103.836 193.045 103.586 192.465 103.256 192.015C102.926 191.555 102.521 191.22 102.041 191.01C101.561 190.8 101.016 190.695 100.406 190.695ZM116.444 188.565C117.554 188.565 118.554 188.75 119.444 189.12C120.344 189.49 121.104 190.015 121.724 190.695C122.354 191.375 122.834 192.2 123.164 193.17C123.504 194.13 123.674 195.205 123.674 196.395C123.674 197.595 123.504 198.675 123.164 199.635C122.834 200.595 122.354 201.415 121.724 202.095C121.104 202.775 120.344 203.3 119.444 203.67C118.554 204.03 117.554 204.21 116.444 204.21C115.334 204.21 114.329 204.03 113.429 203.67C112.539 203.3 111.779 202.775 111.149 202.095C110.519 201.415 110.034 200.595 109.694 199.635C109.354 198.675 109.184 197.595 109.184 196.395C109.184 195.205 109.354 194.13 109.694 193.17C110.034 192.2 110.519 191.375 111.149 190.695C111.779 190.015 112.539 189.49 113.429 189.12C114.329 188.75 115.334 188.565 116.444 188.565ZM116.444 202.125C117.944 202.125 119.064 201.625 119.804 200.625C120.544 199.615 120.914 198.21 120.914 196.41C120.914 194.6 120.544 193.19 119.804 192.18C119.064 191.17 117.944 190.665 116.444 190.665C115.684 190.665 115.024 190.795 114.464 191.055C113.904 191.315 113.434 191.69 113.054 192.18C112.684 192.67 112.404 193.275 112.214 193.995C112.034 194.705 111.944 195.51 111.944 196.41C111.944 197.31 112.034 198.115 112.214 198.825C112.404 199.535 112.684 200.135 113.054 200.625C113.434 201.105 113.904 201.475 114.464 201.735C115.024 201.995 115.684 202.125 116.444 202.125ZM126.963 204V188.805H128.493C128.783 188.805 128.983 188.86 129.093 188.97C129.203 189.08 129.278 189.27 129.318 189.54L129.498 191.91C130.018 190.85 130.658 190.025 131.418 189.435C132.188 188.835 133.088 188.535 134.118 188.535C134.538 188.535 134.918 188.585 135.258 188.685C135.598 188.775 135.913 188.905 136.203 189.075L135.858 191.07C135.788 191.32 135.633 191.445 135.393 191.445C135.253 191.445 135.038 191.4 134.748 191.31C134.458 191.21 134.053 191.16 133.533 191.16C132.603 191.16 131.823 191.43 131.193 191.97C130.573 192.51 130.053 193.295 129.633 194.325V204H126.963ZM143.668 204.24C142.468 204.24 141.543 203.905 140.893 203.235C140.253 202.565 139.933 201.6 139.933 200.34V191.04H138.103C137.943 191.04 137.808 190.995 137.698 190.905C137.588 190.805 137.533 190.655 137.533 190.455V189.39L140.023 189.075L140.638 184.38C140.658 184.23 140.723 184.11 140.833 184.02C140.943 183.92 141.083 183.87 141.253 183.87H142.603V189.105H146.953V191.04H142.603V200.16C142.603 200.8 142.758 201.275 143.068 201.585C143.378 201.895 143.778 202.05 144.268 202.05C144.548 202.05 144.788 202.015 144.988 201.945C145.198 201.865 145.378 201.78 145.528 201.69C145.678 201.6 145.803 201.52 145.903 201.45C146.013 201.37 146.108 201.33 146.188 201.33C146.328 201.33 146.453 201.415 146.563 201.585L147.343 202.86C146.883 203.29 146.328 203.63 145.678 203.88C145.028 204.12 144.358 204.24 143.668 204.24ZM161.414 204H160.229C159.969 204 159.759 203.96 159.599 203.88C159.439 203.8 159.334 203.63 159.284 203.37L158.984 201.96C158.584 202.32 158.194 202.645 157.814 202.935C157.434 203.215 157.034 203.455 156.614 203.655C156.194 203.845 155.744 203.99 155.264 204.09C154.794 204.19 154.269 204.24 153.689 204.24C153.099 204.24 152.544 204.16 152.024 204C151.514 203.83 151.069 203.58 150.689 203.25C150.309 202.92 150.004 202.505 149.774 202.005C149.554 201.495 149.444 200.895 149.444 200.205C149.444 199.605 149.609 199.03 149.939 198.48C150.269 197.92 150.799 197.425 151.529 196.995C152.269 196.565 153.234 196.215 154.424 195.945C155.614 195.665 157.069 195.505 158.789 195.465V194.28C158.789 193.1 158.534 192.21 158.024 191.61C157.524 191 156.779 190.695 155.789 190.695C155.139 190.695 154.589 190.78 154.139 190.95C153.699 191.11 153.314 191.295 152.984 191.505C152.664 191.705 152.384 191.89 152.144 192.06C151.914 192.22 151.684 192.3 151.454 192.3C151.274 192.3 151.114 192.255 150.974 192.165C150.844 192.065 150.739 191.945 150.659 191.805L150.179 190.95C151.019 190.14 151.924 189.535 152.894 189.135C153.864 188.735 154.939 188.535 156.119 188.535C156.969 188.535 157.724 188.675 158.384 188.955C159.044 189.235 159.599 189.625 160.049 190.125C160.499 190.625 160.839 191.23 161.069 191.94C161.299 192.65 161.414 193.43 161.414 194.28V204ZM154.484 202.365C154.954 202.365 155.384 202.32 155.774 202.23C156.164 202.13 156.529 201.995 156.869 201.825C157.219 201.645 157.549 201.43 157.859 201.18C158.179 200.93 158.489 200.645 158.789 200.325V197.16C157.559 197.2 156.514 197.3 155.654 197.46C154.794 197.61 154.094 197.81 153.554 198.06C153.014 198.31 152.619 198.605 152.369 198.945C152.129 199.285 152.009 199.665 152.009 200.085C152.009 200.485 152.074 200.83 152.204 201.12C152.334 201.41 152.509 201.65 152.729 201.84C152.949 202.02 153.209 202.155 153.509 202.245C153.809 202.325 154.134 202.365 154.484 202.365ZM165.46 204V188.805H167.05C167.43 188.805 167.67 188.99 167.77 189.36L167.965 190.92C168.525 190.23 169.15 189.665 169.84 189.225C170.54 188.785 171.35 188.565 172.27 188.565C173.3 188.565 174.13 188.85 174.76 189.42C175.4 189.99 175.86 190.76 176.14 191.73C176.35 191.18 176.625 190.705 176.965 190.305C177.315 189.905 177.705 189.575 178.135 189.315C178.565 189.055 179.02 188.865 179.5 188.745C179.99 188.625 180.485 188.565 180.985 188.565C181.785 188.565 182.495 188.695 183.115 188.955C183.745 189.205 184.275 189.575 184.705 190.065C185.145 190.555 185.48 191.16 185.71 191.88C185.94 192.59 186.055 193.405 186.055 194.325V204H183.385V194.325C183.385 193.135 183.125 192.235 182.605 191.625C182.085 191.005 181.33 190.695 180.34 190.695C179.9 190.695 179.48 190.775 179.08 190.935C178.69 191.085 178.345 191.31 178.045 191.61C177.745 191.91 177.505 192.29 177.325 192.75C177.155 193.2 177.07 193.725 177.07 194.325V204H174.4V194.325C174.4 193.105 174.155 192.195 173.665 191.595C173.175 190.995 172.46 190.695 171.52 190.695C170.86 190.695 170.245 190.875 169.675 191.235C169.115 191.585 168.6 192.065 168.13 192.675V204H165.46ZM196.113 188.565C197.023 188.565 197.863 188.72 198.633 189.03C199.403 189.33 200.068 189.77 200.628 190.35C201.188 190.92 201.623 191.63 201.933 192.48C202.253 193.32 202.413 194.28 202.413 195.36C202.413 195.78 202.368 196.06 202.278 196.2C202.188 196.34 202.018 196.41 201.768 196.41H191.658C191.678 197.37 191.808 198.205 192.048 198.915C192.288 199.625 192.618 200.22 193.038 200.7C193.458 201.17 193.958 201.525 194.538 201.765C195.118 201.995 195.768 202.11 196.488 202.11C197.158 202.11 197.733 202.035 198.213 201.885C198.703 201.725 199.123 201.555 199.473 201.375C199.823 201.195 200.113 201.03 200.343 200.88C200.583 200.72 200.788 200.64 200.958 200.64C201.178 200.64 201.348 200.725 201.468 200.895L202.218 201.87C201.888 202.27 201.493 202.62 201.033 202.92C200.573 203.21 200.078 203.45 199.548 203.64C199.028 203.83 198.488 203.97 197.928 204.06C197.368 204.16 196.813 204.21 196.263 204.21C195.213 204.21 194.243 204.035 193.353 203.685C192.473 203.325 191.708 202.805 191.058 202.125C190.418 201.435 189.918 200.585 189.558 199.575C189.198 198.565 189.018 197.405 189.018 196.095C189.018 195.035 189.178 194.045 189.498 193.125C189.828 192.205 190.298 191.41 190.908 190.74C191.518 190.06 192.263 189.53 193.143 189.15C194.023 188.76 195.013 188.565 196.113 188.565ZM196.173 190.53C194.883 190.53 193.868 190.905 193.128 191.655C192.388 192.395 191.928 193.425 191.748 194.745H200.013C200.013 194.125 199.928 193.56 199.758 193.05C199.588 192.53 199.338 192.085 199.008 191.715C198.678 191.335 198.273 191.045 197.793 190.845C197.323 190.635 196.783 190.53 196.173 190.53ZM205.831 204V188.805H207.421C207.801 188.805 208.041 188.99 208.141 189.36L208.351 191.01C209.011 190.28 209.746 189.69 210.556 189.24C211.376 188.79 212.321 188.565 213.391 188.565C214.221 188.565 214.951 188.705 215.581 188.985C216.221 189.255 216.751 189.645 217.171 190.155C217.601 190.655 217.926 191.26 218.146 191.97C218.366 192.68 218.476 193.465 218.476 194.325V204H215.806V194.325C215.806 193.175 215.541 192.285 215.011 191.655C214.491 191.015 213.691 190.695 212.611 190.695C211.821 190.695 211.081 190.885 210.391 191.265C209.711 191.645 209.081 192.16 208.501 192.81V204H205.831ZM227.106 204.24C225.906 204.24 224.981 203.905 224.331 203.235C223.691 202.565 223.371 201.6 223.371 200.34V191.04H221.541C221.381 191.04 221.246 190.995 221.136 190.905C221.026 190.805 220.971 190.655 220.971 190.455V189.39L223.461 189.075L224.076 184.38C224.096 184.23 224.161 184.11 224.271 184.02C224.381 183.92 224.521 183.87 224.691 183.87H226.041V189.105H230.391V191.04H226.041V200.16C226.041 200.8 226.196 201.275 226.506 201.585C226.816 201.895 227.216 202.05 227.706 202.05C227.986 202.05 228.226 202.015 228.426 201.945C228.636 201.865 228.816 201.78 228.966 201.69C229.116 201.6 229.241 201.52 229.341 201.45C229.451 201.37 229.546 201.33 229.626 201.33C229.766 201.33 229.891 201.415 230.001 201.585L230.781 202.86C230.321 203.29 229.766 203.63 229.116 203.88C228.466 204.12 227.796 204.24 227.106 204.24ZM239.842 188.565C240.952 188.565 241.952 188.75 242.842 189.12C243.742 189.49 244.502 190.015 245.122 190.695C245.752 191.375 246.232 192.2 246.562 193.17C246.902 194.13 247.072 195.205 247.072 196.395C247.072 197.595 246.902 198.675 246.562 199.635C246.232 200.595 245.752 201.415 245.122 202.095C244.502 202.775 243.742 203.3 242.842 203.67C241.952 204.03 240.952 204.21 239.842 204.21C238.732 204.21 237.727 204.03 236.827 203.67C235.937 203.3 235.177 202.775 234.547 202.095C233.917 201.415 233.432 200.595 233.092 199.635C232.752 198.675 232.582 197.595 232.582 196.395C232.582 195.205 232.752 194.13 233.092 193.17C233.432 192.2 233.917 191.375 234.547 190.695C235.177 190.015 235.937 189.49 236.827 189.12C237.727 188.75 238.732 188.565 239.842 188.565ZM239.842 202.125C241.342 202.125 242.462 201.625 243.202 200.625C243.942 199.615 244.312 198.21 244.312 196.41C244.312 194.6 243.942 193.19 243.202 192.18C242.462 191.17 241.342 190.665 239.842 190.665C239.082 190.665 238.422 190.795 237.862 191.055C237.302 191.315 236.832 191.69 236.452 192.18C236.082 192.67 235.802 193.275 235.612 193.995C235.432 194.705 235.342 195.51 235.342 196.41C235.342 197.31 235.432 198.115 235.612 198.825C235.802 199.535 236.082 200.135 236.452 200.625C236.832 201.105 237.302 201.475 237.862 201.735C238.422 201.995 239.082 202.125 239.842 202.125ZM262.178 188.565C263.088 188.565 263.928 188.72 264.698 189.03C265.468 189.33 266.133 189.77 266.693 190.35C267.253 190.92 267.688 191.63 267.998 192.48C268.318 193.32 268.478 194.28 268.478 195.36C268.478 195.78 268.433 196.06 268.343 196.2C268.253 196.34 268.083 196.41 267.833 196.41H257.723C257.743 197.37 257.873 198.205 258.113 198.915C258.353 199.625 258.683 200.22 259.103 200.7C259.523 201.17 260.023 201.525 260.603 201.765C261.183 201.995 261.833 202.11 262.553 202.11C263.223 202.11 263.798 202.035 264.278 201.885C264.768 201.725 265.188 201.555 265.538 201.375C265.888 201.195 266.178 201.03 266.408 200.88C266.648 200.72 266.853 200.64 267.023 200.64C267.243 200.64 267.413 200.725 267.533 200.895L268.283 201.87C267.953 202.27 267.558 202.62 267.098 202.92C266.638 203.21 266.143 203.45 265.613 203.64C265.093 203.83 264.553 203.97 263.993 204.06C263.433 204.16 262.878 204.21 262.328 204.21C261.278 204.21 260.308 204.035 259.418 203.685C258.538 203.325 257.773 202.805 257.123 202.125C256.483 201.435 255.983 200.585 255.623 199.575C255.263 198.565 255.083 197.405 255.083 196.095C255.083 195.035 255.243 194.045 255.563 193.125C255.893 192.205 256.363 191.41 256.973 190.74C257.583 190.06 258.328 189.53 259.208 189.15C260.088 188.76 261.078 188.565 262.178 188.565ZM262.238 190.53C260.948 190.53 259.933 190.905 259.193 191.655C258.453 192.395 257.993 193.425 257.813 194.745H266.078C266.078 194.125 265.993 193.56 265.823 193.05C265.653 192.53 265.403 192.085 265.073 191.715C264.743 191.335 264.338 191.045 263.858 190.845C263.388 190.635 262.848 190.53 262.238 190.53ZM277.696 204V188.805H279.286C279.666 188.805 279.906 188.99 280.006 189.36L280.216 191.01C280.876 190.28 281.611 189.69 282.421 189.24C283.241 188.79 284.186 188.565 285.256 188.565C286.086 188.565 286.816 188.705 287.446 188.985C288.086 189.255 288.616 189.645 289.036 190.155C289.466 190.655 289.791 191.26 290.011 191.97C290.231 192.68 290.341 193.465 290.341 194.325V204H287.671V194.325C287.671 193.175 287.406 192.285 286.876 191.655C286.356 191.015 285.556 190.695 284.476 190.695C283.686 190.695 282.946 190.885 282.256 191.265C281.576 191.645 280.946 192.16 280.366 192.81V204H277.696ZM300.516 188.565C301.626 188.565 302.626 188.75 303.516 189.12C304.416 189.49 305.176 190.015 305.796 190.695C306.426 191.375 306.906 192.2 307.236 193.17C307.576 194.13 307.746 195.205 307.746 196.395C307.746 197.595 307.576 198.675 307.236 199.635C306.906 200.595 306.426 201.415 305.796 202.095C305.176 202.775 304.416 203.3 303.516 203.67C302.626 204.03 301.626 204.21 300.516 204.21C299.406 204.21 298.401 204.03 297.501 203.67C296.611 203.3 295.851 202.775 295.221 202.095C294.591 201.415 294.106 200.595 293.766 199.635C293.426 198.675 293.256 197.595 293.256 196.395C293.256 195.205 293.426 194.13 293.766 193.17C294.106 192.2 294.591 191.375 295.221 190.695C295.851 190.015 296.611 189.49 297.501 189.12C298.401 188.75 299.406 188.565 300.516 188.565ZM300.516 202.125C302.016 202.125 303.136 201.625 303.876 200.625C304.616 199.615 304.986 198.21 304.986 196.41C304.986 194.6 304.616 193.19 303.876 192.18C303.136 191.17 302.016 190.665 300.516 190.665C299.756 190.665 299.096 190.795 298.536 191.055C297.976 191.315 297.506 191.69 297.126 192.18C296.756 192.67 296.476 193.275 296.286 193.995C296.106 194.705 296.016 195.51 296.016 196.41C296.016 197.31 296.106 198.115 296.286 198.825C296.476 199.535 296.756 200.135 297.126 200.625C297.506 201.105 297.976 201.475 298.536 201.735C299.096 201.995 299.756 202.125 300.516 202.125ZM49.555 233.505C49.475 233.615 49.395 233.7 49.315 233.76C49.235 233.82 49.12 233.85 48.97 233.85C48.82 233.85 48.655 233.79 48.475 233.67C48.305 233.54 48.085 233.4 47.815 233.25C47.545 233.1 47.215 232.965 46.825 232.845C46.445 232.715 45.975 232.65 45.415 232.65C44.675 232.65 44.02 232.785 43.45 233.055C42.88 233.315 42.4 233.695 42.01 234.195C41.63 234.695 41.34 235.3 41.14 236.01C40.95 236.72 40.855 237.515 40.855 238.395C40.855 239.315 40.96 240.135 41.17 240.855C41.38 241.565 41.675 242.165 42.055 242.655C42.435 243.135 42.895 243.505 43.435 243.765C43.985 244.015 44.6 244.14 45.28 244.14C45.93 244.14 46.465 244.065 46.885 243.915C47.305 243.755 47.655 243.58 47.935 243.39C48.215 243.2 48.445 243.03 48.625 242.88C48.805 242.72 48.985 242.64 49.165 242.64C49.395 242.64 49.565 242.725 49.675 242.895L50.425 243.87C49.765 244.68 48.94 245.275 47.95 245.655C46.96 246.025 45.915 246.21 44.815 246.21C43.865 246.21 42.98 246.035 42.16 245.685C41.35 245.335 40.645 244.83 40.045 244.17C39.445 243.5 38.97 242.68 38.62 241.71C38.28 240.74 38.11 239.635 38.11 238.395C38.11 237.265 38.265 236.22 38.575 235.26C38.895 234.3 39.355 233.475 39.955 232.785C40.565 232.085 41.315 231.54 42.205 231.15C43.095 230.76 44.115 230.565 45.265 230.565C46.325 230.565 47.265 230.74 48.085 231.09C48.905 231.43 49.63 231.915 50.26 232.545L49.555 233.505ZM55.5039 230.805V240.495C55.5039 241.645 55.7689 242.535 56.2989 243.165C56.8289 243.795 57.6289 244.11 58.6989 244.11C59.4789 244.11 60.2139 243.925 60.9039 243.555C61.5939 243.185 62.2289 242.67 62.8089 242.01V230.805H65.4789V246H63.8889C63.5089 246 63.2689 245.815 63.1689 245.445L62.9589 243.81C62.2989 244.54 61.5589 245.13 60.7389 245.58C59.9189 246.02 58.9789 246.24 57.9189 246.24C57.0889 246.24 56.3539 246.105 55.7139 245.835C55.0839 245.555 54.5539 245.165 54.1239 244.665C53.6939 244.165 53.3689 243.56 53.1489 242.85C52.9389 242.14 52.8339 241.355 52.8339 240.495V230.805H55.5039ZM72.8338 230.805V246H70.1638V230.805H72.8338ZM73.4338 226.035C73.4338 226.295 73.3788 226.54 73.2688 226.77C73.1688 226.99 73.0288 227.19 72.8488 227.37C72.6788 227.54 72.4788 227.675 72.2488 227.775C72.0188 227.875 71.7738 227.925 71.5138 227.925C71.2538 227.925 71.0088 227.875 70.7788 227.775C70.5588 227.675 70.3588 227.54 70.1788 227.37C70.0088 227.19 69.8738 226.99 69.7738 226.77C69.6738 226.54 69.6238 226.295 69.6238 226.035C69.6238 225.775 69.6738 225.53 69.7738 225.3C69.8738 225.06 70.0088 224.855 70.1788 224.685C70.3588 224.505 70.5588 224.365 70.7788 224.265C71.0088 224.165 71.2538 224.115 71.5138 224.115C71.7738 224.115 72.0188 224.165 72.2488 224.265C72.4788 224.365 72.6788 224.505 72.8488 224.685C73.0288 224.855 73.1688 225.06 73.2688 225.3C73.3788 225.53 73.4338 225.775 73.4338 226.035ZM88.2346 246C87.8546 246 87.6146 245.815 87.5146 245.445L87.2746 243.6C86.6246 244.39 85.8796 245.025 85.0396 245.505C84.2096 245.975 83.2546 246.21 82.1746 246.21C81.3046 246.21 80.5146 246.045 79.8046 245.715C79.0946 245.375 78.4896 244.88 77.9896 244.23C77.4896 243.58 77.1046 242.77 76.8346 241.8C76.5646 240.83 76.4296 239.715 76.4296 238.455C76.4296 237.335 76.5796 236.295 76.8796 235.335C77.1796 234.365 77.6096 233.525 78.1696 232.815C78.7396 232.105 79.4296 231.55 80.2396 231.15C81.0496 230.74 81.9696 230.535 82.9996 230.535C83.9296 230.535 84.7246 230.695 85.3846 231.015C86.0446 231.325 86.6346 231.765 87.1546 232.335V223.905H89.8246V246H88.2346ZM83.0596 244.05C83.9296 244.05 84.6896 243.85 85.3396 243.45C85.9996 243.05 86.6046 242.485 87.1546 241.755V234.405C86.6646 233.745 86.1246 233.285 85.5346 233.025C84.9546 232.755 84.3096 232.62 83.5996 232.62C82.1796 232.62 81.0896 233.125 80.3296 234.135C79.5696 235.145 79.1896 236.585 79.1896 238.455C79.1896 239.445 79.2746 240.295 79.4446 241.005C79.6146 241.705 79.8646 242.285 80.1946 242.745C80.5246 243.195 80.9296 243.525 81.4096 243.735C81.8896 243.945 82.4396 244.05 83.0596 244.05ZM105.457 246H104.272C104.012 246 103.802 245.96 103.642 245.88C103.482 245.8 103.377 245.63 103.327 245.37L103.027 243.96C102.627 244.32 102.237 244.645 101.857 244.935C101.477 245.215 101.077 245.455 100.657 245.655C100.237 245.845 99.7874 245.99 99.3074 246.09C98.8374 246.19 98.3124 246.24 97.7324 246.24C97.1424 246.24 96.5874 246.16 96.0674 246C95.5574 245.83 95.1124 245.58 94.7324 245.25C94.3524 244.92 94.0474 244.505 93.8174 244.005C93.5974 243.495 93.4874 242.895 93.4874 242.205C93.4874 241.605 93.6524 241.03 93.9824 240.48C94.3124 239.92 94.8424 239.425 95.5724 238.995C96.3124 238.565 97.2774 238.215 98.4674 237.945C99.6574 237.665 101.112 237.505 102.832 237.465V236.28C102.832 235.1 102.577 234.21 102.067 233.61C101.567 233 100.822 232.695 99.8324 232.695C99.1824 232.695 98.6324 232.78 98.1824 232.95C97.7424 233.11 97.3574 233.295 97.0274 233.505C96.7074 233.705 96.4274 233.89 96.1874 234.06C95.9574 234.22 95.7274 234.3 95.4974 234.3C95.3174 234.3 95.1574 234.255 95.0174 234.165C94.8874 234.065 94.7824 233.945 94.7024 233.805L94.2224 232.95C95.0624 232.14 95.9674 231.535 96.9374 231.135C97.9074 230.735 98.9824 230.535 100.162 230.535C101.012 230.535 101.767 230.675 102.427 230.955C103.087 231.235 103.642 231.625 104.092 232.125C104.542 232.625 104.882 233.23 105.112 233.94C105.342 234.65 105.457 235.43 105.457 236.28V246ZM98.5274 244.365C98.9974 244.365 99.4274 244.32 99.8174 244.23C100.207 244.13 100.572 243.995 100.912 243.825C101.262 243.645 101.592 243.43 101.902 243.18C102.222 242.93 102.532 242.645 102.832 242.325V239.16C101.602 239.2 100.557 239.3 99.6974 239.46C98.8374 239.61 98.1374 239.81 97.5974 240.06C97.0574 240.31 96.6624 240.605 96.4124 240.945C96.1724 241.285 96.0524 241.665 96.0524 242.085C96.0524 242.485 96.1174 242.83 96.2474 243.12C96.3774 243.41 96.5524 243.65 96.7724 243.84C96.9924 244.02 97.2524 244.155 97.5524 244.245C97.8524 244.325 98.1774 244.365 98.5274 244.365ZM120.198 246C119.818 246 119.578 245.815 119.478 245.445L119.238 243.6C118.588 244.39 117.843 245.025 117.003 245.505C116.173 245.975 115.218 246.21 114.138 246.21C113.268 246.21 112.478 246.045 111.768 245.715C111.058 245.375 110.453 244.88 109.953 244.23C109.453 243.58 109.068 242.77 108.798 241.8C108.528 240.83 108.393 239.715 108.393 238.455C108.393 237.335 108.543 236.295 108.843 235.335C109.143 234.365 109.573 233.525 110.133 232.815C110.703 232.105 111.393 231.55 112.203 231.15C113.013 230.74 113.933 230.535 114.963 230.535C115.893 230.535 116.688 230.695 117.348 231.015C118.008 231.325 118.598 231.765 119.118 232.335V223.905H121.788V246H120.198ZM115.022 244.05C115.893 244.05 116.653 243.85 117.303 243.45C117.963 243.05 118.568 242.485 119.118 241.755V234.405C118.628 233.745 118.088 233.285 117.498 233.025C116.918 232.755 116.273 232.62 115.563 232.62C114.143 232.62 113.053 233.125 112.293 234.135C111.533 235.145 111.153 236.585 111.153 238.455C111.153 239.445 111.238 240.295 111.408 241.005C111.578 241.705 111.828 242.285 112.158 242.745C112.488 243.195 112.893 243.525 113.373 243.735C113.853 243.945 114.403 244.05 115.022 244.05ZM132.41 230.565C133.52 230.565 134.52 230.75 135.41 231.12C136.31 231.49 137.07 232.015 137.69 232.695C138.32 233.375 138.8 234.2 139.13 235.17C139.47 236.13 139.64 237.205 139.64 238.395C139.64 239.595 139.47 240.675 139.13 241.635C138.8 242.595 138.32 243.415 137.69 244.095C137.07 244.775 136.31 245.3 135.41 245.67C134.52 246.03 133.52 246.21 132.41 246.21C131.3 246.21 130.295 246.03 129.395 245.67C128.505 245.3 127.745 244.775 127.115 244.095C126.485 243.415 126 242.595 125.66 241.635C125.32 240.675 125.15 239.595 125.15 238.395C125.15 237.205 125.32 236.13 125.66 235.17C126 234.2 126.485 233.375 127.115 232.695C127.745 232.015 128.505 231.49 129.395 231.12C130.295 230.75 131.3 230.565 132.41 230.565ZM132.41 244.125C133.91 244.125 135.03 243.625 135.77 242.625C136.51 241.615 136.88 240.21 136.88 238.41C136.88 236.6 136.51 235.19 135.77 234.18C135.03 233.17 133.91 232.665 132.41 232.665C131.65 232.665 130.99 232.795 130.43 233.055C129.87 233.315 129.4 233.69 129.02 234.18C128.65 234.67 128.37 235.275 128.18 235.995C128 236.705 127.91 237.51 127.91 238.41C127.91 239.31 128 240.115 128.18 240.825C128.37 241.535 128.65 242.135 129.02 242.625C129.4 243.105 129.87 243.475 130.43 243.735C130.99 243.995 131.65 244.125 132.41 244.125ZM148.731 251.145V230.805H150.321C150.701 230.805 150.941 230.99 151.041 231.36L151.266 233.16C151.916 232.37 152.656 231.735 153.486 231.255C154.326 230.775 155.291 230.535 156.381 230.535C157.251 230.535 158.041 230.705 158.751 231.045C159.461 231.375 160.066 231.87 160.566 232.53C161.066 233.18 161.451 233.99 161.721 234.96C161.991 235.93 162.126 237.045 162.126 238.305C162.126 239.425 161.976 240.47 161.676 241.44C161.376 242.4 160.946 243.235 160.386 243.945C159.826 244.645 159.136 245.2 158.316 245.61C157.506 246.01 156.591 246.21 155.571 246.21C154.631 246.21 153.826 246.055 153.156 245.745C152.496 245.435 151.911 244.995 151.401 244.425V251.145H148.731ZM155.496 232.695C154.626 232.695 153.861 232.895 153.201 233.295C152.551 233.695 151.951 234.26 151.401 234.99V242.34C151.891 243 152.426 243.465 153.006 243.735C153.596 244.005 154.251 244.14 154.971 244.14C156.381 244.14 157.466 243.635 158.226 242.625C158.986 241.615 159.366 240.175 159.366 238.305C159.366 237.315 159.276 236.465 159.096 235.755C158.926 235.045 158.676 234.465 158.346 234.015C158.016 233.555 157.611 233.22 157.131 233.01C156.651 232.8 156.106 232.695 155.496 232.695ZM171.434 230.565C172.544 230.565 173.544 230.75 174.434 231.12C175.334 231.49 176.094 232.015 176.714 232.695C177.344 233.375 177.824 234.2 178.154 235.17C178.494 236.13 178.664 237.205 178.664 238.395C178.664 239.595 178.494 240.675 178.154 241.635C177.824 242.595 177.344 243.415 176.714 244.095C176.094 244.775 175.334 245.3 174.434 245.67C173.544 246.03 172.544 246.21 171.434 246.21C170.324 246.21 169.319 246.03 168.419 245.67C167.529 245.3 166.769 244.775 166.139 244.095C165.509 243.415 165.024 242.595 164.684 241.635C164.344 240.675 164.174 239.595 164.174 238.395C164.174 237.205 164.344 236.13 164.684 235.17C165.024 234.2 165.509 233.375 166.139 232.695C166.769 232.015 167.529 231.49 168.419 231.12C169.319 230.75 170.324 230.565 171.434 230.565ZM171.434 244.125C172.934 244.125 174.054 243.625 174.794 242.625C175.534 241.615 175.904 240.21 175.904 238.41C175.904 236.6 175.534 235.19 174.794 234.18C174.054 233.17 172.934 232.665 171.434 232.665C170.674 232.665 170.014 232.795 169.454 233.055C168.894 233.315 168.424 233.69 168.044 234.18C167.674 234.67 167.394 235.275 167.204 235.995C167.024 236.705 166.934 237.51 166.934 238.41C166.934 239.31 167.024 240.115 167.204 240.825C167.394 241.535 167.674 242.135 168.044 242.625C168.424 243.105 168.894 243.475 169.454 243.735C170.014 243.995 170.674 244.125 171.434 244.125ZM175.814 224.265L172.319 228.135C172.179 228.285 172.039 228.395 171.899 228.465C171.769 228.525 171.599 228.555 171.389 228.555H169.799L172.019 224.925C172.159 224.695 172.309 224.53 172.469 224.43C172.639 224.32 172.884 224.265 173.204 224.265H175.814ZM190.654 233.31C190.534 233.53 190.349 233.64 190.099 233.64C189.949 233.64 189.779 233.585 189.589 233.475C189.399 233.365 189.164 233.245 188.884 233.115C188.614 232.975 188.289 232.85 187.909 232.74C187.529 232.62 187.079 232.56 186.559 232.56C186.109 232.56 185.704 232.62 185.344 232.74C184.984 232.85 184.674 233.005 184.414 233.205C184.164 233.405 183.969 233.64 183.829 233.91C183.699 234.17 183.634 234.455 183.634 234.765C183.634 235.155 183.744 235.48 183.964 235.74C184.194 236 184.494 236.225 184.864 236.415C185.234 236.605 185.654 236.775 186.124 236.925C186.594 237.065 187.074 237.22 187.564 237.39C188.064 237.55 188.549 237.73 189.019 237.93C189.489 238.13 189.909 238.38 190.279 238.68C190.649 238.98 190.944 239.35 191.164 239.79C191.394 240.22 191.509 240.74 191.509 241.35C191.509 242.05 191.384 242.7 191.134 243.3C190.884 243.89 190.514 244.405 190.024 244.845C189.534 245.275 188.934 245.615 188.224 245.865C187.514 246.115 186.694 246.24 185.764 246.24C184.704 246.24 183.744 246.07 182.884 245.73C182.024 245.38 181.294 244.935 180.694 244.395L181.324 243.375C181.404 243.245 181.499 243.145 181.609 243.075C181.719 243.005 181.864 242.97 182.044 242.97C182.224 242.97 182.414 243.04 182.614 243.18C182.814 243.32 183.054 243.475 183.334 243.645C183.624 243.815 183.969 243.97 184.369 244.11C184.779 244.25 185.289 244.32 185.899 244.32C186.419 244.32 186.874 244.255 187.264 244.125C187.654 243.985 187.979 243.8 188.239 243.57C188.499 243.34 188.689 243.075 188.809 242.775C188.939 242.475 189.004 242.155 189.004 241.815C189.004 241.395 188.889 241.05 188.659 240.78C188.439 240.5 188.144 240.265 187.774 240.075C187.404 239.875 186.979 239.705 186.499 239.565C186.029 239.415 185.544 239.26 185.044 239.1C184.554 238.94 184.069 238.76 183.589 238.56C183.119 238.35 182.699 238.09 182.329 237.78C181.959 237.47 181.659 237.09 181.429 236.64C181.209 236.18 181.099 235.625 181.099 234.975C181.099 234.395 181.219 233.84 181.459 233.31C181.699 232.77 182.049 232.3 182.509 231.9C182.969 231.49 183.534 231.165 184.204 230.925C184.874 230.685 185.639 230.565 186.499 230.565C187.499 230.565 188.394 230.725 189.184 231.045C189.984 231.355 190.674 231.785 191.254 232.335L190.654 233.31ZM194.271 235.875H201.681V238.14H194.271V235.875ZM216.522 246H215.337C215.077 246 214.867 245.96 214.707 245.88C214.547 245.8 214.442 245.63 214.392 245.37L214.092 243.96C213.692 244.32 213.302 244.645 212.922 244.935C212.542 245.215 212.142 245.455 211.722 245.655C211.302 245.845 210.852 245.99 210.372 246.09C209.902 246.19 209.377 246.24 208.797 246.24C208.207 246.24 207.652 246.16 207.132 246C206.622 245.83 206.177 245.58 205.797 245.25C205.417 244.92 205.112 244.505 204.882 244.005C204.662 243.495 204.552 242.895 204.552 242.205C204.552 241.605 204.717 241.03 205.047 240.48C205.377 239.92 205.907 239.425 206.637 238.995C207.377 238.565 208.342 238.215 209.532 237.945C210.722 237.665 212.177 237.505 213.897 237.465V236.28C213.897 235.1 213.642 234.21 213.132 233.61C212.632 233 211.887 232.695 210.897 232.695C210.247 232.695 209.697 232.78 209.247 232.95C208.807 233.11 208.422 233.295 208.092 233.505C207.772 233.705 207.492 233.89 207.252 234.06C207.022 234.22 206.792 234.3 206.562 234.3C206.382 234.3 206.222 234.255 206.082 234.165C205.952 234.065 205.847 233.945 205.767 233.805L205.287 232.95C206.127 232.14 207.032 231.535 208.002 231.135C208.972 230.735 210.047 230.535 211.227 230.535C212.077 230.535 212.832 230.675 213.492 230.955C214.152 231.235 214.707 231.625 215.157 232.125C215.607 232.625 215.947 233.23 216.177 233.94C216.407 234.65 216.522 235.43 216.522 236.28V246ZM209.592 244.365C210.062 244.365 210.492 244.32 210.882 244.23C211.272 244.13 211.637 243.995 211.977 243.825C212.327 243.645 212.657 243.43 212.967 243.18C213.287 242.93 213.597 242.645 213.897 242.325V239.16C212.667 239.2 211.622 239.3 210.762 239.46C209.902 239.61 209.202 239.81 208.662 240.06C208.122 240.31 207.727 240.605 207.477 240.945C207.237 241.285 207.117 241.665 207.117 242.085C207.117 242.485 207.182 242.83 207.312 243.12C207.442 243.41 207.617 243.65 207.837 243.84C208.057 244.02 208.317 244.155 208.617 244.245C208.917 244.325 209.242 244.365 209.592 244.365ZM220.657 246V223.905H223.342V232.995C223.972 232.265 224.692 231.68 225.502 231.24C226.322 230.79 227.257 230.565 228.307 230.565C229.187 230.565 229.982 230.73 230.692 231.06C231.402 231.39 232.007 231.885 232.507 232.545C233.007 233.195 233.392 234.005 233.662 234.975C233.932 235.935 234.067 237.045 234.067 238.305C234.067 239.425 233.917 240.47 233.617 241.44C233.317 242.4 232.882 243.235 232.312 243.945C231.752 244.645 231.062 245.2 230.242 245.61C229.432 246.01 228.517 246.21 227.497 246.21C226.517 246.21 225.682 246.02 224.992 245.64C224.312 245.26 223.717 244.73 223.207 244.05L223.072 245.43C222.992 245.81 222.762 246 222.382 246H220.657ZM227.437 232.695C226.567 232.695 225.802 232.895 225.142 233.295C224.492 233.695 223.892 234.26 223.342 234.99V242.34C223.822 243 224.352 243.465 224.932 243.735C225.522 244.005 226.177 244.14 226.897 244.14C228.317 244.14 229.407 243.635 230.167 242.625C230.927 241.615 231.307 240.175 231.307 238.305C231.307 237.315 231.217 236.465 231.037 235.755C230.867 235.045 230.617 234.465 230.287 234.015C229.957 233.555 229.552 233.22 229.072 233.01C228.592 232.8 228.047 232.695 227.437 232.695ZM243.475 230.565C244.585 230.565 245.585 230.75 246.475 231.12C247.375 231.49 248.135 232.015 248.755 232.695C249.385 233.375 249.865 234.2 250.195 235.17C250.535 236.13 250.705 237.205 250.705 238.395C250.705 239.595 250.535 240.675 250.195 241.635C249.865 242.595 249.385 243.415 248.755 244.095C248.135 244.775 247.375 245.3 246.475 245.67C245.585 246.03 244.585 246.21 243.475 246.21C242.365 246.21 241.36 246.03 240.46 245.67C239.57 245.3 238.81 244.775 238.18 244.095C237.55 243.415 237.065 242.595 236.725 241.635C236.385 240.675 236.215 239.595 236.215 238.395C236.215 237.205 236.385 236.13 236.725 235.17C237.065 234.2 237.55 233.375 238.18 232.695C238.81 232.015 239.57 231.49 240.46 231.12C241.36 230.75 242.365 230.565 243.475 230.565ZM243.475 244.125C244.975 244.125 246.095 243.625 246.835 242.625C247.575 241.615 247.945 240.21 247.945 238.41C247.945 236.6 247.575 235.19 246.835 234.18C246.095 233.17 244.975 232.665 243.475 232.665C242.715 232.665 242.055 232.795 241.495 233.055C240.935 233.315 240.465 233.69 240.085 234.18C239.715 234.67 239.435 235.275 239.245 235.995C239.065 236.705 238.975 237.51 238.975 238.41C238.975 239.31 239.065 240.115 239.245 240.825C239.435 241.535 239.715 242.135 240.085 242.625C240.465 243.105 240.935 243.475 241.495 243.735C242.055 243.995 242.715 244.125 243.475 244.125ZM253.995 246V230.805H255.525C255.815 230.805 256.015 230.86 256.125 230.97C256.235 231.08 256.31 231.27 256.35 231.54L256.53 233.91C257.05 232.85 257.69 232.025 258.45 231.435C259.22 230.835 260.12 230.535 261.15 230.535C261.57 230.535 261.95 230.585 262.29 230.685C262.63 230.775 262.945 230.905 263.235 231.075L262.89 233.07C262.82 233.32 262.665 233.445 262.425 233.445C262.285 233.445 262.07 233.4 261.78 233.31C261.49 233.21 261.085 233.16 260.565 233.16C259.635 233.16 258.855 233.43 258.225 233.97C257.605 234.51 257.085 235.295 256.665 236.325V246H253.995ZM270.699 246.24C269.499 246.24 268.574 245.905 267.924 245.235C267.284 244.565 266.964 243.6 266.964 242.34V233.04H265.134C264.974 233.04 264.839 232.995 264.729 232.905C264.619 232.805 264.564 232.655 264.564 232.455V231.39L267.054 231.075L267.669 226.38C267.689 226.23 267.754 226.11 267.864 226.02C267.974 225.92 268.114 225.87 268.284 225.87H269.634V231.105H273.984V233.04H269.634V242.16C269.634 242.8 269.789 243.275 270.099 243.585C270.409 243.895 270.809 244.05 271.299 244.05C271.579 244.05 271.819 244.015 272.019 243.945C272.229 243.865 272.409 243.78 272.559 243.69C272.709 243.6 272.834 243.52 272.934 243.45C273.044 243.37 273.139 243.33 273.219 243.33C273.359 243.33 273.484 243.415 273.594 243.585L274.374 244.86C273.914 245.29 273.359 245.63 272.709 245.88C272.059 246.12 271.389 246.24 270.699 246.24ZM283.436 230.565C284.546 230.565 285.546 230.75 286.436 231.12C287.336 231.49 288.096 232.015 288.716 232.695C289.346 233.375 289.826 234.2 290.156 235.17C290.496 236.13 290.666 237.205 290.666 238.395C290.666 239.595 290.496 240.675 290.156 241.635C289.826 242.595 289.346 243.415 288.716 244.095C288.096 244.775 287.336 245.3 286.436 245.67C285.546 246.03 284.546 246.21 283.436 246.21C282.326 246.21 281.321 246.03 280.421 245.67C279.531 245.3 278.771 244.775 278.141 244.095C277.511 243.415 277.026 242.595 276.686 241.635C276.346 240.675 276.176 239.595 276.176 238.395C276.176 237.205 276.346 236.13 276.686 235.17C277.026 234.2 277.511 233.375 278.141 232.695C278.771 232.015 279.531 231.49 280.421 231.12C281.321 230.75 282.326 230.565 283.436 230.565ZM283.436 244.125C284.936 244.125 286.056 243.625 286.796 242.625C287.536 241.615 287.906 240.21 287.906 238.41C287.906 236.6 287.536 235.19 286.796 234.18C286.056 233.17 284.936 232.665 283.436 232.665C282.676 232.665 282.016 232.795 281.456 233.055C280.896 233.315 280.426 233.69 280.046 234.18C279.676 234.67 279.396 235.275 279.206 235.995C279.026 236.705 278.936 237.51 278.936 238.41C278.936 239.31 279.026 240.115 279.206 240.825C279.396 241.535 279.676 242.135 280.046 242.625C280.426 243.105 280.896 243.475 281.456 243.735C282.016 243.995 282.676 244.125 283.436 244.125Z" fill="#882F87"/>
<path d="M51.796 96.72C51.052 96.72 50.512 96.432 50.176 95.856C49.864 95.256 49.672 94.44 49.6 93.408C49.528 92.376 49.492 91.2 49.492 89.88H42.652L39.808 96H35.812L47.656 72.24H52.264C52.456 77.112 52.6 81.192 52.696 84.48C52.792 87.744 52.924 90.264 53.092 92.04C53.284 93.792 53.596 94.848 54.028 95.208C53.908 95.64 53.632 96 53.2 96.288C52.768 96.576 52.3 96.72 51.796 96.72ZM43.84 87.396H49.492L49.204 74.724L43.84 87.396ZM62.8477 96.72C61.6477 96.72 60.6997 96.48 60.0037 96C59.3317 95.52 58.8517 94.884 58.5637 94.092C58.2997 93.276 58.1677 92.4 58.1677 91.464C58.1677 90.72 58.2637 89.784 58.4557 88.656C58.6477 87.528 58.9357 86.076 59.3197 84.3C59.7037 82.524 60.1957 80.304 60.7957 77.64L63.9277 77.28C63.3997 79.68 62.9677 81.66 62.6317 83.22C62.3197 84.756 62.0677 86.016 61.8757 87C61.7077 87.96 61.5877 88.752 61.5157 89.376C61.4677 89.976 61.4437 90.54 61.4437 91.068C61.4437 91.644 61.5157 92.208 61.6597 92.76C61.8277 93.288 62.1037 93.732 62.4877 94.092C62.8957 94.428 63.4357 94.596 64.1077 94.596C65.0197 94.596 65.7757 94.296 66.3757 93.696C66.9997 93.072 67.4917 92.292 67.8517 91.356C68.2357 90.42 68.5117 89.472 68.6797 88.512L70.8397 77.64L74.1157 77.28L71.1277 92.652C71.1037 92.868 71.0677 93.12 71.0197 93.408C70.9717 93.696 70.9477 93.948 70.9477 94.164C70.9477 94.5 71.0197 94.764 71.1637 94.956C71.3317 95.124 71.5717 95.22 71.8837 95.244C71.8117 95.58 71.6677 95.856 71.4517 96.072C71.2357 96.288 70.9837 96.444 70.6957 96.54C70.4077 96.66 70.0837 96.72 69.7237 96.72C69.0757 96.72 68.5597 96.54 68.1757 96.18C67.8157 95.844 67.5997 95.34 67.5277 94.668C67.0717 95.412 66.3877 95.94 65.4757 96.252C64.5877 96.564 63.7117 96.72 62.8477 96.72ZM78.3837 96.72C77.7117 96.72 77.1957 96.528 76.8357 96.144C76.4757 95.76 76.2957 95.244 76.2957 94.596C76.2957 94.404 76.3077 94.2 76.3317 93.984C76.3557 93.744 76.3917 93.42 76.4397 93.012C76.5117 92.604 76.6197 92.04 76.7637 91.32C76.9077 90.6 77.0877 89.676 77.3037 88.548C77.5437 87.396 77.8317 85.98 78.1677 84.3C78.5277 82.596 78.9477 80.568 79.4277 78.216C79.6677 76.872 79.8717 75.492 80.0397 74.076C80.2317 72.66 80.3277 71.472 80.3277 70.512C80.3277 70.248 80.3157 70.02 80.2917 69.828C80.2917 69.612 80.2677 69.42 80.2197 69.252C80.3637 69.132 80.5557 69.036 80.7957 68.964C81.0597 68.892 81.3357 68.856 81.6237 68.856C82.1757 68.856 82.7037 69.036 83.2077 69.396C83.7117 69.732 83.9637 70.356 83.9637 71.268C83.9637 71.436 83.9037 71.82 83.7837 72.42C83.6877 72.996 83.5557 73.68 83.3877 74.472C83.2437 75.264 83.0877 76.068 82.9197 76.884C82.7757 77.676 82.6437 78.372 82.5237 78.972C81.9237 81.876 81.4317 84.24 81.0477 86.064C80.6877 87.888 80.3997 89.328 80.1837 90.384C79.9917 91.416 79.8477 92.184 79.7517 92.688C79.6797 93.168 79.6317 93.504 79.6077 93.696C79.5837 93.864 79.5717 94.02 79.5717 94.164C79.5717 94.5 79.6437 94.764 79.7877 94.956C79.9557 95.124 80.1957 95.22 80.5077 95.244C80.4357 95.58 80.2917 95.856 80.0757 96.072C79.8597 96.288 79.6077 96.444 79.3197 96.54C79.0317 96.66 78.7197 96.72 78.3837 96.72ZM89.6343 96.72C88.4583 96.72 87.4983 96.432 86.7543 95.856C86.0343 95.256 85.5063 94.452 85.1703 93.444C84.8343 92.436 84.6663 91.284 84.6663 89.988C84.6663 88.212 84.8943 86.544 85.3503 84.984C85.8303 83.4 86.5023 82.008 87.3663 80.808C88.2303 79.584 89.2503 78.636 90.4263 77.964C91.6023 77.268 92.8863 76.92 94.2783 76.92C95.4303 76.92 96.6663 77.172 97.9863 77.676L101.118 77.28L98.1663 92.652C98.1423 92.868 98.1063 93.12 98.0583 93.408C98.0103 93.696 97.9863 93.948 97.9863 94.164C97.9863 94.5 98.0583 94.764 98.2023 94.956C98.3703 95.124 98.6103 95.22 98.9223 95.244C98.8263 95.58 98.6703 95.856 98.4543 96.072C98.2383 96.288 97.9863 96.444 97.6983 96.54C97.4103 96.66 97.0863 96.72 96.7263 96.72C96.1023 96.72 95.5863 96.54 95.1783 96.18C94.7943 95.844 94.5903 95.34 94.5663 94.668C93.9423 95.268 93.2103 95.76 92.3703 96.144C91.5303 96.528 90.6183 96.72 89.6343 96.72ZM91.0743 94.596C92.0343 94.596 92.8143 94.284 93.4143 93.66C94.0383 93.012 94.5303 92.22 94.8903 91.284C95.2503 90.324 95.5143 89.4 95.6823 88.512L97.2303 80.304C96.7263 79.896 96.1863 79.596 95.6103 79.404C95.0343 79.188 94.5063 79.08 94.0263 79.08C93.2823 79.08 92.5983 79.272 91.9743 79.656C91.3743 80.04 90.8343 80.58 90.3543 81.276C89.8983 81.972 89.5023 82.8 89.1663 83.76C88.8543 84.696 88.6143 85.728 88.4463 86.856C88.3023 87.96 88.2303 89.112 88.2303 90.312C88.2303 91.512 88.4223 92.532 88.8063 93.372C89.2143 94.188 89.9703 94.596 91.0743 94.596ZM115.375 96.72C113.935 96.72 112.735 96.42 111.775 95.82C110.815 95.22 110.095 94.308 109.615 93.084C109.159 91.86 108.931 90.324 108.931 88.476C108.931 86.964 109.087 85.416 109.399 83.832C109.711 82.224 110.179 80.688 110.803 79.224C111.427 77.76 112.195 76.452 113.107 75.3C114.019 74.124 115.075 73.2 116.275 72.528C117.499 71.832 118.843 71.484 120.307 71.484C120.955 71.484 121.603 71.568 122.251 71.736C122.923 71.904 123.487 72.204 123.943 72.636C124.399 73.044 124.627 73.644 124.627 74.436C124.627 74.748 124.579 75.036 124.483 75.3C124.387 75.564 124.255 75.768 124.087 75.912C123.559 75.432 122.971 75.072 122.323 74.832C121.675 74.592 120.979 74.472 120.235 74.472C118.795 74.472 117.583 74.88 116.599 75.696C115.639 76.488 114.859 77.508 114.259 78.756C113.683 79.98 113.251 81.264 112.963 82.608L113.107 82.644C113.683 81.732 114.439 81.036 115.375 80.556C116.311 80.076 117.319 79.836 118.399 79.836C119.623 79.836 120.667 80.1 121.531 80.628C122.395 81.132 123.055 81.876 123.511 82.86C123.967 83.844 124.195 85.068 124.195 86.532C124.195 88.38 123.859 90.084 123.187 91.644C122.515 93.18 121.519 94.416 120.199 95.352C118.903 96.264 117.295 96.72 115.375 96.72ZM115.627 94.272C116.587 94.272 117.391 94.032 118.039 93.552C118.687 93.048 119.203 92.4 119.587 91.608C119.995 90.792 120.283 89.928 120.451 89.016C120.643 88.08 120.739 87.192 120.739 86.352C120.739 85.728 120.655 85.116 120.487 84.516C120.343 83.892 120.043 83.376 119.587 82.968C119.155 82.56 118.483 82.356 117.571 82.356C116.635 82.356 115.831 82.584 115.159 83.04C114.511 83.496 113.983 84.108 113.575 84.876C113.167 85.62 112.867 86.448 112.675 87.36C112.507 88.248 112.423 89.136 112.423 90.024C112.423 90.72 112.495 91.404 112.639 92.076C112.807 92.724 113.119 93.252 113.575 93.66C114.031 94.068 114.715 94.272 115.627 94.272Z" fill="#882F87"/>
<path fill-rule="evenodd" clip-rule="evenodd" d="M182.749 47.9834C183.845 49.2264 185.74 49.3461 186.983 48.2506C188.226 47.1551 188.346 45.2594 187.251 44.0164L172.145 26.8764C172.416 26.9568 172.703 26.9999 173 26.9999L225 26.9999C226.657 26.9999 228 25.6568 228 23.9999C228 22.3431 226.657 20.9999 225 20.9999L173 20.9999C172.678 20.9999 172.369 21.0505 172.078 21.1442L187.187 5.05343C188.321 3.84558 188.261 1.94703 187.053 0.812887C185.846 -0.321253 183.947 -0.2615 182.813 0.946348L166.057 18.7909C163.362 21.6094 163.329 25.9479 165.876 28.8378L182.749 47.9834ZM170.014 23.7106C170.003 23.7881 169.998 23.8666 170 23.9454C170.002 23.8663 170.006 23.788 170.014 23.7106Z" fill="#AB74AE"/>
<path d="M338.395 105.114L332.609 108.008L325.885 115.607L329.872 118.717L335.033 115.607L341.758 108.008L338.395 105.114Z" fill="#CDACCE"/>
<path d="M342.337 97.7958L326.357 102.221L327.871 105.13C328.79 106.898 330.617 108.007 332.61 108.007H352.063C354.056 108.007 355.883 106.898 356.802 105.13L358.316 102.221L342.337 97.7958Z" fill="#DDBDDF"/>
<path d="M348.254 92.1057L343.543 89.7503L348.659 79.5177C348.824 79.1894 349.054 78.8991 349.337 78.6653L357.463 71.9509L360.818 76.011L353.121 82.3709L348.254 92.1057Z" fill="#DDBDDF"/>
<path d="M321.771 55.8401L319.136 48.5174C318.296 46.1839 315.723 44.973 313.39 45.8128L311.7 46.4209L317.377 62.1942L319.066 61.5863C321.4 60.7463 322.611 58.1737 321.771 55.8401Z" fill="#882F87"/>
<path d="M329.173 76.4109L326.207 68.1684C325.367 65.8349 322.795 64.624 320.461 65.4638L318.771 66.0719L324.779 82.765L326.469 82.1571C328.802 81.317 330.013 78.7445 329.173 76.4109Z" fill="#882F87"/>
<path d="M358.315 86.9479H327.369L312.659 46.0756C312.121 44.5811 310.474 43.8055 308.979 44.3435L303.064 46.4722C301.57 47.01 300.794 48.6578 301.332 50.1523L317.942 96.306C319.219 99.8548 322.585 102.221 326.357 102.221H358.315C360.434 102.221 362.151 100.504 362.151 98.3855V90.7833C362.151 88.665 360.433 86.9479 358.315 86.9479Z" fill="#AB74AE"/>
<path d="M360.818 76.0109L357.463 71.9509L350.291 77.8774C350.694 78.1282 351.092 78.3846 351.481 78.6508C352.413 79.2897 353.52 80.1267 354.616 81.1356L360.818 76.0109Z" fill="#CDACCE"/>
<path d="M369.054 78.3587C364.758 71.3785 357.838 67.0692 354.038 65.0983C352.616 64.3612 350.869 65.0196 350.277 66.5075L349.217 69.1748C348.706 70.459 349.241 71.9252 350.463 72.5704C351.474 73.1038 352.755 73.8416 354.131 74.7844C356.548 76.4409 359.662 79.0196 361.84 82.4326C362.576 83.5874 364.047 84.0283 365.287 83.4468L367.89 82.2263C369.352 81.5407 369.901 79.7335 369.054 78.3587Z" fill="#AB74AE"/>
<path d="M360.712 118.855C359.751 116.869 357.739 115.607 355.532 115.607H317.788C315.581 115.607 313.569 116.869 312.608 118.855C311.942 120.23 312.944 121.828 314.472 121.828H358.848C360.376 121.828 361.378 120.23 360.712 118.855Z" fill="#AB74AE"/>
<path d="M354.58 64.0585C352.582 63.0223 350.032 63.9603 349.192 66.0751L348.131 68.7422C347.397 70.5897 348.166 72.681 349.92 73.607C350.661 73.9982 351.39 74.4204 352.104 74.8633L348.595 77.7627C348.184 78.1025 347.854 78.5169 347.615 78.9942L344.224 85.7766H328.196L327.236 83.1115C329.932 81.9246 331.292 78.827 330.28 76.0144L327.314 67.7719C326.507 65.5312 324.366 64.0257 321.985 64.0257C321.464 64.0257 320.948 64.099 320.445 64.2415L319.833 62.5407C322.529 61.3539 323.889 58.2563 322.877 55.4438L320.242 48.1212C319.435 45.8804 317.294 44.3748 314.913 44.3748C314.335 44.3748 313.763 44.4639 313.209 44.6389C312.816 44.107 312.296 43.6772 311.68 43.3876C310.702 42.927 309.603 42.8752 308.586 43.2414C308.586 43.2414 302.675 45.3685 302.671 45.37C300.598 46.1157 299.486 48.4755 300.233 50.5494L305.82 66.0748C306.039 66.6836 306.71 66.9997 307.319 66.7805C307.928 66.5615 308.244 65.8901 308.025 65.281C308.025 65.281 302.441 49.7649 302.438 49.7558C302.123 48.88 302.591 47.8894 303.464 47.5752C303.464 47.5752 309.369 45.4501 309.379 45.4465C310.254 45.1317 311.246 45.6012 311.56 46.4729L326.269 87.3452C326.437 87.8103 326.878 88.1201 327.372 88.1201H358.319C359.787 88.1201 360.982 89.315 360.982 90.7835V98.3857C360.982 99.8543 359.787 101.049 358.319 101.049H345.396C344.749 101.049 344.224 101.574 344.224 102.221C344.224 102.868 344.749 103.393 345.396 103.393H356.389L355.766 104.59C355.045 105.975 353.628 106.836 352.066 106.836H341.761H332.613C331.052 106.836 329.634 105.975 328.914 104.59L328.291 103.393H346.575C347.222 103.393 347.746 102.868 347.746 102.221C347.746 101.574 347.222 101.049 346.575 101.049H326.361C323.093 101.049 320.155 98.9836 319.048 95.9092L307.74 64.4874C307.521 63.8784 306.849 63.5625 306.24 63.7815C305.631 64.0007 305.315 64.672 305.534 65.281L316.843 96.7033C318.201 100.476 321.678 103.08 325.635 103.366L326.834 105.672C327.598 107.142 328.866 108.232 330.364 108.781L325.361 114.435H317.791C315.153 114.435 312.706 115.97 311.557 118.345C310.531 120.465 312.13 123 314.475 123C314.475 123 358.812 123 358.852 123C361.204 123 362.796 120.463 361.771 118.345C360.622 115.97 358.174 114.435 355.536 114.435H337.639L342.289 109.18H352.066C354.505 109.18 356.72 107.836 357.845 105.672L359.059 103.338C361.47 102.979 363.326 100.896 363.326 98.3861V90.7839C363.326 88.023 361.08 85.7767 358.319 85.7767H352.733L354.063 83.1173L358.187 79.7095C359.146 80.7082 360.067 81.829 360.855 83.0632C361.893 84.6902 364.037 85.3291 365.788 84.508L368.391 83.2876C370.453 82.3207 371.253 79.6897 370.056 77.7449C365.602 70.5103 358.449 66.0646 354.58 64.0585ZM321.985 66.3696C323.381 66.3696 324.636 67.2521 325.108 68.5658L328.075 76.8082C328.649 78.4041 327.921 80.1573 326.44 80.8987L321.242 66.4547C321.486 66.3982 321.735 66.3696 321.985 66.3696ZM314.913 46.7187C316.308 46.7187 317.563 47.6012 318.036 48.9149L320.671 56.2376C321.246 57.8335 320.518 59.5869 319.037 60.3281L314.17 46.8038C314.414 46.7473 314.663 46.7187 314.913 46.7187ZM359.661 119.367C359.948 119.959 359.504 120.656 358.852 120.656C358.852 120.656 314.59 120.656 314.476 120.656C313.822 120.656 313.382 119.953 313.666 119.366C314.427 117.795 316.046 116.779 317.791 116.779H355.536C357.282 116.779 358.901 117.795 359.661 119.367ZM334.509 114.436H328.49L333.141 109.18H339.16L334.509 114.436ZM352.379 81.4682C352.253 81.5723 352.15 81.7015 352.077 81.8474L350.112 85.7767H346.844L349.711 80.0425C349.803 79.859 349.93 79.7 350.088 79.5694L354.139 76.2219C354.948 76.803 355.728 77.4255 356.477 78.0816L352.379 81.4682ZM368.214 80.2065C368.092 80.6142 367.806 80.9731 367.395 81.1656C367.395 81.1656 364.795 82.3848 364.793 82.386C364.09 82.7154 363.245 82.4518 362.83 81.8026C361.743 80.0989 360.436 78.6019 359.109 77.3208C357.759 76.0174 356.317 74.806 354.742 73.7813L354.737 73.7785C353.546 72.9656 352.294 72.2103 351.014 71.5345C350.321 71.1687 350.018 70.3406 350.309 69.6081C350.309 69.6081 351.367 66.9465 351.369 66.9408C351.699 66.1104 352.707 65.7271 353.501 66.139C357.154 68.0335 363.903 72.2198 368.059 78.9733C368.295 79.3569 368.334 79.8053 368.214 80.2065Z" fill="#882F87"/>
</svg>
