<svg width="163" height="228" viewBox="0 0 163 228" fill="none" xmlns="http://www.w3.org/2000/svg">
<line x1="161" y1="2" x2="161" y2="226" stroke="#FAFAC8" stroke-width="4" stroke-linecap="round"/>
<path d="M11 92C11 64.3858 33.3858 42 61 42H159V174H61C33.3858 174 11 151.614 11 124V92Z" fill="#FAFAC8"/>
<path d="M2 88C2 55.9675 27.9675 30 60 30H160V185H60C27.9675 185 2 159.033 2 127V88Z" stroke="#FAFAC8" stroke-width="4"/>
<path d="M113.455 109.787C113.455 109.787 91.9223 104.108 84.5932 81.8826C78.3602 62.985 91.4592 52.2925 99.3576 52.3053C107.919 52.3222 113.672 56.2529 115.418 60.4169C115.915 61.597 117.27 61.597 117.53 60.349C118.473 55.7902 124.315 51.8171 129.991 50.9767C139.785 49.5335 152.497 58.354 148.907 77.4341C145.737 94.2814 133.004 105.984 119.089 116.341C119.089 116.341 119 116.396 118.558 115.569C117.1 112.856 116.242 111.787 113.455 109.787Z" fill="#DDBDDF"/>
<path d="M39.242 148.274L39.4587 148.083L39.6923 147.913L40.1555 147.57L41.0859 146.886C41.4088 146.674 41.7487 146.491 42.0801 146.292C42.4158 146.105 42.7387 145.889 43.0871 145.723L44.145 145.252C44.4977 145.095 44.8461 144.925 45.22 144.823L46.3204 144.467C46.5031 144.411 46.6858 144.339 46.8727 144.297L47.4378 144.174C50.4417 143.469 53.5178 143.342 56.5557 143.35C59.5978 143.376 62.6271 143.567 65.6522 143.754C68.6689 143.962 71.7025 144.161 74.7233 144.526C77.74 144.878 80.7438 145.341 83.7307 145.855C86.7176 146.364 89.696 146.933 92.6658 147.396C94.1486 147.608 95.6442 147.82 97.0888 147.807L97.6241 147.795L98.1297 147.722C98.2912 147.705 98.4739 147.667 98.6608 147.625L99.2132 147.502L101.431 147.005C104.384 146.343 107.35 145.723 110.277 145.014C113.196 144.297 116.081 143.465 118.668 142.056C121.264 140.668 123.533 138.719 125.632 136.593C127.727 134.453 129.719 132.195 131.657 129.882C133.607 127.581 135.502 125.251 137.189 122.784C138.03 121.553 138.824 120.293 139.491 118.99C139.836 118.34 140.112 117.674 140.354 117.007C140.583 116.341 140.736 115.657 140.732 115.042C140.715 114.418 140.515 113.972 140.107 113.718C139.895 113.59 139.623 113.501 139.326 113.45C139.02 113.416 138.697 113.395 138.361 113.425C137.694 113.467 137.002 113.637 136.335 113.858C136.156 113.913 136.016 113.972 135.88 114.032C135.74 114.091 135.595 114.18 135.455 114.257C135.17 114.435 134.89 114.63 134.614 114.855C133.513 115.747 132.511 116.859 131.538 117.984C130.565 119.117 129.626 120.293 128.678 121.473C127.731 122.653 126.783 123.841 125.785 125.004C124.778 126.163 123.75 127.314 122.501 128.337C122.033 128.719 121.485 129.079 121.001 129.36C120.508 129.665 119.994 129.941 119.484 130.225C118.452 130.769 117.389 131.261 116.297 131.681C113.383 132.815 110.298 133.379 107.273 133.732C105.769 133.906 104.227 134.088 102.655 134.088C101.087 134.092 99.5021 133.901 97.9895 133.566C96.4727 133.235 95.0069 132.802 93.5538 132.382C92.1008 131.957 90.6519 131.537 89.1989 131.138C87.7415 130.735 86.2969 130.361 84.8184 129.984C84.0621 129.784 83.3101 129.551 82.575 129.253C81.84 128.948 81.1092 128.608 80.4124 128.078C80.0725 127.797 79.7071 127.496 79.465 126.936C79.3417 126.66 79.2992 126.291 79.3715 125.951C79.4225 125.794 79.4734 125.616 79.5627 125.497L79.6901 125.302L79.8303 125.149C80.2085 124.754 80.6079 124.554 80.9987 124.368C81.3854 124.202 81.7763 124.062 82.1587 123.956C83.701 123.523 85.2348 123.34 86.7558 123.188C89.7809 122.903 92.7848 122.649 95.7759 122.292C98.7628 121.931 101.754 121.515 104.643 120.798C105.361 120.611 106.071 120.412 106.755 120.161C107.43 119.911 108.097 119.618 108.62 119.232C108.879 119.045 109.075 118.82 109.168 118.624C109.249 118.433 109.244 118.264 109.143 118.026C108.845 117.402 108.463 116.791 108.004 116.286C107.086 115.263 105.799 114.664 104.384 114.443C102.969 114.21 101.478 114.248 99.9822 114.325C98.4866 114.409 96.9783 114.545 95.4573 114.643C94.6967 114.69 93.9362 114.736 93.1757 114.762L92.0285 114.796L91.421 114.779L90.8389 114.732C89.3008 114.579 87.8138 114.35 86.3139 114.151C84.8184 113.943 83.3228 113.747 81.823 113.582C78.8319 113.255 75.8238 113.021 72.8581 113.234C69.8628 113.48 66.8716 113.849 63.991 114.634C62.5506 115.025 61.1443 115.517 59.7847 116.129C58.4209 116.736 57.108 117.449 55.8121 118.213C50.6456 121.324 45.6066 124.673 40.8013 128.324C39.123 129.597 37.2323 131.142 35.7452 132.352C34.2539 133.558 33.1747 134.432 33.0175 134.266C32.8561 134.097 33.8248 133.074 35.2821 131.805C36.731 130.531 38.6641 129.011 40.3509 127.734C45.1605 124.037 50.1953 120.641 55.3787 117.478C56.6831 116.697 58.0257 115.955 59.4278 115.322C60.8257 114.685 62.2787 114.167 63.7573 113.756C66.7187 112.932 69.7608 112.542 72.7902 112.27C75.8663 112.028 78.9254 112.253 81.9462 112.563C84.9671 112.864 87.9837 113.357 90.9493 113.658L91.4974 113.701L92.0243 113.713L93.1459 113.675C93.8937 113.645 94.6458 113.594 95.3978 113.544C96.9018 113.437 98.4059 113.293 99.9312 113.2C101.457 113.115 103.007 113.055 104.588 113.302C105.374 113.429 106.168 113.641 106.916 114.01C107.66 114.371 108.344 114.881 108.905 115.492C109.465 116.107 109.899 116.791 110.256 117.525C110.362 117.754 110.438 118.017 110.455 118.298C110.464 118.582 110.404 118.871 110.298 119.121C110.069 119.614 109.72 119.953 109.376 120.212C108.675 120.73 107.94 121.048 107.205 121.324C106.466 121.6 105.722 121.817 104.979 122.016C101.992 122.776 98.9752 123.209 95.9586 123.595C92.942 123.973 89.9169 124.249 86.9173 124.55C85.4302 124.707 83.9474 124.898 82.575 125.297C82.2309 125.395 81.908 125.514 81.6021 125.645C81.3089 125.781 81.0327 125.951 80.8883 126.108C80.7991 126.184 80.7991 126.244 80.7778 126.274C80.7863 126.303 80.7693 126.325 80.8033 126.397C80.8543 126.541 81.071 126.77 81.3174 126.957C81.8273 127.343 82.4816 127.657 83.1401 127.921C83.8072 128.184 84.5082 128.396 85.2135 128.578C86.6708 128.944 88.1579 129.313 89.6195 129.712C91.0853 130.107 92.5469 130.523 94 130.934C95.453 131.346 96.9018 131.758 98.3422 132.063C99.7825 132.369 101.223 132.535 102.684 132.522C104.137 132.518 105.612 132.335 107.112 132.148C110.086 131.783 113.005 131.223 115.737 130.141C116.761 129.737 117.763 129.27 118.74 128.757C119.225 128.485 119.713 128.226 120.185 127.933C120.682 127.645 121.086 127.381 121.502 127.046C122.603 126.159 123.61 125.051 124.595 123.935C125.572 122.806 126.524 121.638 127.476 120.462C128.428 119.287 129.384 118.107 130.391 116.948C131.402 115.797 132.434 114.647 133.696 113.641C134.01 113.391 134.35 113.153 134.712 112.932C134.903 112.83 135.085 112.72 135.294 112.631C135.506 112.542 135.714 112.457 135.897 112.402C136.666 112.155 137.456 111.96 138.302 111.909C138.722 111.875 139.16 111.897 139.602 111.956C140.048 112.037 140.511 112.177 140.944 112.444C141.382 112.707 141.743 113.14 141.956 113.603C142.185 114.07 142.232 114.55 142.253 115.004C142.253 115.904 142.045 116.71 141.781 117.47C141.505 118.221 141.191 118.951 140.825 119.639C140.107 121.027 139.275 122.322 138.404 123.582C136.657 126.1 134.716 128.455 132.74 130.76C130.781 133.069 128.755 135.345 126.601 137.514C124.447 139.67 122.063 141.703 119.301 143.159C118.63 143.554 117.903 143.83 117.198 144.153C116.489 144.458 115.749 144.687 115.027 144.959L112.822 145.613L110.604 146.177C107.643 146.873 104.677 147.476 101.72 148.121L99.5063 148.605L98.954 148.724C98.7713 148.767 98.5844 148.805 98.3719 148.83L97.7516 148.915L97.1525 148.928C95.5635 148.932 94.0552 148.699 92.5469 148.474C89.543 147.986 86.5774 147.396 83.599 146.873C80.6249 146.347 77.6465 145.867 74.6511 145.498C71.66 145.12 68.6561 144.9 65.6352 144.675C62.6186 144.471 59.6063 144.259 56.5939 144.216C53.59 144.191 50.5692 144.301 47.6673 144.959L47.1234 145.074C46.9407 145.112 46.7665 145.18 46.5923 145.231L45.5301 145.566C45.169 145.664 44.8376 145.821 44.4977 145.969L43.478 146.415C43.1423 146.572 42.8322 146.776 42.5093 146.954C42.1906 147.145 41.8635 147.315 41.5533 147.519L40.6526 148.172L40.2022 148.499L39.977 148.665L39.7688 148.852C39.3822 149.2 38.9785 149.556 38.5707 149.921C38.1585 150.282 37.8016 150.715 37.4108 151.105C36.6247 151.882 35.9704 152.748 35.3331 153.461C34.1265 154.939 33.2427 156.021 33.0473 155.881C32.8688 155.754 33.6039 154.556 34.7723 153.011C35.3883 152.264 36.0512 151.381 36.8584 150.583C37.2578 150.184 37.6274 149.747 38.0523 149.374C38.422 149 38.8383 148.631 39.242 148.274Z" fill="#882F87"/>
<path d="M107.532 107.015C103.904 105.453 100.471 103.428 97.3649 100.974C95.8141 99.7478 94.3483 98.4064 92.9844 96.9717C91.6206 95.5328 90.3799 93.9834 89.2413 92.3577C88.0941 90.7405 87.1041 89.0129 86.2246 87.2386C85.3239 85.4685 84.6186 83.6136 83.9813 81.7332C82.7534 77.9554 82.1713 73.9229 82.5452 69.9243C82.9021 65.9343 84.3042 61.9782 86.7812 58.765C87.9879 57.1307 89.5387 55.7385 91.2509 54.6476C92.9674 53.5524 94.8624 52.7544 96.8295 52.2493C100.755 51.2476 105.03 51.4131 108.832 52.9921C109.784 53.3784 110.693 53.8708 111.551 54.4396C112.418 54.9999 113.213 55.6663 113.944 56.4006C114.683 57.1138 115.324 57.9627 115.894 58.7819L116.31 59.3847L116.501 59.6606L116.506 59.6648C116.51 59.6733 116.518 59.6648 116.518 59.6564L116.675 59.4271L116.998 58.9645C117.219 58.6588 117.423 58.3617 117.661 58.0603L118.366 57.1605L119.123 56.303C121.842 53.302 125.509 51.0056 129.6 50.301C131.635 49.9402 133.743 50.0421 135.74 50.5047C137.737 50.9674 139.644 51.7654 141.365 52.886C143.086 53.9981 144.586 55.4456 145.792 57.084C147.003 58.7268 147.921 60.5562 148.596 62.4579C149.926 66.2739 150.283 70.3488 149.935 74.3261C149.115 82.2935 145.788 89.7939 141.106 96.1482C136.415 102.537 130.522 107.889 124.366 112.758C122.22 114.464 119.365 116.705 119.093 116.34C118.817 115.971 121.765 113.878 123.903 112.181C129.987 107.274 135.769 101.908 140.32 95.5837C142.589 92.4256 144.522 89.0341 145.966 85.4388L146.485 84.0805L146.744 83.4013C146.825 83.1721 146.884 82.9387 146.956 82.7094L147.377 81.3214C147.513 80.8587 147.674 80.4003 147.764 79.9249C147.968 78.9783 148.197 78.0402 148.38 77.0937C148.554 76.1471 148.66 75.192 148.741 74.2327C149.038 70.404 148.652 66.4946 147.36 62.9078C146.71 61.1208 145.83 59.4186 144.696 57.9118C143.562 56.4091 142.177 55.0975 140.592 54.0958C139.015 53.0855 137.239 52.3682 135.412 51.9649C133.59 51.5617 131.695 51.4853 129.864 51.8333C126.188 52.4997 122.849 54.6094 120.346 57.4279L119.65 58.2301L118.995 59.0706C118.774 59.3465 118.562 59.6521 118.349 59.945L118.035 60.3864L117.878 60.6114C117.776 60.7642 117.674 60.917 117.576 61.0741C117.525 61.1505 117.478 61.2354 117.432 61.316C117.3 61.5283 117.134 61.6599 116.994 61.7278C116.922 61.7617 116.867 61.7872 116.79 61.8042C116.714 61.8254 116.612 61.8381 116.514 61.8339C116.302 61.8254 116.2 61.783 116.042 61.7023C115.889 61.6217 115.728 61.4604 115.601 61.2481L114.555 59.7073C114.419 59.4993 114.283 59.3125 114.147 59.1258C114.007 58.9432 113.884 58.7437 113.731 58.5697C113.438 58.2131 113.141 57.8566 112.809 57.534C112.163 56.8718 111.454 56.2691 110.68 55.7554C109.911 55.2376 109.096 54.7792 108.233 54.4226C104.796 52.9497 100.836 52.7459 97.1779 53.6458C93.5198 54.5415 90.0953 56.5662 87.8222 59.5757C85.4769 62.5555 84.1173 66.2527 83.7391 70.0517C83.344 73.855 83.8666 77.7474 85.018 81.4148C85.6213 83.2443 86.2926 85.0695 87.1509 86.7971C87.9921 88.5374 88.9396 90.2268 90.0443 91.8186C94.3823 98.2409 100.734 103.203 107.83 106.34C109.074 106.883 110.557 107.418 111.721 107.825C112.89 108.237 113.731 108.526 113.684 108.747C113.638 108.976 112.711 108.857 111.5 108.509C110.29 108.152 108.794 107.571 107.532 107.015Z" fill="#882F87"/>
<path d="M107.014 83.5798H128.041" stroke="#882F87" stroke-width="3" stroke-miterlimit="10" stroke-linecap="round"/>
<path d="M117.525 73.0776V94.0854" stroke="#882F87" stroke-width="3" stroke-miterlimit="10" stroke-linecap="round"/>
</svg>
