<svg width="300" height="60" viewBox="0 0 300 60" fill="none" xmlns="http://www.w3.org/2000/svg">
<rect width="300" height="60" rx="30" fill="#FAFAC8"/>
<path opacity="0.8" d="M22.4714 36.18C22.2674 36.18 21.9854 36.168 21.6254 36.144C21.2654 36.132 20.8754 36.108 20.4554 36.072C20.0474 36.048 19.6574 36.024 19.2854 36L21.5894 24.12C21.8654 24.096 22.2194 24.072 22.6514 24.048C23.0834 24.012 23.5154 23.988 23.9474 23.976C24.3794 23.952 24.7334 23.94 25.0094 23.94C25.7414 23.94 26.3474 24.03 26.8274 24.21C27.3074 24.39 27.6794 24.654 27.9434 25.002C28.2194 25.35 28.4114 25.776 28.5194 26.28C28.6394 26.784 28.6994 27.36 28.6994 28.008C28.6994 28.776 28.6214 29.55 28.4654 30.33C28.3214 31.098 28.0934 31.836 27.7814 32.544C27.4814 33.24 27.0854 33.864 26.5934 34.416C26.1014 34.956 25.5134 35.388 24.8294 35.712C24.1454 36.024 23.3594 36.18 22.4714 36.18ZM22.8674 34.956C23.5154 34.956 24.0494 34.8 24.4694 34.488C24.9014 34.164 25.2494 33.75 25.5134 33.246C25.7894 32.73 26.0114 32.184 26.1794 31.608C26.2514 31.308 26.3294 30.936 26.4134 30.492C26.4974 30.048 26.5694 29.592 26.6294 29.124C26.6894 28.644 26.7194 28.2 26.7194 27.792C26.7194 26.952 26.5514 26.31 26.2154 25.866C25.8914 25.422 25.3214 25.2 24.5054 25.2C24.2894 25.2 24.0554 25.212 23.8034 25.236C23.5514 25.26 23.3114 25.296 23.0834 25.344L21.2294 34.812C21.4574 34.848 21.7394 34.884 22.0754 34.92C22.4234 34.944 22.6874 34.956 22.8674 34.956ZM30.8926 36.36C30.5566 36.36 30.2986 36.264 30.1186 36.072C29.9506 35.88 29.8666 35.622 29.8666 35.298C29.8666 35.178 29.8726 35.04 29.8846 34.884C29.9086 34.716 29.9326 34.548 29.9566 34.38C29.9926 34.2 30.0226 34.032 30.0466 33.876C30.0826 33.72 30.1126 33.582 30.1366 33.462L31.4866 26.82L33.1426 26.64L31.5946 34.326C31.5826 34.422 31.5646 34.548 31.5406 34.704C31.5166 34.86 31.5046 34.986 31.5046 35.082C31.5046 35.25 31.5406 35.382 31.6126 35.478C31.6966 35.562 31.8166 35.61 31.9726 35.622C31.9126 35.874 31.7806 36.06 31.5766 36.18C31.3726 36.3 31.1446 36.36 30.8926 36.36ZM32.7466 25.2C32.4106 25.2 32.1286 25.116 31.9006 24.948C31.6846 24.768 31.5766 24.504 31.5766 24.156C31.5766 23.784 31.6906 23.514 31.9186 23.346C32.1586 23.166 32.4466 23.076 32.7826 23.076C33.1306 23.076 33.4186 23.166 33.6466 23.346C33.8746 23.514 33.9886 23.772 33.9886 24.12C33.9886 24.492 33.8686 24.768 33.6286 24.948C33.3886 25.116 33.0946 25.2 32.7466 25.2ZM36.7468 36.36C36.1588 36.36 35.6788 36.216 35.3068 35.928C34.9468 35.628 34.6828 35.226 34.5148 34.722C34.3468 34.218 34.2628 33.642 34.2628 32.994C34.2628 32.106 34.3768 31.272 34.6048 30.492C34.8448 29.7 35.1808 29.004 35.6128 28.404C36.0448 27.792 36.5548 27.318 37.1428 26.982C37.7308 26.634 38.3728 26.46 39.0688 26.46C39.6448 26.46 40.2628 26.586 40.9228 26.838L42.4888 26.64L41.0128 34.326C41.0008 34.434 40.9828 34.56 40.9588 34.704C40.9348 34.848 40.9228 34.974 40.9228 35.082C40.9228 35.25 40.9588 35.382 41.0308 35.478C41.1148 35.562 41.2348 35.61 41.3908 35.622C41.3428 35.79 41.2648 35.928 41.1568 36.036C41.0488 36.144 40.9228 36.222 40.7788 36.27C40.6348 36.33 40.4728 36.36 40.2928 36.36C39.9808 36.36 39.7228 36.27 39.5188 36.09C39.3268 35.922 39.2248 35.67 39.2128 35.334C38.9008 35.634 38.5348 35.88 38.1148 36.072C37.6948 36.264 37.2388 36.36 36.7468 36.36ZM37.4668 35.298C37.9468 35.298 38.3368 35.142 38.6368 34.83C38.9488 34.506 39.1948 34.11 39.3748 33.642C39.5548 33.162 39.6868 32.7 39.7708 32.256L40.5448 28.152C40.2928 27.948 40.0228 27.798 39.7348 27.702C39.4468 27.594 39.1828 27.54 38.9428 27.54C38.5708 27.54 38.2288 27.636 37.9168 27.828C37.6168 28.02 37.3468 28.29 37.1068 28.638C36.8788 28.986 36.6808 29.4 36.5128 29.88C36.3568 30.348 36.2368 30.864 36.1528 31.428C36.0808 31.98 36.0448 32.556 36.0448 33.156C36.0448 33.756 36.1408 34.266 36.3328 34.686C36.5368 35.094 36.9148 35.298 37.4668 35.298ZM46.373 34.974C45.521 34.974 44.861 34.716 44.393 34.2C43.925 33.672 43.691 32.922 43.691 31.95C43.691 31.29 43.793 30.636 43.997 29.988C44.213 29.34 44.519 28.752 44.915 28.224C45.323 27.684 45.815 27.258 46.391 26.946C46.967 26.622 47.621 26.46 48.353 26.46C48.665 26.46 48.953 26.496 49.217 26.568C49.493 26.628 49.811 26.724 50.171 26.856L51.683 26.64L50.279 33.624L48.839 33.696C48.635 34.164 48.293 34.494 47.813 34.686C47.333 34.878 46.853 34.974 46.373 34.974ZM45.815 39.6C45.431 39.6 45.077 39.546 44.753 39.438C44.441 39.342 44.171 39.198 43.943 39.006C43.715 38.826 43.535 38.61 43.403 38.358C43.283 38.106 43.223 37.824 43.223 37.512C43.223 37.128 43.283 36.834 43.403 36.63C43.535 36.426 43.691 36.282 43.871 36.198C44.063 36.114 44.237 36.072 44.393 36.072C44.609 36.072 44.789 36.114 44.933 36.198C45.089 36.294 45.203 36.426 45.275 36.594C45.179 36.702 45.101 36.828 45.041 36.972C44.981 37.116 44.951 37.272 44.951 37.44C44.951 37.8 45.035 38.082 45.203 38.286C45.383 38.49 45.641 38.592 45.977 38.592C46.505 38.592 46.931 38.358 47.255 37.89C47.579 37.434 47.843 36.828 48.047 36.072C48.263 35.316 48.455 34.488 48.623 33.588L50.297 33.534C50.129 34.41 49.931 35.22 49.703 35.964C49.487 36.696 49.211 37.332 48.875 37.872C48.551 38.424 48.137 38.85 47.633 39.15C47.141 39.45 46.535 39.6 45.815 39.6ZM46.841 33.948C47.345 33.948 47.747 33.792 48.047 33.48C48.359 33.156 48.599 32.76 48.767 32.292C48.947 31.812 49.085 31.344 49.181 30.888L49.739 28.17C49.487 27.966 49.211 27.81 48.911 27.702C48.611 27.594 48.341 27.54 48.101 27.54C47.741 27.54 47.417 27.654 47.129 27.882C46.853 28.098 46.607 28.386 46.391 28.746C46.175 29.094 45.995 29.478 45.851 29.898C45.719 30.306 45.617 30.714 45.545 31.122C45.473 31.518 45.437 31.866 45.437 32.166C45.437 32.742 45.551 33.186 45.779 33.498C46.007 33.798 46.361 33.948 46.841 33.948ZM58.7583 36.36C58.4463 36.36 58.2003 36.264 58.0203 36.072C57.8403 35.892 57.7503 35.58 57.7503 35.136C57.7503 34.872 57.7863 34.53 57.8583 34.11C57.9423 33.678 58.0383 33.222 58.1463 32.742C58.2663 32.25 58.3803 31.77 58.4883 31.302C58.5963 30.822 58.6863 30.396 58.7583 30.024C58.8423 29.64 58.8843 29.352 58.8843 29.16C58.8843 28.716 58.7643 28.386 58.5243 28.17C58.2963 27.954 58.0023 27.846 57.6423 27.846C57.1383 27.846 56.7063 28.014 56.3463 28.35C55.9983 28.674 55.7163 29.088 55.5003 29.592C55.2843 30.096 55.1223 30.6 55.0143 31.104L54.0603 36L52.4043 36.18L54.2223 26.82L55.6263 26.64L55.4283 28.224C55.7523 27.66 56.1783 27.228 56.7063 26.928C57.2463 26.616 57.7983 26.46 58.3623 26.46C59.0823 26.46 59.6223 26.658 59.9823 27.054C60.3543 27.45 60.5403 27.978 60.5403 28.638C60.5403 28.974 60.4983 29.376 60.4143 29.844C60.3423 30.3 60.2463 30.786 60.1263 31.302C60.0183 31.818 59.9043 32.322 59.7843 32.814C59.6763 33.306 59.5803 33.75 59.4963 34.146C59.4243 34.53 59.3883 34.824 59.3883 35.028C59.3883 35.184 59.4123 35.316 59.4603 35.424C59.5203 35.532 59.6523 35.598 59.8563 35.622C59.7963 35.874 59.6643 36.06 59.4603 36.18C59.2563 36.3 59.0223 36.36 58.7583 36.36ZM65.0611 36.36C64.4371 36.36 63.9331 36.258 63.5491 36.054C63.1651 35.85 62.8711 35.592 62.6671 35.28C62.4751 34.956 62.3431 34.62 62.2711 34.272C62.2111 33.912 62.1811 33.588 62.1811 33.3C62.1811 32.496 62.2711 31.692 62.4511 30.888C62.6431 30.084 62.9311 29.346 63.3151 28.674C63.7111 28.002 64.2211 27.468 64.8451 27.072C65.4811 26.664 66.2491 26.46 67.1491 26.46C67.7851 26.46 68.2891 26.562 68.6611 26.766C69.0451 26.97 69.3391 27.234 69.5431 27.558C69.7471 27.87 69.8791 28.206 69.9391 28.566C70.0111 28.914 70.0471 29.232 70.0471 29.52C70.0471 30.324 69.9511 31.134 69.7591 31.95C69.5791 32.754 69.2911 33.492 68.8951 34.164C68.4991 34.824 67.9831 35.358 67.3471 35.766C66.7231 36.162 65.9611 36.36 65.0611 36.36ZM65.4211 35.28C65.8051 35.28 66.1471 35.166 66.4471 34.938C66.7591 34.71 67.0291 34.404 67.2571 34.02C67.4851 33.624 67.6711 33.18 67.8151 32.688C67.9711 32.196 68.0851 31.686 68.1571 31.158C68.2291 30.618 68.2651 30.09 68.2651 29.574C68.2651 28.986 68.1571 28.5 67.9411 28.116C67.7371 27.732 67.3591 27.54 66.8071 27.54C66.4231 27.54 66.0751 27.654 65.7631 27.882C65.4511 28.11 65.1811 28.416 64.9531 28.8C64.7251 29.184 64.5331 29.622 64.3771 30.114C64.2331 30.606 64.1251 31.122 64.0531 31.662C63.9811 32.202 63.9451 32.73 63.9451 33.246C63.9451 33.834 64.0531 34.32 64.2691 34.704C64.4851 35.088 64.8691 35.28 65.4211 35.28ZM66.5731 25.308L66.2851 24.588L69.9751 22.194C70.1791 22.266 70.3231 22.398 70.4071 22.59C70.4911 22.782 70.5331 22.968 70.5331 23.148C70.5331 23.46 70.4311 23.718 70.2271 23.922C70.0351 24.114 69.7891 24.27 69.4891 24.39C69.1891 24.51 68.8711 24.624 68.5351 24.732L66.5731 25.308ZM73.2708 36.396C72.9228 36.396 72.5748 36.354 72.2268 36.27C71.8908 36.198 71.5848 36.084 71.3088 35.928C71.0328 35.772 70.8108 35.58 70.6428 35.352C70.4868 35.112 70.4088 34.842 70.4088 34.542C70.4088 34.194 70.4988 33.93 70.6788 33.75C70.8588 33.558 71.0688 33.426 71.3088 33.354C71.5488 33.27 71.7588 33.228 71.9388 33.228C72.0468 33.228 72.1488 33.24 72.2448 33.264C72.3528 33.288 72.4368 33.342 72.4968 33.426C72.4368 33.582 72.3768 33.732 72.3168 33.876C72.2688 34.02 72.2448 34.182 72.2448 34.362C72.2448 34.662 72.3648 34.908 72.6048 35.1C72.8448 35.28 73.1688 35.37 73.5768 35.37C74.0328 35.37 74.4168 35.244 74.7288 34.992C75.0408 34.74 75.1968 34.41 75.1968 34.002C75.1968 33.69 75.1248 33.414 74.9808 33.174C74.8368 32.934 74.6448 32.718 74.4048 32.526C74.1768 32.322 73.9308 32.124 73.6668 31.932C73.3428 31.704 73.0248 31.464 72.7128 31.212C72.4008 30.96 72.1368 30.672 71.9208 30.348C71.7168 30.012 71.6148 29.61 71.6148 29.142C71.6148 28.71 71.7228 28.326 71.9388 27.99C72.1548 27.654 72.4368 27.372 72.7848 27.144C73.1448 26.916 73.5408 26.748 73.9728 26.64C74.4048 26.52 74.8368 26.46 75.2688 26.46C75.6528 26.46 76.0368 26.514 76.4208 26.622C76.8048 26.718 77.1228 26.892 77.3748 27.144C77.6268 27.384 77.7528 27.72 77.7528 28.152C77.7528 28.608 77.6088 28.962 77.3208 29.214C77.0448 29.466 76.7568 29.592 76.4568 29.592C76.3488 29.592 76.2228 29.58 76.0788 29.556C75.9468 29.532 75.8328 29.478 75.7368 29.394C75.8208 29.226 75.8868 29.064 75.9348 28.908C75.9828 28.74 76.0068 28.572 76.0068 28.404C76.0068 28.104 75.8928 27.876 75.6648 27.72C75.4488 27.564 75.1488 27.486 74.7648 27.486C74.3448 27.486 73.9908 27.6 73.7028 27.828C73.4148 28.044 73.2708 28.35 73.2708 28.746C73.2708 29.01 73.3248 29.25 73.4328 29.466C73.5528 29.67 73.7028 29.862 73.8828 30.042C74.0748 30.222 74.2848 30.396 74.5128 30.564C74.8728 30.816 75.2388 31.08 75.6108 31.356C75.9828 31.62 76.2948 31.926 76.5468 32.274C76.7988 32.622 76.9248 33.054 76.9248 33.57C76.9248 34.158 76.7388 34.668 76.3668 35.1C76.0068 35.52 75.5448 35.838 74.9808 36.054C74.4168 36.282 73.8468 36.396 73.2708 36.396ZM80.304 36.378C80.04 36.378 79.8 36.282 79.584 36.09C79.38 35.898 79.278 35.622 79.278 35.262C79.278 35.022 79.314 34.68 79.386 34.236C79.47 33.78 79.56 33.294 79.656 32.778C79.764 32.262 79.872 31.77 79.98 31.302C80.088 30.834 80.166 30.462 80.214 30.186L80.718 27.63H79.386L79.458 27.09C80.01 26.874 80.544 26.592 81.06 26.244C81.588 25.884 82.038 25.494 82.41 25.074H82.896L82.554 26.82H83.958L83.796 27.63H82.356L81.078 33.912C81.03 34.104 80.994 34.278 80.97 34.434C80.946 34.578 80.928 34.716 80.916 34.848C80.904 35.148 80.952 35.364 81.06 35.496C81.18 35.616 81.408 35.64 81.744 35.568C81.66 35.748 81.546 35.898 81.402 36.018C81.27 36.138 81.114 36.228 80.934 36.288C80.754 36.348 80.544 36.378 80.304 36.378ZM85.0156 36.36C84.6796 36.36 84.4216 36.264 84.2416 36.072C84.0736 35.88 83.9896 35.622 83.9896 35.298C83.9896 35.178 83.9956 35.04 84.0076 34.884C84.0316 34.716 84.0556 34.548 84.0796 34.38C84.1156 34.2 84.1456 34.032 84.1696 33.876C84.2056 33.72 84.2356 33.582 84.2596 33.462L85.6096 26.82L87.2656 26.64L85.7176 34.326C85.7056 34.422 85.6876 34.548 85.6636 34.704C85.6396 34.86 85.6276 34.986 85.6276 35.082C85.6276 35.25 85.6636 35.382 85.7356 35.478C85.8196 35.562 85.9396 35.61 86.0956 35.622C86.0356 35.874 85.9036 36.06 85.6996 36.18C85.4956 36.3 85.2676 36.36 85.0156 36.36ZM86.8696 25.2C86.5336 25.2 86.2516 25.116 86.0236 24.948C85.8076 24.768 85.6996 24.504 85.6996 24.156C85.6996 23.784 85.8136 23.514 86.0416 23.346C86.2816 23.166 86.5696 23.076 86.9056 23.076C87.2536 23.076 87.5416 23.166 87.7696 23.346C87.9976 23.514 88.1116 23.772 88.1116 24.12C88.1116 24.492 87.9916 24.768 87.7516 24.948C87.5116 25.116 87.2176 25.2 86.8696 25.2ZM91.3379 36.36C90.3179 36.36 89.5679 36.066 89.0879 35.478C88.6199 34.89 88.3859 34.014 88.3859 32.85C88.3859 32.094 88.4819 31.344 88.6739 30.6C88.8779 29.844 89.1779 29.154 89.5739 28.53C89.9819 27.906 90.4919 27.408 91.1039 27.036C91.7159 26.652 92.4359 26.46 93.2639 26.46C93.7439 26.46 94.1639 26.532 94.5239 26.676C94.8959 26.82 95.1839 27.03 95.3879 27.306C95.5919 27.582 95.6939 27.924 95.6939 28.332C95.6939 28.848 95.5499 29.232 95.2619 29.484C94.9859 29.724 94.6799 29.844 94.3439 29.844C94.2239 29.844 94.0919 29.826 93.9479 29.79C93.8039 29.754 93.6899 29.682 93.6059 29.574C93.6659 29.406 93.7199 29.22 93.7679 29.016C93.8159 28.812 93.8399 28.632 93.8399 28.476C93.8399 28.164 93.7619 27.93 93.6059 27.774C93.4499 27.606 93.2219 27.522 92.9219 27.522C92.5499 27.522 92.2139 27.642 91.9139 27.882C91.6139 28.122 91.3499 28.44 91.1219 28.836C90.9059 29.232 90.7199 29.664 90.5639 30.132C90.4199 30.6 90.3119 31.068 90.2399 31.536C90.1679 32.004 90.1319 32.424 90.1319 32.796C90.1319 33.408 90.2519 33.936 90.4919 34.38C90.7439 34.824 91.1939 35.046 91.8419 35.046C92.4059 35.046 92.8679 34.878 93.2279 34.542C93.5879 34.194 93.8459 33.762 94.0019 33.246C94.2179 33.294 94.3739 33.402 94.4699 33.57C94.5659 33.726 94.6139 33.912 94.6139 34.128C94.6139 34.512 94.4759 34.878 94.1999 35.226C93.9239 35.562 93.5399 35.832 93.0479 36.036C92.5679 36.252 91.9979 36.36 91.3379 36.36ZM99.356 36.36C98.732 36.36 98.228 36.258 97.844 36.054C97.46 35.85 97.166 35.592 96.962 35.28C96.77 34.956 96.638 34.62 96.566 34.272C96.506 33.912 96.476 33.588 96.476 33.3C96.476 32.496 96.566 31.692 96.746 30.888C96.938 30.084 97.226 29.346 97.61 28.674C98.006 28.002 98.516 27.468 99.14 27.072C99.776 26.664 100.544 26.46 101.444 26.46C102.08 26.46 102.584 26.562 102.956 26.766C103.34 26.97 103.634 27.234 103.838 27.558C104.042 27.87 104.174 28.206 104.234 28.566C104.306 28.914 104.342 29.232 104.342 29.52C104.342 30.324 104.246 31.134 104.054 31.95C103.874 32.754 103.586 33.492 103.19 34.164C102.794 34.824 102.278 35.358 101.642 35.766C101.018 36.162 100.256 36.36 99.356 36.36ZM99.716 35.28C100.1 35.28 100.442 35.166 100.742 34.938C101.054 34.71 101.324 34.404 101.552 34.02C101.78 33.624 101.966 33.18 102.11 32.688C102.266 32.196 102.38 31.686 102.452 31.158C102.524 30.618 102.56 30.09 102.56 29.574C102.56 28.986 102.452 28.5 102.236 28.116C102.032 27.732 101.654 27.54 101.102 27.54C100.718 27.54 100.37 27.654 100.058 27.882C99.746 28.11 99.476 28.416 99.248 28.8C99.02 29.184 98.828 29.622 98.672 30.114C98.528 30.606 98.42 31.122 98.348 31.662C98.276 32.202 98.24 32.73 98.24 33.246C98.24 33.834 98.348 34.32 98.564 34.704C98.78 35.088 99.164 35.28 99.716 35.28Z" fill="#882F87"/>
<circle cx="260.231" cy="27.2311" r="14.7311" fill="#DDBDDF" stroke="#AB74AE" stroke-width="3"/>
<rect x="271.156" y="35.8126" width="16.0102" height="4.05383" rx="2.02691" transform="rotate(45 271.156 35.8126)" fill="#AB74AE"/>
</svg>
