<svg width="612" height="212" viewBox="0 0 612 212" fill="none" xmlns="http://www.w3.org/2000/svg">
<g opacity="0.2" filter="url(#filter0_d)">
<rect x="6" width="600" height="200" rx="40" fill="#33A2D3"/>
</g>
<path d="M64.7101 112.512L66.7901 119.432H73.3501L64.9901 92.4721H56.9901L48.7501 119.432H55.0701L56.9901 112.512H64.7101ZM57.8701 107.952L59.4701 102.232C59.9101 100.672 60.3101 98.6321 60.7101 97.0321H60.7901C61.1901 98.6321 61.6701 100.632 62.1501 102.232L63.8301 107.952H57.8701ZM94.6141 99.8721H88.4941V111.512C88.4941 111.992 88.4541 112.472 88.2941 112.832C87.8941 113.792 86.9341 114.952 85.2541 114.952C83.1341 114.952 82.2141 113.232 82.2141 110.392V99.8721H76.0941V111.352C76.0941 117.392 79.0141 119.872 82.9741 119.872C86.4941 119.872 88.3341 117.872 89.0941 116.672H89.2141L89.4941 119.432H94.7741C94.6941 117.792 94.6141 115.712 94.6141 113.152V99.8721ZM99.4944 119.432H105.574V91.0321H99.4944V119.432ZM126.83 107.872C126.83 103.272 124.75 99.4321 118.23 99.4321C114.67 99.4321 111.99 100.392 110.63 101.152L111.75 105.072C113.03 104.272 115.15 103.592 117.15 103.592C120.15 103.592 120.71 105.072 120.71 106.112V106.392C113.79 106.352 109.23 108.792 109.23 113.872C109.23 116.992 111.59 119.872 115.55 119.872C117.87 119.872 119.87 119.032 121.15 117.472H121.27L121.63 119.432H127.11C126.91 118.352 126.83 116.552 126.83 114.672V107.872ZM120.91 112.312C120.91 112.672 120.87 113.032 120.79 113.352C120.39 114.592 119.15 115.592 117.63 115.592C116.27 115.592 115.23 114.832 115.23 113.272C115.23 110.912 117.71 110.152 120.91 110.192V112.312ZM143.566 119.432H149.686V97.5921H157.046V92.4721H136.326V97.5921H143.566V119.432ZM174.118 111.592C174.198 111.152 174.318 110.232 174.318 109.192C174.318 104.352 171.918 99.4321 165.598 99.4321C158.798 99.4321 155.718 104.912 155.718 109.872C155.718 115.992 159.518 119.872 166.158 119.872C168.798 119.872 171.238 119.432 173.238 118.632L172.438 114.512C170.798 115.032 169.118 115.312 167.038 115.312C164.198 115.312 161.718 114.112 161.518 111.592H174.118ZM161.478 107.432C161.638 105.792 162.678 103.472 165.238 103.472C168.038 103.472 168.678 105.952 168.678 107.432H161.478ZM187.811 91.3521L184.371 97.4321H188.571L193.451 91.3521H187.811ZM187.291 99.4321C181.011 99.4321 176.851 103.472 176.851 109.792C176.851 116.112 181.251 119.872 186.971 119.872C192.211 119.872 197.291 116.592 197.291 109.432C197.291 103.552 193.291 99.4321 187.291 99.4321ZM187.131 103.752C189.891 103.752 191.011 106.712 191.011 109.632C191.011 113.152 189.491 115.512 187.131 115.512C184.531 115.512 183.131 112.992 183.131 109.632C183.131 106.752 184.211 103.752 187.131 103.752ZM201.057 119.432H207.137V109.512C207.137 109.032 207.177 108.552 207.257 108.152C207.657 106.272 209.177 105.072 211.417 105.072C212.097 105.072 212.617 105.152 213.057 105.272V99.5121C212.617 99.4321 212.337 99.4321 211.777 99.4321C209.897 99.4321 207.497 100.632 206.497 103.472H206.337L206.137 99.8721H200.897C200.977 101.552 201.057 103.432 201.057 106.312V119.432ZM222.332 119.432V99.8721H216.252V119.432H222.332ZM219.292 91.3521C217.332 91.3521 216.052 92.6721 216.092 94.4321C216.052 96.1121 217.332 97.4721 219.252 97.4721C221.252 97.4721 222.532 96.1121 222.532 94.4321C222.492 92.6721 221.252 91.3521 219.292 91.3521ZM241.189 114.432C240.269 114.832 239.149 115.072 237.709 115.072C234.749 115.072 232.349 113.192 232.349 109.592C232.309 106.392 234.389 104.112 237.589 104.112C239.189 104.112 240.269 104.392 240.989 104.712L241.949 100.192C240.669 99.7121 238.909 99.4321 237.309 99.4321C230.029 99.4321 226.109 104.112 226.109 109.832C226.109 115.992 230.149 119.872 236.469 119.872C238.789 119.872 240.829 119.432 241.909 118.952L241.189 114.432ZM261.752 107.872C261.752 103.272 259.672 99.4321 253.152 99.4321C249.592 99.4321 246.912 100.392 245.552 101.152L246.672 105.072C247.952 104.272 250.072 103.592 252.072 103.592C255.072 103.592 255.632 105.072 255.632 106.112V106.392C248.712 106.352 244.152 108.792 244.152 113.872C244.152 116.992 246.512 119.872 250.472 119.872C252.792 119.872 254.792 119.032 256.072 117.472H256.192L256.552 119.432H262.032C261.832 118.352 261.752 116.552 261.752 114.672V107.872ZM255.832 112.312C255.832 112.672 255.792 113.032 255.712 113.352C255.312 114.592 254.072 115.592 252.552 115.592C251.192 115.592 250.152 114.832 250.152 113.272C250.152 110.912 252.632 110.152 255.832 110.192V112.312ZM274.851 119.312C276.211 119.512 278.451 119.712 281.451 119.712C286.811 119.712 290.091 118.832 292.051 117.272C293.731 115.912 294.851 113.992 294.851 111.552C294.851 108.072 292.571 105.752 289.491 104.912V104.832C292.531 103.712 293.931 101.472 293.931 99.0721C293.931 96.6321 292.571 94.7921 290.691 93.7921C288.731 92.6321 286.451 92.2721 282.731 92.2721C279.691 92.2721 276.451 92.5121 274.851 92.8321V119.312ZM280.891 96.8721C281.411 96.7921 282.171 96.7121 283.491 96.7121C286.251 96.7121 287.811 97.7921 287.811 99.8321C287.811 101.832 286.091 103.152 282.891 103.152H280.891V96.8721ZM280.891 107.512H282.971C286.011 107.512 288.451 108.592 288.451 111.312C288.451 114.112 286.011 115.192 283.251 115.192C282.211 115.192 281.491 115.192 280.891 115.112V107.512Z" fill="#3A3F8B"/>
<g filter="url(#filter1_d)">
<path d="M562.887 52.2847H485.8V157.789H562.887V52.2847Z" fill="#3A3F8A" stroke="#3A3F8A" stroke-width="4" stroke-miterlimit="10"/>
<path d="M558.188 57.0906H489.996V153.931H558.188V57.0906Z" fill="#33A2D3"/>
<path d="M539.897 52.6824H509.187C508.063 52.6824 507.147 51.764 507.147 50.6359V45.0967C507.147 43.9687 508.063 43.0503 509.187 43.0503H539.897C541.021 43.0503 541.936 43.9687 541.936 45.0967V50.6359C541.936 51.764 541.021 52.6824 539.897 52.6824Z" fill="#3A3F8A"/>
<path d="M533.583 48.8281H516.286C514.297 48.8281 512.682 47.2083 512.682 45.2125V42.8117C512.682 40.8159 514.297 39.196 516.286 39.196H533.583C535.572 39.196 537.187 40.8159 537.187 42.8117V45.2125C537.187 47.2083 535.579 48.8281 533.583 48.8281Z" fill="#3A3F8A"/>
<path d="M526.775 95.094H521.518C521.315 95.094 521.155 94.9334 521.155 94.7305V69.0329C521.155 68.83 521.315 68.6694 521.518 68.6694H526.775C526.977 68.6694 527.137 68.83 527.137 69.0329V94.7305C527.137 94.925 526.977 95.094 526.775 95.094Z" fill="white"/>
<path d="M510.978 84.5102V79.2439C510.978 79.041 511.138 78.8804 511.34 78.8804H536.952C537.154 78.8804 537.314 79.041 537.314 79.2439V84.5186C537.314 84.7215 537.154 84.8821 536.952 84.8821H511.34C511.138 84.8821 510.978 84.7131 510.978 84.5102Z" fill="white"/>
<path d="M548.905 115.578H498.822V119.598H548.905V115.578Z" fill="white"/>
<path d="M548.905 127.638H498.822V131.658H548.905V127.638Z" fill="white"/>
</g>
<defs>
<filter id="filter0_d" x="0" y="0" width="612" height="212" filterUnits="userSpaceOnUse" color-interpolation-filters="sRGB">
<feFlood flood-opacity="0" result="BackgroundImageFix"/>
<feColorMatrix in="SourceAlpha" type="matrix" values="0 0 0 0 0 0 0 0 0 0 0 0 0 0 0 0 0 0 127 0" result="hardAlpha"/>
<feOffset dy="6"/>
<feGaussianBlur stdDeviation="3"/>
<feColorMatrix type="matrix" values="0 0 0 0 0 0 0 0 0 0 0 0 0 0 0 0 0 0 1 0"/>
<feBlend mode="normal" in2="BackgroundImageFix" result="effect1_dropShadow"/>
<feBlend mode="normal" in="SourceGraphic" in2="effect1_dropShadow" result="shape"/>
</filter>
<filter id="filter1_d" x="479.8" y="39.196" width="89.0875" height="128.593" filterUnits="userSpaceOnUse" color-interpolation-filters="sRGB">
<feFlood flood-opacity="0" result="BackgroundImageFix"/>
<feColorMatrix in="SourceAlpha" type="matrix" values="0 0 0 0 0 0 0 0 0 0 0 0 0 0 0 0 0 0 127 0" result="hardAlpha"/>
<feOffset dy="4"/>
<feGaussianBlur stdDeviation="2"/>
<feColorMatrix type="matrix" values="0 0 0 0 0 0 0 0 0 0 0 0 0 0 0 0 0 0 0.1 0"/>
<feBlend mode="normal" in2="BackgroundImageFix" result="effect1_dropShadow"/>
<feBlend mode="normal" in="SourceGraphic" in2="effect1_dropShadow" result="shape"/>
</filter>
</defs>
</svg>
