<svg id="Layer_3" height="512" viewBox="0 0 64 64" width="512" xmlns="http://www.w3.org/2000/svg" data-name="Layer 3"><path d="m36.849 15.015c.051 0 .1-.015.151-.015v-2a1 1 0 0 1 1-1h1.528a6.2 6.2 0 0 0 5.577-3.447 1.042 1.042 0 0 1 1.79 0 6.2 6.2 0 0 0 5.577 3.447h1.528a1 1 0 0 1 1 1v2c.052 0 .1.013.151.015l.356-2.137a8.483 8.483 0 0 0 -8.368-9.878h-2.278a8.483 8.483 0 0 0 -8.368 9.878z"/><path d="m49.902 28.392-.645-.235-1.735 1.735 1.809 1.356z"/><path d="m44.478 29.892-1.735-1.735-.645.235.571 2.856z"/><path d="m54.768 19h.232a1 1 0 0 0 0-2 8.971 8.971 0 0 1 -.232 2z"/><path d="m44 25.768v.818l2 2 2-2v-.818a8.737 8.737 0 0 1 -4 0z"/><path d="m46 31.25-1.533 1.149 1.068 1.601h.93l1.067-1.601z"/><path d="m51.8 29.083-.82 4.117a1 1 0 0 1 -1.58.6l-.266-.2-1.09 1.637.823 5.763h5.133v-5h2v5h3v-5.8a5.016 5.016 0 0 0 -3.292-4.7z"/><path d="m53 17v-3h-.528a8.185 8.185 0 0 1 -6.472-3.138 8.185 8.185 0 0 1 -6.472 3.138h-.528v3a7 7 0 0 0 14 0z"/><path d="m37 19h.232a8.971 8.971 0 0 1 -.232-2 1 1 0 0 0 0 2z"/><path d="m45.867 36-.714 5h1.694l-.714-5z"/><path d="m8 36a1 1 0 0 0 1 1h.39l-.742-1.929a1 1 0 0 0 -.648.929z"/><path d="m33 50.385v10.615h26v-12h-26.176a6.053 6.053 0 0 1 .176 1.385z"/><path d="m28.486 46.672-6.246-2.5-.119.119a5.828 5.828 0 0 1 -8.242 0l-.119-.119-6.245 2.5a3.978 3.978 0 0 0 -2.515 3.713v10.615h4v-7h2v7h14v-7h2v7h4v-10.615a3.978 3.978 0 0 0 -2.514-3.713z"/><path d="m36 36h2v5h5.133l.823-5.763-1.091-1.637-.265.2a1 1 0 0 1 -1.58-.6l-.82-4.117-3.908 1.417a5.016 5.016 0 0 0 -3.292 4.7v5.8h3z"/><path d="m11.308 43h-8.308v4h1.041a6 6 0 0 1 2.731-2.186z"/><path d="m24.692 43 4.537 1.814a5.992 5.992 0 0 1 2.73 2.186h29.041v-4z"/><path d="m23.807 38.718 2.193-5.705v-.013l.724-1.883a7.445 7.445 0 0 0 -6.943-10.117h-3.562a7.445 7.445 0 0 0 -6.948 10.117l.724 1.883h.005v.014l2.194 5.7a2.013 2.013 0 0 0 1.867 1.286h7.878a2.016 2.016 0 0 0 1.868-1.282z"/><path d="m28 36a1 1 0 0 0 -.648-.929l-.742 1.929h.39a1 1 0 0 0 1-1z"/><path d="m15.293 42.879a3.923 3.923 0 0 0 5.414 0l.293-.293v-.586h-6v.586z"/><path d="m28 12 4-2-4-2v-3h-26v10h26zm-7-1h-16v-2h16zm4 0h-2v-2h2z"/></svg>