<?xml version="1.0" encoding="utf-8"?>
<!-- Generator: Adobe Illustrator 25.4.1, SVG Export Plug-In . SVG Version: 6.00 Build 0)  -->
<svg version="1.1" id="Capa_1" xmlns="http://www.w3.org/2000/svg" xmlns:xlink="http://www.w3.org/1999/xlink" x="0px" y="0px"
	 viewBox="0 0 512 512" style="enable-background:new 0 0 512 512;" xml:space="preserve">
<style type="text/css">
	.st0{fill:#AA74AD;}
</style>
<g id="XMLID_74_">
	<g id="XMLID_118_">
		<path id="XMLID_214_" class="st0" d="M430.5,254.5H228v-54.8c0-21.7-17.6-39.3-39.3-39.3h-33.3c-7.8,0-14.5-4.6-17.5-11.2
			c15.2-5,26.2-19.3,26.2-36.1V53.8c0-5.5-4.5-10-10-10h-18V20h18c5.5,0,10-4.5,10-10s-4.5-10-10-10H10C4.5,0,0,4.5,0,10v492
			c0,5.5,4.5,10,10,10h40c5.5,0,10-4.5,10-10V20h56v23.8H98c-5.5,0-10,4.5-10,10V113c0,17.9,12.4,32.9,29,36.9
			c4.1,17.4,19.7,30.4,38.3,30.4h33.3c10.7,0,19.3,8.7,19.3,19.3v56c-9.8,2.2-18.5,7.4-25.1,14.6c-8.8-14.5-24.7-24.3-42.9-24.3h-8
			c-27.6,0-50,22.4-50,50c0,11.2,3.7,21.6,10,30h0c-5.5,0-10,4.5-10,10v166c0,5.5,4.5,10,10,10h48c5.5,0,10-4.5,10-10V394h102
			c5.5,0,10-4.5,10-10s-4.5-10-10-10H140c-5.5,0-10,4.5-10,10v108h-28V346h390v146h-28V384c0-5.5-4.5-10-10-10H342
			c-5.5,0-10,4.5-10,10s4.5,10,10,10h102v108c0,5.5,4.5,10,10,10h48c5.5,0,10-4.5,10-10V336C512,291.1,475.4,254.5,430.5,254.5z
			 M40,492H20V20h20V492z M144,63.8v20h-36v-20H144z M108,113v-9.2h36v9.2c0,9.9-8.1,18-18,18S108,122.9,108,113z M132,326
			c-16.5,0-30-13.5-30-30s13.5-30,30-30h8c16.5,0,30,13.5,30,30s-13.5,30-30,30H132z M190,326v-22.8c0-15.9,12.9-28.8,28.8-28.8
			h211.8c30.5,0,55.9,22.3,60.7,51.5H190z"/>
		<path id="XMLID_230_" class="st0" d="M352,88h18v18c0,5.5,4.5,10,10,10h40c5.5,0,10-4.5,10-10V88h18c5.5,0,10-4.5,10-10V38
			c0-5.5-4.5-10-10-10h-18V10c0-5.5-4.5-10-10-10h-40c-5.5,0-10,4.5-10,10v18h-18c-5.5,0-10,4.5-10,10v40C342,83.5,346.5,88,352,88z
			 M362,48h18c5.5,0,10-4.5,10-10V20h20v18c0,5.5,4.5,10,10,10h18v20h-18c-5.5,0-10,4.5-10,10v18h-20V78c0-5.5-4.5-10-10-10h-18V48z
			"/>
		<path id="XMLID_231_" class="st0" d="M297,374c-2.6,0-5.2,1.1-7.1,2.9c-1.9,1.9-2.9,4.4-2.9,7.1s1.1,5.2,2.9,7.1
			c1.9,1.9,4.4,2.9,7.1,2.9s5.2-1.1,7.1-2.9c1.9-1.9,2.9-4.4,2.9-7.1s-1.1-5.2-2.9-7.1C302.2,375.1,299.6,374,297,374z"/>
	</g>
</g>
</svg>
