<?xml version="1.0" encoding="utf-8"?>
<!-- Generator: Adobe Illustrator 25.4.1, SVG Export Plug-In . SVG Version: 6.00 Build 0)  -->
<svg version="1.1" id="Layer_1" xmlns="http://www.w3.org/2000/svg" xmlns:xlink="http://www.w3.org/1999/xlink" x="0px" y="0px"
	 viewBox="0 0 512 512" style="enable-background:new 0 0 512 512;" xml:space="preserve">
<style type="text/css">
	.st0{fill:#893087;}
</style>
<g>
	<path class="st0" d="M96,416h51v96H96L96,416z"/>
	<path class="st0" d="M228,66h-10.5c0,52.9-43.1,96-96,96s-96-43.1-96-96H15C6.7,66,0,72.7,0,81v416c0,8.3,6.7,15,15,15h51V401
		c0-8.3,6.7-15,15-15h81c8.3,0,15,6.7,15,15v111h51c8.3,0,15-6.7,15-15V81C243,72.7,236.3,66,228,66L228,66z"/>
	<path class="st0" d="M121.5,132c36.4,0,66-29.6,66-66s-29.6-66-66-66c-36.4,0-66,29.6-66,66S85.2,132,121.5,132z M103.5,51h3v-3
		c0-8.3,6.7-15,15-15s15,6.7,15,15v3h3c8.3,0,15,6.7,15,15s-6.7,15-15,15h-3v3c0,8.3-6.7,15-15,15s-15-6.7-15-15v-3h-3
		c-8.3,0-15-6.7-15-15S95.2,51,103.5,51z"/>
	<path class="st0" d="M497,194H273v96h239v-81C512,200.7,505.3,194,497,194z"/>
	<path class="st0" d="M273,320h239v66H273V320z"/>
	<path class="st0" d="M273,497c0,5.3-0.9,10.3-2.6,15H497c8.3,0,15-6.7,15-15v-81H273V497z"/>
</g>
</svg>
