<?xml version="1.0" encoding="utf-8"?>
<!-- Generator: Adobe Illustrator 25.4.1, SVG Export Plug-In . SVG Version: 6.00 Build 0)  -->
<svg version="1.1" id="Camada_1" xmlns="http://www.w3.org/2000/svg" xmlns:xlink="http://www.w3.org/1999/xlink" x="0px" y="0px"
	 viewBox="0 0 512 512" style="enable-background:new 0 0 512 512;" xml:space="preserve">
<style type="text/css">
	.st0{fill:#893087;}
</style>
<g id="clinic-health-medical-infirmary-shop">
	<path class="st0" d="M320,374.9v27.4h18.3v-27.4c0-5,4.1-9.1,9.1-9.1h27.4v-18.3h-27.4c-5,0-9.1-4.1-9.1-9.1v-27.4H320v27.4
		c0,5-4.1,9.1-9.1,9.1h-27.4v18.3h27.4C315.9,365.7,320,369.8,320,374.9z"/>
	<path class="st0" d="M109.7,210.3c15.1,0,27.4-12.3,27.4-27.4H128c-15.1,0-27.4-12.3-27.4-27.4V82.3H82.3v100.6
		C82.3,198,94.6,210.2,109.7,210.3z"/>
	<path class="st0" d="M374.9,182.9c0,15.1,12.3,27.4,27.4,27.4c15.1,0,27.4-12.3,27.4-27.4V82.3h-18.3v73.1
		c0,15.1-12.3,27.4-27.4,27.4H374.9z"/>
	<path class="st0" d="M182.9,210.3c15.1,0,27.4-12.3,27.4-27.4h-54.9C155.5,198,167.7,210.2,182.9,210.3z"/>
	<path class="st0" d="M128,164.6h256c5,0,9.1-4.1,9.1-9.1V9.1c0-5-4.1-9.1-9.1-9.1H128c-5,0-9.1,4.1-9.1,9.1v146.3
		C118.9,160.5,123,164.6,128,164.6z M192,64c0-5,4.1-9.1,9.1-9.1h27.4V27.4c0-5,4.1-9.1,9.1-9.1h36.6c5,0,9.1,4.1,9.1,9.1v27.4h27.4
		c5,0,9.1,4.1,9.1,9.1v36.6c0,5-4.1,9.1-9.1,9.1h-27.4v27.4c0,5-4.1,9.1-9.1,9.1h-36.6c-5,0-9.1-4.1-9.1-9.1v-27.4h-27.4
		c-5,0-9.1-4.1-9.1-9.1V64z"/>
	<path class="st0" d="M237.7,438.9h182.9c5,0,9.1-4.1,9.1-9.1V283.4c0-5-4.1-9.1-9.1-9.1H237.7c-5,0-9.1,4.1-9.1,9.1v146.3
		C228.6,434.8,232.7,438.9,237.7,438.9z M265.1,338.3c0-5,4.1-9.1,9.1-9.1h27.4v-27.4c0-5,4.1-9.1,9.1-9.1h36.6c5,0,9.1,4.1,9.1,9.1
		v27.4H384c5,0,9.1,4.1,9.1,9.1v36.6c0,5-4.1,9.1-9.1,9.1h-27.4v27.4c0,5-4.1,9.1-9.1,9.1h-36.6c-5,0-9.1-4.1-9.1-9.1V384h-27.4
		c-5,0-9.1-4.1-9.1-9.1V338.3z"/>
	<path class="st0" d="M329.1,210.3c15.1,0,27.4-12.3,27.4-27.4h-54.9C301.8,198,314,210.2,329.1,210.3z"/>
	<path class="st0" d="M256,210.3c15.1,0,27.4-12.3,27.4-27.4h-54.9C228.6,198,240.9,210.2,256,210.3z"/>
	<path class="st0" d="M475.4,210.3c14.9,0,27-11.8,27.4-26.7L487.2,90c-0.7-4.4-4.5-7.7-9-7.7H448v100.6
		C448,198,460.3,210.2,475.4,210.3z"/>
	<path class="st0" d="M246.9,100.6V128h18.3v-27.4c0-5,4.1-9.1,9.1-9.1h27.4V73.1h-27.4c-5,0-9.1-4.1-9.1-9.1V36.6h-18.3V64
		c0,5-4.1,9.1-9.1,9.1h-27.4v18.3h27.4C242.8,91.4,246.9,95.5,246.9,100.6z"/>
	<path class="st0" d="M502.9,493.7H9.1c-5,0-9.1,4.1-9.1,9.1c0,5,4.1,9.1,9.1,9.1h493.7c5,0,9.1-4.1,9.1-9.1
		C512,497.8,507.9,493.7,502.9,493.7z"/>
	<path class="st0" d="M64,182.9V82.3H33.7c-4.5,0-8.3,3.3-9,7.7L9.1,183.6c0.2,15.1,12.6,27.3,27.8,27.1
		C52.1,210.4,64.2,198,64,182.9z"/>
	<path class="st0" d="M128,310.9c-25.2,0-45.7,20.5-45.7,45.7v118.9h91.4V356.6C173.7,331.3,153.2,310.9,128,310.9z M164.6,411.4
		h-18.3v-18.3h18.3V411.4z"/>
	<path class="st0" d="M45.7,475.4H64V356.6c0-35.3,28.7-64,64-64s64,28.7,64,64v118.9h274.3V227.6c-10.9-2.2-20.7-8.4-27.4-17.3
		c-15.1,20.2-43.8,24.3-64,9.1c-3.5-2.6-6.5-5.7-9.1-9.1c-15.1,20.2-43.8,24.3-64,9.1c-3.5-2.6-6.5-5.7-9.1-9.1
		c-15.1,20.2-43.8,24.3-64,9.1c-3.5-2.6-6.5-5.7-9.1-9.1c-15.1,20.2-43.8,24.3-64,9.1c-3.5-2.6-6.5-5.7-9.1-9.1
		c-15.1,20.2-43.8,24.3-64,9.1c-3.5-2.6-6.5-5.7-9.1-9.1c-6.7,8.9-16.5,15.1-27.4,17.3V475.4z M210.3,283.4
		c0-15.1,12.3-27.4,27.4-27.4h182.9c15.1,0,27.4,12.3,27.4,27.4v146.3c0,15.1-12.3,27.4-27.4,27.4H237.7
		c-15.1,0-27.4-12.3-27.4-27.4V283.4z"/>
</g>
</svg>
