<?xml version="1.0" encoding="utf-8"?>
<!-- Generator: Adobe Illustrator 25.4.1, SVG Export Plug-In . SVG Version: 6.00 Build 0)  -->
<svg version="1.1" id="Layer_3" xmlns="http://www.w3.org/2000/svg" xmlns:xlink="http://www.w3.org/1999/xlink" x="0px" y="0px"
	 viewBox="0 0 512 495.5" style="enable-background:new 0 0 512 495.5;" xml:space="preserve">
<style type="text/css">
	.st0{fill:#893087;}
</style>
<g>
	<path class="st0" d="M434.3,479c-26.7-26.6-62.1-41.3-99.8-41.3c-23.8,0-46.9,5.9-67.6,17.2c4.9,3.9,9.6,8,14,12.5l11.6,11.6h-23.4
		c-26.7-26.6-62.1-41.3-99.8-41.3S96.2,452.3,69.5,479H0v16.5h512V479H434.3z"/>
	<path class="st0" d="M181.7,8.3c0-4.6-3.7-8.3-8.3-8.3s-8.3,3.7-8.3,8.3v57.8h16.5V8.3z"/>
	<path class="st0" d="M107.4,99.1h123.9v33h16.5v-33h132.1v33h16.5v-33h8.3c4.6,0,8.3-3.7,8.3-8.3c0-4.6-3.7-8.3-8.3-8.3h-8.3v-33
		h-16.5v33H247.7v-33h-16.5v33H107.4c-4.6,0-8.3,3.7-8.3,8.3C99.1,95.4,102.8,99.1,107.4,99.1z"/>
	<path class="st0" d="M169.3,421.2c4.2,0,8.3,0.2,12.4,0.5V115.6h-16.5v305.7C166.5,421.3,167.9,421.2,169.3,421.2z"/>
	<path class="st0" d="M305.5,247.7v33h16.5v-33c0-4.6,3.7-8.3,8.3-8.3h33V223h-33c-4.6,0-8.3-3.7-8.3-8.3v-33h-16.5v33
		c0,4.6-3.7,8.3-8.3,8.3h-33v16.5h33C301.9,239.5,305.5,243.2,305.5,247.7z"/>
	<path class="st0" d="M231.2,313.8h165.2V148.6H231.2V313.8z M247.7,214.7c0-4.6,3.7-8.3,8.3-8.3h33v-33c0-4.6,3.7-8.3,8.3-8.3h33
		c4.6,0,8.3,3.7,8.3,8.3v33h33c4.6,0,8.3,3.7,8.3,8.3v33c0,4.6-3.7,8.3-8.3,8.3h-33v33c0,4.6-3.7,8.3-8.3,8.3h-33
		c-4.6,0-8.3-3.7-8.3-8.3v-33h-33c-4.6,0-8.3-3.7-8.3-8.3V214.7z"/>
</g>
</svg>
