<?xml version="1.0" encoding="utf-8"?>
<!-- Generator: Adobe Illustrator 25.4.1, SVG Export Plug-In . SVG Version: 6.00 Build 0)  -->
<svg version="1.1" id="Camada_1" xmlns="http://www.w3.org/2000/svg" xmlns:xlink="http://www.w3.org/1999/xlink" x="0px" y="0px"
	 viewBox="0 0 269 269" style="enable-background:new 0 0 269 269;" xml:space="preserve">
<style type="text/css">
	.st0{fill:#AA74AD;}
</style>
<g>
	<g>
		<path class="st0" d="M41.8,143.6c-8.6-9.3-15.7-19.6-21.1-30.6c-3.9,7.9-7.1,16-9.6,24.2C21.2,139.6,31.4,141.7,41.8,143.6z"/>
		<path class="st0" d="M227.2,143.6c10.3-1.9,20.6-4,30.7-6.4c-2.4-8.2-5.6-16.3-9.6-24.2C242.9,124.1,235.8,134.4,227.2,143.6z"/>
		<path class="st0" d="M226.5,178.4l37-8.1c-0.3-6.2-0.9-12.4-2-18.5c-18.4,4.5-37.2,7.9-56,10.4c-20.8,14.1-45.3,21.7-71,21.7
			s-50.2-7.6-71-21.7c-18.8-2.5-37.5-6-56-10.4c-1.1,6.1-1.8,12.3-2,18.5l37,8.1c21.8,4.8,41.7,15.5,57.6,31.1l20.4,20h27.9l20.4-20
			C184.8,193.9,204.7,183.2,226.5,178.4z"/>
		<path class="st0" d="M109.9,263.6v-23.3l-20.4-20c-13.9-13.6-31.2-23-50.2-27.1l-33.6-7.3c1.4,25.3,7.6,63,10.1,77.7H109.9z"/>
		<path class="st0" d="M229.7,193.2c-19,4.1-36.4,13.5-50.2,27.1l-20.4,20v23.3h94.1c2.5-14.7,8.7-52.4,10.1-77.7L229.7,193.2z"/>
		<path class="st0" d="M97.1,110.8l13.4,13.4l25.7-25.7l25.7,25.7l13.4-13.4l-25.7-25.7l25.7-25.7l-13.4-13.4l-25.7,25.7l-25.7-25.7
			L97.1,59.5l25.7,25.7L97.1,110.8z"/>
		<path class="st0" d="M134.5,168.9C196,168.9,246,118.9,246,57.4c0-18.1-4.4-36-12.8-52H35.8C27.4,21.4,23,39.3,23,57.4
			C22.9,118.9,73,168.9,134.5,168.9z M75.6,59.4l34.8-34.8l25.7,25.7l25.7-25.7l34.8,34.8l-25.7,25.7l25.7,25.7l-34.8,34.8
			l-25.7-25.7l-25.7,25.7l-34.8-34.8l25.7-25.7L75.6,59.4z"/>
	</g>
</g>
</svg>
