<svg width="793" height="374" viewBox="0 0 793 374" fill="none" xmlns="http://www.w3.org/2000/svg">
<path d="M306.515 223.845C303.128 223.845 300.301 221.256 300.009 217.875L297.229 185.978L289.664 117.244H288.496L252.382 204.704C251.338 207.24 248.865 208.892 246.123 208.892C243.35 208.892 240.854 207.201 239.832 204.627L205.047 117.252H203.88L196.314 185.402L193.196 217.936C192.874 221.286 190.062 223.845 186.691 223.845H183.695L196.599 104.258C196.875 101.707 199.026 99.7779 201.591 99.7779H205.032C207.136 99.7779 209.018 101.092 209.74 103.067L215.516 118.804L245.984 195.499H246.952L279.164 117.252L284.541 103.021C285.278 101.069 287.152 99.7702 289.234 99.7702H292.682C295.255 99.7702 297.413 101.722 297.674 104.281L309.833 223.837H306.515V223.845Z" fill="#AB74AE"/>
<path d="M497.668 177.633L474.764 111.98C474.649 111.642 474.334 111.419 473.981 111.419C473.635 111.419 473.328 111.634 473.205 111.957L448.182 177.633L444.687 186.562L434.595 212.965L432.429 218.92C431.369 221.686 429.634 223.838 426.677 223.838H421.208L467.322 103.021C468.067 101.061 469.949 99.7702 472.038 99.7702H476.423C478.574 99.7702 480.486 101.13 481.193 103.159L523.29 223.838H517.868C514.895 223.838 513.113 222.608 511.692 219.058L509.719 213.525L500.771 186.562" fill="#AB74AE"/>
<path d="M53.5335 297.382H51.6364C51.4137 297.382 51.2293 297.32 51.0834 297.198C50.9375 297.075 50.83 296.921 50.7455 296.729L46.7286 286.778H30.0311L26.0449 296.729C25.9834 296.906 25.8682 297.059 25.7069 297.19C25.5456 297.32 25.3536 297.382 25.1309 297.382H23.2568L37.174 263.134H39.6241L53.5335 297.382ZM30.7761 284.941H46.0143L39.0711 267.637C38.9558 267.36 38.8483 267.053 38.7331 266.707C38.6179 266.361 38.5104 265.992 38.3952 265.608C38.28 265.992 38.1724 266.361 38.0572 266.707C37.942 267.053 37.8345 267.376 37.7193 267.66L30.7761 284.941Z" fill="#AB74AE"/>
<path d="M73.5104 276.52C73.4336 276.596 73.3568 276.666 73.28 276.727C73.2108 276.781 73.111 276.812 72.9804 276.812C72.8191 276.812 72.5964 276.704 72.3199 276.481C72.0357 276.266 71.667 276.028 71.1985 275.767C70.73 275.505 70.154 275.267 69.4551 275.052C68.7561 274.837 67.9113 274.722 66.9205 274.722C65.5457 274.722 64.3168 274.967 63.2569 275.459C62.1893 275.951 61.2906 276.658 60.5687 277.58C59.839 278.502 59.286 279.616 58.8943 280.923C58.5103 282.229 58.3183 283.697 58.3183 285.326C58.3183 287.024 58.518 288.522 58.9097 289.828C59.3014 291.135 59.8621 292.234 60.584 293.133C61.306 294.032 62.1816 294.708 63.2031 295.177C64.2246 295.645 65.369 295.876 66.6133 295.876C67.7653 295.876 68.7331 295.738 69.5088 295.461C70.2846 295.184 70.9297 294.885 71.429 294.562C71.9359 294.239 72.3353 293.939 72.6271 293.663C72.9267 293.386 73.1571 293.248 73.3337 293.248C73.5411 293.248 73.7024 293.332 73.8176 293.486L74.4397 294.262C74.0711 294.746 73.6102 295.2 73.0495 295.615C72.4889 296.037 71.8591 296.398 71.1525 296.706C70.4458 297.013 69.6855 297.251 68.856 297.42C68.0265 297.589 67.1663 297.674 66.2753 297.674C64.7546 297.674 63.3644 297.397 62.1048 296.836C60.8452 296.283 59.7622 295.476 58.8559 294.416C57.9496 293.355 57.243 292.065 56.7438 290.528C56.2445 288.991 55.9834 287.254 55.9834 285.303C55.9834 283.466 56.2215 281.783 56.7054 280.269C57.1892 278.756 57.8882 277.449 58.8098 276.351C59.7315 275.252 60.8605 274.399 62.197 273.799C63.5334 273.192 65.0695 272.893 66.7976 272.893C68.3491 272.893 69.7316 273.146 70.9451 273.646C72.1509 274.145 73.2108 274.821 74.1095 275.682L73.5104 276.52Z" fill="#AB74AE"/>
<path d="M88.749 272.908C90.4618 272.908 91.9979 273.2 93.3496 273.792C94.7014 274.383 95.8458 275.213 96.7752 276.297C97.7045 277.38 98.4111 278.679 98.9027 280.208C99.3942 281.729 99.6323 283.443 99.6323 285.326C99.6323 287.208 99.3865 288.914 98.9027 290.436C98.4111 291.949 97.7045 293.256 96.7752 294.331C95.8458 295.415 94.7014 296.245 93.3496 296.821C91.9979 297.405 90.4618 297.689 88.749 297.689C87.0362 297.689 85.5001 297.397 84.1484 296.821C82.7966 296.237 81.6522 295.407 80.7075 294.331C79.7705 293.248 79.0562 291.949 78.5646 290.436C78.0731 288.922 77.835 287.216 77.835 285.326C77.835 283.435 78.0807 281.729 78.5646 280.208C79.0562 278.687 79.7628 277.38 80.7075 276.297C81.6445 275.213 82.7889 274.383 84.1484 273.792C85.5001 273.208 87.0286 272.908 88.749 272.908ZM88.749 295.884C90.1776 295.884 91.4218 295.638 92.4894 295.146C93.557 294.654 94.448 293.947 95.1546 293.025C95.8689 292.103 96.3988 290.996 96.7521 289.698C97.1054 288.399 97.2821 286.939 97.2821 285.326C97.2821 283.727 97.1054 282.275 96.7521 280.969C96.3988 279.662 95.8689 278.548 95.1546 277.618C94.4403 276.689 93.5493 275.974 92.4894 275.475C91.4218 274.975 90.1776 274.722 88.749 274.722C87.3204 274.722 86.0762 274.975 85.0086 275.475C83.941 275.974 83.05 276.689 82.3434 277.618C81.6291 278.548 81.0915 279.662 80.7305 280.969C80.3695 282.275 80.1929 283.727 80.1929 285.326C80.1929 286.939 80.3695 288.399 80.7305 289.698C81.0915 290.996 81.6291 292.103 82.3434 293.025C83.0577 293.947 83.9487 294.654 85.0086 295.146C86.0762 295.638 87.3204 295.884 88.749 295.884Z" fill="#AB74AE"/>
<path d="M108.603 262.166V297.382H106.322V262.166H108.603Z" fill="#AB74AE"/>
<path d="M117.06 297.382V262.166H119.341V277.419C120.447 276.051 121.706 274.952 123.127 274.138C124.548 273.323 126.138 272.916 127.897 272.916C129.21 272.916 130.37 273.123 131.368 273.546C132.367 273.969 133.196 274.568 133.857 275.359C134.51 276.151 135.009 277.104 135.347 278.218C135.685 279.332 135.854 280.592 135.854 281.991V297.382H133.573V281.991C133.573 279.732 133.058 277.964 132.037 276.681C131.007 275.398 129.441 274.76 127.328 274.76C125.762 274.76 124.302 275.167 122.951 275.982C121.606 276.796 120.401 277.918 119.348 279.332V297.39H117.06V297.382Z" fill="#AB74AE"/>
<path d="M147.036 264.993C147.036 265.285 146.975 265.554 146.86 265.808C146.737 266.062 146.583 266.277 146.391 266.477C146.199 266.669 145.976 266.822 145.715 266.938C145.462 267.053 145.185 267.107 144.901 267.107C144.617 267.107 144.341 267.053 144.087 266.938C143.834 266.822 143.603 266.669 143.411 266.477C143.219 266.284 143.066 266.062 142.958 265.808C142.843 265.554 142.789 265.285 142.789 264.993C142.789 264.701 142.843 264.425 142.958 264.156C143.073 263.887 143.219 263.656 143.411 263.464C143.603 263.272 143.826 263.119 144.087 263.003C144.341 262.888 144.617 262.834 144.901 262.834C145.185 262.834 145.462 262.888 145.715 263.003C145.969 263.119 146.199 263.272 146.391 263.464C146.583 263.656 146.737 263.887 146.86 264.156C146.975 264.425 147.036 264.709 147.036 264.993ZM146.023 273.3V297.382H143.741V273.3H146.023Z" fill="#AB74AE"/>
<path d="M154.486 297.382V273.3H155.738C156.153 273.3 156.391 273.5 156.46 273.907L156.675 277.396C157.136 276.735 157.635 276.128 158.165 275.582C158.695 275.037 159.256 274.56 159.863 274.168C160.462 273.776 161.107 273.469 161.783 273.246C162.466 273.031 163.181 272.916 163.933 272.916C165.677 272.916 167.075 273.431 168.119 274.453C169.164 275.475 169.863 276.904 170.231 278.725C170.516 277.726 170.923 276.858 171.445 276.135C171.967 275.413 172.559 274.806 173.235 274.33C173.91 273.853 174.64 273.5 175.431 273.262C176.222 273.031 177.036 272.908 177.866 272.908C179.049 272.908 180.116 273.108 181.061 273.5C182.006 273.892 182.812 274.483 183.473 275.252C184.133 276.028 184.648 276.981 184.993 278.11C185.347 279.24 185.523 280.531 185.523 281.983V297.374H183.242V281.983C183.242 279.624 182.735 277.834 181.729 276.596C180.723 275.359 179.279 274.745 177.405 274.745C176.576 274.745 175.777 274.898 175.016 275.206C174.256 275.513 173.58 275.966 172.996 276.573C172.413 277.18 171.944 277.934 171.606 278.84C171.261 279.747 171.092 280.792 171.092 281.983V297.374H168.811V281.983C168.811 279.647 168.342 277.849 167.42 276.612C166.491 275.367 165.139 274.745 163.357 274.745C162.059 274.745 160.861 275.136 159.755 275.92C158.649 276.704 157.666 277.788 156.798 279.178V297.382H154.486V297.382Z" fill="#AB74AE"/>
<path d="M201.737 272.908C203.081 272.908 204.325 273.139 205.477 273.607C206.622 274.076 207.62 274.76 208.457 275.651C209.302 276.55 209.955 277.649 210.431 278.955C210.907 280.262 211.138 281.76 211.138 283.458C211.138 283.812 211.084 284.058 210.984 284.181C210.877 284.311 210.715 284.373 210.493 284.373H193.234V284.834C193.234 286.64 193.442 288.23 193.856 289.606C194.271 290.981 194.863 292.126 195.638 293.056C196.414 293.986 197.336 294.685 198.426 295.146C199.517 295.615 200.731 295.845 202.082 295.845C203.281 295.845 204.325 295.714 205.208 295.446C206.092 295.177 206.829 294.885 207.436 294.547C208.035 294.216 208.511 293.916 208.864 293.647C209.218 293.379 209.471 293.248 209.632 293.248C209.84 293.248 210.001 293.332 210.116 293.486L210.738 294.262C210.354 294.746 209.847 295.2 209.21 295.615C208.58 296.037 207.873 296.391 207.098 296.69C206.322 296.99 205.485 297.228 204.602 297.405C203.711 297.582 202.82 297.674 201.921 297.674C200.285 297.674 198.795 297.39 197.451 296.813C196.107 296.237 194.947 295.407 193.987 294.308C193.019 293.209 192.274 291.865 191.752 290.282C191.222 288.691 190.961 286.87 190.961 284.826C190.961 283.097 191.207 281.507 191.691 280.047C192.182 278.587 192.881 277.326 193.803 276.274C194.724 275.221 195.853 274.391 197.19 273.792C198.519 273.208 200.039 272.908 201.737 272.908ZM201.775 274.629C200.546 274.629 199.44 274.821 198.465 275.213C197.489 275.598 196.645 276.158 195.93 276.881C195.216 277.611 194.64 278.479 194.202 279.493C193.764 280.508 193.472 281.645 193.327 282.905H209.072C209.072 281.614 208.895 280.454 208.542 279.432C208.188 278.41 207.697 277.542 207.052 276.827C206.414 276.12 205.646 275.574 204.747 275.19C203.857 274.821 202.858 274.629 201.775 274.629Z" fill="#AB74AE"/>
<path d="M217.29 297.382V273.3H218.542C218.957 273.3 219.195 273.5 219.264 273.907L219.479 277.542C220.57 276.151 221.837 275.037 223.289 274.191C224.74 273.346 226.353 272.923 228.135 272.923C229.448 272.923 230.608 273.131 231.607 273.554C232.605 273.976 233.435 274.576 234.095 275.367C234.748 276.158 235.247 277.111 235.585 278.226C235.923 279.34 236.092 280.6 236.092 281.998V297.39H233.811V281.998C233.811 279.739 233.296 277.972 232.275 276.689C231.246 275.405 229.679 274.768 227.567 274.768C226 274.768 224.54 275.175 223.189 275.989C221.845 276.804 220.639 277.926 219.587 279.34V297.397H217.29V297.382Z" fill="#AB74AE"/>
<path d="M249.81 297.766C248.189 297.766 246.929 297.313 246.038 296.414C245.14 295.507 244.694 294.116 244.694 292.226V275.767H241.253C241.077 275.767 240.931 275.72 240.823 275.621C240.716 275.521 240.654 275.39 240.654 275.206V274.307L244.74 274.015L245.309 265.401C245.324 265.255 245.386 265.124 245.485 265.017C245.585 264.901 245.723 264.848 245.9 264.848H246.968V274.045H254.495V275.767H246.968V292.103C246.968 292.764 247.052 293.332 247.221 293.809C247.39 294.285 247.621 294.677 247.92 294.985C248.22 295.292 248.565 295.515 248.965 295.661C249.364 295.807 249.794 295.876 250.263 295.876C250.839 295.876 251.338 295.791 251.753 295.622C252.167 295.453 252.528 295.269 252.836 295.069C253.143 294.869 253.389 294.685 253.581 294.516C253.773 294.347 253.926 294.262 254.034 294.262C254.164 294.262 254.287 294.347 254.418 294.5L255.04 295.515C254.433 296.191 253.657 296.736 252.72 297.151C251.791 297.566 250.816 297.766 249.81 297.766Z" fill="#AB74AE"/>
<path d="M269.541 272.908C271.254 272.908 272.79 273.2 274.142 273.792C275.493 274.383 276.638 275.213 277.567 276.297C278.497 277.38 279.203 278.679 279.695 280.208C280.186 281.729 280.424 283.443 280.424 285.326C280.424 287.208 280.179 288.914 279.695 290.436C279.203 291.949 278.497 293.256 277.567 294.331C276.638 295.415 275.493 296.245 274.142 296.821C272.79 297.405 271.254 297.689 269.541 297.689C267.828 297.689 266.292 297.397 264.94 296.821C263.589 296.237 262.444 295.407 261.499 294.331C260.562 293.248 259.848 291.949 259.357 290.436C258.865 288.922 258.627 287.216 258.627 285.326C258.627 283.435 258.873 281.729 259.357 280.208C259.848 278.687 260.555 277.38 261.499 276.297C262.436 275.213 263.581 274.383 264.94 273.792C266.292 273.208 267.828 272.908 269.541 272.908ZM269.541 295.884C270.97 295.884 272.214 295.638 273.281 295.146C274.349 294.654 275.24 293.947 275.947 293.025C276.661 292.103 277.191 290.996 277.544 289.698C277.897 288.399 278.074 286.939 278.074 285.326C278.074 283.727 277.897 282.275 277.544 280.969C277.191 279.662 276.661 278.548 275.947 277.618C275.232 276.689 274.341 275.974 273.281 275.475C272.214 274.975 270.97 274.722 269.541 274.722C268.112 274.722 266.868 274.975 265.801 275.475C264.733 275.974 263.842 276.689 263.135 277.618C262.421 278.548 261.883 279.662 261.523 280.969C261.162 282.275 260.985 283.727 260.985 285.326C260.985 286.939 261.162 288.399 261.523 289.698C261.883 290.996 262.421 292.103 263.135 293.025C263.85 293.947 264.741 294.654 265.801 295.146C266.868 295.638 268.12 295.884 269.541 295.884Z" fill="#AB74AE"/>
<path d="M312.682 297.382C312.283 297.382 312.06 297.174 311.991 296.752L311.753 292.948C310.693 294.401 309.457 295.553 308.036 296.406C306.615 297.259 305.025 297.689 303.258 297.689C300.325 297.689 298.028 296.667 296.384 294.616C294.741 292.564 293.919 289.49 293.919 285.395C293.919 283.635 294.149 281.991 294.603 280.469C295.063 278.948 295.732 277.618 296.623 276.497C297.513 275.375 298.604 274.491 299.894 273.846C301.185 273.2 302.675 272.877 304.357 272.877C305.977 272.877 307.383 273.177 308.566 273.784C309.756 274.391 310.778 275.275 311.646 276.435V262.158H313.927V297.374H312.682V297.382ZM303.904 295.83C305.494 295.83 306.93 295.415 308.212 294.593C309.495 293.77 310.647 292.625 311.653 291.158V278.448C310.724 277.081 309.702 276.112 308.581 275.544C307.467 274.983 306.2 274.699 304.787 274.699C303.374 274.699 302.137 274.96 301.077 275.475C300.017 275.989 299.134 276.719 298.42 277.665C297.705 278.61 297.168 279.739 296.807 281.053C296.446 282.367 296.262 283.82 296.262 285.395C296.262 288.976 296.922 291.611 298.235 293.294C299.549 294.977 301.446 295.83 303.904 295.83Z" fill="#AB74AE"/>
<path d="M330.978 272.908C332.322 272.908 333.566 273.139 334.718 273.607C335.863 274.076 336.861 274.76 337.698 275.651C338.543 276.55 339.196 277.649 339.672 278.955C340.149 280.262 340.379 281.76 340.379 283.458C340.379 283.812 340.325 284.058 340.225 284.181C340.118 284.311 339.956 284.373 339.734 284.373H322.476V284.834C322.476 286.64 322.683 288.23 323.098 289.606C323.512 290.981 324.104 292.126 324.88 293.056C325.655 293.986 326.577 294.685 327.668 295.146C328.758 295.615 329.972 295.845 331.324 295.845C332.522 295.845 333.566 295.714 334.45 295.446C335.333 295.177 336.07 294.885 336.677 294.547C337.276 294.216 337.752 293.916 338.105 293.647C338.459 293.379 338.712 293.248 338.874 293.248C339.081 293.248 339.242 293.332 339.357 293.486L339.98 294.262C339.596 294.746 339.089 295.2 338.451 295.615C337.821 296.037 337.115 296.391 336.339 296.69C335.563 296.99 334.726 297.228 333.843 297.405C332.952 297.582 332.061 297.674 331.162 297.674C329.526 297.674 328.036 297.39 326.692 296.813C325.348 296.237 324.188 295.407 323.228 294.308C322.261 293.209 321.516 291.865 320.993 290.282C320.463 288.691 320.202 286.87 320.202 284.826C320.202 283.097 320.448 281.507 320.932 280.047C321.423 278.587 322.122 277.326 323.044 276.274C323.966 275.221 325.095 274.391 326.431 273.792C327.76 273.208 329.281 272.908 330.978 272.908ZM331.016 274.629C329.787 274.629 328.681 274.821 327.706 275.213C326.731 275.598 325.886 276.158 325.171 276.881C324.457 277.611 323.881 278.479 323.443 279.493C323.006 280.508 322.714 281.645 322.568 282.905H338.313C338.313 281.614 338.136 280.454 337.783 279.432C337.43 278.41 336.938 277.542 336.293 276.827C335.655 276.12 334.887 275.574 333.989 275.19C333.098 274.821 332.099 274.629 331.016 274.629Z" fill="#AB74AE"/>
<path d="M360.133 283.581V297.382H357.683V263.134H366.454C370.44 263.134 373.451 264.01 375.478 265.77C377.506 267.529 378.52 270.042 378.52 273.3C378.52 274.798 378.243 276.182 377.69 277.442C377.137 278.702 376.339 279.785 375.302 280.7C374.257 281.614 372.998 282.321 371.508 282.828C370.018 283.335 368.336 283.589 366.461 283.589H360.133V283.581ZM360.133 281.599H366.454C367.959 281.599 369.303 281.391 370.494 280.969C371.677 280.546 372.683 279.97 373.512 279.224C374.334 278.479 374.971 277.611 375.409 276.596C375.847 275.59 376.07 274.483 376.07 273.292C376.07 270.664 375.263 268.636 373.65 267.214C372.038 265.793 369.641 265.086 366.454 265.086H360.133V281.599V281.599Z" fill="#AB74AE"/>
<path d="M392.629 272.908C393.973 272.908 395.218 273.139 396.37 273.607C397.514 274.076 398.513 274.76 399.35 275.651C400.195 276.55 400.847 277.649 401.324 278.955C401.8 280.262 402.03 281.76 402.03 283.458C402.03 283.812 401.977 284.058 401.877 284.181C401.769 284.311 401.608 284.373 401.385 284.373H384.127V284.834C384.127 286.64 384.334 288.23 384.749 289.606C385.164 290.981 385.755 292.126 386.531 293.056C387.307 293.986 388.228 294.685 389.319 295.146C390.41 295.615 391.623 295.845 392.975 295.845C394.173 295.845 395.218 295.714 396.101 295.446C396.984 295.177 397.721 294.885 398.328 294.547C398.927 294.216 399.404 293.916 399.757 293.647C400.11 293.379 400.364 293.248 400.525 293.248C400.732 293.248 400.894 293.332 401.009 293.486L401.631 294.262C401.247 294.746 400.74 295.2 400.102 295.615C399.473 296.037 398.766 296.391 397.99 296.69C397.215 296.99 396.377 297.228 395.494 297.405C394.603 297.582 393.712 297.674 392.814 297.674C391.178 297.674 389.688 297.39 388.344 296.813C386.999 296.237 385.84 295.407 384.88 294.308C383.912 293.209 383.167 291.865 382.645 290.282C382.115 288.691 381.854 286.87 381.854 284.826C381.854 283.097 382.099 281.507 382.583 280.047C383.075 278.587 383.774 277.326 384.695 276.274C385.617 275.221 386.746 274.391 388.082 273.792C389.411 273.208 390.932 272.908 392.629 272.908ZM392.668 274.629C391.439 274.629 390.333 274.821 389.357 275.213C388.382 275.598 387.537 276.158 386.823 276.881C386.109 277.611 385.532 278.479 385.095 279.493C384.657 280.508 384.365 281.645 384.219 282.905H399.964C399.964 281.614 399.788 280.454 399.434 279.432C399.081 278.41 398.589 277.542 397.944 276.827C397.307 276.12 396.539 275.574 395.64 275.19C394.749 274.821 393.751 274.629 392.668 274.629Z" fill="#AB74AE"/>
<path d="M421.355 276.297C421.24 276.52 421.063 276.635 420.825 276.635C420.648 276.635 420.418 276.535 420.141 276.335C419.857 276.135 419.488 275.905 419.035 275.659C418.582 275.405 418.014 275.183 417.353 274.983C416.685 274.783 415.879 274.683 414.911 274.683C414.043 274.683 413.26 274.806 412.545 275.06C411.831 275.306 411.224 275.644 410.717 276.059C410.21 276.474 409.819 276.965 409.542 277.519C409.258 278.072 409.12 278.656 409.12 279.271C409.12 280.024 409.312 280.654 409.696 281.153C410.08 281.653 410.587 282.075 411.209 282.429C411.831 282.782 412.545 283.09 413.336 283.343C414.127 283.604 414.942 283.858 415.779 284.119C416.608 284.38 417.422 284.665 418.221 284.98C419.012 285.295 419.727 285.687 420.349 286.155C420.971 286.624 421.478 287.193 421.862 287.877C422.246 288.553 422.438 289.375 422.438 290.343C422.438 291.396 422.246 292.372 421.869 293.271C421.493 294.178 420.948 294.954 420.233 295.622C419.519 296.283 418.644 296.806 417.599 297.198C416.555 297.582 415.372 297.782 414.043 297.782C412.361 297.782 410.909 297.513 409.696 296.967C408.475 296.429 407.392 295.722 406.424 294.846L406.977 294.024C407.054 293.893 407.146 293.801 407.238 293.732C407.338 293.671 407.468 293.632 407.645 293.632C407.852 293.632 408.106 293.763 408.413 294.016C408.72 294.278 409.112 294.554 409.604 294.854C410.095 295.154 410.702 295.43 411.432 295.691C412.161 295.953 413.06 296.076 414.135 296.076C415.141 296.076 416.032 295.937 416.8 295.653C417.568 295.369 418.213 294.985 418.72 294.5C419.235 294.016 419.619 293.448 419.888 292.795C420.157 292.141 420.287 291.45 420.287 290.728C420.287 289.921 420.095 289.252 419.711 288.722C419.327 288.192 418.82 287.738 418.198 287.37C417.576 287.001 416.862 286.686 416.071 286.424C415.28 286.163 414.458 285.91 413.621 285.648C412.783 285.387 411.962 285.11 411.17 284.803C410.379 284.496 409.665 284.112 409.043 283.643C408.421 283.174 407.914 282.605 407.53 281.937C407.146 281.268 406.954 280.431 406.954 279.432C406.954 278.579 407.138 277.757 407.507 276.965C407.875 276.174 408.398 275.482 409.081 274.883C409.765 274.284 410.594 273.807 411.57 273.454C412.545 273.1 413.644 272.923 414.865 272.923C416.324 272.923 417.614 273.139 418.743 273.561C419.873 273.984 420.909 274.637 421.854 275.513L421.355 276.297Z" fill="#AB74AE"/>
<path d="M442.023 276.297C441.908 276.52 441.731 276.635 441.493 276.635C441.316 276.635 441.086 276.535 440.809 276.335C440.525 276.135 440.156 275.905 439.703 275.659C439.25 275.405 438.682 275.183 438.021 274.983C437.353 274.783 436.547 274.683 435.579 274.683C434.711 274.683 433.927 274.806 433.213 275.06C432.499 275.306 431.892 275.644 431.385 276.059C430.878 276.474 430.487 276.965 430.21 277.519C429.926 278.072 429.788 278.656 429.788 279.271C429.788 280.024 429.98 280.654 430.364 281.153C430.748 281.653 431.255 282.075 431.877 282.429C432.499 282.782 433.213 283.09 434.004 283.343C434.795 283.604 435.61 283.858 436.447 284.119C437.276 284.38 438.09 284.665 438.889 284.98C439.68 285.295 440.395 285.687 441.017 286.155C441.639 286.624 442.146 287.193 442.53 287.877C442.914 288.553 443.106 289.375 443.106 290.343C443.106 291.396 442.914 292.372 442.537 293.271C442.161 294.178 441.616 294.954 440.901 295.622C440.187 296.283 439.312 296.806 438.267 297.198C437.222 297.582 436.04 297.782 434.711 297.782C433.029 297.782 431.577 297.513 430.364 296.967C429.143 296.429 428.06 295.722 427.092 294.846L427.645 294.024C427.722 293.893 427.814 293.801 427.906 293.732C428.006 293.671 428.136 293.632 428.313 293.632C428.52 293.632 428.774 293.763 429.081 294.016C429.388 294.278 429.78 294.554 430.272 294.854C430.763 295.154 431.37 295.43 432.1 295.691C432.829 295.953 433.728 296.076 434.803 296.076C435.809 296.076 436.7 295.937 437.468 295.653C438.236 295.369 438.881 294.985 439.388 294.5C439.903 294.016 440.287 293.448 440.556 292.795C440.825 292.141 440.955 291.45 440.955 290.728C440.955 289.921 440.763 289.252 440.379 288.722C439.995 288.192 439.488 287.738 438.866 287.37C438.244 287.001 437.53 286.686 436.739 286.424C435.947 286.163 435.126 285.91 434.288 285.648C433.451 285.387 432.629 285.11 431.838 284.803C431.047 284.496 430.333 284.112 429.711 283.643C429.089 283.174 428.582 282.605 428.198 281.937C427.814 281.268 427.622 280.431 427.622 279.432C427.622 278.579 427.806 277.757 428.175 276.965C428.543 276.174 429.066 275.482 429.749 274.883C430.433 274.284 431.262 273.807 432.238 273.454C433.213 273.1 434.312 272.923 435.533 272.923C436.992 272.923 438.282 273.139 439.411 273.561C440.54 273.984 441.577 274.637 442.522 275.513L442.023 276.297Z" fill="#AB74AE"/>
<path d="M458.636 272.908C460.348 272.908 461.885 273.2 463.236 273.792C464.588 274.383 465.733 275.213 466.662 276.297C467.591 277.38 468.298 278.679 468.789 280.208C469.281 281.729 469.519 283.443 469.519 285.326C469.519 287.208 469.273 288.914 468.789 290.436C468.298 291.949 467.591 293.256 466.662 294.331C465.733 295.415 464.588 296.245 463.236 296.821C461.885 297.405 460.348 297.689 458.636 297.689C456.923 297.689 455.387 297.397 454.035 296.821C452.683 296.237 451.539 295.407 450.594 294.331C449.657 293.248 448.943 291.949 448.451 290.436C447.96 288.922 447.722 287.216 447.722 285.326C447.722 283.435 447.967 281.729 448.451 280.208C448.943 278.687 449.649 277.38 450.594 276.297C451.531 275.213 452.676 274.383 454.035 273.792C455.387 273.208 456.915 272.908 458.636 272.908ZM458.636 295.884C460.064 295.884 461.309 295.638 462.376 295.146C463.444 294.654 464.335 293.947 465.041 293.025C465.756 292.103 466.286 290.996 466.639 289.698C466.992 288.399 467.169 286.939 467.169 285.326C467.169 283.727 466.992 282.275 466.639 280.969C466.286 279.662 465.756 278.548 465.041 277.618C464.327 276.689 463.436 275.974 462.376 275.475C461.309 274.975 460.064 274.722 458.636 274.722C457.207 274.722 455.963 274.975 454.895 275.475C453.828 275.974 452.937 276.689 452.23 277.618C451.516 278.548 450.978 279.662 450.617 280.969C450.256 282.275 450.08 283.727 450.08 285.326C450.08 286.939 450.256 288.399 450.617 289.698C450.978 290.996 451.516 292.103 452.23 293.025C452.944 293.947 453.835 294.654 454.895 295.146C455.963 295.638 457.207 295.884 458.636 295.884Z" fill="#AB74AE"/>
<path d="M490.794 297.382C490.31 297.382 490.018 297.159 489.903 296.706L489.565 293.632C488.905 294.278 488.252 294.862 487.607 295.376C486.962 295.891 486.278 296.329 485.579 296.683C484.872 297.036 484.112 297.305 483.298 297.497C482.484 297.689 481.585 297.774 480.602 297.774C479.788 297.774 478.989 297.651 478.221 297.413C477.453 297.167 476.77 296.798 476.178 296.299C475.587 295.799 475.111 295.154 474.75 294.377C474.389 293.594 474.212 292.656 474.212 291.557C474.212 290.543 474.504 289.598 475.08 288.722C475.656 287.854 476.554 287.093 477.783 286.447C479.012 285.802 480.587 285.287 482.522 284.895C484.45 284.511 486.77 284.281 489.481 284.219V281.699C489.481 279.47 489.005 277.757 488.052 276.558C487.1 275.359 485.687 274.752 483.813 274.752C482.66 274.752 481.677 274.914 480.871 275.236C480.065 275.559 479.373 275.913 478.813 276.304C478.252 276.689 477.791 277.05 477.445 277.373C477.1 277.695 476.8 277.857 476.554 277.857C476.232 277.857 475.994 277.711 475.833 277.419L475.425 276.719C476.677 275.459 477.991 274.506 479.366 273.861C480.74 273.215 482.307 272.893 484.051 272.893C485.333 272.893 486.455 273.1 487.415 273.507C488.375 273.922 489.174 274.506 489.803 275.275C490.433 276.043 490.909 276.973 491.232 278.056C491.555 279.14 491.716 280.362 491.716 281.699V297.382H490.794ZM481.178 296.099C482.107 296.099 482.96 295.999 483.736 295.799C484.512 295.599 485.233 295.315 485.902 294.954C486.57 294.593 487.184 294.162 487.768 293.655C488.344 293.156 488.912 292.618 489.473 292.034V285.764C487.2 285.825 485.241 286.002 483.598 286.286C481.954 286.57 480.602 286.955 479.535 287.439C478.467 287.923 477.684 288.499 477.177 289.168C476.67 289.836 476.416 290.597 476.416 291.458C476.416 292.264 476.547 292.964 476.816 293.548C477.084 294.132 477.43 294.623 477.86 295C478.29 295.376 478.797 295.661 479.373 295.837C479.949 296.014 480.556 296.099 481.178 296.099Z" fill="#AB74AE"/>
<path d="M512.092 276.297C511.977 276.52 511.8 276.635 511.562 276.635C511.386 276.635 511.155 276.535 510.879 276.335C510.594 276.135 510.226 275.905 509.773 275.659C509.319 275.405 508.751 275.183 508.091 274.983C507.422 274.783 506.616 274.683 505.648 274.683C504.78 274.683 503.997 274.806 503.283 275.06C502.568 275.306 501.961 275.644 501.455 276.059C500.948 276.474 500.556 276.965 500.279 277.519C499.995 278.072 499.857 278.656 499.857 279.271C499.857 280.024 500.049 280.654 500.433 281.153C500.817 281.653 501.324 282.075 501.946 282.429C502.568 282.782 503.283 283.09 504.074 283.343C504.865 283.604 505.679 283.858 506.516 284.119C507.346 284.38 508.16 284.665 508.958 284.98C509.75 285.295 510.464 285.687 511.086 286.155C511.708 286.624 512.215 287.193 512.599 287.877C512.983 288.553 513.175 289.375 513.175 290.343C513.175 291.396 512.983 292.372 512.607 293.271C512.23 294.178 511.685 294.954 510.971 295.622C510.257 296.283 509.381 296.806 508.336 297.198C507.292 297.582 506.109 297.782 504.78 297.782C503.098 297.782 501.647 297.513 500.433 296.967C499.212 296.429 498.129 295.722 497.161 294.846L497.714 294.024C497.791 293.893 497.883 293.801 497.975 293.732C498.075 293.671 498.206 293.632 498.382 293.632C498.59 293.632 498.843 293.763 499.15 294.016C499.458 294.278 499.849 294.554 500.341 294.854C500.832 295.154 501.439 295.43 502.169 295.691C502.899 295.953 503.797 296.076 504.872 296.076C505.879 296.076 506.77 295.937 507.538 295.653C508.306 295.369 508.951 294.985 509.458 294.5C509.972 294.016 510.356 293.448 510.625 292.795C510.894 292.141 511.025 291.45 511.025 290.728C511.025 289.921 510.833 289.252 510.448 288.722C510.064 288.192 509.558 287.738 508.935 287.37C508.313 287.001 507.599 286.686 506.808 286.424C506.017 286.163 505.195 285.91 504.358 285.648C503.521 285.387 502.699 285.11 501.908 284.803C501.117 284.496 500.402 284.112 499.78 283.643C499.158 283.174 498.651 282.605 498.267 281.937C497.883 281.268 497.691 280.431 497.691 279.432C497.691 278.579 497.875 277.757 498.244 276.965C498.613 276.174 499.135 275.482 499.819 274.883C500.502 274.284 501.332 273.807 502.307 273.454C503.283 273.1 504.381 272.923 505.602 272.923C507.061 272.923 508.352 273.139 509.481 273.561C510.61 273.984 511.647 274.637 512.591 275.513L512.092 276.297Z" fill="#AB74AE"/>
<path d="M537.875 272.908C539.219 272.908 540.464 273.139 541.616 273.607C542.76 274.076 543.759 274.76 544.596 275.651C545.441 276.55 546.094 277.649 546.57 278.955C547.046 280.262 547.276 281.76 547.276 283.458C547.276 283.812 547.223 284.058 547.123 284.181C547.015 284.311 546.854 284.373 546.631 284.373H529.373V284.834C529.373 286.64 529.58 288.23 529.995 289.606C530.41 290.981 531.001 292.126 531.777 293.056C532.553 293.986 533.474 294.685 534.565 295.146C535.656 295.615 536.869 295.845 538.221 295.845C539.419 295.845 540.464 295.714 541.347 295.446C542.23 295.177 542.968 294.885 543.574 294.547C544.173 294.216 544.65 293.916 545.003 293.647C545.356 293.379 545.61 293.248 545.771 293.248C545.978 293.248 546.14 293.332 546.255 293.486L546.877 294.262C546.493 294.746 545.986 295.2 545.348 295.615C544.719 296.037 544.012 296.391 543.236 296.69C542.461 296.99 541.623 297.228 540.74 297.405C539.849 297.582 538.958 297.674 538.06 297.674C536.424 297.674 534.934 297.39 533.59 296.813C532.246 296.237 531.086 295.407 530.126 294.308C529.158 293.209 528.413 291.865 527.891 290.282C527.361 288.691 527.1 286.87 527.1 284.826C527.1 283.097 527.345 281.507 527.829 280.047C528.321 278.587 529.02 277.326 529.941 276.274C530.863 275.221 531.992 274.391 533.329 273.792C534.665 273.208 536.178 272.908 537.875 272.908ZM537.914 274.629C536.685 274.629 535.579 274.821 534.603 275.213C533.628 275.598 532.783 276.158 532.069 276.881C531.355 277.611 530.779 278.479 530.341 279.493C529.903 280.508 529.611 281.645 529.465 282.905H545.21C545.21 281.614 545.034 280.454 544.68 279.432C544.327 278.41 543.835 277.542 543.19 276.827C542.553 276.12 541.785 275.574 540.886 275.19C539.995 274.821 539.004 274.629 537.914 274.629Z" fill="#AB74AE"/>
<path d="M553.429 297.382V273.3H554.681C555.095 273.3 555.333 273.5 555.403 273.907L555.618 277.396C556.078 276.735 556.578 276.128 557.108 275.582C557.638 275.037 558.198 274.56 558.805 274.168C559.404 273.776 560.049 273.469 560.725 273.246C561.409 273.031 562.123 272.916 562.876 272.916C564.619 272.916 566.017 273.431 567.062 274.453C568.106 275.475 568.805 276.904 569.174 278.725C569.458 277.726 569.865 276.858 570.387 276.135C570.91 275.413 571.501 274.806 572.177 274.33C572.853 273.853 573.582 273.5 574.374 273.262C575.165 273.031 575.979 272.908 576.808 272.908C577.991 272.908 579.059 273.108 580.003 273.5C580.948 273.892 581.755 274.483 582.415 275.252C583.076 276.028 583.59 276.981 583.936 278.11C584.289 279.24 584.466 280.531 584.466 281.983V297.374H582.185V281.983C582.185 279.624 581.678 277.834 580.672 276.596C579.665 275.359 578.222 274.745 576.347 274.745C575.518 274.745 574.719 274.898 573.959 275.206C573.198 275.513 572.523 275.966 571.939 276.573C571.355 277.18 570.887 277.934 570.549 278.84C570.203 279.747 570.034 280.792 570.034 281.983V297.374H567.753V281.983C567.753 279.647 567.284 277.849 566.363 276.612C565.433 275.367 564.082 274.745 562.3 274.745C561.002 274.745 559.804 275.136 558.698 275.92C557.592 276.704 556.608 277.788 555.741 279.178V297.382H553.429V297.382Z" fill="#AB74AE"/>
<path d="M614.12 276.297C614.005 276.52 613.829 276.635 613.59 276.635C613.414 276.635 613.183 276.535 612.907 276.335C612.623 276.135 612.254 275.905 611.801 275.659C611.348 275.405 610.779 275.183 610.119 274.983C609.451 274.783 608.644 274.683 607.676 274.683C606.809 274.683 606.025 274.806 605.311 275.06C604.597 275.306 603.99 275.644 603.483 276.059C602.976 276.474 602.584 276.965 602.308 277.519C602.024 278.072 601.885 278.656 601.885 279.271C601.885 280.024 602.077 280.654 602.461 281.153C602.845 281.653 603.352 282.075 603.974 282.429C604.597 282.782 605.311 283.09 606.102 283.343C606.893 283.604 607.707 283.858 608.544 284.119C609.374 284.38 610.188 284.665 610.987 284.98C611.778 285.295 612.492 285.687 613.114 286.155C613.736 286.624 614.243 287.193 614.627 287.877C615.011 288.553 615.203 289.375 615.203 290.343C615.203 291.396 615.011 292.372 614.635 293.271C614.259 294.178 613.713 294.954 612.999 295.622C612.285 296.283 611.409 296.806 610.365 297.198C609.32 297.582 608.137 297.782 606.809 297.782C605.127 297.782 603.675 297.513 602.461 296.967C601.24 296.429 600.157 295.722 599.189 294.846L599.742 294.024C599.819 293.893 599.911 293.801 600.004 293.732C600.103 293.671 600.234 293.632 600.411 293.632C600.618 293.632 600.871 293.763 601.179 294.016C601.486 294.278 601.878 294.554 602.369 294.854C602.861 295.154 603.467 295.43 604.197 295.691C604.927 295.953 605.825 296.076 606.901 296.076C607.907 296.076 608.798 295.937 609.566 295.653C610.334 295.369 610.979 294.985 611.486 294.5C612.001 294.016 612.385 293.448 612.653 292.795C612.922 292.141 613.053 291.45 613.053 290.728C613.053 289.921 612.861 289.252 612.477 288.722C612.093 288.192 611.586 287.738 610.964 287.37C610.342 287.001 609.627 286.686 608.836 286.424C608.045 286.163 607.223 285.91 606.386 285.648C605.549 285.387 604.727 285.11 603.936 284.803C603.145 284.496 602.431 284.112 601.808 283.643C601.186 283.174 600.679 282.605 600.295 281.937C599.911 281.268 599.719 280.431 599.719 279.432C599.719 278.579 599.904 277.757 600.272 276.965C600.641 276.174 601.163 275.482 601.847 274.883C602.53 274.284 603.36 273.807 604.335 273.454C605.311 273.1 606.409 272.923 607.63 272.923C609.09 272.923 610.38 273.139 611.509 273.561C612.638 273.984 613.675 274.637 614.62 275.513L614.12 276.297Z" fill="#AB74AE"/>
<path d="M625.587 264.993C625.587 265.285 625.526 265.554 625.411 265.808C625.288 266.062 625.134 266.277 624.942 266.477C624.75 266.669 624.527 266.822 624.266 266.938C624.013 267.053 623.736 267.107 623.452 267.107C623.168 267.107 622.891 267.053 622.638 266.938C622.384 266.822 622.154 266.669 621.962 266.477C621.77 266.284 621.616 266.062 621.509 265.808C621.394 265.554 621.34 265.285 621.34 264.993C621.34 264.701 621.394 264.425 621.509 264.156C621.624 263.887 621.77 263.656 621.962 263.464C622.154 263.272 622.377 263.119 622.638 263.003C622.891 262.888 623.168 262.834 623.452 262.834C623.736 262.834 624.013 262.888 624.266 263.003C624.52 263.119 624.75 263.272 624.942 263.464C625.134 263.656 625.288 263.887 625.411 264.156C625.526 264.425 625.587 264.709 625.587 264.993ZM624.573 273.3V297.382H622.292V273.3H624.573Z" fill="#AB74AE"/>
<path d="M639.551 297.766C637.93 297.766 636.671 297.313 635.78 296.414C634.881 295.507 634.435 294.116 634.435 292.226V275.767H630.995C630.818 275.767 630.672 275.72 630.564 275.621C630.457 275.521 630.396 275.39 630.396 275.206V274.307L634.482 274.015L635.05 265.401C635.065 265.255 635.127 265.124 635.227 265.017C635.326 264.901 635.465 264.848 635.641 264.848H636.717V274.045H644.243V275.767H636.717V292.103C636.717 292.764 636.801 293.332 636.97 293.809C637.139 294.285 637.369 294.677 637.669 294.985C637.968 295.292 638.314 295.515 638.713 295.661C639.113 295.807 639.543 295.876 640.012 295.876C640.588 295.876 641.087 295.791 641.502 295.622C641.916 295.453 642.277 295.269 642.585 295.069C642.892 294.869 643.137 294.685 643.329 294.516C643.522 294.347 643.675 294.262 643.783 294.262C643.913 294.262 644.036 294.347 644.167 294.5L644.789 295.515C644.182 296.191 643.406 296.736 642.469 297.151C641.532 297.566 640.557 297.766 639.551 297.766Z" fill="#AB74AE"/>
<path d="M651.855 273.3V288.691C651.855 290.95 652.37 292.718 653.399 294.001C654.428 295.284 655.995 295.922 658.1 295.922C659.659 295.922 661.118 295.522 662.462 294.723C663.806 293.924 665.027 292.818 666.103 291.396V273.292H668.384V297.374H667.124C666.679 297.374 666.448 297.167 666.433 296.744L666.218 293.163C665.112 294.554 663.829 295.668 662.378 296.506C660.926 297.344 659.305 297.766 657.531 297.766C656.202 297.766 655.035 297.559 654.044 297.136C653.053 296.713 652.224 296.114 651.563 295.323C650.903 294.531 650.411 293.578 650.073 292.464C649.735 291.35 649.566 290.09 649.566 288.691V273.3H651.855V273.3Z" fill="#AB74AE"/>
<path d="M691.441 297.382C690.957 297.382 690.665 297.159 690.55 296.706L690.212 293.632C689.551 294.278 688.898 294.862 688.253 295.376C687.608 295.891 686.925 296.329 686.226 296.683C685.519 297.036 684.759 297.305 683.944 297.497C683.13 297.689 682.232 297.774 681.249 297.774C680.434 297.774 679.636 297.651 678.868 297.413C678.1 297.167 677.416 296.798 676.825 296.299C676.233 295.799 675.757 295.154 675.396 294.377C675.035 293.594 674.858 292.656 674.858 291.557C674.858 290.543 675.15 289.598 675.726 288.722C676.302 287.854 677.201 287.093 678.43 286.447C679.659 285.802 681.233 285.287 683.169 284.895C685.097 284.511 687.416 284.281 690.127 284.219V281.699C690.127 279.47 689.651 277.757 688.699 276.558C687.746 275.359 686.333 274.752 684.459 274.752C683.307 274.752 682.324 274.914 681.517 275.236C680.711 275.559 680.02 275.913 679.459 276.304C678.898 276.689 678.438 277.05 678.092 277.373C677.746 277.695 677.447 277.857 677.201 277.857C676.878 277.857 676.64 277.711 676.479 277.419L676.072 276.719C677.324 275.459 678.637 274.506 680.012 273.861C681.387 273.215 682.954 272.893 684.697 272.893C685.98 272.893 687.101 273.1 688.061 273.507C689.021 273.922 689.82 274.506 690.45 275.275C691.08 276.043 691.556 276.973 691.878 278.056C692.201 279.14 692.362 280.362 692.362 281.699V297.382H691.441ZM681.832 296.099C682.762 296.099 683.614 295.999 684.39 295.799C685.166 295.599 685.888 295.315 686.556 294.954C687.224 294.593 687.838 294.162 688.422 293.655C688.998 293.156 689.567 292.618 690.127 292.034V285.764C687.854 285.825 685.895 286.002 684.252 286.286C682.608 286.57 681.256 286.955 680.189 287.439C679.121 287.923 678.338 288.499 677.831 289.168C677.324 289.836 677.07 290.597 677.07 291.458C677.07 292.264 677.201 292.964 677.47 293.548C677.739 294.132 678.084 294.623 678.514 295C678.944 295.376 679.451 295.661 680.027 295.837C680.603 296.014 681.203 296.099 681.832 296.099Z" fill="#AB74AE"/>
<path d="M705.12 303.99C705.197 303.99 705.312 304.036 705.443 304.121C705.581 304.205 705.757 304.305 705.972 304.413C706.188 304.52 706.456 304.613 706.779 304.705C707.101 304.797 707.493 304.836 707.954 304.836C708.768 304.836 709.406 304.659 709.867 304.305C710.32 303.952 710.55 303.468 710.55 302.853C710.55 302.446 710.443 302.115 710.235 301.846C710.028 301.577 709.728 301.355 709.344 301.178C708.96 301.001 708.507 300.863 707.985 300.763C707.462 300.663 706.894 300.579 706.264 300.494L707.155 297.636C705.765 297.536 704.49 297.19 703.33 296.583C702.178 295.976 701.187 295.154 700.366 294.101C699.544 293.056 698.906 291.788 698.453 290.313C698.008 288.837 697.777 287.17 697.777 285.318C697.777 283.481 698.015 281.799 698.499 280.285C698.983 278.771 699.682 277.465 700.604 276.366C701.525 275.267 702.655 274.414 703.991 273.815C705.327 273.208 706.863 272.908 708.592 272.908C710.143 272.908 711.525 273.162 712.739 273.661C713.945 274.161 715.005 274.837 715.903 275.697L715.304 276.52C715.228 276.596 715.151 276.666 715.074 276.727C715.005 276.781 714.905 276.812 714.774 276.812C714.613 276.812 714.39 276.704 714.114 276.481C713.83 276.266 713.461 276.028 712.992 275.767C712.524 275.505 711.948 275.267 711.249 275.052C710.55 274.837 709.705 274.722 708.714 274.722C707.34 274.722 706.111 274.967 705.051 275.459C703.983 275.951 703.085 276.658 702.363 277.58C701.633 278.502 701.08 279.616 700.688 280.923C700.304 282.229 700.112 283.704 700.112 285.333C700.112 287.031 700.312 288.53 700.704 289.844C701.095 291.15 701.656 292.257 702.378 293.148C703.1 294.047 703.976 294.731 704.997 295.192C706.019 295.661 707.163 295.891 708.407 295.891C709.559 295.891 710.527 295.753 711.303 295.476C712.078 295.2 712.724 294.9 713.223 294.577C713.73 294.255 714.129 293.955 714.421 293.678C714.721 293.402 714.951 293.263 715.128 293.263C715.335 293.263 715.496 293.348 715.612 293.509L716.234 294.285C715.512 295.223 714.483 295.999 713.146 296.621C711.81 297.244 710.289 297.582 708.592 297.651L708.016 299.564C709.444 299.825 710.527 300.194 711.272 300.678C712.017 301.163 712.393 301.877 712.393 302.83C712.393 303.314 712.286 303.752 712.071 304.136C711.856 304.52 711.549 304.851 711.157 305.12C710.765 305.389 710.297 305.589 709.751 305.735C709.206 305.881 708.615 305.95 707.969 305.95C707.309 305.95 706.671 305.857 706.049 305.673C705.427 305.489 704.905 305.243 704.49 304.935L704.728 304.259C704.836 304.09 704.959 303.99 705.12 303.99Z" fill="#AB74AE"/>
<path d="M736.701 297.382C736.218 297.382 735.926 297.159 735.81 296.706L735.473 293.632C734.812 294.278 734.159 294.862 733.514 295.376C732.869 295.891 732.185 296.329 731.486 296.683C730.78 297.036 730.019 297.305 729.205 297.497C728.391 297.689 727.492 297.774 726.509 297.774C725.695 297.774 724.896 297.651 724.128 297.413C723.36 297.167 722.677 296.798 722.085 296.299C721.494 295.799 721.018 295.154 720.657 294.377C720.296 293.594 720.119 292.656 720.119 291.557C720.119 290.543 720.411 289.598 720.987 288.722C721.563 287.854 722.462 287.093 723.691 286.447C724.919 285.802 726.494 285.287 728.429 284.895C730.357 284.511 732.677 284.281 735.388 284.219V281.699C735.388 279.47 734.912 277.757 733.959 276.558C733.007 275.359 731.594 274.752 729.72 274.752C728.568 274.752 727.585 274.914 726.778 275.236C725.972 275.559 725.28 275.913 724.72 276.304C724.159 276.689 723.698 277.05 723.353 277.373C723.007 277.695 722.707 277.857 722.462 277.857C722.139 277.857 721.901 277.711 721.74 277.419L721.333 276.719C722.585 275.459 723.898 274.506 725.273 273.861C726.648 273.215 728.214 272.893 729.958 272.893C731.241 272.893 732.362 273.1 733.322 273.507C734.282 273.922 735.081 274.506 735.711 275.275C736.34 276.043 736.817 276.973 737.139 278.056C737.462 279.14 737.623 280.362 737.623 281.699V297.382H736.701ZM727.085 296.099C728.015 296.099 728.867 295.999 729.643 295.799C730.419 295.599 731.141 295.315 731.809 294.954C732.477 294.593 733.092 294.162 733.675 293.655C734.251 293.156 734.82 292.618 735.38 292.034V285.764C733.107 285.825 731.148 286.002 729.505 286.286C727.861 286.57 726.509 286.955 725.442 287.439C724.374 287.923 723.591 288.499 723.084 289.168C722.577 289.836 722.323 290.597 722.323 291.458C722.323 292.264 722.454 292.964 722.723 293.548C722.992 294.132 723.337 294.623 723.767 295C724.198 295.376 724.704 295.661 725.28 295.837C725.864 296.014 726.463 296.099 727.085 296.099ZM732.469 266.4C733.161 266.4 733.683 266.177 734.029 265.731C734.374 265.286 734.566 264.686 734.582 263.925H736.002C736.002 264.509 735.926 265.047 735.772 265.562C735.618 266.077 735.396 266.507 735.096 266.884C734.797 267.253 734.436 267.545 734.006 267.752C733.575 267.96 733.084 268.067 732.539 268.067C732.009 268.067 731.509 267.937 731.033 267.668C730.557 267.399 730.104 267.114 729.674 266.799C729.244 266.484 728.821 266.192 728.414 265.931C728.007 265.662 727.592 265.531 727.178 265.531C726.502 265.531 725.995 265.762 725.641 266.223C725.288 266.684 725.096 267.276 725.065 267.998H723.598C723.598 267.414 723.675 266.876 723.836 266.361C723.998 265.846 724.228 265.416 724.535 265.04C724.843 264.671 725.211 264.379 725.641 264.171C726.072 263.964 726.563 263.856 727.108 263.856C727.654 263.856 728.161 263.987 728.637 264.256C729.105 264.525 729.558 264.809 729.981 265.124C730.403 265.439 730.826 265.731 731.233 265.992C731.64 266.269 732.055 266.4 732.469 266.4Z" fill="#AB74AE"/>
<path d="M753.937 272.908C755.65 272.908 757.186 273.2 758.538 273.792C759.89 274.383 761.034 275.213 761.964 276.297C762.893 277.38 763.6 278.679 764.091 280.208C764.583 281.729 764.821 283.443 764.821 285.326C764.821 287.208 764.575 288.914 764.091 290.436C763.6 291.949 762.893 293.256 761.964 294.331C761.034 295.415 759.89 296.245 758.538 296.821C757.186 297.405 755.65 297.689 753.937 297.689C752.225 297.689 750.689 297.397 749.337 296.821C747.985 296.237 746.841 295.407 745.896 294.331C744.959 293.248 744.245 291.949 743.753 290.436C743.262 288.922 743.023 287.216 743.023 285.326C743.023 283.435 743.269 281.729 743.753 280.208C744.245 278.687 744.951 277.38 745.896 276.297C746.833 275.213 747.977 274.383 749.337 273.792C750.689 273.208 752.225 272.908 753.937 272.908ZM753.937 295.884C755.366 295.884 756.61 295.638 757.678 295.146C758.746 294.654 759.636 293.947 760.343 293.025C761.057 292.103 761.587 290.996 761.941 289.698C762.294 288.399 762.471 286.939 762.471 285.326C762.471 283.727 762.294 282.275 761.941 280.969C761.587 279.662 761.057 278.548 760.343 277.618C759.629 276.689 758.738 275.974 757.678 275.475C756.61 274.975 755.366 274.722 753.937 274.722C752.509 274.722 751.265 274.975 750.197 275.475C749.129 275.974 748.239 276.689 747.532 277.618C746.818 278.548 746.28 279.662 745.919 280.969C745.558 282.275 745.381 283.727 745.381 285.326C745.381 286.939 745.558 288.399 745.919 289.698C746.28 290.996 746.818 292.103 747.532 293.025C748.246 293.947 749.137 294.654 750.197 295.146C751.265 295.638 752.509 295.884 753.937 295.884Z" fill="#AB74AE"/>
<path d="M117.435 342.718C117.036 342.718 116.813 342.511 116.744 342.088L116.506 338.284C115.446 339.737 114.21 340.889 112.789 341.742C111.368 342.595 109.778 343.025 108.011 343.025C105.077 343.025 102.781 342.003 101.137 339.952C99.4937 337.9 98.6719 334.827 98.6719 330.731C98.6719 328.971 98.9023 327.327 99.3554 325.805C99.8163 324.284 100.484 322.955 101.375 321.833C102.266 320.711 103.357 319.827 104.647 319.182C105.938 318.536 107.428 318.214 109.11 318.214C110.73 318.214 112.136 318.513 113.319 319.12C114.509 319.727 115.531 320.611 116.399 321.771V307.494H118.68V342.71H117.435V342.718ZM108.657 341.166C110.246 341.166 111.683 340.751 112.965 339.929C114.248 339.107 115.4 337.962 116.406 336.494V323.784C115.477 322.417 114.455 321.449 113.334 320.88C112.22 320.319 110.953 320.035 109.54 320.035C108.127 320.035 106.89 320.296 105.83 320.811C104.77 321.326 103.887 322.056 103.173 323.001C102.458 323.946 101.921 325.075 101.56 326.389C101.199 327.703 101.014 329.156 101.014 330.731C101.014 334.312 101.675 336.947 102.988 338.63C104.302 340.313 106.206 341.166 108.657 341.166Z" fill="#35609D"/>
<path d="M135.739 318.244C137.083 318.244 138.327 318.475 139.479 318.943C140.624 319.412 141.622 320.096 142.459 320.987C143.304 321.886 143.957 322.985 144.433 324.292C144.909 325.598 145.14 327.096 145.14 328.794C145.14 329.148 145.086 329.394 144.986 329.517C144.879 329.647 144.717 329.709 144.495 329.709H127.236V330.17C127.236 331.976 127.444 333.566 127.858 334.942C128.273 336.317 128.865 337.462 129.64 338.392C130.416 339.322 131.338 340.021 132.428 340.482C133.519 340.951 134.733 341.181 136.084 341.181C137.282 341.181 138.327 341.051 139.21 340.782C140.094 340.513 140.831 340.221 141.438 339.883C142.037 339.552 142.513 339.253 142.866 338.984C143.22 338.715 143.473 338.584 143.634 338.584C143.842 338.584 144.003 338.669 144.118 338.822L144.74 339.598C144.356 340.082 143.849 340.536 143.212 340.951C142.582 341.373 141.875 341.727 141.1 342.026C140.324 342.326 139.487 342.564 138.604 342.741C137.713 342.918 136.822 343.01 135.923 343.01C134.287 343.01 132.797 342.726 131.453 342.149C130.109 341.573 128.949 340.743 127.989 339.644C127.021 338.546 126.276 337.201 125.754 335.618C125.224 334.027 124.963 332.206 124.963 330.162C124.963 328.433 125.209 326.843 125.693 325.383C126.184 323.923 126.883 322.663 127.805 321.61C128.726 320.557 129.855 319.727 131.192 319.128C132.521 318.544 134.041 318.244 135.739 318.244ZM135.769 319.965C134.541 319.965 133.435 320.158 132.459 320.549C131.484 320.934 130.639 321.495 129.925 322.217C129.21 322.947 128.634 323.815 128.196 324.83C127.759 325.844 127.467 326.981 127.321 328.241H143.066C143.066 326.95 142.889 325.79 142.536 324.768C142.183 323.746 141.691 322.878 141.046 322.163C140.408 321.456 139.64 320.911 138.742 320.526C137.851 320.158 136.86 319.965 135.769 319.965Z" fill="#35609D"/>
<path d="M175.83 342.718C175.346 342.718 175.055 342.495 174.939 342.042L174.601 338.968C173.941 339.614 173.288 340.198 172.643 340.713C171.998 341.227 171.314 341.665 170.615 342.019C169.909 342.372 169.148 342.641 168.334 342.833C167.52 343.025 166.621 343.11 165.638 343.11C164.824 343.11 164.025 342.987 163.257 342.749C162.489 342.503 161.806 342.134 161.214 341.635C160.623 341.135 160.147 340.49 159.786 339.714C159.425 338.93 159.248 337.992 159.248 336.894C159.248 335.879 159.54 334.934 160.116 334.058C160.692 333.19 161.591 332.429 162.82 331.784C164.048 331.138 165.623 330.623 167.558 330.231C169.486 329.847 171.806 329.617 174.517 329.555V327.035C174.517 324.806 174.041 323.093 173.088 321.894C172.136 320.695 170.723 320.088 168.849 320.088C167.697 320.088 166.714 320.25 165.907 320.573C165.101 320.895 164.409 321.249 163.849 321.641C163.288 322.025 162.827 322.386 162.482 322.709C162.136 323.031 161.836 323.193 161.591 323.193C161.268 323.193 161.03 323.047 160.869 322.755L160.462 322.056C161.714 320.795 163.027 319.843 164.402 319.197C165.777 318.552 167.343 318.229 169.087 318.229C170.369 318.229 171.491 318.436 172.451 318.844C173.411 319.259 174.21 319.843 174.84 320.611C175.469 321.379 175.946 322.309 176.268 323.393C176.591 324.476 176.752 325.698 176.752 327.035V342.718H175.83ZM166.214 341.435C167.144 341.435 167.996 341.335 168.772 341.135C169.548 340.935 170.27 340.651 170.938 340.29C171.606 339.929 172.22 339.498 172.804 338.991C173.38 338.492 173.949 337.954 174.509 337.37V331.1C172.236 331.161 170.277 331.338 168.634 331.622C166.99 331.907 165.638 332.291 164.571 332.775C163.503 333.259 162.72 333.835 162.213 334.504C161.706 335.172 161.452 335.933 161.452 336.794C161.452 337.6 161.583 338.3 161.852 338.884C162.121 339.468 162.466 339.959 162.896 340.336C163.326 340.713 163.833 340.997 164.409 341.174C164.985 341.35 165.592 341.435 166.214 341.435Z" fill="#35609D"/>
<path d="M184.194 342.718V307.502H186.475L186.498 322.847C187.558 321.425 188.78 320.304 190.177 319.481C191.568 318.659 193.142 318.244 194.886 318.244C197.82 318.244 200.108 319.266 201.744 321.303C203.388 323.346 204.21 326.412 204.21 330.516C204.21 332.275 203.979 333.92 203.526 335.441C203.065 336.963 202.397 338.292 201.506 339.414C200.615 340.536 199.525 341.419 198.234 342.065C196.944 342.71 195.454 343.033 193.772 343.033C192.105 343.033 190.669 342.703 189.463 342.05C188.257 341.396 187.228 340.436 186.36 339.16L186.214 342.111C186.168 342.518 185.953 342.718 185.569 342.718H184.194V342.718ZM194.225 320.088C192.635 320.088 191.199 320.503 189.916 321.326C188.634 322.148 187.482 323.293 186.475 324.76V337.47C187.389 338.861 188.403 339.829 189.509 340.39C190.615 340.943 191.89 341.227 193.334 341.227C194.747 341.227 195.984 340.966 197.044 340.451C198.104 339.936 198.987 339.206 199.701 338.261C200.416 337.316 200.953 336.187 201.314 334.873C201.675 333.559 201.86 332.106 201.86 330.531C201.86 326.95 201.199 324.315 199.886 322.632C198.572 320.949 196.683 320.088 194.225 320.088Z" fill="#35609D"/>
<path d="M219.311 318.244C221.023 318.244 222.559 318.536 223.911 319.128C225.263 319.72 226.407 320.549 227.337 321.633C228.266 322.716 228.973 324.015 229.464 325.544C229.956 327.066 230.194 328.779 230.194 330.662C230.194 332.544 229.948 334.25 229.464 335.772C228.973 337.285 228.266 338.592 227.337 339.667C226.407 340.751 225.263 341.581 223.911 342.157C222.559 342.741 221.023 343.025 219.311 343.025C217.598 343.025 216.062 342.733 214.71 342.157C213.358 341.573 212.214 340.743 211.269 339.667C210.332 338.584 209.618 337.285 209.126 335.772C208.635 334.258 208.396 332.552 208.396 330.662C208.396 328.771 208.642 327.066 209.126 325.544C209.618 324.023 210.324 322.716 211.269 321.633C212.206 320.549 213.35 319.72 214.71 319.128C216.062 318.544 217.598 318.244 219.311 318.244ZM219.311 341.22C220.739 341.22 221.983 340.974 223.051 340.482C224.119 339.99 225.009 339.283 225.716 338.361C226.43 337.439 226.96 336.333 227.314 335.034C227.667 333.735 227.844 332.275 227.844 330.662C227.844 329.063 227.667 327.611 227.314 326.305C226.96 324.999 226.43 323.884 225.716 322.955C225.002 322.025 224.111 321.31 223.051 320.811C221.983 320.311 220.739 320.058 219.311 320.058C217.882 320.058 216.638 320.311 215.57 320.811C214.503 321.31 213.612 322.025 212.905 322.955C212.191 323.884 211.653 324.999 211.292 326.305C210.931 327.611 210.754 329.063 210.754 330.662C210.754 332.275 210.931 333.735 211.292 335.034C211.653 336.333 212.191 337.439 212.905 338.361C213.619 339.283 214.51 339.99 215.57 340.482C216.638 340.974 217.882 341.22 219.311 341.22Z" fill="#35609D"/>
<path d="M236.207 342.718V318.636H237.405C237.674 318.636 237.874 318.69 237.997 318.805C238.119 318.92 238.189 319.113 238.204 319.389L238.396 324.476C239.164 322.524 240.193 320.995 241.476 319.889C242.759 318.782 244.333 318.229 246.215 318.229C246.937 318.229 247.597 318.306 248.212 318.459C248.818 318.613 249.394 318.836 249.94 319.128L249.625 320.726C249.579 320.987 249.418 321.11 249.141 321.11C249.041 321.11 248.911 321.08 248.734 321.011C248.557 320.949 248.335 320.872 248.073 320.795C247.812 320.719 247.482 320.642 247.098 320.58C246.714 320.519 246.276 320.48 245.777 320.48C243.964 320.48 242.482 321.049 241.315 322.178C240.155 323.308 239.21 324.937 238.488 327.066V342.726H236.207V342.718Z" fill="#35609D"/>
<path d="M261.807 343.102C260.186 343.102 258.926 342.649 258.035 341.75C257.137 340.843 256.691 339.452 256.691 337.562V321.103H253.25C253.074 321.103 252.928 321.057 252.82 320.957C252.713 320.857 252.651 320.726 252.651 320.542V319.643L256.737 319.351L257.306 310.737C257.321 310.591 257.383 310.46 257.482 310.353C257.582 310.237 257.721 310.184 257.897 310.184H258.965V319.382H266.492V321.103H258.965V337.439C258.965 338.1 259.049 338.669 259.218 339.145C259.387 339.621 259.618 340.013 259.917 340.321C260.217 340.628 260.562 340.851 260.962 340.997C261.361 341.143 261.791 341.212 262.26 341.212C262.836 341.212 263.335 341.127 263.75 340.958C264.164 340.789 264.525 340.605 264.833 340.405C265.14 340.205 265.386 340.021 265.578 339.852C265.77 339.683 265.923 339.598 266.031 339.598C266.161 339.598 266.284 339.683 266.415 339.837L267.037 340.851C266.43 341.527 265.655 342.073 264.717 342.488C263.788 342.902 262.813 343.102 261.807 343.102Z" fill="#35609D"/>
<path d="M287.69 342.718C287.206 342.718 286.914 342.495 286.799 342.042L286.461 338.968C285.8 339.614 285.147 340.198 284.502 340.713C283.857 341.227 283.174 341.665 282.475 342.019C281.768 342.372 281.008 342.641 280.193 342.833C279.379 343.025 278.481 343.11 277.498 343.11C276.683 343.11 275.885 342.987 275.117 342.749C274.349 342.503 273.665 342.134 273.074 341.635C272.482 341.135 272.006 340.49 271.645 339.714C271.284 338.93 271.107 337.992 271.107 336.894C271.107 335.879 271.399 334.934 271.975 334.058C272.551 333.19 273.45 332.429 274.679 331.784C275.908 331.138 277.482 330.623 279.418 330.231C281.346 329.847 283.665 329.617 286.376 329.555V327.035C286.376 324.806 285.9 323.093 284.948 321.894C283.995 320.695 282.582 320.088 280.708 320.088C279.556 320.088 278.573 320.25 277.766 320.573C276.96 320.895 276.269 321.249 275.708 321.641C275.147 322.025 274.687 322.386 274.341 322.709C273.995 323.031 273.696 323.193 273.45 323.193C273.127 323.193 272.889 323.047 272.728 322.755L272.321 322.056C273.573 320.795 274.886 319.843 276.261 319.197C277.636 318.552 279.203 318.229 280.946 318.229C282.229 318.229 283.35 318.436 284.31 318.844C285.27 319.259 286.069 319.843 286.699 320.611C287.329 321.379 287.805 322.309 288.128 323.393C288.45 324.476 288.611 325.698 288.611 327.035V342.718H287.69ZM278.074 341.435C279.003 341.435 279.856 341.335 280.631 341.135C281.407 340.935 282.129 340.651 282.797 340.29C283.465 339.929 284.08 339.498 284.664 338.991C285.24 338.492 285.808 337.954 286.369 337.37V331.1C284.095 331.161 282.137 331.338 280.493 331.622C278.849 331.907 277.498 332.291 276.43 332.775C275.362 333.259 274.579 333.835 274.072 334.504C273.565 335.172 273.312 335.933 273.312 336.794C273.312 337.6 273.442 338.3 273.711 338.884C273.98 339.468 274.326 339.959 274.756 340.336C275.186 340.713 275.693 340.997 276.269 341.174C276.852 341.35 277.452 341.435 278.074 341.435Z" fill="#35609D"/>
<path d="M295.816 342.718V318.636H297.068C297.483 318.636 297.721 318.836 297.79 319.243L298.005 322.732C298.466 322.071 298.965 321.464 299.495 320.918C300.025 320.373 300.586 319.896 301.193 319.504C301.792 319.113 302.437 318.805 303.113 318.582C303.796 318.367 304.511 318.252 305.263 318.252C307.007 318.252 308.405 318.767 309.449 319.789C310.494 320.811 311.193 322.24 311.562 324.061C311.846 323.062 312.253 322.194 312.775 321.472C313.297 320.749 313.889 320.142 314.565 319.666C315.241 319.189 315.97 318.836 316.761 318.598C317.552 318.367 318.366 318.244 319.196 318.244C320.379 318.244 321.446 318.444 322.391 318.836C323.336 319.228 324.142 319.819 324.803 320.588C325.463 321.364 325.978 322.317 326.324 323.446C326.677 324.576 326.853 325.867 326.853 327.319V342.71H324.572V327.319C324.572 324.96 324.065 323.17 323.059 321.933C322.053 320.695 320.609 320.081 318.735 320.081C317.906 320.081 317.107 320.234 316.347 320.542C315.586 320.849 314.91 321.302 314.327 321.91C313.743 322.517 313.274 323.27 312.936 324.176C312.591 325.083 312.422 326.128 312.422 327.319V342.71H310.141V327.319C310.141 324.983 309.672 323.185 308.75 321.948C307.821 320.703 306.469 320.081 304.687 320.081C303.389 320.081 302.191 320.473 301.085 321.256C299.979 322.04 298.996 323.124 298.128 324.514V342.718H295.816V342.718Z" fill="#35609D"/>
<path d="M343.067 318.244C344.411 318.244 345.655 318.475 346.807 318.943C347.952 319.412 348.95 320.096 349.787 320.987C350.632 321.886 351.285 322.985 351.761 324.292C352.237 325.598 352.468 327.096 352.468 328.794C352.468 329.148 352.414 329.394 352.314 329.517C352.207 329.647 352.045 329.709 351.823 329.709H334.564V330.17C334.564 331.976 334.772 333.566 335.187 334.942C335.601 336.317 336.193 337.462 336.968 338.392C337.744 339.322 338.666 340.021 339.756 340.482C340.847 340.951 342.061 341.181 343.412 341.181C344.611 341.181 345.655 341.051 346.538 340.782C347.422 340.513 348.159 340.221 348.766 339.883C349.365 339.552 349.841 339.253 350.194 338.984C350.548 338.715 350.801 338.584 350.962 338.584C351.17 338.584 351.331 338.669 351.446 338.822L352.068 339.598C351.684 340.082 351.177 340.536 350.54 340.951C349.91 341.373 349.204 341.727 348.428 342.026C347.652 342.326 346.815 342.564 345.932 342.741C345.041 342.918 344.15 343.01 343.251 343.01C341.615 343.01 340.125 342.726 338.781 342.149C337.437 341.573 336.277 340.743 335.317 339.644C334.349 338.546 333.604 337.201 333.082 335.618C332.552 334.027 332.291 332.206 332.291 330.162C332.291 328.433 332.537 326.843 333.021 325.383C333.512 323.923 334.211 322.663 335.133 321.61C336.054 320.557 337.184 319.727 338.52 319.128C339.856 318.544 341.369 318.244 343.067 318.244ZM343.105 319.965C341.876 319.965 340.77 320.158 339.795 320.549C338.819 320.934 337.975 321.495 337.26 322.217C336.546 322.947 335.97 323.815 335.532 324.83C335.094 325.844 334.803 326.981 334.657 328.241H350.402C350.402 326.95 350.225 325.79 349.872 324.768C349.518 323.746 349.027 322.878 348.382 322.163C347.744 321.456 346.976 320.911 346.078 320.526C345.187 320.158 344.196 319.965 343.105 319.965Z" fill="#35609D"/>
<path d="M358.62 342.718V318.636H359.872C360.287 318.636 360.525 318.836 360.594 319.243L360.809 322.878C361.9 321.487 363.167 320.373 364.619 319.527C366.07 318.682 367.683 318.26 369.465 318.26C370.778 318.26 371.938 318.467 372.937 318.89C373.935 319.312 374.765 319.912 375.425 320.703C376.078 321.495 376.577 322.447 376.915 323.562C377.253 324.676 377.422 325.936 377.422 327.335V342.726H375.141V327.335C375.141 325.075 374.626 323.308 373.605 322.025C372.576 320.742 371.009 320.104 368.897 320.104C367.33 320.104 365.871 320.511 364.519 321.326C363.175 322.14 361.969 323.262 360.917 324.676V342.733H358.62V342.718Z" fill="#35609D"/>
<path d="M391.14 343.102C389.519 343.102 388.259 342.649 387.368 341.75C386.47 340.843 386.024 339.452 386.024 337.562V321.103H382.583C382.407 321.103 382.261 321.057 382.153 320.957C382.046 320.857 381.984 320.726 381.984 320.542V319.643L386.07 319.351L386.639 310.737C386.654 310.591 386.716 310.46 386.815 310.353C386.915 310.237 387.054 310.184 387.23 310.184H388.298V319.382H395.825V321.103H388.298V337.439C388.298 338.1 388.382 338.669 388.551 339.145C388.72 339.621 388.951 340.013 389.25 340.321C389.55 340.628 389.895 340.851 390.295 340.997C390.694 341.143 391.124 341.212 391.593 341.212C392.169 341.212 392.668 341.127 393.083 340.958C393.497 340.789 393.858 340.605 394.166 340.405C394.473 340.205 394.719 340.021 394.911 339.852C395.103 339.683 395.256 339.598 395.364 339.598C395.494 339.598 395.617 339.683 395.748 339.837L396.37 340.851C395.763 341.527 394.987 342.073 394.05 342.488C393.129 342.902 392.153 343.102 391.14 343.102Z" fill="#35609D"/>
<path d="M410.878 318.244C412.591 318.244 414.127 318.536 415.479 319.128C416.83 319.72 417.975 320.549 418.904 321.633C419.833 322.716 420.54 324.015 421.032 325.544C421.523 327.066 421.761 328.779 421.761 330.662C421.761 332.544 421.515 334.25 421.032 335.772C420.54 337.285 419.833 338.592 418.904 339.667C417.975 340.751 416.83 341.581 415.479 342.157C414.127 342.741 412.591 343.025 410.878 343.025C409.165 343.025 407.629 342.733 406.277 342.157C404.925 341.573 403.781 340.743 402.836 339.667C401.899 338.584 401.185 337.285 400.694 335.772C400.202 334.258 399.964 332.552 399.964 330.662C399.964 328.771 400.21 327.066 400.694 325.544C401.185 324.023 401.892 322.716 402.836 321.633C403.773 320.549 404.918 319.72 406.277 319.128C407.629 318.544 409.157 318.244 410.878 318.244ZM410.878 341.22C412.307 341.22 413.551 340.974 414.618 340.482C415.686 339.99 416.577 339.283 417.283 338.361C417.998 337.439 418.528 336.333 418.881 335.034C419.234 333.735 419.411 332.275 419.411 330.662C419.411 329.063 419.234 327.611 418.881 326.305C418.528 324.999 417.998 323.884 417.283 322.955C416.569 322.025 415.678 321.31 414.618 320.811C413.551 320.311 412.307 320.058 410.878 320.058C409.449 320.058 408.205 320.311 407.138 320.811C406.07 321.31 405.179 322.025 404.472 322.955C403.758 323.884 403.22 324.999 402.859 326.305C402.498 327.611 402.322 329.063 402.322 330.662C402.322 332.275 402.498 333.735 402.859 335.034C403.22 336.333 403.758 337.439 404.472 338.361C405.187 339.283 406.078 339.99 407.138 340.482C408.205 340.974 409.449 341.22 410.878 341.22Z" fill="#35609D"/>
<path d="M446.063 318.244C447.407 318.244 448.651 318.475 449.803 318.943C450.948 319.412 451.946 320.096 452.783 320.987C453.628 321.886 454.281 322.985 454.757 324.292C455.233 325.598 455.464 327.096 455.464 328.794C455.464 329.148 455.41 329.394 455.31 329.517C455.203 329.647 455.041 329.709 454.819 329.709H437.561V330.17C437.561 331.976 437.768 333.566 438.183 334.942C438.597 336.317 439.189 337.462 439.965 338.392C440.74 339.322 441.662 340.021 442.753 340.482C443.843 340.951 445.057 341.181 446.409 341.181C447.607 341.181 448.651 341.051 449.534 340.782C450.418 340.513 451.155 340.221 451.762 339.883C452.361 339.552 452.837 339.253 453.19 338.984C453.544 338.715 453.797 338.584 453.958 338.584C454.166 338.584 454.327 338.669 454.442 338.822L455.064 339.598C454.68 340.082 454.174 340.536 453.536 340.951C452.906 341.373 452.2 341.727 451.424 342.026C450.648 342.326 449.811 342.564 448.928 342.741C448.037 342.918 447.146 343.01 446.247 343.01C444.611 343.01 443.121 342.726 441.777 342.149C440.433 341.573 439.273 340.743 438.313 339.644C437.345 338.546 436.601 337.201 436.078 335.618C435.548 334.027 435.287 332.206 435.287 330.162C435.287 328.433 435.533 326.843 436.017 325.383C436.508 323.923 437.207 322.663 438.129 321.61C439.051 320.557 440.18 319.727 441.516 319.128C442.845 318.544 444.366 318.244 446.063 318.244ZM446.101 319.965C444.872 319.965 443.766 320.158 442.791 320.549C441.816 320.934 440.971 321.495 440.256 322.217C439.542 322.947 438.966 323.815 438.528 324.83C438.091 325.844 437.799 326.981 437.653 328.241H453.398C453.398 326.95 453.221 325.79 452.868 324.768C452.515 323.746 452.023 322.878 451.378 322.163C450.74 321.456 449.972 320.911 449.074 320.526C448.175 320.158 447.184 319.965 446.101 319.965Z" fill="#35609D"/>
<path d="M470.894 351.24V318.636H472.145C472.353 318.636 472.522 318.682 472.652 318.767C472.783 318.859 472.852 319.013 472.867 319.235L473.083 322.962C474.142 321.51 475.379 320.357 476.8 319.504C478.221 318.651 479.811 318.221 481.57 318.221C484.519 318.221 486.808 319.243 488.444 321.295C490.08 323.346 490.894 326.42 490.894 330.516C490.894 332.275 490.663 333.92 490.21 335.441C489.757 336.963 489.081 338.292 488.206 339.414C487.322 340.536 486.239 341.419 484.949 342.065C483.659 342.71 482.176 343.033 480.487 343.033C478.851 343.033 477.445 342.733 476.255 342.134C475.072 341.535 474.043 340.651 473.175 339.468V351.232H470.894V351.24ZM480.917 320.088C479.327 320.088 477.891 320.503 476.6 321.333C475.31 322.163 474.165 323.323 473.175 324.806V337.439C474.089 338.83 475.103 339.806 476.216 340.367C477.33 340.935 478.597 341.212 480.026 341.212C481.439 341.212 482.668 340.951 483.728 340.436C484.788 339.921 485.671 339.191 486.385 338.246C487.1 337.301 487.637 336.171 487.998 334.857C488.359 333.543 488.536 332.091 488.536 330.516C488.536 326.935 487.883 324.299 486.577 322.616C485.272 320.934 483.382 320.088 480.917 320.088Z" fill="#35609D"/>
<path d="M505.718 318.244C507.431 318.244 508.967 318.536 510.318 319.128C511.67 319.72 512.815 320.549 513.744 321.633C514.673 322.716 515.38 324.015 515.871 325.544C516.363 327.066 516.601 328.779 516.601 330.662C516.601 332.544 516.355 334.25 515.871 335.772C515.38 337.285 514.673 338.592 513.744 339.667C512.815 340.751 511.67 341.581 510.318 342.157C508.967 342.741 507.431 343.025 505.718 343.025C504.005 343.025 502.469 342.733 501.117 342.157C499.765 341.573 498.621 340.743 497.676 339.667C496.739 338.584 496.025 337.285 495.533 335.772C495.042 334.258 494.804 332.552 494.804 330.662C494.804 328.771 495.049 327.066 495.533 325.544C496.025 324.023 496.732 322.716 497.676 321.633C498.613 320.549 499.758 319.72 501.117 319.128C502.469 318.544 504.005 318.244 505.718 318.244ZM505.718 341.22C507.146 341.22 508.391 340.974 509.458 340.482C510.526 339.99 511.417 339.283 512.123 338.361C512.838 337.439 513.368 336.333 513.721 335.034C514.074 333.735 514.251 332.275 514.251 330.662C514.251 329.063 514.074 327.611 513.721 326.305C513.368 324.999 512.838 323.884 512.123 322.955C511.409 322.025 510.518 321.31 509.458 320.811C508.391 320.311 507.146 320.058 505.718 320.058C504.289 320.058 503.045 320.311 501.977 320.811C500.91 321.31 500.019 322.025 499.312 322.955C498.598 323.884 498.06 324.999 497.699 326.305C497.338 327.611 497.162 329.063 497.162 330.662C497.162 332.275 497.338 333.735 497.699 335.034C498.06 336.333 498.598 337.439 499.312 338.361C500.026 339.283 500.917 339.99 501.977 340.482C503.045 340.974 504.297 341.22 505.718 341.22ZM511.156 308.078L505.964 314.202C505.833 314.364 505.702 314.471 505.564 314.533C505.426 314.587 505.265 314.617 505.073 314.617H503.705L507.477 308.854C507.653 308.562 507.838 308.362 508.03 308.247C508.222 308.132 508.513 308.078 508.898 308.078H511.156Z" fill="#35609D"/>
<path d="M535.786 321.633C535.671 321.856 535.495 321.971 535.256 321.971C535.08 321.971 534.849 321.871 534.573 321.671C534.289 321.472 533.92 321.241 533.467 320.995C533.014 320.742 532.445 320.519 531.785 320.319C531.117 320.119 530.31 320.019 529.342 320.019C528.475 320.019 527.691 320.142 526.977 320.396C526.263 320.642 525.656 320.98 525.149 321.395C524.642 321.81 524.25 322.301 523.974 322.855C523.69 323.408 523.551 323.992 523.551 324.607C523.551 325.36 523.743 325.99 524.127 326.489C524.511 326.989 525.018 327.411 525.64 327.765C526.263 328.118 526.977 328.426 527.768 328.679C528.559 328.94 529.373 329.194 530.21 329.455C531.04 329.717 531.854 330.001 532.653 330.316C533.444 330.631 534.158 331.023 534.78 331.492C535.402 331.96 535.909 332.529 536.293 333.213C536.677 333.889 536.869 334.711 536.869 335.679C536.869 336.732 536.677 337.708 536.301 338.607C535.925 339.514 535.379 340.29 534.665 340.958C533.951 341.619 533.075 342.142 532.031 342.534C530.986 342.918 529.803 343.118 528.475 343.118C526.792 343.118 525.341 342.849 524.127 342.303C522.906 341.765 521.823 341.058 520.855 340.182L521.408 339.36C521.485 339.23 521.577 339.137 521.67 339.068C521.769 339.007 521.9 338.968 522.077 338.968C522.284 338.968 522.537 339.099 522.845 339.352C523.152 339.614 523.544 339.89 524.035 340.19C524.527 340.49 525.133 340.766 525.863 341.028C526.593 341.289 527.491 341.412 528.567 341.412C529.573 341.412 530.464 341.273 531.232 340.989C532 340.705 532.645 340.321 533.152 339.837C533.667 339.352 534.051 338.784 534.319 338.131C534.588 337.478 534.719 336.786 534.719 336.064C534.719 335.257 534.527 334.588 534.143 334.058C533.759 333.528 533.252 333.075 532.63 332.706C532.008 332.337 531.293 332.022 530.502 331.761C529.711 331.499 528.889 331.246 528.052 330.984C527.215 330.723 526.393 330.447 525.602 330.139C524.811 329.832 524.097 329.448 523.475 328.979C522.852 328.51 522.345 327.942 521.961 327.273C521.577 326.605 521.385 325.767 521.385 324.768C521.385 323.915 521.57 323.093 521.938 322.301C522.307 321.51 522.829 320.818 523.513 320.219C524.196 319.62 525.026 319.143 526.001 318.79C526.977 318.436 528.075 318.26 529.296 318.26C530.756 318.26 532.046 318.475 533.175 318.897C534.304 319.32 535.341 319.973 536.286 320.849L535.786 321.633Z" fill="#35609D"/>
<path d="M541.801 327.373H552.976V329.332H541.801V327.373Z" fill="#35609D"/>
<path d="M574.535 342.718C574.051 342.718 573.76 342.495 573.644 342.042L573.306 338.968C572.646 339.614 571.993 340.198 571.348 340.713C570.703 341.227 570.019 341.665 569.32 342.019C568.614 342.372 567.853 342.641 567.039 342.833C566.225 343.025 565.326 343.11 564.343 343.11C563.529 343.11 562.73 342.987 561.962 342.749C561.194 342.503 560.511 342.134 559.919 341.635C559.328 341.135 558.852 340.49 558.491 339.714C558.13 338.93 557.953 337.992 557.953 336.894C557.953 335.879 558.245 334.934 558.821 334.058C559.397 333.19 560.296 332.429 561.525 331.784C562.753 331.138 564.328 330.623 566.263 330.231C568.191 329.847 570.511 329.617 573.222 329.555V327.035C573.222 324.806 572.746 323.093 571.793 321.894C570.841 320.695 569.428 320.088 567.554 320.088C566.402 320.088 565.419 320.25 564.612 320.573C563.806 320.895 563.114 321.249 562.554 321.641C561.993 322.025 561.532 322.386 561.187 322.709C560.841 323.031 560.541 323.193 560.296 323.193C559.973 323.193 559.735 323.047 559.574 322.755L559.167 322.056C560.419 320.795 561.732 319.843 563.107 319.197C564.482 318.552 566.048 318.229 567.792 318.229C569.075 318.229 570.196 318.436 571.156 318.844C572.116 319.259 572.915 319.843 573.545 320.611C574.174 321.379 574.651 322.309 574.973 323.393C575.296 324.476 575.457 325.698 575.457 327.035V342.718H574.535ZM564.919 341.435C565.849 341.435 566.701 341.335 567.477 341.135C568.253 340.935 568.975 340.651 569.643 340.29C570.311 339.929 570.926 339.498 571.509 338.991C572.085 338.492 572.654 337.954 573.214 337.37V331.1C570.941 331.161 568.982 331.338 567.339 331.622C565.695 331.907 564.343 332.291 563.276 332.775C562.208 333.259 561.425 333.835 560.918 334.504C560.411 335.172 560.157 335.933 560.157 336.794C560.157 337.6 560.288 338.3 560.557 338.884C560.826 339.468 561.171 339.959 561.601 340.336C562.031 340.713 562.538 340.997 563.114 341.174C563.69 341.35 564.297 341.435 564.919 341.435Z" fill="#35609D"/>
<path d="M582.899 342.718V307.502H585.181L585.204 322.847C586.263 321.425 587.485 320.304 588.883 319.481C590.273 318.659 591.847 318.244 593.591 318.244C596.525 318.244 598.814 319.266 600.449 321.303C602.093 323.346 602.915 326.412 602.915 330.516C602.915 332.275 602.684 333.92 602.231 335.441C601.771 336.963 601.102 338.292 600.211 339.414C599.32 340.536 598.23 341.419 596.939 342.065C595.649 342.71 594.159 343.033 592.477 343.033C590.81 343.033 589.374 342.703 588.168 342.05C586.962 341.396 585.933 340.436 585.065 339.16L584.919 342.111C584.873 342.518 584.658 342.718 584.274 342.718H582.899V342.718ZM592.938 320.088C591.348 320.088 589.912 320.503 588.629 321.326C587.346 322.148 586.194 323.293 585.188 324.76V337.47C586.102 338.861 587.116 339.829 588.222 340.39C589.328 340.943 590.603 341.227 592.047 341.227C593.46 341.227 594.697 340.966 595.757 340.451C596.817 339.936 597.7 339.206 598.414 338.261C599.128 337.316 599.666 336.187 600.027 334.873C600.388 333.559 600.572 332.106 600.572 330.531C600.572 326.95 599.912 324.315 598.598 322.632C597.285 320.949 595.388 320.088 592.938 320.088Z" fill="#35609D"/>
<path d="M618.015 318.244C619.727 318.244 621.264 318.536 622.615 319.128C623.967 319.72 625.111 320.549 626.041 321.633C626.97 322.716 627.677 324.015 628.168 325.544C628.66 327.066 628.898 328.779 628.898 330.662C628.898 332.544 628.652 334.25 628.168 335.772C627.677 337.285 626.97 338.592 626.041 339.667C625.111 340.751 623.967 341.581 622.615 342.157C621.264 342.741 619.727 343.025 618.015 343.025C616.302 343.025 614.766 342.733 613.414 342.157C612.062 341.573 610.918 340.743 609.973 339.667C609.036 338.584 608.322 337.285 607.83 335.772C607.339 334.258 607.101 332.552 607.101 330.662C607.101 328.771 607.346 327.066 607.83 325.544C608.322 324.023 609.028 322.716 609.973 321.633C610.91 320.549 612.055 319.72 613.414 319.128C614.766 318.544 616.302 318.244 618.015 318.244ZM618.015 341.22C619.443 341.22 620.687 340.974 621.755 340.482C622.823 339.99 623.714 339.283 624.42 338.361C625.134 337.439 625.664 336.333 626.018 335.034C626.371 333.735 626.548 332.275 626.548 330.662C626.548 329.063 626.371 327.611 626.018 326.305C625.664 324.999 625.134 323.884 624.42 322.955C623.706 322.025 622.815 321.31 621.755 320.811C620.687 320.311 619.443 320.058 618.015 320.058C616.586 320.058 615.342 320.311 614.274 320.811C613.207 321.31 612.316 322.025 611.609 322.955C610.895 323.884 610.357 324.999 609.996 326.305C609.635 327.611 609.459 329.063 609.459 330.662C609.459 332.275 609.635 333.735 609.996 335.034C610.357 336.333 610.895 337.439 611.609 338.361C612.323 339.283 613.214 339.99 614.274 340.482C615.342 340.974 616.586 341.22 618.015 341.22Z" fill="#35609D"/>
<path d="M634.912 342.718V318.636H636.11C636.379 318.636 636.579 318.69 636.702 318.805C636.825 318.92 636.894 319.113 636.909 319.389L637.101 324.476C637.869 322.524 638.898 320.995 640.181 319.889C641.464 318.782 643.038 318.229 644.92 318.229C645.642 318.229 646.302 318.306 646.917 318.459C647.524 318.613 648.1 318.836 648.645 319.128L648.33 320.726C648.284 320.987 648.123 321.11 647.846 321.11C647.746 321.11 647.616 321.08 647.439 321.011C647.262 320.949 647.04 320.872 646.778 320.795C646.517 320.719 646.187 320.642 645.803 320.58C645.419 320.519 644.981 320.48 644.482 320.48C642.669 320.48 641.187 321.049 640.02 322.178C638.86 323.308 637.915 324.937 637.193 327.066V342.726H634.912V342.718Z" fill="#35609D"/>
<path d="M660.511 343.102C658.89 343.102 657.63 342.649 656.74 341.75C655.841 340.843 655.395 339.452 655.395 337.562V321.103H651.955C651.778 321.103 651.632 321.057 651.524 320.957C651.417 320.857 651.355 320.726 651.355 320.542V319.643L655.441 319.351L656.01 310.737C656.025 310.591 656.087 310.46 656.186 310.353C656.286 310.237 656.425 310.184 656.601 310.184H657.669V319.382H665.196V321.103H657.669V337.439C657.669 338.1 657.753 338.669 657.922 339.145C658.091 339.621 658.322 340.013 658.621 340.321C658.921 340.628 659.266 340.851 659.666 340.997C660.065 341.143 660.495 341.212 660.964 341.212C661.54 341.212 662.039 341.127 662.454 340.958C662.869 340.789 663.23 340.605 663.537 340.405C663.844 340.205 664.09 340.021 664.282 339.852C664.474 339.683 664.627 339.598 664.735 339.598C664.865 339.598 664.988 339.683 665.119 339.837L665.741 340.851C665.134 341.527 664.359 342.073 663.422 342.488C662.492 342.902 661.517 343.102 660.511 343.102Z" fill="#35609D"/>
<path d="M680.242 318.244C681.955 318.244 683.491 318.536 684.843 319.128C686.195 319.72 687.339 320.549 688.268 321.633C689.198 322.716 689.904 324.015 690.396 325.544C690.887 327.066 691.125 328.779 691.125 330.662C691.125 332.544 690.88 334.25 690.396 335.772C689.904 337.285 689.198 338.592 688.268 339.667C687.339 340.751 686.195 341.581 684.843 342.157C683.491 342.741 681.955 343.025 680.242 343.025C678.529 343.025 676.993 342.733 675.642 342.157C674.29 341.573 673.145 340.743 672.201 339.667C671.264 338.584 670.549 337.285 670.058 335.772C669.566 334.258 669.328 332.552 669.328 330.662C669.328 328.771 669.574 327.066 670.058 325.544C670.549 324.023 671.256 322.716 672.201 321.633C673.138 320.549 674.282 319.72 675.642 319.128C676.993 318.544 678.529 318.244 680.242 318.244ZM680.242 341.22C681.671 341.22 682.915 340.974 683.983 340.482C685.05 339.99 685.941 339.283 686.648 338.361C687.362 337.439 687.892 336.333 688.245 335.034C688.599 333.735 688.775 332.275 688.775 330.662C688.775 329.063 688.599 327.611 688.245 326.305C687.892 324.999 687.362 323.884 686.648 322.955C685.933 322.025 685.042 321.31 683.983 320.811C682.915 320.311 681.671 320.058 680.242 320.058C678.814 320.058 677.569 320.311 676.502 320.811C675.434 321.31 674.543 322.025 673.837 322.955C673.122 323.884 672.585 324.999 672.224 326.305C671.863 327.611 671.686 329.063 671.686 330.662C671.686 332.275 671.863 333.735 672.224 335.034C672.585 336.333 673.122 337.439 673.837 338.361C674.551 339.283 675.442 339.99 676.502 340.482C677.569 340.974 678.814 341.22 680.242 341.22Z" fill="#35609D"/>
<path d="M92.0053 49.8697C91.9439 49.693 91.6981 49.693 91.6367 49.8697C81.5982 80.4524 71.5598 111.527 61.8439 141.134C53.7025 165.953 45.2616 190.688 37.6425 215.669C35.4536 222.839 32.2585 225.228 24.793 222.869C46.7363 157.347 68.6796 91.6174 90.6228 26.0952C90.8072 25.5496 91.3141 25.1884 91.8825 25.1884H91.8978C92.4739 25.1884 92.9808 25.5573 93.1651 26.1029C115.308 91.6712 137.451 157.24 159.586 222.8C151.975 225.474 148.45 222.985 146.076 215.623C128.803 162.034 111.13 108.576 93.5568 55.0872C92.8348 52.5745 92.4662 51.299 92.0053 49.8697Z" fill="#375F9D"/>
<path d="M78.5488 167.951C85.0158 165.777 87.9268 167.636 89.4322 174.168C92.7886 188.698 97.1127 203.014 100.83 217.467C101.314 219.358 103.925 222.508 100.016 223.423C97.105 224.099 93.5412 224.775 92.297 219.873C87.9037 202.499 83.1572 185.225 78.5488 167.951Z" fill="#39619E"/>
<path d="M697.447 49.8697C697.385 49.693 697.14 49.693 697.078 49.8697C687.04 80.4524 677.001 111.527 667.285 141.134C659.144 165.953 650.703 190.688 643.084 215.669C640.895 222.839 637.7 225.228 630.234 222.869C652.178 157.347 674.121 91.6174 696.064 26.0952C696.249 25.5496 696.755 25.1884 697.324 25.1884H697.339C697.915 25.1884 698.422 25.5573 698.607 26.1029C720.749 91.6712 742.892 157.24 765.028 222.8C757.416 225.474 753.891 222.985 751.518 215.623C734.244 162.034 716.571 108.576 698.998 55.0872C698.276 52.5745 697.908 51.299 697.447 49.8697Z" fill="#375F9D"/>
<path d="M683.99 167.951C690.457 165.777 693.368 167.636 694.874 174.168C698.23 188.698 702.554 203.014 706.271 217.467C706.755 219.358 709.367 222.508 705.457 223.423C702.546 224.099 698.983 224.775 697.738 219.873C693.337 202.499 688.599 185.225 683.99 167.951Z" fill="#39619E"/>
<path d="M546.132 223.892H543.206V99.7788H552.669V217.353C552.669 220.965 549.742 223.892 546.132 223.892Z" fill="#AB74AE"/>
<path d="M597.384 219.634L575.088 167.882L583.552 164.232L608.721 222.647L606.916 223.423C603.237 225.006 598.974 223.307 597.384 219.634Z" fill="#AB74AE"/>
<path d="M608.683 134.548C608.053 116.867 597.761 106.978 580.902 101.899C571.924 99.1939 563.375 99.7241 559.305 99.7702V108.584C562.753 108.545 570.58 107.946 578.56 110.39C591.693 114.408 599.412 120.917 599.896 135.232C600.157 143.062 598.567 149.079 593.967 153.682C584.143 163.517 565.126 163.832 559.297 163.679V172.492C559.865 172.508 560.518 172.515 561.255 172.515C569.842 172.515 588.936 171.155 600.18 159.914C606.632 153.482 609.059 144.968 608.683 134.548Z" fill="#AB74AE"/>
<path d="M339.871 46.435V223.722H342.559C346.169 223.722 349.088 220.795 349.088 217.191V46.435H339.871Z" fill="#AB74AE"/>
<path d="M416.907 64.8921C400.164 47.3186 375.747 46.7807 355.647 46.7654V55.9863C374.826 56.0016 396.155 56.4781 410.241 71.2546C418.582 80.0067 422.706 93.2157 421.001 105.733C419.358 117.789 412.706 129.323 403.213 136.585C391.446 145.59 373.305 145.767 355.647 145.79V155.011C374.027 155.003 394.603 154.773 408.812 143.908C420.202 135.194 428.175 121.393 430.133 106.978C432.23 91.5175 427.291 75.7882 416.907 64.8921Z" fill="#AB74AE"/>
</svg>
