<svg width="395" height="262" viewBox="0 0 395 262" fill="none" xmlns="http://www.w3.org/2000/svg">
<path d="M173 25H225" stroke="#5987C6" stroke-width="6" stroke-miterlimit="10" stroke-linecap="round"/>
<path opacity="0.5" d="M0 31H395V242C395 253.046 386.046 262 375 262H20C8.9543 262 0 253.046 0 242V31Z" fill="#BDCFE8"/>
<path d="M52.575 169.26C52.575 170.87 52.32 172.35 51.81 173.7C51.3 175.04 50.58 176.195 49.65 177.165C48.72 178.135 47.6 178.89 46.29 179.43C44.99 179.96 43.55 180.225 41.97 180.225C40.39 180.225 38.95 179.96 37.65 179.43C36.35 178.89 35.235 178.135 34.305 177.165C33.375 176.195 32.655 175.04 32.145 173.7C31.635 172.35 31.38 170.87 31.38 169.26C31.38 167.65 31.635 166.175 32.145 164.835C32.655 163.485 33.375 162.325 34.305 161.355C35.235 160.375 36.35 159.615 37.65 159.075C38.95 158.535 40.39 158.265 41.97 158.265C43.55 158.265 44.99 158.535 46.29 159.075C47.6 159.615 48.72 160.375 49.65 161.355C50.58 162.325 51.3 163.485 51.81 164.835C52.32 166.175 52.575 167.65 52.575 169.26ZM49.59 169.26C49.59 167.94 49.41 166.755 49.05 165.705C48.69 164.655 48.18 163.77 47.52 163.05C46.86 162.32 46.06 161.76 45.12 161.37C44.18 160.98 43.13 160.785 41.97 160.785C40.82 160.785 39.775 160.98 38.835 161.37C37.895 161.76 37.09 162.32 36.42 163.05C35.76 163.77 35.25 164.655 34.89 165.705C34.53 166.755 34.35 167.94 34.35 169.26C34.35 170.58 34.53 171.765 34.89 172.815C35.25 173.855 35.76 174.74 36.42 175.47C37.09 176.19 37.895 176.745 38.835 177.135C39.775 177.515 40.82 177.705 41.97 177.705C43.13 177.705 44.18 177.515 45.12 177.135C46.06 176.745 46.86 176.19 47.52 175.47C48.18 174.74 48.69 173.855 49.05 172.815C49.41 171.765 49.59 170.58 49.59 169.26ZM73.0863 180H71.9013C71.6413 180 71.4313 179.96 71.2713 179.88C71.1113 179.8 71.0063 179.63 70.9563 179.37L70.6563 177.96C70.2563 178.32 69.8663 178.645 69.4863 178.935C69.1063 179.215 68.7063 179.455 68.2863 179.655C67.8663 179.845 67.4163 179.99 66.9363 180.09C66.4663 180.19 65.9413 180.24 65.3613 180.24C64.7713 180.24 64.2163 180.16 63.6963 180C63.1863 179.83 62.7413 179.58 62.3613 179.25C61.9813 178.92 61.6763 178.505 61.4463 178.005C61.2263 177.495 61.1163 176.895 61.1163 176.205C61.1163 175.605 61.2813 175.03 61.6113 174.48C61.9413 173.92 62.4713 173.425 63.2013 172.995C63.9413 172.565 64.9063 172.215 66.0963 171.945C67.2863 171.665 68.7413 171.505 70.4613 171.465V170.28C70.4613 169.1 70.2063 168.21 69.6963 167.61C69.1963 167 68.4513 166.695 67.4613 166.695C66.8113 166.695 66.2613 166.78 65.8113 166.95C65.3713 167.11 64.9863 167.295 64.6563 167.505C64.3363 167.705 64.0563 167.89 63.8163 168.06C63.5863 168.22 63.3563 168.3 63.1263 168.3C62.9463 168.3 62.7863 168.255 62.6463 168.165C62.5163 168.065 62.4113 167.945 62.3313 167.805L61.8513 166.95C62.6913 166.14 63.5963 165.535 64.5663 165.135C65.5363 164.735 66.6113 164.535 67.7913 164.535C68.6413 164.535 69.3963 164.675 70.0563 164.955C70.7163 165.235 71.2713 165.625 71.7213 166.125C72.1713 166.625 72.5113 167.23 72.7413 167.94C72.9713 168.65 73.0863 169.43 73.0863 170.28V180ZM66.1563 178.365C66.6263 178.365 67.0563 178.32 67.4463 178.23C67.8363 178.13 68.2013 177.995 68.5413 177.825C68.8913 177.645 69.2213 177.43 69.5313 177.18C69.8513 176.93 70.1613 176.645 70.4613 176.325V173.16C69.2313 173.2 68.1863 173.3 67.3263 173.46C66.4663 173.61 65.7663 173.81 65.2263 174.06C64.6863 174.31 64.2913 174.605 64.0413 174.945C63.8013 175.285 63.6813 175.665 63.6813 176.085C63.6813 176.485 63.7463 176.83 63.8763 177.12C64.0063 177.41 64.1813 177.65 64.4013 177.84C64.6213 178.02 64.8813 178.155 65.1813 178.245C65.4813 178.325 65.8063 178.365 66.1563 178.365ZM77.2214 180V157.905H79.9064V166.995C80.5364 166.265 81.2564 165.68 82.0664 165.24C82.8864 164.79 83.8214 164.565 84.8714 164.565C85.7514 164.565 86.5464 164.73 87.2564 165.06C87.9664 165.39 88.5714 165.885 89.0714 166.545C89.5714 167.195 89.9564 168.005 90.2264 168.975C90.4964 169.935 90.6314 171.045 90.6314 172.305C90.6314 173.425 90.4814 174.47 90.1814 175.44C89.8814 176.4 89.4464 177.235 88.8764 177.945C88.3164 178.645 87.6264 179.2 86.8064 179.61C85.9964 180.01 85.0814 180.21 84.0614 180.21C83.0814 180.21 82.2464 180.02 81.5564 179.64C80.8764 179.26 80.2814 178.73 79.7714 178.05L79.6364 179.43C79.5564 179.81 79.3264 180 78.9464 180H77.2214ZM84.0014 166.695C83.1314 166.695 82.3664 166.895 81.7064 167.295C81.0564 167.695 80.4564 168.26 79.9064 168.99V176.34C80.3864 177 80.9164 177.465 81.4964 177.735C82.0864 178.005 82.7414 178.14 83.4614 178.14C84.8814 178.14 85.9714 177.635 86.7314 176.625C87.4914 175.615 87.8714 174.175 87.8714 172.305C87.8714 171.315 87.7814 170.465 87.6014 169.755C87.4314 169.045 87.1814 168.465 86.8514 168.015C86.5214 167.555 86.1164 167.22 85.6364 167.01C85.1564 166.8 84.6114 166.695 84.0014 166.695ZM100.039 164.565C101.149 164.565 102.149 164.75 103.039 165.12C103.939 165.49 104.699 166.015 105.319 166.695C105.949 167.375 106.429 168.2 106.759 169.17C107.099 170.13 107.269 171.205 107.269 172.395C107.269 173.595 107.099 174.675 106.759 175.635C106.429 176.595 105.949 177.415 105.319 178.095C104.699 178.775 103.939 179.3 103.039 179.67C102.149 180.03 101.149 180.21 100.039 180.21C98.9292 180.21 97.9242 180.03 97.0242 179.67C96.1342 179.3 95.3742 178.775 94.7442 178.095C94.1142 177.415 93.6292 176.595 93.2892 175.635C92.9492 174.675 92.7792 173.595 92.7792 172.395C92.7792 171.205 92.9492 170.13 93.2892 169.17C93.6292 168.2 94.1142 167.375 94.7442 166.695C95.3742 166.015 96.1342 165.49 97.0242 165.12C97.9242 164.75 98.9292 164.565 100.039 164.565ZM100.039 178.125C101.539 178.125 102.659 177.625 103.399 176.625C104.139 175.615 104.509 174.21 104.509 172.41C104.509 170.6 104.139 169.19 103.399 168.18C102.659 167.17 101.539 166.665 100.039 166.665C99.2792 166.665 98.6192 166.795 98.0592 167.055C97.4992 167.315 97.0292 167.69 96.6492 168.18C96.2792 168.67 95.9992 169.275 95.8092 169.995C95.6292 170.705 95.5392 171.51 95.5392 172.41C95.5392 173.31 95.6292 174.115 95.8092 174.825C95.9992 175.535 96.2792 176.135 96.6492 176.625C97.0292 177.105 97.4992 177.475 98.0592 177.735C98.6192 177.995 99.2792 178.125 100.039 178.125ZM110.559 180V164.805H112.089C112.379 164.805 112.579 164.86 112.689 164.97C112.799 165.08 112.874 165.27 112.914 165.54L113.094 167.91C113.614 166.85 114.254 166.025 115.014 165.435C115.784 164.835 116.684 164.535 117.714 164.535C118.134 164.535 118.514 164.585 118.854 164.685C119.194 164.775 119.509 164.905 119.799 165.075L119.454 167.07C119.384 167.32 119.229 167.445 118.989 167.445C118.849 167.445 118.634 167.4 118.344 167.31C118.054 167.21 117.649 167.16 117.129 167.16C116.199 167.16 115.419 167.43 114.789 167.97C114.169 168.51 113.649 169.295 113.229 170.325V180H110.559ZM127.264 180.24C126.064 180.24 125.139 179.905 124.489 179.235C123.849 178.565 123.529 177.6 123.529 176.34V167.04H121.699C121.539 167.04 121.404 166.995 121.294 166.905C121.184 166.805 121.129 166.655 121.129 166.455V165.39L123.619 165.075L124.234 160.38C124.254 160.23 124.319 160.11 124.429 160.02C124.539 159.92 124.679 159.87 124.849 159.87H126.199V165.105H130.549V167.04H126.199V176.16C126.199 176.8 126.354 177.275 126.664 177.585C126.974 177.895 127.374 178.05 127.864 178.05C128.144 178.05 128.384 178.015 128.584 177.945C128.794 177.865 128.974 177.78 129.124 177.69C129.274 177.6 129.399 177.52 129.499 177.45C129.609 177.37 129.704 177.33 129.784 177.33C129.924 177.33 130.049 177.415 130.159 177.585L130.939 178.86C130.479 179.29 129.924 179.63 129.274 179.88C128.624 180.12 127.954 180.24 127.264 180.24ZM145.01 180H143.825C143.565 180 143.355 179.96 143.195 179.88C143.035 179.8 142.93 179.63 142.88 179.37L142.58 177.96C142.18 178.32 141.79 178.645 141.41 178.935C141.03 179.215 140.63 179.455 140.21 179.655C139.79 179.845 139.34 179.99 138.86 180.09C138.39 180.19 137.865 180.24 137.285 180.24C136.695 180.24 136.14 180.16 135.62 180C135.11 179.83 134.665 179.58 134.285 179.25C133.905 178.92 133.6 178.505 133.37 178.005C133.15 177.495 133.04 176.895 133.04 176.205C133.04 175.605 133.205 175.03 133.535 174.48C133.865 173.92 134.395 173.425 135.125 172.995C135.865 172.565 136.83 172.215 138.02 171.945C139.21 171.665 140.665 171.505 142.385 171.465V170.28C142.385 169.1 142.13 168.21 141.62 167.61C141.12 167 140.375 166.695 139.385 166.695C138.735 166.695 138.185 166.78 137.735 166.95C137.295 167.11 136.91 167.295 136.58 167.505C136.26 167.705 135.98 167.89 135.74 168.06C135.51 168.22 135.28 168.3 135.05 168.3C134.87 168.3 134.71 168.255 134.57 168.165C134.44 168.065 134.335 167.945 134.255 167.805L133.775 166.95C134.615 166.14 135.52 165.535 136.49 165.135C137.46 164.735 138.535 164.535 139.715 164.535C140.565 164.535 141.32 164.675 141.98 164.955C142.64 165.235 143.195 165.625 143.645 166.125C144.095 166.625 144.435 167.23 144.665 167.94C144.895 168.65 145.01 169.43 145.01 170.28V180ZM138.08 178.365C138.55 178.365 138.98 178.32 139.37 178.23C139.76 178.13 140.125 177.995 140.465 177.825C140.815 177.645 141.145 177.43 141.455 177.18C141.775 176.93 142.085 176.645 142.385 176.325V173.16C141.155 173.2 140.11 173.3 139.25 173.46C138.39 173.61 137.69 173.81 137.15 174.06C136.61 174.31 136.215 174.605 135.965 174.945C135.725 175.285 135.605 175.665 135.605 176.085C135.605 176.485 135.67 176.83 135.8 177.12C135.93 177.41 136.105 177.65 136.325 177.84C136.545 178.02 136.805 178.155 137.105 178.245C137.405 178.325 137.73 178.365 138.08 178.365ZM149.055 180V164.805H150.645C151.025 164.805 151.265 164.99 151.365 165.36L151.56 166.92C152.12 166.23 152.745 165.665 153.435 165.225C154.135 164.785 154.945 164.565 155.865 164.565C156.895 164.565 157.725 164.85 158.355 165.42C158.995 165.99 159.455 166.76 159.735 167.73C159.945 167.18 160.22 166.705 160.56 166.305C160.91 165.905 161.3 165.575 161.73 165.315C162.16 165.055 162.615 164.865 163.095 164.745C163.585 164.625 164.08 164.565 164.58 164.565C165.38 164.565 166.09 164.695 166.71 164.955C167.34 165.205 167.87 165.575 168.3 166.065C168.74 166.555 169.075 167.16 169.305 167.88C169.535 168.59 169.65 169.405 169.65 170.325V180H166.98V170.325C166.98 169.135 166.72 168.235 166.2 167.625C165.68 167.005 164.925 166.695 163.935 166.695C163.495 166.695 163.075 166.775 162.675 166.935C162.285 167.085 161.94 167.31 161.64 167.61C161.34 167.91 161.1 168.29 160.92 168.75C160.75 169.2 160.665 169.725 160.665 170.325V180H157.995V170.325C157.995 169.105 157.75 168.195 157.26 167.595C156.77 166.995 156.055 166.695 155.115 166.695C154.455 166.695 153.84 166.875 153.27 167.235C152.71 167.585 152.195 168.065 151.725 168.675V180H149.055ZM179.709 164.565C180.619 164.565 181.459 164.72 182.229 165.03C182.999 165.33 183.664 165.77 184.224 166.35C184.784 166.92 185.219 167.63 185.529 168.48C185.849 169.32 186.009 170.28 186.009 171.36C186.009 171.78 185.964 172.06 185.874 172.2C185.784 172.34 185.614 172.41 185.364 172.41H175.254C175.274 173.37 175.404 174.205 175.644 174.915C175.884 175.625 176.214 176.22 176.634 176.7C177.054 177.17 177.554 177.525 178.134 177.765C178.714 177.995 179.364 178.11 180.084 178.11C180.754 178.11 181.329 178.035 181.809 177.885C182.299 177.725 182.719 177.555 183.069 177.375C183.419 177.195 183.709 177.03 183.939 176.88C184.179 176.72 184.384 176.64 184.554 176.64C184.774 176.64 184.944 176.725 185.064 176.895L185.814 177.87C185.484 178.27 185.089 178.62 184.629 178.92C184.169 179.21 183.674 179.45 183.144 179.64C182.624 179.83 182.084 179.97 181.524 180.06C180.964 180.16 180.409 180.21 179.859 180.21C178.809 180.21 177.839 180.035 176.949 179.685C176.069 179.325 175.304 178.805 174.654 178.125C174.014 177.435 173.514 176.585 173.154 175.575C172.794 174.565 172.614 173.405 172.614 172.095C172.614 171.035 172.774 170.045 173.094 169.125C173.424 168.205 173.894 167.41 174.504 166.74C175.114 166.06 175.859 165.53 176.739 165.15C177.619 164.76 178.609 164.565 179.709 164.565ZM179.769 166.53C178.479 166.53 177.464 166.905 176.724 167.655C175.984 168.395 175.524 169.425 175.344 170.745H183.609C183.609 170.125 183.524 169.56 183.354 169.05C183.184 168.53 182.934 168.085 182.604 167.715C182.274 167.335 181.869 167.045 181.389 166.845C180.919 166.635 180.379 166.53 179.769 166.53ZM189.426 180V164.805H191.016C191.396 164.805 191.636 164.99 191.736 165.36L191.946 167.01C192.606 166.28 193.341 165.69 194.151 165.24C194.971 164.79 195.916 164.565 196.986 164.565C197.816 164.565 198.546 164.705 199.176 164.985C199.816 165.255 200.346 165.645 200.766 166.155C201.196 166.655 201.521 167.26 201.741 167.97C201.961 168.68 202.071 169.465 202.071 170.325V180H199.401V170.325C199.401 169.175 199.136 168.285 198.606 167.655C198.086 167.015 197.286 166.695 196.206 166.695C195.416 166.695 194.676 166.885 193.986 167.265C193.306 167.645 192.676 168.16 192.096 168.81V180H189.426ZM210.701 180.24C209.501 180.24 208.576 179.905 207.926 179.235C207.286 178.565 206.966 177.6 206.966 176.34V167.04H205.136C204.976 167.04 204.841 166.995 204.731 166.905C204.621 166.805 204.566 166.655 204.566 166.455V165.39L207.056 165.075L207.671 160.38C207.691 160.23 207.756 160.11 207.866 160.02C207.976 159.92 208.116 159.87 208.286 159.87H209.636V165.105H213.986V167.04H209.636V176.16C209.636 176.8 209.791 177.275 210.101 177.585C210.411 177.895 210.811 178.05 211.301 178.05C211.581 178.05 211.821 178.015 212.021 177.945C212.231 177.865 212.411 177.78 212.561 177.69C212.711 177.6 212.836 177.52 212.936 177.45C213.046 177.37 213.141 177.33 213.221 177.33C213.361 177.33 213.486 177.415 213.596 177.585L214.376 178.86C213.916 179.29 213.361 179.63 212.711 179.88C212.061 180.12 211.391 180.24 210.701 180.24ZM223.438 164.565C224.548 164.565 225.548 164.75 226.438 165.12C227.338 165.49 228.098 166.015 228.718 166.695C229.348 167.375 229.828 168.2 230.158 169.17C230.498 170.13 230.668 171.205 230.668 172.395C230.668 173.595 230.498 174.675 230.158 175.635C229.828 176.595 229.348 177.415 228.718 178.095C228.098 178.775 227.338 179.3 226.438 179.67C225.548 180.03 224.548 180.21 223.438 180.21C222.328 180.21 221.323 180.03 220.423 179.67C219.533 179.3 218.773 178.775 218.143 178.095C217.513 177.415 217.028 176.595 216.688 175.635C216.348 174.675 216.178 173.595 216.178 172.395C216.178 171.205 216.348 170.13 216.688 169.17C217.028 168.2 217.513 167.375 218.143 166.695C218.773 166.015 219.533 165.49 220.423 165.12C221.323 164.75 222.328 164.565 223.438 164.565ZM223.438 178.125C224.938 178.125 226.058 177.625 226.798 176.625C227.538 175.615 227.908 174.21 227.908 172.41C227.908 170.6 227.538 169.19 226.798 168.18C226.058 167.17 224.938 166.665 223.438 166.665C222.678 166.665 222.018 166.795 221.458 167.055C220.898 167.315 220.428 167.69 220.048 168.18C219.678 168.67 219.398 169.275 219.208 169.995C219.028 170.705 218.938 171.51 218.938 172.41C218.938 173.31 219.028 174.115 219.208 174.825C219.398 175.535 219.678 176.135 220.048 176.625C220.428 177.105 220.898 177.475 221.458 177.735C222.018 177.995 222.678 178.125 223.438 178.125ZM239.758 180V164.805H241.348C241.728 164.805 241.968 164.99 242.068 165.36L242.278 167.01C242.938 166.28 243.673 165.69 244.483 165.24C245.303 164.79 246.248 164.565 247.318 164.565C248.148 164.565 248.878 164.705 249.508 164.985C250.148 165.255 250.678 165.645 251.098 166.155C251.528 166.655 251.853 167.26 252.073 167.97C252.293 168.68 252.403 169.465 252.403 170.325V180H249.733V170.325C249.733 169.175 249.468 168.285 248.938 167.655C248.418 167.015 247.618 166.695 246.538 166.695C245.748 166.695 245.008 166.885 244.318 167.265C243.638 167.645 243.008 168.16 242.428 168.81V180H239.758ZM262.578 164.565C263.688 164.565 264.688 164.75 265.578 165.12C266.478 165.49 267.238 166.015 267.858 166.695C268.488 167.375 268.968 168.2 269.298 169.17C269.638 170.13 269.808 171.205 269.808 172.395C269.808 173.595 269.638 174.675 269.298 175.635C268.968 176.595 268.488 177.415 267.858 178.095C267.238 178.775 266.478 179.3 265.578 179.67C264.688 180.03 263.688 180.21 262.578 180.21C261.468 180.21 260.463 180.03 259.563 179.67C258.673 179.3 257.913 178.775 257.283 178.095C256.653 177.415 256.168 176.595 255.828 175.635C255.488 174.675 255.318 173.595 255.318 172.395C255.318 171.205 255.488 170.13 255.828 169.17C256.168 168.2 256.653 167.375 257.283 166.695C257.913 166.015 258.673 165.49 259.563 165.12C260.463 164.75 261.468 164.565 262.578 164.565ZM262.578 178.125C264.078 178.125 265.198 177.625 265.938 176.625C266.678 175.615 267.048 174.21 267.048 172.41C267.048 170.6 266.678 169.19 265.938 168.18C265.198 167.17 264.078 166.665 262.578 166.665C261.818 166.665 261.158 166.795 260.598 167.055C260.038 167.315 259.568 167.69 259.188 168.18C258.818 168.67 258.538 169.275 258.348 169.995C258.168 170.705 258.078 171.51 258.078 172.41C258.078 173.31 258.168 174.115 258.348 174.825C258.538 175.535 258.818 176.135 259.188 176.625C259.568 177.105 260.038 177.475 260.598 177.735C261.158 177.995 261.818 178.125 262.578 178.125ZM32.19 222V206.805H33.78C34.16 206.805 34.4 206.99 34.5 207.36L34.695 208.92C35.255 208.23 35.88 207.665 36.57 207.225C37.27 206.785 38.08 206.565 39 206.565C40.03 206.565 40.86 206.85 41.49 207.42C42.13 207.99 42.59 208.76 42.87 209.73C43.08 209.18 43.355 208.705 43.695 208.305C44.045 207.905 44.435 207.575 44.865 207.315C45.295 207.055 45.75 206.865 46.23 206.745C46.72 206.625 47.215 206.565 47.715 206.565C48.515 206.565 49.225 206.695 49.845 206.955C50.475 207.205 51.005 207.575 51.435 208.065C51.875 208.555 52.21 209.16 52.44 209.88C52.67 210.59 52.785 211.405 52.785 212.325V222H50.115V212.325C50.115 211.135 49.855 210.235 49.335 209.625C48.815 209.005 48.06 208.695 47.07 208.695C46.63 208.695 46.21 208.775 45.81 208.935C45.42 209.085 45.075 209.31 44.775 209.61C44.475 209.91 44.235 210.29 44.055 210.75C43.885 211.2 43.8 211.725 43.8 212.325V222H41.13V212.325C41.13 211.105 40.885 210.195 40.395 209.595C39.905 208.995 39.19 208.695 38.25 208.695C37.59 208.695 36.975 208.875 36.405 209.235C35.845 209.585 35.33 210.065 34.86 210.675V222H32.19ZM59.1387 206.805V216.495C59.1387 217.645 59.4037 218.535 59.9337 219.165C60.4637 219.795 61.2637 220.11 62.3337 220.11C63.1137 220.11 63.8487 219.925 64.5387 219.555C65.2287 219.185 65.8637 218.67 66.4437 218.01V206.805H69.1137V222H67.5237C67.1437 222 66.9037 221.815 66.8037 221.445L66.5937 219.81C65.9337 220.54 65.1937 221.13 64.3737 221.58C63.5537 222.02 62.6137 222.24 61.5537 222.24C60.7237 222.24 59.9887 222.105 59.3487 221.835C58.7187 221.555 58.1887 221.165 57.7587 220.665C57.3287 220.165 57.0037 219.56 56.7837 218.85C56.5737 218.14 56.4687 217.355 56.4687 216.495V206.805H59.1387ZM73.4986 222V206.805H75.0886C75.4686 206.805 75.7086 206.99 75.8086 207.36L76.0186 209.01C76.6786 208.28 77.4136 207.69 78.2236 207.24C79.0436 206.79 79.9886 206.565 81.0586 206.565C81.8886 206.565 82.6186 206.705 83.2486 206.985C83.8886 207.255 84.4186 207.645 84.8386 208.155C85.2686 208.655 85.5936 209.26 85.8136 209.97C86.0336 210.68 86.1436 211.465 86.1436 212.325V222H83.4736V212.325C83.4736 211.175 83.2086 210.285 82.6786 209.655C82.1586 209.015 81.3586 208.695 80.2786 208.695C79.4886 208.695 78.7486 208.885 78.0586 209.265C77.3786 209.645 76.7486 210.16 76.1686 210.81V222H73.4986ZM100.864 222C100.484 222 100.244 221.815 100.144 221.445L99.9035 219.6C99.2535 220.39 98.5085 221.025 97.6685 221.505C96.8385 221.975 95.8835 222.21 94.8035 222.21C93.9335 222.21 93.1435 222.045 92.4335 221.715C91.7235 221.375 91.1185 220.88 90.6185 220.23C90.1185 219.58 89.7335 218.77 89.4635 217.8C89.1935 216.83 89.0585 215.715 89.0585 214.455C89.0585 213.335 89.2085 212.295 89.5085 211.335C89.8085 210.365 90.2385 209.525 90.7985 208.815C91.3685 208.105 92.0585 207.55 92.8685 207.15C93.6785 206.74 94.5985 206.535 95.6285 206.535C96.5585 206.535 97.3535 206.695 98.0135 207.015C98.6735 207.325 99.2635 207.765 99.7835 208.335V199.905H102.454V222H100.864ZM95.6885 220.05C96.5585 220.05 97.3185 219.85 97.9685 219.45C98.6285 219.05 99.2335 218.485 99.7835 217.755V210.405C99.2935 209.745 98.7535 209.285 98.1635 209.025C97.5835 208.755 96.9385 208.62 96.2285 208.62C94.8085 208.62 93.7185 209.125 92.9585 210.135C92.1985 211.145 91.8185 212.585 91.8185 214.455C91.8185 215.445 91.9035 216.295 92.0735 217.005C92.2435 217.705 92.4935 218.285 92.8235 218.745C93.1535 219.195 93.5585 219.525 94.0385 219.735C94.5185 219.945 95.0685 220.05 95.6885 220.05ZM113.076 206.565C114.186 206.565 115.186 206.75 116.076 207.12C116.976 207.49 117.736 208.015 118.356 208.695C118.986 209.375 119.466 210.2 119.796 211.17C120.136 212.13 120.306 213.205 120.306 214.395C120.306 215.595 120.136 216.675 119.796 217.635C119.466 218.595 118.986 219.415 118.356 220.095C117.736 220.775 116.976 221.3 116.076 221.67C115.186 222.03 114.186 222.21 113.076 222.21C111.966 222.21 110.961 222.03 110.061 221.67C109.171 221.3 108.411 220.775 107.781 220.095C107.151 219.415 106.666 218.595 106.326 217.635C105.986 216.675 105.816 215.595 105.816 214.395C105.816 213.205 105.986 212.13 106.326 211.17C106.666 210.2 107.151 209.375 107.781 208.695C108.411 208.015 109.171 207.49 110.061 207.12C110.961 206.75 111.966 206.565 113.076 206.565ZM113.076 220.125C114.576 220.125 115.696 219.625 116.436 218.625C117.176 217.615 117.546 216.21 117.546 214.41C117.546 212.6 117.176 211.19 116.436 210.18C115.696 209.17 114.576 208.665 113.076 208.665C112.316 208.665 111.656 208.795 111.096 209.055C110.536 209.315 110.066 209.69 109.686 210.18C109.316 210.67 109.036 211.275 108.846 211.995C108.666 212.705 108.576 213.51 108.576 214.41C108.576 215.31 108.666 216.115 108.846 216.825C109.036 217.535 109.316 218.135 109.686 218.625C110.066 219.105 110.536 219.475 111.096 219.735C111.656 219.995 112.316 220.125 113.076 220.125ZM135.412 206.565C136.322 206.565 137.162 206.72 137.932 207.03C138.702 207.33 139.367 207.77 139.927 208.35C140.487 208.92 140.922 209.63 141.232 210.48C141.552 211.32 141.712 212.28 141.712 213.36C141.712 213.78 141.667 214.06 141.577 214.2C141.487 214.34 141.317 214.41 141.067 214.41H130.957C130.977 215.37 131.107 216.205 131.347 216.915C131.587 217.625 131.917 218.22 132.337 218.7C132.757 219.17 133.257 219.525 133.837 219.765C134.417 219.995 135.067 220.11 135.787 220.11C136.457 220.11 137.032 220.035 137.512 219.885C138.002 219.725 138.422 219.555 138.772 219.375C139.122 219.195 139.412 219.03 139.642 218.88C139.882 218.72 140.087 218.64 140.257 218.64C140.477 218.64 140.647 218.725 140.767 218.895L141.517 219.87C141.187 220.27 140.792 220.62 140.332 220.92C139.872 221.21 139.377 221.45 138.847 221.64C138.327 221.83 137.787 221.97 137.227 222.06C136.667 222.16 136.112 222.21 135.562 222.21C134.512 222.21 133.542 222.035 132.652 221.685C131.772 221.325 131.007 220.805 130.357 220.125C129.717 219.435 129.217 218.585 128.857 217.575C128.497 216.565 128.317 215.405 128.317 214.095C128.317 213.035 128.477 212.045 128.797 211.125C129.127 210.205 129.597 209.41 130.207 208.74C130.817 208.06 131.562 207.53 132.442 207.15C133.322 206.76 134.312 206.565 135.412 206.565ZM135.472 208.53C134.182 208.53 133.167 208.905 132.427 209.655C131.687 210.395 131.227 211.425 131.047 212.745H139.312C139.312 212.125 139.227 211.56 139.057 211.05C138.887 210.53 138.637 210.085 138.307 209.715C137.977 209.335 137.572 209.045 137.092 208.845C136.622 208.635 136.082 208.53 135.472 208.53ZM150.93 222V206.805H152.52C152.9 206.805 153.14 206.99 153.24 207.36L153.45 209.01C154.11 208.28 154.845 207.69 155.655 207.24C156.475 206.79 157.42 206.565 158.49 206.565C159.32 206.565 160.05 206.705 160.68 206.985C161.32 207.255 161.85 207.645 162.27 208.155C162.7 208.655 163.025 209.26 163.245 209.97C163.465 210.68 163.575 211.465 163.575 212.325V222H160.905V212.325C160.905 211.175 160.64 210.285 160.11 209.655C159.59 209.015 158.79 208.695 157.71 208.695C156.92 208.695 156.18 208.885 155.49 209.265C154.81 209.645 154.18 210.16 153.6 210.81V222H150.93ZM173.75 206.565C174.86 206.565 175.86 206.75 176.75 207.12C177.65 207.49 178.41 208.015 179.03 208.695C179.66 209.375 180.14 210.2 180.47 211.17C180.81 212.13 180.98 213.205 180.98 214.395C180.98 215.595 180.81 216.675 180.47 217.635C180.14 218.595 179.66 219.415 179.03 220.095C178.41 220.775 177.65 221.3 176.75 221.67C175.86 222.03 174.86 222.21 173.75 222.21C172.64 222.21 171.635 222.03 170.735 221.67C169.845 221.3 169.085 220.775 168.455 220.095C167.825 219.415 167.34 218.595 167 217.635C166.66 216.675 166.49 215.595 166.49 214.395C166.49 213.205 166.66 212.13 167 211.17C167.34 210.2 167.825 209.375 168.455 208.695C169.085 208.015 169.845 207.49 170.735 207.12C171.635 206.75 172.64 206.565 173.75 206.565ZM173.75 220.125C175.25 220.125 176.37 219.625 177.11 218.625C177.85 217.615 178.22 216.21 178.22 214.41C178.22 212.6 177.85 211.19 177.11 210.18C176.37 209.17 175.25 208.665 173.75 208.665C172.99 208.665 172.33 208.795 171.77 209.055C171.21 209.315 170.74 209.69 170.36 210.18C169.99 210.67 169.71 211.275 169.52 211.995C169.34 212.705 169.25 213.51 169.25 214.41C169.25 215.31 169.34 216.115 169.52 216.825C169.71 217.535 169.99 218.135 170.36 218.625C170.74 219.105 171.21 219.475 171.77 219.735C172.33 219.995 172.99 220.125 173.75 220.125ZM190.491 222V200.505H197.346C198.666 200.505 199.801 200.635 200.751 200.895C201.711 201.155 202.496 201.525 203.106 202.005C203.726 202.485 204.181 203.075 204.471 203.775C204.771 204.465 204.921 205.245 204.921 206.115C204.921 206.645 204.836 207.155 204.666 207.645C204.506 208.135 204.256 208.59 203.916 209.01C203.586 209.43 203.166 209.805 202.656 210.135C202.156 210.465 201.566 210.735 200.886 210.945C202.456 211.255 203.641 211.82 204.441 212.64C205.241 213.46 205.641 214.54 205.641 215.88C205.641 216.79 205.471 217.62 205.131 218.37C204.801 219.12 204.311 219.765 203.661 220.305C203.021 220.845 202.231 221.265 201.291 221.565C200.361 221.855 199.296 222 198.096 222H190.491ZM193.401 212.205V219.69H198.051C198.881 219.69 199.591 219.595 200.181 219.405C200.781 219.215 201.271 218.95 201.651 218.61C202.041 218.26 202.326 217.85 202.506 217.38C202.686 216.9 202.776 216.375 202.776 215.805C202.776 214.695 202.381 213.82 201.591 213.18C200.811 212.53 199.626 212.205 198.036 212.205H193.401ZM193.401 210.135H197.241C198.061 210.135 198.771 210.045 199.371 209.865C199.971 209.685 200.466 209.435 200.856 209.115C201.256 208.795 201.551 208.41 201.741 207.96C201.931 207.5 202.026 207 202.026 206.46C202.026 205.2 201.646 204.275 200.886 203.685C200.126 203.095 198.946 202.8 197.346 202.8H193.401V210.135ZM209.495 222V206.805H211.025C211.315 206.805 211.515 206.86 211.625 206.97C211.735 207.08 211.81 207.27 211.85 207.54L212.03 209.91C212.55 208.85 213.19 208.025 213.95 207.435C214.72 206.835 215.62 206.535 216.65 206.535C217.07 206.535 217.45 206.585 217.79 206.685C218.13 206.775 218.445 206.905 218.735 207.075L218.39 209.07C218.32 209.32 218.165 209.445 217.925 209.445C217.785 209.445 217.57 209.4 217.28 209.31C216.99 209.21 216.585 209.16 216.065 209.16C215.135 209.16 214.355 209.43 213.725 209.97C213.105 210.51 212.585 211.295 212.165 212.325V222H209.495ZM232.198 222H231.013C230.753 222 230.543 221.96 230.383 221.88C230.223 221.8 230.118 221.63 230.068 221.37L229.768 219.96C229.368 220.32 228.978 220.645 228.598 220.935C228.218 221.215 227.818 221.455 227.398 221.655C226.978 221.845 226.528 221.99 226.048 222.09C225.578 222.19 225.053 222.24 224.473 222.24C223.883 222.24 223.328 222.16 222.808 222C222.298 221.83 221.853 221.58 221.473 221.25C221.093 220.92 220.788 220.505 220.558 220.005C220.338 219.495 220.228 218.895 220.228 218.205C220.228 217.605 220.393 217.03 220.723 216.48C221.053 215.92 221.583 215.425 222.313 214.995C223.053 214.565 224.018 214.215 225.208 213.945C226.398 213.665 227.853 213.505 229.573 213.465V212.28C229.573 211.1 229.318 210.21 228.808 209.61C228.308 209 227.563 208.695 226.573 208.695C225.923 208.695 225.373 208.78 224.923 208.95C224.483 209.11 224.098 209.295 223.768 209.505C223.448 209.705 223.168 209.89 222.928 210.06C222.698 210.22 222.468 210.3 222.238 210.3C222.058 210.3 221.898 210.255 221.758 210.165C221.628 210.065 221.523 209.945 221.443 209.805L220.963 208.95C221.803 208.14 222.708 207.535 223.678 207.135C224.648 206.735 225.723 206.535 226.903 206.535C227.753 206.535 228.508 206.675 229.168 206.955C229.828 207.235 230.383 207.625 230.833 208.125C231.283 208.625 231.623 209.23 231.853 209.94C232.083 210.65 232.198 211.43 232.198 212.28V222ZM225.268 220.365C225.738 220.365 226.168 220.32 226.558 220.23C226.948 220.13 227.313 219.995 227.653 219.825C228.003 219.645 228.333 219.43 228.643 219.18C228.963 218.93 229.273 218.645 229.573 218.325V215.16C228.343 215.2 227.298 215.3 226.438 215.46C225.578 215.61 224.878 215.81 224.338 216.06C223.798 216.31 223.403 216.605 223.153 216.945C222.913 217.285 222.793 217.665 222.793 218.085C222.793 218.485 222.858 218.83 222.988 219.12C223.118 219.41 223.293 219.65 223.513 219.84C223.733 220.02 223.993 220.155 224.293 220.245C224.593 220.325 224.918 220.365 225.268 220.365ZM244.943 209.31C244.823 209.53 244.638 209.64 244.388 209.64C244.238 209.64 244.068 209.585 243.878 209.475C243.688 209.365 243.453 209.245 243.173 209.115C242.903 208.975 242.578 208.85 242.198 208.74C241.818 208.62 241.368 208.56 240.848 208.56C240.398 208.56 239.993 208.62 239.633 208.74C239.273 208.85 238.963 209.005 238.703 209.205C238.453 209.405 238.258 209.64 238.118 209.91C237.988 210.17 237.923 210.455 237.923 210.765C237.923 211.155 238.033 211.48 238.253 211.74C238.483 212 238.783 212.225 239.153 212.415C239.523 212.605 239.943 212.775 240.413 212.925C240.883 213.065 241.363 213.22 241.853 213.39C242.353 213.55 242.838 213.73 243.308 213.93C243.778 214.13 244.198 214.38 244.568 214.68C244.938 214.98 245.233 215.35 245.453 215.79C245.683 216.22 245.798 216.74 245.798 217.35C245.798 218.05 245.673 218.7 245.423 219.3C245.173 219.89 244.803 220.405 244.313 220.845C243.823 221.275 243.223 221.615 242.513 221.865C241.803 222.115 240.983 222.24 240.053 222.24C238.993 222.24 238.033 222.07 237.173 221.73C236.313 221.38 235.583 220.935 234.983 220.395L235.613 219.375C235.693 219.245 235.788 219.145 235.898 219.075C236.008 219.005 236.153 218.97 236.333 218.97C236.513 218.97 236.703 219.04 236.903 219.18C237.103 219.32 237.343 219.475 237.623 219.645C237.913 219.815 238.258 219.97 238.658 220.11C239.068 220.25 239.578 220.32 240.188 220.32C240.708 220.32 241.163 220.255 241.553 220.125C241.943 219.985 242.268 219.8 242.528 219.57C242.788 219.34 242.978 219.075 243.098 218.775C243.228 218.475 243.293 218.155 243.293 217.815C243.293 217.395 243.178 217.05 242.948 216.78C242.728 216.5 242.433 216.265 242.063 216.075C241.693 215.875 241.268 215.705 240.788 215.565C240.318 215.415 239.833 215.26 239.333 215.1C238.843 214.94 238.358 214.76 237.878 214.56C237.408 214.35 236.988 214.09 236.618 213.78C236.248 213.47 235.948 213.09 235.718 212.64C235.498 212.18 235.388 211.625 235.388 210.975C235.388 210.395 235.508 209.84 235.748 209.31C235.988 208.77 236.338 208.3 236.798 207.9C237.258 207.49 237.823 207.165 238.493 206.925C239.163 206.685 239.928 206.565 240.788 206.565C241.788 206.565 242.683 206.725 243.473 207.045C244.273 207.355 244.963 207.785 245.543 208.335L244.943 209.31ZM252.221 206.805V222H249.551V206.805H252.221ZM252.821 202.035C252.821 202.295 252.766 202.54 252.656 202.77C252.556 202.99 252.416 203.19 252.236 203.37C252.066 203.54 251.866 203.675 251.636 203.775C251.406 203.875 251.161 203.925 250.901 203.925C250.641 203.925 250.396 203.875 250.166 203.775C249.946 203.675 249.746 203.54 249.566 203.37C249.396 203.19 249.261 202.99 249.161 202.77C249.061 202.54 249.011 202.295 249.011 202.035C249.011 201.775 249.061 201.53 249.161 201.3C249.261 201.06 249.396 200.855 249.566 200.685C249.746 200.505 249.946 200.365 250.166 200.265C250.396 200.165 250.641 200.115 250.901 200.115C251.161 200.115 251.406 200.165 251.636 200.265C251.866 200.365 252.066 200.505 252.236 200.685C252.416 200.855 252.556 201.06 252.656 201.3C252.766 201.53 252.821 201.775 252.821 202.035ZM259.896 199.905V222H257.226V199.905H259.896Z" fill="#35609D"/>
<path d="M44.796 109.72C44.052 109.72 43.512 109.432 43.176 108.856C42.864 108.256 42.672 107.44 42.6 106.408C42.528 105.376 42.492 104.2 42.492 102.88H35.652L32.808 109H28.812L40.656 85.24H45.264C45.456 90.112 45.6 94.192 45.696 97.48C45.792 100.744 45.924 103.264 46.092 105.04C46.284 106.792 46.596 107.848 47.028 108.208C46.908 108.64 46.632 109 46.2 109.288C45.768 109.576 45.3 109.72 44.796 109.72ZM36.84 100.396H42.492L42.204 87.724L36.84 100.396ZM55.8477 109.72C54.6477 109.72 53.6997 109.48 53.0037 109C52.3317 108.52 51.8517 107.884 51.5637 107.092C51.2997 106.276 51.1677 105.4 51.1677 104.464C51.1677 103.72 51.2637 102.784 51.4557 101.656C51.6477 100.528 51.9357 99.076 52.3197 97.3C52.7037 95.524 53.1957 93.304 53.7957 90.64L56.9277 90.28C56.3997 92.68 55.9677 94.66 55.6317 96.22C55.3197 97.756 55.0677 99.016 54.8757 100C54.7077 100.96 54.5877 101.752 54.5157 102.376C54.4677 102.976 54.4437 103.54 54.4437 104.068C54.4437 104.644 54.5157 105.208 54.6597 105.76C54.8277 106.288 55.1037 106.732 55.4877 107.092C55.8957 107.428 56.4357 107.596 57.1077 107.596C58.0197 107.596 58.7757 107.296 59.3757 106.696C59.9997 106.072 60.4917 105.292 60.8517 104.356C61.2357 103.42 61.5117 102.472 61.6797 101.512L63.8397 90.64L67.1157 90.28L64.1277 105.652C64.1037 105.868 64.0677 106.12 64.0197 106.408C63.9717 106.696 63.9477 106.948 63.9477 107.164C63.9477 107.5 64.0197 107.764 64.1637 107.956C64.3317 108.124 64.5717 108.22 64.8837 108.244C64.8117 108.58 64.6677 108.856 64.4517 109.072C64.2357 109.288 63.9837 109.444 63.6957 109.54C63.4077 109.66 63.0837 109.72 62.7237 109.72C62.0757 109.72 61.5597 109.54 61.1757 109.18C60.8157 108.844 60.5997 108.34 60.5277 107.668C60.0717 108.412 59.3877 108.94 58.4757 109.252C57.5877 109.564 56.7117 109.72 55.8477 109.72ZM71.3837 109.72C70.7117 109.72 70.1957 109.528 69.8357 109.144C69.4757 108.76 69.2957 108.244 69.2957 107.596C69.2957 107.404 69.3077 107.2 69.3317 106.984C69.3557 106.744 69.3917 106.42 69.4397 106.012C69.5117 105.604 69.6197 105.04 69.7637 104.32C69.9077 103.6 70.0877 102.676 70.3037 101.548C70.5437 100.396 70.8317 98.98 71.1677 97.3C71.5277 95.596 71.9477 93.568 72.4277 91.216C72.6677 89.872 72.8717 88.492 73.0397 87.076C73.2317 85.66 73.3277 84.472 73.3277 83.512C73.3277 83.248 73.3157 83.02 73.2917 82.828C73.2917 82.612 73.2677 82.42 73.2197 82.252C73.3637 82.132 73.5557 82.036 73.7957 81.964C74.0597 81.892 74.3357 81.856 74.6237 81.856C75.1757 81.856 75.7037 82.036 76.2077 82.396C76.7117 82.732 76.9637 83.356 76.9637 84.268C76.9637 84.436 76.9037 84.82 76.7837 85.42C76.6877 85.996 76.5557 86.68 76.3877 87.472C76.2437 88.264 76.0877 89.068 75.9197 89.884C75.7757 90.676 75.6437 91.372 75.5237 91.972C74.9237 94.876 74.4317 97.24 74.0477 99.064C73.6877 100.888 73.3997 102.328 73.1837 103.384C72.9917 104.416 72.8477 105.184 72.7517 105.688C72.6797 106.168 72.6317 106.504 72.6077 106.696C72.5837 106.864 72.5717 107.02 72.5717 107.164C72.5717 107.5 72.6437 107.764 72.7877 107.956C72.9557 108.124 73.1957 108.22 73.5077 108.244C73.4357 108.58 73.2917 108.856 73.0757 109.072C72.8597 109.288 72.6077 109.444 72.3197 109.54C72.0317 109.66 71.7197 109.72 71.3837 109.72ZM82.6343 109.72C81.4583 109.72 80.4983 109.432 79.7543 108.856C79.0343 108.256 78.5063 107.452 78.1703 106.444C77.8343 105.436 77.6663 104.284 77.6663 102.988C77.6663 101.212 77.8943 99.544 78.3503 97.984C78.8303 96.4 79.5023 95.008 80.3663 93.808C81.2303 92.584 82.2503 91.636 83.4263 90.964C84.6023 90.268 85.8863 89.92 87.2783 89.92C88.4303 89.92 89.6663 90.172 90.9863 90.676L94.1183 90.28L91.1663 105.652C91.1423 105.868 91.1063 106.12 91.0583 106.408C91.0103 106.696 90.9863 106.948 90.9863 107.164C90.9863 107.5 91.0583 107.764 91.2023 107.956C91.3703 108.124 91.6103 108.22 91.9223 108.244C91.8263 108.58 91.6703 108.856 91.4543 109.072C91.2383 109.288 90.9863 109.444 90.6983 109.54C90.4103 109.66 90.0863 109.72 89.7263 109.72C89.1023 109.72 88.5863 109.54 88.1783 109.18C87.7943 108.844 87.5903 108.34 87.5663 107.668C86.9423 108.268 86.2103 108.76 85.3703 109.144C84.5303 109.528 83.6183 109.72 82.6343 109.72ZM84.0743 107.596C85.0343 107.596 85.8143 107.284 86.4143 106.66C87.0383 106.012 87.5303 105.22 87.8903 104.284C88.2503 103.324 88.5143 102.4 88.6823 101.512L90.2303 93.304C89.7263 92.896 89.1863 92.596 88.6103 92.404C88.0343 92.188 87.5063 92.08 87.0263 92.08C86.2823 92.08 85.5983 92.272 84.9743 92.656C84.3743 93.04 83.8343 93.58 83.3543 94.276C82.8983 94.972 82.5023 95.8 82.1663 96.76C81.8543 97.696 81.6143 98.728 81.4463 99.856C81.3023 100.96 81.2303 102.112 81.2303 103.312C81.2303 104.512 81.4223 105.532 81.8063 106.372C82.2143 107.188 82.9703 107.596 84.0743 107.596ZM100.203 109.252C100.155 109.132 100.107 108.964 100.059 108.748C100.011 108.508 99.9868 108.304 99.9868 108.136C99.9868 107.512 100.191 107.032 100.599 106.696C101.007 106.36 101.691 106.192 102.651 106.192H106.863L110.211 89.272L110.139 89.236C109.251 89.668 108.447 90.04 107.727 90.352C107.031 90.664 106.323 90.82 105.603 90.82C104.883 90.82 104.355 90.568 104.019 90.064C103.707 89.536 103.503 88.936 103.407 88.264C104.559 88.048 105.651 87.796 106.683 87.508C107.739 87.22 108.807 86.86 109.887 86.428C110.991 85.972 112.203 85.408 113.523 84.736L114.315 85.06L110.103 106.3C111.183 106.324 112.107 106.36 112.875 106.408C113.667 106.432 114.507 106.396 115.395 106.3C115.683 106.804 115.827 107.224 115.827 107.56C115.827 108.088 115.623 108.496 115.215 108.784C114.831 109.072 114.207 109.216 113.343 109.216C112.119 109.216 111.075 109.204 110.211 109.18C109.347 109.156 108.543 109.132 107.799 109.108C107.079 109.084 106.299 109.06 105.459 109.036C104.643 109.012 103.671 109 102.543 109C102.063 109 101.607 109.024 101.175 109.072C100.767 109.144 100.443 109.204 100.203 109.252Z" fill="#35609D"/>
<path d="M360.117 63.6951L356.112 66.3645L349.439 65.0298L345.434 63.6951L340.095 65.0298L336.091 63.6951L338.76 58.3561H344.099L349.332 55.74C353.367 57.7354 357.017 60.4289 360.117 63.6951Z" fill="#5987C6"/>
<path d="M329.417 58.3561L328.082 62.3604L324.078 63.6952L320.074 70.3689L313.4 74.3732L304.057 75.7079V79.7122L306.726 82.3816V87.7206L302.722 85.0511L298.718 82.3816L296.395 75.401C300.393 65.8747 308.034 58.3441 317.618 54.4854L321.408 57.0214L329.417 58.3561Z" fill="#5987C6"/>
<path d="M332.087 95.7289L330.752 102.403L325.413 107.742V111.746L320.074 115.75V122.424L316.07 121.089L313.4 114.415V101.068L306.726 99.7332L304.057 94.3942V90.3899L306.726 87.7205L310.731 83.7162L313.4 89.0552H322.743L326.748 95.7289H332.087Z" fill="#5987C6"/>
<path d="M365.856 71.4767C373.142 84.4758 372.312 100.505 363.72 112.68L360.116 109.076V103.737L357.447 98.3984L354.777 93.0594V87.7204L350.773 85.051L345.434 86.3857L336.091 82.3814L334.756 73.0382L338.76 69.0339H346.769L349.438 73.0382L357.447 74.373L365.455 71.7035L365.856 71.4767Z" fill="#5987C6"/>
<path d="M340.095 65.0298L345.434 63.6951L349.438 65.0298L356.112 66.3646L360.116 63.6951C362.352 66.035 364.281 68.6497 365.856 71.4766L365.455 71.7036L357.447 74.373L349.438 73.0383L346.769 69.034H338.761L334.756 73.0383L336.091 82.3814L345.434 86.3857L350.773 85.051L354.777 87.7205V93.0595L357.447 98.3985L360.116 103.738V109.077L363.72 112.68C351.394 130.147 327.241 134.313 309.776 121.986C294.943 111.516 289.379 92.1451 296.395 75.4008L298.718 82.3814L302.722 85.0509L306.726 87.7203L304.057 90.3899V94.3942L306.726 99.7332L313.4 101.068V114.415L316.069 121.089L320.074 122.424V115.75L325.413 111.746V107.741L330.752 102.402L332.086 95.7288H326.747L322.743 89.055H313.4L310.731 83.716L306.726 87.7203V82.3813L304.057 79.712V75.7077L313.4 74.373L320.074 70.3687L324.078 63.695L328.082 62.3603L329.417 58.356L321.409 57.0212L317.618 54.4852C327.882 50.3514 339.425 50.8079 349.332 55.7399L344.099 58.356H338.76L336.091 63.695L340.095 65.0298Z" fill="#BDCFE8"/>
<path d="M332.014 49C316.009 48.9977 301.544 58.5378 295.245 73.2509L294.746 73.4162L294.939 73.9961C286.645 94.4529 296.505 117.76 316.961 126.054C321.739 127.992 326.847 128.986 332.002 128.983C354.089 128.987 371.997 111.084 372 88.9977C372.003 66.9109 354.101 49.0032 332.014 49ZM363.383 109.155L361.33 107.103V102.322C361.332 102.116 361.286 101.912 361.196 101.726L355.997 91.3432V86.3256C355.997 85.88 355.775 85.4637 355.404 85.2165L351.405 82.5503C351.092 82.3411 350.704 82.2742 350.339 82.3664L345.441 83.5901L337.215 80.0602L336.083 72.1312L339.219 68.9958H345.953L348.219 72.4018C348.424 72.7081 348.746 72.9162 349.109 72.9763L357.108 74.3094C357.322 74.3454 357.542 74.3279 357.748 74.2587L365.114 71.8032C371.293 83.6599 370.632 97.9205 363.383 109.155ZM357.885 62.1359L355.717 63.581L349.675 62.3719L345.754 61.0668C345.514 60.9853 345.256 60.975 345.01 61.0375L340.054 62.2759L337.881 61.5521L339.491 58.3314H344C344.207 58.3316 344.411 58.2837 344.596 58.1914L349.208 55.8852C352.384 57.5432 355.306 59.6481 357.885 62.1359ZM317.401 54.6428L320.601 56.7757C320.758 56.8804 320.936 56.9503 321.122 56.981L327.582 58.0581L326.951 59.9444L323.585 61.0682C323.284 61.1685 323.028 61.3731 322.864 61.6454L319.036 68.0254L312.886 71.7153L303.822 73.0097C303.165 73.1025 302.676 73.6645 302.675 74.3281V78.3272C302.675 78.6808 302.816 79.0197 303.066 79.2697L305.341 81.5452V83.8354L299.796 80.1375L297.784 74.1028C301.611 65.3579 308.626 58.3994 317.401 54.6428ZM313.606 98.3497L307.581 97.1433L305.341 92.6762V89.5436L310.308 84.5766L312.146 88.2545C312.372 88.7064 312.834 88.9918 313.34 88.9917H321.916L325.528 95.0104C325.769 95.4115 326.202 95.6568 326.67 95.6569H330.376L329.443 100.332L324.396 105.379C324.145 105.629 324.004 105.968 324.004 106.321V109.654L319.205 113.253C318.869 113.505 318.672 113.9 318.672 114.32V119.135L317.013 118.586L314.673 112.731V99.6561C314.673 99.0226 314.227 98.4764 313.606 98.3497ZM309.599 118.842C297.03 109.413 291.715 93.1201 296.304 78.0926L297.412 81.4146C297.506 81.6957 297.69 81.9378 297.936 82.1024L304.581 86.5322L303.066 88.0492C302.816 88.2991 302.675 88.6381 302.675 88.9917V92.9908C302.675 93.1976 302.723 93.4016 302.815 93.5867L305.481 98.9189C305.666 99.2872 306.01 99.5495 306.414 99.6295L312.013 100.748V112.987C312.013 113.156 312.045 113.324 312.108 113.481L314.774 120.147C314.92 120.511 315.219 120.792 315.591 120.916L319.59 122.249C319.724 122.294 319.864 122.317 320.005 122.318C320.741 122.318 321.338 121.721 321.338 120.985V114.986L326.137 111.387C326.472 111.135 326.67 110.74 326.67 110.321V106.873L331.612 101.932C331.798 101.746 331.924 101.508 331.976 101.25L333.309 94.5852C333.453 93.8632 332.985 93.161 332.263 93.0167C332.177 92.9995 332.09 92.9908 332.002 92.9908H327.425L323.813 86.9721C323.572 86.571 323.139 86.3257 322.671 86.3256H314.163L311.873 81.7305C311.681 81.3469 311.317 81.079 310.893 81.0107C310.47 80.9375 310.038 81.0771 309.738 81.3839L308.007 83.1076V80.9933C308.007 80.6397 307.867 80.3008 307.617 80.0509L305.341 77.7753V75.4838L313.529 74.3147C313.705 74.2892 313.874 74.2289 314.026 74.1374L320.691 70.1383C320.878 70.026 321.035 69.8693 321.147 69.6824L324.893 63.4397L328.424 62.2612C328.823 62.1304 329.136 61.8177 329.267 61.4187L330.6 57.4196C330.831 56.7206 330.451 55.9665 329.752 55.7356C329.688 55.7143 329.622 55.6979 329.555 55.6866L321.839 54.4002L320.483 53.4964C328.872 50.766 337.958 51.1039 346.121 54.4495L343.685 55.6653H338.668C338.16 55.6624 337.695 55.9484 337.468 56.4025L334.802 61.7347C334.473 62.3935 334.741 63.194 335.4 63.5225C335.456 63.5505 335.514 63.5745 335.574 63.5943L339.573 64.9274C339.813 65.0088 340.071 65.0192 340.317 64.9567L345.273 63.7183L348.904 64.9274C348.956 64.946 349.01 64.9603 349.064 64.97L355.729 66.3031C356.076 66.3737 356.437 66.3027 356.731 66.1058L359.765 64.0822C361.258 65.7453 362.6 67.5383 363.774 69.4397L357.216 71.626L350.115 70.4422L347.768 66.9229C347.522 66.5542 347.109 66.3319 346.666 66.3297H338.668C338.314 66.3297 337.975 66.4704 337.725 66.7203L333.726 70.7195C333.429 71.0162 333.289 71.4357 333.349 71.8512L334.682 81.1826C334.749 81.644 335.052 82.0368 335.482 82.2184L344.813 86.2176C345.08 86.3334 345.379 86.3572 345.661 86.2856L350.421 85.0951L353.331 87.0387V91.6578C353.329 91.8641 353.375 92.068 353.465 92.2537L358.663 102.637V107.654C358.663 108.008 358.804 108.347 359.054 108.597L361.843 111.387C349.475 127.872 326.084 131.21 309.599 118.842Z" fill="#35609D"/>
<path d="M213 3L229.873 22.1459C231.41 23.8896 231.375 26.4703 229.766 28.1443L213 46" stroke="#5987C6" stroke-width="6" stroke-miterlimit="10" stroke-linecap="round"/>
</svg>
