<svg width="395" height="231" viewBox="0 0 395 231" fill="none" xmlns="http://www.w3.org/2000/svg">
<path opacity="0.5" d="M0 0H395V211C395 222.046 386.046 231 375 231H20C8.9543 231 0 222.046 0 211V0Z" fill="#BDCFE8"/>
<path d="M52.575 138.26C52.575 139.87 52.32 141.35 51.81 142.7C51.3 144.04 50.58 145.195 49.65 146.165C48.72 147.135 47.6 147.89 46.29 148.43C44.99 148.96 43.55 149.225 41.97 149.225C40.39 149.225 38.95 148.96 37.65 148.43C36.35 147.89 35.235 147.135 34.305 146.165C33.375 145.195 32.655 144.04 32.145 142.7C31.635 141.35 31.38 139.87 31.38 138.26C31.38 136.65 31.635 135.175 32.145 133.835C32.655 132.485 33.375 131.325 34.305 130.355C35.235 129.375 36.35 128.615 37.65 128.075C38.95 127.535 40.39 127.265 41.97 127.265C43.55 127.265 44.99 127.535 46.29 128.075C47.6 128.615 48.72 129.375 49.65 130.355C50.58 131.325 51.3 132.485 51.81 133.835C52.32 135.175 52.575 136.65 52.575 138.26ZM49.59 138.26C49.59 136.94 49.41 135.755 49.05 134.705C48.69 133.655 48.18 132.77 47.52 132.05C46.86 131.32 46.06 130.76 45.12 130.37C44.18 129.98 43.13 129.785 41.97 129.785C40.82 129.785 39.775 129.98 38.835 130.37C37.895 130.76 37.09 131.32 36.42 132.05C35.76 132.77 35.25 133.655 34.89 134.705C34.53 135.755 34.35 136.94 34.35 138.26C34.35 139.58 34.53 140.765 34.89 141.815C35.25 142.855 35.76 143.74 36.42 144.47C37.09 145.19 37.895 145.745 38.835 146.135C39.775 146.515 40.82 146.705 41.97 146.705C43.13 146.705 44.18 146.515 45.12 146.135C46.06 145.745 46.86 145.19 47.52 144.47C48.18 143.74 48.69 142.855 49.05 141.815C49.41 140.765 49.59 139.58 49.59 138.26ZM73.0863 149H71.9013C71.6413 149 71.4313 148.96 71.2713 148.88C71.1113 148.8 71.0063 148.63 70.9563 148.37L70.6563 146.96C70.2563 147.32 69.8663 147.645 69.4863 147.935C69.1063 148.215 68.7063 148.455 68.2863 148.655C67.8663 148.845 67.4163 148.99 66.9363 149.09C66.4663 149.19 65.9413 149.24 65.3613 149.24C64.7713 149.24 64.2163 149.16 63.6963 149C63.1863 148.83 62.7413 148.58 62.3613 148.25C61.9813 147.92 61.6763 147.505 61.4463 147.005C61.2263 146.495 61.1163 145.895 61.1163 145.205C61.1163 144.605 61.2813 144.03 61.6113 143.48C61.9413 142.92 62.4713 142.425 63.2013 141.995C63.9413 141.565 64.9063 141.215 66.0963 140.945C67.2863 140.665 68.7413 140.505 70.4613 140.465V139.28C70.4613 138.1 70.2063 137.21 69.6963 136.61C69.1963 136 68.4513 135.695 67.4613 135.695C66.8113 135.695 66.2613 135.78 65.8113 135.95C65.3713 136.11 64.9863 136.295 64.6563 136.505C64.3363 136.705 64.0563 136.89 63.8163 137.06C63.5863 137.22 63.3563 137.3 63.1263 137.3C62.9463 137.3 62.7863 137.255 62.6463 137.165C62.5163 137.065 62.4113 136.945 62.3313 136.805L61.8513 135.95C62.6913 135.14 63.5963 134.535 64.5663 134.135C65.5363 133.735 66.6113 133.535 67.7913 133.535C68.6413 133.535 69.3963 133.675 70.0563 133.955C70.7163 134.235 71.2713 134.625 71.7213 135.125C72.1713 135.625 72.5113 136.23 72.7413 136.94C72.9713 137.65 73.0863 138.43 73.0863 139.28V149ZM66.1563 147.365C66.6263 147.365 67.0563 147.32 67.4463 147.23C67.8363 147.13 68.2013 146.995 68.5413 146.825C68.8913 146.645 69.2213 146.43 69.5313 146.18C69.8513 145.93 70.1613 145.645 70.4613 145.325V142.16C69.2313 142.2 68.1863 142.3 67.3263 142.46C66.4663 142.61 65.7663 142.81 65.2263 143.06C64.6863 143.31 64.2913 143.605 64.0413 143.945C63.8013 144.285 63.6813 144.665 63.6813 145.085C63.6813 145.485 63.7463 145.83 63.8763 146.12C64.0063 146.41 64.1813 146.65 64.4013 146.84C64.6213 147.02 64.8813 147.155 65.1813 147.245C65.4813 147.325 65.8063 147.365 66.1563 147.365ZM77.2214 149V126.905H79.9064V135.995C80.5364 135.265 81.2564 134.68 82.0664 134.24C82.8864 133.79 83.8214 133.565 84.8714 133.565C85.7514 133.565 86.5464 133.73 87.2564 134.06C87.9664 134.39 88.5714 134.885 89.0714 135.545C89.5714 136.195 89.9564 137.005 90.2264 137.975C90.4964 138.935 90.6314 140.045 90.6314 141.305C90.6314 142.425 90.4814 143.47 90.1814 144.44C89.8814 145.4 89.4464 146.235 88.8764 146.945C88.3164 147.645 87.6264 148.2 86.8064 148.61C85.9964 149.01 85.0814 149.21 84.0614 149.21C83.0814 149.21 82.2464 149.02 81.5564 148.64C80.8764 148.26 80.2814 147.73 79.7714 147.05L79.6364 148.43C79.5564 148.81 79.3264 149 78.9464 149H77.2214ZM84.0014 135.695C83.1314 135.695 82.3664 135.895 81.7064 136.295C81.0564 136.695 80.4564 137.26 79.9064 137.99V145.34C80.3864 146 80.9164 146.465 81.4964 146.735C82.0864 147.005 82.7414 147.14 83.4614 147.14C84.8814 147.14 85.9714 146.635 86.7314 145.625C87.4914 144.615 87.8714 143.175 87.8714 141.305C87.8714 140.315 87.7814 139.465 87.6014 138.755C87.4314 138.045 87.1814 137.465 86.8514 137.015C86.5214 136.555 86.1164 136.22 85.6364 136.01C85.1564 135.8 84.6114 135.695 84.0014 135.695ZM100.039 133.565C101.149 133.565 102.149 133.75 103.039 134.12C103.939 134.49 104.699 135.015 105.319 135.695C105.949 136.375 106.429 137.2 106.759 138.17C107.099 139.13 107.269 140.205 107.269 141.395C107.269 142.595 107.099 143.675 106.759 144.635C106.429 145.595 105.949 146.415 105.319 147.095C104.699 147.775 103.939 148.3 103.039 148.67C102.149 149.03 101.149 149.21 100.039 149.21C98.9292 149.21 97.9242 149.03 97.0242 148.67C96.1342 148.3 95.3742 147.775 94.7442 147.095C94.1142 146.415 93.6292 145.595 93.2892 144.635C92.9492 143.675 92.7792 142.595 92.7792 141.395C92.7792 140.205 92.9492 139.13 93.2892 138.17C93.6292 137.2 94.1142 136.375 94.7442 135.695C95.3742 135.015 96.1342 134.49 97.0242 134.12C97.9242 133.75 98.9292 133.565 100.039 133.565ZM100.039 147.125C101.539 147.125 102.659 146.625 103.399 145.625C104.139 144.615 104.509 143.21 104.509 141.41C104.509 139.6 104.139 138.19 103.399 137.18C102.659 136.17 101.539 135.665 100.039 135.665C99.2792 135.665 98.6192 135.795 98.0592 136.055C97.4992 136.315 97.0292 136.69 96.6492 137.18C96.2792 137.67 95.9992 138.275 95.8092 138.995C95.6292 139.705 95.5392 140.51 95.5392 141.41C95.5392 142.31 95.6292 143.115 95.8092 143.825C95.9992 144.535 96.2792 145.135 96.6492 145.625C97.0292 146.105 97.4992 146.475 98.0592 146.735C98.6192 146.995 99.2792 147.125 100.039 147.125ZM110.559 149V133.805H112.089C112.379 133.805 112.579 133.86 112.689 133.97C112.799 134.08 112.874 134.27 112.914 134.54L113.094 136.91C113.614 135.85 114.254 135.025 115.014 134.435C115.784 133.835 116.684 133.535 117.714 133.535C118.134 133.535 118.514 133.585 118.854 133.685C119.194 133.775 119.509 133.905 119.799 134.075L119.454 136.07C119.384 136.32 119.229 136.445 118.989 136.445C118.849 136.445 118.634 136.4 118.344 136.31C118.054 136.21 117.649 136.16 117.129 136.16C116.199 136.16 115.419 136.43 114.789 136.97C114.169 137.51 113.649 138.295 113.229 139.325V149H110.559ZM127.264 149.24C126.064 149.24 125.139 148.905 124.489 148.235C123.849 147.565 123.529 146.6 123.529 145.34V136.04H121.699C121.539 136.04 121.404 135.995 121.294 135.905C121.184 135.805 121.129 135.655 121.129 135.455V134.39L123.619 134.075L124.234 129.38C124.254 129.23 124.319 129.11 124.429 129.02C124.539 128.92 124.679 128.87 124.849 128.87H126.199V134.105H130.549V136.04H126.199V145.16C126.199 145.8 126.354 146.275 126.664 146.585C126.974 146.895 127.374 147.05 127.864 147.05C128.144 147.05 128.384 147.015 128.584 146.945C128.794 146.865 128.974 146.78 129.124 146.69C129.274 146.6 129.399 146.52 129.499 146.45C129.609 146.37 129.704 146.33 129.784 146.33C129.924 146.33 130.049 146.415 130.159 146.585L130.939 147.86C130.479 148.29 129.924 148.63 129.274 148.88C128.624 149.12 127.954 149.24 127.264 149.24ZM145.01 149H143.825C143.565 149 143.355 148.96 143.195 148.88C143.035 148.8 142.93 148.63 142.88 148.37L142.58 146.96C142.18 147.32 141.79 147.645 141.41 147.935C141.03 148.215 140.63 148.455 140.21 148.655C139.79 148.845 139.34 148.99 138.86 149.09C138.39 149.19 137.865 149.24 137.285 149.24C136.695 149.24 136.14 149.16 135.62 149C135.11 148.83 134.665 148.58 134.285 148.25C133.905 147.92 133.6 147.505 133.37 147.005C133.15 146.495 133.04 145.895 133.04 145.205C133.04 144.605 133.205 144.03 133.535 143.48C133.865 142.92 134.395 142.425 135.125 141.995C135.865 141.565 136.83 141.215 138.02 140.945C139.21 140.665 140.665 140.505 142.385 140.465V139.28C142.385 138.1 142.13 137.21 141.62 136.61C141.12 136 140.375 135.695 139.385 135.695C138.735 135.695 138.185 135.78 137.735 135.95C137.295 136.11 136.91 136.295 136.58 136.505C136.26 136.705 135.98 136.89 135.74 137.06C135.51 137.22 135.28 137.3 135.05 137.3C134.87 137.3 134.71 137.255 134.57 137.165C134.44 137.065 134.335 136.945 134.255 136.805L133.775 135.95C134.615 135.14 135.52 134.535 136.49 134.135C137.46 133.735 138.535 133.535 139.715 133.535C140.565 133.535 141.32 133.675 141.98 133.955C142.64 134.235 143.195 134.625 143.645 135.125C144.095 135.625 144.435 136.23 144.665 136.94C144.895 137.65 145.01 138.43 145.01 139.28V149ZM138.08 147.365C138.55 147.365 138.98 147.32 139.37 147.23C139.76 147.13 140.125 146.995 140.465 146.825C140.815 146.645 141.145 146.43 141.455 146.18C141.775 145.93 142.085 145.645 142.385 145.325V142.16C141.155 142.2 140.11 142.3 139.25 142.46C138.39 142.61 137.69 142.81 137.15 143.06C136.61 143.31 136.215 143.605 135.965 143.945C135.725 144.285 135.605 144.665 135.605 145.085C135.605 145.485 135.67 145.83 135.8 146.12C135.93 146.41 136.105 146.65 136.325 146.84C136.545 147.02 136.805 147.155 137.105 147.245C137.405 147.325 137.73 147.365 138.08 147.365ZM149.055 149V133.805H150.645C151.025 133.805 151.265 133.99 151.365 134.36L151.56 135.92C152.12 135.23 152.745 134.665 153.435 134.225C154.135 133.785 154.945 133.565 155.865 133.565C156.895 133.565 157.725 133.85 158.355 134.42C158.995 134.99 159.455 135.76 159.735 136.73C159.945 136.18 160.22 135.705 160.56 135.305C160.91 134.905 161.3 134.575 161.73 134.315C162.16 134.055 162.615 133.865 163.095 133.745C163.585 133.625 164.08 133.565 164.58 133.565C165.38 133.565 166.09 133.695 166.71 133.955C167.34 134.205 167.87 134.575 168.3 135.065C168.74 135.555 169.075 136.16 169.305 136.88C169.535 137.59 169.65 138.405 169.65 139.325V149H166.98V139.325C166.98 138.135 166.72 137.235 166.2 136.625C165.68 136.005 164.925 135.695 163.935 135.695C163.495 135.695 163.075 135.775 162.675 135.935C162.285 136.085 161.94 136.31 161.64 136.61C161.34 136.91 161.1 137.29 160.92 137.75C160.75 138.2 160.665 138.725 160.665 139.325V149H157.995V139.325C157.995 138.105 157.75 137.195 157.26 136.595C156.77 135.995 156.055 135.695 155.115 135.695C154.455 135.695 153.84 135.875 153.27 136.235C152.71 136.585 152.195 137.065 151.725 137.675V149H149.055ZM179.709 133.565C180.619 133.565 181.459 133.72 182.229 134.03C182.999 134.33 183.664 134.77 184.224 135.35C184.784 135.92 185.219 136.63 185.529 137.48C185.849 138.32 186.009 139.28 186.009 140.36C186.009 140.78 185.964 141.06 185.874 141.2C185.784 141.34 185.614 141.41 185.364 141.41H175.254C175.274 142.37 175.404 143.205 175.644 143.915C175.884 144.625 176.214 145.22 176.634 145.7C177.054 146.17 177.554 146.525 178.134 146.765C178.714 146.995 179.364 147.11 180.084 147.11C180.754 147.11 181.329 147.035 181.809 146.885C182.299 146.725 182.719 146.555 183.069 146.375C183.419 146.195 183.709 146.03 183.939 145.88C184.179 145.72 184.384 145.64 184.554 145.64C184.774 145.64 184.944 145.725 185.064 145.895L185.814 146.87C185.484 147.27 185.089 147.62 184.629 147.92C184.169 148.21 183.674 148.45 183.144 148.64C182.624 148.83 182.084 148.97 181.524 149.06C180.964 149.16 180.409 149.21 179.859 149.21C178.809 149.21 177.839 149.035 176.949 148.685C176.069 148.325 175.304 147.805 174.654 147.125C174.014 146.435 173.514 145.585 173.154 144.575C172.794 143.565 172.614 142.405 172.614 141.095C172.614 140.035 172.774 139.045 173.094 138.125C173.424 137.205 173.894 136.41 174.504 135.74C175.114 135.06 175.859 134.53 176.739 134.15C177.619 133.76 178.609 133.565 179.709 133.565ZM179.769 135.53C178.479 135.53 177.464 135.905 176.724 136.655C175.984 137.395 175.524 138.425 175.344 139.745H183.609C183.609 139.125 183.524 138.56 183.354 138.05C183.184 137.53 182.934 137.085 182.604 136.715C182.274 136.335 181.869 136.045 181.389 135.845C180.919 135.635 180.379 135.53 179.769 135.53ZM189.426 149V133.805H191.016C191.396 133.805 191.636 133.99 191.736 134.36L191.946 136.01C192.606 135.28 193.341 134.69 194.151 134.24C194.971 133.79 195.916 133.565 196.986 133.565C197.816 133.565 198.546 133.705 199.176 133.985C199.816 134.255 200.346 134.645 200.766 135.155C201.196 135.655 201.521 136.26 201.741 136.97C201.961 137.68 202.071 138.465 202.071 139.325V149H199.401V139.325C199.401 138.175 199.136 137.285 198.606 136.655C198.086 136.015 197.286 135.695 196.206 135.695C195.416 135.695 194.676 135.885 193.986 136.265C193.306 136.645 192.676 137.16 192.096 137.81V149H189.426ZM210.701 149.24C209.501 149.24 208.576 148.905 207.926 148.235C207.286 147.565 206.966 146.6 206.966 145.34V136.04H205.136C204.976 136.04 204.841 135.995 204.731 135.905C204.621 135.805 204.566 135.655 204.566 135.455V134.39L207.056 134.075L207.671 129.38C207.691 129.23 207.756 129.11 207.866 129.02C207.976 128.92 208.116 128.87 208.286 128.87H209.636V134.105H213.986V136.04H209.636V145.16C209.636 145.8 209.791 146.275 210.101 146.585C210.411 146.895 210.811 147.05 211.301 147.05C211.581 147.05 211.821 147.015 212.021 146.945C212.231 146.865 212.411 146.78 212.561 146.69C212.711 146.6 212.836 146.52 212.936 146.45C213.046 146.37 213.141 146.33 213.221 146.33C213.361 146.33 213.486 146.415 213.596 146.585L214.376 147.86C213.916 148.29 213.361 148.63 212.711 148.88C212.061 149.12 211.391 149.24 210.701 149.24ZM223.438 133.565C224.548 133.565 225.548 133.75 226.438 134.12C227.338 134.49 228.098 135.015 228.718 135.695C229.348 136.375 229.828 137.2 230.158 138.17C230.498 139.13 230.668 140.205 230.668 141.395C230.668 142.595 230.498 143.675 230.158 144.635C229.828 145.595 229.348 146.415 228.718 147.095C228.098 147.775 227.338 148.3 226.438 148.67C225.548 149.03 224.548 149.21 223.438 149.21C222.328 149.21 221.323 149.03 220.423 148.67C219.533 148.3 218.773 147.775 218.143 147.095C217.513 146.415 217.028 145.595 216.688 144.635C216.348 143.675 216.178 142.595 216.178 141.395C216.178 140.205 216.348 139.13 216.688 138.17C217.028 137.2 217.513 136.375 218.143 135.695C218.773 135.015 219.533 134.49 220.423 134.12C221.323 133.75 222.328 133.565 223.438 133.565ZM223.438 147.125C224.938 147.125 226.058 146.625 226.798 145.625C227.538 144.615 227.908 143.21 227.908 141.41C227.908 139.6 227.538 138.19 226.798 137.18C226.058 136.17 224.938 135.665 223.438 135.665C222.678 135.665 222.018 135.795 221.458 136.055C220.898 136.315 220.428 136.69 220.048 137.18C219.678 137.67 219.398 138.275 219.208 138.995C219.028 139.705 218.938 140.51 218.938 141.41C218.938 142.31 219.028 143.115 219.208 143.825C219.398 144.535 219.678 145.135 220.048 145.625C220.428 146.105 220.898 146.475 221.458 146.735C222.018 146.995 222.678 147.125 223.438 147.125ZM239.758 149V133.805H241.348C241.728 133.805 241.968 133.99 242.068 134.36L242.278 136.01C242.938 135.28 243.673 134.69 244.483 134.24C245.303 133.79 246.248 133.565 247.318 133.565C248.148 133.565 248.878 133.705 249.508 133.985C250.148 134.255 250.678 134.645 251.098 135.155C251.528 135.655 251.853 136.26 252.073 136.97C252.293 137.68 252.403 138.465 252.403 139.325V149H249.733V139.325C249.733 138.175 249.468 137.285 248.938 136.655C248.418 136.015 247.618 135.695 246.538 135.695C245.748 135.695 245.008 135.885 244.318 136.265C243.638 136.645 243.008 137.16 242.428 137.81V149H239.758ZM262.578 133.565C263.688 133.565 264.688 133.75 265.578 134.12C266.478 134.49 267.238 135.015 267.858 135.695C268.488 136.375 268.968 137.2 269.298 138.17C269.638 139.13 269.808 140.205 269.808 141.395C269.808 142.595 269.638 143.675 269.298 144.635C268.968 145.595 268.488 146.415 267.858 147.095C267.238 147.775 266.478 148.3 265.578 148.67C264.688 149.03 263.688 149.21 262.578 149.21C261.468 149.21 260.463 149.03 259.563 148.67C258.673 148.3 257.913 147.775 257.283 147.095C256.653 146.415 256.168 145.595 255.828 144.635C255.488 143.675 255.318 142.595 255.318 141.395C255.318 140.205 255.488 139.13 255.828 138.17C256.168 137.2 256.653 136.375 257.283 135.695C257.913 135.015 258.673 134.49 259.563 134.12C260.463 133.75 261.468 133.565 262.578 133.565ZM262.578 147.125C264.078 147.125 265.198 146.625 265.938 145.625C266.678 144.615 267.048 143.21 267.048 141.41C267.048 139.6 266.678 138.19 265.938 137.18C265.198 136.17 264.078 135.665 262.578 135.665C261.818 135.665 261.158 135.795 260.598 136.055C260.038 136.315 259.568 136.69 259.188 137.18C258.818 137.67 258.538 138.275 258.348 138.995C258.168 139.705 258.078 140.51 258.078 141.41C258.078 142.31 258.168 143.115 258.348 143.825C258.538 144.535 258.818 145.135 259.188 145.625C259.568 146.105 260.038 146.475 260.598 146.735C261.158 146.995 261.818 147.125 262.578 147.125ZM32.19 191V175.805H33.78C34.16 175.805 34.4 175.99 34.5 176.36L34.695 177.92C35.255 177.23 35.88 176.665 36.57 176.225C37.27 175.785 38.08 175.565 39 175.565C40.03 175.565 40.86 175.85 41.49 176.42C42.13 176.99 42.59 177.76 42.87 178.73C43.08 178.18 43.355 177.705 43.695 177.305C44.045 176.905 44.435 176.575 44.865 176.315C45.295 176.055 45.75 175.865 46.23 175.745C46.72 175.625 47.215 175.565 47.715 175.565C48.515 175.565 49.225 175.695 49.845 175.955C50.475 176.205 51.005 176.575 51.435 177.065C51.875 177.555 52.21 178.16 52.44 178.88C52.67 179.59 52.785 180.405 52.785 181.325V191H50.115V181.325C50.115 180.135 49.855 179.235 49.335 178.625C48.815 178.005 48.06 177.695 47.07 177.695C46.63 177.695 46.21 177.775 45.81 177.935C45.42 178.085 45.075 178.31 44.775 178.61C44.475 178.91 44.235 179.29 44.055 179.75C43.885 180.2 43.8 180.725 43.8 181.325V191H41.13V181.325C41.13 180.105 40.885 179.195 40.395 178.595C39.905 177.995 39.19 177.695 38.25 177.695C37.59 177.695 36.975 177.875 36.405 178.235C35.845 178.585 35.33 179.065 34.86 179.675V191H32.19ZM59.1387 175.805V185.495C59.1387 186.645 59.4037 187.535 59.9337 188.165C60.4637 188.795 61.2637 189.11 62.3337 189.11C63.1137 189.11 63.8487 188.925 64.5387 188.555C65.2287 188.185 65.8637 187.67 66.4437 187.01V175.805H69.1137V191H67.5237C67.1437 191 66.9037 190.815 66.8037 190.445L66.5937 188.81C65.9337 189.54 65.1937 190.13 64.3737 190.58C63.5537 191.02 62.6137 191.24 61.5537 191.24C60.7237 191.24 59.9887 191.105 59.3487 190.835C58.7187 190.555 58.1887 190.165 57.7587 189.665C57.3287 189.165 57.0037 188.56 56.7837 187.85C56.5737 187.14 56.4687 186.355 56.4687 185.495V175.805H59.1387ZM73.4986 191V175.805H75.0886C75.4686 175.805 75.7086 175.99 75.8086 176.36L76.0186 178.01C76.6786 177.28 77.4136 176.69 78.2236 176.24C79.0436 175.79 79.9886 175.565 81.0586 175.565C81.8886 175.565 82.6186 175.705 83.2486 175.985C83.8886 176.255 84.4186 176.645 84.8386 177.155C85.2686 177.655 85.5936 178.26 85.8136 178.97C86.0336 179.68 86.1436 180.465 86.1436 181.325V191H83.4736V181.325C83.4736 180.175 83.2086 179.285 82.6786 178.655C82.1586 178.015 81.3586 177.695 80.2786 177.695C79.4886 177.695 78.7486 177.885 78.0586 178.265C77.3786 178.645 76.7486 179.16 76.1686 179.81V191H73.4986ZM100.864 191C100.484 191 100.244 190.815 100.144 190.445L99.9035 188.6C99.2535 189.39 98.5085 190.025 97.6685 190.505C96.8385 190.975 95.8835 191.21 94.8035 191.21C93.9335 191.21 93.1435 191.045 92.4335 190.715C91.7235 190.375 91.1185 189.88 90.6185 189.23C90.1185 188.58 89.7335 187.77 89.4635 186.8C89.1935 185.83 89.0585 184.715 89.0585 183.455C89.0585 182.335 89.2085 181.295 89.5085 180.335C89.8085 179.365 90.2385 178.525 90.7985 177.815C91.3685 177.105 92.0585 176.55 92.8685 176.15C93.6785 175.74 94.5985 175.535 95.6285 175.535C96.5585 175.535 97.3535 175.695 98.0135 176.015C98.6735 176.325 99.2635 176.765 99.7835 177.335V168.905H102.454V191H100.864ZM95.6885 189.05C96.5585 189.05 97.3185 188.85 97.9685 188.45C98.6285 188.05 99.2335 187.485 99.7835 186.755V179.405C99.2935 178.745 98.7535 178.285 98.1635 178.025C97.5835 177.755 96.9385 177.62 96.2285 177.62C94.8085 177.62 93.7185 178.125 92.9585 179.135C92.1985 180.145 91.8185 181.585 91.8185 183.455C91.8185 184.445 91.9035 185.295 92.0735 186.005C92.2435 186.705 92.4935 187.285 92.8235 187.745C93.1535 188.195 93.5585 188.525 94.0385 188.735C94.5185 188.945 95.0685 189.05 95.6885 189.05ZM113.076 175.565C114.186 175.565 115.186 175.75 116.076 176.12C116.976 176.49 117.736 177.015 118.356 177.695C118.986 178.375 119.466 179.2 119.796 180.17C120.136 181.13 120.306 182.205 120.306 183.395C120.306 184.595 120.136 185.675 119.796 186.635C119.466 187.595 118.986 188.415 118.356 189.095C117.736 189.775 116.976 190.3 116.076 190.67C115.186 191.03 114.186 191.21 113.076 191.21C111.966 191.21 110.961 191.03 110.061 190.67C109.171 190.3 108.411 189.775 107.781 189.095C107.151 188.415 106.666 187.595 106.326 186.635C105.986 185.675 105.816 184.595 105.816 183.395C105.816 182.205 105.986 181.13 106.326 180.17C106.666 179.2 107.151 178.375 107.781 177.695C108.411 177.015 109.171 176.49 110.061 176.12C110.961 175.75 111.966 175.565 113.076 175.565ZM113.076 189.125C114.576 189.125 115.696 188.625 116.436 187.625C117.176 186.615 117.546 185.21 117.546 183.41C117.546 181.6 117.176 180.19 116.436 179.18C115.696 178.17 114.576 177.665 113.076 177.665C112.316 177.665 111.656 177.795 111.096 178.055C110.536 178.315 110.066 178.69 109.686 179.18C109.316 179.67 109.036 180.275 108.846 180.995C108.666 181.705 108.576 182.51 108.576 183.41C108.576 184.31 108.666 185.115 108.846 185.825C109.036 186.535 109.316 187.135 109.686 187.625C110.066 188.105 110.536 188.475 111.096 188.735C111.656 188.995 112.316 189.125 113.076 189.125ZM135.412 175.565C136.322 175.565 137.162 175.72 137.932 176.03C138.702 176.33 139.367 176.77 139.927 177.35C140.487 177.92 140.922 178.63 141.232 179.48C141.552 180.32 141.712 181.28 141.712 182.36C141.712 182.78 141.667 183.06 141.577 183.2C141.487 183.34 141.317 183.41 141.067 183.41H130.957C130.977 184.37 131.107 185.205 131.347 185.915C131.587 186.625 131.917 187.22 132.337 187.7C132.757 188.17 133.257 188.525 133.837 188.765C134.417 188.995 135.067 189.11 135.787 189.11C136.457 189.11 137.032 189.035 137.512 188.885C138.002 188.725 138.422 188.555 138.772 188.375C139.122 188.195 139.412 188.03 139.642 187.88C139.882 187.72 140.087 187.64 140.257 187.64C140.477 187.64 140.647 187.725 140.767 187.895L141.517 188.87C141.187 189.27 140.792 189.62 140.332 189.92C139.872 190.21 139.377 190.45 138.847 190.64C138.327 190.83 137.787 190.97 137.227 191.06C136.667 191.16 136.112 191.21 135.562 191.21C134.512 191.21 133.542 191.035 132.652 190.685C131.772 190.325 131.007 189.805 130.357 189.125C129.717 188.435 129.217 187.585 128.857 186.575C128.497 185.565 128.317 184.405 128.317 183.095C128.317 182.035 128.477 181.045 128.797 180.125C129.127 179.205 129.597 178.41 130.207 177.74C130.817 177.06 131.562 176.53 132.442 176.15C133.322 175.76 134.312 175.565 135.412 175.565ZM135.472 177.53C134.182 177.53 133.167 177.905 132.427 178.655C131.687 179.395 131.227 180.425 131.047 181.745H139.312C139.312 181.125 139.227 180.56 139.057 180.05C138.887 179.53 138.637 179.085 138.307 178.715C137.977 178.335 137.572 178.045 137.092 177.845C136.622 177.635 136.082 177.53 135.472 177.53ZM150.93 191V175.805H152.52C152.9 175.805 153.14 175.99 153.24 176.36L153.45 178.01C154.11 177.28 154.845 176.69 155.655 176.24C156.475 175.79 157.42 175.565 158.49 175.565C159.32 175.565 160.05 175.705 160.68 175.985C161.32 176.255 161.85 176.645 162.27 177.155C162.7 177.655 163.025 178.26 163.245 178.97C163.465 179.68 163.575 180.465 163.575 181.325V191H160.905V181.325C160.905 180.175 160.64 179.285 160.11 178.655C159.59 178.015 158.79 177.695 157.71 177.695C156.92 177.695 156.18 177.885 155.49 178.265C154.81 178.645 154.18 179.16 153.6 179.81V191H150.93ZM173.75 175.565C174.86 175.565 175.86 175.75 176.75 176.12C177.65 176.49 178.41 177.015 179.03 177.695C179.66 178.375 180.14 179.2 180.47 180.17C180.81 181.13 180.98 182.205 180.98 183.395C180.98 184.595 180.81 185.675 180.47 186.635C180.14 187.595 179.66 188.415 179.03 189.095C178.41 189.775 177.65 190.3 176.75 190.67C175.86 191.03 174.86 191.21 173.75 191.21C172.64 191.21 171.635 191.03 170.735 190.67C169.845 190.3 169.085 189.775 168.455 189.095C167.825 188.415 167.34 187.595 167 186.635C166.66 185.675 166.49 184.595 166.49 183.395C166.49 182.205 166.66 181.13 167 180.17C167.34 179.2 167.825 178.375 168.455 177.695C169.085 177.015 169.845 176.49 170.735 176.12C171.635 175.75 172.64 175.565 173.75 175.565ZM173.75 189.125C175.25 189.125 176.37 188.625 177.11 187.625C177.85 186.615 178.22 185.21 178.22 183.41C178.22 181.6 177.85 180.19 177.11 179.18C176.37 178.17 175.25 177.665 173.75 177.665C172.99 177.665 172.33 177.795 171.77 178.055C171.21 178.315 170.74 178.69 170.36 179.18C169.99 179.67 169.71 180.275 169.52 180.995C169.34 181.705 169.25 182.51 169.25 183.41C169.25 184.31 169.34 185.115 169.52 185.825C169.71 186.535 169.99 187.135 170.36 187.625C170.74 188.105 171.21 188.475 171.77 188.735C172.33 188.995 172.99 189.125 173.75 189.125ZM190.491 191V169.505H197.346C198.666 169.505 199.801 169.635 200.751 169.895C201.711 170.155 202.496 170.525 203.106 171.005C203.726 171.485 204.181 172.075 204.471 172.775C204.771 173.465 204.921 174.245 204.921 175.115C204.921 175.645 204.836 176.155 204.666 176.645C204.506 177.135 204.256 177.59 203.916 178.01C203.586 178.43 203.166 178.805 202.656 179.135C202.156 179.465 201.566 179.735 200.886 179.945C202.456 180.255 203.641 180.82 204.441 181.64C205.241 182.46 205.641 183.54 205.641 184.88C205.641 185.79 205.471 186.62 205.131 187.37C204.801 188.12 204.311 188.765 203.661 189.305C203.021 189.845 202.231 190.265 201.291 190.565C200.361 190.855 199.296 191 198.096 191H190.491ZM193.401 181.205V188.69H198.051C198.881 188.69 199.591 188.595 200.181 188.405C200.781 188.215 201.271 187.95 201.651 187.61C202.041 187.26 202.326 186.85 202.506 186.38C202.686 185.9 202.776 185.375 202.776 184.805C202.776 183.695 202.381 182.82 201.591 182.18C200.811 181.53 199.626 181.205 198.036 181.205H193.401ZM193.401 179.135H197.241C198.061 179.135 198.771 179.045 199.371 178.865C199.971 178.685 200.466 178.435 200.856 178.115C201.256 177.795 201.551 177.41 201.741 176.96C201.931 176.5 202.026 176 202.026 175.46C202.026 174.2 201.646 173.275 200.886 172.685C200.126 172.095 198.946 171.8 197.346 171.8H193.401V179.135ZM209.495 191V175.805H211.025C211.315 175.805 211.515 175.86 211.625 175.97C211.735 176.08 211.81 176.27 211.85 176.54L212.03 178.91C212.55 177.85 213.19 177.025 213.95 176.435C214.72 175.835 215.62 175.535 216.65 175.535C217.07 175.535 217.45 175.585 217.79 175.685C218.13 175.775 218.445 175.905 218.735 176.075L218.39 178.07C218.32 178.32 218.165 178.445 217.925 178.445C217.785 178.445 217.57 178.4 217.28 178.31C216.99 178.21 216.585 178.16 216.065 178.16C215.135 178.16 214.355 178.43 213.725 178.97C213.105 179.51 212.585 180.295 212.165 181.325V191H209.495ZM232.198 191H231.013C230.753 191 230.543 190.96 230.383 190.88C230.223 190.8 230.118 190.63 230.068 190.37L229.768 188.96C229.368 189.32 228.978 189.645 228.598 189.935C228.218 190.215 227.818 190.455 227.398 190.655C226.978 190.845 226.528 190.99 226.048 191.09C225.578 191.19 225.053 191.24 224.473 191.24C223.883 191.24 223.328 191.16 222.808 191C222.298 190.83 221.853 190.58 221.473 190.25C221.093 189.92 220.788 189.505 220.558 189.005C220.338 188.495 220.228 187.895 220.228 187.205C220.228 186.605 220.393 186.03 220.723 185.48C221.053 184.92 221.583 184.425 222.313 183.995C223.053 183.565 224.018 183.215 225.208 182.945C226.398 182.665 227.853 182.505 229.573 182.465V181.28C229.573 180.1 229.318 179.21 228.808 178.61C228.308 178 227.563 177.695 226.573 177.695C225.923 177.695 225.373 177.78 224.923 177.95C224.483 178.11 224.098 178.295 223.768 178.505C223.448 178.705 223.168 178.89 222.928 179.06C222.698 179.22 222.468 179.3 222.238 179.3C222.058 179.3 221.898 179.255 221.758 179.165C221.628 179.065 221.523 178.945 221.443 178.805L220.963 177.95C221.803 177.14 222.708 176.535 223.678 176.135C224.648 175.735 225.723 175.535 226.903 175.535C227.753 175.535 228.508 175.675 229.168 175.955C229.828 176.235 230.383 176.625 230.833 177.125C231.283 177.625 231.623 178.23 231.853 178.94C232.083 179.65 232.198 180.43 232.198 181.28V191ZM225.268 189.365C225.738 189.365 226.168 189.32 226.558 189.23C226.948 189.13 227.313 188.995 227.653 188.825C228.003 188.645 228.333 188.43 228.643 188.18C228.963 187.93 229.273 187.645 229.573 187.325V184.16C228.343 184.2 227.298 184.3 226.438 184.46C225.578 184.61 224.878 184.81 224.338 185.06C223.798 185.31 223.403 185.605 223.153 185.945C222.913 186.285 222.793 186.665 222.793 187.085C222.793 187.485 222.858 187.83 222.988 188.12C223.118 188.41 223.293 188.65 223.513 188.84C223.733 189.02 223.993 189.155 224.293 189.245C224.593 189.325 224.918 189.365 225.268 189.365ZM244.943 178.31C244.823 178.53 244.638 178.64 244.388 178.64C244.238 178.64 244.068 178.585 243.878 178.475C243.688 178.365 243.453 178.245 243.173 178.115C242.903 177.975 242.578 177.85 242.198 177.74C241.818 177.62 241.368 177.56 240.848 177.56C240.398 177.56 239.993 177.62 239.633 177.74C239.273 177.85 238.963 178.005 238.703 178.205C238.453 178.405 238.258 178.64 238.118 178.91C237.988 179.17 237.923 179.455 237.923 179.765C237.923 180.155 238.033 180.48 238.253 180.74C238.483 181 238.783 181.225 239.153 181.415C239.523 181.605 239.943 181.775 240.413 181.925C240.883 182.065 241.363 182.22 241.853 182.39C242.353 182.55 242.838 182.73 243.308 182.93C243.778 183.13 244.198 183.38 244.568 183.68C244.938 183.98 245.233 184.35 245.453 184.79C245.683 185.22 245.798 185.74 245.798 186.35C245.798 187.05 245.673 187.7 245.423 188.3C245.173 188.89 244.803 189.405 244.313 189.845C243.823 190.275 243.223 190.615 242.513 190.865C241.803 191.115 240.983 191.24 240.053 191.24C238.993 191.24 238.033 191.07 237.173 190.73C236.313 190.38 235.583 189.935 234.983 189.395L235.613 188.375C235.693 188.245 235.788 188.145 235.898 188.075C236.008 188.005 236.153 187.97 236.333 187.97C236.513 187.97 236.703 188.04 236.903 188.18C237.103 188.32 237.343 188.475 237.623 188.645C237.913 188.815 238.258 188.97 238.658 189.11C239.068 189.25 239.578 189.32 240.188 189.32C240.708 189.32 241.163 189.255 241.553 189.125C241.943 188.985 242.268 188.8 242.528 188.57C242.788 188.34 242.978 188.075 243.098 187.775C243.228 187.475 243.293 187.155 243.293 186.815C243.293 186.395 243.178 186.05 242.948 185.78C242.728 185.5 242.433 185.265 242.063 185.075C241.693 184.875 241.268 184.705 240.788 184.565C240.318 184.415 239.833 184.26 239.333 184.1C238.843 183.94 238.358 183.76 237.878 183.56C237.408 183.35 236.988 183.09 236.618 182.78C236.248 182.47 235.948 182.09 235.718 181.64C235.498 181.18 235.388 180.625 235.388 179.975C235.388 179.395 235.508 178.84 235.748 178.31C235.988 177.77 236.338 177.3 236.798 176.9C237.258 176.49 237.823 176.165 238.493 175.925C239.163 175.685 239.928 175.565 240.788 175.565C241.788 175.565 242.683 175.725 243.473 176.045C244.273 176.355 244.963 176.785 245.543 177.335L244.943 178.31ZM252.221 175.805V191H249.551V175.805H252.221ZM252.821 171.035C252.821 171.295 252.766 171.54 252.656 171.77C252.556 171.99 252.416 172.19 252.236 172.37C252.066 172.54 251.866 172.675 251.636 172.775C251.406 172.875 251.161 172.925 250.901 172.925C250.641 172.925 250.396 172.875 250.166 172.775C249.946 172.675 249.746 172.54 249.566 172.37C249.396 172.19 249.261 171.99 249.161 171.77C249.061 171.54 249.011 171.295 249.011 171.035C249.011 170.775 249.061 170.53 249.161 170.3C249.261 170.06 249.396 169.855 249.566 169.685C249.746 169.505 249.946 169.365 250.166 169.265C250.396 169.165 250.641 169.115 250.901 169.115C251.161 169.115 251.406 169.165 251.636 169.265C251.866 169.365 252.066 169.505 252.236 169.685C252.416 169.855 252.556 170.06 252.656 170.3C252.766 170.53 252.821 170.775 252.821 171.035ZM259.896 168.905V191H257.226V168.905H259.896Z" fill="#35609D"/>
<path d="M44.796 78.72C44.052 78.72 43.512 78.432 43.176 77.856C42.864 77.256 42.672 76.44 42.6 75.408C42.528 74.376 42.492 73.2 42.492 71.88H35.652L32.808 78H28.812L40.656 54.24H45.264C45.456 59.112 45.6 63.192 45.696 66.48C45.792 69.744 45.924 72.264 46.092 74.04C46.284 75.792 46.596 76.848 47.028 77.208C46.908 77.64 46.632 78 46.2 78.288C45.768 78.576 45.3 78.72 44.796 78.72ZM36.84 69.396H42.492L42.204 56.724L36.84 69.396ZM55.8477 78.72C54.6477 78.72 53.6997 78.48 53.0037 78C52.3317 77.52 51.8517 76.884 51.5637 76.092C51.2997 75.276 51.1677 74.4 51.1677 73.464C51.1677 72.72 51.2637 71.784 51.4557 70.656C51.6477 69.528 51.9357 68.076 52.3197 66.3C52.7037 64.524 53.1957 62.304 53.7957 59.64L56.9277 59.28C56.3997 61.68 55.9677 63.66 55.6317 65.22C55.3197 66.756 55.0677 68.016 54.8757 69C54.7077 69.96 54.5877 70.752 54.5157 71.376C54.4677 71.976 54.4437 72.54 54.4437 73.068C54.4437 73.644 54.5157 74.208 54.6597 74.76C54.8277 75.288 55.1037 75.732 55.4877 76.092C55.8957 76.428 56.4357 76.596 57.1077 76.596C58.0197 76.596 58.7757 76.296 59.3757 75.696C59.9997 75.072 60.4917 74.292 60.8517 73.356C61.2357 72.42 61.5117 71.472 61.6797 70.512L63.8397 59.64L67.1157 59.28L64.1277 74.652C64.1037 74.868 64.0677 75.12 64.0197 75.408C63.9717 75.696 63.9477 75.948 63.9477 76.164C63.9477 76.5 64.0197 76.764 64.1637 76.956C64.3317 77.124 64.5717 77.22 64.8837 77.244C64.8117 77.58 64.6677 77.856 64.4517 78.072C64.2357 78.288 63.9837 78.444 63.6957 78.54C63.4077 78.66 63.0837 78.72 62.7237 78.72C62.0757 78.72 61.5597 78.54 61.1757 78.18C60.8157 77.844 60.5997 77.34 60.5277 76.668C60.0717 77.412 59.3877 77.94 58.4757 78.252C57.5877 78.564 56.7117 78.72 55.8477 78.72ZM71.3837 78.72C70.7117 78.72 70.1957 78.528 69.8357 78.144C69.4757 77.76 69.2957 77.244 69.2957 76.596C69.2957 76.404 69.3077 76.2 69.3317 75.984C69.3557 75.744 69.3917 75.42 69.4397 75.012C69.5117 74.604 69.6197 74.04 69.7637 73.32C69.9077 72.6 70.0877 71.676 70.3037 70.548C70.5437 69.396 70.8317 67.98 71.1677 66.3C71.5277 64.596 71.9477 62.568 72.4277 60.216C72.6677 58.872 72.8717 57.492 73.0397 56.076C73.2317 54.66 73.3277 53.472 73.3277 52.512C73.3277 52.248 73.3157 52.02 73.2917 51.828C73.2917 51.612 73.2677 51.42 73.2197 51.252C73.3637 51.132 73.5557 51.036 73.7957 50.964C74.0597 50.892 74.3357 50.856 74.6237 50.856C75.1757 50.856 75.7037 51.036 76.2077 51.396C76.7117 51.732 76.9637 52.356 76.9637 53.268C76.9637 53.436 76.9037 53.82 76.7837 54.42C76.6877 54.996 76.5557 55.68 76.3877 56.472C76.2437 57.264 76.0877 58.068 75.9197 58.884C75.7757 59.676 75.6437 60.372 75.5237 60.972C74.9237 63.876 74.4317 66.24 74.0477 68.064C73.6877 69.888 73.3997 71.328 73.1837 72.384C72.9917 73.416 72.8477 74.184 72.7517 74.688C72.6797 75.168 72.6317 75.504 72.6077 75.696C72.5837 75.864 72.5717 76.02 72.5717 76.164C72.5717 76.5 72.6437 76.764 72.7877 76.956C72.9557 77.124 73.1957 77.22 73.5077 77.244C73.4357 77.58 73.2917 77.856 73.0757 78.072C72.8597 78.288 72.6077 78.444 72.3197 78.54C72.0317 78.66 71.7197 78.72 71.3837 78.72ZM82.6343 78.72C81.4583 78.72 80.4983 78.432 79.7543 77.856C79.0343 77.256 78.5063 76.452 78.1703 75.444C77.8343 74.436 77.6663 73.284 77.6663 71.988C77.6663 70.212 77.8943 68.544 78.3503 66.984C78.8303 65.4 79.5023 64.008 80.3663 62.808C81.2303 61.584 82.2503 60.636 83.4263 59.964C84.6023 59.268 85.8863 58.92 87.2783 58.92C88.4303 58.92 89.6663 59.172 90.9863 59.676L94.1183 59.28L91.1663 74.652C91.1423 74.868 91.1063 75.12 91.0583 75.408C91.0103 75.696 90.9863 75.948 90.9863 76.164C90.9863 76.5 91.0583 76.764 91.2023 76.956C91.3703 77.124 91.6103 77.22 91.9223 77.244C91.8263 77.58 91.6703 77.856 91.4543 78.072C91.2383 78.288 90.9863 78.444 90.6983 78.54C90.4103 78.66 90.0863 78.72 89.7263 78.72C89.1023 78.72 88.5863 78.54 88.1783 78.18C87.7943 77.844 87.5903 77.34 87.5663 76.668C86.9423 77.268 86.2103 77.76 85.3703 78.144C84.5303 78.528 83.6183 78.72 82.6343 78.72ZM84.0743 76.596C85.0343 76.596 85.8143 76.284 86.4143 75.66C87.0383 75.012 87.5303 74.22 87.8903 73.284C88.2503 72.324 88.5143 71.4 88.6823 70.512L90.2303 62.304C89.7263 61.896 89.1863 61.596 88.6103 61.404C88.0343 61.188 87.5063 61.08 87.0263 61.08C86.2823 61.08 85.5983 61.272 84.9743 61.656C84.3743 62.04 83.8343 62.58 83.3543 63.276C82.8983 63.972 82.5023 64.8 82.1663 65.76C81.8543 66.696 81.6143 67.728 81.4463 68.856C81.3023 69.96 81.2303 71.112 81.2303 72.312C81.2303 73.512 81.4223 74.532 81.8063 75.372C82.2143 76.188 82.9703 76.596 84.0743 76.596ZM100.203 78.252C100.155 78.132 100.107 77.964 100.059 77.748C100.011 77.508 99.9868 77.304 99.9868 77.136C99.9868 76.512 100.191 76.032 100.599 75.696C101.007 75.36 101.691 75.192 102.651 75.192H106.863L110.211 58.272L110.139 58.236C109.251 58.668 108.447 59.04 107.727 59.352C107.031 59.664 106.323 59.82 105.603 59.82C104.883 59.82 104.355 59.568 104.019 59.064C103.707 58.536 103.503 57.936 103.407 57.264C104.559 57.048 105.651 56.796 106.683 56.508C107.739 56.22 108.807 55.86 109.887 55.428C110.991 54.972 112.203 54.408 113.523 53.736L114.315 54.06L110.103 75.3C111.183 75.324 112.107 75.36 112.875 75.408C113.667 75.432 114.507 75.396 115.395 75.3C115.683 75.804 115.827 76.224 115.827 76.56C115.827 77.088 115.623 77.496 115.215 77.784C114.831 78.072 114.207 78.216 113.343 78.216C112.119 78.216 111.075 78.204 110.211 78.18C109.347 78.156 108.543 78.132 107.799 78.108C107.079 78.084 106.299 78.06 105.459 78.036C104.643 78.012 103.671 78 102.543 78C102.063 78 101.607 78.024 101.175 78.072C100.767 78.144 100.443 78.204 100.203 78.252Z" fill="#35609D"/>
<path d="M360.117 32.6951L356.112 35.3645L349.439 34.0298L345.434 32.6951L340.095 34.0298L336.091 32.6951L338.76 27.3561H344.099L349.332 24.74C353.367 26.7354 357.017 29.4289 360.117 32.6951Z" fill="#5987C6"/>
<path d="M329.417 27.3561L328.082 31.3604L324.078 32.6952L320.074 39.3689L313.4 43.3732L304.057 44.7079V48.7122L306.726 51.3816V56.7206L302.722 54.0511L298.718 51.3816L296.395 44.401C300.393 34.8747 308.034 27.3441 317.618 23.4854L321.408 26.0214L329.417 27.3561Z" fill="#5987C6"/>
<path d="M332.087 64.7289L330.752 71.4027L325.413 76.7417V80.746L320.074 84.7501V91.4239L316.07 90.0891L313.4 83.4154V70.0679L306.726 68.7332L304.057 63.3942V59.3899L306.726 56.7205L310.731 52.7162L313.4 58.0552H322.743L326.748 64.7289H332.087Z" fill="#5987C6"/>
<path d="M365.856 40.4767C373.142 53.4758 372.312 69.5048 363.72 81.6803L360.116 78.0765V72.7375L357.447 67.3984L354.777 62.0594V56.7204L350.773 54.051L345.434 55.3857L336.091 51.3814L334.756 42.0382L338.76 38.0339H346.769L349.438 42.0382L357.447 43.373L365.455 40.7035L365.856 40.4767Z" fill="#5987C6"/>
<path d="M340.095 34.0298L345.434 32.6951L349.438 34.0298L356.112 35.3646L360.116 32.6951C362.352 35.035 364.281 37.6497 365.856 40.4766L365.455 40.7036L357.447 43.373L349.438 42.0383L346.769 38.034H338.761L334.756 42.0383L336.091 51.3814L345.434 55.3857L350.773 54.051L354.777 56.7205V62.0595L357.447 67.3985L360.116 72.7375V78.0765L363.72 81.6803C351.394 99.1468 327.241 103.313 309.776 90.9861C294.943 80.5163 289.379 61.1451 296.395 44.4008L298.718 51.3814L302.722 54.0509L306.726 56.7203L304.057 59.3899V63.3942L306.726 68.7332L313.4 70.0679V83.4154L316.069 90.0891L320.074 91.4238V84.7501L325.413 80.7458V76.7415L330.752 71.4025L332.086 64.7288H326.747L322.743 58.055H313.4L310.731 52.716L306.726 56.7203V51.3813L304.057 48.712V44.7077L313.4 43.373L320.074 39.3687L324.078 32.695L328.082 31.3603L329.417 27.356L321.409 26.0212L317.618 23.4852C327.882 19.3514 339.425 19.8079 349.332 24.7399L344.099 27.356H338.76L336.091 32.695L340.095 34.0298Z" fill="#BDCFE8"/>
<path d="M332.014 18C316.009 17.9977 301.544 27.5378 295.245 42.2509L294.746 42.4162L294.939 42.9961C286.645 63.4529 296.505 86.7602 316.961 95.0545C321.739 96.9917 326.847 97.9862 332.002 97.9833C354.089 97.9867 371.997 80.0844 372 57.9977C372.003 35.9109 354.101 18.0032 332.014 18ZM363.383 78.1548L361.33 76.1026V71.3222C361.332 71.1159 361.286 70.912 361.196 70.7263L355.997 60.3432V55.3256C355.997 54.88 355.775 54.4637 355.404 54.2165L351.405 51.5503C351.092 51.3411 350.704 51.2742 350.339 51.3664L345.441 52.5901L337.215 49.0602L336.083 41.1312L339.219 37.9958H345.953L348.219 41.4018C348.424 41.7081 348.746 41.9162 349.109 41.9763L357.108 43.3094C357.322 43.3454 357.542 43.3279 357.748 43.2587L365.114 40.8032C371.293 52.6599 370.632 66.9205 363.383 78.1548ZM357.885 31.1359L355.717 32.581L349.675 31.3719L345.754 30.0668C345.514 29.9853 345.256 29.975 345.01 30.0375L340.054 31.2759L337.881 30.5521L339.491 27.3314H344C344.207 27.3316 344.411 27.2837 344.596 27.1914L349.208 24.8852C352.384 26.5432 355.306 28.6481 357.885 31.1359ZM317.401 23.6428L320.601 25.7757C320.758 25.8804 320.936 25.9503 321.122 25.981L327.582 27.0581L326.951 28.9444L323.585 30.0682C323.284 30.1685 323.028 30.3731 322.864 30.6454L319.036 37.0254L312.886 40.7153L303.822 42.0097C303.165 42.1025 302.676 42.6645 302.675 43.3281V47.3272C302.675 47.6808 302.816 48.0197 303.066 48.2697L305.341 50.5452V52.8354L299.796 49.1375L297.784 43.1028C301.611 34.3579 308.626 27.3994 317.401 23.6428ZM313.606 67.3497L307.581 66.1433L305.341 61.6762V58.5436L310.308 53.5766L312.146 57.2545C312.372 57.7064 312.834 57.9918 313.34 57.9917H321.916L325.528 64.0104C325.769 64.4115 326.202 64.6568 326.67 64.6569H330.376L329.443 69.332L324.396 74.3789C324.145 74.6287 324.004 74.9676 324.004 75.3214V78.654L319.205 82.2533C318.869 82.5051 318.672 82.9001 318.672 83.3197V88.1347L317.013 87.5855L314.673 81.7307V68.6561C314.673 68.0226 314.227 67.4764 313.606 67.3497ZM309.599 87.8423C297.03 78.4128 291.715 62.1201 296.304 47.0926L297.412 50.4146C297.506 50.6957 297.69 50.9378 297.936 51.1024L304.581 55.5322L303.066 57.0492C302.816 57.2991 302.675 57.6381 302.675 57.9917V61.9908C302.675 62.1976 302.723 62.4016 302.815 62.5867L305.481 67.9189C305.666 68.2872 306.01 68.5495 306.414 68.6295L312.013 69.7479V81.9867C312.013 82.156 312.045 82.3239 312.108 82.4812L314.774 89.1465C314.92 89.5106 315.219 89.792 315.591 89.9157L319.59 91.2487C319.724 91.2941 319.864 91.3174 320.005 91.3181C320.741 91.3181 321.338 90.7212 321.338 89.985V83.9863L326.137 80.387C326.472 80.1352 326.67 79.7401 326.67 79.3206V75.8733L331.612 70.9316C331.798 70.7455 331.924 70.5084 331.976 70.2505L333.309 63.5852C333.453 62.8632 332.985 62.161 332.263 62.0167C332.177 61.9995 332.09 61.9908 332.002 61.9908H327.425L323.813 55.9721C323.572 55.571 323.139 55.3257 322.671 55.3256H314.163L311.873 50.7305C311.681 50.3469 311.317 50.079 310.893 50.0107C310.47 49.9375 310.038 50.0771 309.738 50.3839L308.007 52.1076V49.9933C308.007 49.6397 307.867 49.3008 307.617 49.0509L305.341 46.7753V44.4838L313.529 43.3147C313.705 43.2892 313.874 43.2289 314.026 43.1374L320.691 39.1383C320.878 39.026 321.035 38.8693 321.147 38.6824L324.893 32.4397L328.424 31.2612C328.823 31.1304 329.136 30.8177 329.267 30.4187L330.6 26.4196C330.831 25.7206 330.451 24.9665 329.752 24.7356C329.688 24.7143 329.622 24.6979 329.555 24.6866L321.839 23.4002L320.483 22.4964C328.872 19.766 337.958 20.1039 346.121 23.4495L343.685 24.6653H338.668C338.16 24.6624 337.695 24.9484 337.468 25.4025L334.802 30.7347C334.473 31.3935 334.741 32.194 335.4 32.5225C335.456 32.5505 335.514 32.5745 335.574 32.5943L339.573 33.9274C339.813 34.0088 340.071 34.0192 340.317 33.9567L345.273 32.7183L348.904 33.9274C348.956 33.946 349.01 33.9603 349.064 33.97L355.729 35.3031C356.076 35.3737 356.437 35.3027 356.731 35.1058L359.765 33.0822C361.258 34.7453 362.6 36.5383 363.774 38.4397L357.216 40.626L350.115 39.4422L347.768 35.9229C347.522 35.5542 347.109 35.3319 346.666 35.3297H338.668C338.314 35.3297 337.975 35.4704 337.725 35.7203L333.726 39.7195C333.429 40.0162 333.289 40.4357 333.349 40.8512L334.682 50.1826C334.749 50.644 335.052 51.0368 335.482 51.2184L344.813 55.2176C345.08 55.3334 345.379 55.3572 345.661 55.2856L350.421 54.0951L353.331 56.0387V60.6578C353.329 60.8641 353.375 61.068 353.465 61.2537L358.663 71.6368V76.6544C358.663 77.008 358.804 77.347 359.054 77.5969L361.843 80.387C349.475 96.8724 326.084 100.21 309.599 87.8423Z" fill="#35609D"/>
</svg>
