<svg width="299" height="60" viewBox="0 0 299 60" fill="none" xmlns="http://www.w3.org/2000/svg">
<rect opacity="0.5" width="299" height="60" rx="30" fill="#E5E3F0"/>
<path opacity="0.8" d="M23.086 37.378C21.946 37.378 21.076 37.012 20.476 36.28C19.888 35.548 19.594 34.492 19.594 33.112C19.594 32.416 19.666 31.684 19.81 30.916C19.966 30.136 20.2 29.386 20.512 28.666C20.824 27.934 21.214 27.274 21.682 26.686C22.15 26.098 22.702 25.63 23.338 25.282C23.974 24.934 24.694 24.76 25.498 24.76C25.942 24.76 26.338 24.82 26.686 24.94C27.034 25.048 27.328 25.21 27.568 25.426C27.82 25.63 28.006 25.882 28.126 26.182C28.258 26.482 28.324 26.818 28.324 27.19C28.324 27.562 28.258 27.874 28.126 28.126C28.006 28.378 27.838 28.564 27.622 28.684C27.418 28.804 27.19 28.864 26.938 28.864C26.77 28.864 26.596 28.84 26.416 28.792C26.248 28.732 26.122 28.642 26.038 28.522C26.134 28.318 26.206 28.09 26.254 27.838C26.314 27.574 26.344 27.364 26.344 27.208C26.344 26.944 26.29 26.728 26.182 26.56C26.074 26.392 25.924 26.266 25.732 26.182C25.54 26.086 25.312 26.038 25.048 26.038C24.544 26.038 24.094 26.2 23.698 26.524C23.314 26.836 22.984 27.256 22.708 27.784C22.432 28.312 22.204 28.888 22.024 29.512C21.844 30.136 21.712 30.76 21.628 31.384C21.544 31.996 21.502 32.548 21.502 33.04C21.502 33.532 21.55 33.994 21.646 34.426C21.754 34.858 21.94 35.206 22.204 35.47C22.48 35.734 22.87 35.866 23.374 35.866C24.046 35.866 24.592 35.644 25.012 35.2C25.444 34.756 25.816 34.234 26.128 33.634C26.332 33.73 26.482 33.844 26.578 33.976C26.674 34.096 26.722 34.294 26.722 34.57C26.722 35.002 26.608 35.392 26.38 35.74C26.164 36.088 25.876 36.382 25.516 36.622C25.168 36.862 24.778 37.048 24.346 37.18C23.926 37.312 23.506 37.378 23.086 37.378ZM31.7076 37.36C31.0836 37.36 30.5796 37.258 30.1956 37.054C29.8116 36.85 29.5176 36.592 29.3136 36.28C29.1216 35.956 28.9896 35.62 28.9176 35.272C28.8576 34.912 28.8276 34.588 28.8276 34.3C28.8276 33.496 28.9176 32.692 29.0976 31.888C29.2896 31.084 29.5776 30.346 29.9616 29.674C30.3576 29.002 30.8676 28.468 31.4916 28.072C32.1276 27.664 32.8956 27.46 33.7956 27.46C34.4316 27.46 34.9356 27.562 35.3076 27.766C35.6916 27.97 35.9856 28.234 36.1896 28.558C36.3936 28.87 36.5256 29.206 36.5856 29.566C36.6576 29.914 36.6936 30.232 36.6936 30.52C36.6936 31.324 36.5976 32.134 36.4056 32.95C36.2256 33.754 35.9376 34.492 35.5416 35.164C35.1456 35.824 34.6296 36.358 33.9936 36.766C33.3696 37.162 32.6076 37.36 31.7076 37.36ZM32.0676 36.28C32.4516 36.28 32.7936 36.166 33.0936 35.938C33.4056 35.71 33.6756 35.404 33.9036 35.02C34.1316 34.624 34.3176 34.18 34.4616 33.688C34.6176 33.196 34.7316 32.686 34.8036 32.158C34.8756 31.618 34.9116 31.09 34.9116 30.574C34.9116 29.986 34.8036 29.5 34.5876 29.116C34.3836 28.732 34.0056 28.54 33.4536 28.54C33.0696 28.54 32.7216 28.654 32.4096 28.882C32.0976 29.11 31.8276 29.416 31.5996 29.8C31.3716 30.184 31.1796 30.622 31.0236 31.114C30.8796 31.606 30.7716 32.122 30.6996 32.662C30.6276 33.202 30.5916 33.73 30.5916 34.246C30.5916 34.834 30.6996 35.32 30.9156 35.704C31.1316 36.088 31.5156 36.28 32.0676 36.28ZM44.3716 37.36C44.0596 37.36 43.8136 37.264 43.6336 37.072C43.4536 36.892 43.3636 36.58 43.3636 36.136C43.3636 35.872 43.3996 35.53 43.4716 35.11C43.5556 34.678 43.6516 34.222 43.7596 33.742C43.8796 33.25 43.9936 32.77 44.1016 32.302C44.2096 31.822 44.2996 31.396 44.3716 31.024C44.4556 30.64 44.4976 30.352 44.4976 30.16C44.4976 29.716 44.3776 29.386 44.1376 29.17C43.9096 28.954 43.6156 28.846 43.2556 28.846C42.7516 28.846 42.3196 29.014 41.9596 29.35C41.6116 29.674 41.3296 30.088 41.1136 30.592C40.8976 31.096 40.7356 31.6 40.6276 32.104L39.6736 37L38.0176 37.18L39.8356 27.82L41.2396 27.64L41.0416 29.224C41.3656 28.66 41.7916 28.228 42.3196 27.928C42.8596 27.616 43.4116 27.46 43.9756 27.46C44.6956 27.46 45.2356 27.658 45.5956 28.054C45.9676 28.45 46.1536 28.978 46.1536 29.638C46.1536 29.974 46.1116 30.376 46.0276 30.844C45.9556 31.3 45.8596 31.786 45.7396 32.302C45.6316 32.818 45.5176 33.322 45.3976 33.814C45.2896 34.306 45.1936 34.75 45.1096 35.146C45.0376 35.53 45.0016 35.824 45.0016 36.028C45.0016 36.184 45.0256 36.316 45.0736 36.424C45.1336 36.532 45.2656 36.598 45.4696 36.622C45.4096 36.874 45.2776 37.06 45.0736 37.18C44.8696 37.3 44.6356 37.36 44.3716 37.36ZM54.0044 37.36C53.6924 37.36 53.4464 37.264 53.2664 37.072C53.0864 36.892 52.9964 36.58 52.9964 36.136C52.9964 35.872 53.0324 35.53 53.1044 35.11C53.1884 34.678 53.2844 34.222 53.3924 33.742C53.5124 33.25 53.6264 32.77 53.7344 32.302C53.8424 31.822 53.9324 31.396 54.0044 31.024C54.0884 30.64 54.1304 30.352 54.1304 30.16C54.1304 29.716 54.0104 29.386 53.7704 29.17C53.5424 28.954 53.2484 28.846 52.8884 28.846C52.3844 28.846 51.9524 29.014 51.5924 29.35C51.2444 29.674 50.9624 30.088 50.7464 30.592C50.5304 31.096 50.3684 31.6 50.2604 32.104L49.3064 37L47.6504 37.18L49.2344 28.99L50.5124 29.422C50.8604 28.81 51.2924 28.33 51.8084 27.982C52.3364 27.634 52.9304 27.46 53.5904 27.46C54.3224 27.46 54.8684 27.658 55.2284 28.054C55.6004 28.45 55.7864 28.978 55.7864 29.638C55.7864 29.974 55.7444 30.376 55.6604 30.844C55.5884 31.3 55.4924 31.786 55.3724 32.302C55.2644 32.818 55.1504 33.322 55.0304 33.814C54.9224 34.306 54.8264 34.75 54.7424 35.146C54.6704 35.53 54.6344 35.824 54.6344 36.028C54.6344 36.184 54.6584 36.316 54.7064 36.424C54.7664 36.532 54.8984 36.598 55.1024 36.622C55.0424 36.874 54.9104 37.06 54.7064 37.18C54.5024 37.3 54.2684 37.36 54.0044 37.36ZM50.5304 29.638L49.1804 29.26C49.2764 28.768 49.3724 28.216 49.4684 27.604C49.5764 26.98 49.6664 26.374 49.7384 25.786C49.8104 25.186 49.8464 24.676 49.8464 24.256C49.8464 24.124 49.8404 24.01 49.8284 23.914C49.8284 23.806 49.8164 23.71 49.7924 23.626C49.8644 23.566 49.9604 23.518 50.0804 23.482C50.2124 23.446 50.3504 23.428 50.4944 23.428C50.7704 23.428 51.0344 23.518 51.2864 23.698C51.5384 23.866 51.6644 24.178 51.6644 24.634C51.6644 24.778 51.6344 25.012 51.5744 25.336C51.5264 25.66 51.4544 26.026 51.3584 26.434C51.2744 26.842 51.1784 27.256 51.0704 27.676C50.9744 28.096 50.8784 28.48 50.7824 28.828C50.6864 29.176 50.6024 29.446 50.5304 29.638ZM60.4328 37.36C59.7608 37.36 59.1848 37.234 58.7048 36.982C58.2368 36.718 57.8768 36.328 57.6248 35.812C57.3848 35.296 57.2648 34.642 57.2648 33.85C57.2648 33.094 57.3668 32.338 57.5708 31.582C57.7748 30.826 58.0808 30.142 58.4888 29.53C58.8968 28.906 59.4128 28.408 60.0368 28.036C60.6728 27.652 61.4168 27.46 62.2688 27.46C62.7248 27.46 63.1268 27.526 63.4748 27.658C63.8228 27.79 64.0928 28.006 64.2848 28.306C64.4888 28.594 64.5908 28.984 64.5908 29.476C64.5908 30.196 64.3748 30.802 63.9428 31.294C63.5108 31.786 62.9468 32.152 62.2508 32.392C61.5668 32.632 60.8348 32.746 60.0548 32.734C59.8988 32.734 59.7248 32.728 59.5328 32.716C59.3408 32.704 59.1908 32.692 59.0828 32.68C59.0708 32.896 59.0588 33.106 59.0468 33.31C59.0348 33.502 59.0288 33.676 59.0288 33.832C59.0288 34.528 59.1488 35.074 59.3888 35.47C59.6288 35.854 60.0788 36.046 60.7388 36.046C61.2788 36.046 61.7408 35.914 62.1248 35.65C62.5208 35.386 62.8328 35.02 63.0608 34.552C63.2288 34.576 63.3428 34.666 63.4028 34.822C63.4628 34.966 63.4928 35.11 63.4928 35.254C63.4928 35.566 63.3788 35.884 63.1508 36.208C62.9348 36.532 62.5988 36.802 62.1428 37.018C61.6988 37.246 61.1288 37.36 60.4328 37.36ZM59.2088 31.78C59.6168 31.78 60.0308 31.744 60.4508 31.672C60.8708 31.588 61.2608 31.462 61.6208 31.294C61.9808 31.126 62.2688 30.898 62.4848 30.61C62.7128 30.322 62.8268 29.974 62.8268 29.566C62.8268 29.206 62.7368 28.942 62.5568 28.774C62.3888 28.594 62.1488 28.504 61.8368 28.504C61.4648 28.504 61.1228 28.618 60.8108 28.846C60.5108 29.074 60.2528 29.362 60.0368 29.71C59.8208 30.058 59.6408 30.418 59.4968 30.79C59.3648 31.162 59.2688 31.492 59.2088 31.78ZM68.2148 37.36C67.1948 37.36 66.4448 37.066 65.9648 36.478C65.4968 35.89 65.2628 35.014 65.2628 33.85C65.2628 33.094 65.3588 32.344 65.5508 31.6C65.7548 30.844 66.0548 30.154 66.4508 29.53C66.8588 28.906 67.3688 28.408 67.9808 28.036C68.5928 27.652 69.3128 27.46 70.1408 27.46C70.6208 27.46 71.0408 27.532 71.4008 27.676C71.7728 27.82 72.0608 28.03 72.2648 28.306C72.4688 28.582 72.5708 28.924 72.5708 29.332C72.5708 29.848 72.4268 30.232 72.1388 30.484C71.8628 30.724 71.5568 30.844 71.2208 30.844C71.1008 30.844 70.9688 30.826 70.8248 30.79C70.6808 30.754 70.5668 30.682 70.4828 30.574C70.5428 30.406 70.5968 30.22 70.6448 30.016C70.6928 29.812 70.7168 29.632 70.7168 29.476C70.7168 29.164 70.6388 28.93 70.4828 28.774C70.3268 28.606 70.0988 28.522 69.7988 28.522C69.4268 28.522 69.0908 28.642 68.7908 28.882C68.4908 29.122 68.2268 29.44 67.9988 29.836C67.7828 30.232 67.5968 30.664 67.4408 31.132C67.2968 31.6 67.1888 32.068 67.1168 32.536C67.0448 33.004 67.0088 33.424 67.0088 33.796C67.0088 34.408 67.1288 34.936 67.3688 35.38C67.6208 35.824 68.0708 36.046 68.7188 36.046C69.2828 36.046 69.7448 35.878 70.1048 35.542C70.4648 35.194 70.7228 34.762 70.8788 34.246C71.0948 34.294 71.2508 34.402 71.3468 34.57C71.4428 34.726 71.4908 34.912 71.4908 35.128C71.4908 35.512 71.3528 35.878 71.0768 36.226C70.8008 36.562 70.4168 36.832 69.9248 37.036C69.4448 37.252 68.8748 37.36 68.2148 37.36ZM67.7468 41.536C67.3028 41.536 66.9428 41.464 66.6668 41.32C66.3908 41.176 66.2528 40.966 66.2528 40.69C66.2528 40.594 66.2708 40.492 66.3068 40.384C66.3548 40.288 66.4268 40.21 66.5228 40.15C66.6188 40.306 66.7628 40.426 66.9548 40.51C67.1468 40.594 67.3688 40.636 67.6208 40.636C67.8128 40.636 68.0168 40.612 68.2328 40.564C68.4608 40.528 68.6528 40.444 68.8088 40.312C68.9648 40.18 69.0428 39.994 69.0428 39.754C69.0428 39.454 68.8928 39.25 68.5928 39.142C68.2928 39.046 67.9388 38.998 67.5308 38.998C67.4228 38.998 67.3148 38.998 67.2068 38.998C67.1108 39.01 67.0088 39.022 66.9008 39.034L67.5668 36.802H68.3408L67.9268 38.224C68.0108 38.212 68.1248 38.2 68.2688 38.188C68.4248 38.188 68.5568 38.188 68.6648 38.188C69.1568 38.188 69.5648 38.29 69.8888 38.494C70.2248 38.698 70.3928 39.04 70.3928 39.52C70.3928 39.904 70.2728 40.246 70.0328 40.546C69.8048 40.858 69.4928 41.098 69.0968 41.266C68.7008 41.446 68.2508 41.536 67.7468 41.536ZM75.657 37.36C75.069 37.36 74.589 37.216 74.217 36.928C73.857 36.628 73.593 36.226 73.425 35.722C73.257 35.218 73.173 34.642 73.173 33.994C73.173 33.106 73.287 32.272 73.515 31.492C73.755 30.7 74.091 30.004 74.523 29.404C74.955 28.792 75.465 28.318 76.053 27.982C76.641 27.634 77.283 27.46 77.979 27.46C78.555 27.46 79.173 27.586 79.833 27.838L81.399 27.64L79.923 35.326C79.911 35.434 79.893 35.56 79.869 35.704C79.845 35.848 79.833 35.974 79.833 36.082C79.833 36.25 79.869 36.382 79.941 36.478C80.025 36.562 80.145 36.61 80.301 36.622C80.253 36.79 80.175 36.928 80.067 37.036C79.959 37.144 79.833 37.222 79.689 37.27C79.545 37.33 79.383 37.36 79.203 37.36C78.891 37.36 78.633 37.27 78.429 37.09C78.237 36.922 78.135 36.67 78.123 36.334C77.811 36.634 77.445 36.88 77.025 37.072C76.605 37.264 76.149 37.36 75.657 37.36ZM76.377 36.298C76.857 36.298 77.247 36.142 77.547 35.83C77.859 35.506 78.105 35.11 78.285 34.642C78.465 34.162 78.597 33.7 78.681 33.256L79.455 29.152C79.203 28.948 78.933 28.798 78.645 28.702C78.357 28.594 78.093 28.54 77.853 28.54C77.481 28.54 77.139 28.636 76.827 28.828C76.527 29.02 76.257 29.29 76.017 29.638C75.789 29.986 75.591 30.4 75.423 30.88C75.267 31.348 75.147 31.864 75.063 32.428C74.991 32.98 74.955 33.556 74.955 34.156C74.955 34.756 75.051 35.266 75.243 35.686C75.447 36.094 75.825 36.298 76.377 36.298ZM88.2213 37.36C87.5973 37.36 87.0933 37.258 86.7093 37.054C86.3253 36.85 86.0313 36.592 85.8273 36.28C85.6353 35.956 85.5033 35.62 85.4313 35.272C85.3713 34.912 85.3413 34.588 85.3413 34.3C85.3413 33.496 85.4313 32.692 85.6113 31.888C85.8033 31.084 86.0913 30.346 86.4753 29.674C86.8713 29.002 87.3813 28.468 88.0053 28.072C88.6413 27.664 89.4093 27.46 90.3093 27.46C90.9453 27.46 91.4493 27.562 91.8213 27.766C92.2053 27.97 92.4993 28.234 92.7033 28.558C92.9073 28.87 93.0393 29.206 93.0993 29.566C93.1713 29.914 93.2073 30.232 93.2073 30.52C93.2073 31.324 93.1113 32.134 92.9193 32.95C92.7393 33.754 92.4513 34.492 92.0553 35.164C91.6593 35.824 91.1433 36.358 90.5073 36.766C89.8833 37.162 89.1213 37.36 88.2213 37.36ZM88.5813 36.28C88.9653 36.28 89.3073 36.166 89.6073 35.938C89.9193 35.71 90.1893 35.404 90.4173 35.02C90.6453 34.624 90.8313 34.18 90.9753 33.688C91.1313 33.196 91.2453 32.686 91.3173 32.158C91.3893 31.618 91.4253 31.09 91.4253 30.574C91.4253 29.986 91.3173 29.5 91.1013 29.116C90.8973 28.732 90.5193 28.54 89.9673 28.54C89.5833 28.54 89.2353 28.654 88.9233 28.882C88.6113 29.11 88.3413 29.416 88.1133 29.8C87.8853 30.184 87.6933 30.622 87.5373 31.114C87.3933 31.606 87.2853 32.122 87.2133 32.662C87.1413 33.202 87.1053 33.73 87.1053 34.246C87.1053 34.834 87.2133 35.32 87.4293 35.704C87.6453 36.088 88.0293 36.28 88.5813 36.28ZM100.277 37.36C99.2573 37.36 98.5073 37.066 98.0273 36.478C97.5593 35.89 97.3253 35.014 97.3253 33.85C97.3253 33.094 97.4213 32.344 97.6133 31.6C97.8173 30.844 98.1173 30.154 98.5133 29.53C98.9213 28.906 99.4313 28.408 100.043 28.036C100.655 27.652 101.375 27.46 102.203 27.46C102.683 27.46 103.103 27.532 103.463 27.676C103.835 27.82 104.123 28.03 104.327 28.306C104.531 28.582 104.633 28.924 104.633 29.332C104.633 29.848 104.489 30.232 104.201 30.484C103.925 30.724 103.619 30.844 103.283 30.844C103.163 30.844 103.031 30.826 102.887 30.79C102.743 30.754 102.629 30.682 102.545 30.574C102.605 30.406 102.659 30.22 102.707 30.016C102.755 29.812 102.779 29.632 102.779 29.476C102.779 29.164 102.701 28.93 102.545 28.774C102.389 28.606 102.161 28.522 101.861 28.522C101.489 28.522 101.153 28.642 100.853 28.882C100.553 29.122 100.289 29.44 100.061 29.836C99.8453 30.232 99.6593 30.664 99.5033 31.132C99.3593 31.6 99.2513 32.068 99.1793 32.536C99.1073 33.004 99.0713 33.424 99.0713 33.796C99.0713 34.408 99.1913 34.936 99.4313 35.38C99.6833 35.824 100.133 36.046 100.781 36.046C101.345 36.046 101.807 35.878 102.167 35.542C102.527 35.194 102.785 34.762 102.941 34.246C103.157 34.294 103.313 34.402 103.409 34.57C103.505 34.726 103.553 34.912 103.553 35.128C103.553 35.512 103.415 35.878 103.139 36.226C102.863 36.562 102.479 36.832 101.987 37.036C101.507 37.252 100.937 37.36 100.277 37.36ZM107.773 37.36C107.173 37.36 106.699 37.24 106.351 37C106.015 36.76 105.775 36.442 105.631 36.046C105.499 35.638 105.433 35.2 105.433 34.732C105.433 34.36 105.481 33.892 105.577 33.328C105.673 32.764 105.817 32.038 106.009 31.15C106.201 30.262 106.447 29.152 106.747 27.82L108.313 27.64C108.049 28.84 107.833 29.83 107.665 30.61C107.509 31.378 107.383 32.008 107.287 32.5C107.203 32.98 107.143 33.376 107.107 33.688C107.083 33.988 107.071 34.27 107.071 34.534C107.071 34.822 107.107 35.104 107.179 35.38C107.263 35.644 107.401 35.866 107.593 36.046C107.797 36.214 108.067 36.298 108.403 36.298C108.859 36.298 109.237 36.148 109.537 35.848C109.849 35.536 110.095 35.146 110.275 34.678C110.467 34.21 110.605 33.736 110.689 33.256L111.769 27.82L113.407 27.64L111.913 35.326C111.901 35.434 111.883 35.56 111.859 35.704C111.835 35.848 111.823 35.974 111.823 36.082C111.823 36.25 111.859 36.382 111.931 36.478C112.015 36.562 112.135 36.61 112.291 36.622C112.255 36.79 112.183 36.928 112.075 37.036C111.967 37.144 111.841 37.222 111.697 37.27C111.553 37.33 111.391 37.36 111.211 37.36C110.887 37.36 110.629 37.27 110.437 37.09C110.257 36.922 110.149 36.67 110.113 36.334C109.885 36.706 109.543 36.97 109.087 37.126C108.643 37.282 108.205 37.36 107.773 37.36ZM114.605 37.18L116.387 27.82L117.791 27.64L117.593 29.224C117.809 28.732 118.145 28.318 118.601 27.982C119.057 27.634 119.555 27.46 120.095 27.46C120.659 27.46 121.061 27.634 121.301 27.982C121.541 28.33 121.661 28.732 121.661 29.188C121.661 29.74 121.511 30.226 121.211 30.646C120.923 31.066 120.539 31.276 120.059 31.276C119.939 31.276 119.807 31.252 119.663 31.204C119.531 31.156 119.429 31.072 119.357 30.952C119.489 30.772 119.597 30.556 119.681 30.304C119.777 30.04 119.825 29.8 119.825 29.584C119.825 29.344 119.765 29.164 119.645 29.044C119.537 28.912 119.369 28.846 119.141 28.846C118.817 28.846 118.541 28.966 118.313 29.206C118.085 29.434 117.899 29.722 117.755 30.07C117.611 30.418 117.491 30.778 117.395 31.15C117.311 31.51 117.245 31.816 117.197 32.068L116.315 37L114.605 37.18ZM124.081 37.396C123.733 37.396 123.385 37.354 123.037 37.27C122.701 37.198 122.395 37.084 122.119 36.928C121.843 36.772 121.621 36.58 121.453 36.352C121.297 36.112 121.219 35.842 121.219 35.542C121.219 35.194 121.309 34.93 121.489 34.75C121.669 34.558 121.879 34.426 122.119 34.354C122.359 34.27 122.569 34.228 122.749 34.228C122.857 34.228 122.959 34.24 123.055 34.264C123.163 34.288 123.247 34.342 123.307 34.426C123.247 34.582 123.187 34.732 123.127 34.876C123.079 35.02 123.055 35.182 123.055 35.362C123.055 35.662 123.175 35.908 123.415 36.1C123.655 36.28 123.979 36.37 124.387 36.37C124.843 36.37 125.227 36.244 125.539 35.992C125.851 35.74 126.007 35.41 126.007 35.002C126.007 34.69 125.935 34.414 125.791 34.174C125.647 33.934 125.455 33.718 125.215 33.526C124.987 33.322 124.741 33.124 124.477 32.932C124.153 32.704 123.835 32.464 123.523 32.212C123.211 31.96 122.947 31.672 122.731 31.348C122.527 31.012 122.425 30.61 122.425 30.142C122.425 29.71 122.533 29.326 122.749 28.99C122.965 28.654 123.247 28.372 123.595 28.144C123.955 27.916 124.351 27.748 124.783 27.64C125.215 27.52 125.647 27.46 126.079 27.46C126.463 27.46 126.847 27.514 127.231 27.622C127.615 27.718 127.933 27.892 128.185 28.144C128.437 28.384 128.563 28.72 128.563 29.152C128.563 29.608 128.419 29.962 128.131 30.214C127.855 30.466 127.567 30.592 127.267 30.592C127.159 30.592 127.033 30.58 126.889 30.556C126.757 30.532 126.643 30.478 126.547 30.394C126.631 30.226 126.697 30.064 126.745 29.908C126.793 29.74 126.817 29.572 126.817 29.404C126.817 29.104 126.703 28.876 126.475 28.72C126.259 28.564 125.959 28.486 125.575 28.486C125.155 28.486 124.801 28.6 124.513 28.828C124.225 29.044 124.081 29.35 124.081 29.746C124.081 30.01 124.135 30.25 124.243 30.466C124.363 30.67 124.513 30.862 124.693 31.042C124.885 31.222 125.095 31.396 125.323 31.564C125.683 31.816 126.049 32.08 126.421 32.356C126.793 32.62 127.105 32.926 127.357 33.274C127.609 33.622 127.735 34.054 127.735 34.57C127.735 35.158 127.549 35.668 127.177 36.1C126.817 36.52 126.355 36.838 125.791 37.054C125.227 37.282 124.657 37.396 124.081 37.396ZM132.501 37.36C131.877 37.36 131.373 37.258 130.989 37.054C130.605 36.85 130.311 36.592 130.107 36.28C129.915 35.956 129.783 35.62 129.711 35.272C129.651 34.912 129.621 34.588 129.621 34.3C129.621 33.496 129.711 32.692 129.891 31.888C130.083 31.084 130.371 30.346 130.755 29.674C131.151 29.002 131.661 28.468 132.285 28.072C132.921 27.664 133.689 27.46 134.589 27.46C135.225 27.46 135.729 27.562 136.101 27.766C136.485 27.97 136.779 28.234 136.983 28.558C137.187 28.87 137.319 29.206 137.379 29.566C137.451 29.914 137.487 30.232 137.487 30.52C137.487 31.324 137.391 32.134 137.199 32.95C137.019 33.754 136.731 34.492 136.335 35.164C135.939 35.824 135.423 36.358 134.787 36.766C134.163 37.162 133.401 37.36 132.501 37.36ZM132.861 36.28C133.245 36.28 133.587 36.166 133.887 35.938C134.199 35.71 134.469 35.404 134.697 35.02C134.925 34.624 135.111 34.18 135.255 33.688C135.411 33.196 135.525 32.686 135.597 32.158C135.669 31.618 135.705 31.09 135.705 30.574C135.705 29.986 135.597 29.5 135.381 29.116C135.177 28.732 134.799 28.54 134.247 28.54C133.863 28.54 133.515 28.654 133.203 28.882C132.891 29.11 132.621 29.416 132.393 29.8C132.165 30.184 131.973 30.622 131.817 31.114C131.673 31.606 131.565 32.122 131.493 32.662C131.421 33.202 131.385 33.73 131.385 34.246C131.385 34.834 131.493 35.32 131.709 35.704C131.925 36.088 132.309 36.28 132.861 36.28Z" fill="#35609D"/>
<path opacity="0.5" d="M260.317 19.055L259.746 18.4946C259.47 18.2233 259.043 18.1811 258.719 18.3932C258.5 18.5366 258.362 18.7755 258.348 19.0367L257.48 34.969C257.472 35.1047 257.414 35.2328 257.317 35.328C257.08 35.5615 256.69 35.5292 256.494 35.2598L255.505 33.898C255.41 33.7675 255.299 33.6489 255.176 33.545L253.944 32.5069C253.513 32.1444 252.931 32.0184 252.389 32.1705C251.656 32.3764 251.149 33.0451 251.149 33.8068V33.8298C251.149 34.1332 251.229 34.4312 251.381 34.694L255.88 42.4968C256.135 42.9387 256.456 43.3391 256.832 43.6839L260.347 46.9077C260.629 47.1665 260.834 47.4977 260.941 47.8653C261.201 48.7587 262.02 49.3731 262.95 49.3731H269.051C270.423 49.3731 271.664 48.5604 272.212 47.3033L273.528 42.6478C273.653 42.2053 273.716 41.7476 273.716 41.2878V36.461C273.716 36.0061 273.623 35.5561 273.441 35.1392L273.327 34.8778C273.002 34.1334 272.36 33.5741 271.578 33.3546C271.013 33.1959 270.515 32.8578 270.159 32.3912L270.11 32.3278C269.908 32.0627 269.662 31.834 269.383 31.6513L268.619 31.1502C268.227 30.8938 267.741 30.8294 267.296 30.975L267.008 31.0693C266.526 31.2272 265.998 31.0468 265.713 30.6272C265.633 30.5094 265.532 30.4076 265.414 30.3272L264.444 29.663C264.115 29.438 263.686 29.4253 263.344 29.6303C262.708 30.0128 261.889 29.6069 261.808 28.8686L260.849 20.1511C260.803 19.7354 260.615 19.3482 260.317 19.055Z" fill="#5987C6"/>
<path opacity="0.8" d="M263.508 23.1659C264.58 22.0662 265.172 20.619 265.172 19.0899C265.172 15.8523 262.508 13.2191 259.233 13.2191C255.958 13.2191 253.295 15.8523 253.295 19.0899C253.295 20.6185 253.886 22.0662 254.959 23.1659C255.148 23.3604 255.144 23.6703 254.947 23.8579C254.851 23.9494 254.727 23.9954 254.604 23.9954C254.474 23.9954 254.345 23.945 254.248 23.8454C252.995 22.5624 252.305 20.8732 252.305 19.0899C252.305 15.3128 255.413 12.24 259.234 12.24C263.055 12.24 266.163 15.3128 266.163 19.0899C266.163 20.8732 265.474 22.5624 264.221 23.8454C264.032 24.0405 263.719 24.0451 263.521 23.8579C263.324 23.6697 263.317 23.3604 263.508 23.1659ZM251.915 26.8534C252.11 26.6644 252.114 26.3546 251.922 26.1611C250.041 24.2608 249.005 21.7495 249.005 19.09C249.005 13.5147 253.593 8.97848 259.233 8.97848C264.872 8.97848 269.461 13.5147 269.461 19.09C269.461 21.75 268.425 24.2613 266.543 26.1616C266.352 26.3547 266.355 26.6644 266.551 26.8535C266.647 26.9467 266.772 26.9933 266.897 26.9933C267.025 26.9933 267.153 26.9441 267.25 26.8466C269.315 24.7622 270.45 22.0071 270.45 19.0901C270.451 12.9746 265.418 8 259.233 8C253.047 8 248.015 12.9746 248.015 19.0899C248.015 22.007 249.152 24.7615 251.215 26.846C251.406 27.0388 251.72 27.0421 251.915 26.8534ZM272.573 47.8463L272.005 49.6539C271.941 49.8597 271.747 50 271.529 50H261.345C261.137 50 261.004 49.7038 260.931 49.5116C260.857 49.3196 260.931 49.5116 260.682 49.0233C260.682 49.0233 260.579 48.8722 260.434 48.5349C260.312 48.2513 260.186 48.0465 259.965 47.816C259.783 47.6251 255.622 43.7419 253.854 40.6965C253.365 40.017 249.75 34.8756 250.616 32.6148C250.821 32.0791 251.247 31.7196 251.852 31.5737C252.125 31.4779 252.403 31.4293 252.68 31.4293C254.268 31.4293 255.446 32.9707 256.306 34.0957C256.495 34.3446 256.734 34.6564 256.913 34.8506C256.99 34.508 257.073 33.7398 257.065 32.0177C257.065 32.0003 257.065 31.9818 257.068 31.9633C257.071 31.9377 257.332 29.3599 257.347 21.1292C257.246 21.1087 257.148 21.0652 257.074 20.9833C256.605 20.461 256.347 19.7889 256.347 19.0894C256.347 17.5157 257.642 16.2353 259.234 16.2353C260.826 16.2353 262.12 17.5157 262.12 19.0894C262.12 19.7108 261.907 20.3027 261.533 20.7951C261.544 20.8947 261.554 20.9982 261.566 21.1098C261.663 22.0605 261.768 23.3048 261.877 24.622C262.021 26.353 262.209 28.5952 262.355 29.6293C262.787 29.4111 263.402 29.1792 264.068 29.1792C264.801 29.1792 265.788 29.4609 266.521 30.7242C266.862 30.5956 267.352 30.4568 267.89 30.4568C268.759 30.4568 269.91 30.8086 270.584 32.4313C271.195 32.5389 272.544 32.8846 273.423 33.9246C274.04 34.6533 274.305 35.5684 274.214 36.6468C274.29 37.3235 274.905 43.4024 272.573 47.8463ZM257.336 19.0899C257.336 19.2886 257.373 19.4822 257.435 19.6679C257.739 17.8966 258.507 17.4969 259.133 17.4969C259.978 17.4969 260.76 18.275 261.12 18.9894C261.065 18.0028 260.244 17.2147 259.233 17.2147C258.186 17.2141 257.336 18.0558 257.336 19.0899ZM273.216 36.7141C273.211 36.6788 273.211 36.6435 273.215 36.6081C273.293 35.7805 273.107 35.0924 272.66 34.5618C271.79 33.5248 270.192 33.3712 270.175 33.3696C269.98 33.3517 269.811 33.2227 269.747 33.0394C269.373 31.9645 268.764 31.4427 267.888 31.4427C267.175 31.4427 266.544 31.7924 266.538 31.796C266.417 31.8646 266.269 31.88 266.136 31.8364C266.003 31.7934 265.893 31.6972 265.836 31.5701C265.407 30.6248 264.828 30.165 264.066 30.165C263.183 30.165 262.347 30.7815 262.338 30.7882C262.211 30.8845 262.045 30.9146 261.893 30.8696C261.432 30.7344 261.384 30.7201 260.882 24.7029C260.768 23.345 260.636 21.7658 260.525 20.7647C260.518 20.7321 260.513 20.7017 260.514 20.6691C260.469 20.2753 260.427 19.9791 260.392 19.8434C260.36 19.794 260.337 19.7384 260.324 19.6793C260.221 19.2063 259.563 18.482 259.131 18.482C258.849 18.482 258.475 18.9793 258.342 20.3792C258.341 28.9039 258.091 31.7196 258.059 32.0391C258.071 34.7254 257.878 35.446 257.542 35.7804C257.399 35.9222 257.221 35.9969 257.027 35.9969C256.506 35.9969 256.108 35.4772 255.507 34.6906C254.773 33.73 253.769 32.416 252.677 32.416C252.508 32.416 252.335 32.4477 252.164 32.5101C252.144 32.5169 252.125 32.5224 252.104 32.5276C251.724 32.6146 251.607 32.8061 251.546 32.9639C251.027 34.3178 253.191 38.0867 254.677 40.1438C254.687 40.1565 254.695 40.1708 254.704 40.1857C256.392 43.1062 260.589 47.044 260.631 47.083C261.325 47.6708 261.687 48.2783 261.69 48.8722C261.69 48.9162 261.688 48.9582 261.685 48.9992L271.16 49.013L271.633 47.5106C271.642 47.4825 271.653 47.4548 271.667 47.4282C273.968 43.0905 273.224 36.7775 273.216 36.7141Z" fill="#35609D"/>
</svg>
