<svg width="395" height="112" viewBox="0 0 395 112" fill="none" xmlns="http://www.w3.org/2000/svg">
<rect width="395" height="112" rx="56" fill="#FAFAC8"/>
<path opacity="0.8" d="M39.188 71L43.796 47.24C44.708 47.264 45.62 47.288 46.532 47.312C47.444 47.312 48.344 47.312 49.232 47.312C51.032 47.312 52.844 47.276 54.668 47.204C54.716 47.372 54.74 47.528 54.74 47.672C54.764 47.792 54.776 47.924 54.776 48.068C54.776 48.884 54.452 49.472 53.804 49.832C53.156 50.192 52.232 50.372 51.032 50.372C50.432 50.372 49.76 50.324 49.016 50.228C48.272 50.132 47.468 49.988 46.604 49.796L45.236 57.428C45.74 57.452 46.232 57.476 46.712 57.5C47.192 57.524 47.66 57.536 48.116 57.536C48.644 57.536 49.172 57.524 49.7 57.5C50.252 57.476 50.828 57.452 51.428 57.428C51.524 57.596 51.584 57.764 51.608 57.932C51.656 58.1 51.68 58.256 51.68 58.4C51.68 58.952 51.404 59.396 50.852 59.732C50.3 60.044 49.52 60.2 48.512 60.2C48.008 60.2 47.444 60.152 46.82 60.056C46.196 59.96 45.524 59.816 44.804 59.624L43.292 68.048C43.772 68.072 44.252 68.084 44.732 68.084C45.212 68.084 45.68 68.084 46.136 68.084C47.096 68.084 47.984 68.072 48.8 68.048C49.616 68 50.288 67.928 50.816 67.832C51.008 68.336 51.104 68.768 51.104 69.128C51.104 69.704 50.9 70.16 50.492 70.496C50.084 70.832 49.472 71 48.656 71H39.188ZM67.8252 71.72C67.2012 71.72 66.7092 71.528 66.3492 71.144C65.9892 70.784 65.8092 70.16 65.8092 69.272C65.8092 68.744 65.8812 68.06 66.0252 67.22C66.1932 66.356 66.3852 65.444 66.6012 64.484C66.8412 63.5 67.0692 62.54 67.2852 61.604C67.5012 60.644 67.6812 59.792 67.8252 59.048C67.9932 58.28 68.0772 57.704 68.0772 57.32C68.0772 56.432 67.8372 55.772 67.3572 55.34C66.9012 54.908 66.3132 54.692 65.5932 54.692C64.5852 54.692 63.7212 55.028 63.0012 55.7C62.3052 56.348 61.7412 57.176 61.3092 58.184C60.8772 59.192 60.5532 60.2 60.3372 61.208L58.4292 71L55.1172 71.36L58.7532 52.64L61.5612 52.28L61.1652 55.448C61.8132 54.32 62.6652 53.456 63.7212 52.856C64.8012 52.232 65.9052 51.92 67.0332 51.92C68.4732 51.92 69.5532 52.316 70.2732 53.108C71.0172 53.9 71.3892 54.956 71.3892 56.276C71.3892 56.948 71.3052 57.752 71.1372 58.688C70.9932 59.6 70.8012 60.572 70.5612 61.604C70.3452 62.636 70.1172 63.644 69.8772 64.628C69.6612 65.612 69.4692 66.5 69.3012 67.292C69.1572 68.06 69.0852 68.648 69.0852 69.056C69.0852 69.368 69.1332 69.632 69.2292 69.848C69.3492 70.064 69.6132 70.196 70.0212 70.244C69.9012 70.748 69.6372 71.12 69.2292 71.36C68.8212 71.6 68.3532 71.72 67.8252 71.72ZM80.2148 71.72C78.1748 71.72 76.6748 71.132 75.7148 69.956C74.7788 68.78 74.3108 67.028 74.3108 64.7C74.3108 63.188 74.5028 61.688 74.8868 60.2C75.2948 58.688 75.8948 57.308 76.6868 56.06C77.5028 54.812 78.5228 53.816 79.7468 53.072C80.9708 52.304 82.4108 51.92 84.0668 51.92C85.0268 51.92 85.8668 52.064 86.5868 52.352C87.3308 52.64 87.9068 53.06 88.3148 53.612C88.7228 54.164 88.9268 54.848 88.9268 55.664C88.9268 56.696 88.6388 57.464 88.0628 57.968C87.5108 58.448 86.8988 58.688 86.2268 58.688C85.9868 58.688 85.7228 58.652 85.4348 58.58C85.1468 58.508 84.9188 58.364 84.7508 58.148C84.8708 57.812 84.9788 57.44 85.0748 57.032C85.1708 56.624 85.2188 56.264 85.2188 55.952C85.2188 55.328 85.0628 54.86 84.7508 54.548C84.4388 54.212 83.9828 54.044 83.3828 54.044C82.6388 54.044 81.9668 54.284 81.3668 54.764C80.7668 55.244 80.2388 55.88 79.7828 56.672C79.3508 57.464 78.9788 58.328 78.6668 59.264C78.3788 60.2 78.1628 61.136 78.0188 62.072C77.8748 63.008 77.8028 63.848 77.8028 64.592C77.8028 65.816 78.0428 66.872 78.5228 67.76C79.0268 68.648 79.9268 69.092 81.2228 69.092C82.3508 69.092 83.2748 68.756 83.9948 68.084C84.7148 67.388 85.2308 66.524 85.5428 65.492C85.9748 65.588 86.2868 65.804 86.4788 66.14C86.6708 66.452 86.7668 66.824 86.7668 67.256C86.7668 68.024 86.4908 68.756 85.9388 69.452C85.3868 70.124 84.6188 70.664 83.6348 71.072C82.6748 71.504 81.5348 71.72 80.2148 71.72ZM96.4671 71.72C95.1231 71.72 93.9711 71.468 93.0111 70.964C92.0751 70.436 91.3551 69.656 90.8511 68.624C90.3711 67.592 90.1311 66.284 90.1311 64.7C90.1311 63.188 90.3351 61.676 90.7431 60.164C91.1511 58.652 91.7631 57.284 92.5791 56.06C93.3951 54.812 94.4271 53.816 95.6751 53.072C96.9471 52.304 98.4351 51.92 100.139 51.92C101.051 51.92 101.855 52.052 102.551 52.316C103.247 52.58 103.787 53.012 104.171 53.612C104.579 54.188 104.783 54.968 104.783 55.952C104.783 57.392 104.351 58.604 103.487 59.588C102.623 60.572 101.495 61.304 100.103 61.784C98.7351 62.264 97.2711 62.492 95.7111 62.468C95.3991 62.468 95.0511 62.456 94.6671 62.432C94.2831 62.408 93.9831 62.384 93.7671 62.36C93.7431 62.792 93.7191 63.212 93.6951 63.62C93.6711 64.004 93.6591 64.352 93.6591 64.664C93.6591 66.056 93.8991 67.148 94.3791 67.94C94.8591 68.708 95.7591 69.092 97.0791 69.092C98.1591 69.092 99.0831 68.828 99.8511 68.3C100.643 67.772 101.267 67.04 101.723 66.104C102.059 66.152 102.287 66.332 102.407 66.644C102.527 66.932 102.587 67.22 102.587 67.508C102.587 68.132 102.359 68.768 101.903 69.416C101.471 70.064 100.799 70.604 99.8871 71.036C98.9991 71.492 97.8591 71.72 96.4671 71.72ZM94.0191 60.56C94.8351 60.56 95.6631 60.488 96.5031 60.344C97.3431 60.176 98.1231 59.924 98.8431 59.588C99.5631 59.252 100.139 58.796 100.571 58.22C101.027 57.644 101.255 56.948 101.255 56.132C101.255 55.412 101.075 54.884 100.715 54.548C100.379 54.188 99.8991 54.008 99.2751 54.008C98.5311 54.008 97.8471 54.236 97.2231 54.692C96.6231 55.148 96.1071 55.724 95.6751 56.42C95.2431 57.116 94.8831 57.836 94.5951 58.58C94.3311 59.324 94.1391 59.984 94.0191 60.56ZM106.199 71.36L109.763 52.64L112.571 52.28L112.175 55.448C112.607 54.464 113.279 53.636 114.191 52.964C115.103 52.268 116.099 51.92 117.179 51.92C118.307 51.92 119.111 52.268 119.591 52.964C120.071 53.66 120.311 54.464 120.311 55.376C120.311 56.48 120.011 57.452 119.411 58.292C118.835 59.132 118.067 59.552 117.107 59.552C116.867 59.552 116.603 59.504 116.315 59.408C116.051 59.312 115.847 59.144 115.703 58.904C115.967 58.544 116.183 58.112 116.351 57.608C116.543 57.08 116.639 56.6 116.639 56.168C116.639 55.688 116.519 55.328 116.279 55.088C116.063 54.824 115.727 54.692 115.271 54.692C114.623 54.692 114.071 54.932 113.615 55.412C113.159 55.868 112.787 56.444 112.499 57.14C112.211 57.836 111.971 58.556 111.779 59.3C111.611 60.02 111.479 60.632 111.383 61.136L109.619 71L106.199 71.36ZM120.543 71.36L124.107 52.64L126.915 52.28L126.519 55.448C126.951 54.464 127.623 53.636 128.535 52.964C129.447 52.268 130.443 51.92 131.523 51.92C132.651 51.92 133.455 52.268 133.935 52.964C134.415 53.66 134.655 54.464 134.655 55.376C134.655 56.48 134.355 57.452 133.755 58.292C133.179 59.132 132.411 59.552 131.451 59.552C131.211 59.552 130.947 59.504 130.659 59.408C130.395 59.312 130.191 59.144 130.047 58.904C130.311 58.544 130.527 58.112 130.695 57.608C130.887 57.08 130.983 56.6 130.983 56.168C130.983 55.688 130.863 55.328 130.623 55.088C130.407 54.824 130.071 54.692 129.615 54.692C128.967 54.692 128.415 54.932 127.959 55.412C127.503 55.868 127.131 56.444 126.843 57.14C126.555 57.836 126.315 58.556 126.123 59.3C125.955 60.02 125.823 60.632 125.727 61.136L123.963 71L120.543 71.36ZM139.783 71.72C138.607 71.72 137.647 71.432 136.903 70.856C136.183 70.256 135.655 69.452 135.319 68.444C134.983 67.436 134.815 66.284 134.815 64.988C134.815 63.212 135.043 61.544 135.499 59.984C135.979 58.4 136.651 57.008 137.515 55.808C138.379 54.584 139.399 53.636 140.575 52.964C141.751 52.268 143.035 51.92 144.427 51.92C145.579 51.92 146.815 52.172 148.135 52.676L151.267 52.28L148.315 67.652C148.291 67.868 148.255 68.12 148.207 68.408C148.159 68.696 148.135 68.948 148.135 69.164C148.135 69.5 148.207 69.764 148.351 69.956C148.519 70.124 148.759 70.22 149.071 70.244C148.975 70.58 148.819 70.856 148.603 71.072C148.387 71.288 148.135 71.444 147.847 71.54C147.559 71.66 147.235 71.72 146.875 71.72C146.251 71.72 145.735 71.54 145.327 71.18C144.943 70.844 144.739 70.34 144.715 69.668C144.091 70.268 143.359 70.76 142.519 71.144C141.679 71.528 140.767 71.72 139.783 71.72ZM141.223 69.596C142.183 69.596 142.963 69.284 143.563 68.66C144.187 68.012 144.679 67.22 145.039 66.284C145.399 65.324 145.663 64.4 145.831 63.512L147.379 55.304C146.875 54.896 146.335 54.596 145.759 54.404C145.183 54.188 144.655 54.08 144.175 54.08C143.431 54.08 142.747 54.272 142.123 54.656C141.523 55.04 140.983 55.58 140.503 56.276C140.047 56.972 139.651 57.8 139.315 58.76C139.003 59.696 138.763 60.728 138.595 61.856C138.451 62.96 138.379 64.112 138.379 65.312C138.379 66.512 138.571 67.532 138.955 68.372C139.363 69.188 140.119 69.596 141.223 69.596ZM176.099 71.72C175.475 71.72 174.983 71.528 174.623 71.144C174.263 70.784 174.083 70.16 174.083 69.272C174.083 68.744 174.155 68.06 174.299 67.22C174.467 66.356 174.659 65.444 174.875 64.484C175.091 63.5 175.307 62.528 175.523 61.568C175.763 60.608 175.955 59.756 176.099 59.012C176.267 58.244 176.351 57.668 176.351 57.284C176.351 56.42 176.099 55.772 175.595 55.34C175.115 54.908 174.479 54.692 173.687 54.692C172.895 54.692 172.199 54.884 171.599 55.268C171.023 55.652 170.531 56.156 170.123 56.78C169.739 57.404 169.415 58.1 169.151 58.868C168.887 59.636 168.683 60.416 168.539 61.208L166.667 71L163.319 71.36L165.119 62.36C165.191 62 165.275 61.604 165.371 61.172C165.467 60.716 165.551 60.26 165.623 59.804C165.695 59.348 165.755 58.916 165.803 58.508C165.875 58.076 165.911 57.704 165.911 57.392C165.911 56.48 165.683 55.808 165.227 55.376C164.771 54.92 164.135 54.692 163.319 54.692C162.527 54.692 161.855 54.884 161.303 55.268C160.751 55.628 160.283 56.12 159.899 56.744C159.539 57.368 159.239 58.064 158.999 58.832C158.783 59.6 158.591 60.392 158.423 61.208L156.515 71L153.203 71.36L156.839 52.64L159.647 52.28L159.251 55.448C159.875 54.248 160.679 53.36 161.663 52.784C162.647 52.208 163.775 51.92 165.047 51.92C166.343 51.92 167.303 52.208 167.927 52.784C168.551 53.336 168.959 54.176 169.151 55.304C169.799 54.104 170.663 53.24 171.743 52.712C172.823 52.184 173.951 51.92 175.127 51.92C176.663 51.92 177.791 52.316 178.511 53.108C179.255 53.9 179.627 54.956 179.627 56.276C179.627 56.948 179.543 57.752 179.375 58.688C179.231 59.6 179.051 60.572 178.835 61.604C178.619 62.636 178.391 63.644 178.151 64.628C177.935 65.612 177.743 66.5 177.575 67.292C177.431 68.06 177.359 68.648 177.359 69.056C177.359 69.344 177.407 69.608 177.503 69.848C177.623 70.064 177.887 70.196 178.295 70.244C178.175 70.748 177.911 71.12 177.503 71.36C177.095 71.6 176.627 71.72 176.099 71.72ZM188.963 71.72C187.619 71.72 186.467 71.468 185.507 70.964C184.571 70.436 183.851 69.656 183.347 68.624C182.867 67.592 182.627 66.284 182.627 64.7C182.627 63.188 182.831 61.676 183.239 60.164C183.647 58.652 184.259 57.284 185.075 56.06C185.891 54.812 186.923 53.816 188.171 53.072C189.443 52.304 190.931 51.92 192.635 51.92C193.547 51.92 194.351 52.052 195.047 52.316C195.743 52.58 196.283 53.012 196.667 53.612C197.075 54.188 197.279 54.968 197.279 55.952C197.279 57.392 196.847 58.604 195.983 59.588C195.119 60.572 193.991 61.304 192.599 61.784C191.231 62.264 189.767 62.492 188.207 62.468C187.895 62.468 187.547 62.456 187.163 62.432C186.779 62.408 186.479 62.384 186.263 62.36C186.239 62.792 186.215 63.212 186.191 63.62C186.167 64.004 186.155 64.352 186.155 64.664C186.155 66.056 186.395 67.148 186.875 67.94C187.355 68.708 188.255 69.092 189.575 69.092C190.655 69.092 191.579 68.828 192.347 68.3C193.139 67.772 193.763 67.04 194.219 66.104C194.555 66.152 194.783 66.332 194.903 66.644C195.023 66.932 195.083 67.22 195.083 67.508C195.083 68.132 194.855 68.768 194.399 69.416C193.967 70.064 193.295 70.604 192.383 71.036C191.495 71.492 190.355 71.72 188.963 71.72ZM186.515 60.56C187.331 60.56 188.159 60.488 188.999 60.344C189.839 60.176 190.619 59.924 191.339 59.588C192.059 59.252 192.635 58.796 193.067 58.22C193.523 57.644 193.751 56.948 193.751 56.132C193.751 55.412 193.571 54.884 193.211 54.548C192.875 54.188 192.395 54.008 191.771 54.008C191.027 54.008 190.343 54.236 189.719 54.692C189.119 55.148 188.603 55.724 188.171 56.42C187.739 57.116 187.379 57.836 187.091 58.58C186.827 59.324 186.635 59.984 186.515 60.56ZM211.403 71.72C210.779 71.72 210.287 71.528 209.927 71.144C209.567 70.784 209.387 70.16 209.387 69.272C209.387 68.744 209.459 68.06 209.603 67.22C209.771 66.356 209.963 65.444 210.179 64.484C210.419 63.5 210.647 62.54 210.863 61.604C211.079 60.644 211.259 59.792 211.403 59.048C211.571 58.28 211.655 57.704 211.655 57.32C211.655 56.432 211.415 55.772 210.935 55.34C210.479 54.908 209.891 54.692 209.171 54.692C208.163 54.692 207.299 55.028 206.579 55.7C205.883 56.348 205.319 57.176 204.887 58.184C204.455 59.192 204.131 60.2 203.915 61.208L202.007 71L198.695 71.36L202.331 52.64L205.139 52.28L204.743 55.448C205.391 54.32 206.243 53.456 207.299 52.856C208.379 52.232 209.483 51.92 210.611 51.92C212.051 51.92 213.131 52.316 213.851 53.108C214.595 53.9 214.967 54.956 214.967 56.276C214.967 56.948 214.883 57.752 214.715 58.688C214.571 59.6 214.379 60.572 214.139 61.604C213.923 62.636 213.695 63.644 213.455 64.628C213.239 65.612 213.047 66.5 212.879 67.292C212.735 68.06 212.663 68.648 212.663 69.056C212.663 69.368 212.711 69.632 212.807 69.848C212.927 70.064 213.191 70.196 213.599 70.244C213.479 70.748 213.215 71.12 212.807 71.36C212.399 71.6 211.931 71.72 211.403 71.72ZM221.237 71.756C220.709 71.756 220.229 71.564 219.797 71.18C219.389 70.796 219.185 70.244 219.185 69.524C219.185 69.044 219.257 68.36 219.401 67.472C219.569 66.56 219.749 65.588 219.941 64.556C220.157 63.524 220.373 62.54 220.589 61.604C220.805 60.668 220.961 59.924 221.057 59.372L222.065 54.26H219.401L219.545 53.18C220.649 52.748 221.717 52.184 222.749 51.488C223.805 50.768 224.705 49.988 225.449 49.148H226.421L225.737 52.64H228.545L228.221 54.26H225.341L222.785 66.824C222.689 67.208 222.617 67.556 222.569 67.868C222.521 68.156 222.485 68.432 222.461 68.696C222.437 69.296 222.533 69.728 222.749 69.992C222.989 70.232 223.445 70.28 224.117 70.136C223.949 70.496 223.721 70.796 223.433 71.036C223.169 71.276 222.857 71.456 222.497 71.576C222.137 71.696 221.717 71.756 221.237 71.756ZM234.872 71.72C233.624 71.72 232.616 71.516 231.848 71.108C231.08 70.7 230.492 70.184 230.084 69.56C229.7 68.912 229.436 68.24 229.292 67.544C229.172 66.824 229.112 66.176 229.112 65.6C229.112 63.992 229.292 62.384 229.652 60.776C230.036 59.168 230.612 57.692 231.38 56.348C232.172 55.004 233.192 53.936 234.44 53.144C235.712 52.328 237.248 51.92 239.048 51.92C240.32 51.92 241.328 52.124 242.072 52.532C242.84 52.94 243.428 53.468 243.836 54.116C244.244 54.74 244.508 55.412 244.628 56.132C244.772 56.828 244.844 57.464 244.844 58.04C244.844 59.648 244.652 61.268 244.268 62.9C243.908 64.508 243.332 65.984 242.54 67.328C241.748 68.648 240.716 69.716 239.444 70.532C238.196 71.324 236.672 71.72 234.872 71.72ZM235.592 69.56C236.36 69.56 237.044 69.332 237.644 68.876C238.268 68.42 238.808 67.808 239.264 67.04C239.72 66.248 240.092 65.36 240.38 64.376C240.692 63.392 240.92 62.372 241.064 61.316C241.208 60.236 241.28 59.18 241.28 58.148C241.28 56.972 241.064 56 240.632 55.232C240.224 54.464 239.468 54.08 238.364 54.08C237.596 54.08 236.9 54.308 236.276 54.764C235.652 55.22 235.112 55.832 234.656 56.6C234.2 57.368 233.816 58.244 233.504 59.228C233.216 60.212 233 61.244 232.856 62.324C232.712 63.404 232.64 64.46 232.64 65.492C232.64 66.668 232.856 67.64 233.288 68.408C233.72 69.176 234.488 69.56 235.592 69.56Z" fill="#882F87"/>
<circle cx="324" cy="58" r="20" fill="#E5E3F0" stroke="#AB74AE" stroke-width="6"/>
<path d="M299 45.5L323.5 63L361 24" stroke="#882F87" stroke-width="8" stroke-linecap="round"/>
</svg>
