<?xml version="1.0" encoding="utf-8"?>
<!-- Generator: Adobe Illustrator 25.4.1, SVG Export Plug-In . SVG Version: 6.00 Build 0)  -->
<svg version="1.1" id="Camada_1" xmlns="http://www.w3.org/2000/svg" xmlns:xlink="http://www.w3.org/1999/xlink" x="0px" y="0px"
	 viewBox="0 0 512 512" style="enable-background:new 0 0 512 512;" xml:space="preserve">
<style type="text/css">
	.st0{fill:#AA74AD;}
</style>
<g id="Page-1">
	<g id="_x30_25---Equipment">
		<path id="Shape" class="st0" d="M179.2,324.3V384c0,4.7,3.8,8.5,8.5,8.5h42.7v-68.3H179.2z"/>
		<path id="Rectangle-path" class="st0" d="M179.2,290.1h119.5v17.1H179.2V290.1z"/>
		<path id="Shape_00000074408718977566624590000008132784954809957261_" class="st0" d="M290.1,392.5c4.7,0,8.5-3.8,8.5-8.5v-59.7
			h-51.2v68.3H290.1z"/>
		<path id="Shape_00000157302175482004106440000008564283749507385784_" class="st0" d="M238.9,0c-4.7,0-8.5,3.8-8.5,8.5v110.9
			h-10.8c-4.2,0-7.8,3.1-8.4,7.3l-5.1,35.3h65.7l-5.1-35.3c-0.6-4.2-4.2-7.3-8.4-7.3h-10.8V8.5C247.5,3.8,243.6,0,238.9,0z"/>
		<path id="Shape_00000040560558046422137410000010412769764215550392_" class="st0" d="M187.7,179.2c-4.7,0-8.5,3.8-8.5,8.5v85.3
			h119.5v-85.3c0-4.7-3.8-8.5-8.5-8.5H187.7z"/>
		<path id="Shape_00000125576065796529846090000000638523957051995286_" class="st0" d="M42.7,456.5c0,21.2,17.2,38.4,38.4,38.4
			s38.4-17.2,38.4-38.4V247.5H42.7V456.5z M59.7,435.2c0-4.7,3.8-8.5,8.5-8.5s8.5,3.8,8.5,8.5v21.3c0,2.4,1.9,4.3,4.3,4.3
			c4.7,0,8.5,3.8,8.5,8.5c0,4.7-3.8,8.5-8.5,8.5c-11.8,0-21.3-9.6-21.3-21.3V435.2z"/>
		<path id="Shape_00000029754887775367939110000012817040650293364647_" class="st0" d="M128,17.1H34.1c-9.4,0-17.1,7.6-17.1,17.1
			s7.6,17.1,17.1,17.1h17.1c4.7,0,8.5,3.8,8.5,8.5s-3.8,8.5-8.5,8.5h-8.5v162.1h76.8V68.3H85.3c-4.7,0-8.5-3.8-8.5-8.5
			s3.8-8.5,8.5-8.5H128c9.4,0,17.1-7.6,17.1-17.1S137.4,17.1,128,17.1z"/>
		<path id="Shape_00000096053163842578435770000000857995846481041578_" class="st0" d="M477.9,145.1h8.4l0.1-17.1
			c0.7-8.6-5.6-16.2-14.2-17.1h-91c-8.6,0.9-14.9,8.5-14.2,17.1v17.1H384v-8.5c0-4.7,3.8-8.5,8.5-8.5c4.7,0,8.5,3.8,8.5,8.5v8.5
			h17.1v-8.5c0-4.7,3.8-8.5,8.5-8.5c4.7,0,8.5,3.8,8.5,8.5v8.5h17.1v-8.5c0-4.7,3.8-8.5,8.5-8.5c4.7,0,8.5,3.8,8.5,8.5v8.5H477.9z"
			/>
		<path id="Shape_00000176759651242996241600000006636769320752124544_" class="st0" d="M358.4,477.9c0,9.4,7.6,17.1,17.1,17.1
			h102.4c9.4,0,17.1-7.6,17.1-17.1v-34.1H358.4V477.9z"/>
		<path id="Shape_00000034082899262698195600000001824173037960073375_" class="st0" d="M469.5,162.1h-85.6
			c-0.9,14.2-5.9,27.8-14.4,39.3c-7.2,9.6-11.1,21.3-11.1,33.3V256h136.5v-21.3c0-12-3.9-23.7-11.1-33.3
			C475.3,190,470.3,176.3,469.5,162.1z"/>
		<path id="Shape_00000121237216977067958260000015285266142832872582_" class="st0" d="M392.5,349.9c0,4.7-3.8,8.5-8.5,8.5
			s-8.5-3.8-8.5-8.5v-76.8h-17.1v153.6h17.1V384c0-4.7,3.8-8.5,8.5-8.5s8.5,3.8,8.5,8.5v42.7h102.4V273.1H392.5V349.9z"/>
		<path id="Shape_00000013171888337482877740000000703284313562413953_" class="st0" d="M298.7,460.8h-51.2v-68.3h-17.1v68.3h-51.2
			c-9.4,0-17.1,7.6-17.1,17.1v17.1c0,9.4,7.6,17.1,17.1,17.1h119.5c9.4,0,17.1-7.6,17.1-17.1v-17.1
			C315.7,468.4,308.1,460.8,298.7,460.8z M298.7,494.9H179.2v-17.1h119.5V494.9z"/>
	</g>
</g>
</svg>
