<?xml version="1.0" encoding="utf-8"?>
<!-- Generator: Adobe Illustrator 25.4.1, SVG Export Plug-In . SVG Version: 6.00 Build 0)  -->
<svg version="1.1" id="Camada_1" xmlns="http://www.w3.org/2000/svg" xmlns:xlink="http://www.w3.org/1999/xlink" x="0px" y="0px"
	 viewBox="0 0 270 267" style="enable-background:new 0 0 270 267;" xml:space="preserve">
<style type="text/css">
	.st0{fill:#893087;}
</style>
<g>
	<path class="st0" d="M87.2,125.8c0.4,0.8,0.7,1.2,0.9,1.6c4.9,7.7,10.9,14.3,18.5,19.4c1.3,0.9,1.9,1.8,1.6,3.5
		c-0.4,3.5-0.7,6.9-0.8,10.4c-0.1,2.3-0.9,3.5-3.3,4.1c-17.8,5-35.5,10.2-53.3,15.3c-1.5,0.4-2.5,0.8-2.6,2.8
		c-0.2,26.4,0.7,52.9-0.4,79.4c21.3,0,43,0,64.1,0c-0.2-6.7-0.4-13.4-0.5-19.9c0-37.7,0-75.4,0-113c0-1.1,0-2.3,0-3.6
		C103.4,125.8,95.5,125.8,87.2,125.8z M222.5,262.4c-0.2-4.2-0.7-8.4-0.8-12.5c-0.1-22-0.1-44.1,0-66.1c0-2.4-0.8-3.3-2.9-3.9
		c-17.8-5-35.5-10.2-53.3-15.3c-2-0.5-2.7-1.4-2.8-3.4c-0.1-3.6-0.3-7.2-0.9-10.7c-0.2-2,0.4-2.9,2-4c3.1-2.3,6.2-4.6,8.8-7.4
		c3.7-4,7.1-8.5,10.6-12.8c-0.2-0.2-0.4-0.4-0.7-0.5c-7.9,0-15.7,0-23.9,0c0,1.2,0,2.2,0,3.3c0,23,0.1,46,0,69
		c-0.1,21.4,0.7,42.9-0.5,64.4C179.3,262.4,200.9,262.4,222.5,262.4z M121.9,125.8c0,1,0,1.8,0,2.6c0,41.6,0,83.3,0,124.9
		c0,1.4,0.1,2.8,0.4,4.1c1.4,7.2,8.7,11.6,15.8,9.9c6.3-1.6,10-6.7,10-14.2c0-41.6,0-83.1,0-124.7c0-0.9-0.1-1.7-0.1-2.6
		C139.4,125.8,130.9,125.8,121.9,125.8z M11.8,125.8c0,1.2,0,2.1,0,2.9c0,41.4,0,82.7,0,124.1c0,1.3,0.1,2.6,0.3,3.9
		c1.3,8.5,10.5,13.5,18.2,9.8c5.7-2.7,7.7-7.5,7.7-13.5c0-41.5,0-83,0-124.4c0-0.9,0-1.8,0-2.8C29.1,125.8,20.6,125.8,11.8,125.8z
		 M232.2,125.8c0,1-0.1,1.6-0.1,2.4c0,41.8,0,83.6,0,125.4c0,1.4,0.1,2.8,0.4,4.1c1.5,6.9,8.7,11.3,15.7,9.6c6.4-1.6,10-6.7,10-14.4
		c0-41.4,0-82.7,0-124.1c0-1,0-1.8,0-2.9C249.5,125.8,241,125.8,232.2,125.8z M111.3,78.8c0-22.8,0-45.4,0-68.3
		c-13.2,7.4-22,18.2-28.1,31.4c-5.5,11.7-8.2,24-8.2,36.9C87.2,78.8,99.2,78.8,111.3,78.8z M158.8,10.6c0,22.8,0,45.4,0,68.1
		c12.2,0,24.2,0,36.2,0C195.7,54.5,182.9,23,158.8,10.6z"/>
	<path class="st0" d="M270,105.1c-0.4,1-0.8,1.8-1.3,2.8c-2.2,4.1-5.5,6.7-10.2,7.3c-1.3,0.1-2.6,0.2-3.9,0.2c-79.7,0-159.3,0-239,0
		c-4.5,0-8.6-0.7-11.8-4.1c-3.6-3.9-4.7-8.4-2.8-13.4c1.9-5.1,5.7-7.8,11-8.5c1.2-0.1,2.5-0.1,3.7-0.1c79.3,0,158.4,0,237.7-0.1
		c8.2,0,14,2.6,16.6,10.5C270,101.5,270,103.2,270,105.1z"/>
	<path class="st0" d="M137.7-1c0.3,0.2,0.5,0.4,0.9,0.5c6.2,2.2,9.6,6.5,9.6,12.9c0.1,21.7,0,43.3,0,65c0,0.3-0.1,0.7-0.1,1.2
		c-8.6,0-17.1,0-26.1,0c0-1,0-2.1,0-3c0-19.9,0.2-39.9-0.1-59.7c-0.1-8.1,2.4-14.1,10.6-16.8C134.1-1,136-1,137.7-1z"/>
	<path class="st0" d="M27.5-1c0.3,0.2,0.8,0.4,1.1,0.5c5.8,2.1,9.3,6.3,9.3,12.4c0.1,22,0,44.1,0,66c0,0.1-0.1,0.3-0.2,0.8
		c-8.5,0-17,0-26,0c0-1,0-2,0-3c0-20,0.2-39.9-0.1-59.8C11.5,7.7,14,1.7,22.2-1.1C24-1,25.8-1,27.5-1z"/>
	<path class="st0" d="M247.9-1c0.3,0.2,0.5,0.4,0.9,0.5c6.2,2.2,9.5,6.4,9.6,12.9c0.1,21.7,0,43.5,0,65.3c0,0.2-0.1,0.5-0.2,1
		c-8.5,0-17.1,0-26,0c0-1.1,0-2.1,0-3c0-20,0.2-39.9-0.1-59.8c-0.1-8.1,2.4-14.1,10.6-16.8C244.4-1,246.1-1,247.9-1z"/>
	<path class="st0" d="M87.2,125.8c8.3,0,16.1,0,24.3,0c0,1.3,0,2.4,0,3.6c0,37.7,0,75.4,0,113c0,6.6,0.3,13.2,0.5,19.9
		c-21.2,0-42.7,0-64.1,0c1.1-26.5,0.2-52.9,0.4-79.4c0-2.1,1.1-2.4,2.6-2.8c17.8-5.1,35.5-10.3,53.3-15.3c2.4-0.7,3.2-1.8,3.3-4.1
		c0.1-3.5,0.3-6.9,0.8-10.4c0.2-1.6-0.3-2.6-1.6-3.5c-7.6-5.1-13.7-11.7-18.5-19.4C87.9,127,87.7,126.6,87.2,125.8z"/>
	<path class="st0" d="M222.5,262.4c-21.5,0-43.1,0-64.3,0c1.1-21.5,0.4-42.9,0.5-64.4c0.1-23,0-46,0-69c0-1,0-2.1,0-3.3
		c8.2,0,16,0,23.9,0c0.2,0.2,0.4,0.4,0.7,0.5c-3.5,4.2-6.8,8.8-10.6,12.8c-2.6,2.8-5.8,5.1-8.8,7.4c-1.5,1.1-2.2,2.1-2,4
		c0.4,3.6,0.7,7.2,0.9,10.7c0.1,2,0.9,2.8,2.8,3.4c17.8,5,35.5,10.2,53.3,15.3c2.3,0.7,3.1,1.5,2.9,3.9c-0.1,22-0.1,44.1,0,66.1
		C221.7,254,222.1,258.2,222.5,262.4z"/>
	<path class="st0" d="M121.9,125.8c8.9,0,17.3,0,26.1,0c0.1,1,0.1,1.8,0.1,2.6c0,41.6,0,83.1,0,124.7c0,7.5-3.6,12.6-10,14.2
		c-7.1,1.7-14.3-2.7-15.8-9.9c-0.3-1.4-0.4-2.8-0.4-4.1c0-41.6,0-83.3,0-124.9C121.9,127.6,121.9,126.9,121.9,125.8z"/>
	<path class="st0" d="M11.8,125.8c8.8,0,17.3,0,26.2,0c0,1,0,2,0,2.8c0,41.5,0,83,0,124.4c0,6.1-2.1,10.9-7.7,13.5
		c-7.7,3.7-16.9-1.3-18.2-9.8c-0.2-1.3-0.3-2.6-0.3-3.9c0-41.4,0-82.7,0-124.1C11.8,127.9,11.8,127,11.8,125.8z"/>
	<path class="st0" d="M232.2,125.8c8.8,0,17.2,0,26.1,0c0,1.1,0,2,0,2.9c0,41.4,0,82.7,0,124.1c0,7.7-3.6,12.8-10,14.4
		c-7,1.7-14.2-2.6-15.7-9.6c-0.3-1.3-0.4-2.8-0.4-4.1c0-41.8,0-83.6,0-125.4C232.1,127.4,232.2,126.8,232.2,125.8z"/>
	<path class="st0" d="M111.3,78.8c-12.1,0-24,0-36.3,0c0-12.9,2.7-25.3,8.2-36.9c6.1-13.1,14.9-24,28.1-31.4
		C111.3,33.3,111.3,55.9,111.3,78.8z"/>
	<path class="st0" d="M158.8,10.6c24.1,12.4,37,43.9,36.2,68.1c-12,0-24,0-36.2,0C158.8,56,158.8,33.4,158.8,10.6z"/>
</g>
</svg>
