<svg width="299" height="60" viewBox="0 0 299 60" fill="none" xmlns="http://www.w3.org/2000/svg">
<rect opacity="0.5" width="299" height="60" rx="30" fill="#DDBDDF"/>
<path d="M26.398 35.36C26.026 35.36 25.756 35.216 25.588 34.928C25.432 34.628 25.336 34.22 25.3 33.704C25.264 33.188 25.246 32.6 25.246 31.94H21.826L20.404 35H18.406L24.328 23.12H26.632C26.728 25.556 26.8 27.596 26.848 29.24C26.896 30.872 26.962 32.132 27.046 33.02C27.142 33.896 27.298 34.424 27.514 34.604C27.454 34.82 27.316 35 27.1 35.144C26.884 35.288 26.65 35.36 26.398 35.36ZM22.42 30.698H25.246L25.102 24.362L22.42 30.698ZM31.9239 35.36C31.3239 35.36 30.8499 35.24 30.5019 35C30.1659 34.76 29.9259 34.442 29.7819 34.046C29.6499 33.638 29.5839 33.2 29.5839 32.732C29.5839 32.36 29.6319 31.892 29.7279 31.328C29.8239 30.764 29.9679 30.038 30.1599 29.15C30.3519 28.262 30.5979 27.152 30.8979 25.82L32.4639 25.64C32.1999 26.84 31.9839 27.83 31.8159 28.61C31.6599 29.378 31.5339 30.008 31.4379 30.5C31.3539 30.98 31.2939 31.376 31.2579 31.688C31.2339 31.988 31.2219 32.27 31.2219 32.534C31.2219 32.822 31.2579 33.104 31.3299 33.38C31.4139 33.644 31.5519 33.866 31.7439 34.046C31.9479 34.214 32.2179 34.298 32.5539 34.298C33.0099 34.298 33.3879 34.148 33.6879 33.848C33.9999 33.536 34.2459 33.146 34.4259 32.678C34.6179 32.21 34.7559 31.736 34.8399 31.256L35.9199 25.82L37.5579 25.64L36.0639 33.326C36.0519 33.434 36.0339 33.56 36.0099 33.704C35.9859 33.848 35.9739 33.974 35.9739 34.082C35.9739 34.25 36.0099 34.382 36.0819 34.478C36.1659 34.562 36.2859 34.61 36.4419 34.622C36.4059 34.79 36.3339 34.928 36.2259 35.036C36.1179 35.144 35.9919 35.222 35.8479 35.27C35.7039 35.33 35.5419 35.36 35.3619 35.36C35.0379 35.36 34.7799 35.27 34.5879 35.09C34.4079 34.922 34.2999 34.67 34.2639 34.334C34.0359 34.706 33.6939 34.97 33.2379 35.126C32.7939 35.282 32.3559 35.36 31.9239 35.36ZM39.6918 35.36C39.3558 35.36 39.0978 35.264 38.9178 35.072C38.7378 34.88 38.6478 34.622 38.6478 34.298C38.6478 34.202 38.6538 34.1 38.6658 33.992C38.6778 33.872 38.6958 33.71 38.7198 33.506C38.7558 33.302 38.8098 33.02 38.8818 32.66C38.9538 32.3 39.0438 31.838 39.1518 31.274C39.2718 30.698 39.4158 29.99 39.5838 29.15C39.7638 28.298 39.9738 27.284 40.2138 26.108C40.3338 25.436 40.4358 24.746 40.5198 24.038C40.6158 23.33 40.6638 22.736 40.6638 22.256C40.6638 22.124 40.6578 22.01 40.6458 21.914C40.6458 21.806 40.6338 21.71 40.6098 21.626C40.6818 21.566 40.7778 21.518 40.8978 21.482C41.0298 21.446 41.1678 21.428 41.3118 21.428C41.5878 21.428 41.8518 21.518 42.1038 21.698C42.3558 21.866 42.4818 22.178 42.4818 22.634C42.4818 22.718 42.4518 22.91 42.3918 23.21C42.3438 23.498 42.2778 23.84 42.1938 24.236C42.1218 24.632 42.0438 25.034 41.9598 25.442C41.8878 25.838 41.8218 26.186 41.7618 26.486C41.4618 27.938 41.2158 29.12 41.0238 30.032C40.8438 30.944 40.6998 31.664 40.5918 32.192C40.4958 32.708 40.4238 33.092 40.3758 33.344C40.3398 33.584 40.3158 33.752 40.3038 33.848C40.2918 33.932 40.2858 34.01 40.2858 34.082C40.2858 34.25 40.3218 34.382 40.3938 34.478C40.4778 34.562 40.5978 34.61 40.7538 34.622C40.7178 34.79 40.6458 34.928 40.5378 35.036C40.4298 35.144 40.3038 35.222 40.1598 35.27C40.0158 35.33 39.8598 35.36 39.6918 35.36ZM45.3171 35.36C44.7291 35.36 44.2491 35.216 43.8771 34.928C43.5171 34.628 43.2531 34.226 43.0851 33.722C42.9171 33.218 42.8331 32.642 42.8331 31.994C42.8331 31.106 42.9471 30.272 43.1751 29.492C43.4151 28.7 43.7511 28.004 44.1831 27.404C44.6151 26.792 45.1251 26.318 45.7131 25.982C46.3011 25.634 46.9431 25.46 47.6391 25.46C48.2151 25.46 48.8331 25.586 49.4931 25.838L51.0591 25.64L49.5831 33.326C49.5711 33.434 49.5531 33.56 49.5291 33.704C49.5051 33.848 49.4931 33.974 49.4931 34.082C49.4931 34.25 49.5291 34.382 49.6011 34.478C49.6851 34.562 49.8051 34.61 49.9611 34.622C49.9131 34.79 49.8351 34.928 49.7271 35.036C49.6191 35.144 49.4931 35.222 49.3491 35.27C49.2051 35.33 49.0431 35.36 48.8631 35.36C48.5511 35.36 48.2931 35.27 48.0891 35.09C47.8971 34.922 47.7951 34.67 47.7831 34.334C47.4711 34.634 47.1051 34.88 46.6851 35.072C46.2651 35.264 45.8091 35.36 45.3171 35.36ZM46.0371 34.298C46.5171 34.298 46.9071 34.142 47.2071 33.83C47.5191 33.506 47.7651 33.11 47.9451 32.642C48.1251 32.162 48.2571 31.7 48.3411 31.256L49.1151 27.152C48.8631 26.948 48.5931 26.798 48.3051 26.702C48.0171 26.594 47.7531 26.54 47.5131 26.54C47.1411 26.54 46.7991 26.636 46.4871 26.828C46.1871 27.02 45.9171 27.29 45.6771 27.638C45.4491 27.986 45.2511 28.4 45.0831 28.88C44.9271 29.348 44.8071 29.864 44.7231 30.428C44.6511 30.98 44.6151 31.556 44.6151 32.156C44.6151 32.756 44.7111 33.266 44.9031 33.686C45.1071 34.094 45.4851 34.298 46.0371 34.298ZM58.1874 35.36C57.4674 35.36 56.8674 35.21 56.3874 34.91C55.9074 34.61 55.5474 34.154 55.3074 33.542C55.0794 32.93 54.9654 32.162 54.9654 31.238C54.9654 30.482 55.0434 29.708 55.1994 28.916C55.3554 28.112 55.5894 27.344 55.9014 26.612C56.2134 25.88 56.5974 25.226 57.0534 24.65C57.5094 24.062 58.0374 23.6 58.6374 23.264C59.2494 22.916 59.9214 22.742 60.6534 22.742C60.9774 22.742 61.3014 22.784 61.6254 22.868C61.9614 22.952 62.2434 23.102 62.4714 23.318C62.6994 23.522 62.8134 23.822 62.8134 24.218C62.8134 24.374 62.7894 24.518 62.7414 24.65C62.6934 24.782 62.6274 24.884 62.5434 24.956C62.2794 24.716 61.9854 24.536 61.6614 24.416C61.3374 24.296 60.9894 24.236 60.6174 24.236C59.8974 24.236 59.2914 24.44 58.7994 24.848C58.3194 25.244 57.9294 25.754 57.6294 26.378C57.3414 26.99 57.1254 27.632 56.9814 28.304L57.0534 28.322C57.3414 27.866 57.7194 27.518 58.1874 27.278C58.6554 27.038 59.1594 26.918 59.6994 26.918C60.3114 26.918 60.8334 27.05 61.2654 27.314C61.6974 27.566 62.0274 27.938 62.2554 28.43C62.4834 28.922 62.5974 29.534 62.5974 30.266C62.5974 31.19 62.4294 32.042 62.0934 32.822C61.7574 33.59 61.2594 34.208 60.5994 34.676C59.9514 35.132 59.1474 35.36 58.1874 35.36ZM58.3134 34.136C58.7934 34.136 59.1954 34.016 59.5194 33.776C59.8434 33.524 60.1014 33.2 60.2934 32.804C60.4974 32.396 60.6414 31.964 60.7254 31.508C60.8214 31.04 60.8694 30.596 60.8694 30.176C60.8694 29.864 60.8274 29.558 60.7434 29.258C60.6714 28.946 60.5214 28.688 60.2934 28.484C60.0774 28.28 59.7414 28.178 59.2854 28.178C58.8174 28.178 58.4154 28.292 58.0794 28.52C57.7554 28.748 57.4914 29.054 57.2874 29.438C57.0834 29.81 56.9334 30.224 56.8374 30.68C56.7534 31.124 56.7114 31.568 56.7114 32.012C56.7114 32.36 56.7474 32.702 56.8194 33.038C56.9034 33.362 57.0594 33.626 57.2874 33.83C57.5154 34.034 57.8574 34.136 58.3134 34.136Z" fill="#882F87"/>
<path d="M275.415 12.5955C275.415 12.2856 275.164 12.0344 274.854 12.0344H269.018V15.5762H254.982V12.0345H249.146C248.837 12.0345 248.585 12.2857 248.585 12.5956V47.8088C248.585 48.1187 248.837 48.3699 249.146 48.3699H274.854C275.164 48.3699 275.415 48.1187 275.415 47.8088V12.5955Z" fill="#AB74AE"/>
<path d="M265.452 46.419C267.285 46.419 268.771 44.9332 268.771 43.1004V42.3532C268.771 42.0067 269.052 41.7258 269.398 41.7258H270.145C271.978 41.7258 273.464 40.24 273.464 38.4073V14.6125C273.464 14.2661 273.183 13.9854 272.837 13.9854H269.018V15.5761H254.982V13.9854H251.163C250.817 13.9854 250.536 14.2662 250.536 14.6125V45.7919C250.536 46.1383 250.817 46.419 251.163 46.419L265.452 46.419Z" fill="#E5E3F0"/>
<path d="M269.018 15.5761H254.982V16.7286C254.982 17.2288 255.387 17.6342 255.887 17.6342H268.113C268.613 17.6342 269.018 17.2288 269.018 16.7286V15.5761Z" fill="#CDACCE"/>
<path d="M268.565 11.5816H264.358C264.167 11.5816 264.001 11.4448 263.97 11.256C263.815 10.3084 262.992 9.58527 262 9.58527C261.008 9.58527 260.186 10.3084 260.03 11.256C259.999 11.4448 259.833 11.5816 259.642 11.5816H255.435C255.185 11.5816 254.982 11.7844 254.982 12.0344V15.5761H269.018V12.0345C269.018 11.7844 268.816 11.5816 268.565 11.5816Z" fill="#CDACCE"/>
<path d="M263.876 15.5761C263.309 15.8929 262.655 16.0735 261.96 16.0735H254.982V16.7287C254.982 17.2289 255.387 17.6343 255.887 17.6343H268.113C268.613 17.6343 269.018 17.2289 269.018 16.7287V15.5761H263.876Z" fill="#CDACCE"/>
<path d="M268.565 11.5817H265.897V12.1363C265.897 13.6149 265.082 14.903 263.876 15.5762H269.018V12.0345C269.018 11.7844 268.816 11.5817 268.565 11.5817Z" fill="#CDACCE"/>
<path d="M273.464 38.4072C273.464 40.532 272.62 42.5698 271.117 44.0724C269.615 45.5748 267.577 46.4189 265.452 46.4189C267.285 46.4189 268.771 44.9332 268.771 43.1004V42.4789C268.771 42.063 269.108 41.7258 269.524 41.7258H270.145C271.978 41.7258 273.464 40.24 273.464 38.4072Z" fill="#E5E3F0"/>
<path d="M272.837 13.9854H270.342V36.8465C270.342 38.6793 268.857 40.165 267.024 40.165C266.265 40.165 265.649 40.7804 265.649 41.5397C265.649 43.3724 264.163 44.8582 262.331 44.8582H250.536V45.7918C250.536 46.1382 250.817 46.4189 251.163 46.4189H265.452C267.285 46.4189 268.771 44.9332 268.771 43.1004V42.3532C268.771 42.0067 269.052 41.7258 269.398 41.7258H270.145C271.978 41.7258 273.464 40.24 273.464 38.4072V14.6124C273.464 14.2661 273.183 13.9854 272.837 13.9854Z" fill="#E5E3F0"/>
<path d="M265.618 22.0859H263.538C263.422 22.0859 263.327 21.9918 263.327 21.8756V19.7955C263.327 19.6793 263.233 19.5851 263.117 19.5851H260.883C260.767 19.5851 260.672 19.6793 260.672 19.7955V21.8756C260.672 21.9917 260.578 22.0859 260.462 22.0859H258.382C258.266 22.0859 258.172 22.18 258.172 22.2962V24.5305C258.172 24.6467 258.266 24.7408 258.382 24.7408H260.462C260.578 24.7408 260.673 24.835 260.673 24.9512V27.0313C260.673 27.1474 260.767 27.2416 260.883 27.2416H263.117C263.233 27.2416 263.328 27.1475 263.328 27.0313V24.9512C263.328 24.835 263.422 24.7408 263.538 24.7408H265.618C265.734 24.7408 265.828 24.6467 265.828 24.5305V22.2962C265.828 22.18 265.734 22.0859 265.618 22.0859Z" fill="#AB74AE"/>
<path d="M256.187 32.2852H254.204C254.07 32.2852 253.961 32.1761 253.961 32.0416V30.059C253.961 29.9244 254.07 29.8154 254.204 29.8154H256.187C256.321 29.8154 256.43 29.9244 256.43 30.059V32.0416C256.43 32.1761 256.321 32.2852 256.187 32.2852Z" fill="#AB74AE"/>
<path d="M256.187 37.5952H254.204C254.07 37.5952 253.961 37.4861 253.961 37.3516V35.369C253.961 35.2344 254.07 35.1254 254.204 35.1254H256.187C256.321 35.1254 256.43 35.2344 256.43 35.369V37.3516C256.43 37.4861 256.321 37.5952 256.187 37.5952Z" fill="#AB74AE"/>
<path d="M256.187 42.9052H254.204C254.07 42.9052 253.961 42.7962 253.961 42.6617V40.679C253.961 40.5445 254.07 40.4355 254.204 40.4355H256.187C256.321 40.4355 256.43 40.5445 256.43 40.679V42.6617C256.43 42.7961 256.321 42.9052 256.187 42.9052Z" fill="#AB74AE"/>
<path d="M262 12.1669C262.323 12.1669 262.585 11.9049 262.585 11.5816C262.585 11.2584 262.323 10.9963 262 10.9963C261.677 10.9963 261.415 11.2584 261.415 11.5816C261.415 11.9049 261.677 12.1669 262 12.1669Z" fill="#882F87"/>
<path d="M276 47.8089V12.5955C276 11.9634 275.486 11.4492 274.854 11.4492H269.422C269.235 11.176 268.921 10.9964 268.565 10.9964H264.515C264.246 9.83001 263.214 9 262 9C260.786 9 259.754 9.82993 259.485 10.9964H255.435C255.079 10.9964 254.765 11.176 254.578 11.4492H249.146C248.514 11.4492 248 11.9635 248 12.5955V36.3221C248 36.6454 248.262 36.9074 248.585 36.9074C248.909 36.9074 249.171 36.6454 249.171 36.3221V12.6198H254.396V13.4001H251.163C250.495 13.4001 249.951 13.944 249.951 14.6125V45.7919C249.951 46.4604 250.495 47.0042 251.163 47.0042H265.452C267.749 47.0042 269.907 46.11 271.531 44.4862C273.155 42.8625 274.049 40.7037 274.049 38.4072V22.035C274.049 21.7116 273.787 21.4497 273.464 21.4497C273.14 21.4497 272.879 21.7116 272.879 22.035V38.4072C272.879 39.9144 271.652 41.1405 270.145 41.1405H269.398C269.231 41.1405 269.072 41.1745 268.927 41.2358H258.56C258.237 41.2358 257.975 41.4978 257.975 41.8211C257.975 42.1444 258.237 42.4064 258.56 42.4064H268.185V43.1004C268.185 44.6076 266.959 45.8337 265.452 45.8337H251.163C251.14 45.8337 251.122 45.8149 251.122 45.7919V14.6125C251.122 14.5894 251.14 14.5707 251.163 14.5707H254.396V16.7287C254.396 17.5507 255.065 18.2195 255.887 18.2195H268.113C268.935 18.2195 269.604 17.5507 269.604 16.7287V14.5707H272.837C272.86 14.5707 272.879 14.5894 272.879 14.6125V21.9939C272.879 22.3172 273.14 22.5791 273.464 22.5791C273.787 22.5791 274.049 22.3172 274.049 21.9939V14.6125C274.049 13.944 273.505 13.4001 272.837 13.4001H269.604V12.6198H274.83V47.7846H249.171L249.171 35.7816C249.171 35.4583 248.909 35.1963 248.585 35.1963C248.262 35.1963 248 35.4583 248 35.7816L248 47.8088C248 48.4409 248.514 48.9551 249.146 48.9551H274.854C275.486 48.9552 276 48.4409 276 47.8089ZM269.356 43.1004V42.3532C269.356 42.33 269.375 42.3111 269.398 42.3111H270.145C270.839 42.3111 271.492 42.1289 272.057 41.8099C271.352 43.1743 270.22 44.3068 268.855 45.0123C269.174 44.447 269.356 43.7946 269.356 43.1004ZM268.433 14.9909H259.453C259.13 14.9909 258.868 15.2529 258.868 15.5762C258.868 15.8995 259.13 16.1615 259.453 16.1615H268.433V16.7288C268.433 16.9054 268.289 17.049 268.113 17.049H255.887C255.711 17.049 255.567 16.9053 255.567 16.7288V16.1615H260.022C260.346 16.1615 260.608 15.8995 260.608 15.5762C260.608 15.2529 260.346 14.9909 260.022 14.9909H255.567C255.567 11.1242 255.567 14.4941 255.567 12.1669H259.642C260.124 12.1669 260.53 11.8237 260.608 11.3508C260.72 10.6669 261.305 10.1706 262 10.1706C262.695 10.1706 263.28 10.6669 263.392 11.3507C263.47 11.8237 263.876 12.1669 264.358 12.1669H268.433V14.9909Z" fill="#882F87"/>
<path d="M263.117 18.9999H260.883C260.444 18.9999 260.087 19.3567 260.087 19.7955V21.5006H258.382C257.943 21.5006 257.587 21.8575 257.587 22.2962V24.5305C257.587 24.9691 257.943 25.326 258.382 25.326H260.087V27.0311C260.087 27.4698 260.444 27.8267 260.883 27.8267H263.117C263.556 27.8267 263.913 27.4698 263.913 27.0311V25.326H265.618C266.056 25.326 266.413 24.9691 266.413 24.5305V22.2962C266.413 21.8575 266.056 21.5006 265.618 21.5006H263.913V19.7955C263.913 19.3567 263.556 18.9999 263.117 18.9999ZM265.243 22.6711V24.1555H263.538C263.099 24.1555 262.742 24.5124 262.742 24.951V26.6562H261.258V24.951C261.258 24.5124 260.901 24.1555 260.462 24.1555H258.757V22.6711H260.462C260.901 22.6711 261.258 22.3143 261.258 21.8756V20.1704H262.742V21.8756C262.742 22.3143 263.099 22.6711 263.538 22.6711H265.243Z" fill="#882F87"/>
<path d="M257.016 30.0589C257.016 29.602 256.644 29.2301 256.187 29.2301H254.204C253.747 29.2301 253.375 29.602 253.375 30.0589V32.0416C253.375 32.4985 253.747 32.8704 254.204 32.8704H256.187C256.644 32.8704 257.016 32.4985 257.016 32.0416V30.0589ZM255.845 31.6999H254.546V30.4007H255.845V31.6999Z" fill="#882F87"/>
<path d="M257.016 35.369C257.016 34.912 256.644 34.5402 256.187 34.5402H254.204C253.747 34.5402 253.375 34.912 253.375 35.369V37.3516C253.375 37.8086 253.747 38.1805 254.204 38.1805H256.187C256.644 38.1805 257.016 37.8086 257.016 37.3516V35.369ZM255.845 37.01H254.546V35.7107H255.845V37.01Z" fill="#882F87"/>
<path d="M256.187 39.85H254.204C253.747 39.85 253.375 40.2219 253.375 40.6789V42.6615C253.375 43.1185 253.747 43.4903 254.204 43.4903H256.187C256.644 43.4903 257.016 43.1185 257.016 42.6615V40.6789C257.016 40.2219 256.644 39.85 256.187 39.85ZM255.845 42.3198H254.546V41.0207H255.845V42.3198Z" fill="#882F87"/>
<path d="M270.039 30.3927H258.56C258.237 30.3927 257.975 30.6547 257.975 30.978C257.975 31.3013 258.237 31.5633 258.56 31.5633H270.039C270.363 31.5633 270.625 31.3013 270.625 30.978C270.625 30.6547 270.363 30.3927 270.039 30.3927Z" fill="#882F87"/>
<path d="M270.039 35.8143H258.56C258.237 35.8143 257.975 36.0762 257.975 36.3996C257.975 36.7229 258.237 36.9848 258.56 36.9848H270.039C270.363 36.9848 270.625 36.7229 270.625 36.3996C270.625 36.0762 270.363 35.8143 270.039 35.8143Z" fill="#882F87"/>
</svg>
