<svg width="299" height="60" viewBox="0 0 299 60" fill="none" xmlns="http://www.w3.org/2000/svg">
<rect opacity="0.5" width="299" height="60" rx="30" fill="#BDCFE8"/>
<path d="M22.398 35.36C22.026 35.36 21.756 35.216 21.588 34.928C21.432 34.628 21.336 34.22 21.3 33.704C21.264 33.188 21.246 32.6 21.246 31.94H17.826L16.404 35H14.406L20.328 23.12H22.632C22.728 25.556 22.8 27.596 22.848 29.24C22.896 30.872 22.962 32.132 23.046 33.02C23.142 33.896 23.298 34.424 23.514 34.604C23.454 34.82 23.316 35 23.1 35.144C22.884 35.288 22.65 35.36 22.398 35.36ZM18.42 30.698H21.246L21.102 24.362L18.42 30.698ZM27.9239 35.36C27.3239 35.36 26.8499 35.24 26.5019 35C26.1659 34.76 25.9259 34.442 25.7819 34.046C25.6499 33.638 25.5839 33.2 25.5839 32.732C25.5839 32.36 25.6319 31.892 25.7279 31.328C25.8239 30.764 25.9679 30.038 26.1599 29.15C26.3519 28.262 26.5979 27.152 26.8979 25.82L28.4639 25.64C28.1999 26.84 27.9839 27.83 27.8159 28.61C27.6599 29.378 27.5339 30.008 27.4379 30.5C27.3539 30.98 27.2939 31.376 27.2579 31.688C27.2339 31.988 27.2219 32.27 27.2219 32.534C27.2219 32.822 27.2579 33.104 27.3299 33.38C27.4139 33.644 27.5519 33.866 27.7439 34.046C27.9479 34.214 28.2179 34.298 28.5539 34.298C29.0099 34.298 29.3879 34.148 29.6879 33.848C29.9999 33.536 30.2459 33.146 30.4259 32.678C30.6179 32.21 30.7559 31.736 30.8399 31.256L31.9199 25.82L33.5579 25.64L32.0639 33.326C32.0519 33.434 32.0339 33.56 32.0099 33.704C31.9859 33.848 31.9739 33.974 31.9739 34.082C31.9739 34.25 32.0099 34.382 32.0819 34.478C32.1659 34.562 32.2859 34.61 32.4419 34.622C32.4059 34.79 32.3339 34.928 32.2259 35.036C32.1179 35.144 31.9919 35.222 31.8479 35.27C31.7039 35.33 31.5419 35.36 31.3619 35.36C31.0379 35.36 30.7799 35.27 30.5879 35.09C30.4079 34.922 30.2999 34.67 30.2639 34.334C30.0359 34.706 29.6939 34.97 29.2379 35.126C28.7939 35.282 28.3559 35.36 27.9239 35.36ZM35.6918 35.36C35.3558 35.36 35.0978 35.264 34.9178 35.072C34.7378 34.88 34.6478 34.622 34.6478 34.298C34.6478 34.202 34.6538 34.1 34.6658 33.992C34.6778 33.872 34.6958 33.71 34.7198 33.506C34.7558 33.302 34.8098 33.02 34.8818 32.66C34.9538 32.3 35.0438 31.838 35.1518 31.274C35.2718 30.698 35.4158 29.99 35.5838 29.15C35.7638 28.298 35.9738 27.284 36.2138 26.108C36.3338 25.436 36.4358 24.746 36.5198 24.038C36.6158 23.33 36.6638 22.736 36.6638 22.256C36.6638 22.124 36.6578 22.01 36.6458 21.914C36.6458 21.806 36.6338 21.71 36.6098 21.626C36.6818 21.566 36.7778 21.518 36.8978 21.482C37.0298 21.446 37.1678 21.428 37.3118 21.428C37.5878 21.428 37.8518 21.518 38.1038 21.698C38.3558 21.866 38.4818 22.178 38.4818 22.634C38.4818 22.718 38.4518 22.91 38.3918 23.21C38.3438 23.498 38.2778 23.84 38.1938 24.236C38.1218 24.632 38.0438 25.034 37.9598 25.442C37.8878 25.838 37.8218 26.186 37.7618 26.486C37.4618 27.938 37.2158 29.12 37.0238 30.032C36.8438 30.944 36.6998 31.664 36.5918 32.192C36.4958 32.708 36.4238 33.092 36.3758 33.344C36.3398 33.584 36.3158 33.752 36.3038 33.848C36.2918 33.932 36.2858 34.01 36.2858 34.082C36.2858 34.25 36.3218 34.382 36.3938 34.478C36.4778 34.562 36.5978 34.61 36.7538 34.622C36.7178 34.79 36.6458 34.928 36.5378 35.036C36.4298 35.144 36.3038 35.222 36.1598 35.27C36.0158 35.33 35.8598 35.36 35.6918 35.36ZM41.3171 35.36C40.7291 35.36 40.2491 35.216 39.8771 34.928C39.5171 34.628 39.2531 34.226 39.0851 33.722C38.9171 33.218 38.8331 32.642 38.8331 31.994C38.8331 31.106 38.9471 30.272 39.1751 29.492C39.4151 28.7 39.7511 28.004 40.1831 27.404C40.6151 26.792 41.1251 26.318 41.7131 25.982C42.3011 25.634 42.9431 25.46 43.6391 25.46C44.2151 25.46 44.8331 25.586 45.4931 25.838L47.0591 25.64L45.5831 33.326C45.5711 33.434 45.5531 33.56 45.5291 33.704C45.5051 33.848 45.4931 33.974 45.4931 34.082C45.4931 34.25 45.5291 34.382 45.6011 34.478C45.6851 34.562 45.8051 34.61 45.9611 34.622C45.9131 34.79 45.8351 34.928 45.7271 35.036C45.6191 35.144 45.4931 35.222 45.3491 35.27C45.2051 35.33 45.0431 35.36 44.8631 35.36C44.5511 35.36 44.2931 35.27 44.0891 35.09C43.8971 34.922 43.7951 34.67 43.7831 34.334C43.4711 34.634 43.1051 34.88 42.6851 35.072C42.2651 35.264 41.8091 35.36 41.3171 35.36ZM42.0371 34.298C42.5171 34.298 42.9071 34.142 43.2071 33.83C43.5191 33.506 43.7651 33.11 43.9451 32.642C44.1251 32.162 44.2571 31.7 44.3411 31.256L45.1151 27.152C44.8631 26.948 44.5931 26.798 44.3051 26.702C44.0171 26.594 43.7531 26.54 43.5131 26.54C43.1411 26.54 42.7991 26.636 42.4871 26.828C42.1871 27.02 41.9171 27.29 41.6771 27.638C41.4491 27.986 41.2511 28.4 41.0831 28.88C40.9271 29.348 40.8071 29.864 40.7231 30.428C40.6511 30.98 40.6151 31.556 40.6151 32.156C40.6151 32.756 40.7111 33.266 40.9031 33.686C41.1071 34.094 41.4851 34.298 42.0371 34.298ZM53.7194 35.342C53.1674 35.342 52.6454 35.258 52.1534 35.09C51.6734 34.922 51.2834 34.664 50.9834 34.316C50.6834 33.968 50.5334 33.53 50.5334 33.002C50.5334 32.798 50.5634 32.636 50.6234 32.516C50.6834 32.384 50.7734 32.276 50.8934 32.192C51.2534 32.72 51.6554 33.134 52.0994 33.434C52.5434 33.722 53.1314 33.866 53.8634 33.866C54.3914 33.866 54.8834 33.776 55.3394 33.596C55.8074 33.404 56.1854 33.134 56.4734 32.786C56.7614 32.438 56.9054 32.012 56.9054 31.508C56.9054 30.956 56.7194 30.542 56.3474 30.266C55.9874 29.978 55.5194 29.786 54.9434 29.69C54.3674 29.582 53.7554 29.528 53.1074 29.528L53.2694 28.484C53.6654 28.448 54.0794 28.376 54.5114 28.268C54.9554 28.148 55.3694 27.98 55.7534 27.764C56.1494 27.536 56.4734 27.26 56.7254 26.936C56.9774 26.6 57.1094 26.204 57.1214 25.748C57.1334 25.232 56.9654 24.848 56.6174 24.596C56.2814 24.332 55.7894 24.194 55.1414 24.182C54.5774 24.17 54.0494 24.302 53.5574 24.578C53.0654 24.842 52.6634 25.196 52.3514 25.64C52.2314 25.544 52.1414 25.43 52.0814 25.298C52.0214 25.166 51.9974 25.022 52.0094 24.866C52.0334 24.518 52.1474 24.212 52.3514 23.948C52.5554 23.684 52.8254 23.462 53.1614 23.282C53.5094 23.102 53.8874 22.97 54.2954 22.886C54.7154 22.802 55.1414 22.766 55.5734 22.778C56.2934 22.79 56.8934 22.898 57.3734 23.102C57.8534 23.306 58.2134 23.6 58.4534 23.984C58.7054 24.356 58.8254 24.824 58.8134 25.388C58.8134 26.012 58.6754 26.552 58.3994 27.008C58.1354 27.464 57.7814 27.836 57.3374 28.124C56.9054 28.4 56.4434 28.598 55.9514 28.718C56.8634 28.91 57.5234 29.21 57.9314 29.618C58.3394 30.026 58.5434 30.596 58.5434 31.328C58.5434 32.144 58.3214 32.852 57.8774 33.452C57.4334 34.052 56.8454 34.52 56.1134 34.856C55.3934 35.18 54.5954 35.342 53.7194 35.342Z" fill="#35609D"/>
<path d="M256.097 15.6452V14.4839C256.482 14.4841 256.858 14.363 257.17 14.1377C257.483 13.9123 257.717 13.5943 257.839 13.2286L257.869 13.1374L258.972 13.5079L258.942 13.5973C258.743 14.1945 258.361 14.7139 257.851 15.0816C257.34 15.4492 256.726 15.6465 256.097 15.6452Z" fill="#EAB6AB"/>
<path d="M268.871 26.3134V29H264.226V26.3134" fill="#5987C6"/>
<path d="M264.807 29V38.2903C264.807 38.7523 264.99 39.1954 265.317 39.5221C265.643 39.8487 266.086 40.0323 266.548 40.0323C267.01 40.0323 267.454 39.8487 267.78 39.5221C268.107 39.1954 268.29 38.7523 268.29 38.2903V29" fill="#5987C6"/>
<path d="M266.043 11.4922C264.089 11.492 262.204 12.228 260.753 13.558C259.395 15.091 258.668 17.0948 258.722 19.1563C258.776 21.2178 259.605 23.1798 261.04 24.638C262.475 26.0962 264.406 26.9394 266.435 26.9938C268.464 27.0482 270.436 26.3097 271.945 24.9304C272.969 23.7726 273.642 22.3377 273.881 20.7995C274.12 19.2613 273.914 17.6857 273.29 16.2636C272.665 14.8415 271.648 13.6339 270.362 12.787C269.076 11.9402 267.576 11.4904 266.043 11.4922Z" fill="#9BB7DD"/>
<path d="M265.968 14.4839C264.724 14.4829 263.521 14.9279 262.577 15.7381C261.722 16.737 261.275 18.0219 261.326 19.336C261.376 20.65 261.921 21.8965 262.851 22.8264C263.781 23.7563 265.027 24.3011 266.342 24.3519C267.656 24.4028 268.94 23.9559 269.939 23.1007C270.589 22.3419 271.007 21.4129 271.144 20.4237C271.281 19.4346 271.132 18.4268 270.714 17.5198C270.296 16.6129 269.627 15.8449 268.786 15.3068C267.944 14.7687 266.966 14.4831 265.968 14.4839Z" fill="#BDCFE8"/>
<path d="M270.032 19.129H268.871C268.871 18.5131 268.626 17.9223 268.191 17.4867C267.755 17.0512 267.164 16.8065 266.548 16.8065V15.6452C267.472 15.6461 268.358 16.0134 269.011 16.6666C269.664 17.3197 270.031 18.2053 270.032 19.129Z" fill="#84A3D2"/>
<path d="M266.548 24.9355C267.697 24.9355 268.819 24.595 269.774 23.957C270.729 23.319 271.473 22.4121 271.913 21.3511C272.352 20.2901 272.467 19.1226 272.243 17.9963C272.019 16.87 271.466 15.8354 270.654 15.0233C269.842 14.2113 268.808 13.6582 267.681 13.4342C266.555 13.2102 265.387 13.3251 264.326 13.7646C263.265 14.2041 262.359 14.9483 261.721 15.9032C261.082 16.8581 260.742 17.9807 260.742 19.1291C260.744 20.6685 261.356 22.1444 262.444 23.233C263.533 24.3216 265.009 24.9338 266.548 24.9355ZM266.548 14.4839C267.467 14.4839 268.365 14.7564 269.129 15.2668C269.893 15.7772 270.488 16.5027 270.84 17.3515C271.192 18.2003 271.284 19.1342 271.104 20.0353C270.925 20.9364 270.483 21.7641 269.833 22.4137C269.183 23.0633 268.356 23.5058 267.455 23.685C266.554 23.8642 265.62 23.7722 264.771 23.4207C263.922 23.0691 263.197 22.4737 262.686 21.7098C262.176 20.9459 261.903 20.0478 261.903 19.1291C261.905 17.8975 262.394 16.7168 263.265 15.846C264.136 14.9752 265.317 14.4853 266.548 14.4839Z" fill="#35609D"/>
<path d="M268.871 19.129H270.032C270.031 18.2053 269.664 17.3197 269.011 16.6666C268.358 16.0134 267.472 15.6461 266.548 15.6452V16.8065C267.164 16.8065 267.755 17.0512 268.191 17.4867C268.626 17.9223 268.871 18.5131 268.871 19.129Z" fill="#35609D"/>
<path d="M243.933 46.6028C243.972 46.7184 244.046 46.819 244.145 46.8902C244.243 46.9615 244.362 46.9999 244.484 47H255.516C255.659 47 255.797 46.9473 255.904 46.8519C256.01 46.7566 256.078 46.6253 256.093 46.4832L256.455 43.2275C256.603 41.8941 256.677 40.5535 256.677 39.2118C256.674 37.0726 256.482 34.9378 256.104 32.8323C256.47 32.9841 256.862 33.0622 257.258 33.0622C257.654 33.0622 258.046 32.9841 258.412 32.8323C257.793 36.2616 257.676 39.7627 258.063 43.2258L258.425 46.4815C258.44 46.6235 258.508 46.7549 258.614 46.8505C258.72 46.9462 258.857 46.9994 259 47H270.032C270.154 46.9999 270.273 46.9615 270.372 46.8902C270.47 46.819 270.544 46.7184 270.583 46.6028L271.504 43.8401C272.838 39.8417 273.518 35.6539 273.516 31.4387C273.516 29.1561 273.149 26.8884 272.43 24.7218C273.528 23.5715 274.264 22.124 274.546 20.5591C274.829 18.9942 274.645 17.3808 274.019 15.9193C273.392 14.4577 272.35 13.2124 271.022 12.3378C269.694 11.4633 268.139 10.9981 266.548 11H246.226C246.134 11.0001 246.043 11.022 245.961 11.0639C245.88 11.1059 245.809 11.1667 245.755 11.2413C245.701 11.3159 245.666 11.4022 245.652 11.4931C245.638 11.584 245.646 11.6769 245.675 11.7641L245.816 12.188C246.088 13.002 246.226 13.8545 246.226 14.7127C246.228 16.3365 245.732 17.922 244.807 19.2562C242.322 22.8335 240.994 27.0862 241 31.4416C240.999 35.6559 241.678 39.8427 243.013 43.8401L243.933 46.6028ZM273.516 19.129C273.516 20.5071 273.107 21.8543 272.342 23.0001C271.576 24.1459 270.488 25.039 269.215 25.5664C267.942 26.0938 266.541 26.2317 265.189 25.9629C263.837 25.694 262.596 25.0304 261.621 24.056C260.647 23.0815 259.983 21.84 259.715 20.4884C259.446 19.1368 259.584 17.7358 260.111 16.4626C260.638 15.1894 261.531 14.1012 262.677 13.3356C263.823 12.5699 265.17 12.1613 266.548 12.1613C268.396 12.1633 270.167 12.898 271.473 14.2043C272.779 15.5106 273.514 17.2817 273.516 19.129ZM265.387 29.5806H267.71V38.2903C267.71 38.5983 267.587 38.8937 267.37 39.1115C267.152 39.3293 266.856 39.4516 266.548 39.4516C266.24 39.4516 265.945 39.3293 265.727 39.1115C265.509 38.8937 265.387 38.5983 265.387 38.2903V29.5806ZM268.29 28.4194H264.806V27.0653C265.954 27.3223 267.143 27.3223 268.29 27.0653V28.4194ZM245.761 19.917C246.822 18.389 247.39 16.5728 247.387 14.7127C247.387 13.8493 247.265 12.9903 247.024 12.1613H262.383C261.072 12.9411 260.008 14.0745 259.313 15.4314C258.617 16.7883 258.318 18.3139 258.45 19.833C258.582 21.3521 259.139 22.8034 260.058 24.0203C260.977 25.2371 262.22 26.1703 263.645 26.7128V29C263.645 29.154 263.706 29.3017 263.815 29.4106C263.924 29.5195 264.072 29.5806 264.226 29.5806V38.2903C264.226 38.9063 264.471 39.4971 264.906 39.9326C265.342 40.3682 265.932 40.6129 266.548 40.6129C267.164 40.6129 267.755 40.3682 268.191 39.9326C268.626 39.4971 268.871 38.9063 268.871 38.2903V29.5806C269.025 29.5806 269.173 29.5195 269.282 29.4106C269.39 29.3017 269.452 29.154 269.452 29V26.7128C270.18 26.4327 270.865 26.0492 271.484 25.5742C272.062 27.4764 272.355 29.4536 272.355 31.4416C272.356 35.5309 271.697 39.5935 270.403 43.4726L269.614 45.8387H259.523L259.218 43.0992C258.795 39.3004 258.996 35.458 259.812 31.7238L261.771 29.3722L260.878 28.6278L258.719 31.2198C258.541 31.4337 258.318 31.6058 258.066 31.7239C257.814 31.842 257.539 31.9033 257.26 31.9033C256.982 31.9033 256.707 31.842 256.455 31.7239C256.203 31.6058 255.98 31.4337 255.802 31.2198L253.642 28.6278L252.749 29.3722L254.709 31.7238C255.245 34.1838 255.516 36.6941 255.516 39.2118C255.516 40.5106 255.444 41.8084 255.301 43.0992L254.994 45.8387H244.903L244.113 43.4726C242.819 39.5925 242.16 35.5289 242.161 31.4387C242.156 27.3205 243.412 23.2995 245.761 19.917Z" fill="#35609D"/>
<path d="M258.942 13.5973L258.972 13.5073L257.869 13.138L257.839 13.2286C257.717 13.5943 257.483 13.9123 257.17 14.1377C256.858 14.363 256.482 14.4841 256.097 14.4839V15.6452C256.726 15.6465 257.34 15.4492 257.851 15.0816C258.361 14.7139 258.743 14.1945 258.942 13.5973Z" fill="#35609D"/>
</svg>
