<svg width="299" height="60" viewBox="0 0 299 60" fill="none" xmlns="http://www.w3.org/2000/svg">
<rect opacity="0.5" width="299" height="60" rx="30" fill="#DDBDDF"/>
<path d="M26.398 35.36C26.026 35.36 25.756 35.216 25.588 34.928C25.432 34.628 25.336 34.22 25.3 33.704C25.264 33.188 25.246 32.6 25.246 31.94H21.826L20.404 35H18.406L24.328 23.12H26.632C26.728 25.556 26.8 27.596 26.848 29.24C26.896 30.872 26.962 32.132 27.046 33.02C27.142 33.896 27.298 34.424 27.514 34.604C27.454 34.82 27.316 35 27.1 35.144C26.884 35.288 26.65 35.36 26.398 35.36ZM22.42 30.698H25.246L25.102 24.362L22.42 30.698ZM31.9239 35.36C31.3239 35.36 30.8499 35.24 30.5019 35C30.1659 34.76 29.9259 34.442 29.7819 34.046C29.6499 33.638 29.5839 33.2 29.5839 32.732C29.5839 32.36 29.6319 31.892 29.7279 31.328C29.8239 30.764 29.9679 30.038 30.1599 29.15C30.3519 28.262 30.5979 27.152 30.8979 25.82L32.4639 25.64C32.1999 26.84 31.9839 27.83 31.8159 28.61C31.6599 29.378 31.5339 30.008 31.4379 30.5C31.3539 30.98 31.2939 31.376 31.2579 31.688C31.2339 31.988 31.2219 32.27 31.2219 32.534C31.2219 32.822 31.2579 33.104 31.3299 33.38C31.4139 33.644 31.5519 33.866 31.7439 34.046C31.9479 34.214 32.2179 34.298 32.5539 34.298C33.0099 34.298 33.3879 34.148 33.6879 33.848C33.9999 33.536 34.2459 33.146 34.4259 32.678C34.6179 32.21 34.7559 31.736 34.8399 31.256L35.9199 25.82L37.5579 25.64L36.0639 33.326C36.0519 33.434 36.0339 33.56 36.0099 33.704C35.9859 33.848 35.9739 33.974 35.9739 34.082C35.9739 34.25 36.0099 34.382 36.0819 34.478C36.1659 34.562 36.2859 34.61 36.4419 34.622C36.4059 34.79 36.3339 34.928 36.2259 35.036C36.1179 35.144 35.9919 35.222 35.8479 35.27C35.7039 35.33 35.5419 35.36 35.3619 35.36C35.0379 35.36 34.7799 35.27 34.5879 35.09C34.4079 34.922 34.2999 34.67 34.2639 34.334C34.0359 34.706 33.6939 34.97 33.2379 35.126C32.7939 35.282 32.3559 35.36 31.9239 35.36ZM39.6918 35.36C39.3558 35.36 39.0978 35.264 38.9178 35.072C38.7378 34.88 38.6478 34.622 38.6478 34.298C38.6478 34.202 38.6538 34.1 38.6658 33.992C38.6778 33.872 38.6958 33.71 38.7198 33.506C38.7558 33.302 38.8098 33.02 38.8818 32.66C38.9538 32.3 39.0438 31.838 39.1518 31.274C39.2718 30.698 39.4158 29.99 39.5838 29.15C39.7638 28.298 39.9738 27.284 40.2138 26.108C40.3338 25.436 40.4358 24.746 40.5198 24.038C40.6158 23.33 40.6638 22.736 40.6638 22.256C40.6638 22.124 40.6578 22.01 40.6458 21.914C40.6458 21.806 40.6338 21.71 40.6098 21.626C40.6818 21.566 40.7778 21.518 40.8978 21.482C41.0298 21.446 41.1678 21.428 41.3118 21.428C41.5878 21.428 41.8518 21.518 42.1038 21.698C42.3558 21.866 42.4818 22.178 42.4818 22.634C42.4818 22.718 42.4518 22.91 42.3918 23.21C42.3438 23.498 42.2778 23.84 42.1938 24.236C42.1218 24.632 42.0438 25.034 41.9598 25.442C41.8878 25.838 41.8218 26.186 41.7618 26.486C41.4618 27.938 41.2158 29.12 41.0238 30.032C40.8438 30.944 40.6998 31.664 40.5918 32.192C40.4958 32.708 40.4238 33.092 40.3758 33.344C40.3398 33.584 40.3158 33.752 40.3038 33.848C40.2918 33.932 40.2858 34.01 40.2858 34.082C40.2858 34.25 40.3218 34.382 40.3938 34.478C40.4778 34.562 40.5978 34.61 40.7538 34.622C40.7178 34.79 40.6458 34.928 40.5378 35.036C40.4298 35.144 40.3038 35.222 40.1598 35.27C40.0158 35.33 39.8598 35.36 39.6918 35.36ZM45.3171 35.36C44.7291 35.36 44.2491 35.216 43.8771 34.928C43.5171 34.628 43.2531 34.226 43.0851 33.722C42.9171 33.218 42.8331 32.642 42.8331 31.994C42.8331 31.106 42.9471 30.272 43.1751 29.492C43.4151 28.7 43.7511 28.004 44.1831 27.404C44.6151 26.792 45.1251 26.318 45.7131 25.982C46.3011 25.634 46.9431 25.46 47.6391 25.46C48.2151 25.46 48.8331 25.586 49.4931 25.838L51.0591 25.64L49.5831 33.326C49.5711 33.434 49.5531 33.56 49.5291 33.704C49.5051 33.848 49.4931 33.974 49.4931 34.082C49.4931 34.25 49.5291 34.382 49.6011 34.478C49.6851 34.562 49.8051 34.61 49.9611 34.622C49.9131 34.79 49.8351 34.928 49.7271 35.036C49.6191 35.144 49.4931 35.222 49.3491 35.27C49.2051 35.33 49.0431 35.36 48.8631 35.36C48.5511 35.36 48.2931 35.27 48.0891 35.09C47.8971 34.922 47.7951 34.67 47.7831 34.334C47.4711 34.634 47.1051 34.88 46.6851 35.072C46.2651 35.264 45.8091 35.36 45.3171 35.36ZM46.0371 34.298C46.5171 34.298 46.9071 34.142 47.2071 33.83C47.5191 33.506 47.7651 33.11 47.9451 32.642C48.1251 32.162 48.2571 31.7 48.3411 31.256L49.1151 27.152C48.8631 26.948 48.5931 26.798 48.3051 26.702C48.0171 26.594 47.7531 26.54 47.5131 26.54C47.1411 26.54 46.7991 26.636 46.4871 26.828C46.1871 27.02 45.9171 27.29 45.6771 27.638C45.4491 27.986 45.2511 28.4 45.0831 28.88C44.9271 29.348 44.8071 29.864 44.7231 30.428C44.6511 30.98 44.6151 31.556 44.6151 32.156C44.6151 32.756 44.7111 33.266 44.9031 33.686C45.1071 34.094 45.4851 34.298 46.0371 34.298ZM60.4554 31.994C59.9874 31.982 59.4534 31.964 58.8534 31.94C58.2654 31.904 57.6714 31.868 57.0714 31.832C56.4714 31.796 55.9254 31.778 55.4334 31.778C55.2054 31.778 54.9954 31.79 54.8034 31.814C54.6234 31.826 54.4794 31.85 54.3714 31.886C54.2154 31.73 54.1374 31.514 54.1374 31.238C54.1374 31.07 54.1734 30.896 54.2454 30.716C54.3294 30.524 54.4194 30.368 54.5154 30.248C55.0194 29.636 55.5294 29 56.0454 28.34C56.5614 27.668 57.0414 27.002 57.4854 26.342C57.9414 25.67 58.3194 25.034 58.6194 24.434C58.9314 23.834 59.1234 23.294 59.1954 22.814C59.3274 22.778 59.4114 22.76 59.4474 22.76C59.6394 22.76 59.8194 22.892 59.9874 23.156C60.1674 23.42 60.2454 23.714 60.2214 24.038C60.1974 24.542 60.0294 25.076 59.7174 25.64C59.4174 26.204 59.0394 26.774 58.5834 27.35C58.1394 27.914 57.6774 28.454 57.1974 28.97C56.7174 29.486 56.2854 29.942 55.9014 30.338C56.5614 30.398 57.1674 30.416 57.7194 30.392C58.2834 30.356 58.8234 30.338 59.3394 30.338C59.7474 30.338 60.1374 30.332 60.5094 30.32C60.8934 30.308 61.2474 30.29 61.5714 30.266C61.9074 30.23 62.1954 30.2 62.4354 30.176C62.6874 30.14 62.8734 30.104 62.9934 30.068C63.0534 30.152 63.1014 30.26 63.1374 30.392C63.1854 30.524 63.2094 30.65 63.2094 30.77C63.2094 31.154 63.0894 31.436 62.8494 31.616C62.6094 31.784 62.2854 31.892 61.8774 31.94C61.4694 31.976 60.9954 31.994 60.4554 31.994ZM59.7354 35.162C59.5674 35.162 59.4234 35.126 59.3034 35.054C59.1834 34.982 59.0934 34.88 59.0334 34.748C58.9734 34.616 58.9434 34.454 58.9434 34.262C58.9434 34.19 58.9614 34.046 58.9974 33.83C59.0334 33.614 59.0754 33.386 59.1234 33.146L60.0054 28.862C60.3894 28.322 60.7194 27.806 60.9954 27.314C61.2834 26.822 61.5054 26.39 61.6614 26.018H62.1474L60.3474 35.036C60.2514 35.084 60.1554 35.114 60.0594 35.126C59.9634 35.15 59.8554 35.162 59.7354 35.162Z" fill="#882F87"/>
<path d="M262.758 37.7278L260.082 39.066L256.972 42.5806L258.816 44.0192L261.203 42.5806L264.313 39.066L262.758 37.7278Z" fill="#CDACCE"/>
<path d="M264.581 34.343L257.19 36.3896L257.89 37.7354C258.315 38.553 259.16 39.066 260.082 39.066H269.079C270.001 39.066 270.846 38.553 271.271 37.7354L271.971 36.3896L264.581 34.343Z" fill="#DDBDDF"/>
<path d="M267.317 31.7114L265.139 30.622L267.505 25.8894C267.581 25.7376 267.688 25.6033 267.819 25.4952L271.577 22.3898L273.129 24.2676L269.569 27.209L267.317 31.7114Z" fill="#DDBDDF"/>
<path d="M255.069 14.9385L253.85 11.5518C253.462 10.4725 252.272 9.91249 251.193 10.3009L250.411 10.5822L253.037 17.8773L253.818 17.5961C254.897 17.2077 255.457 16.0178 255.069 14.9385Z" fill="#882F87"/>
<path d="M258.493 24.4526L257.121 20.6404C256.733 19.5611 255.543 19.0011 254.463 19.3895L253.682 19.6708L256.461 27.3913L257.242 27.1102C258.321 26.7216 258.881 25.5318 258.493 24.4526Z" fill="#882F87"/>
<path d="M271.971 29.3259H257.658L250.855 10.4225C250.606 9.73127 249.844 9.37255 249.153 9.62135L246.417 10.6059C245.726 10.8546 245.367 11.6167 245.616 12.3079L253.298 33.654C253.889 35.2954 255.446 36.3897 257.19 36.3897H271.971C272.951 36.3897 273.745 35.5955 273.745 34.6158V31.0998C273.745 30.1201 272.951 29.3259 271.971 29.3259Z" fill="#AB74AE"/>
<path d="M273.129 24.2675L271.577 22.3898L268.26 25.1308C268.446 25.2468 268.63 25.3654 268.81 25.4885C269.241 25.784 269.753 26.1711 270.26 26.6377L273.129 24.2675Z" fill="#CDACCE"/>
<path d="M276.938 25.3534C274.95 22.1251 271.75 20.132 269.992 19.2205C269.335 18.8795 268.527 19.184 268.253 19.8722L267.763 21.1058C267.527 21.6998 267.774 22.3779 268.339 22.6763C268.807 22.923 269.399 23.2642 270.036 23.7003C271.154 24.4664 272.594 25.6591 273.601 27.2375C273.942 27.7717 274.622 27.9756 275.195 27.7066L276.399 27.1422C277.075 26.8251 277.329 25.9893 276.938 25.3534Z" fill="#AB74AE"/>
<path d="M273.08 44.083C272.635 43.1643 271.704 42.5806 270.684 42.5806H253.227C252.206 42.5806 251.276 43.1642 250.831 44.083C250.523 44.719 250.987 45.4577 251.693 45.4577H272.217C272.924 45.4577 273.387 44.7189 273.08 44.083Z" fill="#AB74AE"/>
<path d="M270.243 18.7396C269.319 18.2603 268.14 18.6941 267.751 19.6722L267.261 20.9058C266.921 21.7602 267.277 22.7275 268.088 23.1557C268.431 23.3367 268.768 23.5319 269.098 23.7368L267.475 25.0777C267.285 25.2349 267.132 25.4266 267.022 25.6473L265.454 28.7842H258.04L257.597 27.5516C258.844 27.0026 259.473 25.57 259.004 24.2692L257.633 20.457C257.26 19.4207 256.269 18.7244 255.168 18.7244C254.927 18.7244 254.688 18.7583 254.456 18.8242L254.173 18.0376C255.42 17.4887 256.049 16.056 255.581 14.7553L254.362 11.3685C253.989 10.3322 252.998 9.63585 251.897 9.63585C251.63 9.63585 251.365 9.67704 251.109 9.75798C250.928 9.51199 250.687 9.31319 250.402 9.17929C249.95 8.96625 249.441 8.94226 248.971 9.11165C248.971 9.11165 246.237 10.0955 246.235 10.0961C245.277 10.441 244.762 11.5324 245.108 12.4916L247.692 19.6721C247.793 19.9537 248.103 20.0999 248.385 19.9985C248.667 19.8972 248.813 19.5867 248.712 19.305C248.712 19.305 246.129 12.1288 246.128 12.1246C245.982 11.7195 246.198 11.2614 246.602 11.116C246.602 11.116 249.333 10.1332 249.338 10.1315C249.743 9.9859 250.201 10.2031 250.346 10.6062L257.15 29.5096C257.227 29.7248 257.431 29.8681 257.66 29.8681H271.972C272.652 29.8681 273.204 30.4207 273.204 31.0999V34.6159C273.204 35.2951 272.652 35.8477 271.972 35.8477H265.996C265.696 35.8477 265.454 36.0904 265.454 36.3897C265.454 36.689 265.696 36.9317 265.996 36.9317H271.08L270.792 37.4855C270.459 38.1261 269.803 38.5241 269.081 38.5241H264.315H260.084C259.361 38.5241 258.706 38.1261 258.373 37.4855L258.085 36.9317H266.541C266.84 36.9317 267.083 36.689 267.083 36.3897C267.083 36.0904 266.84 35.8477 266.541 35.8477H257.192C255.681 35.8477 254.322 34.8924 253.81 33.4705L248.58 18.9379C248.478 18.6563 248.168 18.5101 247.886 18.6114C247.604 18.7128 247.458 19.0233 247.56 19.305L252.79 33.8378C253.418 35.5825 255.026 36.787 256.856 36.9193L257.411 37.9857C257.764 38.6655 258.35 39.1696 259.044 39.4236L256.729 42.0389H253.229C252.008 42.0389 250.876 42.7487 250.345 43.8472C249.871 44.8275 250.61 46 251.695 46C251.695 46 272.2 46 272.219 46C273.307 46 274.043 44.8268 273.569 43.8472C273.038 42.7487 271.906 42.0389 270.685 42.0389H262.408L264.559 39.6082H269.081C270.209 39.6082 271.233 38.9865 271.753 37.9857L272.315 36.9064C273.43 36.7405 274.288 35.7767 274.288 34.6161V31.1C274.288 29.8231 273.249 28.7842 271.972 28.7842H269.389L270.004 27.5542L271.911 25.9781C272.355 26.4401 272.781 26.9584 273.145 27.5292C273.626 28.2817 274.617 28.5772 275.427 28.1975L276.631 27.633C277.584 27.1858 277.954 25.969 277.401 25.0695C275.341 21.7235 272.032 19.6674 270.243 18.7396ZM255.168 19.8084C255.814 19.8084 256.394 20.2166 256.613 20.8242L257.984 24.6363C258.25 25.3744 257.913 26.1853 257.229 26.5282L254.824 19.8478C254.937 19.8217 255.052 19.8084 255.168 19.8084ZM251.897 10.7199C252.543 10.7199 253.123 11.128 253.342 11.7356L254.561 15.1224C254.826 15.8605 254.489 16.6714 253.805 17.0143L251.554 10.7593C251.666 10.7331 251.782 10.7199 251.897 10.7199ZM272.593 44.3196C272.726 44.5937 272.521 44.9161 272.219 44.9161C272.219 44.9161 251.748 44.9161 251.695 44.9161C251.392 44.9161 251.189 44.5909 251.321 44.3194C251.672 43.5925 252.421 43.1229 253.229 43.1229H270.685C271.493 43.1229 272.242 43.5925 272.593 44.3196ZM260.96 42.039H258.177L260.328 39.6083H263.111L260.96 42.039ZM269.225 26.7916C269.167 26.8397 269.119 26.8994 269.086 26.9669L268.177 28.7842H266.665L267.992 26.1321C268.034 26.0473 268.092 25.9737 268.166 25.9133L270.039 24.3651C270.413 24.6339 270.774 24.9218 271.121 25.2252L269.225 26.7916ZM276.549 26.208C276.493 26.3966 276.36 26.5626 276.17 26.6516C276.17 26.6516 274.968 27.2155 274.967 27.216C274.642 27.3684 274.251 27.2465 274.059 26.9462C273.556 26.1582 272.952 25.4659 272.338 24.8734C271.713 24.2705 271.047 23.7103 270.318 23.2364L270.316 23.2351C269.765 22.8591 269.186 22.5097 268.594 22.1972C268.273 22.028 268.133 21.645 268.268 21.3063C268.268 21.3063 268.757 20.0752 268.758 20.0726C268.911 19.6885 269.377 19.5113 269.744 19.7018C271.434 20.578 274.555 22.5142 276.477 25.6376C276.587 25.815 276.605 26.0224 276.549 26.208Z" fill="#882F87"/>
</svg>
