<svg width="299" height="60" viewBox="0 0 299 60" fill="none" xmlns="http://www.w3.org/2000/svg">
<rect opacity="0.5" width="299" height="60" rx="30" fill="#BDCFE8"/>
<path d="M26.398 35.36C26.026 35.36 25.756 35.216 25.588 34.928C25.432 34.628 25.336 34.22 25.3 33.704C25.264 33.188 25.246 32.6 25.246 31.94H21.826L20.404 35H18.406L24.328 23.12H26.632C26.728 25.556 26.8 27.596 26.848 29.24C26.896 30.872 26.962 32.132 27.046 33.02C27.142 33.896 27.298 34.424 27.514 34.604C27.454 34.82 27.316 35 27.1 35.144C26.884 35.288 26.65 35.36 26.398 35.36ZM22.42 30.698H25.246L25.102 24.362L22.42 30.698ZM31.9239 35.36C31.3239 35.36 30.8499 35.24 30.5019 35C30.1659 34.76 29.9259 34.442 29.7819 34.046C29.6499 33.638 29.5839 33.2 29.5839 32.732C29.5839 32.36 29.6319 31.892 29.7279 31.328C29.8239 30.764 29.9679 30.038 30.1599 29.15C30.3519 28.262 30.5979 27.152 30.8979 25.82L32.4639 25.64C32.1999 26.84 31.9839 27.83 31.8159 28.61C31.6599 29.378 31.5339 30.008 31.4379 30.5C31.3539 30.98 31.2939 31.376 31.2579 31.688C31.2339 31.988 31.2219 32.27 31.2219 32.534C31.2219 32.822 31.2579 33.104 31.3299 33.38C31.4139 33.644 31.5519 33.866 31.7439 34.046C31.9479 34.214 32.2179 34.298 32.5539 34.298C33.0099 34.298 33.3879 34.148 33.6879 33.848C33.9999 33.536 34.2459 33.146 34.4259 32.678C34.6179 32.21 34.7559 31.736 34.8399 31.256L35.9199 25.82L37.5579 25.64L36.0639 33.326C36.0519 33.434 36.0339 33.56 36.0099 33.704C35.9859 33.848 35.9739 33.974 35.9739 34.082C35.9739 34.25 36.0099 34.382 36.0819 34.478C36.1659 34.562 36.2859 34.61 36.4419 34.622C36.4059 34.79 36.3339 34.928 36.2259 35.036C36.1179 35.144 35.9919 35.222 35.8479 35.27C35.7039 35.33 35.5419 35.36 35.3619 35.36C35.0379 35.36 34.7799 35.27 34.5879 35.09C34.4079 34.922 34.2999 34.67 34.2639 34.334C34.0359 34.706 33.6939 34.97 33.2379 35.126C32.7939 35.282 32.3559 35.36 31.9239 35.36ZM39.6918 35.36C39.3558 35.36 39.0978 35.264 38.9178 35.072C38.7378 34.88 38.6478 34.622 38.6478 34.298C38.6478 34.202 38.6538 34.1 38.6658 33.992C38.6778 33.872 38.6958 33.71 38.7198 33.506C38.7558 33.302 38.8098 33.02 38.8818 32.66C38.9538 32.3 39.0438 31.838 39.1518 31.274C39.2718 30.698 39.4158 29.99 39.5838 29.15C39.7638 28.298 39.9738 27.284 40.2138 26.108C40.3338 25.436 40.4358 24.746 40.5198 24.038C40.6158 23.33 40.6638 22.736 40.6638 22.256C40.6638 22.124 40.6578 22.01 40.6458 21.914C40.6458 21.806 40.6338 21.71 40.6098 21.626C40.6818 21.566 40.7778 21.518 40.8978 21.482C41.0298 21.446 41.1678 21.428 41.3118 21.428C41.5878 21.428 41.8518 21.518 42.1038 21.698C42.3558 21.866 42.4818 22.178 42.4818 22.634C42.4818 22.718 42.4518 22.91 42.3918 23.21C42.3438 23.498 42.2778 23.84 42.1938 24.236C42.1218 24.632 42.0438 25.034 41.9598 25.442C41.8878 25.838 41.8218 26.186 41.7618 26.486C41.4618 27.938 41.2158 29.12 41.0238 30.032C40.8438 30.944 40.6998 31.664 40.5918 32.192C40.4958 32.708 40.4238 33.092 40.3758 33.344C40.3398 33.584 40.3158 33.752 40.3038 33.848C40.2918 33.932 40.2858 34.01 40.2858 34.082C40.2858 34.25 40.3218 34.382 40.3938 34.478C40.4778 34.562 40.5978 34.61 40.7538 34.622C40.7178 34.79 40.6458 34.928 40.5378 35.036C40.4298 35.144 40.3038 35.222 40.1598 35.27C40.0158 35.33 39.8598 35.36 39.6918 35.36ZM45.3171 35.36C44.7291 35.36 44.2491 35.216 43.8771 34.928C43.5171 34.628 43.2531 34.226 43.0851 33.722C42.9171 33.218 42.8331 32.642 42.8331 31.994C42.8331 31.106 42.9471 30.272 43.1751 29.492C43.4151 28.7 43.7511 28.004 44.1831 27.404C44.6151 26.792 45.1251 26.318 45.7131 25.982C46.3011 25.634 46.9431 25.46 47.6391 25.46C48.2151 25.46 48.8331 25.586 49.4931 25.838L51.0591 25.64L49.5831 33.326C49.5711 33.434 49.5531 33.56 49.5291 33.704C49.5051 33.848 49.4931 33.974 49.4931 34.082C49.4931 34.25 49.5291 34.382 49.6011 34.478C49.6851 34.562 49.8051 34.61 49.9611 34.622C49.9131 34.79 49.8351 34.928 49.7271 35.036C49.6191 35.144 49.4931 35.222 49.3491 35.27C49.2051 35.33 49.0431 35.36 48.8631 35.36C48.5511 35.36 48.2931 35.27 48.0891 35.09C47.8971 34.922 47.7951 34.67 47.7831 34.334C47.4711 34.634 47.1051 34.88 46.6851 35.072C46.2651 35.264 45.8091 35.36 45.3171 35.36ZM46.0371 34.298C46.5171 34.298 46.9071 34.142 47.2071 33.83C47.5191 33.506 47.7651 33.11 47.9451 32.642C48.1251 32.162 48.2571 31.7 48.3411 31.256L49.1151 27.152C48.8631 26.948 48.5931 26.798 48.3051 26.702C48.0171 26.594 47.7531 26.54 47.5131 26.54C47.1411 26.54 46.7991 26.636 46.4871 26.828C46.1871 27.02 45.9171 27.29 45.6771 27.638C45.4491 27.986 45.2511 28.4 45.0831 28.88C44.9271 29.348 44.8071 29.864 44.7231 30.428C44.6511 30.98 44.6151 31.556 44.6151 32.156C44.6151 32.756 44.7111 33.266 44.9031 33.686C45.1071 34.094 45.4851 34.298 46.0371 34.298ZM61.1394 35.396C60.6234 35.396 60.0714 35.348 59.4834 35.252C58.8954 35.156 58.3074 35.06 57.7194 34.964C57.1434 34.868 56.5974 34.82 56.0814 34.82C55.8174 34.82 55.5774 34.838 55.3614 34.874C55.1574 34.91 54.9714 34.952 54.8034 35C54.7074 34.904 54.6234 34.784 54.5514 34.64C54.4914 34.484 54.4614 34.34 54.4614 34.208C54.4614 33.968 54.5274 33.764 54.6594 33.596C54.8034 33.416 54.8934 33.302 54.9294 33.254L58.3854 30.284C59.2974 29.504 60.0054 28.778 60.5094 28.106C61.0254 27.422 61.2834 26.726 61.2834 26.018C61.2834 25.43 61.1094 24.974 60.7614 24.65C60.4134 24.326 59.9034 24.164 59.2314 24.164C58.8234 24.164 58.4394 24.23 58.0794 24.362C57.7314 24.482 57.3954 24.674 57.0714 24.938C56.7594 25.19 56.4474 25.52 56.1354 25.928C56.0754 25.868 56.0274 25.802 55.9914 25.73C55.9554 25.658 55.9314 25.58 55.9194 25.496C55.9074 25.4 55.9014 25.286 55.9014 25.154C55.9014 24.782 56.0034 24.452 56.2074 24.164C56.4234 23.864 56.7054 23.612 57.0534 23.408C57.4134 23.192 57.8094 23.03 58.2414 22.922C58.6854 22.814 59.1294 22.76 59.5734 22.76C60.1134 22.76 60.5874 22.832 60.9954 22.976C61.4154 23.108 61.7694 23.306 62.0574 23.57C62.3454 23.834 62.5614 24.164 62.7054 24.56C62.8494 24.944 62.9214 25.388 62.9214 25.892C62.9214 26.54 62.8134 27.122 62.5974 27.638C62.3814 28.142 62.0994 28.598 61.7514 29.006C61.4034 29.414 61.0314 29.792 60.6354 30.14C60.4194 30.32 60.1194 30.56 59.7354 30.86C59.3514 31.16 58.9494 31.478 58.5294 31.814C58.1094 32.138 57.7314 32.444 57.3954 32.732C57.0714 33.008 56.8494 33.218 56.7294 33.362C57.4134 33.494 58.0434 33.59 58.6194 33.65C59.1954 33.71 59.8254 33.74 60.5094 33.74C60.8454 33.74 61.1574 33.734 61.4454 33.722C61.7454 33.698 62.0154 33.662 62.2554 33.614C62.3634 33.794 62.4174 34.022 62.4174 34.298C62.4174 34.598 62.3154 34.856 62.1114 35.072C61.9074 35.288 61.5834 35.396 61.1394 35.396Z" fill="#35609D"/>
<path d="M274.699 41.8465H279.285V38.4964H244.097V41.8465H258.799C259.319 41.8465 259.802 42.1195 260.069 42.5657C260.37 42.9271 260.871 43.2848 261.339 43.2848H261.899C262.42 43.2848 262.902 43.0118 263.169 42.5657C263.437 42.1195 264.062 41.8465 264.583 41.8465H268.416H274.699Z" fill="#9BB7DD"/>
<path d="M264.922 32.814C262.602 33.6086 261.69 35.1763 261.69 35.1763C261.69 35.1763 260.779 33.6086 258.459 32.814C258.695 29.5377 259.617 24.1105 259.617 20.8097C259.617 20.018 259.524 19.2802 259.39 18.6258C259.094 17.1958 260.206 15.7845 261.69 15.7845C263.187 15.7845 264.293 17.161 263.992 18.6258C263.857 19.2802 263.764 20.018 263.764 20.8097C263.764 24.1105 264.686 29.5377 264.922 32.814Z" fill="#5987C6"/>
<path d="M261.703 11.2834H261.678C260.442 11.2834 259.44 12.2857 259.44 13.522V13.5464C259.44 14.7827 260.442 15.785 261.678 15.785H261.703C262.939 15.785 263.941 14.7827 263.941 13.5464V13.522C263.941 12.2857 262.939 11.2834 261.703 11.2834Z" fill="#E0E7EF"/>
<path d="M269.546 24.5023C269.546 24.5023 269.546 27.8132 272.995 27.8132C276.31 27.8132 276.31 24.5023 276.31 24.5023H269.546Z" fill="#5987C6"/>
<path d="M253.835 24.5023C253.835 24.5023 253.835 27.8132 250.386 27.8132C247.072 27.8132 247.072 24.5023 247.072 24.5023H253.835Z" fill="#5987C6"/>
<path d="M279.285 37.7811H277.688V34.5286C277.688 34.1336 277.368 33.8134 276.973 33.8134C275.674 33.8134 274.989 33.5034 274.042 33.0743C272.987 32.5961 271.673 32.001 269.142 31.7226C267.745 31.5688 266.559 31.6588 265.562 31.8855C265.457 30.7727 265.301 29.4994 265.139 28.1673C264.815 25.5187 264.479 22.7799 264.479 20.8097C264.479 20.1427 264.551 19.4564 264.692 18.7698C264.848 18.0131 264.717 17.2405 264.334 16.5877C267.755 16.8085 270.624 17.3935 271.975 17.7071L268.9 24.196C268.855 24.2909 268.831 24.3972 268.831 24.5023C268.831 24.6049 268.845 25.5327 269.343 26.4881C269.828 27.4189 270.855 28.5284 272.995 28.5284C275.272 28.5284 277.025 26.8144 277.025 24.5023C277.025 24.4012 277.002 24.2978 276.961 24.2059L273.647 16.9269C273.56 16.7371 273.388 16.5898 273.187 16.5342C273.002 16.4827 269.172 15.4343 264.186 15.1438C264.483 14.6828 264.657 14.1347 264.657 13.5464V13.5219C264.657 11.8932 263.332 10.5682 261.703 10.5682H261.679C260.05 10.5682 258.725 11.8932 258.725 13.5219V13.5464C258.725 14.1347 258.898 14.6828 259.196 15.1438C254.209 15.4342 250.38 16.4827 250.194 16.5342C249.993 16.5898 249.821 16.7372 249.735 16.9269L246.421 24.2059C246.379 24.2977 246.357 24.4012 246.357 24.5023C246.357 24.6043 246.37 25.5265 246.847 26.4779C247.315 27.4134 248.309 28.5284 250.387 28.5284C252.679 28.5284 254.551 26.8716 254.551 24.5023C254.551 24.3972 254.527 24.2909 254.482 24.196L251.406 17.7068C252.758 17.3925 255.631 16.8064 259.062 16.5865C258.67 17.2451 258.534 18.0189 258.689 18.7698C258.831 19.4561 258.902 20.1425 258.902 20.8097C258.902 22.7795 258.567 25.5177 258.243 28.1659C258.08 29.4984 257.924 30.7722 257.819 31.8854C256.822 31.6587 255.637 31.5688 254.239 31.7226C251.709 32.001 250.395 32.5961 249.339 33.0743C248.392 33.5034 247.708 33.8134 246.408 33.8134C246.013 33.8134 245.693 34.1336 245.693 34.5286V37.7811H244.097C243.702 37.7811 243.381 38.1013 243.381 38.4963V41.8465C243.381 42.2415 243.702 42.5617 244.097 42.5617H258.799C259.158 42.5617 259.313 42.775 259.519 43.0228C259.912 43.4952 260.596 44 261.339 44H261.899C262.666 44 263.388 43.5914 263.782 42.9336C263.901 42.7355 264.275 42.5617 264.582 42.5617H275.191C275.586 42.5617 275.906 42.2415 275.906 41.8465C275.906 41.4515 275.586 41.1313 275.191 41.1313H264.582C263.914 41.1313 262.995 41.465 262.556 42.1977C262.418 42.4271 262.167 42.5696 261.899 42.5696H261.339C261.184 42.5696 260.881 42.4071 260.648 42.1421C260.247 41.517 259.544 41.1313 258.799 41.1313H244.812V39.2115H278.57V41.1313H274.699C274.304 41.1313 273.984 41.4515 273.984 41.8465C273.984 42.2415 274.304 42.5617 274.699 42.5617H279.285C279.68 42.5617 280 42.2415 280 41.8465V38.4963C280 38.1013 279.68 37.7811 279.285 37.7811ZM275.236 25.8751C274.809 26.698 274.075 27.098 272.995 27.098C271.185 27.098 270.573 25.9934 270.366 25.2175H275.485C275.432 25.4221 275.353 25.6506 275.236 25.8751ZM270.676 23.7871L272.983 18.9208L275.198 23.7871H270.676ZM260.155 13.522C260.155 12.682 260.839 11.9987 261.678 11.9987H261.703C262.543 11.9987 263.226 12.682 263.226 13.522V13.5464C263.226 14.3864 262.543 15.0698 261.703 15.0698C261.699 15.0698 261.695 15.0694 261.69 15.0694C261.686 15.0694 261.682 15.0698 261.678 15.0698C260.839 15.0697 260.155 14.3864 260.155 13.5464L260.155 13.522ZM252.77 25.8274C252.325 26.6824 251.545 27.098 250.387 27.098C249.145 27.098 248.212 26.4364 247.896 25.2175H253.006C252.954 25.4072 252.879 25.6178 252.77 25.8274ZM248.183 23.7871L250.399 18.9208L252.705 23.7871H248.183ZM259.662 28.3397C259.992 25.6491 260.332 22.8667 260.332 20.8097C260.332 20.0459 260.251 19.2627 260.09 18.4808C259.883 17.4822 260.69 16.5002 261.705 16.5002C262.727 16.5091 263.496 17.4843 263.291 18.4818C263.13 19.2631 263.049 20.0463 263.049 20.8097C263.049 22.8671 263.39 25.6498 263.719 28.341C263.896 29.7906 264.065 31.1706 264.166 32.3313C262.984 32.8292 262.182 33.504 261.691 34.0257C261.2 33.5038 260.397 32.829 259.215 32.3311C259.316 31.1702 259.485 29.7896 259.662 28.3397ZM247.123 35.2138C248.312 35.11 249.101 34.7524 249.929 34.3772C250.943 33.9182 252.091 33.3979 254.395 33.1444C256.722 32.8885 259.503 33.3812 260.975 35.3938V37.7811H247.123V35.2138ZM262.406 37.7811V35.3958C263.897 33.3914 266.646 32.8871 268.986 33.1445C271.29 33.398 272.438 33.9182 273.452 34.3773C274.28 34.7525 275.07 35.1101 276.258 35.2139V37.7812L262.406 37.7811Z" fill="#35609D"/>
</svg>
