<svg width="299" height="60" viewBox="0 0 299 60" fill="none" xmlns="http://www.w3.org/2000/svg">
<rect opacity="0.5" width="299" height="60" rx="30" fill="#BDCFE8"/>
<path d="M26.398 37.36C26.026 37.36 25.756 37.216 25.588 36.928C25.432 36.628 25.336 36.22 25.3 35.704C25.264 35.188 25.246 34.6 25.246 33.94H21.826L20.404 37H18.406L24.328 25.12H26.632C26.728 27.556 26.8 29.596 26.848 31.24C26.896 32.872 26.962 34.132 27.046 35.02C27.142 35.896 27.298 36.424 27.514 36.604C27.454 36.82 27.316 37 27.1 37.144C26.884 37.288 26.65 37.36 26.398 37.36ZM22.42 32.698H25.246L25.102 26.362L22.42 32.698ZM31.9239 37.36C31.3239 37.36 30.8499 37.24 30.5019 37C30.1659 36.76 29.9259 36.442 29.7819 36.046C29.6499 35.638 29.5839 35.2 29.5839 34.732C29.5839 34.36 29.6319 33.892 29.7279 33.328C29.8239 32.764 29.9679 32.038 30.1599 31.15C30.3519 30.262 30.5979 29.152 30.8979 27.82L32.4639 27.64C32.1999 28.84 31.9839 29.83 31.8159 30.61C31.6599 31.378 31.5339 32.008 31.4379 32.5C31.3539 32.98 31.2939 33.376 31.2579 33.688C31.2339 33.988 31.2219 34.27 31.2219 34.534C31.2219 34.822 31.2579 35.104 31.3299 35.38C31.4139 35.644 31.5519 35.866 31.7439 36.046C31.9479 36.214 32.2179 36.298 32.5539 36.298C33.0099 36.298 33.3879 36.148 33.6879 35.848C33.9999 35.536 34.2459 35.146 34.4259 34.678C34.6179 34.21 34.7559 33.736 34.8399 33.256L35.9199 27.82L37.5579 27.64L36.0639 35.326C36.0519 35.434 36.0339 35.56 36.0099 35.704C35.9859 35.848 35.9739 35.974 35.9739 36.082C35.9739 36.25 36.0099 36.382 36.0819 36.478C36.1659 36.562 36.2859 36.61 36.4419 36.622C36.4059 36.79 36.3339 36.928 36.2259 37.036C36.1179 37.144 35.9919 37.222 35.8479 37.27C35.7039 37.33 35.5419 37.36 35.3619 37.36C35.0379 37.36 34.7799 37.27 34.5879 37.09C34.4079 36.922 34.2999 36.67 34.2639 36.334C34.0359 36.706 33.6939 36.97 33.2379 37.126C32.7939 37.282 32.3559 37.36 31.9239 37.36ZM39.6918 37.36C39.3558 37.36 39.0978 37.264 38.9178 37.072C38.7378 36.88 38.6478 36.622 38.6478 36.298C38.6478 36.202 38.6538 36.1 38.6658 35.992C38.6778 35.872 38.6958 35.71 38.7198 35.506C38.7558 35.302 38.8098 35.02 38.8818 34.66C38.9538 34.3 39.0438 33.838 39.1518 33.274C39.2718 32.698 39.4158 31.99 39.5838 31.15C39.7638 30.298 39.9738 29.284 40.2138 28.108C40.3338 27.436 40.4358 26.746 40.5198 26.038C40.6158 25.33 40.6638 24.736 40.6638 24.256C40.6638 24.124 40.6578 24.01 40.6458 23.914C40.6458 23.806 40.6338 23.71 40.6098 23.626C40.6818 23.566 40.7778 23.518 40.8978 23.482C41.0298 23.446 41.1678 23.428 41.3118 23.428C41.5878 23.428 41.8518 23.518 42.1038 23.698C42.3558 23.866 42.4818 24.178 42.4818 24.634C42.4818 24.718 42.4518 24.91 42.3918 25.21C42.3438 25.498 42.2778 25.84 42.1938 26.236C42.1218 26.632 42.0438 27.034 41.9598 27.442C41.8878 27.838 41.8218 28.186 41.7618 28.486C41.4618 29.938 41.2158 31.12 41.0238 32.032C40.8438 32.944 40.6998 33.664 40.5918 34.192C40.4958 34.708 40.4238 35.092 40.3758 35.344C40.3398 35.584 40.3158 35.752 40.3038 35.848C40.2918 35.932 40.2858 36.01 40.2858 36.082C40.2858 36.25 40.3218 36.382 40.3938 36.478C40.4778 36.562 40.5978 36.61 40.7538 36.622C40.7178 36.79 40.6458 36.928 40.5378 37.036C40.4298 37.144 40.3038 37.222 40.1598 37.27C40.0158 37.33 39.8598 37.36 39.6918 37.36ZM45.3171 37.36C44.7291 37.36 44.2491 37.216 43.8771 36.928C43.5171 36.628 43.2531 36.226 43.0851 35.722C42.9171 35.218 42.8331 34.642 42.8331 33.994C42.8331 33.106 42.9471 32.272 43.1751 31.492C43.4151 30.7 43.7511 30.004 44.1831 29.404C44.6151 28.792 45.1251 28.318 45.7131 27.982C46.3011 27.634 46.9431 27.46 47.6391 27.46C48.2151 27.46 48.8331 27.586 49.4931 27.838L51.0591 27.64L49.5831 35.326C49.5711 35.434 49.5531 35.56 49.5291 35.704C49.5051 35.848 49.4931 35.974 49.4931 36.082C49.4931 36.25 49.5291 36.382 49.6011 36.478C49.6851 36.562 49.8051 36.61 49.9611 36.622C49.9131 36.79 49.8351 36.928 49.7271 37.036C49.6191 37.144 49.4931 37.222 49.3491 37.27C49.2051 37.33 49.0431 37.36 48.8631 37.36C48.5511 37.36 48.2931 37.27 48.0891 37.09C47.8971 36.922 47.7951 36.67 47.7831 36.334C47.4711 36.634 47.1051 36.88 46.6851 37.072C46.2651 37.264 45.8091 37.36 45.3171 37.36ZM46.0371 36.298C46.5171 36.298 46.9071 36.142 47.2071 35.83C47.5191 35.506 47.7651 35.11 47.9451 34.642C48.1251 34.162 48.2571 33.7 48.3411 33.256L49.1151 29.152C48.8631 28.948 48.5931 28.798 48.3051 28.702C48.0171 28.594 47.7531 28.54 47.5131 28.54C47.1411 28.54 46.7991 28.636 46.4871 28.828C46.1871 29.02 45.9171 29.29 45.6771 29.638C45.4491 29.986 45.2511 30.4 45.0831 30.88C44.9271 31.348 44.8071 31.864 44.7231 32.428C44.6511 32.98 44.6151 33.556 44.6151 34.156C44.6151 34.756 44.7111 35.266 44.9031 35.686C45.1071 36.094 45.4851 36.298 46.0371 36.298ZM54.1014 37.126C54.0774 37.066 54.0534 36.982 54.0294 36.874C54.0054 36.754 53.9934 36.652 53.9934 36.568C53.9934 36.256 54.0954 36.016 54.2994 35.848C54.5034 35.68 54.8454 35.596 55.3254 35.596H57.4314L59.1054 27.136L59.0694 27.118C58.6254 27.334 58.2234 27.52 57.8634 27.676C57.5154 27.832 57.1614 27.91 56.8014 27.91C56.4414 27.91 56.1774 27.784 56.0094 27.532C55.8534 27.268 55.7514 26.968 55.7034 26.632C56.2794 26.524 56.8254 26.398 57.3414 26.254C57.8694 26.11 58.4034 25.93 58.9434 25.714C59.4954 25.486 60.1014 25.204 60.7614 24.868L61.1574 25.03L59.0514 35.65C59.5914 35.662 60.0534 35.68 60.4374 35.704C60.8334 35.716 61.2534 35.698 61.6974 35.65C61.8414 35.902 61.9134 36.112 61.9134 36.28C61.9134 36.544 61.8114 36.748 61.6074 36.892C61.4154 37.036 61.1034 37.108 60.6714 37.108C60.0594 37.108 59.5374 37.102 59.1054 37.09C58.6734 37.078 58.2714 37.066 57.8994 37.054C57.5394 37.042 57.1494 37.03 56.7294 37.018C56.3214 37.006 55.8354 37 55.2714 37C55.0314 37 54.8034 37.012 54.5874 37.036C54.3834 37.072 54.2214 37.102 54.1014 37.126Z" fill="#35609D"/>
<path d="M275.213 17.9495L273.32 19.2119L270.163 18.5807L268.27 17.9495L265.745 18.5807L263.851 17.9495L265.114 15.4246H267.638L270.113 14.1874C272.021 15.1311 273.748 16.4049 275.213 17.9495Z" fill="#5987C6"/>
<path d="M260.695 15.4246L260.064 17.3183L258.17 17.9495L256.276 21.1056L253.12 22.9993L248.702 23.6305V25.5242L249.964 26.7866V29.3115L248.07 28.049L246.177 26.7866L245.078 23.4854C246.969 18.9803 250.583 15.4189 255.115 13.5941L256.907 14.7934L260.695 15.4246Z" fill="#5987C6"/>
<path d="M261.957 33.0987L261.326 36.2547L258.801 38.7796V40.6733L256.276 42.5669V45.723L254.383 45.0918L253.12 41.9357V35.6235L249.964 34.9923L248.702 32.4675V30.5738L249.964 29.3114L251.858 27.4177L253.12 29.9426H257.539L259.432 33.0987H261.957Z" fill="#5987C6"/>
<path d="M277.927 21.6295C281.373 27.777 280.98 35.3573 276.917 41.1152L275.213 39.4109V36.886L273.95 34.3611L272.688 31.8362V29.3114L270.794 28.049L268.269 28.6802L263.851 26.7865L263.22 22.368L265.113 20.4743H268.901L270.163 22.368L273.95 22.9992L277.738 21.7368L277.927 21.6295Z" fill="#5987C6"/>
<path d="M265.745 18.5807L268.27 17.9495L270.163 18.5807L273.319 19.2119L275.213 17.9495C276.27 19.056 277.182 20.2926 277.927 21.6295L277.738 21.7368L273.951 22.9992L270.163 22.368L268.901 20.4743H265.114L263.22 22.368L263.851 26.7865L268.27 28.6802L270.795 28.049L272.688 29.3114V31.8363L273.951 34.3611L275.213 36.886V39.4109L276.917 41.1152C271.088 49.3753 259.666 51.3453 251.407 45.516C244.392 40.5647 241.76 31.4038 245.079 23.4853L246.177 26.7865L248.071 28.0489L249.964 29.3113L248.702 30.5738V32.4675L249.964 34.9923L253.12 35.6235V41.9357L254.383 45.0918L256.276 45.723V42.5669L258.801 40.6732V38.7796L261.326 36.2547L261.957 33.0986H259.433L257.539 29.9425H253.12L251.858 27.4176L249.964 29.3113V26.7864L248.702 25.5241V23.6304L253.12 22.9992L256.276 21.1055L258.17 17.9494L260.064 17.3182L260.695 15.4245L256.908 14.7933L255.115 13.594C259.969 11.6391 265.428 11.855 270.113 14.1874L267.638 15.4245H265.113L263.851 17.9494L265.745 18.5807Z" fill="#BDCFE8"/>
<path d="M261.923 11C254.354 10.9989 247.514 15.5106 244.534 22.4686L244.299 22.5467L244.39 22.821C240.468 32.4952 245.13 43.5175 254.804 47.44C257.064 48.3561 259.479 48.8264 261.918 48.8251C272.363 48.8266 280.831 40.3604 280.833 29.9154C280.835 19.4703 272.368 11.0015 261.923 11ZM276.758 39.4479L275.787 38.4774V36.2167C275.788 36.1191 275.766 36.0227 275.724 35.9349L273.265 31.0246V28.6517C273.265 28.441 273.16 28.2441 272.985 28.1272L271.093 26.8664C270.945 26.7674 270.762 26.7358 270.589 26.7794L268.273 27.3581L264.383 25.6887L263.847 21.939L265.331 20.4563H268.515L269.587 22.067C269.683 22.2118 269.836 22.3102 270.008 22.3387L273.79 22.9691C273.892 22.9861 273.995 22.9779 274.093 22.9452L277.577 21.7839C280.498 27.3911 280.186 34.1351 276.758 39.4479ZM274.158 17.2121L273.133 17.8955L270.275 17.3237L268.421 16.7065C268.307 16.668 268.185 16.6631 268.069 16.6927L265.725 17.2783L264.698 16.936L265.459 15.4129H267.591C267.689 15.413 267.786 15.3904 267.873 15.3467L270.054 14.2561C271.556 15.0402 272.938 16.0356 274.158 17.2121ZM255.013 13.6686L256.526 14.6772C256.6 14.7267 256.684 14.7598 256.772 14.7743L259.827 15.2837L259.529 16.1757L257.937 16.7072C257.795 16.7546 257.674 16.8514 257.596 16.9801L255.785 19.9973L252.877 21.7423L248.591 22.3545C248.28 22.3983 248.049 22.6641 248.048 22.9779V24.8692C248.048 25.0364 248.115 25.1967 248.233 25.3149L249.309 26.391V27.4741L246.687 25.7253L245.735 22.8714C247.545 18.7359 250.863 15.4451 255.013 13.6686ZM253.218 34.3381L250.368 33.7675L249.309 31.655V30.1735L251.658 27.8246L252.528 29.5639C252.634 29.7776 252.853 29.9126 253.092 29.9125H257.148L258.856 32.7589C258.97 32.9485 259.175 33.0645 259.396 33.0646H261.148L260.707 35.2755L258.32 37.6623C258.202 37.7804 258.135 37.9407 258.135 38.108V39.684L255.866 41.3861C255.707 41.5052 255.613 41.692 255.613 41.8905V44.1675L254.829 43.9078L253.722 41.139V34.9559C253.722 34.6563 253.511 34.398 253.218 34.3381ZM251.323 44.0292C245.379 39.5699 242.865 31.8649 245.036 24.7582L245.559 26.3292C245.604 26.4622 245.691 26.5767 245.807 26.6545L248.95 28.7494L248.233 29.4668C248.115 29.585 248.048 29.7453 248.048 29.9125V31.8038C248.048 31.9016 248.071 31.998 248.115 32.0856L249.375 34.6073C249.463 34.7814 249.626 34.9054 249.817 34.9433L252.464 35.4722V41.26C252.464 41.3401 252.48 41.4195 252.509 41.4939L253.77 44.646C253.839 44.8182 253.98 44.9513 254.156 45.0098L256.048 45.6402C256.111 45.6616 256.177 45.6727 256.244 45.673C256.592 45.673 256.874 45.3907 256.874 45.0426V42.2057L259.144 40.5035C259.302 40.3845 259.396 40.1976 259.396 39.9992V38.369L261.733 36.032C261.821 35.944 261.881 35.8318 261.905 35.7099L262.535 32.5578C262.604 32.2163 262.382 31.8842 262.041 31.816C262 31.8079 261.959 31.8038 261.918 31.8038H259.753L258.045 28.9574C257.931 28.7678 257.726 28.6518 257.505 28.6517H253.481L252.398 26.4786C252.308 26.2972 252.135 26.1705 251.935 26.1382C251.735 26.1036 251.53 26.1697 251.388 26.3147L250.57 27.1299V26.13C250.57 25.9628 250.504 25.8025 250.385 25.6843L249.309 24.6082V23.5245L253.181 22.9716C253.264 22.9596 253.344 22.931 253.416 22.8878L256.568 20.9965C256.657 20.9434 256.731 20.8693 256.784 20.7809L258.556 17.8287L260.226 17.2714C260.414 17.2095 260.562 17.0616 260.624 16.873L261.254 14.9817C261.364 14.6511 261.184 14.2946 260.854 14.1853C260.823 14.1753 260.792 14.1675 260.76 14.1622L257.111 13.5538L256.47 13.1264C260.437 11.8351 264.734 11.995 268.594 13.5771L267.443 14.1521H265.07C264.83 14.1507 264.61 14.286 264.502 14.5007L263.241 17.0224C263.086 17.334 263.213 17.7125 263.524 17.8678C263.551 17.8811 263.578 17.8924 263.606 17.9018L265.498 18.5322C265.611 18.5708 265.733 18.5757 265.849 18.5461L268.193 17.9604L269.911 18.5322C269.935 18.5411 269.961 18.5478 269.986 18.5524L273.138 19.1828C273.302 19.2162 273.473 19.1827 273.612 19.0895L275.047 18.1325C275.753 18.9191 276.387 19.767 276.943 20.6662L273.841 21.7001L270.483 21.1403L269.374 19.476C269.257 19.3016 269.062 19.1965 268.852 19.1954H265.07C264.902 19.1954 264.742 19.2619 264.624 19.3801L262.733 21.2714C262.592 21.4117 262.526 21.6101 262.554 21.8066L263.185 26.2195C263.216 26.4377 263.36 26.6235 263.563 26.7094L267.976 28.6006C268.102 28.6554 268.243 28.6667 268.377 28.6328L270.628 28.0698L272.004 28.989V31.1734C272.003 31.2709 272.025 31.3674 272.067 31.4552L274.526 36.3655V38.7384C274.526 38.9056 274.592 39.0659 274.711 39.1841L276.029 40.5035C270.181 48.2997 259.119 49.8783 251.323 44.0292Z" fill="#35609D"/>
</svg>
