<svg width="299" height="60" viewBox="0 0 299 60" fill="none" xmlns="http://www.w3.org/2000/svg">
<rect opacity="0.5" width="299" height="60" rx="30" fill="#DDBDDF"/>
<path d="M26.398 35.36C26.026 35.36 25.756 35.216 25.588 34.928C25.432 34.628 25.336 34.22 25.3 33.704C25.264 33.188 25.246 32.6 25.246 31.94H21.826L20.404 35H18.406L24.328 23.12H26.632C26.728 25.556 26.8 27.596 26.848 29.24C26.896 30.872 26.962 32.132 27.046 33.02C27.142 33.896 27.298 34.424 27.514 34.604C27.454 34.82 27.316 35 27.1 35.144C26.884 35.288 26.65 35.36 26.398 35.36ZM22.42 30.698H25.246L25.102 24.362L22.42 30.698ZM31.9239 35.36C31.3239 35.36 30.8499 35.24 30.5019 35C30.1659 34.76 29.9259 34.442 29.7819 34.046C29.6499 33.638 29.5839 33.2 29.5839 32.732C29.5839 32.36 29.6319 31.892 29.7279 31.328C29.8239 30.764 29.9679 30.038 30.1599 29.15C30.3519 28.262 30.5979 27.152 30.8979 25.82L32.4639 25.64C32.1999 26.84 31.9839 27.83 31.8159 28.61C31.6599 29.378 31.5339 30.008 31.4379 30.5C31.3539 30.98 31.2939 31.376 31.2579 31.688C31.2339 31.988 31.2219 32.27 31.2219 32.534C31.2219 32.822 31.2579 33.104 31.3299 33.38C31.4139 33.644 31.5519 33.866 31.7439 34.046C31.9479 34.214 32.2179 34.298 32.5539 34.298C33.0099 34.298 33.3879 34.148 33.6879 33.848C33.9999 33.536 34.2459 33.146 34.4259 32.678C34.6179 32.21 34.7559 31.736 34.8399 31.256L35.9199 25.82L37.5579 25.64L36.0639 33.326C36.0519 33.434 36.0339 33.56 36.0099 33.704C35.9859 33.848 35.9739 33.974 35.9739 34.082C35.9739 34.25 36.0099 34.382 36.0819 34.478C36.1659 34.562 36.2859 34.61 36.4419 34.622C36.4059 34.79 36.3339 34.928 36.2259 35.036C36.1179 35.144 35.9919 35.222 35.8479 35.27C35.7039 35.33 35.5419 35.36 35.3619 35.36C35.0379 35.36 34.7799 35.27 34.5879 35.09C34.4079 34.922 34.2999 34.67 34.2639 34.334C34.0359 34.706 33.6939 34.97 33.2379 35.126C32.7939 35.282 32.3559 35.36 31.9239 35.36ZM39.6918 35.36C39.3558 35.36 39.0978 35.264 38.9178 35.072C38.7378 34.88 38.6478 34.622 38.6478 34.298C38.6478 34.202 38.6538 34.1 38.6658 33.992C38.6778 33.872 38.6958 33.71 38.7198 33.506C38.7558 33.302 38.8098 33.02 38.8818 32.66C38.9538 32.3 39.0438 31.838 39.1518 31.274C39.2718 30.698 39.4158 29.99 39.5838 29.15C39.7638 28.298 39.9738 27.284 40.2138 26.108C40.3338 25.436 40.4358 24.746 40.5198 24.038C40.6158 23.33 40.6638 22.736 40.6638 22.256C40.6638 22.124 40.6578 22.01 40.6458 21.914C40.6458 21.806 40.6338 21.71 40.6098 21.626C40.6818 21.566 40.7778 21.518 40.8978 21.482C41.0298 21.446 41.1678 21.428 41.3118 21.428C41.5878 21.428 41.8518 21.518 42.1038 21.698C42.3558 21.866 42.4818 22.178 42.4818 22.634C42.4818 22.718 42.4518 22.91 42.3918 23.21C42.3438 23.498 42.2778 23.84 42.1938 24.236C42.1218 24.632 42.0438 25.034 41.9598 25.442C41.8878 25.838 41.8218 26.186 41.7618 26.486C41.4618 27.938 41.2158 29.12 41.0238 30.032C40.8438 30.944 40.6998 31.664 40.5918 32.192C40.4958 32.708 40.4238 33.092 40.3758 33.344C40.3398 33.584 40.3158 33.752 40.3038 33.848C40.2918 33.932 40.2858 34.01 40.2858 34.082C40.2858 34.25 40.3218 34.382 40.3938 34.478C40.4778 34.562 40.5978 34.61 40.7538 34.622C40.7178 34.79 40.6458 34.928 40.5378 35.036C40.4298 35.144 40.3038 35.222 40.1598 35.27C40.0158 35.33 39.8598 35.36 39.6918 35.36ZM45.3171 35.36C44.7291 35.36 44.2491 35.216 43.8771 34.928C43.5171 34.628 43.2531 34.226 43.0851 33.722C42.9171 33.218 42.8331 32.642 42.8331 31.994C42.8331 31.106 42.9471 30.272 43.1751 29.492C43.4151 28.7 43.7511 28.004 44.1831 27.404C44.6151 26.792 45.1251 26.318 45.7131 25.982C46.3011 25.634 46.9431 25.46 47.6391 25.46C48.2151 25.46 48.8331 25.586 49.4931 25.838L51.0591 25.64L49.5831 33.326C49.5711 33.434 49.5531 33.56 49.5291 33.704C49.5051 33.848 49.4931 33.974 49.4931 34.082C49.4931 34.25 49.5291 34.382 49.6011 34.478C49.6851 34.562 49.8051 34.61 49.9611 34.622C49.9131 34.79 49.8351 34.928 49.7271 35.036C49.6191 35.144 49.4931 35.222 49.3491 35.27C49.2051 35.33 49.0431 35.36 48.8631 35.36C48.5511 35.36 48.2931 35.27 48.0891 35.09C47.8971 34.922 47.7951 34.67 47.7831 34.334C47.4711 34.634 47.1051 34.88 46.6851 35.072C46.2651 35.264 45.8091 35.36 45.3171 35.36ZM46.0371 34.298C46.5171 34.298 46.9071 34.142 47.2071 33.83C47.5191 33.506 47.7651 33.11 47.9451 32.642C48.1251 32.162 48.2571 31.7 48.3411 31.256L49.1151 27.152C48.8631 26.948 48.5931 26.798 48.3051 26.702C48.0171 26.594 47.7531 26.54 47.5131 26.54C47.1411 26.54 46.7991 26.636 46.4871 26.828C46.1871 27.02 45.9171 27.29 45.6771 27.638C45.4491 27.986 45.2511 28.4 45.0831 28.88C44.9271 29.348 44.8071 29.864 44.7231 30.428C44.6511 30.98 44.6151 31.556 44.6151 32.156C44.6151 32.756 44.7111 33.266 44.9031 33.686C45.1071 34.094 45.4851 34.298 46.0371 34.298ZM57.4134 35.342C56.9814 35.342 56.5674 35.288 56.1714 35.18C55.7874 35.084 55.4454 34.934 55.1454 34.73C54.8454 34.526 54.6054 34.28 54.4254 33.992C54.2574 33.704 54.1734 33.374 54.1734 33.002C54.1734 32.618 54.2934 32.348 54.5334 32.192C54.8694 32.72 55.2954 33.128 55.8114 33.416C56.3394 33.704 56.9454 33.848 57.6294 33.848C58.4934 33.848 59.1954 33.608 59.7354 33.128C60.2874 32.648 60.5634 32.006 60.5634 31.202C60.5634 30.746 60.4434 30.362 60.2034 30.05C59.9634 29.738 59.6154 29.504 59.1594 29.348C58.7034 29.192 58.1454 29.114 57.4854 29.114C57.1374 29.114 56.7414 29.132 56.2974 29.168C55.8534 29.204 55.4994 29.24 55.2354 29.276L56.6394 23.12H61.9854C62.1294 23.12 62.2674 23.108 62.3994 23.084C62.5314 23.06 62.6514 23 62.7594 22.904C62.8314 23 62.8854 23.114 62.9214 23.246C62.9694 23.366 62.9934 23.498 62.9934 23.642C62.9934 23.846 62.9454 24.026 62.8494 24.182C62.7534 24.326 62.6094 24.44 62.4174 24.524C62.2254 24.596 61.9914 24.632 61.7154 24.632H57.5034L56.8554 27.818C57.0114 27.818 57.1854 27.818 57.3774 27.818C57.5694 27.806 57.7854 27.8 58.0254 27.8C58.9854 27.8 59.7774 27.914 60.4014 28.142C61.0254 28.37 61.4934 28.718 61.8054 29.186C62.1174 29.642 62.2734 30.224 62.2734 30.932C62.2734 31.772 62.0574 32.528 61.6254 33.2C61.2054 33.86 60.6294 34.382 59.8974 34.766C59.1654 35.15 58.3374 35.342 57.4134 35.342Z" fill="#882F87"/>
<path d="M263.564 36.351C262.421 35.9676 261.59 34.8987 261.59 33.6281C261.59 32.0378 262.883 30.7441 264.474 30.7441C266.064 30.7441 267.357 32.0378 267.357 33.6281C267.357 34.8569 266.582 35.9011 265.497 36.3157C265.763 37.9943 266.891 39.3724 268.415 39.9919C269.856 38.8372 271.203 36.2768 271.203 33.6281C271.203 29.9366 268.876 26.7836 265.608 25.5338C266.935 24.0534 267.357 21.5412 267.357 20.0416V19.3495L266.704 19.1379C264.204 18.292 262.57 17.0616 261.128 15.9657C259.321 14.6006 257.61 13.3125 254.86 13.3125H250.054V14.2738C250.054 17.2538 250.554 19.7532 251.034 22.1564C251.515 24.579 251.977 26.9951 251.977 29.7828C251.977 32.2629 251.227 33.9356 250.342 35.8967C249.304 38.2039 248.003 40.8378 248.003 45.1637V46.125H263.512V42.222C264.627 42.1067 265.685 41.7606 266.665 41.2224C264.977 40.182 263.808 38.4141 263.564 36.351Z" fill="#AB74AE"/>
<path d="M278.924 18.2891C278.358 18.2891 277.898 18.7481 277.898 19.3145C277.898 19.8808 278.358 20.3398 278.924 20.3398C279.49 20.3398 279.949 20.7989 279.949 21.3652V23.416C279.949 25.1122 278.569 26.4922 276.873 26.4922C275.177 26.4922 273.797 25.1122 273.797 23.416V20.3398H274.822C275.389 20.3398 275.848 19.8808 275.848 19.3145C275.848 18.7481 275.389 18.2891 274.822 18.2891H273.797C272.664 18.2891 271.746 19.2072 271.746 20.3398V23.416C271.746 25.892 273.51 27.9634 275.848 28.4398V35.7207C275.848 38.5477 273.548 40.8477 270.721 40.8477C270.03 40.8477 269.372 40.7096 268.77 40.461C270.569 38.819 271.746 36.3655 271.746 33.6699C271.746 29.7324 269.267 26.3628 265.788 25.0399C266.328 24.4389 266.764 23.6591 267.079 22.7149C267.638 21.0382 267.645 19.384 267.645 19.3145C267.645 18.8731 267.362 18.4813 266.943 18.3417C264.273 17.4517 262.529 16.0976 260.991 14.903C259.068 13.4101 257.252 12 254.314 12H249.188V13.0254C249.188 16.2018 249.719 18.8929 250.232 21.4955C250.75 24.1166 251.238 26.5924 251.238 29.5684C251.238 32.1978 250.406 33.9961 249.442 36.0782C248.297 38.5505 247 41.3527 247 45.9746V47H263.543V42.8418C264.724 42.7108 265.859 42.3538 266.897 41.7927C268.005 42.4927 269.316 42.8984 270.721 42.8984C274.679 42.8984 277.898 39.6785 277.898 35.7207V28.4398C280.236 27.9635 282 25.892 282 23.416V20.3398C282 19.2072 281.082 18.2891 279.949 18.2891H278.924ZM262.518 40.8477H261.492V44.9492H249.075C249.245 41.3857 250.29 39.1285 251.303 36.9398C252.324 34.7335 253.289 32.6495 253.289 29.5684C253.289 26.392 252.758 23.7009 252.244 21.0983C251.787 18.784 251.353 16.5827 251.258 14.0508H254.314C256.55 14.0508 257.885 15.0877 259.733 16.5228C260.965 17.4791 262.318 18.5296 264.15 19.4168C264.961 19.8094 265.515 20.6502 265.294 21.5235C264.942 22.912 264.178 24.4414 262.518 24.4414V26.4922C266.475 26.4922 269.695 29.7121 269.695 33.6699C269.695 35.8785 268.678 37.9338 267.018 39.2614C266.317 38.5286 265.83 37.5896 265.661 36.5449C266.819 36.1032 267.645 34.9815 267.645 33.6699C267.645 31.9737 266.265 30.5938 264.568 30.5938C262.872 30.5938 261.492 31.9737 261.492 33.6699C261.492 35.0261 262.375 36.1793 263.595 36.5875C263.766 37.9979 264.347 39.2835 265.216 40.3209C264.366 40.6664 263.454 40.8477 262.518 40.8477ZM263.543 33.6699C263.543 33.1045 264.003 32.6445 264.568 32.6445C265.134 32.6445 265.594 33.1045 265.594 33.6699C265.594 34.2353 265.134 34.6953 264.568 34.6953C264.003 34.6953 263.543 34.2353 263.543 33.6699Z" fill="#882F87"/>
</svg>
