<svg width="299" height="60" viewBox="0 0 299 60" fill="none" xmlns="http://www.w3.org/2000/svg">
<rect opacity="0.5" width="299" height="60" rx="30" fill="#FAFAC8"/>
<path opacity="0.8" d="M33.398 35.36C33.026 35.36 32.756 35.216 32.588 34.928C32.432 34.628 32.336 34.22 32.3 33.704C32.264 33.188 32.246 32.6 32.246 31.94H28.826L27.404 35H25.406L31.328 23.12H33.632C33.728 25.556 33.8 27.596 33.848 29.24C33.896 30.872 33.962 32.132 34.046 33.02C34.142 33.896 34.298 34.424 34.514 34.604C34.454 34.82 34.316 35 34.1 35.144C33.884 35.288 33.65 35.36 33.398 35.36ZM29.42 30.698H32.246L32.102 24.362L29.42 30.698ZM38.0059 35.18C37.9579 35.18 37.9039 35.18 37.8439 35.18C37.7959 35.18 37.7419 35.174 37.6819 35.162C37.6579 34.178 37.6279 33.218 37.5919 32.282C37.5559 31.346 37.5079 30.47 37.4479 29.654C37.3879 28.838 37.3099 28.13 37.2139 27.53C37.1539 27.062 37.0759 26.708 36.9799 26.468C36.8839 26.228 36.7159 26.042 36.4759 25.91C36.5599 25.766 36.6859 25.658 36.8539 25.586C37.0339 25.502 37.2559 25.46 37.5199 25.46C38.0599 25.46 38.4259 25.628 38.6179 25.964C38.8219 26.3 38.9539 26.822 39.0139 27.53C39.0379 27.734 39.0559 28.01 39.0679 28.358C39.0919 28.706 39.1099 29.162 39.1219 29.726C39.1339 30.29 39.1399 31.022 39.1399 31.922C39.1399 32.186 39.1399 32.474 39.1399 32.786C39.1399 33.086 39.1339 33.398 39.1219 33.722C39.4579 33.266 39.7939 32.762 40.1299 32.21C40.4659 31.646 40.7719 31.064 41.0479 30.464C41.3359 29.864 41.5639 29.264 41.7319 28.664C41.8999 28.064 41.9839 27.494 41.9839 26.954C41.9839 26.786 41.9719 26.618 41.9479 26.45C41.9359 26.27 41.9059 26.09 41.8579 25.91C42.0019 25.778 42.1939 25.67 42.4339 25.586C42.6739 25.502 42.9139 25.46 43.1539 25.46C43.4059 25.46 43.5919 25.508 43.7119 25.604C43.8319 25.688 43.9099 25.814 43.9459 25.982C43.9819 26.138 43.9999 26.33 43.9999 26.558C43.9999 27.098 43.8979 27.692 43.6939 28.34C43.5019 28.988 43.2439 29.63 42.9199 30.266C42.5959 30.89 42.2479 31.466 41.8759 31.994C41.1079 33.05 40.4299 33.848 39.8419 34.388C39.2539 34.916 38.6419 35.18 38.0059 35.18ZM46.8503 35.36C46.2623 35.36 45.7823 35.216 45.4103 34.928C45.0503 34.628 44.7863 34.226 44.6183 33.722C44.4503 33.218 44.3663 32.642 44.3663 31.994C44.3663 31.106 44.4803 30.272 44.7083 29.492C44.9483 28.7 45.2843 28.004 45.7163 27.404C46.1483 26.792 46.6583 26.318 47.2463 25.982C47.8343 25.634 48.4763 25.46 49.1723 25.46C49.7483 25.46 50.3663 25.586 51.0263 25.838L52.5923 25.64L51.1163 33.326C51.1043 33.434 51.0863 33.56 51.0623 33.704C51.0383 33.848 51.0263 33.974 51.0263 34.082C51.0263 34.25 51.0623 34.382 51.1343 34.478C51.2183 34.562 51.3383 34.61 51.4943 34.622C51.4463 34.79 51.3683 34.928 51.2603 35.036C51.1523 35.144 51.0263 35.222 50.8823 35.27C50.7383 35.33 50.5763 35.36 50.3963 35.36C50.0843 35.36 49.8263 35.27 49.6223 35.09C49.4303 34.922 49.3283 34.67 49.3163 34.334C49.0043 34.634 48.6383 34.88 48.2183 35.072C47.7983 35.264 47.3423 35.36 46.8503 35.36ZM47.5703 34.298C48.0503 34.298 48.4403 34.142 48.7403 33.83C49.0523 33.506 49.2983 33.11 49.4783 32.642C49.6583 32.162 49.7903 31.7 49.8743 31.256L50.6483 27.152C50.3963 26.948 50.1263 26.798 49.8383 26.702C49.5503 26.594 49.2863 26.54 49.0463 26.54C48.6743 26.54 48.3323 26.636 48.0203 26.828C47.7203 27.02 47.4503 27.29 47.2103 27.638C46.9823 27.986 46.7843 28.4 46.6163 28.88C46.4603 29.348 46.3403 29.864 46.2563 30.428C46.1843 30.98 46.1483 31.556 46.1483 32.156C46.1483 32.756 46.2443 33.266 46.4363 33.686C46.6403 34.094 47.0183 34.298 47.5703 34.298ZM54.4965 35.36C54.1605 35.36 53.9025 35.264 53.7225 35.072C53.5425 34.88 53.4525 34.622 53.4525 34.298C53.4525 34.202 53.4585 34.1 53.4705 33.992C53.4825 33.872 53.5005 33.71 53.5245 33.506C53.5605 33.302 53.6145 33.02 53.6865 32.66C53.7585 32.3 53.8485 31.838 53.9565 31.274C54.0765 30.698 54.2205 29.99 54.3885 29.15C54.5685 28.298 54.7785 27.284 55.0185 26.108C55.1385 25.436 55.2405 24.746 55.3245 24.038C55.4205 23.33 55.4685 22.736 55.4685 22.256C55.4685 22.124 55.4625 22.01 55.4505 21.914C55.4505 21.806 55.4385 21.71 55.4145 21.626C55.4865 21.566 55.5825 21.518 55.7025 21.482C55.8345 21.446 55.9725 21.428 56.1165 21.428C56.3925 21.428 56.6565 21.518 56.9085 21.698C57.1605 21.866 57.2865 22.178 57.2865 22.634C57.2865 22.718 57.2565 22.91 57.1965 23.21C57.1485 23.498 57.0825 23.84 56.9985 24.236C56.9265 24.632 56.8485 25.034 56.7645 25.442C56.6925 25.838 56.6265 26.186 56.5665 26.486C56.2665 27.938 56.0205 29.12 55.8285 30.032C55.6485 30.944 55.5045 31.664 55.3965 32.192C55.3005 32.708 55.2285 33.092 55.1805 33.344C55.1445 33.584 55.1205 33.752 55.1085 33.848C55.0965 33.932 55.0905 34.01 55.0905 34.082C55.0905 34.25 55.1265 34.382 55.1985 34.478C55.2825 34.562 55.4025 34.61 55.5585 34.622C55.5225 34.79 55.4505 34.928 55.3425 35.036C55.2345 35.144 55.1085 35.222 54.9645 35.27C54.8205 35.33 54.6645 35.36 54.4965 35.36ZM58.5918 35.36C58.2558 35.36 57.9978 35.264 57.8178 35.072C57.6498 34.88 57.5658 34.622 57.5658 34.298C57.5658 34.178 57.5718 34.04 57.5838 33.884C57.6078 33.716 57.6318 33.548 57.6558 33.38C57.6918 33.2 57.7218 33.032 57.7458 32.876C57.7818 32.72 57.8118 32.582 57.8358 32.462L59.1858 25.82L60.8418 25.64L59.2938 33.326C59.2818 33.422 59.2638 33.548 59.2398 33.704C59.2158 33.86 59.2038 33.986 59.2038 34.082C59.2038 34.25 59.2398 34.382 59.3118 34.478C59.3958 34.562 59.5158 34.61 59.6718 34.622C59.6118 34.874 59.4798 35.06 59.2758 35.18C59.0718 35.3 58.8438 35.36 58.5918 35.36ZM60.4458 24.2C60.1098 24.2 59.8278 24.116 59.5998 23.948C59.3838 23.768 59.2758 23.504 59.2758 23.156C59.2758 22.784 59.3898 22.514 59.6178 22.346C59.8578 22.166 60.1458 22.076 60.4818 22.076C60.8298 22.076 61.1178 22.166 61.3458 22.346C61.5738 22.514 61.6878 22.772 61.6878 23.12C61.6878 23.492 61.5678 23.768 61.3278 23.948C61.0878 24.116 60.7938 24.2 60.4458 24.2ZM65.13 35.36C64.458 35.36 63.882 35.234 63.402 34.982C62.934 34.718 62.574 34.328 62.322 33.812C62.082 33.296 61.962 32.642 61.962 31.85C61.962 31.094 62.064 30.338 62.268 29.582C62.472 28.826 62.778 28.142 63.186 27.53C63.594 26.906 64.11 26.408 64.734 26.036C65.37 25.652 66.114 25.46 66.966 25.46C67.422 25.46 67.824 25.526 68.172 25.658C68.52 25.79 68.79 26.006 68.982 26.306C69.186 26.594 69.288 26.984 69.288 27.476C69.288 28.196 69.072 28.802 68.64 29.294C68.208 29.786 67.644 30.152 66.948 30.392C66.264 30.632 65.532 30.746 64.752 30.734C64.596 30.734 64.422 30.728 64.23 30.716C64.038 30.704 63.888 30.692 63.78 30.68C63.768 30.896 63.756 31.106 63.744 31.31C63.732 31.502 63.726 31.676 63.726 31.832C63.726 32.528 63.846 33.074 64.086 33.47C64.326 33.854 64.776 34.046 65.436 34.046C65.976 34.046 66.438 33.914 66.822 33.65C67.218 33.386 67.53 33.02 67.758 32.552C67.926 32.576 68.04 32.666 68.1 32.822C68.16 32.966 68.19 33.11 68.19 33.254C68.19 33.566 68.076 33.884 67.848 34.208C67.632 34.532 67.296 34.802 66.84 35.018C66.396 35.246 65.826 35.36 65.13 35.36ZM63.906 29.78C64.314 29.78 64.728 29.744 65.148 29.672C65.568 29.588 65.958 29.462 66.318 29.294C66.678 29.126 66.966 28.898 67.182 28.61C67.41 28.322 67.524 27.974 67.524 27.566C67.524 27.206 67.434 26.942 67.254 26.774C67.086 26.594 66.846 26.504 66.534 26.504C66.162 26.504 65.82 26.618 65.508 26.846C65.208 27.074 64.95 27.362 64.734 27.71C64.518 28.058 64.338 28.418 64.194 28.79C64.062 29.162 63.966 29.492 63.906 29.78ZM75.8502 35.36C75.2262 35.36 74.7222 35.258 74.3382 35.054C73.9542 34.85 73.6602 34.592 73.4562 34.28C73.2642 33.956 73.1322 33.62 73.0602 33.272C73.0002 32.912 72.9702 32.588 72.9702 32.3C72.9702 31.496 73.0602 30.692 73.2402 29.888C73.4322 29.084 73.7202 28.346 74.1042 27.674C74.5002 27.002 75.0102 26.468 75.6342 26.072C76.2702 25.664 77.0382 25.46 77.9382 25.46C78.5742 25.46 79.0782 25.562 79.4502 25.766C79.8342 25.97 80.1282 26.234 80.3322 26.558C80.5362 26.87 80.6682 27.206 80.7282 27.566C80.8002 27.914 80.8362 28.232 80.8362 28.52C80.8362 29.324 80.7402 30.134 80.5482 30.95C80.3682 31.754 80.0802 32.492 79.6842 33.164C79.2882 33.824 78.7722 34.358 78.1362 34.766C77.5122 35.162 76.7502 35.36 75.8502 35.36ZM76.2102 34.28C76.5942 34.28 76.9362 34.166 77.2362 33.938C77.5482 33.71 77.8182 33.404 78.0462 33.02C78.2742 32.624 78.4602 32.18 78.6042 31.688C78.7602 31.196 78.8742 30.686 78.9462 30.158C79.0182 29.618 79.0542 29.09 79.0542 28.574C79.0542 27.986 78.9462 27.5 78.7302 27.116C78.5262 26.732 78.1482 26.54 77.5962 26.54C77.2122 26.54 76.8642 26.654 76.5522 26.882C76.2402 27.11 75.9702 27.416 75.7422 27.8C75.5142 28.184 75.3222 28.622 75.1662 29.114C75.0222 29.606 74.9142 30.122 74.8422 30.662C74.7702 31.202 74.7342 31.73 74.7342 32.246C74.7342 32.834 74.8422 33.32 75.0582 33.704C75.2742 34.088 75.6582 34.28 76.2102 34.28ZM87.9062 35.36C86.8862 35.36 86.1362 35.066 85.6562 34.478C85.1882 33.89 84.9542 33.014 84.9542 31.85C84.9542 31.094 85.0502 30.344 85.2422 29.6C85.4462 28.844 85.7462 28.154 86.1422 27.53C86.5502 26.906 87.0602 26.408 87.6722 26.036C88.2842 25.652 89.0042 25.46 89.8322 25.46C90.3122 25.46 90.7322 25.532 91.0922 25.676C91.4642 25.82 91.7522 26.03 91.9562 26.306C92.1602 26.582 92.2622 26.924 92.2622 27.332C92.2622 27.848 92.1182 28.232 91.8302 28.484C91.5542 28.724 91.2482 28.844 90.9122 28.844C90.7922 28.844 90.6602 28.826 90.5162 28.79C90.3722 28.754 90.2582 28.682 90.1742 28.574C90.2342 28.406 90.2882 28.22 90.3362 28.016C90.3842 27.812 90.4082 27.632 90.4082 27.476C90.4082 27.164 90.3302 26.93 90.1742 26.774C90.0182 26.606 89.7902 26.522 89.4902 26.522C89.1182 26.522 88.7822 26.642 88.4822 26.882C88.1822 27.122 87.9182 27.44 87.6902 27.836C87.4742 28.232 87.2882 28.664 87.1322 29.132C86.9882 29.6 86.8802 30.068 86.8082 30.536C86.7362 31.004 86.7002 31.424 86.7002 31.796C86.7002 32.408 86.8202 32.936 87.0602 33.38C87.3122 33.824 87.7622 34.046 88.4102 34.046C88.9742 34.046 89.4362 33.878 89.7962 33.542C90.1562 33.194 90.4142 32.762 90.5702 32.246C90.7862 32.294 90.9422 32.402 91.0382 32.57C91.1342 32.726 91.1822 32.912 91.1822 33.128C91.1822 33.512 91.0442 33.878 90.7682 34.226C90.4922 34.562 90.1082 34.832 89.6162 35.036C89.1362 35.252 88.5662 35.36 87.9062 35.36ZM95.4024 35.36C94.8024 35.36 94.3284 35.24 93.9804 35C93.6444 34.76 93.4044 34.442 93.2604 34.046C93.1284 33.638 93.0624 33.2 93.0624 32.732C93.0624 32.36 93.1104 31.892 93.2064 31.328C93.3024 30.764 93.4464 30.038 93.6384 29.15C93.8304 28.262 94.0764 27.152 94.3764 25.82L95.9424 25.64C95.6784 26.84 95.4624 27.83 95.2944 28.61C95.1384 29.378 95.0124 30.008 94.9164 30.5C94.8324 30.98 94.7724 31.376 94.7364 31.688C94.7124 31.988 94.7004 32.27 94.7004 32.534C94.7004 32.822 94.7364 33.104 94.8084 33.38C94.8924 33.644 95.0304 33.866 95.2224 34.046C95.4264 34.214 95.6964 34.298 96.0324 34.298C96.4884 34.298 96.8664 34.148 97.1664 33.848C97.4784 33.536 97.7244 33.146 97.9044 32.678C98.0964 32.21 98.2344 31.736 98.3184 31.256L99.3984 25.82L101.036 25.64L99.5424 33.326C99.5304 33.434 99.5124 33.56 99.4884 33.704C99.4644 33.848 99.4524 33.974 99.4524 34.082C99.4524 34.25 99.4884 34.382 99.5604 34.478C99.6444 34.562 99.7644 34.61 99.9204 34.622C99.8844 34.79 99.8124 34.928 99.7044 35.036C99.5964 35.144 99.4704 35.222 99.3264 35.27C99.1824 35.33 99.0204 35.36 98.8404 35.36C98.5164 35.36 98.2584 35.27 98.0664 35.09C97.8864 34.922 97.7784 34.67 97.7424 34.334C97.5144 34.706 97.1724 34.97 96.7164 35.126C96.2724 35.282 95.8344 35.36 95.4024 35.36ZM102.234 35.18L104.016 25.82L105.42 25.64L105.222 27.224C105.438 26.732 105.774 26.318 106.23 25.982C106.686 25.634 107.184 25.46 107.724 25.46C108.288 25.46 108.69 25.634 108.93 25.982C109.17 26.33 109.29 26.732 109.29 27.188C109.29 27.74 109.14 28.226 108.84 28.646C108.552 29.066 108.168 29.276 107.688 29.276C107.568 29.276 107.436 29.252 107.292 29.204C107.16 29.156 107.058 29.072 106.986 28.952C107.118 28.772 107.226 28.556 107.31 28.304C107.406 28.04 107.454 27.8 107.454 27.584C107.454 27.344 107.394 27.164 107.274 27.044C107.166 26.912 106.998 26.846 106.77 26.846C106.446 26.846 106.17 26.966 105.942 27.206C105.714 27.434 105.528 27.722 105.384 28.07C105.24 28.418 105.12 28.778 105.024 29.15C104.94 29.51 104.874 29.816 104.826 30.068L103.944 35L102.234 35.18ZM111.71 35.396C111.362 35.396 111.014 35.354 110.666 35.27C110.33 35.198 110.024 35.084 109.748 34.928C109.472 34.772 109.25 34.58 109.082 34.352C108.926 34.112 108.848 33.842 108.848 33.542C108.848 33.194 108.938 32.93 109.118 32.75C109.298 32.558 109.508 32.426 109.748 32.354C109.988 32.27 110.198 32.228 110.378 32.228C110.486 32.228 110.588 32.24 110.684 32.264C110.792 32.288 110.876 32.342 110.936 32.426C110.876 32.582 110.816 32.732 110.756 32.876C110.708 33.02 110.684 33.182 110.684 33.362C110.684 33.662 110.804 33.908 111.044 34.1C111.284 34.28 111.608 34.37 112.016 34.37C112.472 34.37 112.856 34.244 113.168 33.992C113.48 33.74 113.636 33.41 113.636 33.002C113.636 32.69 113.564 32.414 113.42 32.174C113.276 31.934 113.084 31.718 112.844 31.526C112.616 31.322 112.37 31.124 112.106 30.932C111.782 30.704 111.464 30.464 111.152 30.212C110.84 29.96 110.576 29.672 110.36 29.348C110.156 29.012 110.054 28.61 110.054 28.142C110.054 27.71 110.162 27.326 110.378 26.99C110.594 26.654 110.876 26.372 111.224 26.144C111.584 25.916 111.98 25.748 112.412 25.64C112.844 25.52 113.276 25.46 113.708 25.46C114.092 25.46 114.476 25.514 114.86 25.622C115.244 25.718 115.562 25.892 115.814 26.144C116.066 26.384 116.192 26.72 116.192 27.152C116.192 27.608 116.048 27.962 115.76 28.214C115.484 28.466 115.196 28.592 114.896 28.592C114.788 28.592 114.662 28.58 114.518 28.556C114.386 28.532 114.272 28.478 114.176 28.394C114.26 28.226 114.326 28.064 114.374 27.908C114.422 27.74 114.446 27.572 114.446 27.404C114.446 27.104 114.332 26.876 114.104 26.72C113.888 26.564 113.588 26.486 113.204 26.486C112.784 26.486 112.43 26.6 112.142 26.828C111.854 27.044 111.71 27.35 111.71 27.746C111.71 28.01 111.764 28.25 111.872 28.466C111.992 28.67 112.142 28.862 112.322 29.042C112.514 29.222 112.724 29.396 112.952 29.564C113.312 29.816 113.678 30.08 114.05 30.356C114.422 30.62 114.734 30.926 114.986 31.274C115.238 31.622 115.364 32.054 115.364 32.57C115.364 33.158 115.178 33.668 114.806 34.1C114.446 34.52 113.984 34.838 113.42 35.054C112.856 35.282 112.286 35.396 111.71 35.396ZM120.129 35.36C119.505 35.36 119.001 35.258 118.617 35.054C118.233 34.85 117.939 34.592 117.735 34.28C117.543 33.956 117.411 33.62 117.339 33.272C117.279 32.912 117.249 32.588 117.249 32.3C117.249 31.496 117.339 30.692 117.519 29.888C117.711 29.084 117.999 28.346 118.383 27.674C118.779 27.002 119.289 26.468 119.913 26.072C120.549 25.664 121.317 25.46 122.217 25.46C122.853 25.46 123.357 25.562 123.729 25.766C124.113 25.97 124.407 26.234 124.611 26.558C124.815 26.87 124.947 27.206 125.007 27.566C125.079 27.914 125.115 28.232 125.115 28.52C125.115 29.324 125.019 30.134 124.827 30.95C124.647 31.754 124.359 32.492 123.963 33.164C123.567 33.824 123.051 34.358 122.415 34.766C121.791 35.162 121.029 35.36 120.129 35.36ZM120.489 34.28C120.873 34.28 121.215 34.166 121.515 33.938C121.827 33.71 122.097 33.404 122.325 33.02C122.553 32.624 122.739 32.18 122.883 31.688C123.039 31.196 123.153 30.686 123.225 30.158C123.297 29.618 123.333 29.09 123.333 28.574C123.333 27.986 123.225 27.5 123.009 27.116C122.805 26.732 122.427 26.54 121.875 26.54C121.491 26.54 121.143 26.654 120.831 26.882C120.519 27.11 120.249 27.416 120.021 27.8C119.793 28.184 119.601 28.622 119.445 29.114C119.301 29.606 119.193 30.122 119.121 30.662C119.049 31.202 119.013 31.73 119.013 32.246C119.013 32.834 119.121 33.32 119.337 33.704C119.553 34.088 119.937 34.28 120.489 34.28Z" fill="#882F87"/>
<path d="M265.5 13.2361L268.702 23.0922C268.97 23.9162 269.738 24.4742 270.605 24.4742H280.968L272.584 30.5656C271.883 31.0749 271.589 31.9776 271.857 32.8017L275.06 42.6578L266.676 36.5664C265.975 36.0571 265.025 36.0571 264.324 36.5664L255.94 42.6578L259.143 32.8017C259.411 31.9776 259.117 31.0749 258.416 30.5656L250.032 24.4742L260.395 24.4742C261.262 24.4742 262.03 23.9162 262.298 23.0922L265.5 13.2361Z" fill="#E5E3F0" stroke="#882F87" stroke-width="2"/>
</svg>
