<svg width="299" height="60" viewBox="0 0 299 60" fill="none" xmlns="http://www.w3.org/2000/svg">
<rect opacity="0.5" width="299" height="60" rx="30" fill="#FAFAC8"/>
<path opacity="0.8" d="M30.086 35.378C28.946 35.378 28.076 35.012 27.476 34.28C26.888 33.548 26.594 32.492 26.594 31.112C26.594 30.416 26.666 29.684 26.81 28.916C26.966 28.136 27.2 27.386 27.512 26.666C27.824 25.934 28.214 25.274 28.682 24.686C29.15 24.098 29.702 23.63 30.338 23.282C30.974 22.934 31.694 22.76 32.498 22.76C32.942 22.76 33.338 22.82 33.686 22.94C34.034 23.048 34.328 23.21 34.568 23.426C34.82 23.63 35.006 23.882 35.126 24.182C35.258 24.482 35.324 24.818 35.324 25.19C35.324 25.562 35.258 25.874 35.126 26.126C35.006 26.378 34.838 26.564 34.622 26.684C34.418 26.804 34.19 26.864 33.938 26.864C33.77 26.864 33.596 26.84 33.416 26.792C33.248 26.732 33.122 26.642 33.038 26.522C33.134 26.318 33.206 26.09 33.254 25.838C33.314 25.574 33.344 25.364 33.344 25.208C33.344 24.944 33.29 24.728 33.182 24.56C33.074 24.392 32.924 24.266 32.732 24.182C32.54 24.086 32.312 24.038 32.048 24.038C31.544 24.038 31.094 24.2 30.698 24.524C30.314 24.836 29.984 25.256 29.708 25.784C29.432 26.312 29.204 26.888 29.024 27.512C28.844 28.136 28.712 28.76 28.628 29.384C28.544 29.996 28.502 30.548 28.502 31.04C28.502 31.532 28.55 31.994 28.646 32.426C28.754 32.858 28.94 33.206 29.204 33.47C29.48 33.734 29.87 33.866 30.374 33.866C31.046 33.866 31.592 33.644 32.012 33.2C32.444 32.756 32.816 32.234 33.128 31.634C33.332 31.73 33.482 31.844 33.578 31.976C33.674 32.096 33.722 32.294 33.722 32.57C33.722 33.002 33.608 33.392 33.38 33.74C33.164 34.088 32.876 34.382 32.516 34.622C32.168 34.862 31.778 35.048 31.346 35.18C30.926 35.312 30.506 35.378 30.086 35.378ZM38.8156 35.36C38.1436 35.36 37.5676 35.234 37.0876 34.982C36.6196 34.718 36.2596 34.328 36.0076 33.812C35.7676 33.296 35.6476 32.642 35.6476 31.85C35.6476 31.094 35.7496 30.338 35.9536 29.582C36.1576 28.826 36.4636 28.142 36.8716 27.53C37.2796 26.906 37.7956 26.408 38.4196 26.036C39.0556 25.652 39.7996 25.46 40.6516 25.46C41.1076 25.46 41.5096 25.526 41.8576 25.658C42.2056 25.79 42.4756 26.006 42.6676 26.306C42.8716 26.594 42.9736 26.984 42.9736 27.476C42.9736 28.196 42.7576 28.802 42.3256 29.294C41.8936 29.786 41.3296 30.152 40.6336 30.392C39.9496 30.632 39.2176 30.746 38.4376 30.734C38.2816 30.734 38.1076 30.728 37.9156 30.716C37.7236 30.704 37.5736 30.692 37.4656 30.68C37.4536 30.896 37.4416 31.106 37.4296 31.31C37.4176 31.502 37.4116 31.676 37.4116 31.832C37.4116 32.528 37.5316 33.074 37.7716 33.47C38.0116 33.854 38.4616 34.046 39.1216 34.046C39.6616 34.046 40.1236 33.914 40.5076 33.65C40.9036 33.386 41.2156 33.02 41.4436 32.552C41.6116 32.576 41.7256 32.666 41.7856 32.822C41.8456 32.966 41.8756 33.11 41.8756 33.254C41.8756 33.566 41.7616 33.884 41.5336 34.208C41.3176 34.532 40.9816 34.802 40.5256 35.018C40.0816 35.246 39.5116 35.36 38.8156 35.36ZM37.5916 29.78C37.9996 29.78 38.4136 29.744 38.8336 29.672C39.2536 29.588 39.6436 29.462 40.0036 29.294C40.3636 29.126 40.6516 28.898 40.8676 28.61C41.0956 28.322 41.2096 27.974 41.2096 27.566C41.2096 27.206 41.1196 26.942 40.9396 26.774C40.7716 26.594 40.5316 26.504 40.2196 26.504C39.8476 26.504 39.5056 26.618 39.1936 26.846C38.8936 27.074 38.6356 27.362 38.4196 27.71C38.2036 28.058 38.0236 28.418 37.8796 28.79C37.7476 29.162 37.6516 29.492 37.5916 29.78ZM43.6816 35.18L45.4636 25.82L46.8676 25.64L46.6696 27.224C46.8856 26.732 47.2216 26.318 47.6776 25.982C48.1336 25.634 48.6316 25.46 49.1716 25.46C49.7356 25.46 50.1376 25.634 50.3776 25.982C50.6176 26.33 50.7376 26.732 50.7376 27.188C50.7376 27.74 50.5876 28.226 50.2876 28.646C49.9996 29.066 49.6156 29.276 49.1356 29.276C49.0156 29.276 48.8836 29.252 48.7396 29.204C48.6076 29.156 48.5056 29.072 48.4336 28.952C48.5656 28.772 48.6736 28.556 48.7576 28.304C48.8536 28.04 48.9016 27.8 48.9016 27.584C48.9016 27.344 48.8416 27.164 48.7216 27.044C48.6136 26.912 48.4456 26.846 48.2176 26.846C47.8936 26.846 47.6176 26.966 47.3896 27.206C47.1616 27.434 46.9756 27.722 46.8316 28.07C46.6876 28.418 46.5676 28.778 46.4716 29.15C46.3876 29.51 46.3216 29.816 46.2736 30.068L45.3916 35L43.6816 35.18ZM52.4915 35.378C52.2275 35.378 51.9875 35.282 51.7715 35.09C51.5675 34.898 51.4655 34.622 51.4655 34.262C51.4655 34.022 51.5015 33.68 51.5735 33.236C51.6575 32.78 51.7475 32.294 51.8435 31.778C51.9515 31.262 52.0595 30.77 52.1675 30.302C52.2755 29.834 52.3535 29.462 52.4015 29.186L52.9055 26.63H51.5735L51.6455 26.09C52.1975 25.874 52.7315 25.592 53.2475 25.244C53.7755 24.884 54.2255 24.494 54.5975 24.074H55.0835L54.7415 25.82H56.1455L55.9835 26.63H54.5435L53.2655 32.912C53.2175 33.104 53.1815 33.278 53.1575 33.434C53.1335 33.578 53.1155 33.716 53.1035 33.848C53.0915 34.148 53.1395 34.364 53.2475 34.496C53.3675 34.616 53.5955 34.64 53.9315 34.568C53.8475 34.748 53.7335 34.898 53.5895 35.018C53.4575 35.138 53.3015 35.228 53.1215 35.288C52.9415 35.348 52.7315 35.378 52.4915 35.378ZM57.2031 35.36C56.8671 35.36 56.6091 35.264 56.4291 35.072C56.2611 34.88 56.1771 34.622 56.1771 34.298C56.1771 34.178 56.1831 34.04 56.1951 33.884C56.2191 33.716 56.2431 33.548 56.2671 33.38C56.3031 33.2 56.3331 33.032 56.3571 32.876C56.3931 32.72 56.4231 32.582 56.4471 32.462L57.7971 25.82L59.4531 25.64L57.9051 33.326C57.8931 33.422 57.8751 33.548 57.8511 33.704C57.8271 33.86 57.8151 33.986 57.8151 34.082C57.8151 34.25 57.8511 34.382 57.9231 34.478C58.0071 34.562 58.1271 34.61 58.2831 34.622C58.2231 34.874 58.0911 35.06 57.8871 35.18C57.6831 35.3 57.4551 35.36 57.2031 35.36ZM59.0571 24.2C58.7211 24.2 58.4391 24.116 58.2111 23.948C57.9951 23.768 57.8871 23.504 57.8871 23.156C57.8871 22.784 58.0011 22.514 58.2291 22.346C58.4691 22.166 58.7571 22.076 59.0931 22.076C59.4411 22.076 59.7291 22.166 59.9571 22.346C60.1851 22.514 60.2991 22.772 60.2991 23.12C60.2991 23.492 60.1791 23.768 59.9391 23.948C59.6991 24.116 59.4051 24.2 59.0571 24.2ZM59.7094 38.6C59.2414 38.6 58.9234 38.51 58.7554 38.33C58.5874 38.15 58.4914 37.934 58.4674 37.682C58.8154 37.658 59.1094 37.586 59.3494 37.466C59.5894 37.358 59.7934 37.184 59.9614 36.944C60.1414 36.716 60.2914 36.416 60.4114 36.044C60.5314 35.684 60.6454 35.246 60.7534 34.73L62.3374 26.63H61.0594L61.2214 25.82H62.4634L62.6974 24.884C62.8774 24.128 63.1474 23.546 63.5074 23.138C63.8794 22.73 64.3474 22.448 64.9114 22.292C65.4754 22.124 66.1414 22.04 66.9094 22.04C67.2334 22.04 67.5814 22.058 67.9534 22.094C68.3254 22.13 68.6674 22.196 68.9794 22.292C69.3034 22.388 69.5674 22.532 69.7714 22.724C69.9754 22.904 70.0774 23.15 70.0774 23.462C70.0774 23.702 70.0114 23.912 69.8794 24.092C69.7594 24.26 69.5914 24.392 69.3754 24.488C69.1594 24.584 68.9134 24.632 68.6374 24.632C68.5534 24.632 68.4214 24.626 68.2414 24.614C68.0614 24.602 67.9294 24.572 67.8454 24.524C68.0374 24.212 68.1334 23.936 68.1334 23.696C68.1334 23.348 67.9774 23.12 67.6654 23.012C67.3654 22.892 67.0174 22.832 66.6214 22.832C65.9734 22.832 65.4514 22.97 65.0554 23.246C64.6714 23.51 64.4254 23.966 64.3174 24.614L64.1194 25.82H69.3754L67.8454 33.326C67.8334 33.422 67.8154 33.548 67.7914 33.704C67.7674 33.86 67.7554 33.986 67.7554 34.082C67.7554 34.25 67.7974 34.382 67.8814 34.478C67.9654 34.562 68.0914 34.61 68.2594 34.622C68.1874 34.874 68.0434 35.06 67.8274 35.18C67.6234 35.3 67.4014 35.36 67.1614 35.36C66.8254 35.36 66.5674 35.264 66.3874 35.072C66.2074 34.88 66.1174 34.622 66.1174 34.298C66.1174 34.178 66.1294 34.04 66.1534 33.884C66.1774 33.716 66.2014 33.548 66.2254 33.38C66.2614 33.2 66.2974 33.032 66.3334 32.876C66.3694 32.72 66.3994 32.582 66.4234 32.462L67.5754 26.63H63.9574L62.2474 35.396C62.1394 36.008 61.9714 36.554 61.7434 37.034C61.5154 37.526 61.2334 37.91 60.8974 38.186C60.5614 38.462 60.1654 38.6 59.7094 38.6ZM73.4922 35.36C72.4722 35.36 71.7222 35.066 71.2422 34.478C70.7742 33.89 70.5402 33.014 70.5402 31.85C70.5402 31.094 70.6362 30.344 70.8282 29.6C71.0322 28.844 71.3322 28.154 71.7282 27.53C72.1362 26.906 72.6462 26.408 73.2582 26.036C73.8702 25.652 74.5902 25.46 75.4182 25.46C75.8982 25.46 76.3182 25.532 76.6782 25.676C77.0502 25.82 77.3382 26.03 77.5422 26.306C77.7462 26.582 77.8482 26.924 77.8482 27.332C77.8482 27.848 77.7042 28.232 77.4162 28.484C77.1402 28.724 76.8342 28.844 76.4982 28.844C76.3782 28.844 76.2462 28.826 76.1022 28.79C75.9582 28.754 75.8442 28.682 75.7602 28.574C75.8202 28.406 75.8742 28.22 75.9222 28.016C75.9702 27.812 75.9942 27.632 75.9942 27.476C75.9942 27.164 75.9162 26.93 75.7602 26.774C75.6042 26.606 75.3762 26.522 75.0762 26.522C74.7042 26.522 74.3682 26.642 74.0682 26.882C73.7682 27.122 73.5042 27.44 73.2762 27.836C73.0602 28.232 72.8742 28.664 72.7182 29.132C72.5742 29.6 72.4662 30.068 72.3942 30.536C72.3222 31.004 72.2862 31.424 72.2862 31.796C72.2862 32.408 72.4062 32.936 72.6462 33.38C72.8982 33.824 73.3482 34.046 73.9962 34.046C74.5602 34.046 75.0222 33.878 75.3822 33.542C75.7422 33.194 76.0002 32.762 76.1562 32.246C76.3722 32.294 76.5282 32.402 76.6242 32.57C76.7202 32.726 76.7682 32.912 76.7682 33.128C76.7682 33.512 76.6302 33.878 76.3542 34.226C76.0782 34.562 75.6942 34.832 75.2022 35.036C74.7222 35.252 74.1522 35.36 73.4922 35.36ZM80.9343 35.36C80.3463 35.36 79.8663 35.216 79.4943 34.928C79.1343 34.628 78.8703 34.226 78.7023 33.722C78.5343 33.218 78.4503 32.642 78.4503 31.994C78.4503 31.106 78.5643 30.272 78.7923 29.492C79.0323 28.7 79.3683 28.004 79.8003 27.404C80.2323 26.792 80.7423 26.318 81.3303 25.982C81.9183 25.634 82.5603 25.46 83.2563 25.46C83.8323 25.46 84.4503 25.586 85.1103 25.838L86.6763 25.64L85.2003 33.326C85.1883 33.434 85.1703 33.56 85.1463 33.704C85.1223 33.848 85.1103 33.974 85.1103 34.082C85.1103 34.25 85.1463 34.382 85.2183 34.478C85.3023 34.562 85.4223 34.61 85.5783 34.622C85.5303 34.79 85.4523 34.928 85.3443 35.036C85.2363 35.144 85.1103 35.222 84.9663 35.27C84.8223 35.33 84.6603 35.36 84.4803 35.36C84.1683 35.36 83.9103 35.27 83.7063 35.09C83.5143 34.922 83.4123 34.67 83.4003 34.334C83.0883 34.634 82.7223 34.88 82.3023 35.072C81.8823 35.264 81.4263 35.36 80.9343 35.36ZM81.6543 34.298C82.1343 34.298 82.5243 34.142 82.8243 33.83C83.1363 33.506 83.3823 33.11 83.5623 32.642C83.7423 32.162 83.8743 31.7 83.9583 31.256L84.7323 27.152C84.4803 26.948 84.2103 26.798 83.9223 26.702C83.6343 26.594 83.3703 26.54 83.1303 26.54C82.7583 26.54 82.4163 26.636 82.1043 26.828C81.8043 27.02 81.5343 27.29 81.2943 27.638C81.0663 27.986 80.8683 28.4 80.7003 28.88C80.5443 29.348 80.4243 29.864 80.3403 30.428C80.2683 30.98 80.2323 31.556 80.2323 32.156C80.2323 32.756 80.3283 33.266 80.5203 33.686C80.7243 34.094 81.1023 34.298 81.6543 34.298ZM90.0925 35.36C89.5045 35.36 89.0245 35.216 88.6525 34.928C88.2925 34.628 88.0285 34.226 87.8605 33.722C87.6925 33.218 87.6085 32.642 87.6085 31.994C87.6085 31.106 87.7285 30.272 87.9685 29.492C88.2085 28.7 88.5385 28.004 88.9585 27.404C89.3905 26.792 89.9005 26.318 90.4885 25.982C91.0885 25.634 91.7365 25.46 92.4325 25.46C92.8165 25.46 93.1525 25.502 93.4405 25.586C93.7405 25.658 94.0825 25.766 94.4665 25.91L95.7625 26.054C95.5345 27.266 95.3005 28.478 95.0605 29.69C94.8325 30.902 94.5985 32.114 94.3585 33.326C94.3465 33.434 94.3285 33.56 94.3045 33.704C94.2805 33.848 94.2685 33.974 94.2685 34.082C94.2685 34.25 94.3045 34.382 94.3765 34.478C94.4605 34.562 94.5805 34.61 94.7365 34.622C94.6885 34.79 94.6105 34.928 94.5025 35.036C94.3945 35.144 94.2685 35.222 94.1245 35.27C93.9805 35.33 93.8185 35.36 93.6385 35.36C93.3265 35.36 93.0685 35.27 92.8645 35.09C92.6725 34.922 92.5705 34.67 92.5585 34.334C92.2465 34.634 91.8805 34.88 91.4605 35.072C91.0405 35.264 90.5845 35.36 90.0925 35.36ZM90.8125 34.298C91.2925 34.298 91.6825 34.142 91.9825 33.83C92.2945 33.506 92.5405 33.11 92.7205 32.642C92.9005 32.162 93.0325 31.7 93.1165 31.256L93.8905 27.152C93.6385 26.948 93.3685 26.798 93.0805 26.702C92.7925 26.594 92.5285 26.54 92.2885 26.54C91.9165 26.54 91.5745 26.636 91.2625 26.828C90.9625 27.02 90.6925 27.29 90.4525 27.638C90.2245 27.986 90.0265 28.4 89.8585 28.88C89.7025 29.348 89.5825 29.864 89.4985 30.428C89.4265 30.98 89.3905 31.556 89.3905 32.156C89.3905 32.756 89.4865 33.266 89.6785 33.686C89.8825 34.094 90.2605 34.298 90.8125 34.298ZM95.7265 26.234L94.1065 26.108C94.2265 25.436 94.3345 24.746 94.4305 24.038C94.5265 23.33 94.5745 22.736 94.5745 22.256C94.5745 22.124 94.5685 22.01 94.5565 21.914C94.5565 21.806 94.5445 21.71 94.5205 21.626C94.5925 21.566 94.6885 21.518 94.8085 21.482C94.9405 21.446 95.0785 21.428 95.2225 21.428C95.4985 21.428 95.7625 21.518 96.0145 21.698C96.2665 21.866 96.3925 22.178 96.3925 22.634C96.3925 22.742 96.3565 23 96.2845 23.408C96.2125 23.804 96.1225 24.26 96.0145 24.776C95.9185 25.292 95.8225 25.778 95.7265 26.234ZM100.09 35.36C99.4664 35.36 98.9624 35.258 98.5784 35.054C98.1944 34.85 97.9004 34.592 97.6964 34.28C97.5044 33.956 97.3724 33.62 97.3004 33.272C97.2404 32.912 97.2104 32.588 97.2104 32.3C97.2104 31.496 97.3004 30.692 97.4804 29.888C97.6724 29.084 97.9604 28.346 98.3444 27.674C98.7404 27.002 99.2504 26.468 99.8744 26.072C100.51 25.664 101.278 25.46 102.178 25.46C102.814 25.46 103.318 25.562 103.69 25.766C104.074 25.97 104.368 26.234 104.572 26.558C104.776 26.87 104.908 27.206 104.968 27.566C105.04 27.914 105.076 28.232 105.076 28.52C105.076 29.324 104.98 30.134 104.788 30.95C104.608 31.754 104.32 32.492 103.924 33.164C103.528 33.824 103.012 34.358 102.376 34.766C101.752 35.162 100.99 35.36 100.09 35.36ZM100.45 34.28C100.834 34.28 101.176 34.166 101.476 33.938C101.788 33.71 102.058 33.404 102.286 33.02C102.514 32.624 102.7 32.18 102.844 31.688C103 31.196 103.114 30.686 103.186 30.158C103.258 29.618 103.294 29.09 103.294 28.574C103.294 27.986 103.186 27.5 102.97 27.116C102.766 26.732 102.388 26.54 101.836 26.54C101.452 26.54 101.104 26.654 100.792 26.882C100.48 27.11 100.21 27.416 99.9824 27.8C99.7544 28.184 99.5624 28.622 99.4064 29.114C99.2624 29.606 99.1544 30.122 99.0824 30.662C99.0104 31.202 98.9744 31.73 98.9744 32.246C98.9744 32.834 99.0824 33.32 99.2984 33.704C99.5144 34.088 99.8984 34.28 100.45 34.28Z" fill="#882F87"/>
<path d="M276.916 11H242.084C241.485 11 241 11.4853 241 12.084V36.0761C241 36.6749 241.485 37.1601 242.084 37.1601H260.584V46.9159C260.584 47.3543 260.848 47.7498 261.253 47.9175C261.658 48.0852 262.124 47.9926 262.434 47.6824L266.004 44.1131L269.573 47.6824C269.781 47.8898 270.058 47.9999 270.34 47.9999C270.48 47.9999 270.621 47.9728 270.755 47.9175C271.16 47.7495 271.424 47.3543 271.424 46.9159V37.1601H276.916C277.515 37.1601 278 36.6749 278 36.0761V12.084C278 11.4853 277.515 11 276.916 11ZM266.004 37.1601C263.015 37.1601 260.584 34.7288 260.584 31.7402C260.584 28.7516 263.015 26.3203 266.004 26.3203C268.992 26.3203 271.424 28.7516 271.424 31.7402C271.424 34.7288 268.992 37.1601 266.004 37.1601ZM266.77 41.8136C266.347 41.3902 265.661 41.3902 265.237 41.8136L262.752 44.2991V38.595C263.738 39.0647 264.841 39.3281 266.004 39.3281C267.167 39.3281 268.269 39.0647 269.256 38.595V44.2991L266.77 41.8136ZM275.832 34.9921H272.859C273.328 34.0061 273.592 32.9032 273.592 31.7402C273.592 27.5561 270.188 24.1523 266.004 24.1523C261.82 24.1523 258.416 27.5561 258.416 31.7402C258.416 32.9032 258.679 34.0061 259.149 34.9921H243.168V13.168H275.832V34.9921Z" fill="#882F87"/>
<path d="M266.004 28.4883C264.211 28.4883 262.752 29.9471 262.752 31.7402C262.752 33.5333 264.211 34.9922 266.004 34.9922C267.797 34.9922 269.256 33.5333 269.256 31.7402C269.256 29.9471 267.797 28.4883 266.004 28.4883ZM266.004 32.8242C265.406 32.8242 264.92 32.3381 264.92 31.7402C264.92 31.1426 265.406 30.6562 266.004 30.6562C266.602 30.6562 267.088 31.1426 267.088 31.7402C267.088 32.3381 266.602 32.8242 266.004 32.8242Z" fill="#AB74AE"/>
<path d="M252.996 17.6484H266.004C266.603 17.6484 267.088 17.1632 267.088 16.5645C267.088 15.9657 266.603 15.4805 266.004 15.4805H252.996C252.397 15.4805 251.912 15.9657 251.912 16.5645C251.912 17.1632 252.397 17.6484 252.996 17.6484Z" fill="#AB74AE"/>
<path d="M246.492 21.9844H272.508C273.107 21.9844 273.592 21.4991 273.592 20.9004C273.592 20.3017 273.107 19.8164 272.508 19.8164C272.168 19.8164 246.838 19.8164 246.492 19.8164C245.893 19.8164 245.408 20.3017 245.408 20.9004C245.408 21.4991 245.893 21.9844 246.492 21.9844Z" fill="#AB74AE"/>
<path d="M246.492 26.3203H257.332C257.931 26.3203 258.416 25.8351 258.416 25.2363C258.416 24.6376 257.931 24.1523 257.332 24.1523H246.492C245.893 24.1523 245.408 24.6376 245.408 25.2363C245.408 25.8351 245.893 26.3203 246.492 26.3203Z" fill="#AB74AE"/>
<path d="M246.492 30.6562H255.164C255.763 30.6562 256.248 30.171 256.248 29.5723C256.248 28.9735 255.763 28.4883 255.164 28.4883H246.492C245.893 28.4883 245.408 28.9735 245.408 29.5723C245.408 30.171 245.893 30.6562 246.492 30.6562Z" fill="#AB74AE"/>
</svg>
