<svg width="299" height="60" viewBox="0 0 299 60" fill="none" xmlns="http://www.w3.org/2000/svg">
<rect opacity="0.5" width="299" height="60" rx="30" fill="#FAFAC8"/>
<path opacity="0.8" d="M26.594 35L28.898 23.12C29.354 23.132 29.81 23.144 30.266 23.156C30.722 23.156 31.172 23.156 31.616 23.156C32.516 23.156 33.422 23.138 34.334 23.102C34.358 23.186 34.37 23.264 34.37 23.336C34.382 23.396 34.388 23.462 34.388 23.534C34.388 23.942 34.226 24.236 33.902 24.416C33.578 24.596 33.116 24.686 32.516 24.686C32.216 24.686 31.88 24.662 31.508 24.614C31.136 24.566 30.734 24.494 30.302 24.398L29.618 28.214C29.87 28.226 30.116 28.238 30.356 28.25C30.596 28.262 30.83 28.268 31.058 28.268C31.322 28.268 31.586 28.262 31.85 28.25C32.126 28.238 32.414 28.226 32.714 28.214C32.762 28.298 32.792 28.382 32.804 28.466C32.828 28.55 32.84 28.628 32.84 28.7C32.84 28.976 32.702 29.198 32.426 29.366C32.15 29.522 31.76 29.6 31.256 29.6C31.004 29.6 30.722 29.576 30.41 29.528C30.098 29.48 29.762 29.408 29.402 29.312L28.646 33.524C28.886 33.536 29.126 33.542 29.366 33.542C29.606 33.542 29.84 33.542 30.068 33.542C30.548 33.542 30.992 33.536 31.4 33.524C31.808 33.5 32.144 33.464 32.408 33.416C32.504 33.668 32.552 33.884 32.552 34.064C32.552 34.352 32.45 34.58 32.246 34.748C32.042 34.916 31.736 35 31.328 35H26.594ZM40.9126 35.36C40.6006 35.36 40.3546 35.264 40.1746 35.072C39.9946 34.892 39.9046 34.58 39.9046 34.136C39.9046 33.872 39.9406 33.53 40.0126 33.11C40.0966 32.678 40.1926 32.222 40.3006 31.742C40.4206 31.25 40.5346 30.77 40.6426 30.302C40.7506 29.822 40.8406 29.396 40.9126 29.024C40.9966 28.64 41.0386 28.352 41.0386 28.16C41.0386 27.716 40.9186 27.386 40.6786 27.17C40.4506 26.954 40.1566 26.846 39.7966 26.846C39.2926 26.846 38.8606 27.014 38.5006 27.35C38.1526 27.674 37.8706 28.088 37.6546 28.592C37.4386 29.096 37.2766 29.6 37.1686 30.104L36.2146 35L34.5586 35.18L36.3766 25.82L37.7806 25.64L37.5826 27.224C37.9066 26.66 38.3326 26.228 38.8606 25.928C39.4006 25.616 39.9526 25.46 40.5166 25.46C41.2366 25.46 41.7766 25.658 42.1366 26.054C42.5086 26.45 42.6946 26.978 42.6946 27.638C42.6946 27.974 42.6526 28.376 42.5686 28.844C42.4966 29.3 42.4006 29.786 42.2806 30.302C42.1726 30.818 42.0586 31.322 41.9386 31.814C41.8306 32.306 41.7346 32.75 41.6506 33.146C41.5786 33.53 41.5426 33.824 41.5426 34.028C41.5426 34.184 41.5666 34.316 41.6146 34.424C41.6746 34.532 41.8066 34.598 42.0106 34.622C41.9506 34.874 41.8186 35.06 41.6146 35.18C41.4106 35.3 41.1766 35.36 40.9126 35.36ZM47.1074 35.36C46.0874 35.36 45.3374 35.066 44.8574 34.478C44.3894 33.89 44.1554 33.014 44.1554 31.85C44.1554 31.094 44.2514 30.344 44.4434 29.6C44.6474 28.844 44.9474 28.154 45.3434 27.53C45.7514 26.906 46.2614 26.408 46.8734 26.036C47.4854 25.652 48.2054 25.46 49.0334 25.46C49.5134 25.46 49.9334 25.532 50.2934 25.676C50.6654 25.82 50.9534 26.03 51.1574 26.306C51.3614 26.582 51.4634 26.924 51.4634 27.332C51.4634 27.848 51.3194 28.232 51.0314 28.484C50.7554 28.724 50.4494 28.844 50.1134 28.844C49.9934 28.844 49.8614 28.826 49.7174 28.79C49.5734 28.754 49.4594 28.682 49.3754 28.574C49.4354 28.406 49.4894 28.22 49.5374 28.016C49.5854 27.812 49.6094 27.632 49.6094 27.476C49.6094 27.164 49.5314 26.93 49.3754 26.774C49.2194 26.606 48.9914 26.522 48.6914 26.522C48.3194 26.522 47.9834 26.642 47.6834 26.882C47.3834 27.122 47.1194 27.44 46.8914 27.836C46.6754 28.232 46.4894 28.664 46.3334 29.132C46.1894 29.6 46.0814 30.068 46.0094 30.536C45.9374 31.004 45.9014 31.424 45.9014 31.796C45.9014 32.408 46.0214 32.936 46.2614 33.38C46.5134 33.824 46.9634 34.046 47.6114 34.046C48.1754 34.046 48.6374 33.878 48.9974 33.542C49.3574 33.194 49.6154 32.762 49.7714 32.246C49.9874 32.294 50.1434 32.402 50.2394 32.57C50.3354 32.726 50.3834 32.912 50.3834 33.128C50.3834 33.512 50.2454 33.878 49.9694 34.226C49.6934 34.562 49.3094 34.832 48.8174 35.036C48.3374 35.252 47.7674 35.36 47.1074 35.36ZM55.2335 35.36C54.5615 35.36 53.9855 35.234 53.5055 34.982C53.0375 34.718 52.6775 34.328 52.4255 33.812C52.1855 33.296 52.0655 32.642 52.0655 31.85C52.0655 31.094 52.1675 30.338 52.3715 29.582C52.5755 28.826 52.8815 28.142 53.2895 27.53C53.6975 26.906 54.2135 26.408 54.8375 26.036C55.4735 25.652 56.2175 25.46 57.0695 25.46C57.5255 25.46 57.9275 25.526 58.2755 25.658C58.6235 25.79 58.8935 26.006 59.0855 26.306C59.2895 26.594 59.3915 26.984 59.3915 27.476C59.3915 28.196 59.1755 28.802 58.7435 29.294C58.3115 29.786 57.7475 30.152 57.0515 30.392C56.3675 30.632 55.6355 30.746 54.8555 30.734C54.6995 30.734 54.5255 30.728 54.3335 30.716C54.1415 30.704 53.9915 30.692 53.8835 30.68C53.8715 30.896 53.8595 31.106 53.8475 31.31C53.8355 31.502 53.8295 31.676 53.8295 31.832C53.8295 32.528 53.9495 33.074 54.1895 33.47C54.4295 33.854 54.8795 34.046 55.5395 34.046C56.0795 34.046 56.5415 33.914 56.9255 33.65C57.3215 33.386 57.6335 33.02 57.8615 32.552C58.0295 32.576 58.1435 32.666 58.2035 32.822C58.2635 32.966 58.2935 33.11 58.2935 33.254C58.2935 33.566 58.1795 33.884 57.9515 34.208C57.7355 34.532 57.3995 34.802 56.9435 35.018C56.4995 35.246 55.9295 35.36 55.2335 35.36ZM54.0095 29.78C54.4175 29.78 54.8315 29.744 55.2515 29.672C55.6715 29.588 56.0615 29.462 56.4215 29.294C56.7815 29.126 57.0695 28.898 57.2855 28.61C57.5135 28.322 57.6275 27.974 57.6275 27.566C57.6275 27.206 57.5375 26.942 57.3575 26.774C57.1895 26.594 56.9495 26.504 56.6375 26.504C56.2655 26.504 55.9235 26.618 55.6115 26.846C55.3115 27.074 55.0535 27.362 54.8375 27.71C54.6215 28.058 54.4415 28.418 54.2975 28.79C54.1655 29.162 54.0695 29.492 54.0095 29.78ZM60.0996 35.18L61.8816 25.82L63.2856 25.64L63.0876 27.224C63.3036 26.732 63.6396 26.318 64.0956 25.982C64.5516 25.634 65.0496 25.46 65.5896 25.46C66.1536 25.46 66.5556 25.634 66.7956 25.982C67.0356 26.33 67.1556 26.732 67.1556 27.188C67.1556 27.74 67.0056 28.226 66.7056 28.646C66.4176 29.066 66.0336 29.276 65.5536 29.276C65.4336 29.276 65.3016 29.252 65.1576 29.204C65.0256 29.156 64.9236 29.072 64.8516 28.952C64.9836 28.772 65.0916 28.556 65.1756 28.304C65.2716 28.04 65.3196 27.8 65.3196 27.584C65.3196 27.344 65.2596 27.164 65.1396 27.044C65.0316 26.912 64.8636 26.846 64.6356 26.846C64.3116 26.846 64.0356 26.966 63.8076 27.206C63.5796 27.434 63.3936 27.722 63.2496 28.07C63.1056 28.418 62.9856 28.778 62.8896 29.15C62.8056 29.51 62.7396 29.816 62.6916 30.068L61.8096 35L60.0996 35.18ZM67.2715 35.18L69.0535 25.82L70.4575 25.64L70.2595 27.224C70.4755 26.732 70.8115 26.318 71.2675 25.982C71.7235 25.634 72.2215 25.46 72.7615 25.46C73.3255 25.46 73.7275 25.634 73.9675 25.982C74.2075 26.33 74.3275 26.732 74.3275 27.188C74.3275 27.74 74.1775 28.226 73.8775 28.646C73.5895 29.066 73.2055 29.276 72.7255 29.276C72.6055 29.276 72.4735 29.252 72.3295 29.204C72.1975 29.156 72.0955 29.072 72.0235 28.952C72.1555 28.772 72.2635 28.556 72.3475 28.304C72.4435 28.04 72.4915 27.8 72.4915 27.584C72.4915 27.344 72.4315 27.164 72.3115 27.044C72.2035 26.912 72.0355 26.846 71.8075 26.846C71.4835 26.846 71.2075 26.966 70.9795 27.206C70.7515 27.434 70.5655 27.722 70.4215 28.07C70.2775 28.418 70.1575 28.778 70.0615 29.15C69.9775 29.51 69.9115 29.816 69.8635 30.068L68.9815 35L67.2715 35.18ZM76.8913 35.36C76.3033 35.36 75.8233 35.216 75.4513 34.928C75.0913 34.628 74.8273 34.226 74.6593 33.722C74.4913 33.218 74.4073 32.642 74.4073 31.994C74.4073 31.106 74.5213 30.272 74.7493 29.492C74.9893 28.7 75.3253 28.004 75.7573 27.404C76.1893 26.792 76.6993 26.318 77.2873 25.982C77.8753 25.634 78.5173 25.46 79.2133 25.46C79.7893 25.46 80.4073 25.586 81.0673 25.838L82.6333 25.64L81.1573 33.326C81.1453 33.434 81.1273 33.56 81.1033 33.704C81.0793 33.848 81.0673 33.974 81.0673 34.082C81.0673 34.25 81.1033 34.382 81.1753 34.478C81.2593 34.562 81.3793 34.61 81.5353 34.622C81.4873 34.79 81.4093 34.928 81.3013 35.036C81.1933 35.144 81.0673 35.222 80.9233 35.27C80.7793 35.33 80.6173 35.36 80.4373 35.36C80.1253 35.36 79.8673 35.27 79.6633 35.09C79.4713 34.922 79.3693 34.67 79.3573 34.334C79.0453 34.634 78.6793 34.88 78.2593 35.072C77.8393 35.264 77.3833 35.36 76.8913 35.36ZM77.6113 34.298C78.0913 34.298 78.4813 34.142 78.7813 33.83C79.0933 33.506 79.3393 33.11 79.5193 32.642C79.6993 32.162 79.8313 31.7 79.9153 31.256L80.6893 27.152C80.4373 26.948 80.1673 26.798 79.8793 26.702C79.5913 26.594 79.3273 26.54 79.0873 26.54C78.7153 26.54 78.3733 26.636 78.0613 26.828C77.7613 27.02 77.4913 27.29 77.2513 27.638C77.0233 27.986 76.8253 28.4 76.6573 28.88C76.5013 29.348 76.3813 29.864 76.2973 30.428C76.2253 30.98 76.1893 31.556 76.1893 32.156C76.1893 32.756 76.2853 33.266 76.4773 33.686C76.6813 34.094 77.0593 34.298 77.6113 34.298ZM95.0495 35.36C94.7375 35.36 94.4915 35.264 94.3115 35.072C94.1315 34.892 94.0415 34.58 94.0415 34.136C94.0415 33.872 94.0775 33.53 94.1495 33.11C94.2335 32.678 94.3295 32.222 94.4375 31.742C94.5455 31.25 94.6535 30.764 94.7615 30.284C94.8815 29.804 94.9775 29.378 95.0495 29.006C95.1335 28.622 95.1755 28.334 95.1755 28.142C95.1755 27.71 95.0495 27.386 94.7975 27.17C94.5575 26.954 94.2395 26.846 93.8435 26.846C93.4475 26.846 93.0995 26.942 92.7995 27.134C92.5115 27.326 92.2655 27.578 92.0615 27.89C91.8695 28.202 91.7075 28.55 91.5755 28.934C91.4435 29.318 91.3415 29.708 91.2695 30.104L90.3335 35L88.6595 35.18L89.5595 30.68C89.5955 30.5 89.6375 30.302 89.6855 30.086C89.7335 29.858 89.7755 29.63 89.8115 29.402C89.8475 29.174 89.8775 28.958 89.9015 28.754C89.9375 28.538 89.9555 28.352 89.9555 28.196C89.9555 27.74 89.8415 27.404 89.6135 27.188C89.3855 26.96 89.0675 26.846 88.6595 26.846C88.2635 26.846 87.9275 26.942 87.6515 27.134C87.3755 27.314 87.1415 27.56 86.9495 27.872C86.7695 28.184 86.6195 28.532 86.4995 28.916C86.3915 29.3 86.2955 29.696 86.2115 30.104L85.2575 35L83.6015 35.18L85.4195 25.82L86.8235 25.64L86.6255 27.224C86.9375 26.624 87.3395 26.18 87.8315 25.892C88.3235 25.604 88.8875 25.46 89.5235 25.46C90.1715 25.46 90.6515 25.604 90.9635 25.892C91.2755 26.168 91.4795 26.588 91.5755 27.152C91.8995 26.552 92.3315 26.12 92.8715 25.856C93.4115 25.592 93.9755 25.46 94.5635 25.46C95.3315 25.46 95.8955 25.658 96.2555 26.054C96.6275 26.45 96.8135 26.978 96.8135 27.638C96.8135 27.974 96.7715 28.376 96.6875 28.844C96.6155 29.3 96.5255 29.786 96.4175 30.302C96.3095 30.818 96.1955 31.322 96.0755 31.814C95.9675 32.306 95.8715 32.75 95.7875 33.146C95.7155 33.53 95.6795 33.824 95.6795 34.028C95.6795 34.172 95.7035 34.304 95.7515 34.424C95.8115 34.532 95.9435 34.598 96.1475 34.622C96.0875 34.874 95.9555 35.06 95.7515 35.18C95.5475 35.3 95.3135 35.36 95.0495 35.36ZM101.482 35.36C100.81 35.36 100.234 35.234 99.7536 34.982C99.2856 34.718 98.9256 34.328 98.6736 33.812C98.4336 33.296 98.3136 32.642 98.3136 31.85C98.3136 31.094 98.4156 30.338 98.6196 29.582C98.8236 28.826 99.1296 28.142 99.5376 27.53C99.9456 26.906 100.462 26.408 101.086 26.036C101.722 25.652 102.466 25.46 103.318 25.46C103.774 25.46 104.176 25.526 104.524 25.658C104.872 25.79 105.142 26.006 105.334 26.306C105.538 26.594 105.64 26.984 105.64 27.476C105.64 28.196 105.424 28.802 104.992 29.294C104.56 29.786 103.996 30.152 103.3 30.392C102.616 30.632 101.884 30.746 101.104 30.734C100.948 30.734 100.774 30.728 100.582 30.716C100.39 30.704 100.24 30.692 100.132 30.68C100.12 30.896 100.108 31.106 100.096 31.31C100.084 31.502 100.078 31.676 100.078 31.832C100.078 32.528 100.198 33.074 100.438 33.47C100.678 33.854 101.128 34.046 101.788 34.046C102.328 34.046 102.79 33.914 103.174 33.65C103.57 33.386 103.882 33.02 104.11 32.552C104.278 32.576 104.392 32.666 104.452 32.822C104.512 32.966 104.542 33.11 104.542 33.254C104.542 33.566 104.428 33.884 104.2 34.208C103.984 34.532 103.648 34.802 103.192 35.018C102.748 35.246 102.178 35.36 101.482 35.36ZM100.258 29.78C100.666 29.78 101.08 29.744 101.5 29.672C101.92 29.588 102.31 29.462 102.67 29.294C103.03 29.126 103.318 28.898 103.534 28.61C103.762 28.322 103.876 27.974 103.876 27.566C103.876 27.206 103.786 26.942 103.606 26.774C103.438 26.594 103.198 26.504 102.886 26.504C102.514 26.504 102.172 26.618 101.86 26.846C101.56 27.074 101.302 27.362 101.086 27.71C100.87 28.058 100.69 28.418 100.546 28.79C100.414 29.162 100.318 29.492 100.258 29.78ZM112.702 35.36C112.39 35.36 112.144 35.264 111.964 35.072C111.784 34.892 111.694 34.58 111.694 34.136C111.694 33.872 111.73 33.53 111.802 33.11C111.886 32.678 111.982 32.222 112.09 31.742C112.21 31.25 112.324 30.77 112.432 30.302C112.54 29.822 112.63 29.396 112.702 29.024C112.786 28.64 112.828 28.352 112.828 28.16C112.828 27.716 112.708 27.386 112.468 27.17C112.24 26.954 111.946 26.846 111.586 26.846C111.082 26.846 110.65 27.014 110.29 27.35C109.942 27.674 109.66 28.088 109.444 28.592C109.228 29.096 109.066 29.6 108.958 30.104L108.004 35L106.348 35.18L108.166 25.82L109.57 25.64L109.372 27.224C109.696 26.66 110.122 26.228 110.65 25.928C111.19 25.616 111.742 25.46 112.306 25.46C113.026 25.46 113.566 25.658 113.926 26.054C114.298 26.45 114.484 26.978 114.484 27.638C114.484 27.974 114.442 28.376 114.358 28.844C114.286 29.3 114.19 29.786 114.07 30.302C113.962 30.818 113.848 31.322 113.728 31.814C113.62 32.306 113.524 32.75 113.44 33.146C113.368 33.53 113.332 33.824 113.332 34.028C113.332 34.184 113.356 34.316 113.404 34.424C113.464 34.532 113.596 34.598 113.8 34.622C113.74 34.874 113.608 35.06 113.404 35.18C113.2 35.3 112.966 35.36 112.702 35.36ZM117.618 35.378C117.354 35.378 117.114 35.282 116.898 35.09C116.694 34.898 116.592 34.622 116.592 34.262C116.592 34.022 116.628 33.68 116.7 33.236C116.784 32.78 116.874 32.294 116.97 31.778C117.078 31.262 117.186 30.77 117.294 30.302C117.402 29.834 117.48 29.462 117.528 29.186L118.032 26.63H116.7L116.772 26.09C117.324 25.874 117.858 25.592 118.374 25.244C118.902 24.884 119.352 24.494 119.724 24.074H120.21L119.868 25.82H121.272L121.11 26.63H119.67L118.392 32.912C118.344 33.104 118.308 33.278 118.284 33.434C118.26 33.578 118.242 33.716 118.23 33.848C118.218 34.148 118.266 34.364 118.374 34.496C118.494 34.616 118.722 34.64 119.058 34.568C118.974 34.748 118.86 34.898 118.716 35.018C118.584 35.138 118.428 35.228 118.248 35.288C118.068 35.348 117.858 35.378 117.618 35.378ZM124.436 35.36C123.812 35.36 123.308 35.258 122.924 35.054C122.54 34.85 122.246 34.592 122.042 34.28C121.85 33.956 121.718 33.62 121.646 33.272C121.586 32.912 121.556 32.588 121.556 32.3C121.556 31.496 121.646 30.692 121.826 29.888C122.018 29.084 122.306 28.346 122.69 27.674C123.086 27.002 123.596 26.468 124.22 26.072C124.856 25.664 125.624 25.46 126.524 25.46C127.16 25.46 127.664 25.562 128.036 25.766C128.42 25.97 128.714 26.234 128.918 26.558C129.122 26.87 129.254 27.206 129.314 27.566C129.386 27.914 129.422 28.232 129.422 28.52C129.422 29.324 129.326 30.134 129.134 30.95C128.954 31.754 128.666 32.492 128.27 33.164C127.874 33.824 127.358 34.358 126.722 34.766C126.098 35.162 125.336 35.36 124.436 35.36ZM124.796 34.28C125.18 34.28 125.522 34.166 125.822 33.938C126.134 33.71 126.404 33.404 126.632 33.02C126.86 32.624 127.046 32.18 127.19 31.688C127.346 31.196 127.46 30.686 127.532 30.158C127.604 29.618 127.64 29.09 127.64 28.574C127.64 27.986 127.532 27.5 127.316 27.116C127.112 26.732 126.734 26.54 126.182 26.54C125.798 26.54 125.45 26.654 125.138 26.882C124.826 27.11 124.556 27.416 124.328 27.8C124.1 28.184 123.908 28.622 123.752 29.114C123.608 29.606 123.5 30.122 123.428 30.662C123.356 31.202 123.32 31.73 123.32 32.246C123.32 32.834 123.428 33.32 123.644 33.704C123.86 34.088 124.244 34.28 124.796 34.28Z" fill="#882F87"/>
<circle cx="263.088" cy="31.7193" r="8.2807" fill="#E5E3F0" stroke="#AB74AE" stroke-width="2"/>
<path d="M253 26.6754L262.886 33.7368L278.018 18" stroke="#882F87" stroke-width="2" stroke-linecap="round"/>
</svg>
