<?xml version="1.0" encoding="utf-8"?>
<!-- Generator: Adobe Illustrator 25.4.1, SVG Export Plug-In . SVG Version: 6.00 Build 0)  -->
<svg version="1.1" id="Solid" xmlns="http://www.w3.org/2000/svg" xmlns:xlink="http://www.w3.org/1999/xlink" x="0px" y="0px"
	 viewBox="0 0 512 512" style="enable-background:new 0 0 512 512;" xml:space="preserve">
<style type="text/css">
	.st0{fill:#893087;}
</style>
<g>
	<path class="st0" d="M329.1,59.4v-32h-50.3c-32.8,0-59.4,26.6-59.4,59.4v32h50.3C302.5,118.8,329.1,92.2,329.1,59.4z"/>
	<path class="st0" d="M393.1,131.8L371,109.7h-41.9v-0.3c-14.7,17.6-36.5,27.7-59.4,27.7h-22.9v108.8c0,4,1.8,7.8,4.8,10.4
		l49.5,42.1c2.5,2.1,5.6,3.3,8.9,3.3h19.7c3.3,0,6.4-1.2,8.9-3.3l49.6-42.5c3-2.6,4.8-6.4,4.8-10.4L393.1,131.8L393.1,131.8z
		 M264,179.1l6.5-6.5l-6.5-6.5l12.9-12.9l6.5,6.5l6.5-6.5l12.9,12.9l-6.5,6.5l6.5,6.5L289.9,192l-6.5-6.5L277,192L264,179.1z
		 M283.4,265.1c0-15.1,12.3-27.4,27.4-27.4h18.3c15.1,0,27.4,12.3,27.4,27.4H283.4z M374.9,179.1l-13,12.9l-6.5-6.5L349,192
		l-12.9-12.9l6.5-6.5l-6.5-6.5l12.9-12.9l6.5,6.5l6.5-6.5l12.9,12.9l-6.5,6.5L374.9,179.1z"/>
	<polygon class="st0" points="249.4,398.3 298.6,425.7 265.8,360 	"/>
	<path class="st0" d="M365.4,336.7l-4.7-33l-10,8.6c-5.8,5-13.2,7.7-20.8,7.7h-19.7c-7.6,0-14.9-2.7-20.7-7.6l-10.1-8.6l-4.7,32.9
		l45.4,90.8L365.4,336.7z"/>
	<path class="st0" d="M381.3,94.1l21,21V93.6c0-17.9-12.9-33.2-30.6-36.1l-24.3-4v6c0,11-2.3,21.9-6.9,32h34.3
		C377.3,91.4,379.6,92.4,381.3,94.1z"/>
	<path class="st0" d="M429.7,198.9v-32c0-1.3-1-2.3-2.3-2.3h-16v36.6h16C428.7,201.1,429.7,200.1,429.7,198.9z"/>
	<polygon class="st0" points="374.2,360 341.4,425.7 390.6,398.3 	"/>
	<path class="st0" d="M164.6,429.7c0.1-25.9-12.1-50.4-32.9-65.8c-2.3-1.7-3.7-4.4-3.7-7.3V45.7C128,20.5,107.5,0,82.3,0
		S36.6,20.5,36.6,45.7v310.9c0,2.9-1.4,5.6-3.7,7.3c-36.4,27.3-43.7,78.8-16.5,115.2s78.8,43.7,115.2,16.5
		C152.4,480,164.6,455.6,164.6,429.7z M126.6,475.8c-11.9,11.5-27.8,17.9-44.3,17.9c-0.9,0-1.7,0-2.6-0.1
		c-35.3-1.4-62.8-31.2-61.4-66.5c1-23.8,15-45.1,36.5-55.3V45.7c0-15.1,12.3-27.4,27.4-27.4s27.4,12.3,27.4,27.4c0,0.2,0,0.3,0,0.5
		v325.7c22.3,10.6,36.5,33.1,36.6,57.8C146.3,447.1,139.2,463.8,126.6,475.8z"/>
	<path class="st0" d="M503.8,404.7L392.4,356l18.3,42.8c1.8,4.3,0.1,9.3-4,11.6L324.4,456l0,0l0,0l0,0c0,0-0.1,0-0.1,0.1l0,0
		c-0.1,0.1-0.2,0.1-0.3,0.2l0,0l0,0h-0.1h-0.1h-0.1l0,0h-0.1c0,0-0.1,0-0.1,0.1h-0.1h-0.1h-0.1l0,0l0,0c-0.1,0-0.1,0.1-0.2,0.1l0,0
		l0,0l0,0c-0.1,0-0.1,0-0.2,0h-0.1c-0.1,0-0.1,0-0.2,0.1h-0.1c-0.1,0-0.1,0-0.2,0.1h-0.1c-0.1,0-0.1,0-0.2,0h-0.1
		c-0.1,0-0.2,0-0.2,0l0,0c-0.1,0-0.1,0-0.2,0l0,0c-0.1,0-0.2,0-0.2,0h-0.1c-0.1,0-0.2,0-0.2,0h-0.1h-0.1l0,0h-0.1l0,0l0,0l0,0
		c-0.1,0-0.1,0-0.2,0l0,0c-0.1,0-0.1,0-0.2,0l0,0l0,0l0,0h-0.1l0,0H320h-0.1c-0.1,0-0.2,0-0.2,0h-0.1c-0.1,0-0.2,0-0.2,0l0,0
		c-0.1,0-0.1,0-0.2,0l0,0c-0.1,0-0.2,0-0.2,0h-0.1c-0.1,0-0.1,0-0.2,0h-0.1c-0.1,0-0.1,0-0.2-0.1h-0.1c-0.1,0-0.1,0-0.2-0.1H318
		c-0.1,0-0.1,0-0.2,0l0,0l0,0l0,0h-0.1l0,0h-0.1l0,0l0,0h-0.1h-0.1h-0.1h-0.1c0,0-0.1,0-0.1-0.1l0,0H317h-0.1l0,0l0,0l0,0
		c-0.1-0.1-0.2-0.1-0.3-0.2l0,0c-0.1,0-0.1-0.1-0.2-0.1l-82.3-45.7c-4.1-2.3-5.8-7.3-4-11.6l18.3-42.8L174,388.2
		c19.8,44.1,5.6,96-33.9,123.8h298.8v-54.9h18.3V512H512v-94.8C512,411.8,508.8,406.9,503.8,404.7z"/>
	<path class="st0" d="M97.5,386.6c-3.7-1.3-6.1-4.7-6.1-8.6V118.9H73.1V378c0,3.9-2.4,7.3-6.1,8.6c-19.2,6.7-31.7,25.4-30.4,45.7
		c1.5,23.4,20.4,42,43.8,43.1c25.2,1,46.5-18.6,47.5-43.8C128.8,411.5,116.4,393.3,97.5,386.6L97.5,386.6z"/>
	<path class="st0" d="M212.6,201.1h16v-36.6h-16c-1.3,0-2.3,1-2.3,2.3v32C210.3,200.1,211.3,201.1,212.6,201.1z"/>
	<path class="st0" d="M91.4,46.2c0.1-4.8-3.4-8.8-8.1-9.6c-0.4,0-0.7-0.1-1.1-0.1c-5,0-9.1,4.1-9.1,9.1l0,0v54.9h18.3
		C91.4,100.5,91.4,46.2,91.4,46.2z"/>
	<path class="st0" d="M432.8,77.1c-5.1,4.7-12,11.1-12,23.5h18.3c0-4.2,1.8-6,6.1-10.1c5.1-4.7,12-11.1,12-23.5s-6.9-18.8-12-23.5
		c-4.4-4-6.1-5.8-6.1-10.1s1.8-6,6.1-10.1c5.1-4.7,12-11.1,12-23.5h-18.3c0,4.2-1.8,6-6.1,10.1c-5.1,4.7-12,11.1-12,23.5
		s6.9,18.8,12,23.5c4.4,4,6.1,5.8,6.1,10.1S437.2,73.1,432.8,77.1z"/>
	<path class="st0" d="M500,125.9c-4.4-4-6.1-5.8-6.1-10.1s1.8-6,6.1-10.1c5.1-4.7,12-11.1,12-23.5h-18.3c0,4.2-1.8,6-6.1,10.1
		c-5.1,4.7-12,11.1-12,23.5s6.9,18.8,12,23.5c4.4,4,6.1,5.8,6.1,10.1s-1.8,6-6.1,10.1c-5.1,4.7-12,11.1-12,23.5h18.3
		c0-4.2,1.8-6,6.1-10.1c5.1-4.7,12-11.1,12-23.5S505.1,130.5,500,125.9z"/>
</g>
</svg>
