<?xml version="1.0" encoding="utf-8"?>
<!-- Generator: Adobe Illustrator 25.4.1, SVG Export Plug-In . SVG Version: 6.00 Build 0)  -->
<svg version="1.1" id="Capa_1" xmlns="http://www.w3.org/2000/svg" xmlns:xlink="http://www.w3.org/1999/xlink" x="0px" y="0px"
	 viewBox="0 0 512 512" style="enable-background:new 0 0 512 512;" xml:space="preserve">
<style type="text/css">
	.st0{fill:#893087;}
</style>
<g>
	<path class="st0" d="M343.1,163.5c10.4,0,19.2-7.2,21.6-16.8l-27.2-27.2c-9.6,2.5-16.8,11.2-16.8,21.6
		C320.8,153.4,330.8,163.5,343.1,163.5z"/>
	<path class="st0" d="M168.9,163.5c12.3,0,22.3-10,22.3-22.3c0-10.4-7.2-19.2-16.8-21.6l-27.2,27.2
		C149.7,156.3,158.5,163.5,168.9,163.5z"/>
	<path class="st0" d="M256,0C114.6,0,0,114.6,0,256s114.6,256,256,256s256-114.6,256-256S397.4,0,256,0z M343.1,88.8h6.2l46.1,46.1
		v6.2c0,28.9-23.5,52.3-52.3,52.3s-52.3-23.5-52.3-52.3S314.2,88.8,343.1,88.8z M116.6,134.9l46.1-46.1h6.2
		c28.9,0,52.3,23.5,52.3,52.3s-23.5,52.3-52.3,52.3s-52.3-23.5-52.3-52.3L116.6,134.9L116.6,134.9z M395.2,341l-0.2-0.1
		c-10.9-8.5-29.9-8.5-40.7,0l-0.2,0.2c-21.8,17-55.9,17-77.6,0l-0.2-0.2c-10.9-8.5-29.9-8.5-40.7,0l-0.2,0.2
		c-10.9,8.5-24.9,12.8-38.8,12.8c-14,0-27.9-4.2-38.8-12.7l-0.2-0.2c-10.8-8.5-29.8-8.5-40.7,0l-0.2,0.1l-18.4-23.7l0.1-0.1
		c21.7-16.9,55.8-16.9,77.5,0l0.3,0.2c10.8,8.4,29.8,8.4,40.6,0l0.3-0.2c21.7-16.9,55.8-16.9,77.5,0l0.3,0.2
		c10.8,8.4,29.8,8.4,40.6,0l0.3-0.2c21.7-17,55.8-17,77.6,0l0.3,0.2L395.2,341z"/>
</g>
</svg>
